<svg xmlns="http://www.w3.org/2000/svg" width="336.846" height="291.432" viewBox="0 0 336.846 291.432">
  <g id="Grupo_88067" data-name="Grupo 88067" transform="translate(-105.849 -3741.258)">
    <g id="Grupo_88032" data-name="Grupo 88032" transform="translate(111.872 3741.258)">
      <g id="Grupo_88029" data-name="Grupo 88029" transform="translate(272.693 130.599)">
        <path id="Trazado_121972" data-name="Trazado 121972" d="M456.686,3983.163s-6.676-13.064.951-25.942,9.838-15.912,4.977-18.55-7.093,10.3-7.093,10.3-4.1-8.9-.715-18.22,5.506-24.492.885-26.12-.883,18.931-4.892,25.939a55.3,55.3,0,0,1-3.923-15.285c-.554-7.484.312-19.433-3.337-22.5s-5.988-.944-2.4,15.571a155.592,155.592,0,0,1,3.56,29.939s-7.921-21.663-13.238-22.295-5.309,6.384-.758,12.469,13.327,16.986,14.766,22.6c0,0-8.7-16.3-16.517-11.306s6.808,14.844,13.328,18.4,11.048,25.862,11.048,25.862Z" transform="translate(-426.707 -3891.605)" fill="#e0e0e0"/>
        <path id="Trazado_121973" data-name="Trazado 121973" d="M453.783,3989.3s6.5-13.152-1.3-25.928-10.05-15.779-5.224-18.482,7.23,10.207,7.23,10.207,3.979-8.957.471-18.228-5.833-24.416-1.234-26.106,1.136,18.918,5.239,25.871a55.315,55.315,0,0,0,3.718-15.336c.454-7.49-.572-19.428,3.037-22.541s5.975-1.025,2.609,15.537a155.515,155.515,0,0,0-3.16,29.984s7.631-21.768,12.939-22.47,5.4,6.312.926,12.458-13.1,17.163-14.463,22.791c0,0,8.476-16.417,16.364-11.526s-6.609,14.934-13.08,18.579-10.7,26.007-10.7,26.007Z" transform="translate(-429.074 -3892.384)" fill="#e7e7e7"/>
        <g id="Grupo_88028" data-name="Grupo 88028" transform="translate(0.991 87.541)">
          <path id="Trazado_121974" data-name="Trazado 121974" d="M481.547,3992.381h-53.7l4.346,34.467H477.2Z" transform="translate(-427.848 -3992.381)" fill="#f0f0f0"/>
        </g>
      </g>
      <g id="Grupo_88030" data-name="Grupo 88030" transform="translate(133.773)">
        <rect id="Rectángulo_34920" data-name="Rectángulo 34920" width="97.824" height="108.248" fill="#e9e9e9"/>
        <rect id="Rectángulo_34921" data-name="Rectángulo 34921" width="89.472" height="99.896" transform="translate(4.304 4.288)" fill="#f3f3f3"/>
        <path id="Trazado_121975" data-name="Trazado 121975" d="M297.025,3746.194l-25.287,94.7v-51.268l11.571-43.433Z" transform="translate(-267.434 -3741.906)" fill="#fff"/>
        <path id="Trazado_121976" data-name="Trazado 121976" d="M309.066,3746.194l-26.668,99.9h-5.03l26.668-99.9Z" transform="translate(-268.173 -3741.906)" fill="#fff"/>
        <path id="Trazado_121977" data-name="Trazado 121977" d="M371.808,3777.554v51.277l-5.664,21.378H352.428Z" transform="translate(-278.032 -3746.026)" fill="#fff"/>
        <rect id="Rectángulo_34922" data-name="Rectángulo 34922" width="3.475" height="108.248" transform="translate(47.175)" fill="#e9e9e9"/>
        <rect id="Rectángulo_34923" data-name="Rectángulo 34923" width="94.249" height="3.475" transform="translate(1.698 21.965)" fill="#e9e9e9"/>
      </g>
      <g id="Grupo_88031" data-name="Grupo 88031">
        <rect id="Rectángulo_34924" data-name="Rectángulo 34924" width="97.824" height="108.248" fill="#e9e9e9"/>
        <rect id="Rectángulo_34925" data-name="Rectángulo 34925" width="89.472" height="99.896" transform="translate(4.304 4.288)" fill="#f3f3f3"/>
        <path id="Trazado_121978" data-name="Trazado 121978" d="M143.025,3746.194l-25.287,94.7v-51.268l11.571-43.433Z" transform="translate(-113.434 -3741.906)" fill="#fff"/>
        <path id="Trazado_121979" data-name="Trazado 121979" d="M155.066,3746.194l-26.668,99.9h-5.03l26.668-99.9Z" transform="translate(-114.173 -3741.906)" fill="#fff"/>
        <path id="Trazado_121980" data-name="Trazado 121980" d="M217.808,3777.554v51.277l-5.664,21.378H198.428Z" transform="translate(-124.032 -3746.026)" fill="#fff"/>
        <rect id="Rectángulo_34926" data-name="Rectángulo 34926" width="3.475" height="108.248" transform="translate(47.175)" fill="#e9e9e9"/>
        <rect id="Rectángulo_34927" data-name="Rectángulo 34927" width="94.249" height="3.475" transform="translate(1.698 21.965)" fill="#e9e9e9"/>
      </g>
    </g>
    <ellipse id="_Path_" data-name="&lt;Path&gt;" cx="168.423" cy="9.836" rx="168.423" ry="9.836" transform="translate(105.849 4013.018)" fill="#f5f5f5"/>
    <g id="Grupo_88049" data-name="Grupo 88049" transform="translate(249.566 3756.855)">
      <path id="Trazado_121981" data-name="Trazado 121981" d="M410.369,3997.575H277.043a5.667,5.667,0,0,1-5.728-6.218l16.808-215.637a6.84,6.84,0,0,1,6.7-6.218H428.147a5.667,5.667,0,0,1,5.728,6.218l-16.809,215.637A6.838,6.838,0,0,1,410.369,3997.575Z" transform="translate(-271.296 -3760.564)" fill="#263237"/>
      <path id="Trazado_121982" data-name="Trazado 121982" d="M410.369,3997.575H277.043a5.667,5.667,0,0,1-5.728-6.218l16.808-215.637a6.84,6.84,0,0,1,6.7-6.218H428.147a5.667,5.667,0,0,1,5.728,6.218l-16.809,215.637A6.838,6.838,0,0,1,410.369,3997.575Z" transform="translate(-271.296 -3760.564)" fill="#fff" opacity="0.2"/>
      <path id="Trazado_121983" data-name="Trazado 121983" d="M400.648,3783.171H336.8a1.981,1.981,0,0,1-2-2.174l.982-12.6a2.39,2.39,0,0,1,2.341-2.173h63.846a1.981,1.981,0,0,1,2,2.173l-.982,12.6A2.39,2.39,0,0,1,400.648,3783.171Z" transform="translate(-279.636 -3760.133)" fill="#f88f05"/>
      <path id="Trazado_121984" data-name="Trazado 121984" d="M400.648,3783.171H336.8a1.981,1.981,0,0,1-2-2.174l.982-12.6a2.39,2.39,0,0,1,2.341-2.173h63.846a1.981,1.981,0,0,1,2,2.173l-.982,12.6A2.39,2.39,0,0,1,400.648,3783.171Z" transform="translate(-279.636 -3760.133)" opacity="0.2" style="isolation: isolate"/>
      <path id="Trazado_121985" data-name="Trazado 121985" d="M379.265,3769.21h-9.99l.39-5a5.5,5.5,0,0,1,5.384-5h0a4.557,4.557,0,0,1,4.606,5Z" transform="translate(-284.165 -3759.213)" fill="#f88f05"/>
      <path id="Trazado_121986" data-name="Trazado 121986" d="M379.265,3769.21h-9.99l.39-5a5.5,5.5,0,0,1,5.384-5h0a4.557,4.557,0,0,1,4.606,5Z" transform="translate(-284.165 -3759.213)" fill="#fff" opacity="0.4"/>
      <path id="Trazado_121987" data-name="Trazado 121987" d="M409.927,3989.936H281.593l16.374-210.073H426.3Z" transform="translate(-272.648 -3761.925)" fill="#fff"/>
      <g id="Grupo_88035" data-name="Grupo 88035" transform="translate(63.387 12.018)">
        <g id="Grupo_88033" data-name="Grupo 88033">
          <path id="Trazado_121988" data-name="Trazado 121988" d="M390.017,3789.963H349a4.673,4.673,0,0,1-4.719-5.121l.52-6.674a5.638,5.638,0,0,1,5.517-5.121h41.016a4.671,4.671,0,0,1,4.718,5.121l-.52,6.674A5.638,5.638,0,0,1,390.017,3789.963Zm-39.833-15.177a3.725,3.725,0,0,0-3.644,3.383l-.52,6.674a3.087,3.087,0,0,0,3.117,3.383h41.016a3.724,3.724,0,0,0,3.643-3.383l.52-6.674a3.086,3.086,0,0,0-3.116-3.383Z" transform="translate(-344.267 -3773.048)" fill="#ff9724"/>
        </g>
        <g id="Grupo_88034" data-name="Grupo 88034" opacity="0.4">
          <path id="Trazado_121989" data-name="Trazado 121989" d="M390.017,3789.963H349a4.673,4.673,0,0,1-4.719-5.121l.52-6.674a5.638,5.638,0,0,1,5.517-5.121h41.016a4.671,4.671,0,0,1,4.718,5.121l-.52,6.674A5.638,5.638,0,0,1,390.017,3789.963Zm-39.833-15.177a3.725,3.725,0,0,0-3.644,3.383l-.52,6.674a3.087,3.087,0,0,0,3.117,3.383h41.016a3.724,3.724,0,0,0,3.643-3.383l.52-6.674a3.086,3.086,0,0,0-3.116-3.383Z" transform="translate(-344.267 -3773.048)" fill="#fff"/>
        </g>
      </g>
      <path id="Trazado_121990" data-name="Trazado 121990" d="M389.077,3776.591H354.331a1.089,1.089,0,0,1-1.1-1.2l.271-3.478a1.314,1.314,0,0,1,1.287-1.2h34.746a1.09,1.09,0,0,1,1.1,1.2l-.271,3.478A1.316,1.316,0,0,1,389.077,3776.591Z" transform="translate(-282.057 -3760.724)" fill="#ff9a29"/>
      <g id="Grupo_88048" data-name="Grupo 88048" transform="translate(21.098 38.011)">
        <path id="Trazado_121991" data-name="Trazado 121991" d="M413.658,3813.592h-97.29l.828-10.62h97.29Z" transform="translate(-298.313 -3802.972)" fill="#ff9724"/>
        <g id="Grupo_88036" data-name="Grupo 88036" transform="translate(9.357 22.654)">
          <path id="Trazado_121992" data-name="Trazado 121992" d="M373.249,3831.793H308.482l.214-2.741h64.767Z" transform="translate(-306.635 -3829.052)" fill="#ff9724"/>
          <path id="Trazado_121993" data-name="Trazado 121993" d="M372.54,3840.889H307.773l.214-2.741h64.767Z" transform="translate(-306.542 -3830.246)" fill="#ff9724"/>
          <path id="Trazado_121994" data-name="Trazado 121994" d="M371.831,3849.985H307.064l.214-2.741h64.767Z" transform="translate(-306.449 -3831.441)" fill="#ff9724"/>
          <path id="Trazado_121995" data-name="Trazado 121995" d="M371.122,3859.081H306.355l.214-2.741h64.767Z" transform="translate(-306.355 -3832.636)" fill="#ff9724"/>
        </g>
        <g id="Grupo_88037" data-name="Grupo 88037" transform="translate(90.199 18.952)">
          <path id="Trazado_121996" data-name="Trazado 121996" d="M425.845,3855.5H399.42l2.061-26.446h26.425Z" transform="translate(-399.42 -3825.349)" fill="#ff9724"/>
          <text id="_" data-name="?" transform="matrix(0.997, 0.077, -0.077, 0.997, 8.453, 24.925)" fill="#fff" font-size="23" font-family="SegoeUI, Segoe UI"><tspan x="0" y="0">?</tspan></text>
        </g>
        <g id="Grupo_88038" data-name="Grupo 88038" transform="translate(6.238 62.67)">
          <path id="Trazado_121997" data-name="Trazado 121997" d="M369.659,3877.858H304.892l.214-2.741h64.767Z" transform="translate(-303.044 -3875.117)" fill="#ff9724"/>
          <path id="Trazado_121998" data-name="Trazado 121998" d="M368.95,3886.954H304.183l.214-2.741h64.767Z" transform="translate(-302.951 -3876.312)" fill="#ff9724"/>
          <path id="Trazado_121999" data-name="Trazado 121999" d="M368.241,3896.051H303.474l.214-2.741h64.767Z" transform="translate(-302.858 -3877.506)" fill="#ff9724"/>
          <path id="Trazado_122000" data-name="Trazado 122000" d="M367.532,3905.147H302.765l.214-2.741h64.767Z" transform="translate(-302.765 -3878.701)" fill="#ff9724"/>
        </g>
        <g id="Grupo_88039" data-name="Grupo 88039" transform="translate(87.08 58.967)">
          <path id="Trazado_122001" data-name="Trazado 122001" d="M422.255,3901.563H395.83l2.061-26.446h26.425Z" transform="translate(-395.83 -3871.415)" fill="#ff9724"/>
          <text id="_2" data-name="?" transform="matrix(0.997, 0.077, -0.077, 0.997, 8.453, 24.925)" fill="#fff" font-size="23" font-family="SegoeUI, Segoe UI"><tspan x="0" y="0">?</tspan></text>
        </g>
        <g id="Grupo_88040" data-name="Grupo 88040" transform="translate(3.119 102.684)">
          <path id="Trazado_122002" data-name="Trazado 122002" d="M366.068,3923.923H301.3l.214-2.741h64.767Z" transform="translate(-299.454 -3921.182)" fill="#ff9724"/>
          <path id="Trazado_122003" data-name="Trazado 122003" d="M365.359,3933.02H300.592l.214-2.741h64.767Z" transform="translate(-299.361 -3922.377)" fill="#ff9724"/>
          <path id="Trazado_122004" data-name="Trazado 122004" d="M364.65,3942.116H299.883l.214-2.741h64.767Z" transform="translate(-299.267 -3923.572)" fill="#ff9724"/>
          <path id="Trazado_122005" data-name="Trazado 122005" d="M363.941,3951.212H299.174l.214-2.741h64.767Z" transform="translate(-299.174 -3924.766)" fill="#ff9724"/>
        </g>
        <g id="Grupo_88041" data-name="Grupo 88041" transform="translate(83.96 98.982)">
          <path id="Trazado_122006" data-name="Trazado 122006" d="M418.664,3947.628H392.239l2.061-26.446h26.425Z" transform="translate(-392.239 -3917.48)" fill="#ff9724"/>
          <text id="_3" data-name="?" transform="matrix(0.997, 0.077, -0.077, 0.997, 8.453, 24.925)" fill="#fff" font-size="23" font-family="SegoeUI, Segoe UI"><tspan x="0" y="0">?</tspan></text>
        </g>
        <g id="Grupo_88042" data-name="Grupo 88042" transform="translate(0 142.699)">
          <path id="Trazado_122007" data-name="Trazado 122007" d="M362.478,3969.989H297.711l.214-2.741h64.767Z" transform="translate(-295.863 -3967.248)" fill="#ff9724"/>
          <path id="Trazado_122008" data-name="Trazado 122008" d="M361.769,3979.085H297l.214-2.741h64.767Z" transform="translate(-295.77 -3968.442)" fill="#ff9724"/>
          <path id="Trazado_122009" data-name="Trazado 122009" d="M361.06,3988.181H296.293l.214-2.741h64.767Z" transform="translate(-295.677 -3969.637)" fill="#ff9724"/>
          <path id="Trazado_122010" data-name="Trazado 122010" d="M360.351,3997.277H295.584l.214-2.741h64.767Z" transform="translate(-295.584 -3970.832)" fill="#ff9724"/>
        </g>
        <g id="Grupo_88043" data-name="Grupo 88043" transform="translate(80.842 138.998)">
          <path id="Trazado_122011" data-name="Trazado 122011" d="M415.073,3993.693H388.648l2.061-26.446h26.425Z" transform="translate(-388.648 -3963.546)" fill="#ff9724"/>
          <text id="_4" data-name="?" transform="matrix(0.997, 0.077, -0.077, 0.997, 8.453, 24.925)" fill="#fff" font-size="23" font-family="SegoeUI, Segoe UI"><tspan x="0" y="0">?</tspan></text>
        </g>
        <path id="Trazado_122012" data-name="Trazado 122012" d="M413.658,3813.592h-97.29l.828-10.62h97.29Z" transform="translate(-298.313 -3802.972)" fill="#fff" opacity="0.7"/>
        <g id="Grupo_88044" data-name="Grupo 88044" transform="translate(9.357 22.654)">
          <path id="Trazado_122013" data-name="Trazado 122013" d="M373.249,3831.793H308.482l.214-2.741h64.767Z" transform="translate(-306.635 -3829.052)" fill="#fff" opacity="0.7"/>
          <path id="Trazado_122014" data-name="Trazado 122014" d="M372.54,3840.889H307.773l.214-2.741h64.767Z" transform="translate(-306.542 -3830.246)" fill="#fff" opacity="0.7"/>
          <path id="Trazado_122015" data-name="Trazado 122015" d="M371.831,3849.985H307.064l.214-2.741h64.767Z" transform="translate(-306.449 -3831.441)" fill="#fff" opacity="0.7"/>
          <path id="Trazado_122016" data-name="Trazado 122016" d="M371.122,3859.081H306.355l.214-2.741h64.767Z" transform="translate(-306.355 -3832.636)" fill="#fff" opacity="0.7"/>
        </g>
        <path id="Trazado_122017" data-name="Trazado 122017" d="M425.845,3855.5H399.42l2.061-26.446h26.425Z" transform="translate(-309.222 -3806.397)" fill="#fff" opacity="0.7"/>
        <g id="Grupo_88045" data-name="Grupo 88045" transform="translate(6.238 62.67)">
          <path id="Trazado_122018" data-name="Trazado 122018" d="M369.659,3877.858H304.892l.214-2.741h64.767Z" transform="translate(-303.044 -3875.117)" fill="#fff" opacity="0.7"/>
          <path id="Trazado_122019" data-name="Trazado 122019" d="M368.95,3886.954H304.183l.214-2.741h64.767Z" transform="translate(-302.951 -3876.312)" fill="#fff" opacity="0.7"/>
          <path id="Trazado_122020" data-name="Trazado 122020" d="M368.241,3896.051H303.474l.214-2.741h64.767Z" transform="translate(-302.858 -3877.506)" fill="#fff" opacity="0.7"/>
          <path id="Trazado_122021" data-name="Trazado 122021" d="M367.532,3905.147H302.765l.214-2.741h64.767Z" transform="translate(-302.765 -3878.701)" fill="#fff" opacity="0.7"/>
        </g>
        <path id="Trazado_122022" data-name="Trazado 122022" d="M422.255,3901.563H395.83l2.061-26.446h26.425Z" transform="translate(-308.75 -3812.448)" fill="#fff" opacity="0.7"/>
        <g id="Grupo_88046" data-name="Grupo 88046" transform="translate(3.119 102.684)">
          <path id="Trazado_122023" data-name="Trazado 122023" d="M366.068,3923.923H301.3l.214-2.741h64.767Z" transform="translate(-299.454 -3921.182)" fill="#fff" opacity="0.7"/>
          <path id="Trazado_122024" data-name="Trazado 122024" d="M365.359,3933.02H300.592l.214-2.741h64.767Z" transform="translate(-299.361 -3922.377)" fill="#fff" opacity="0.7"/>
          <path id="Trazado_122025" data-name="Trazado 122025" d="M364.65,3942.116H299.883l.214-2.741h64.767Z" transform="translate(-299.267 -3923.572)" fill="#fff" opacity="0.7"/>
          <path id="Trazado_122026" data-name="Trazado 122026" d="M363.941,3951.212H299.174l.214-2.741h64.767Z" transform="translate(-299.174 -3924.766)" fill="#fff" opacity="0.7"/>
        </g>
        <path id="Trazado_122027" data-name="Trazado 122027" d="M418.664,3947.628H392.239l2.061-26.446h26.425Z" transform="translate(-308.279 -3818.498)" fill="#fff" opacity="0.7"/>
        <g id="Grupo_88047" data-name="Grupo 88047" transform="translate(0 142.699)">
          <path id="Trazado_122028" data-name="Trazado 122028" d="M362.478,3969.989H297.711l.214-2.741h64.767Z" transform="translate(-295.863 -3967.248)" fill="#fff" opacity="0.7"/>
          <path id="Trazado_122029" data-name="Trazado 122029" d="M361.769,3979.085H297l.214-2.741h64.767Z" transform="translate(-295.77 -3968.442)" fill="#fff" opacity="0.7"/>
          <path id="Trazado_122030" data-name="Trazado 122030" d="M361.06,3988.181H296.293l.214-2.741h64.767Z" transform="translate(-295.677 -3969.637)" fill="#fff" opacity="0.7"/>
          <path id="Trazado_122031" data-name="Trazado 122031" d="M360.351,3997.277H295.584l.214-2.741h64.767Z" transform="translate(-295.584 -3970.832)" fill="#fff" opacity="0.7"/>
        </g>
        <path id="Trazado_122032" data-name="Trazado 122032" d="M415.073,3993.693H388.648l2.061-26.446h26.425Z" transform="translate(-307.807 -3824.548)" fill="#fff" opacity="0.7"/>
      </g>
    </g>
    <g id="Grupo_88061" data-name="Grupo 88061" transform="translate(133.195 3852.391)">
      <path id="Trazado_122033" data-name="Trazado 122033" d="M245.593,3906.194v23.924a18.317,18.317,0,0,1-5.078,12.659l-22.332,23.355h12.643l23.2-22.826a18.315,18.315,0,0,0,5.47-13.056v-24.056Z" transform="translate(-147.949 -3874.054)" fill="#ff912d"/>
      <path id="Trazado_122034" data-name="Trazado 122034" d="M259.493,3906.194v24.053a17.579,17.579,0,0,1-.452,4,18.159,18.159,0,0,1-5.021,9.051l-23.193,22.829H218.188l22.324-23.358a18.276,18.276,0,0,0,5.082-12.656v-23.923Z" transform="translate(-147.95 -3874.054)" fill="#fff" opacity="0.4"/>
      <path id="Trazado_122035" data-name="Trazado 122035" d="M263.637,3906.194v24.053a17.581,17.581,0,0,1-.452,4l-13.447-5.429v-22.628Z" transform="translate(-152.094 -3874.054)" opacity="0.2" style="isolation: isolate"/>
      <g id="Grupo_88050" data-name="Grupo 88050" transform="translate(1.109 94.684)">
        <path id="Trazado_122036" data-name="Trazado 122036" d="M198.952,3978.194l-18.7,71.286a3.031,3.031,0,0,1-2.93,2.261H143.883a1.8,1.8,0,0,1-1.74-2.257l18.718-71.29h-3.593L138.782,4048.6a5.275,5.275,0,0,0,5.1,6.613h33.434a6.508,6.508,0,0,0,6.291-4.854l18.937-72.168Z" transform="translate(-138.607 -3978.194)" fill="#ff912d"/>
      </g>
      <g id="Grupo_88051" data-name="Grupo 88051" transform="translate(1.109 94.684)" opacity="0.4" style="isolation: isolate">
        <path id="Trazado_122037" data-name="Trazado 122037" d="M198.952,3978.194l-18.7,71.286a3.031,3.031,0,0,1-2.93,2.261H143.883a1.8,1.8,0,0,1-1.74-2.257l18.718-71.29h-3.593L138.782,4048.6a5.275,5.275,0,0,0,5.1,6.613h33.434a6.508,6.508,0,0,0,6.291-4.854l18.937-72.168Z" transform="translate(-138.607 -3978.194)" fill="#fff"/>
      </g>
      <g id="Grupo_88052" data-name="Grupo 88052" transform="translate(45.292 93.7)">
        <path id="Trazado_122038" data-name="Trazado 122038" d="M213.287,4055.066l-20.456-78-3.361.88,20.225,77.125Z" transform="translate(-189.47 -3977.062)" fill="#ff912d"/>
      </g>
      <g id="Grupo_88053" data-name="Grupo 88053" transform="translate(86.988 93.7)">
        <path id="Trazado_122039" data-name="Trazado 122039" d="M261.287,4055.066l-20.456-78-3.361.88,20.225,77.125Z" transform="translate(-237.47 -3977.062)" fill="#ff912d"/>
      </g>
      <g id="Grupo_88054" data-name="Grupo 88054" transform="translate(45.292 93.7)" opacity="0.5">
        <path id="Trazado_122040" data-name="Trazado 122040" d="M213.287,4055.066l-20.456-78-3.361.88,20.225,77.125Z" transform="translate(-189.47 -3977.062)" fill="#fff"/>
      </g>
      <g id="Grupo_88055" data-name="Grupo 88055" transform="translate(86.988 93.7)" opacity="0.5">
        <path id="Trazado_122041" data-name="Trazado 122041" d="M261.287,4055.066l-20.456-78-3.361.88,20.225,77.125Z" transform="translate(-237.47 -3977.062)" fill="#fff"/>
      </g>
      <path id="Trazado_122042" data-name="Trazado 122042" d="M159.7,3978.194h3.6l-2.823,10.745-3.327-1.016Z" transform="translate(-139.933 -3883.51)" opacity="0.2" style="isolation: isolate"/>
      <path id="Trazado_122043" data-name="Trazado 122043" d="M192.83,3977.064l4.647,17.729-3.9-1.181-4.109-15.671Z" transform="translate(-144.178 -3883.362)" opacity="0.2" style="isolation: isolate"/>
      <path id="Trazado_122044" data-name="Trazado 122044" d="M207.226,3978.194h3.587l-5.89,22.5-3.335-1.016Z" transform="translate(-145.77 -3883.51)" opacity="0.2" style="isolation: isolate"/>
      <path id="Trazado_122045" data-name="Trazado 122045" d="M249.039,4008.6l-3.918-1.2-7.653-29.222,3.362-.956Z" transform="translate(-150.482 -3883.383)" opacity="0.2" style="isolation: isolate"/>
      <g id="Grupo_88058" data-name="Grupo 88058">
        <g id="Grupo_88056" data-name="Grupo 88056">
          <path id="Trazado_122046" data-name="Trazado 122046" d="M153.931,3965.071l-16.282-87.933-.219-1.329a5.719,5.719,0,0,1,1.174-4.7,5.335,5.335,0,0,1,4.18-1.913h35.163a7.51,7.51,0,0,1,7,6.015l.261,1.483,16.236,87.73-3.416.633-16.286-88-.214-1.233a4,4,0,0,0-3.578-3.154H142.783a1.894,1.894,0,0,0-1.511.663,2.276,2.276,0,0,0-.42,1.882l.246,1.456,16.249,87.769Z" transform="translate(-137.33 -3869.194)" fill="#ff912d"/>
        </g>
        <g id="Grupo_88057" data-name="Grupo 88057" opacity="0.5" style="isolation: isolate">
          <path id="Trazado_122047" data-name="Trazado 122047" d="M153.931,3965.071l-16.282-87.933-.219-1.329a5.719,5.719,0,0,1,1.174-4.7,5.335,5.335,0,0,1,4.18-1.913h35.163a7.51,7.51,0,0,1,7,6.015l.261,1.483,16.236,87.73-3.416.633-16.286-88-.214-1.233a4,4,0,0,0-3.578-3.154H142.783a1.894,1.894,0,0,0-1.511.663,2.276,2.276,0,0,0-.42,1.882l.246,1.456,16.249,87.769Z" transform="translate(-137.33 -3869.194)" fill="#fff"/>
        </g>
      </g>
      <g id="Grupo_88060" data-name="Grupo 88060" transform="translate(16.574 87.155)">
        <path id="Rectángulo_34928" data-name="Rectángulo 34928" d="M5,0H70.515a5,5,0,0,1,5,5v5.154a0,0,0,0,1,0,0H0a0,0,0,0,1,0,0V5A5,5,0,0,1,5,0Z" transform="translate(2.785)" fill="#ff912d"/>
        <g id="Grupo_88059" data-name="Grupo 88059" transform="translate(0 5.077)">
          <rect id="Rectángulo_34929" data-name="Rectángulo 34929" width="81.086" height="5.077" rx="2.011" fill="#ff912d"/>
          <rect id="Rectángulo_34930" data-name="Rectángulo 34930" width="81.086" height="5.077" rx="2.011" fill="#fff" opacity="0.6" style="isolation: isolate"/>
        </g>
      </g>
      <path id="Trazado_122048" data-name="Trazado 122048" d="M190.4,3913.809H146.243l-6.585-35.615H183.8l6.532,35.285Z" transform="translate(-137.635 -3870.376)" fill="#ff912d"/>
    </g>
    <g id="_Group_" data-name="&lt;Group&gt;" transform="translate(156.568 3794.135)">
      <path id="Trazado_122049" data-name="Trazado 122049" d="M245.767,3827.924s-5.55-12.894-6.035-14.273.088-8.358-.334-9.6-6.875-2.059-8.24-1.9-.158,10.942.4,11.8a16.028,16.028,0,0,0,2.479,2.364l4.907,14.8Z" transform="translate(-172.944 -3802.131)" fill="#cc7a63"/>
      <path id="Trazado_122050" data-name="Trazado 122050" d="M215.248,3854.632c3.791.6,19.293,2.835,22.756.527,2.8-1.866-5.083-32.1-5.083-32.1l7.014-2.854s16.653,36.667,7.756,45.044c-4.52,4.255-17.216,5.333-35.484,5.333Z" transform="translate(-170.538 -3804.504)" fill="#f88f05"/>
      <path id="Trazado_122051" data-name="Trazado 122051" d="M215.248,3854.632c3.791.6,19.293,2.835,22.756.527,2.8-1.866-5.083-32.1-5.083-32.1l7.014-2.854s16.653,36.667,7.756,45.044c-4.52,4.255-17.216,5.333-35.484,5.333Z" transform="translate(-170.538 -3804.504)" fill="#fff" opacity="0.8"/>
      <path id="Trazado_122052" data-name="Trazado 122052" d="M221.829,3876.562c-2.693.078-5.568.113-8.591.113l2.606-9.98A22.37,22.37,0,0,1,221.829,3876.562Z" transform="translate(-170.673 -3810.611)" opacity="0.1" style="isolation: isolate"/>
      <line id="Línea_174" data-name="Línea 174" x2="18.387" y2="19.439" transform="translate(66.598 71.276)" fill="none" stroke="#263237" stroke-miterlimit="10" stroke-width="2"/>
      <path id="Trazado_122053" data-name="Trazado 122053" d="M225.738,3896.7s14.031-.434,15.485-.579,7.535-3.619,8.838-3.764,4.778,5.357,5.212,6.66-9.844,4.778-10.858,4.633a16.04,16.04,0,0,1-3.191-1.245l-15.485,1.824Z" transform="translate(-172.315 -3813.981)" fill="#cc7a63"/>
      <path id="Trazado_122054" data-name="Trazado 122054" d="M216.242,4056.392l6.92-.949.959-16.449-6.91.957Z" transform="translate(-171.067 -3833.241)" fill="#cc7a63"/>
      <path id="Trazado_122055" data-name="Trazado 122055" d="M223.428,4056.9l-7.818-.488a.5.5,0,0,0-.546.44v.008l-.767,6.167a1.235,1.235,0,0,0,1.14,1.308c2.73.126,4.04.049,7.483.237a64.739,64.739,0,0,0,9.187.292c2.914-.282,2.557-3.155,1.3-3.292a19.2,19.2,0,0,1-8.8-4.2A1.954,1.954,0,0,0,223.428,4056.9Z" transform="translate(-170.812 -3835.528)" fill="#263237"/>
      <path id="Trazado_122056" data-name="Trazado 122056" d="M227.272,4058.253a8.6,8.6,0,0,1-1.845-.366.149.149,0,0,1-.116-.131.182.182,0,0,1,.074-.162c.232-.142,2.291-1.363,3.125-.98a.616.616,0,0,1,.347.485.869.869,0,0,1-.255.893A1.868,1.868,0,0,1,227.272,4058.253Zm1.1-1.314c-.444-.206-1.639.3-2.48.769,1.23.322,2.147.34,2.5.041a.6.6,0,0,0,.152-.571.294.294,0,0,0-.169-.239Z" transform="translate(-172.259 -3835.545)" fill="#007cff"/>
      <path id="Trazado_122057" data-name="Trazado 122057" d="M225.463,4057.633a.09.09,0,0,1-.069.006.183.183,0,0,1-.081-.133c0-.061-.03-2.1.71-2.736a.87.87,0,0,1,.708-.182.626.626,0,0,1,.559.528c.109.767-1.02,2.161-1.738,2.528A.106.106,0,0,1,225.463,4057.633Zm1.13-2.71a.468.468,0,0,0-.355.126,3.6,3.6,0,0,0-.592,2.177,3.419,3.419,0,0,0,1.318-2.039c-.008-.095-.062-.213-.292-.253Z" transform="translate(-172.259 -3835.287)" fill="#007cff"/>
      <path id="Trazado_122058" data-name="Trazado 122058" d="M217.276,4039.952l6.911-.948-.55,9.4-6.9.606Z" transform="translate(-171.132 -3833.242)" opacity="0.2" style="isolation: isolate"/>
      <path id="Trazado_122059" data-name="Trazado 122059" d="M210.115,3945.754l-1.689-10.577-38.794-2.32s-4.124,22.009-.955,27.873c5.658,10.469,36.152,5.185,45.075,6.215-5.334,21.812-4.812,64.437-4.812,64.437l12.743.973s9.805-45.931,11.788-67.755C234.808,3949.872,222.606,3950.238,210.115,3945.754Z" transform="translate(-164.663 -3819.301)" fill="#263237"/>
      <path id="Trazado_122060" data-name="Trazado 122060" d="M213.458,4046.011l15.314,1.007,1.312-6.558-16.826-.782Z" transform="translate(-170.676 -3833.331)" fill="#f88f05"/>
      <path id="Trazado_122061" data-name="Trazado 122061" d="M234.619,4049.55l6.966.513,4.364-15.888-6.958-.5Z" transform="translate(-173.481 -3832.542)" fill="#cc7a63"/>
      <path id="Trazado_122062" data-name="Trazado 122062" d="M241.875,4051.405l-7.544-2.1a.494.494,0,0,0-.625.316l0,.008-2.035,5.872a1.233,1.233,0,0,0,.843,1.516c2.644.692,3.941.89,7.269,1.791a64.77,64.77,0,0,0,8.925,2.2c2.909.331,3.158-2.553,1.956-2.95a19.2,19.2,0,0,1-7.736-5.937A1.959,1.959,0,0,0,241.875,4051.405Z" transform="translate(-173.088 -3834.591)" fill="#263237"/>
      <path id="Trazado_122063" data-name="Trazado 122063" d="M245.53,4053.578a8.567,8.567,0,0,1-1.728-.743.149.149,0,0,1-.086-.151.182.182,0,0,1,.106-.144c.256-.09,2.523-.855,3.26-.307a.616.616,0,0,1,.238.546.87.87,0,0,1-.436.821A1.868,1.868,0,0,1,245.53,4053.578Zm1.35-1.056c-.392-.294-1.667-.043-2.586.235,1.136.572,2.029.78,2.433.56a.6.6,0,0,0,.268-.527.3.3,0,0,0-.115-.269Z" transform="translate(-174.676 -3834.954)" fill="#007cff"/>
      <path id="Trazado_122064" data-name="Trazado 122064" d="M243.835,4052.551a.1.1,0,0,1-.069-.009.181.181,0,0,1-.051-.146c.016-.059.407-2.059,1.264-2.529a.866.866,0,0,1,.731-.031.626.626,0,0,1,.437.632c-.054.772-1.448,1.9-2.227,2.11A.107.107,0,0,1,243.835,4052.551Zm1.67-2.417a.468.468,0,0,0-.374.05c-.516.276-.872,1.369-1.031,2.006.716-.33,1.65-1.21,1.713-1.719.012-.095-.016-.22-.232-.309Z" transform="translate(-174.676 -3834.656)" fill="#007cff"/>
      <path id="Trazado_122065" data-name="Trazado 122065" d="M239.287,4033.671l6.957.512-2.5,9.081-6.876-.845Z" transform="translate(-173.777 -3832.542)" opacity="0.2" style="isolation: isolate"/>
      <path id="Trazado_122066" data-name="Trazado 122066" d="M241.3,4029.605l-12.265-3.6s7.323-41.331,14.75-55.663c-.556-.183-1.294-.417-2.206-.686-1.642-.5-3.822-1.112-6.385-1.824-17.825-4.943-53.952-14.211-53.952-14.211l16.5-15.4s65.74,10.024,67.1,27.345C265.5,3973.89,241.3,4029.605,241.3,4029.605Z" transform="translate(-166.47 -3820.004)" fill="#263237"/>
      <path id="Trazado_122067" data-name="Trazado 122067" d="M234.436,4038.644l14.769,4.176,2.649-6.142-16.294-4.269Z" transform="translate(-173.457 -3832.376)" fill="#f88f05"/>
      <path id="Trazado_122068" data-name="Trazado 122068" d="M243.2,3970.618c-1.642-.5-3.822-1.112-6.385-1.824.513-4.2.521-9.025-1.5-11.483-4.022-4.9-14.368-7.774-20.257-8.817-4.925-.869-21.473-2.6-21.473-2.6s21.473-2.059,43.424,4.343C247.852,3953.41,245.741,3964.017,243.2,3970.618Z" transform="translate(-168.091 -3820.972)" opacity="0.2" style="isolation: isolate"/>
      <g id="Grupo_88062" data-name="Grupo 88062" transform="translate(4.014 47.285)">
        <path id="Trazado_122069" data-name="Trazado 122069" d="M209.555,3859.408s5.629,20.848-.947,65.749c-12.257-.26-32.853-.739-38.82-.869-.148-6.254,4.465-36.9-.929-66.461a80.815,80.815,0,0,1,11.753-1.164,149.972,149.972,0,0,1,17.295.374A75.918,75.918,0,0,1,209.555,3859.408Z" transform="translate(-168.858 -3856.565)" fill="#f88f05"/>
        <path id="Trazado_122070" data-name="Trazado 122070" d="M209.555,3859.408s5.629,20.848-.947,65.749c-12.257-.26-32.853-.739-38.82-.869-.148-6.254,4.465-36.9-.929-66.461a80.815,80.815,0,0,1,11.753-1.164,149.972,149.972,0,0,1,17.295.374A75.918,75.918,0,0,1,209.555,3859.408Z" transform="translate(-168.858 -3856.565)" fill="#fff" opacity="0.7"/>
      </g>
      <path id="Trazado_122071" data-name="Trazado 122071" d="M182.761,3897.949c-3.449-.764-7.618-4.109-11.032-7.41-.026-5.872-.287-12.118-.921-18.485C175.638,3879.2,188.72,3899.26,182.761,3897.949Z" transform="translate(-165.1 -3811.315)" opacity="0.1" style="isolation: isolate"/>
      <path id="Trazado_122072" data-name="Trazado 122072" d="M168.251,3858.018c-13.278,4.786,10.03,40.749,17.269,44.455s44.012-4.053,44.012-4.053l-1.448-7.44s-32.537.83-35.537.073-10.123-16.087-14.222-23.326A23.153,23.153,0,0,0,168.251,3858.018Z" transform="translate(-164.237 -3809.471)" fill="#f88f05"/>
      <path id="Trazado_122073" data-name="Trazado 122073" d="M168.251,3858.018c-13.278,4.786,10.03,40.749,17.269,44.455s44.012-4.053,44.012-4.053l-1.448-7.44s-32.537.83-35.537.073-10.123-16.087-14.222-23.326A23.153,23.153,0,0,0,168.251,3858.018Z" transform="translate(-164.237 -3809.471)" fill="#fff" opacity="0.8"/>
      <g id="Grupo_88063" data-name="Grupo 88063" transform="translate(61.242 80.84)">
        <path id="Trazado_122074" data-name="Trazado 122074" d="M234.738,3895.194l1.882,9.874,3.475-1.187-1.3-8.687Z" transform="translate(-234.738 -3895.194)" fill="#007cff"/>
        <path id="Trazado_122075" data-name="Trazado 122075" d="M234.738,3895.194l1.882,9.874,3.475-1.187-1.3-8.687Z" transform="translate(-234.738 -3895.194)" fill="#fff" opacity="0.7"/>
      </g>
      <g id="Grupo_88064" data-name="Grupo 88064" transform="translate(61.419 13.82)">
        <path id="Trazado_122076" data-name="Trazado 122076" d="M235.7,3824.929l9.346-3.7-1.817-3.191-8.289,2.908Z" transform="translate(-234.942 -3818.04)" fill="#007cff"/>
        <path id="Trazado_122077" data-name="Trazado 122077" d="M235.7,3824.929l9.346-3.7-1.817-3.191-8.289,2.908Z" transform="translate(-234.942 -3818.04)" fill="#fff" opacity="0.7"/>
      </g>
      <path id="Trazado_122078" data-name="Trazado 122078" d="M179.979,3856.534s.248,4.058,8.217,7.967l5.511-3.984s1.571,10.173,2.557,17.773c0,0-.065-12.161-1.114-16.83l4.216,1.495s-3.591-6.164-9.693-7.575S179.979,3856.534,179.979,3856.534Z" transform="translate(-166.305 -3809.069)" opacity="0.1" style="isolation: isolate"/>
      <path id="Trazado_122079" data-name="Trazado 122079" d="M184.516,3834.358c.973,5.585,1.842,15.8-2.128,19.432l11.636,3.228,5.659-2.854c-6.176-1.615-5.916-6.219-4.743-10.519Z" transform="translate(-166.621 -3806.364)" fill="#cc7a63"/>
      <path id="Trazado_122080" data-name="Trazado 122080" d="M189.69,3838.718l6.167,5.5a18.207,18.207,0,0,0-.6,3.058c-2.363-.391-5.559-3.067-5.759-5.551A8.186,8.186,0,0,1,189.69,3838.718Z" transform="translate(-167.547 -3806.936)" opacity="0.2" style="isolation: isolate"/>
      <path id="Trazado_122081" data-name="Trazado 122081" d="M194.157,3816c-2.528,2.745-.347,5.881,7.722,9.694,1.92-4.23.747-11.292-1.859-12.526S196.364,3813.617,194.157,3816Z" transform="translate(-168.036 -3803.525)" fill="#263237"/>
      <path id="Trazado_122082" data-name="Trazado 122082" d="M180.875,3824.43c2.05,7.271,2.884,11.623,7.418,14.6,6.828,4.473,15.193-.869,15.358-8.609.139-6.949-3.231-17.677-11.075-19.041a10.3,10.3,0,0,0-11.7,13.047Z" transform="translate(-166.367 -3803.324)" fill="#cc7a63"/>
      <path id="Trazado_122083" data-name="Trazado 122083" d="M194.1,3825.819c.13.6.556,1.016.947.929s.6-.634.469-1.233-.547-1.016-.938-.938S194.018,3825.219,194.1,3825.819Z" transform="translate(-168.157 -3805.078)" fill="#263237"/>
      <path id="Trazado_122084" data-name="Trazado 122084" d="M201.952,3824.129c.13.6.556,1.016.947.929s.608-.634.478-1.242-.556-1.016-.947-.929S201.822,3823.529,201.952,3824.129Z" transform="translate(-169.186 -3804.855)" fill="#263237"/>
      <path id="Trazado_122085" data-name="Trazado 122085" d="M199.468,3825.2a21.9,21.9,0,0,0,3.978,4.508,3.544,3.544,0,0,1-2.754,1.156Z" transform="translate(-168.864 -3805.16)" fill="#b84d3c"/>
      <path id="Trazado_122086" data-name="Trazado 122086" d="M191.36,3823.611a.361.361,0,0,1-.235,0,.365.365,0,0,1-.182-.478,3.562,3.562,0,0,1,2.554-2.076.348.348,0,0,1,.4.279l0,.025a.373.373,0,0,1-.3.408h0a2.841,2.841,0,0,0-2,1.659A.372.372,0,0,1,191.36,3823.611Z" transform="translate(-167.741 -3804.615)" fill="#263237"/>
      <path id="Trazado_122087" data-name="Trazado 122087" d="M204.492,3820.593a.374.374,0,0,1-.365-.13,2.865,2.865,0,0,0-2.328-1.164.362.362,0,0,1-.069-.721,3.6,3.6,0,0,1,2.962,1.442.356.356,0,0,1-.056.5l0,0A.418.418,0,0,1,204.492,3820.593Z" transform="translate(-169.119 -3804.29)" fill="#263237"/>
      <path id="Trazado_122088" data-name="Trazado 122088" d="M181.7,3818.128c3.7.434,4.083,4.239.434,12.378-4.213-1.963-7.922-8.1-6.732-10.719S178.47,3817.754,181.7,3818.128Z" transform="translate(-165.674 -3804.188)" fill="#263237"/>
      <path id="Trazado_122089" data-name="Trazado 122089" d="M178.3,3833.345a7.186,7.186,0,0,0,4.248,3.475c2.415.7,3.648-1.451,3.006-3.744-.582-2.067-2.545-4.925-4.977-4.621S177.2,3831.286,178.3,3833.345Z" transform="translate(-166.024 -3805.585)" fill="#cc7a63"/>
      <path id="Trazado_122090" data-name="Trazado 122090" d="M175.747,3817.51s-1.835-2.368,1.762-7.095,12.291-6.176,18.984-4.872,2.712,8.687.323,9.917l.289-1.159a19.934,19.934,0,0,1-8.245,2.245l1.313-1.231S179.653,3818.041,175.747,3817.51Z" transform="translate(-165.687 -3802.519)" fill="#263237"/>
      <g id="Grupo_88065" data-name="Grupo 88065" transform="translate(26.309 27.471)">
        <path id="Trazado_122091" data-name="Trazado 122091" d="M199.6,3833.982a18.8,18.8,0,0,0-.248,2.7c-.157.025-.315.05-.473.067-2.148.285-3.238-.293-3.8-1.019a2.806,2.806,0,0,1-.508-1.22,2.712,2.712,0,0,1-.037-.756,10.218,10.218,0,0,0,4.329.313C199.316,3834.029,199.6,3833.982,199.6,3833.982Z" transform="translate(-194.524 -3833.755)" fill="#263237"/>
        <path id="Trazado_122092" data-name="Trazado 122092" d="M198.865,3834.068l-.094.794c-2.023.264-3.483.178-4.2-.351a2.712,2.712,0,0,1-.037-.756A10.218,10.218,0,0,0,198.865,3834.068Z" transform="translate(-194.524 -3833.755)" fill="#fff"/>
        <path id="Trazado_122093" data-name="Trazado 122093" d="M198.961,3837.043c-2.148.285-3.238-.293-3.8-1.019a6.979,6.979,0,0,1,2.448.156A2.611,2.611,0,0,1,198.961,3837.043Z" transform="translate(-194.608 -3834.048)" fill="#b84d3c"/>
      </g>
      <g id="Grupo_88066" data-name="Grupo 88066" transform="translate(13.674 43.989)">
        <path id="Trazado_122094" data-name="Trazado 122094" d="M184.1,3852.771s6.275,4.711,9.6,5.8c0,0,1.539-2.9.908-5.3l4.752,3.311a11.728,11.728,0,0,1,0,6.087l-5.659-3.232-5.357,3.909s-7.915-2.292-8.371-7.1Z" transform="translate(-179.979 -3852.771)" fill="#007cff"/>
        <path id="Trazado_122095" data-name="Trazado 122095" d="M184.1,3852.771s6.275,4.711,9.6,5.8c0,0,1.539-2.9.908-5.3l4.752,3.311a11.728,11.728,0,0,1,0,6.087l-5.659-3.232-5.357,3.909s-7.915-2.292-8.371-7.1Z" transform="translate(-179.979 -3852.771)" fill="#fff" opacity="0.8"/>
      </g>
    </g>
  </g>
</svg>
