<svg xmlns="http://www.w3.org/2000/svg" width="80.17" height="85.354" viewBox="0 0 80.17 85.354">
  <g id="idea" transform="translate(0)">
    <path id="Trazado_120972" data-name="Trazado 120972" d="M92.327,387.133c1.528.408,3.3.951,5.161,1.649a42.365,42.365,0,0,1,6.893,3.268,4.652,4.652,0,0,1,2.2,3.286c.365,2.407.962,6.652,1.4,11.363H66.463c.44-4.711,1.037-8.956,1.4-11.363a4.651,4.651,0,0,1,2.2-3.286,42.366,42.366,0,0,1,6.893-3.268c1.863-.7,3.633-1.24,5.161-1.649" transform="translate(-57.975 -322.595)" fill="#f9f6f6"/>
    <path id="Trazado_120973" data-name="Trazado 120973" d="M152.263,409.308l3,3.549h4.218l3-3.549v-7.475H150.644" transform="translate(-128.123 -334.844)" fill="#dd636e"/>
    <path id="Trazado_120974" data-name="Trazado 120974" d="M73.77,404.961a5.376,5.376,0,0,0-1.7,3.524c-.3,2.735-.8,7.666-1.152,13.07H66.463c.44-4.711,1.037-8.956,1.4-11.363a4.651,4.651,0,0,1,2.2-3.286A38.544,38.544,0,0,1,73.77,404.961Z" transform="translate(-57.975 -337.451)" fill="#e7ecf6"/>
    <path id="Trazado_120975" data-name="Trazado 120975" d="M149.936,383.576l-3.541,9.833-6.725-6.465-6.725,6.465-3.541-9.833a56.35,56.35,0,0,1,9.439-2.616,4.6,4.6,0,0,1,1.653,0A56.35,56.35,0,0,1,149.936,383.576Z" transform="translate(-110.424 -317.388)" fill="#e7ecf6"/>
    <path id="Trazado_120976" data-name="Trazado 120976" d="M170.565,335.451v8.527a5.106,5.106,0,0,1-10.212,0v-8.527Z" transform="translate(-136.213 -279.529)" fill="#ffddce"/>
    <g id="Grupo_84875" data-name="Grupo 84875" transform="translate(1.251 38.114)">
      <path id="Trazado_120977" data-name="Trazado 120977" d="M167.13,348.8a5.111,5.111,0,0,1-6.774-4.827v-8.527h3.334v8.527A5.106,5.106,0,0,0,167.13,348.8Z" transform="translate(-137.466 -317.64)" fill="#ffcbbe"/>
      <path id="Trazado_120978" data-name="Trazado 120978" d="M29.717,239.336a6.672,6.672,0,0,1-6.5-8.14,3.291,3.291,0,0,1,6.5.725h42.66a3.291,3.291,0,0,1,6.5-.725,6.671,6.671,0,0,1-6.5,8.14" transform="translate(-23.051 -228.628)" fill="#ffcbbe"/>
      <path id="Trazado_120979" data-name="Trazado 120979" d="M160.353,335.451h10.212v7.855H160.353Z" transform="translate(-137.464 -317.643)" fill="#ffcbbe"/>
    </g>
    <path id="Trazado_120980" data-name="Trazado 120980" d="M90.149,179.05H78.582A15.547,15.547,0,0,1,63.035,163.5V141.577H105.7V163.5A15.547,15.547,0,0,1,90.149,179.05Z" transform="translate(-55.119 -117.975)" fill="#ffddce"/>
    <path id="Trazado_120981" data-name="Trazado 120981" d="M88.795,179.047H78.582A15.548,15.548,0,0,1,63.036,163.5V141.573H73.248V163.5A15.546,15.546,0,0,0,88.795,179.047Z" transform="translate(-55.12 -117.972)" fill="#ffcbbe"/>
    <g id="Grupo_84876" data-name="Grupo 84876" transform="translate(11.683 43.004)">
      <ellipse id="Elipse_4879" data-name="Elipse 4879" cx="3.492" cy="2.123" rx="3.492" ry="2.123" transform="translate(28.142)" fill="#eaa598"/>
      <ellipse id="Elipse_4880" data-name="Elipse 4880" cx="3.492" cy="2.123" rx="3.492" ry="2.123" transform="translate(0)" fill="#eaa598"/>
    </g>
    <path id="Trazado_120982" data-name="Trazado 120982" d="M56.735,50.281h-6.6a7.426,7.426,0,0,0-7.426,7.426V67.763a3.7,3.7,0,0,0,3.7,3.7h4.641A11.069,11.069,0,0,0,62.12,60.4V55.666a5.385,5.385,0,0,0-5.385-5.385Z" transform="translate(-38.18 -41.899)" fill="#aa7a63"/>
    <path id="Trazado_120983" data-name="Trazado 120983" d="M56.694,50.275A7.426,7.426,0,0,0,49.269,57.7V71.46h-2.86a3.7,3.7,0,0,1-3.7-3.7V57.7a7.426,7.426,0,0,1,7.425-7.427Z" transform="translate(-38.18 -41.894)" fill="#986b54"/>
    <path id="Trazado_120984" data-name="Trazado 120984" d="M158.036,34.008h-10.28a10.077,10.077,0,0,1-10.077-10.077V17.577A10.077,10.077,0,0,1,147.756,7.5h30.083v6.7A19.8,19.8,0,0,1,158.036,34.008Z" transform="translate(-117.319 -6.25)" fill="#aa7a63"/>
    <path id="Trazado_120985" data-name="Trazado 120985" d="M156.642,34.009h-8.886a10.076,10.076,0,0,1-10.077-10.077V17.579A10.076,10.076,0,0,1,147.756,7.5h8.886a10.076,10.076,0,0,0-10.077,10.077v6.353A10.076,10.076,0,0,0,156.642,34.009Z" transform="translate(-117.319 -6.251)" fill="#986b54"/>
    <path id="Trazado_120986" data-name="Trazado 120986" d="M176.373,474.054h-7.311a22.728,22.728,0,0,1,1.545-6.091h4.218A22.742,22.742,0,0,1,176.373,474.054Z" transform="translate(-143.47 -389.95)" fill="#dd636e"/>
    <ellipse id="Elipse_4881" data-name="Elipse 4881" cx="2.109" cy="3.656" rx="2.109" ry="3.656" transform="translate(27.137 46.864)" fill="#2b4d66"/>
    <g id="Grupo_84877" data-name="Grupo 84877" transform="translate(41.354 5.116)">
      <path id="Trazado_120987" data-name="Trazado 120987" d="M278.893,54.731a4.064,4.064,0,0,1,2.221-3.643,6.479,6.479,0,0,0,3.577-5.5,91.318,91.318,0,0,0-.05-9.581,5.507,5.507,0,0,0-5.184-5.172,91.333,91.333,0,0,0-10.505,0,5.507,5.507,0,0,0-5.184,5.172,91.285,91.285,0,0,0-.05,9.581,6.479,6.479,0,0,0,3.577,5.5,4.063,4.063,0,0,1,2.221,3.643l4.96,1.585Z" transform="translate(-263.616 -30.689)" fill="#f6e266"/>
      <path id="Trazado_120988" data-name="Trazado 120988" d="M272.734,55.96l-3.218-1.028a4.065,4.065,0,0,0-2.221-3.644,6.478,6.478,0,0,1-3.577-5.5,91.3,91.3,0,0,1,.05-9.581,5.507,5.507,0,0,1,5.183-5.172q1.285-.074,2.571-.111c-.5.994-2.3,2.707-2.339,4.683q-.095,5.175-.017,10.348c.039,2.607,1.988,4.834,2.683,5.935a8.4,8.4,0,0,1,.757,3.935Z" transform="translate(-263.616 -30.889)" fill="#ffc250"/>
      <path id="Trazado_120989" data-name="Trazado 120989" d="M305.675,180.129h-3.961a2.708,2.708,0,0,1-2.708-2.708v-2.515h9.376v2.515A2.708,2.708,0,0,1,305.675,180.129Z" transform="translate(-293.107 -150.864)" fill="#365e7d"/>
      <path id="Trazado_120990" data-name="Trazado 120990" d="M304.621,180.13h-2.906a2.707,2.707,0,0,1-2.708-2.708v-2.515h2.906v2.515A2.707,2.707,0,0,0,304.621,180.13Z" transform="translate(-293.107 -150.865)" fill="#2b4d66"/>
    </g>
    <path id="Trazado_120991" data-name="Trazado 120991" d="M410.6,187.322l.193-.334a2.589,2.589,0,0,1,3.38-1.031l3.761,1.84a2.589,2.589,0,0,1,1.1,3.62l-.479.831a2.589,2.589,0,0,1-3.687.854l-3.474-2.337a2.589,2.589,0,0,1-.8-3.443Z" transform="translate(-344.454 -154.736)" fill="#f7f493"/>
    <path id="Trazado_120992" data-name="Trazado 120992" d="M432.83,104.995v-.386a2.589,2.589,0,0,1,2.412-2.583l4.177-.287a2.589,2.589,0,0,1,2.766,2.583v.959a2.589,2.589,0,0,1-2.766,2.583l-4.177-.287A2.589,2.589,0,0,1,432.83,104.995Z" transform="translate(-363.266 -84.773)" fill="#f7f493"/>
    <path id="Trazado_120993" data-name="Trazado 120993" d="M410.793,14.055l-.193-.334a2.589,2.589,0,0,1,.8-3.443l3.474-2.337a2.589,2.589,0,0,1,3.687.854l.479.831a2.589,2.589,0,0,1-1.1,3.62l-3.761,1.84a2.589,2.589,0,0,1-3.38-1.031Z" transform="translate(-344.453 -6.249)" fill="#f7f493"/>
    <path id="Trazado_120994" data-name="Trazado 120994" d="M122.937,213.755c0-1.843-.9-3.342-2.014-3.342s-2.014,1.5-2.014,3.342.9,3.342,2.014,3.342S122.937,215.6,122.937,213.755Z" transform="translate(-101.678 -175.335)"/>
    <path id="Trazado_120995" data-name="Trazado 120995" d="M242.93,213.755c0-1.843-.9-3.342-2.014-3.342s-2.014,1.5-2.014,3.342.9,3.342,2.014,3.342S242.93,215.6,242.93,213.755Z" transform="translate(-201.667 -175.335)"/>
    <path id="Trazado_120996" data-name="Trazado 120996" d="M177.553,278.52c0-2.8-1.444-4.907-3.359-4.907s-3.359,2.109-3.359,4.907,1.444,4.907,3.359,4.907S177.553,281.317,177.553,278.52Zm-4.218,0c0-1.569.66-2.376.858-2.406.2.03.86.837.86,2.406s-.66,2.377-.858,2.406C173.994,280.9,173.334,280.088,173.334,278.52Z" transform="translate(-144.947 -228)"/>
    <path id="Trazado_120997" data-name="Trazado 120997" d="M77.319,6.1V1.25A1.25,1.25,0,0,0,76.069,0H45.987a11.344,11.344,0,0,0-10.57,7.262,6.65,6.65,0,0,0-1.313-.13H27.5a8.686,8.686,0,0,0-8.676,8.676V25.864a4.96,4.96,0,0,0,3.39,4.7v6.766a4.784,4.784,0,0,0-1.539-.435,4.43,4.43,0,0,0-4.934,3.514,7.92,7.92,0,0,0,7.09,9.638,16.667,16.667,0,0,0,1.948,4.406A1.25,1.25,0,0,0,26.9,53.119a14.231,14.231,0,0,1-2.182-7.591V30.816h3.7a12.343,12.343,0,0,0,9.82-4.882,11.284,11.284,0,0,0,7.747,3.074H56.266a21.1,21.1,0,0,0,5.175-.645,2.873,2.873,0,0,1,.113.789s0,0,0,.006v2.515a3.964,3.964,0,0,0,3.323,3.906v9.948a14.313,14.313,0,0,1-14.3,14.3H39.013a14.314,14.314,0,0,1-9.15-3.311,1.25,1.25,0,0,0-1.6,1.921,16.818,16.818,0,0,0,10.177,3.878v1.278c-1.481.422-2.94.9-4.347,1.425a43.5,43.5,0,0,0-7.1,3.366A5.882,5.882,0,0,0,24.2,72.554c-.407,2.681-.982,6.841-1.411,11.434a1.25,1.25,0,0,0,1.245,1.367H65.555A1.25,1.25,0,0,0,66.8,83.988c-.429-4.593-1-8.753-1.411-11.436a5.882,5.882,0,0,0-2.792-4.17,43.5,43.5,0,0,0-7.1-3.366c-1.408-.528-2.867-1-4.349-1.426V62.315a16.83,16.83,0,0,0,15.607-12.27,7.92,7.92,0,0,0,7.088-9.638,4.431,4.431,0,0,0-4.934-3.513,4.787,4.787,0,0,0-1.537.434v-1.7h2.1a3.963,3.963,0,0,0,3.958-3.958V29.157a2.831,2.831,0,0,1,1.529-2.523,7.75,7.75,0,0,0,3.557-3.658,1.25,1.25,0,1,0-2.269-1.052A5.241,5.241,0,0,1,73.84,24.4a5.247,5.247,0,0,0-2.764,3.511H63.907A5.249,5.249,0,0,0,61.142,24.4a5.235,5.235,0,0,1-2.887-4.435,90.061,90.061,0,0,1,.049-9.45,4.25,4.25,0,0,1,4.007-3.995,90.438,90.438,0,0,1,10.362,0,4.25,4.25,0,0,1,4.006,4c.135,2.331.179,4.68.13,6.983a1.25,1.25,0,0,0,2.5.053c.05-2.368.005-4.784-.134-7.18A6.718,6.718,0,0,0,77.319,6.1Zm-33.8,73.163h2.542a20.6,20.6,0,0,1,.927,3.591H42.6A20.631,20.631,0,0,1,43.524,79.263Zm2.8-2.5H43.267L41.4,74.553,44.8,71.289l3.395,3.264ZM42.247,70.27l-3.654,3.513-2.464-6.843q1.248-.435,2.536-.814a6.384,6.384,0,0,0,3.582,4.145Zm5.1,0a6.383,6.383,0,0,0,3.582-4.145q1.285.378,2.536.814L51,73.783Zm1.307-5.821A3.86,3.86,0,0,1,44.8,68.3h0a3.86,3.86,0,0,1-3.853-3.856V62.325h7.712ZM26.675,72.93a3.388,3.388,0,0,1,1.605-2.4,39.685,39.685,0,0,1,5.508-2.708l3.105,8.625a1.25,1.25,0,0,0,2.043.478l.657-.632,1.645,1.947a23.637,23.637,0,0,0-1.177,4.617H25.415c.4-3.987.9-7.545,1.26-9.924Zm36.242,0c.361,2.38.856,5.939,1.26,9.925H49.529a23.61,23.61,0,0,0-1.178-4.616L50,76.289l.657.632a1.25,1.25,0,0,0,2.043-.478L55.8,67.819a39.69,39.69,0,0,1,5.509,2.708,3.388,3.388,0,0,1,1.606,2.4ZM18.05,42.156a5.454,5.454,0,0,1,.133-1.2,2.04,2.04,0,0,1,4.029.385,3.552,3.552,0,0,0-2.677-.006,1.25,1.25,0,1,0,.935,2.319,1.206,1.206,0,0,1,1.224.227,3.266,3.266,0,0,1,.522.453v1.192a16.882,16.882,0,0,0,.112,1.923A5.424,5.424,0,0,1,18.05,42.156ZM28.419,28.316h-4.64a2.455,2.455,0,0,1-2.453-2.451V15.808A6.183,6.183,0,0,1,27.5,9.633h6.6a4.172,4.172,0,0,1,.675.056,11.366,11.366,0,0,0-.12,1.64v6.353A11.261,11.261,0,0,0,36.57,23.97,9.838,9.838,0,0,1,28.419,28.316ZM69.191,39.378a1.951,1.951,0,0,1,2.217,1.579,5.422,5.422,0,0,1-4.142,6.492,16.9,16.9,0,0,0,.111-1.922V44.333a3.261,3.261,0,0,1,.52-.451,1.205,1.205,0,0,1,1.224-.227,1.25,1.25,0,0,0,.935-2.319,3.551,3.551,0,0,0-2.677.006,1.948,1.948,0,0,1,1.812-1.964Zm1.739-7.705a1.459,1.459,0,0,1-1.458,1.458H65.511a1.459,1.459,0,0,1-1.458-1.458V30.409H70.93ZM62.167,4.02a6.75,6.75,0,0,0-6.36,6.347,92.6,92.6,0,0,0-.051,9.712,7.736,7.736,0,0,0,3.6,6.171,18.668,18.668,0,0,1-3.086.259H45.987a8.837,8.837,0,0,1-8.827-8.827V11.328A8.837,8.837,0,0,1,45.987,2.5H74.819V4.445a6.768,6.768,0,0,0-2-.425,92.975,92.975,0,0,0-10.649,0Z" transform="translate(-15.549)"/>
    <path id="Trazado_120998" data-name="Trazado 120998" d="M412.251,180.438,408.49,178.6a3.851,3.851,0,0,0-5.013,1.529l-.193.334a3.851,3.851,0,0,0,1.182,5.106l3.474,2.337a3.839,3.839,0,0,0,5.468-1.266l.479-.831a3.84,3.84,0,0,0-1.637-5.368Zm-.528,4.118-.479.831a1.339,1.339,0,0,1-1.907.441l-3.474-2.337a1.343,1.343,0,0,1-.412-1.78l.193-.334a1.343,1.343,0,0,1,1.163-.669,1.329,1.329,0,0,1,.585.135l3.761,1.84a1.339,1.339,0,0,1,.571,1.872Z" transform="translate(-338.22 -148.5)"/>
    <path id="Trazado_120999" data-name="Trazado 120999" d="M435.968,95.267a3.853,3.853,0,0,0-2.883-1.024l-4.177.287a3.851,3.851,0,0,0-3.577,3.83v.386a3.851,3.851,0,0,0,3.577,3.83l4.177.287q.13.009.26.009a3.839,3.839,0,0,0,3.842-3.839v-.959a3.854,3.854,0,0,0-1.219-2.806Zm-1.281,3.765a1.339,1.339,0,0,1-1.431,1.336l-4.177-.287a1.343,1.343,0,0,1-1.247-1.336V98.36a1.343,1.343,0,0,1,1.247-1.336l4.177-.287c.032,0,.063,0,.095,0a1.339,1.339,0,0,1,1.336,1.339Z" transform="translate(-357.017 -78.524)"/>
    <path id="Trazado_121000" data-name="Trazado 121000" d="M403.478,8.435a3.851,3.851,0,0,0,3.335,1.917,3.807,3.807,0,0,0,1.677-.389l3.761-1.84a3.839,3.839,0,0,0,1.637-5.368l-.479-.831A3.839,3.839,0,0,0,407.942.659L404.467,3A3.851,3.851,0,0,0,403.285,8.1Zm2.385-3.365,3.474-2.337a1.339,1.339,0,0,1,1.907.442l.479.83a1.339,1.339,0,0,1-.571,1.872l-3.761,1.84a1.343,1.343,0,0,1-1.748-.533l-.193-.334a1.343,1.343,0,0,1,.412-1.78Z" transform="translate(-338.22 -0.005)"/>
  </g>
</svg>
