<svg xmlns="http://www.w3.org/2000/svg" width="75.958" height="85.047" viewBox="0 0 75.958 85.047">
  <g id="recompensa" transform="translate(-27.356 0.001)">
    <g id="Grupo_84868" data-name="Grupo 84868" transform="translate(28.598 1.245)">
      <g id="Grupo_84867" data-name="Grupo 84867">
        <g id="Grupo_84853" data-name="Grupo 84853" transform="translate(13.398)">
          <g id="Grupo_84852" data-name="Grupo 84852">
            <g id="Grupo_84850" data-name="Grupo 84850" transform="translate(3.122 21.144)">
              <g id="Grupo_84848" data-name="Grupo 84848" transform="translate(0 0)">
                <path id="Trazado_120958" data-name="Trazado 120958" d="M135.141,166.084l6.827-1.608a.689.689,0,0,1,.8.41l2.648,6.494a.689.689,0,0,0,1.25.056l15.628-30.3L150,134.794l-15.628,30.3a.689.689,0,0,0,.77.986Z" transform="translate(-134.293 -134.794)" fill="#eab14d"/>
              </g>
              <path id="Trazado_120959" data-name="Trazado 120959" d="M198,154.4l-13.717,26.6a.685.685,0,0,1,.167.239l2.648,6.494a.689.689,0,0,0,1.25.056l15.628-30.3Z" transform="translate(-175.982 -151.141)" fill="#e7a52e"/>
              <g id="Grupo_84849" data-name="Grupo 84849" transform="translate(12.436 0)">
                <path id="Trazado_120960" data-name="Trazado 120960" d="M236.308,166.084l-6.827-1.608a.689.689,0,0,0-.8.41l-2.648,6.494a.689.689,0,0,1-1.25.056l-15.628-30.3,12.29-6.338,15.628,30.3a.689.689,0,0,1-.77.986Z" transform="translate(-209.159 -134.794)" fill="#eab14d"/>
              </g>
              <path id="Trazado_120961" data-name="Trazado 120961" d="M269.194,165.1l-15.628-30.3-5.893,3.039,13.733,26.628a.684.684,0,0,1,.192.015l6.827,1.608A.689.689,0,0,0,269.194,165.1Z" transform="translate(-228.84 -134.793)" fill="#e7a52e"/>
            </g>
            <g id="Grupo_84851" data-name="Grupo 84851">
              <path id="Trazado_120962" data-name="Trazado 120962" d="M142.1,9.066a4.2,4.2,0,0,0,4.785,1.282,4.2,4.2,0,0,1,5.663,3.27,4.2,4.2,0,0,0,3.5,3.5,4.2,4.2,0,0,1,3.27,5.663,4.2,4.2,0,0,0,1.282,4.785,4.2,4.2,0,0,1,0,6.539,4.2,4.2,0,0,0-1.282,4.785,4.2,4.2,0,0,1-3.27,5.663,4.2,4.2,0,0,0-3.5,3.5,4.2,4.2,0,0,1-5.663,3.27,4.2,4.2,0,0,0-4.785,1.282,4.2,4.2,0,0,1-6.539,0,4.2,4.2,0,0,0-4.785-1.282,4.2,4.2,0,0,1-5.663-3.27,4.2,4.2,0,0,0-3.5-3.5,4.2,4.2,0,0,1-3.27-5.663,4.2,4.2,0,0,0-1.282-4.785,4.2,4.2,0,0,1,0-6.539,4.2,4.2,0,0,0,1.282-4.785,4.2,4.2,0,0,1,3.27-5.663,4.2,4.2,0,0,0,3.5-3.5,4.2,4.2,0,0,1,5.663-3.27,4.2,4.2,0,0,0,4.785-1.282,4.2,4.2,0,0,1,6.539,0Z" transform="translate(-115.495 -7.5)" fill="#fc8086"/>
              <circle id="Elipse_4878" data-name="Elipse 4878" cx="15.741" cy="15.741" r="15.741" transform="translate(7.598 7.598)" fill="#fbe77b"/>
              <path id="Trazado_120963" data-name="Trazado 120963" d="M230.381,53.242a15.716,15.716,0,0,0-5.1.846,15.746,15.746,0,0,1,0,29.788,15.742,15.742,0,1,0,5.1-30.635Z" transform="translate(-207.042 -45.644)" fill="#ffd064"/>
            </g>
          </g>
          <path id="Trazado_120964" data-name="Trazado 120964" d="M207.861,102.849l5.008,3.31a.555.555,0,0,0,.841-.611l-1.6-5.786a.555.555,0,0,1,.189-.582l4.7-3.74a.555.555,0,0,0-.321-.989l-6-.266a.555.555,0,0,1-.5-.36L208.075,88.2a.555.555,0,0,0-1.04,0l-2.106,5.622a.555.555,0,0,1-.5.36l-6,.266a.555.555,0,0,0-.321.989l4.7,3.74a.555.555,0,0,1,.189.582l-1.6,5.786a.555.555,0,0,0,.841.611l5.008-3.31a.555.555,0,0,1,.612,0Z" transform="translate(-184.216 -74.498)" fill="#e7a52e"/>
        </g>
        <g id="Grupo_84866" data-name="Grupo 84866" transform="translate(0 52.054)">
          <g id="Grupo_84865" data-name="Grupo 84865">
            <g id="Grupo_84864" data-name="Grupo 84864">
              <g id="Grupo_84863" data-name="Grupo 84863">
                <g id="Grupo_84862" data-name="Grupo 84862">
                  <g id="Grupo_84861" data-name="Grupo 84861">
                    <g id="Grupo_84860" data-name="Grupo 84860">
                      <g id="Grupo_84859" data-name="Grupo 84859">
                        <g id="Grupo_84858" data-name="Grupo 84858">
                          <g id="Grupo_84857" data-name="Grupo 84857">
                            <g id="Grupo_84856" data-name="Grupo 84856" transform="translate(5.59 4.732)">
                              <g id="Grupo_84855" data-name="Grupo 84855">
                                <g id="Grupo_84854" data-name="Grupo 84854">
                                  <path id="Trazado_120965" data-name="Trazado 120965" d="M68.49,368.131l16.68,6.208a12.694,12.694,0,0,0,4.428.8h17.19a12.693,12.693,0,0,0,6.794-1.971L135.1,361.022a3.778,3.778,0,0,0,.615-4.95c-1.169-1.718-3.1-2.016-5.23-1.01l-20.955,9.227.025-1.994a6.085,6.085,0,0,0-5.2-5.423L91.595,355.4c-2.944-.417-4.415-1.4-6.981-2.9a22.871,22.871,0,0,0-11.549-3.13H68.49Z" transform="translate(-68.49 -349.368)" fill="#ffece3"/>
                                </g>
                              </g>
                            </g>
                            <path id="Trazado_120966" data-name="Trazado 120966" d="M130.489,380.757l-20.027,8.818a1.388,1.388,0,0,1-.928.408l-19.936.634a12.689,12.689,0,0,1-4.428-.8l-16.68-6.208v10.214l16.68,6.209a12.694,12.694,0,0,0,4.428.8h17.19a12.693,12.693,0,0,0,6.794-1.971L135.1,386.718a3.778,3.778,0,0,0,.615-4.95C134.55,380.05,132.616,379.752,130.489,380.757Z" transform="translate(-62.9 -370.331)" fill="#ffddce"/>
                            <path id="Trazado_120967" data-name="Trazado 120967" d="M42.959,346.906a2.2,2.2,0,0,1-2.2,2.2H37.031a2.2,2.2,0,0,1-2.2-2.2v-23.83a2.2,2.2,0,0,1,2.2-2.2h3.731a2.2,2.2,0,0,1,2.2,2.2Z" transform="translate(-34.834 -320.879)" fill="#7c8b96"/>
                          </g>
                        </g>
                      </g>
                    </g>
                  </g>
                </g>
              </g>
            </g>
          </g>
        </g>
      </g>
    </g>
    <g id="Grupo_84872" data-name="Grupo 84872" transform="translate(27.356 -0.001)">
      <g id="Grupo_84871" data-name="Grupo 84871" transform="translate(0 0)">
        <g id="Grupo_84870" data-name="Grupo 84870">
          <g id="Grupo_84869" data-name="Grupo 84869">
            <path id="Trazado_120968" data-name="Trazado 120968" d="M102.451,325.359c-1.5-2.2-4.028-2.736-6.777-1.443l-19.168,8.44V332.3a1.288,1.288,0,0,0-.006-.139,7.314,7.314,0,0,0-6.268-6.533l-.032,0-12.745-1.467c-2.692-.384-4.017-1.284-6.511-2.744a24.14,24.14,0,0,0-12.178-3.3h-.795v-1.29a3.447,3.447,0,0,0-3.443-3.443H30.8a3.447,3.447,0,0,0-3.443,3.443v23.83a3.447,3.447,0,0,0,3.443,3.443H34.53a3.444,3.444,0,0,0,3.432-3.242l12.475,4.644a13.9,13.9,0,0,0,4.862.875h17.19a13.917,13.917,0,0,0,7.433-2.147l21.5-12.128c1.505-.85,2.823-4.1,1.033-6.736ZM100.067,330l-21.4,12.071-.055.033a11.429,11.429,0,0,1-6.127,1.778H55.3a11.409,11.409,0,0,1-3.993-.719L37.973,338.2v-9.039a1.246,1.246,0,0,0-2.492,0v11.493a.952.952,0,0,1-.951.951H30.8a.952.952,0,0,1-.951-.951v-23.83a.952.952,0,0,1,.951-.951H34.53a.952.952,0,0,1,.951.951v6.511a1.246,1.246,0,0,0,2.492,0V320.6h.795a21.646,21.646,0,0,1,10.919,2.959c2.644,1.545,4.25,2.611,7.435,3.062l.032,0L69.9,328.1a4.827,4.827,0,0,1,4.116,4.245l-.009.691c-7.4-.086-10.221.247-14.959-.445l-2.206-.322a1.246,1.246,0,1,0-.36,2.465l2.206.322c5.033.735,7.936.376,16.549.471a1.282,1.282,0,0,0,.5-.106l20.955-9.227.031-.014c1.129-.534,2.681-.865,3.668.585A2.539,2.539,0,0,1,100.067,330Z" transform="translate(-27.356 -261.324)"/>
            <path id="Trazado_120969" data-name="Trazado 120969" d="M110.048,28.824a2.942,2.942,0,0,1,.9,3.365,5.443,5.443,0,0,0,4.24,7.344,2.94,2.94,0,0,1,2,1.277l-5.834,11.312a1.934,1.934,0,0,0,2.163,2.77l6.363-1.5,2.468,6.053a1.915,1.915,0,0,0,1.705,1.2l.09,0a1.914,1.914,0,0,0,1.716-1.048l5.46-10.587a5.45,5.45,0,0,0,2.561,0l5.46,10.587a1.914,1.914,0,0,0,1.716,1.048l.09,0a1.916,1.916,0,0,0,1.705-1.2l2.468-6.053,6.363,1.5a1.934,1.934,0,0,0,2.163-2.77L148.014,40.81a2.94,2.94,0,0,1,2-1.277,5.443,5.443,0,0,0,4.24-7.344,2.941,2.941,0,0,1,.9-3.365,5.443,5.443,0,0,0,0-8.48,2.942,2.942,0,0,1-.9-3.365,5.443,5.443,0,0,0-4.24-7.344,2.942,2.942,0,0,1-2.464-2.463,5.443,5.443,0,0,0-7.344-4.24,2.941,2.941,0,0,1-3.365-.9,5.443,5.443,0,0,0-8.48,0,2.942,2.942,0,0,1-3.365.9,5.443,5.443,0,0,0-7.344,4.24,2.942,2.942,0,0,1-2.463,2.463,5.443,5.443,0,0,0-4.24,7.344,2.941,2.941,0,0,1-.9,3.365,5.443,5.443,0,0,0,0,8.48ZM124.2,57.386l-2.191-5.375a1.925,1.925,0,0,0-2.235-1.152l-5.649,1.331,4.24-8.221A5.445,5.445,0,0,0,125,46.236a2.941,2.941,0,0,1,3.365.9,5.494,5.494,0,0,0,.737.752Zm21.227-6.527a1.926,1.926,0,0,0-2.235,1.152L141,57.386l-4.9-9.5a5.475,5.475,0,0,0,.737-.752,2.943,2.943,0,0,1,3.365-.9,5.445,5.445,0,0,0,6.631-2.269l4.24,8.221ZM111.61,22.284a5.424,5.424,0,0,0,1.663-6.206,2.951,2.951,0,0,1,2.3-3.982,5.425,5.425,0,0,0,4.543-4.543,2.952,2.952,0,0,1,3.982-2.3A5.424,5.424,0,0,0,130.3,3.592a2.951,2.951,0,0,1,4.6,0,5.425,5.425,0,0,0,6.206,1.663,2.952,2.952,0,0,1,3.982,2.3,5.425,5.425,0,0,0,4.543,4.543,2.951,2.951,0,0,1,2.3,3.982,5.424,5.424,0,0,0,1.663,6.206,2.951,2.951,0,0,1,0,4.6,5.424,5.424,0,0,0-1.663,6.206,2.952,2.952,0,0,1-2.3,3.982,5.425,5.425,0,0,0-4.543,4.543,2.951,2.951,0,0,1-3.982,2.3,5.426,5.426,0,0,0-6.206,1.663,2.952,2.952,0,0,1-4.6,0,5.425,5.425,0,0,0-6.206-1.663,2.951,2.951,0,0,1-3.982-2.3,5.425,5.425,0,0,0-4.543-4.543,2.951,2.951,0,0,1-2.3-3.982,5.424,5.424,0,0,0-1.663-6.206,2.952,2.952,0,0,1,0-4.6Z" transform="translate(-94.619 0.001)"/>
            <path id="Trazado_120970" data-name="Trazado 120970" d="M156.394,64.416a1.246,1.246,0,0,0-1,1.454,16.986,16.986,0,1,0,0-6.284,1.246,1.246,0,0,0,2.449.458,14.5,14.5,0,1,1,0,5.368,1.247,1.247,0,0,0-1.454-1Z" transform="translate(-134.112 -38.144)"/>
            <path id="Trazado_120971" data-name="Trazado 120971" d="M210.489,86.957l-5.541-.246L203,81.517a1.8,1.8,0,0,0-3.373,0l-1.946,5.194-5.541.245a1.8,1.8,0,0,0-1.042,3.208l4.339,3.456-1.479,5.346a1.8,1.8,0,0,0,2.729,1.983l4.627-3.059,4.627,3.059a1.8,1.8,0,0,0,2.729-1.983l-1.479-5.346,4.339-3.456A1.8,1.8,0,0,0,210.489,86.957Zm-5.205,5a1.8,1.8,0,0,0-.614,1.889l1.109,4.009-3.47-2.294h0a1.8,1.8,0,0,0-1.986,0l-3.47,2.294,1.109-4.009a1.8,1.8,0,0,0-.614-1.889l-3.254-2.592,4.156-.184a1.8,1.8,0,0,0,1.607-1.167l1.459-3.9,1.459,3.9a1.8,1.8,0,0,0,1.607,1.167l4.155.184Z" transform="translate(-163.332 -67.002)"/>
          </g>
        </g>
      </g>
    </g>
  </g>
</svg>
