<svg xmlns="http://www.w3.org/2000/svg" xmlns:xlink="http://www.w3.org/1999/xlink" width="105" height="88.974" viewBox="0 0 105 88.974">
  <defs>
    <clipPath id="clip-path">
      <rect id="Imagen_21" data-name="Imagen 21" width="105" height="88.974" rx="19" transform="translate(495 3913)"/>
    </clipPath>
  </defs>
  <g id="Enmascarar_grupo_145" data-name="Enmascarar grupo 145" transform="translate(-495 -3913.001)" clip-path="url(#clip-path)">
    <g id="ordenador-personal" transform="translate(502.604 3892.293)">
      <path id="Trazado_121366" data-name="Trazado 121366" d="M88.414,94.9h-70.8a7.77,7.77,0,0,1-7.771-7.771v-44.9a7.77,7.77,0,0,1,7.771-7.771h70.8a7.77,7.77,0,0,1,7.771,7.771v44.9A7.77,7.77,0,0,1,88.414,94.9Z" transform="translate(-8.119 -8.119)" fill="#fffde7"/>
      <g id="Grupo_86188" data-name="Grupo 86188" transform="translate(31.082 46.086)">
        <path id="Trazado_121367" data-name="Trazado 121367" d="M251.532,150.706l-15.873-3.663,3.663,15.873,4.274-4.273,4.884,4.884,3.663-3.663-4.884-4.884Z" transform="translate(-225.412 -147.043)" fill="#fb8c00"/>
        <path id="Trazado_121368" data-name="Trazado 121368" d="M204.859,396.345H177.231l3.453-17.268h20.721Z" transform="translate(-177.231 -338.384)" fill="#fb8c00"/>
      </g>
      <path id="Trazado_121369" data-name="Trazado 121369" d="M9.846,300.308v6.044a7.77,7.77,0,0,0,7.771,7.77h70.8a7.77,7.77,0,0,0,7.771-7.77v-6.044Z" transform="translate(-8.119 -227.343)" fill="#ffecb3"/>
      <path id="Trazado_121370" data-name="Trazado 121370" d="M80.295,24.615H9.5a9.508,9.508,0,0,0-9.5,9.5v44.9a9.508,9.508,0,0,0,9.5,9.5H32.429L29.666,102.32H20.721a1.727,1.727,0,0,0,0,3.453H69.071a1.727,1.727,0,0,0,0-3.453H60.126L57.363,88.506H80.295a9.508,9.508,0,0,0,9.5-9.5v-44.9A9.508,9.508,0,0,0,80.295,24.615ZM9.5,28.069h70.8a6.051,6.051,0,0,1,6.044,6.044V71.238H3.453V67.784H13.814a1.727,1.727,0,1,0,0-3.453H3.453V34.112A6.051,6.051,0,0,1,9.5,28.069ZM56.6,102.32H33.188l2.763-13.814h17.89ZM86.339,79.008a6.051,6.051,0,0,1-6.044,6.044H9.5a6.051,6.051,0,0,1-6.044-6.044V74.691H86.338v4.317Z"/>
      <path id="Trazado_121371" data-name="Trazado 121371" d="M239.761,326.908a3.453,3.453,0,1,0-3.453-3.453A3.457,3.457,0,0,0,239.761,326.908Z" transform="translate(-194.865 -243.583)"/>
      <path id="Trazado_121372" data-name="Trazado 121372" d="M229.519,155.187a1.727,1.727,0,0,0,2.9.833l3.052-3.053,3.663,3.663a1.727,1.727,0,0,0,2.442,0l3.663-3.663a1.727,1.727,0,0,0,0-2.442l-3.663-3.663,3.053-3.052a1.727,1.727,0,0,0-.833-2.9l-15.873-3.663a1.727,1.727,0,0,0-2.071,2.071Zm10.469-11.616-2.071,2.07a1.727,1.727,0,0,0,0,2.442l3.663,3.663-1.221,1.221L236.7,149.3a1.727,1.727,0,0,0-2.442,0l-2.07,2.071-2.341-10.145Z" transform="translate(-186.209 -92.839)"/>
      <path id="Trazado_121373" data-name="Trazado 121373" d="M191.049,104.877a1.727,1.727,0,1,0,2.442-2.442l-1.727-1.727a1.727,1.727,0,0,0-2.442,2.442Z" transform="translate(-155.703 -62.331)"/>
      <path id="Trazado_121374" data-name="Trazado 121374" d="M174.231,143.041h2.442a1.727,1.727,0,0,0,0-3.453h-2.442a1.727,1.727,0,1,0,0,3.453Z" transform="translate(-142.251 -94.809)"/>
      <path id="Trazado_121375" data-name="Trazado 121375" d="M191.05,169.63l-1.727,1.727a1.727,1.727,0,1,0,2.442,2.442l1.727-1.727a1.727,1.727,0,1,0-2.442-2.442Z" transform="translate(-155.703 -119.166)"/>
      <path id="Trazado_121376" data-name="Trazado 121376" d="M259.467,105.383a1.721,1.721,0,0,0,1.221-.506l1.727-1.727a1.727,1.727,0,1,0-2.442-2.442l-1.727,1.727a1.727,1.727,0,0,0,1.221,2.948Z" transform="translate(-212.539 -62.331)"/>
      <path id="Trazado_121377" data-name="Trazado 121377" d="M229.929,89.784a1.727,1.727,0,0,0,1.727-1.727V85.615a1.727,1.727,0,0,0-3.453,0v2.442A1.727,1.727,0,0,0,229.929,89.784Z" transform="translate(-188.181 -48.878)"/>
      <path id="Trazado_121378" data-name="Trazado 121378" d="M98.595,253.467a1.688,1.688,0,0,0,.159.3,1.676,1.676,0,0,0,.477.477,1.712,1.712,0,0,0,.3.159,1.752,1.752,0,0,0,.323.1,1.745,1.745,0,0,0,.673,0,1.751,1.751,0,0,0,.323-.1,1.688,1.688,0,0,0,.3-.159,1.677,1.677,0,0,0,.477-.477,1.713,1.713,0,0,0,.159-.3,1.622,1.622,0,0,0,.1-.323,1.658,1.658,0,0,0,0-.673,1.675,1.675,0,0,0-.1-.325,1.744,1.744,0,0,0-.159-.3,1.677,1.677,0,0,0-.477-.477,1.712,1.712,0,0,0-.3-.159,1.623,1.623,0,0,0-.323-.1,1.7,1.7,0,0,0-.673,0,1.623,1.623,0,0,0-.323.1,1.689,1.689,0,0,0-.3.159,1.676,1.676,0,0,0-.477.477,1.756,1.756,0,0,0-.159.3,1.675,1.675,0,0,0-.1.325,1.658,1.658,0,0,0,0,.673A1.619,1.619,0,0,0,98.595,253.467Z" transform="translate(-81.194 -186.749)"/>
    </g>
  </g>
</svg>
