<svg xmlns="http://www.w3.org/2000/svg" xmlns:xlink="http://www.w3.org/1999/xlink" width="105" height="88.974" viewBox="0 0 105 88.974">
  <defs>
    <clipPath id="clip-path">
      <rect id="Imagen_24" data-name="Imagen 24" width="105" height="88.974" rx="19" transform="translate(495 3913)"/>
    </clipPath>
  </defs>
  <g id="Enmascarar_grupo_148" data-name="Enmascarar grupo 148" transform="translate(-495 -3913.001)" clip-path="url(#clip-path)">
    <g id="lista-de-verificacion_2_" data-name="lista-de-verificacion(2)" transform="translate(512.495 3918.466)">
      <path id="Trazado_121323" data-name="Trazado 121323" d="M13.658,10H64.874a3.658,3.658,0,0,1,3.658,3.658V81.336a3.658,3.658,0,0,1-3.658,3.658H13.658A3.658,3.658,0,0,1,10,81.336V13.658A3.658,3.658,0,0,1,13.658,10Zm0,0" transform="translate(-8.476 -8.476)" fill="#79b2ff"/>
      <path id="Trazado_121324" data-name="Trazado 121324" d="M85.109,50H96.338v62.8H50V50H61.229" transform="translate(-42.379 -42.379)" fill="#fff"/>
      <path id="Trazado_121325" data-name="Trazado 121325" d="M130.071,20.975h16.437a3.239,3.239,0,0,0,3.239-3.239V10H126.832v7.736A3.239,3.239,0,0,0,130.071,20.975Zm0,0" transform="translate(-107.5 -8.476)" fill="#ff6977"/>
      <path id="Trazado_121326" data-name="Trazado 121326" d="M130.071,20.975h16.437a3.239,3.239,0,0,0,3.239-3.239V10H126.832v7.736A3.239,3.239,0,0,0,130.071,20.975Zm0,0" transform="translate(-107.5 -8.476)" fill="#bdd9ff"/>
      <path id="Trazado_121327" data-name="Trazado 121327" d="M314.24,154.685l17.86-17.86a4.031,4.031,0,0,1,5.7,5.7l-17.86,17.86-10.277,4.575Zm0,0" transform="translate(-262.463 -114.97)" fill="#ffc15a"/>
      <path id="Trazado_121328" data-name="Trazado 121328" d="M319.941,266.26l-5.7-5.7-4.576,10.276Zm0,0" transform="translate(-262.463 -220.843)" fill="#98a1b3"/>
      <path id="Trazado_121329" data-name="Trazado 121329" d="M449.694,144.486l1.96-1.96a4.031,4.031,0,1,0-5.7-5.7l-1.96,1.96Zm0,0" transform="translate(-376.316 -114.969)" fill="#ff6977"/>
      <path id="Trazado_121330" data-name="Trazado 121330" d="M98,130h9.755v9.755H98Zm0,0" transform="translate(-83.062 -110.185)" fill="#cbe558"/>
      <path id="Trazado_121331" data-name="Trazado 121331" d="M98,240h9.755v9.755H98Zm0,0" transform="translate(-83.062 -203.418)" fill="#cbe558"/>
      <path id="Trazado_121332" data-name="Trazado 121332" d="M98,350h9.755v9.755H98Zm0,0" transform="translate(-83.062 -296.651)" fill="#ff6977"/>
      <path id="Trazado_121333" data-name="Trazado 121333" d="M193.524,452a1.525,1.525,0,1,0,1.078.447A1.537,1.537,0,0,0,193.524,452Zm0,0" transform="translate(-162.734 -383.104)"/>
      <path id="Trazado_121334" data-name="Trazado 121334" d="M76.415,20.778a5.562,5.562,0,0,0-7.857,0L61.58,27.757V5.182A5.189,5.189,0,0,0,56.4,0H5.182A5.189,5.189,0,0,0,0,5.182V72.859a5.189,5.189,0,0,0,5.183,5.183H56.4a5.189,5.189,0,0,0,5.183-5.183V43.47L76.415,28.635a5.562,5.562,0,0,0,0-7.857ZM58.532,5.182V30.805l-3.049,3.049V7.621A1.524,1.524,0,0,0,53.959,6.1H43.772V3.048H56.4a2.137,2.137,0,0,1,2.134,2.134Zm-8.323,41.8,2.058-4.623,2.565,2.565ZM40.723,3.048V9.259a1.717,1.717,0,0,1-1.715,1.715H22.571a1.717,1.717,0,0,1-1.715-1.715V3.048ZM56.4,74.994H5.182A2.137,2.137,0,0,1,3.048,72.86V5.182A2.137,2.137,0,0,1,5.182,3.048H17.808V6.1H7.621A1.524,1.524,0,0,0,6.1,7.621v62.8a1.524,1.524,0,0,0,1.524,1.524H24.693a1.524,1.524,0,1,0,0-3.049H9.145V9.145h8.663v.114a4.769,4.769,0,0,0,4.763,4.763H39.009a4.769,4.769,0,0,0,4.763-4.763V9.145h8.663V36.9L50.7,38.638a1.542,1.542,0,0,0-.314.458L45.809,49.372a1.525,1.525,0,0,0,2.013,2.013l4.613-2.054V68.9H36.887a1.524,1.524,0,1,0,0,3.049H53.959a1.525,1.525,0,0,0,1.524-1.524V47.973L58.1,46.809a1.52,1.52,0,0,0,.434-.293V72.859A2.137,2.137,0,0,1,56.4,74.993ZM68.578,32.16l-11.1,11.1-3.546-3.546L67.676,25.972l3.546,3.546Zm5.681-5.681-.882.882-3.545-3.545.882-.882a2.507,2.507,0,0,1,3.546,3.545Zm0,0"/>
      <path id="Trazado_121335" data-name="Trazado 121335" d="M99.28,120H89.524A1.524,1.524,0,0,0,88,121.524v9.755a1.524,1.524,0,0,0,1.524,1.524H99.28a1.524,1.524,0,0,0,1.524-1.524v-9.755A1.524,1.524,0,0,0,99.28,120Zm-1.524,9.755H91.049v-6.707h6.707Zm0,0" transform="translate(-74.587 -101.709)"/>
      <path id="Trazado_121336" data-name="Trazado 121336" d="M99.28,230H89.524A1.524,1.524,0,0,0,88,231.524v9.755a1.524,1.524,0,0,0,1.524,1.524H99.28a1.524,1.524,0,0,0,1.524-1.524v-9.755A1.524,1.524,0,0,0,99.28,230Zm-1.524,9.755H91.049v-6.707h6.707Zm0,0" transform="translate(-74.587 -194.942)"/>
      <path id="Trazado_121337" data-name="Trazado 121337" d="M99.28,340H89.524A1.524,1.524,0,0,0,88,341.524v9.755a1.524,1.524,0,0,0,1.524,1.524H99.28a1.524,1.524,0,0,0,1.524-1.524v-9.755A1.524,1.524,0,0,0,99.28,340Zm-1.524,9.755H91.049v-6.707h6.707Zm0,0" transform="translate(-74.587 -288.175)"/>
      <path id="Trazado_121338" data-name="Trazado 121338" d="M212.239,138.91a1.524,1.524,0,0,0,2.155,0l6.882-6.882a1.524,1.524,0,0,0-2.156-2.155l-5.8,5.8L211,133.363a1.524,1.524,0,0,0-2.156,2.155Zm0,0" transform="translate(-176.636 -109.699)"/>
      <path id="Trazado_121339" data-name="Trazado 121339" d="M212.239,248.913a1.524,1.524,0,0,0,2.155,0l6.882-6.881a1.525,1.525,0,0,0-2.156-2.156l-5.8,5.8L211,243.366a1.524,1.524,0,0,0-2.156,2.155Zm0,0" transform="translate(-176.636 -202.934)"/>
      <path id="Trazado_121340" data-name="Trazado 121340" d="M224.492,356.548l2.363,2.363a1.524,1.524,0,0,0,2.155-2.155l-2.363-2.363,2.363-2.363a1.524,1.524,0,0,0-2.155-2.155l-2.363,2.363-2.363-2.363a1.524,1.524,0,0,0-2.156,2.155l2.363,2.363-2.363,2.363a1.524,1.524,0,0,0,2.156,2.155Zm0,0" transform="translate(-186.065 -296.165)"/>
    </g>
  </g>
</svg>
