<svg xmlns="http://www.w3.org/2000/svg" width="231.009" height="256.624" viewBox="0 0 231.009 256.624">
  <g id="Grupo_948057" data-name="Grupo 948057" transform="translate(-123.618 -1232.099)">
    <g id="Grupo_83078" data-name="Grupo 83078" transform="translate(123.618 1232.099)">
      <g id="Capa_1_copia" data-name="Capa 1 copia">
        <g id="Grupo_83077" data-name="Grupo 83077">
          <g id="Grupo_83049" data-name="Grupo 83049" transform="translate(41.12 232.113)">
            <rect id="Rect치ngulo_34410" data-name="Rect치ngulo 34410" width="153.686" height="24.511" fill="none"/>
          </g>
          <g id="Grupo_83050" data-name="Grupo 83050" transform="translate(42.107 231.902)">
            <path id="Trazado_120524" data-name="Trazado 120524" d="M173.4,1496.343c-3.557,0-5.423-2.043-5.6-6.163l3.205-.669c.07,2.676.844,4.014,2.288,4.014a1.411,1.411,0,0,0,1.233-.528,2.134,2.134,0,0,0,.422-1.373,3.823,3.823,0,0,0-.316-1.55,3.876,3.876,0,0,0-.7-1.126c-.282-.282-.635-.67-1.127-1.092l-2.641-2.289a6.727,6.727,0,0,1-1.726-2.113,5.882,5.882,0,0,1-.563-2.747,4.857,4.857,0,0,1,1.373-3.663,5.425,5.425,0,0,1,3.8-1.339,5.8,5.8,0,0,1,1.972.282,4.166,4.166,0,0,1,1.409.775,4,4,0,0,1,.916,1.2,8.489,8.489,0,0,1,.563,1.479,11.969,11.969,0,0,1,.247,1.726l-3.135.634a8.3,8.3,0,0,0-.071-1.056c-.035-.282-.106-.6-.176-.916a2.388,2.388,0,0,0-.352-.74,1.466,1.466,0,0,0-.563-.458,2.133,2.133,0,0,0-.845-.141,1.745,1.745,0,0,0-1.233.528,1.936,1.936,0,0,0-.422,1.3,3.01,3.01,0,0,0,.388,1.585,5.727,5.727,0,0,0,1.2,1.338l2.641,2.289a11.515,11.515,0,0,1,1.127,1.163,11.8,11.8,0,0,1,.916,1.267,6.333,6.333,0,0,1,.669,1.585,7.7,7.7,0,0,1,.246,1.831,4.746,4.746,0,0,1-1.409,3.592A5.31,5.31,0,0,1,173.4,1496.343Z" transform="translate(-167.8 -1475.705)" fill="#121212"/>
          </g>
          <g id="Grupo_83051" data-name="Grupo 83051" transform="translate(54.538 231.903)">
            <path id="Trazado_120525" data-name="Trazado 120525" d="M186.655,1496.343c-2.078,0-3.557-.564-4.473-1.691a7.73,7.73,0,0,1-1.338-4.965v-7.431a10.8,10.8,0,0,1,.317-2.783,5.509,5.509,0,0,1,.985-2.042,4.251,4.251,0,0,1,1.8-1.3,7.686,7.686,0,0,1,2.711-.422c2.078,0,3.557.563,4.473,1.654a7.58,7.58,0,0,1,1.373,4.9v7.431a11.028,11.028,0,0,1-.316,2.782,5.688,5.688,0,0,1-.986,2.078,4.307,4.307,0,0,1-1.8,1.338A7.115,7.115,0,0,1,186.655,1496.343Zm-.916-2.888a3.06,3.06,0,0,0,1.832,0,1.526,1.526,0,0,0,.6-.423,1.721,1.721,0,0,0,.353-.669,8.181,8.181,0,0,0,.175-.81,8.273,8.273,0,0,0,.035-.986v-9.156a11.978,11.978,0,0,0-.07-1.233,2.528,2.528,0,0,0-.282-.915,1.38,1.38,0,0,0-.634-.634,2.409,2.409,0,0,0-1.092-.211,2.509,2.509,0,0,0-1.091.211,1.372,1.372,0,0,0-.634.634,2.761,2.761,0,0,0-.282.915,11.116,11.116,0,0,0-.071,1.233v9.156a8.28,8.28,0,0,0,.035.986,3.012,3.012,0,0,0,.176.81,1.721,1.721,0,0,0,.352.669A1.311,1.311,0,0,0,185.739,1493.455Z" transform="translate(-180.844 -1475.706)" fill="#121212"/>
          </g>
          <g id="Grupo_83052" data-name="Grupo 83052" transform="translate(68.801 232.113)">
            <path id="Trazado_120526" data-name="Trazado 120526" d="M195.81,1496.106v-20.179h2.535l4.931,11.411v-11.411H206.3v20.179H203.91l-5-12.009v12.009Z" transform="translate(-195.81 -1475.927)" fill="#121212"/>
          </g>
          <g id="Grupo_83053" data-name="Grupo 83053" transform="translate(88.346 232.113)">
            <path id="Trazado_120527" data-name="Trazado 120527" d="M216.318,1496.106v-20.179h3.662v8.417h4.086v-8.417h3.662v20.179h-3.662v-9.121H219.98v9.121Z" transform="translate(-216.318 -1475.927)" fill="#be0c4d"/>
          </g>
          <g id="Grupo_83054" data-name="Grupo 83054" transform="translate(102.468 231.903)">
            <path id="Trazado_120528" data-name="Trazado 120528" d="M236.947,1496.343c-2.078,0-3.557-.564-4.472-1.691a7.73,7.73,0,0,1-1.339-4.965v-7.431a10.794,10.794,0,0,1,.317-2.783,5.51,5.51,0,0,1,.986-2.042,4.242,4.242,0,0,1,1.8-1.3,7.686,7.686,0,0,1,2.711-.422c2.079,0,3.558.563,4.473,1.654a7.58,7.58,0,0,1,1.374,4.9v7.431a10.983,10.983,0,0,1-.317,2.782,5.674,5.674,0,0,1-.986,2.078,4.308,4.308,0,0,1-1.8,1.338A7.236,7.236,0,0,1,236.947,1496.343Zm-.95-2.888a3.057,3.057,0,0,0,1.831,0,1.52,1.52,0,0,0,.6-.423,1.721,1.721,0,0,0,.353-.669c.071-.282.141-.563.176-.81a8.277,8.277,0,0,0,.035-.986v-9.156a11.679,11.679,0,0,0-.071-1.233,2.528,2.528,0,0,0-.282-.915,1.376,1.376,0,0,0-.634-.634,2.407,2.407,0,0,0-1.091-.211,2.514,2.514,0,0,0-1.092.211,1.376,1.376,0,0,0-.634.634,2.762,2.762,0,0,0-.282.915,11.12,11.12,0,0,0-.071,1.233v9.156a8.28,8.28,0,0,0,.035.986,3.01,3.01,0,0,0,.176.81,1.721,1.721,0,0,0,.353.669A1.827,1.827,0,0,0,236,1493.455Z" transform="translate(-231.136 -1475.706)" fill="#be0c4d"/>
          </g>
          <g id="Grupo_83055" data-name="Grupo 83055" transform="translate(116.66 232.113)">
            <path id="Trazado_120529" data-name="Trazado 120529" d="M246.028,1496.106l.317-20.179h3.768l2.923,14.157,2.993-14.157h3.7l.352,20.179H257.3l-.247-13.875-2.923,13.875H251.98l-2.958-13.946-.212,13.946Z" transform="translate(-246.028 -1475.927)" fill="#be0c4d"/>
          </g>
          <g id="Grupo_83056" data-name="Grupo 83056" transform="translate(133.635 232.113)">
            <path id="Trazado_120530" data-name="Trazado 120530" d="M263.839,1496.106v-20.179h4.931a9.91,9.91,0,0,1,2.429.247,5.782,5.782,0,0,1,1.832.81,3.716,3.716,0,0,1,1.232,1.585,5.849,5.849,0,0,1,.388,2.465c0,2.5-.986,3.874-2.958,4.156a4.037,4.037,0,0,1,2.676,1.55,5.753,5.753,0,0,1,.881,3.451,5.952,5.952,0,0,1-1.444,4.367,5.609,5.609,0,0,1-4.227,1.479h-5.74Zm3.7-11.938h1.127a2.831,2.831,0,0,0,2.219-.7,3.412,3.412,0,0,0,.6-2.324,3.748,3.748,0,0,0-.212-1.373,1.528,1.528,0,0,0-.669-.81,3.39,3.39,0,0,0-1.056-.352,9.475,9.475,0,0,0-1.55-.071h-.529v5.634Zm0,9.332h1.338a2.805,2.805,0,0,0,2.289-.774,5.347,5.347,0,0,0-.071-5.178,2.94,2.94,0,0,0-2.394-.809h-1.163Z" transform="translate(-263.839 -1475.927)" fill="#be0c4d"/>
          </g>
          <g id="Grupo_83057" data-name="Grupo 83057" transform="translate(147.44 232.113)">
            <path id="Trazado_120531" data-name="Trazado 120531" d="M278.325,1496.106v-20.179h4.613a12.6,12.6,0,0,1,2.748.247,5.04,5.04,0,0,1,1.972.88,3.734,3.734,0,0,1,1.268,1.654,6.887,6.887,0,0,1,.423,2.571,7.166,7.166,0,0,1-.564,3.1,3.512,3.512,0,0,1-1.866,1.76l2.782,9.931H286l-2.395-9.192h-1.619v9.192l-3.662.035Zm3.662-11.551h.88a3.215,3.215,0,0,0,2.324-.7,3.312,3.312,0,0,0,.7-2.36,3.608,3.608,0,0,0-.6-2.324,2.787,2.787,0,0,0-2.183-.7h-1.091l-.035,6.093Z" transform="translate(-278.325 -1475.927)" fill="#be0c4d"/>
          </g>
          <g id="Grupo_83058" data-name="Grupo 83058" transform="translate(161.21 232.113)">
            <path id="Trazado_120532" data-name="Trazado 120532" d="M292.773,1496.106v-20.179h8.452v2.607h-4.755v5.776h3.768v2.606h-3.768v6.656h4.824v2.536Z" transform="translate(-292.773 -1475.927)" fill="#be0c4d"/>
          </g>
          <g id="Grupo_83059" data-name="Grupo 83059" transform="translate(171.246 231.902)">
            <path id="Trazado_120533" data-name="Trazado 120533" d="M308.9,1496.343c-3.557,0-5.424-2.043-5.6-6.163l3.205-.669c.071,2.676.845,4.014,2.289,4.014a1.41,1.41,0,0,0,1.232-.528,2.354,2.354,0,0,0,.423-1.373,3.808,3.808,0,0,0-.317-1.55,3.856,3.856,0,0,0-.7-1.126c-.281-.282-.634-.67-1.126-1.092l-2.642-2.289a6.709,6.709,0,0,1-1.725-2.113,5.87,5.87,0,0,1-.564-2.747,4.861,4.861,0,0,1,1.373-3.663,5.426,5.426,0,0,1,3.8-1.339,5.811,5.811,0,0,1,1.973.282,4.457,4.457,0,0,1,1.409.775,4,4,0,0,1,.915,1.2,8.495,8.495,0,0,1,.564,1.479,11.975,11.975,0,0,1,.246,1.726l-3.134.634a8.317,8.317,0,0,0-.07-1.056c-.035-.282-.106-.6-.176-.916a2.409,2.409,0,0,0-.353-.74,1.452,1.452,0,0,0-.563-.458,2.127,2.127,0,0,0-.845-.141,1.743,1.743,0,0,0-1.232.528,1.931,1.931,0,0,0-.422,1.3,3.01,3.01,0,0,0,.387,1.585,5.747,5.747,0,0,0,1.2,1.338l2.642,2.289a11.5,11.5,0,0,1,1.127,1.163,11.678,11.678,0,0,1,.916,1.267,6.3,6.3,0,0,1,.669,1.585,7.65,7.65,0,0,1,.247,1.831,4.749,4.749,0,0,1-1.409,3.592A5.194,5.194,0,0,1,308.9,1496.343Z" transform="translate(-303.304 -1475.705)" fill="#be0c4d"/>
          </g>
          <g id="Grupo_83060" data-name="Grupo 83060" transform="translate(0.321 181.437)">
            <path id="Trazado_120534" data-name="Trazado 120534" d="M150.316,1441.312c-.176-2.114-1.268-13.488-1.409-14.861a3.2,3.2,0,0,0-3.1-2.748,54.127,54.127,0,0,0-8.629-.95h0a54.126,54.126,0,0,0-8.628.95,3.2,3.2,0,0,0-3.1,2.748c-.141,1.373-1.2,12.748-1.409,14.861-.7,7.712,3.029,5.987,3.452,10.177a1.666,1.666,0,0,0,.175.6s1.514,33.385,1.973,38.28a3.188,3.188,0,0,0,3.134,3.029,2.97,2.97,0,0,0,3.205-3.029l.353-28.278h1.725l.353,28.278a3.261,3.261,0,0,0,3.31,3.029,3.135,3.135,0,0,0,3.1-3.029c.423-4.895,1.9-38.28,1.9-38.28a3.034,3.034,0,0,0,.175-.6C147.287,1447.333,151.02,1449.059,150.316,1441.312Z" transform="translate(-123.955 -1422.753)" fill="#be0c4d"/>
          </g>
          <g id="Grupo_83061" data-name="Grupo 83061" transform="translate(8.651 167.033)">
            <path id="Trazado_120535" data-name="Trazado 120535" d="M137.625,1419.93c3.24,0,4.931-3.276,4.931-6.375,0-3.064-1.691-5.916-4.931-5.916s-4.93,2.852-4.93,5.916S134.386,1419.93,137.625,1419.93Z" transform="translate(-132.695 -1407.639)" fill="#be0c4d"/>
          </g>
          <g id="Grupo_83062" data-name="Grupo 83062" transform="translate(44.29 68.743)">
            <rect id="Rect치ngulo_34411" data-name="Rect치ngulo 34411" width="153.686" height="23.525" fill="none"/>
          </g>
          <g id="Grupo_83063" data-name="Grupo 83063" transform="translate(45.276 68.496)">
            <path id="Trazado_120536" data-name="Trazado 120536" d="M176.725,1324.883c-3.557,0-5.424-2.042-5.6-6.162l3.2-.669c.071,2.676.845,4.014,2.289,4.014a1.412,1.412,0,0,0,1.232-.528,2.131,2.131,0,0,0,.423-1.373,4.106,4.106,0,0,0-1.022-2.677c-.281-.281-.634-.669-1.126-1.091l-2.642-2.289a6.708,6.708,0,0,1-1.725-2.113,5.872,5.872,0,0,1-.564-2.748,4.86,4.86,0,0,1,1.374-3.662,5.426,5.426,0,0,1,3.8-1.338,5.8,5.8,0,0,1,1.973.282,4.173,4.173,0,0,1,1.409.775,4.009,4.009,0,0,1,.916,1.2,8.572,8.572,0,0,1,.563,1.479,11.948,11.948,0,0,1,.247,1.726l-3.135.634a8.332,8.332,0,0,0-.071-1.057c-.035-.281-.106-.6-.176-.915a2.424,2.424,0,0,0-.352-.74,1.471,1.471,0,0,0-.564-.458,2.125,2.125,0,0,0-.844-.141,1.744,1.744,0,0,0-1.233.529,1.935,1.935,0,0,0-.422,1.3,3.021,3.021,0,0,0,.387,1.585,5.755,5.755,0,0,0,1.2,1.338l2.641,2.289a11.5,11.5,0,0,1,1.127,1.162,11.678,11.678,0,0,1,.915,1.268,6.248,6.248,0,0,1,.669,1.585,7.648,7.648,0,0,1,.247,1.831,4.748,4.748,0,0,1-1.409,3.592A5.252,5.252,0,0,1,176.725,1324.883Z" transform="translate(-171.126 -1304.246)" fill="#121212"/>
          </g>
          <g id="Grupo_83064" data-name="Grupo 83064" transform="translate(57.708 68.496)">
            <path id="Trazado_120537" data-name="Trazado 120537" d="M189.981,1324.883c-2.078,0-3.557-.563-4.473-1.69a7.732,7.732,0,0,1-1.338-4.966V1310.8a10.836,10.836,0,0,1,.316-2.782,5.526,5.526,0,0,1,.986-2.042,4.24,4.24,0,0,1,1.8-1.3,7.684,7.684,0,0,1,2.711-.423c2.078,0,3.557.563,4.473,1.656a7.575,7.575,0,0,1,1.373,4.895v7.431a10.987,10.987,0,0,1-.317,2.783,5.68,5.68,0,0,1-.985,2.078,4.323,4.323,0,0,1-1.8,1.338A7.111,7.111,0,0,1,189.981,1324.883Zm-.916-2.888a3.045,3.045,0,0,0,1.832,0,1.532,1.532,0,0,0,.6-.422,1.715,1.715,0,0,0,.352-.669c.071-.282.141-.564.176-.81a8.28,8.28,0,0,0,.035-.986v-9.156a11.68,11.68,0,0,0-.071-1.233,2.557,2.557,0,0,0-.281-.916,1.387,1.387,0,0,0-.635-.634,2.4,2.4,0,0,0-1.091-.211,2.517,2.517,0,0,0-1.092.211,1.389,1.389,0,0,0-.634.634,2.773,2.773,0,0,0-.281.916,11.116,11.116,0,0,0-.071,1.233v9.156a8.284,8.284,0,0,0,.035.986,3.057,3.057,0,0,0,.175.81,1.728,1.728,0,0,0,.353.669A1.243,1.243,0,0,0,189.065,1322Z" transform="translate(-184.17 -1304.246)" fill="#121212"/>
          </g>
          <g id="Grupo_83065" data-name="Grupo 83065" transform="translate(71.971 68.708)">
            <path id="Trazado_120538" data-name="Trazado 120538" d="M199.136,1324.647v-20.179h2.535l4.93,11.411v-11.411h3.029v20.179h-2.394l-5-12.009v12.009Z" transform="translate(-199.136 -1304.468)" fill="#121212"/>
          </g>
          <g id="Grupo_83066" data-name="Grupo 83066" transform="translate(91.445 68.708)">
            <path id="Trazado_120539" data-name="Trazado 120539" d="M219.57,1324.647l.317-20.179h3.768l2.923,14.157,2.993-14.157h3.7l.352,20.179H230.84l-.247-13.876-2.923,13.876h-2.148l-2.958-13.946-.212,13.946Z" transform="translate(-219.57 -1304.468)" fill="#be0c4d"/>
          </g>
          <g id="Grupo_83067" data-name="Grupo 83067" transform="translate(108.314 68.708)">
            <path id="Trazado_120540" data-name="Trazado 120540" d="M242.905,1324.893a7.4,7.4,0,0,1-2.324-.316,4.215,4.215,0,0,1-1.62-.881,4.111,4.111,0,0,1-1.021-1.479,8.225,8.225,0,0,1-.529-1.937,16.718,16.718,0,0,1-.141-2.43v-13.382h3.558v13.769c0,.458,0,.881.035,1.2s.07.669.14,1.056a2.546,2.546,0,0,0,.353.881,1.815,1.815,0,0,0,1.585.775,1.9,1.9,0,0,0,.95-.212,1.528,1.528,0,0,0,.6-.563,3.54,3.54,0,0,0,.352-.881,5.422,5.422,0,0,0,.141-1.056c.035-.317.035-.74.035-1.2v-13.769h3.557v13.382a16.715,16.715,0,0,1-.141,2.43,8.223,8.223,0,0,1-.528,1.937,4.113,4.113,0,0,1-1.022,1.479,4.2,4.2,0,0,1-1.619.881A8.162,8.162,0,0,1,242.905,1324.893Z" transform="translate(-237.27 -1304.468)" fill="#be0c4d"/>
          </g>
          <g id="Grupo_83068" data-name="Grupo 83068" transform="translate(121.133 68.743)">
            <path id="Trazado_120541" data-name="Trazado 120541" d="M250.721,1325.071v-2.57a3.131,3.131,0,0,0,2.148-.494,2.842,2.842,0,0,0,.528-2.042v-15.46h3.663v15.566a9.853,9.853,0,0,1-.212,2.219,3.747,3.747,0,0,1-.74,1.55,3.14,3.14,0,0,1-1.409.951,6.823,6.823,0,0,1-2.219.281Z" transform="translate(-250.721 -1304.505)" fill="#be0c4d"/>
          </g>
          <g id="Grupo_83069" data-name="Grupo 83069" transform="translate(130.466 68.708)">
            <path id="Trazado_120542" data-name="Trazado 120542" d="M260.514,1324.647v-20.179h8.451v2.606h-4.754v5.776h3.767v2.605h-3.767v6.656h4.824v2.536Z" transform="translate(-260.514 -1304.468)" fill="#be0c4d"/>
          </g>
          <g id="Grupo_83070" data-name="Grupo 83070" transform="translate(141.03 68.708)">
            <path id="Trazado_120543" data-name="Trazado 120543" d="M271.6,1324.647v-20.179h4.614a12.6,12.6,0,0,1,2.747.247,5.051,5.051,0,0,1,1.973.88,3.749,3.749,0,0,1,1.268,1.656,6.9,6.9,0,0,1,.422,2.571,7.166,7.166,0,0,1-.563,3.1,3.519,3.519,0,0,1-1.866,1.76l2.782,9.932h-3.7l-2.395-9.192h-1.62v9.192l-3.662.035Zm3.662-11.552h.881a3.212,3.212,0,0,0,2.324-.7,3.313,3.313,0,0,0,.7-2.36,3.612,3.612,0,0,0-.6-2.323,2.79,2.79,0,0,0-2.183-.7H275.3l-.035,6.092Z" transform="translate(-271.599 -1304.468)" fill="#be0c4d"/>
          </g>
          <g id="Grupo_83071" data-name="Grupo 83071" transform="translate(154.8 68.708)">
            <path id="Trazado_120544" data-name="Trazado 120544" d="M286.048,1324.647v-20.179H294.5v2.606h-4.754v5.776h3.733v2.605H289.71v6.656h4.824v2.536Z" transform="translate(-286.048 -1304.468)" fill="#be0c4d"/>
          </g>
          <g id="Grupo_83072" data-name="Grupo 83072" transform="translate(164.837 68.496)">
            <path id="Trazado_120545" data-name="Trazado 120545" d="M302.179,1324.883c-3.558,0-5.424-2.042-5.6-6.162l3.205-.669c.071,2.676.845,4.014,2.289,4.014a1.413,1.413,0,0,0,1.232-.528,2.356,2.356,0,0,0,.422-1.373,3.8,3.8,0,0,0-.316-1.55,3.878,3.878,0,0,0-.7-1.127c-.282-.281-.634-.669-1.127-1.091l-2.641-2.289a6.726,6.726,0,0,1-1.726-2.113,5.884,5.884,0,0,1-.563-2.748,4.86,4.86,0,0,1,1.373-3.662,5.428,5.428,0,0,1,3.8-1.338,5.8,5.8,0,0,1,1.972.282,4.446,4.446,0,0,1,1.409.775,3.993,3.993,0,0,1,.916,1.2,8.419,8.419,0,0,1,.563,1.479,11.939,11.939,0,0,1,.247,1.726l-3.135.634a8.329,8.329,0,0,0-.071-1.057c-.035-.281-.1-.6-.175-.915a2.4,2.4,0,0,0-.353-.74,1.475,1.475,0,0,0-.563-.458,2.13,2.13,0,0,0-.845-.141,1.741,1.741,0,0,0-1.232.529,1.93,1.93,0,0,0-.423,1.3,3.013,3.013,0,0,0,.388,1.585,5.75,5.75,0,0,0,1.2,1.338l2.641,2.289a11.5,11.5,0,0,1,1.127,1.162,11.69,11.69,0,0,1,.916,1.268,6.318,6.318,0,0,1,.669,1.585,7.646,7.646,0,0,1,.247,1.831,4.748,4.748,0,0,1-1.41,3.592A5.191,5.191,0,0,1,302.179,1324.883Z" transform="translate(-296.579 -1304.246)" fill="#be0c4d"/>
          </g>
          <g id="Grupo_83073" data-name="Grupo 83073" transform="translate(11.75 3.698)">
            <path id="Trazado_120546" data-name="Trazado 120546" d="M140.948,1248.685c3.276,0,5-3.346,5-6.444s-1.69-5.987-5-5.987c-3.275,0-5,2.888-5,5.987S137.673,1248.685,140.948,1248.685Z" transform="translate(-135.947 -1236.254)" fill="#be0c4d"/>
          </g>
          <g id="Grupo_83074" data-name="Grupo 83074" transform="translate(0 18.665)">
            <path id="Trazado_120547" data-name="Trazado 120547" d="M157.131,1279.956s-3.8-18.383-5.6-22.081h0c-1.8-3.7-3.592-5.916-10.424-5.916H139.7c-6.832,0-8.628,2.219-10.424,5.916h0c-1.8,3.7-5.6,22.081-5.6,22.081a2.3,2.3,0,0,0,1.725,2.747,2.721,2.721,0,0,0,.529.071,2.33,2.33,0,0,0,2.254-1.8l5.106-18.207-4.966,30.427h4.79l1.479,27.117a1.743,1.743,0,0,0,3.486,0l1.479-27.117h1.761l1.479,27.117a1.743,1.743,0,0,0,3.486,0l1.479-27.117h4.79l-4.966-30.427,5.106,18.207a2.33,2.33,0,0,0,2.254,1.8,2.721,2.721,0,0,0,.529-.071A2.308,2.308,0,0,0,157.131,1279.956Z" transform="translate(-123.618 -1251.959)" fill="#be0c4d"/>
          </g>
          <g id="Grupo_83075" data-name="Grupo 83075" transform="translate(45.276)">
            <path id="Trazado_120548" data-name="Trazado 120548" d="M176.655,1288.121a10.447,10.447,0,0,1-4.367-5.775,32.172,32.172,0,0,1-1.162-9.367h10.389a19.886,19.886,0,0,0,.915,7.043,3.483,3.483,0,0,0,3.522,2.183,3.542,3.542,0,0,0,3.063-1.373,7.8,7.8,0,0,0,1.2-3.768,68.641,68.641,0,0,0,.246-6.9,23.29,23.29,0,0,0-.95-7.678,3.711,3.711,0,0,0-3.839-2.535c-2.5,0-4.086,1.69-4.79,5.071h-9.226l.775-31.906h25.884v9.226h-17.08l-.634,12.432a7.239,7.239,0,0,1,3.345-1.973,15.95,15.95,0,0,1,5.071-.81,9.557,9.557,0,0,1,8.664,4.649c1.937,3.1,2.923,7.431,2.923,13.03a44.13,44.13,0,0,1-1.163,11.058,12.6,12.6,0,0,1-4.473,6.938q-3.275,2.536-9.4,2.536C181.761,1290.164,178.8,1289.5,176.655,1288.121Z" transform="translate(-171.126 -1232.409)" fill="#121212"/>
            <path id="Trazado_120549" data-name="Trazado 120549" d="M219.8,1244.167a43.275,43.275,0,0,1-4.437,1.726c-1.937.634-3.169,1.091-3.662,1.3v-7.959a43.326,43.326,0,0,0,5.741-2.783,18.4,18.4,0,0,0,4.754-3.416h8.382v56.206H219.834v-45.077Z" transform="translate(-173.032 -1232.405)" fill="#121212"/>
            <path id="Trazado_120550" data-name="Trazado 120550" d="M246.36,1297.574c3.134-.881,4.718-2.888,4.718-6.022h-5.493V1281.41h10.072v8.945c-.106,6.479-2.923,10.072-8.451,10.741Z" transform="translate(-174.623 -1234.677)" fill="#121212"/>
            <path id="Trazado_120551" data-name="Trazado 120551" d="M262.839,1281.677l13.593-21.024.845-1.233a51.387,51.387,0,0,0,3.874-6.621,13.493,13.493,0,0,0,1.232-5.846,6.841,6.841,0,0,0-1.056-4.12,3.478,3.478,0,0,0-2.993-1.409,4.085,4.085,0,0,0-4.015,2.219,13.82,13.82,0,0,0-1.126,6.092v2.571H262.8v-2.782c0-5.283,1.232-9.439,3.7-12.537,2.465-3.064,6.339-4.614,11.621-4.614,4.859,0,8.557,1.267,11.058,3.839,2.536,2.57,3.768,6.2,3.768,10.917a17.86,17.86,0,0,1-.986,6.022,25.918,25.918,0,0,1-2.289,5.071c-.881,1.479-2.254,3.592-4.085,6.3l-10.812,16.235H291.5v8.453H262.768v-7.537Z" transform="translate(-175.43 -1232.374)" fill="#121212"/>
            <path id="Trazado_120552" data-name="Trazado 120552" d="M302.974,1260.96c-1.973-2.4-2.958-6.058-2.958-10.952v-2.852c0-5,.95-8.629,2.888-10.848,1.9-2.253,5.177-3.38,9.755-3.38,4.613,0,7.923,1.092,9.86,3.311,1.938,2.183,2.923,5.775,2.923,10.705v3.2c0,4.895-.985,8.522-2.993,10.882-1.972,2.36-5.247,3.521-9.789,3.521C308.186,1264.552,304.946,1263.355,302.974,1260.96Zm12.924-5.177a17.7,17.7,0,0,0,.74-6.057V1247.3a27.029,27.029,0,0,0-.246-4.333,4.006,4.006,0,0,0-1.092-2.288,3.756,3.756,0,0,0-2.641-.81,3.623,3.623,0,0,0-2.571.81,4,4,0,0,0-1.091,2.288,26.891,26.891,0,0,0-.247,4.333v2.5a17.36,17.36,0,0,0,.74,6.022,3.054,3.054,0,0,0,3.17,1.8C314.313,1257.615,315.406,1257.017,315.9,1255.784Zm20.426-22.714h6.3l-16.869,56.206h-6.3Zm3.416,52.755c-1.972-2.4-2.958-6.022-2.958-10.918v-2.923c0-4.965.951-8.557,2.888-10.811,1.9-2.254,5.177-3.416,9.755-3.416s7.853,1.126,9.791,3.345,2.923,5.811,2.923,10.741v3.135c0,4.9-.986,8.523-2.993,10.883-1.973,2.359-5.212,3.521-9.72,3.521C344.952,1289.416,341.712,1288.218,339.74,1285.824Zm12.89-5.142a18.9,18.9,0,0,0,.7-6.057v-2.5a32.875,32.875,0,0,0-.212-4.367,3.667,3.667,0,0,0-1.057-2.254,3.761,3.761,0,0,0-2.641-.81,3.61,3.61,0,0,0-2.607.81,4.214,4.214,0,0,0-1.056,2.289,26.887,26.887,0,0,0-.247,4.332v2.5a17.6,17.6,0,0,0,.74,6.057,3.033,3.033,0,0,0,3.17,1.831C351.116,1282.548,352.172,1281.915,352.63,1280.682Z" transform="translate(-177.18 -1232.4)" fill="#121212"/>
          </g>
          <g id="Grupo_83076" data-name="Grupo 83076" transform="translate(43.797 161.997)">
            <path id="Trazado_120553" data-name="Trazado 120553" d="M186.513,1445.916H169.574v-8.451l14.65-34.407h12.009v34.759h5.634v8.1h-5.634v13.312h-9.72Zm0-8.1v-23.877l-8.523,23.877Z" transform="translate(-169.574 -1402.388)" fill="#121212"/>
            <path id="Trazado_120554" data-name="Trazado 120554" d="M208.448,1442.995a18.9,18.9,0,0,1,1.654-8.17,10.927,10.927,0,0,1,4.931-5.142,13.391,13.391,0,0,1-4.156-5.036,16.959,16.959,0,0,1-1.585-7.678c0-4.614,1.233-8.205,3.662-10.776,2.465-2.571,5.952-3.839,10.53-3.839s8.065,1.268,10.46,3.8,3.592,6.093,3.592,10.6a18.382,18.382,0,0,1-1.514,7.924,12.846,12.846,0,0,1-4.085,5,10.776,10.776,0,0,1,4.93,5.283,19.889,19.889,0,0,1,1.655,8.522c0,5.212-1.2,9.3-3.592,12.221s-6.234,4.367-11.446,4.367C213.484,1460.04,208.448,1454.37,208.448,1442.995Zm18.7,6.621a17.379,17.379,0,0,0,.951-6.2,18.49,18.49,0,0,0-.951-6.585,3.562,3.562,0,0,0-3.627-2.429,3.523,3.523,0,0,0-3.627,2.464,18.678,18.678,0,0,0-.951,6.55,17.246,17.246,0,0,0,.951,6.2,3.9,3.9,0,0,0,7.254,0Zm.317-32.646a9.847,9.847,0,0,0-.986-4.824,3.213,3.213,0,0,0-2.993-1.761,3.393,3.393,0,0,0-3.064,1.761,9.337,9.337,0,0,0-1.056,4.824c0,5.776,1.373,8.663,4.085,8.663S227.465,1422.745,227.465,1416.97Z" transform="translate(-171.4 -1402.355)" fill="#121212"/>
            <path id="Trazado_120555" data-name="Trazado 120555" d="M247.136,1467.555c3.134-.881,4.718-2.888,4.718-6.022h-5.493v-10.142h10.072v8.945c-.106,6.48-2.923,10.072-8.451,10.741Z" transform="translate(-173.181 -1404.658)" fill="#121212"/>
            <path id="Trazado_120556" data-name="Trazado 120556" d="M262.915,1442.995a18.9,18.9,0,0,1,1.655-8.17,10.922,10.922,0,0,1,4.931-5.142,13.391,13.391,0,0,1-4.156-5.036,16.959,16.959,0,0,1-1.585-7.678c0-4.614,1.233-8.205,3.662-10.776,2.465-2.571,5.952-3.839,10.53-3.839s8.065,1.268,10.46,3.8,3.592,6.093,3.592,10.6a18.383,18.383,0,0,1-1.514,7.924,12.854,12.854,0,0,1-4.085,5,10.776,10.776,0,0,1,4.93,5.283,19.889,19.889,0,0,1,1.655,8.522c0,5.212-1.2,9.3-3.592,12.221s-6.234,4.367-11.446,4.367C267.917,1460.04,262.915,1454.37,262.915,1442.995Zm18.7,6.621a17.379,17.379,0,0,0,.951-6.2,18.49,18.49,0,0,0-.951-6.585,3.562,3.562,0,0,0-3.627-2.429,3.523,3.523,0,0,0-3.627,2.464,18.679,18.679,0,0,0-.951,6.55,17.246,17.246,0,0,0,.951,6.2,3.55,3.55,0,0,0,3.627,2.466A3.59,3.59,0,0,0,281.615,1449.616Zm.317-32.646a9.847,9.847,0,0,0-.986-4.824,3.213,3.213,0,0,0-2.993-1.761,3.393,3.393,0,0,0-3.064,1.761,9.337,9.337,0,0,0-1.056,4.824c0,5.776,1.373,8.663,4.085,8.663Q281.933,1425.633,281.933,1416.97Z" transform="translate(-173.958 -1402.355)" fill="#121212"/>
            <path id="Trazado_120557" data-name="Trazado 120557" d="M303.787,1430.941c-1.973-2.394-2.958-6.057-2.958-10.952v-2.852c0-5,.95-8.628,2.888-10.846,1.9-2.254,5.177-3.381,9.755-3.381,4.613,0,7.923,1.092,9.86,3.311,1.937,2.183,2.923,5.775,2.923,10.705v3.205c0,4.895-.985,8.522-2.993,10.882-1.972,2.36-5.247,3.522-9.79,3.522C308.964,1434.534,305.759,1433.336,303.787,1430.941Zm12.889-5.177a17.7,17.7,0,0,0,.74-6.056v-2.43a27,27,0,0,0-.246-4.332,4.006,4.006,0,0,0-1.092-2.289,3.756,3.756,0,0,0-2.641-.81,3.624,3.624,0,0,0-2.571.81,4,4,0,0,0-1.091,2.289,26.874,26.874,0,0,0-.247,4.332v2.5a17.354,17.354,0,0,0,.74,6.022,3.054,3.054,0,0,0,3.17,1.8C315.126,1427.6,316.219,1427,316.676,1425.765Zm20.462-22.714h6.3l-16.869,56.206h-6.3Zm3.416,52.755c-1.972-2.395-2.958-6.022-2.958-10.917v-2.924c0-4.965.951-8.557,2.888-10.811,1.9-2.254,5.177-3.416,9.755-3.416s7.853,1.126,9.79,3.345,2.923,5.811,2.923,10.742v3.134c0,4.9-.986,8.523-2.993,10.883-1.973,2.36-5.212,3.521-9.72,3.521C345.765,1459.4,342.525,1458.2,340.553,1455.8Zm12.89-5.141a18.9,18.9,0,0,0,.7-6.057v-2.5a32.872,32.872,0,0,0-.212-4.367,3.67,3.67,0,0,0-1.057-2.254,3.761,3.761,0,0,0-2.641-.81,3.608,3.608,0,0,0-2.607.81,4.214,4.214,0,0,0-1.056,2.289,26.885,26.885,0,0,0-.247,4.332v2.5a17.6,17.6,0,0,0,.74,6.057,3.69,3.69,0,0,0,6.375,0Z" transform="translate(-175.739 -1402.381)" fill="#121212"/>
          </g>
        </g>
      </g>
    </g>
  </g>
</svg>
