<svg xmlns="http://www.w3.org/2000/svg" width="69.929" height="85" viewBox="0 0 69.929 85">
  <g id="policia" transform="translate(-44.06)">
    <path id="Trazado_120707" data-name="Trazado 120707" d="M156.313,401.893c0-14.591-10.273-19.622-10.273-19.622H118.4S108.13,387.3,108.13,401.893Z" transform="translate(-53.112 -316.893)" fill="#ffb25a"/>
    <path id="Trazado_120708" data-name="Trazado 120708" d="M285.764,421.423v8.144h-8.992v-8.144l4.5-5.768Z" transform="translate(-192.912 -344.567)" fill="#f8d070"/>
    <path id="Trazado_120709" data-name="Trazado 120709" d="M177.635,421.423v8.144h-8.992v-8.144l4.5-5.768Z" transform="translate(-103.276 -344.567)" fill="#f8d070"/>
    <path id="Trazado_120710" data-name="Trazado 120710" d="M168.643,381.926h8.992v11.537h-8.992Z" transform="translate(-103.276 -316.607)" fill="#fff"/>
    <path id="Trazado_120711" data-name="Trazado 120711" d="M276.772,381.926h8.992v11.537h-8.992Z" transform="translate(-192.912 -316.607)" fill="#fff"/>
    <path id="Trazado_120712" data-name="Trazado 120712" d="M58.787,128.7a33.455,33.455,0,0,0-6.312,19.472H119.7a33.329,33.329,0,0,0-6.236-19.451L86.085,134.46Z" transform="translate(-6.976 -106.691)" fill="#e3986d"/>
    <path id="Trazado_120713" data-name="Trazado 120713" d="M63.921,145.333a60.5,60.5,0,0,1,1.887-15.123L58.787,128.7a33.455,33.455,0,0,0-6.312,19.472H63.987C63.945,147.235,63.921,146.288,63.921,145.333Z" transform="translate(-6.976 -106.691)" fill="#de8957"/>
    <circle id="Elipse_4863" data-name="Elipse 4863" cx="7.45" cy="7.45" r="7.45" transform="translate(99.089 34.033)" fill="#ffcabd"/>
    <circle id="Elipse_4864" data-name="Elipse 4864" cx="27.599" cy="27.599" r="27.599" transform="translate(51.51 13.884)" fill="#ffdcce"/>
    <path id="Trazado_120714" data-name="Trazado 120714" d="M136.589,8.446c-5.077-.712-12.316-2.385-17.664-6.307a11.349,11.349,0,0,0-13.263,0C100.313,6.062,93.075,7.734,88,8.446a4.674,4.674,0,0,0-3.876,5.739,33.464,33.464,0,0,1,.827,7.826l27.261,5.757,27.374-5.737a33.218,33.218,0,0,1,.883-7.847A4.674,4.674,0,0,0,136.589,8.446Z" transform="translate(-33.099)" fill="#3b4556"/>
    <ellipse id="Elipse_4865" data-name="Elipse 4865" cx="4.164" cy="5.09" rx="4.164" ry="5.09" transform="translate(74.86 5.938)" fill="#f8d070"/>
    <g id="Grupo_84484" data-name="Grupo 84484" transform="translate(102.174 64.294)">
      <path id="Trazado_120715" data-name="Trazado 120715" d="M383.859,375.93h5.986v14.661h-5.986Z" transform="translate(-383.859 -375.93)" fill="#475066"/>
    </g>
    <path id="Trazado_120716" data-name="Trazado 120716" d="M373.045,441.653a5.842,5.842,0,0,0-5.842,5.842,3.624,3.624,0,0,0,3.624,3.624h4.435a3.624,3.624,0,0,0,3.624-3.624A5.841,5.841,0,0,0,373.045,441.653Z" transform="translate(-267.877 -366.119)" fill="#ffdcce"/>
    <circle id="Elipse_4866" data-name="Elipse 4866" cx="7.102" cy="7.102" r="7.102" transform="translate(98.065 53.51)" fill="#ff6f7f"/>
    <path id="Trazado_120717" data-name="Trazado 120717" d="M101.275,27.587A47.2,47.2,0,0,1,88,31.315a4.674,4.674,0,0,0-3.876,5.739,33.763,33.763,0,0,1,.79,7.826l7.029,1.476A47.808,47.808,0,0,1,101.275,27.587Z" transform="translate(-33.099 -22.869)" fill="#303646"/>
    <path id="Trazado_120718" data-name="Trazado 120718" d="M62.319,172.229a57.5,57.5,0,0,1-5.374-24.745A60.227,60.227,0,0,1,59.119,131.3a27.562,27.562,0,0,0-6.611,11.653,6.542,6.542,0,0,0-1-.074,7.45,7.45,0,1,0,0,14.9,6.513,6.513,0,0,0,1-.075,27.631,27.631,0,0,0,9.811,14.528Z" transform="translate(0 -108.842)" fill="#ffcabd"/>
    <path id="Trazado_120719" data-name="Trazado 120719" d="M116.681,128.7h-27.3c2.574,6.57,13.779,11.514,27.213,11.514h.169c13.434,0,24.716-4.924,27.289-11.493Z" transform="translate(-37.572 -106.691)" fill="#475066"/>
    <path id="Trazado_120720" data-name="Trazado 120720" d="M96.817,128.7H89.383a13.953,13.953,0,0,0,5.981,6.4A57.6,57.6,0,0,1,96.817,128.7Z" transform="translate(-37.572 -106.691)" fill="#3b4556"/>
    <g id="Grupo_84485" data-name="Grupo 84485" transform="translate(57.615 37.081)">
      <path id="Trazado_120721" data-name="Trazado 120721" d="M133.108,216.812h-5.9a3.893,3.893,0,0,0-3.806,4.709l.327,1.524a5.555,5.555,0,0,0,5.432,4.391h1.995a5.555,5.555,0,0,0,5.432-4.391l.327-1.524A3.893,3.893,0,0,0,133.108,216.812Z" transform="translate(-123.315 -216.812)" fill="#475066"/>
      <path id="Trazado_120722" data-name="Trazado 120722" d="M301.064,216.812h5.9a3.893,3.893,0,0,1,3.806,4.709l-.327,1.524a5.555,5.555,0,0,1-5.432,4.391h-1.995a5.555,5.555,0,0,1-5.432-4.391l-.327-1.524A3.893,3.893,0,0,1,301.064,216.812Z" transform="translate(-267.436 -216.812)" fill="#475066"/>
    </g>
    <path id="Trazado_120723" data-name="Trazado 120723" d="M160.65,211.234a5.153,5.153,0,0,0-4.025-1.922h-5.9a5.149,5.149,0,0,0-3.359,1.239,64.971,64.971,0,0,0-17.116,0,5.149,5.149,0,0,0-3.359-1.239h-5.9a5.175,5.175,0,0,0-5.06,6.26l.327,1.524a6.873,6.873,0,0,0,6.686,5.4h1.995a6.873,6.873,0,0,0,6.686-5.4l.327-1.524a5.159,5.159,0,0,0-.12-2.629,62.094,62.094,0,0,1,13.953,0,5.16,5.16,0,0,0-.12,2.629l.327,1.524a6.873,6.873,0,0,0,6.686,5.4h1.995a6.874,6.874,0,0,0,6.686-5.4l.327-1.524A5.153,5.153,0,0,0,160.65,211.234Zm-31.207,3.8-.327,1.524a4.3,4.3,0,0,1-4.178,3.377h-1.995a4.3,4.3,0,0,1-4.178-3.377l-.327-1.524a2.61,2.61,0,0,1,2.552-3.157h5.9a2.6,2.6,0,0,1,1.848.768,1.279,1.279,0,0,0,.193.217A2.6,2.6,0,0,1,129.443,215.035Zm29.734,0-.327,1.524a4.3,4.3,0,0,1-4.178,3.377h-1.995a4.3,4.3,0,0,1-4.178-3.377l-.327-1.524a2.6,2.6,0,0,1,.511-2.172,1.282,1.282,0,0,0,.194-.217,2.6,2.6,0,0,1,1.848-.768h5.9a2.61,2.61,0,0,1,2.552,3.157Z" transform="translate(-59.483 -173.514)" fill="#303646"/>
    <g id="Grupo_84486" data-name="Grupo 84486" transform="translate(73.769 44.758)">
      <path id="Trazado_120724" data-name="Trazado 120724" d="M223,266.07a6.527,6.527,0,0,1-4.921-2.241,1.283,1.283,0,0,1,1.934-1.686,3.957,3.957,0,0,0,5.973,0,1.283,1.283,0,1,1,1.934,1.685A6.526,6.526,0,0,1,223,266.07Z" transform="translate(-217.768 -261.703)" fill="#303646"/>
    </g>
  </g>
</svg>
