<svg xmlns="http://www.w3.org/2000/svg" xmlns:xlink="http://www.w3.org/1999/xlink" width="1240" height="563.226" viewBox="0 0 1240 563.226">
  <defs>
    <clipPath id="clip-path">
      <path id="Trazado_245787" data-name="Trazado 245787" d="M238.726,2852.107H142.32s1.8,10.379,1.6,12.375-18.434,31.531-12.52,30.592c12.29-1.953,14.317-1.849,14.317-1.849s-4.391,23.952,0,26.546,34.331-1.4,34.331-1.4l-3.968,33.992h57.86l-4.76-39.462a59.833,59.833,0,0,1,2.392-25.337C235.161,2876.291,239.719,2859.921,238.726,2852.107Z" transform="translate(-130.216 -2852.107)" fill="#feeed9"/>
    </clipPath>
    <clipPath id="clip-path-2">
      <path id="Trazado_245790" data-name="Trazado 245790" d="M336.381,2787.048l-49.541-76.086s32.861-28.83,65.757,13.576C383.215,2764.008,336.381,2787.048,336.381,2787.048Z" transform="translate(-286.84 -2701.389)" fill="#feeed9"/>
    </clipPath>
    <clipPath id="clip-path-3">
      <path id="Trazado_245797" data-name="Trazado 245797" d="M441.912,2883.622s4.855,5.691,0,18.555-7.553,53.813-9.213,54.19-9.5.453-9.936,0-1.268-37.592-1.061-42.156,2.9-30.589,2.9-30.589Z" transform="translate(-421.67 -2883.622)" fill="#1b3d9e"/>
    </clipPath>
    <clipPath id="clip-path-4">
      <path id="Trazado_245805" data-name="Trazado 245805" d="M443.6,2767.264c-.856-2.817-9.66-6.464-11.12-2.827,0,0,.34,5.609-1.759,6.1s-4.78.112-3.831.969,3.044,1.1,3.151,1.793-1.372,4.171.279,4.835a7.707,7.707,0,0,0,2.812.177c-.4,2.085-1.22,6.456-1.244,7.2-.032.987,7.18,1.063,8.535.255s-2.02-8.454-2.02-8.454C439.255,2776.367,444.451,2770.08,443.6,2767.264Z" transform="translate(-426.688 -2762.911)" fill="#fe8e9c"/>
    </clipPath>
    <clipPath id="clip-path-5">
      <path id="Trazado_245815" data-name="Trazado 245815" d="M364.365,2832.476a19.39,19.39,0,0,1-2.486-1.26c-.129-.215-1.333-5.289-1.978-5.633s.344,3.354,0,3.654-3.642-2.986-3.642-2.986,0,4.356,1.191,5.781c.681.814,4.792,4.163,4.792,4.163Z" transform="translate(-356.259 -2825.56)" fill="#fe8e9c"/>
    </clipPath>
    <clipPath id="clip-path-6">
      <path id="Trazado_245827" data-name="Trazado 245827" d="M208.963,2749.511a4.151,4.151,0,0,1,2.543.36,3.431,3.431,0,0,1,1.695,1.9c.459,1.333-.01,2.876.559,4.166.349.792,1.046,1.379,1.463,2.137a3.442,3.442,0,0,1,.417,1.881c-.106,1.582-1.272,2.877-2.469,3.917a8.081,8.081,0,0,0-1.67-2.079c-1.958-1.969-3.877-4.134-4.662-6.8a5.978,5.978,0,0,1-.208-2.761,3.549,3.549,0,0,1,.485-1.279c.1-.151.136-.323.226-.479a1.566,1.566,0,0,1,.372-.432A2.668,2.668,0,0,1,208.963,2749.511Z" transform="translate(-206.549 -2749.451)" fill="#1b3d9e"/>
    </clipPath>
    <clipPath id="clip-path-7">
      <path id="Trazado_245831" data-name="Trazado 245831" d="M193.759,2759.894c1-1.183,4.673-2.48,7.634-1.927a4.237,4.237,0,0,1,3.334,3.283c.816,3.756,2.438,12.619-.234,13.431a5.86,5.86,0,0,1-3.933-.508c-.272,2.286-1.355,7.491-1.551,8.188-.275.978-6.753-2.367-7.872-3.542-.727-.765,4.205-8.874,4.205-8.874C194.7,2768.4,192.361,2761.54,193.759,2759.894Z" transform="translate(-191.063 -2757.835)" fill="#fe8e9c"/>
    </clipPath>
    <clipPath id="clip-path-8">
      <path id="Trazado_245841" data-name="Trazado 245841" d="M267.075,2726.614s-17.2-8.562-24.625,7.8c-7.828,17.241,3.308,24.723,2.571,36.535l10.348,2.724s2.588-5.684,9.826-11.653C274.018,2754.74,281.253,2735.334,267.075,2726.614Z" transform="translate(-239.648 -2724.374)" fill="#f9c438"/>
    </clipPath>
    <clipPath id="clip-path-9">
      <path id="Trazado_245844" data-name="Trazado 245844" d="M258.158,2821.992h0a2.441,2.441,0,0,0-1.739-2.983l-10.439-2.748A2.441,2.441,0,0,0,243,2818h0a2.44,2.44,0,0,1-.985,3.74,2.442,2.442,0,0,0,1.74,2.983l10.439,2.748a26.244,26.244,0,0,1,3.967-5.481Z" transform="translate(-241.931 -2816.18)" fill="#d4dfff"/>
    </clipPath>
  </defs>
  <g id="Grupo_948059" data-name="Grupo 948059" transform="translate(-180 -858)">
    <g id="Grupo_84253" data-name="Grupo 84253" transform="translate(136 -1159.524)">
      <path id="Trazado_120634" data-name="Trazado 120634" d="M758.645,2074.717H571.861L439.784,2206.793v186.784l132.077,132.077H758.645l132.077-132.077V2206.793Z" fill="none" stroke="#a7aaad" stroke-miterlimit="10" stroke-width="2.621"/>
      <circle id="Elipse_4826" data-name="Elipse 4826" cx="219.004" cy="219.004" r="219.004" transform="translate(446.249 2081.182)" fill="#e5e7e8"/>
      <circle id="Elipse_4827" data-name="Elipse 4827" cx="212.549" cy="212.549" r="212.549" transform="translate(452.704 2087.636)" fill="#939599"/>
      <circle id="Elipse_4828" data-name="Elipse 4828" cx="206.35" cy="206.35" r="206.35" transform="translate(458.903 2093.836)" fill="#a7aaad"/>
      <circle id="Elipse_4829" data-name="Elipse 4829" cx="193.845" cy="193.845" r="193.845" transform="translate(471.408 2106.341)" fill="#808285"/>
      <circle id="Elipse_4830" data-name="Elipse 4830" cx="185.14" cy="185.14" r="185.14" transform="translate(480.113 2115.045)" fill="#e5e7e8"/>
      <circle id="Elipse_4831" data-name="Elipse 4831" cx="175.01" cy="175.01" r="175.01" transform="translate(490.242 2125.175)" fill="#fff"/>
      <circle id="Elipse_4832" data-name="Elipse 4832" cx="168.277" cy="168.277" r="168.277" transform="translate(496.976 2131.909)" fill="none" stroke="#e5e7e8" stroke-miterlimit="10" stroke-width="1.068"/>
      <g id="Grupo_84235" data-name="Grupo 84235">
        <g id="Grupo_84234" data-name="Grupo 84234">
          <circle id="Elipse_4833" data-name="Elipse 4833" cx="33.429" cy="33.429" r="33.429" transform="translate(725.172 2047.753)" fill="#e5e7e8" style="mix-blend-mode: multiply;isolation: isolate"/>
          <circle id="Elipse_4834" data-name="Elipse 4834" cx="33.429" cy="33.429" r="33.429" transform="matrix(0.161, -0.987, 0.987, 0.161, 720.223, 2102.322)" fill="#a7aaad"/>
          <circle id="Elipse_4835" data-name="Elipse 4835" cx="25.737" cy="25.737" r="25.737" transform="translate(725.025 2060.664) rotate(-22.289)" fill="#e5e7e8"/>
          <circle id="Elipse_4836" data-name="Elipse 4836" cx="19.119" cy="19.119" r="19.119" transform="matrix(0.925, -0.38, 0.38, 0.925, 733.649, 2064.301)" fill="#fff"/>
        </g>
      </g>
      <g id="Grupo_84237" data-name="Grupo 84237">
        <g id="Grupo_84236" data-name="Grupo 84236">
          <circle id="Elipse_4837" data-name="Elipse 4837" cx="33.429" cy="33.429" r="33.429" transform="translate(537.845 2047.753)" fill="#e5e7e8" style="mix-blend-mode: multiply;isolation: isolate"/>
          <circle id="Elipse_4838" data-name="Elipse 4838" cx="33.429" cy="33.429" r="33.429" transform="translate(532.971 2102.426) rotate(-80.883)" fill="#a7aaad"/>
          <circle id="Elipse_4839" data-name="Elipse 4839" cx="25.737" cy="25.737" r="25.737" transform="translate(537.698 2060.664) rotate(-22.289)" fill="#e5e7e8"/>
          <circle id="Elipse_4840" data-name="Elipse 4840" cx="19.119" cy="19.119" r="19.119" transform="matrix(0.925, -0.38, 0.38, 0.925, 546.322, 2064.301)" fill="#fff"/>
        </g>
      </g>
      <g id="Grupo_84239" data-name="Grupo 84239">
        <g id="Grupo_84238" data-name="Grupo 84238">
          <circle id="Elipse_4841" data-name="Elipse 4841" cx="33.429" cy="33.429" r="33.429" transform="translate(845.669 2292.324) rotate(-27.359)" fill="#e5e7e8" style="mix-blend-mode: multiply;isolation: isolate"/>
          <circle id="Elipse_4842" data-name="Elipse 4842" cx="33.429" cy="33.429" r="33.429" transform="translate(857.293 2266.757)" fill="#a7aaad"/>
          <circle id="Elipse_4843" data-name="Elipse 4843" cx="25.737" cy="25.737" r="25.737" transform="translate(864.984 2274.448)" fill="#e5e7e8"/>
          <circle id="Elipse_4844" data-name="Elipse 4844" cx="19.119" cy="19.119" r="19.119" transform="translate(871.603 2281.067)" fill="#fff"/>
        </g>
      </g>
      <g id="Grupo_84241" data-name="Grupo 84241">
        <g id="Grupo_84240" data-name="Grupo 84240">
          <circle id="Elipse_4845" data-name="Elipse 4845" cx="33.429" cy="33.429" r="33.429" transform="translate(725.47 2498.691)" fill="#e5e7e8" style="mix-blend-mode: multiply;isolation: isolate"/>
          <circle id="Elipse_4846" data-name="Elipse 4846" cx="33.429" cy="33.429" r="33.429" transform="translate(725.47 2492.226)" fill="#a7aaad"/>
          <circle id="Elipse_4847" data-name="Elipse 4847" cx="25.737" cy="25.737" r="25.737" transform="translate(725.323 2511.602) rotate(-22.289)" fill="#e5e7e8"/>
          <circle id="Elipse_4848" data-name="Elipse 4848" cx="19.119" cy="19.119" r="19.119" transform="translate(733.947 2515.239) rotate(-22.343)" fill="#fff"/>
        </g>
      </g>
      <g id="Grupo_84243" data-name="Grupo 84243">
        <g id="Grupo_84242" data-name="Grupo 84242">
          <circle id="Elipse_4849" data-name="Elipse 4849" cx="33.429" cy="33.429" r="33.429" transform="translate(538.283 2498.691)" fill="#e5e7e8" style="mix-blend-mode: multiply;isolation: isolate"/>
          <circle id="Elipse_4850" data-name="Elipse 4850" cx="33.429" cy="33.429" r="33.429" transform="translate(538.283 2492.226)" fill="#a7aaad"/>
          <circle id="Elipse_4851" data-name="Elipse 4851" cx="25.737" cy="25.737" r="25.737" transform="matrix(0.231, -0.973, 0.973, 0.231, 540.721, 2544.744)" fill="#e5e7e8"/>
          <circle id="Elipse_4852" data-name="Elipse 4852" cx="19.119" cy="19.119" r="19.119" transform="translate(548.696 2539.844) rotate(-76.654)" fill="#fff"/>
        </g>
      </g>
      <g id="Grupo_84245" data-name="Grupo 84245">
        <g id="Grupo_84244" data-name="Grupo 84244">
          <circle id="Elipse_4853" data-name="Elipse 4853" cx="33.429" cy="33.429" r="33.429" transform="translate(396.02 2288.799) rotate(-22.778)" fill="#e5e7e8" style="mix-blend-mode: multiply;isolation: isolate"/>
          <circle id="Elipse_4854" data-name="Elipse 4854" cx="33.429" cy="33.429" r="33.429" transform="translate(406.355 2266.784)" fill="#a7aaad"/>
          <circle id="Elipse_4855" data-name="Elipse 4855" cx="25.737" cy="25.737" r="25.737" transform="translate(406.208 2286.161) rotate(-22.289)" fill="#e5e7e8"/>
          <circle id="Elipse_4856" data-name="Elipse 4856" cx="19.119" cy="19.119" r="19.119" transform="translate(420.665 2281.094)" fill="#fff"/>
        </g>
      </g>
      <path id="Trazado_120635" data-name="Trazado 120635" d="M785.343,2580.75h328.521a31.06,31.06,0,0,0,31.06-31.06v-46.9a31.06,31.06,0,0,0-31.06-31.06H785.343l-31.472,54.512Z" fill="#e5e7e8" style="mix-blend-mode: multiply;isolation: isolate"/>
      <path id="Trazado_120636" data-name="Trazado 120636" d="M790.073,2575.389h328.522a31.06,31.06,0,0,0,31.059-31.06v-46.9a31.06,31.06,0,0,0-31.059-31.06H790.073L758.6,2520.877Z" fill="#f88f05"/>
      <path id="Trazado_120637" data-name="Trazado 120637" d="M807.1,2466.366h-17.03L758.6,2520.877l31.472,54.511H807.1l-31.472-54.511Z" fill="#e5e7e8" style="mix-blend-mode: multiply;isolation: isolate"/>
      <g id="Grupo_84246" data-name="Grupo 84246">
        <circle id="Elipse_4857" data-name="Elipse 4857" cx="41.938" cy="41.938" r="41.938" transform="translate(1053.482 2478.94)" fill="#e5e7e8" style="mix-blend-mode: multiply;isolation: isolate"/>
        <path id="Trazado_120638" data-name="Trazado 120638" d="M1095.419,2486.438a34.439,34.439,0,1,0,34.439,34.439A34.478,34.478,0,0,0,1095.419,2486.438Z" fill="#fff"/>
      </g>
      <path id="Trazado_120639" data-name="Trazado 120639" d="M785.343,2131.909h328.521a31.06,31.06,0,0,0,31.06-31.06v-46.9a31.06,31.06,0,0,0-31.06-31.06H785.343L753.871,2077.4Z" fill="#e5e7e8" style="mix-blend-mode: multiply;isolation: isolate"/>
      <path id="Trazado_120640" data-name="Trazado 120640" d="M790.073,2126.548h305.07a54.511,54.511,0,0,0,54.511-54.512h0a54.511,54.511,0,0,0-54.511-54.512H790.073L758.6,2072.036Z" fill="#f88f05"/>
      <path id="Trazado_120641" data-name="Trazado 120641" d="M807.1,2017.524h-17.03L758.6,2072.036l31.472,54.511H807.1l-31.472-54.511Z" fill="#e5e7e8" style="mix-blend-mode: multiply;isolation: isolate"/>
      <g id="Grupo_84247" data-name="Grupo 84247">
        <circle id="Elipse_4858" data-name="Elipse 4858" cx="41.938" cy="41.938" r="41.938" transform="translate(1053.482 2030.099)" fill="#e5e7e8" style="mix-blend-mode: multiply;isolation: isolate"/>
        <path id="Trazado_120642" data-name="Trazado 120642" d="M1095.419,2037.6a34.439,34.439,0,1,0,34.439,34.438A34.478,34.478,0,0,0,1095.419,2037.6Z" fill="#fff"/>
      </g>
      <path id="Trazado_120643" data-name="Trazado 120643" d="M919.689,2357.378H1248.21a31.06,31.06,0,0,0,31.06-31.06v-46.9a31.06,31.06,0,0,0-31.06-31.059H919.689l-31.473,54.511Z" fill="#e5e7e8" style="mix-blend-mode: multiply;isolation: isolate"/>
      <path id="Trazado_120644" data-name="Trazado 120644" d="M924.419,2352.017H1252.94a31.06,31.06,0,0,0,31.06-31.06v-46.9a31.059,31.059,0,0,0-31.06-31.059H924.419L892.947,2297.5Z" fill="#f88f05"/>
      <path id="Trazado_120645" data-name="Trazado 120645" d="M941.449,2242.993h-17.03L892.947,2297.5l31.472,54.512h17.03L909.976,2297.5Z" fill="#e5e7e8" style="mix-blend-mode: multiply;isolation: isolate"/>
      <g id="Grupo_84248" data-name="Grupo 84248">
        <circle id="Elipse_4859" data-name="Elipse 4859" cx="41.938" cy="41.938" r="41.938" transform="translate(1181.61 2262.885) rotate(-9.287)" fill="#e5e7e8" style="mix-blend-mode: multiply;isolation: isolate"/>
        <path id="Trazado_120646" data-name="Trazado 120646" d="M1229.765,2263.066A34.439,34.439,0,1,0,1264.2,2297.5,34.479,34.479,0,0,0,1229.765,2263.066Z" fill="#fff"/>
      </g>
      <g id="Grupo_84250" data-name="Grupo 84250">
        <path id="Trazado_120647" data-name="Trazado 120647" d="M539.8,2580.563H211.28a31.06,31.06,0,0,1-31.06-31.06v-46.9a31.06,31.06,0,0,1,31.06-31.059H539.8l31.472,54.511Z" fill="#e5e7e8" style="mix-blend-mode: multiply;isolation: isolate"/>
        <path id="Trazado_120648" data-name="Trazado 120648" d="M535.071,2575.2H230a54.512,54.512,0,0,1-54.512-54.512h0A54.511,54.511,0,0,1,230,2466.179H535.071l31.472,54.511Z" fill="#f88f05"/>
        <path id="Trazado_120649" data-name="Trazado 120649" d="M518.041,2466.178h17.03l31.472,54.511L535.071,2575.2h-17.03l31.472-54.511Z" fill="#e5e7e8" style="mix-blend-mode: multiply;isolation: isolate"/>
        <g id="Grupo_84249" data-name="Grupo 84249">
          <circle id="Elipse_4860" data-name="Elipse 4860" cx="41.938" cy="41.938" r="41.938" transform="translate(187.787 2478.752)" fill="#e5e7e8" style="mix-blend-mode: multiply;isolation: isolate"/>
          <path id="Trazado_120650" data-name="Trazado 120650" d="M229.725,2486.251a34.439,34.439,0,1,1-34.439,34.438A34.479,34.479,0,0,1,229.725,2486.251Z" fill="#fff"/>
        </g>
      </g>
      <path id="Trazado_120651" data-name="Trazado 120651" d="M408.312,2354.7H79.79a31.06,31.06,0,0,1-31.059-31.059v-46.9a31.06,31.06,0,0,1,31.059-31.06H408.312l31.472,54.512Z" fill="#e5e7e8" style="mix-blend-mode: multiply;isolation: isolate"/>
      <path id="Trazado_120652" data-name="Trazado 120652" d="M403.581,2349.336H75.06A31.06,31.06,0,0,1,44,2318.276v-46.9a31.06,31.06,0,0,1,31.06-31.06H403.581l31.472,54.512Z" fill="#f88f05"/>
      <path id="Trazado_120653" data-name="Trazado 120653" d="M386.551,2240.313h17.03l31.472,54.512-31.472,54.511h-17.03l31.472-54.511Z" fill="#e5e7e8" style="mix-blend-mode: multiply;isolation: isolate"/>
      <g id="Grupo_84251" data-name="Grupo 84251">
        <circle id="Elipse_4861" data-name="Elipse 4861" cx="41.938" cy="41.938" r="41.938" transform="translate(56.297 2252.887)" fill="#e5e7e8" style="mix-blend-mode: multiply;isolation: isolate"/>
        <path id="Trazado_120654" data-name="Trazado 120654" d="M98.235,2260.386A34.439,34.439,0,1,1,63.8,2294.824,34.478,34.478,0,0,1,98.235,2260.386Z" fill="#fff"/>
      </g>
      <path id="Trazado_120655" data-name="Trazado 120655" d="M539.8,2131.909H211.28a31.06,31.06,0,0,1-31.06-31.06v-46.9a31.06,31.06,0,0,1,31.06-31.06H539.8l31.472,54.511Z" fill="#e5e7e8" style="mix-blend-mode: multiply;isolation: isolate"/>
      <path id="Trazado_120656" data-name="Trazado 120656" d="M535.071,2126.548H230a54.512,54.512,0,0,1-54.512-54.512h0A54.512,54.512,0,0,1,230,2017.524H535.071l31.472,54.512Z" fill="#f88f05"/>
      <path id="Trazado_120657" data-name="Trazado 120657" d="M518.041,2017.524h17.03l31.472,54.512-31.472,54.511h-17.03l31.472-54.511Z" fill="#e5e7e8" style="mix-blend-mode: multiply;isolation: isolate"/>
      <g id="Grupo_84252" data-name="Grupo 84252">
        <circle id="Elipse_4862" data-name="Elipse 4862" cx="41.938" cy="41.938" r="41.938" transform="translate(187.787 2030.099)" fill="#e5e7e8" style="mix-blend-mode: multiply;isolation: isolate"/>
        <path id="Trazado_120658" data-name="Trazado 120658" d="M229.725,2037.6a34.439,34.439,0,1,1-34.439,34.438A34.479,34.479,0,0,1,229.725,2037.6Z" fill="#fff"/>
      </g>
    </g>
    <path id="Trazado_245902" data-name="Trazado 245902" d="M36.477,6.2l2.856,8.9,2.848-8.9h4.061V19H43.147V16.012l.3-6.117L40.353,19H38.313l-3.1-9.114.3,6.126V19H32.425V6.2Zm11.215,7.954a5.613,5.613,0,0,1,.554-2.536,3.96,3.96,0,0,1,1.591-1.709,4.791,4.791,0,0,1,2.435-.6,4.373,4.373,0,0,1,3.366,1.323,5.076,5.076,0,0,1,1.23,3.6v.105a4.925,4.925,0,0,1-1.235,3.529,4.384,4.384,0,0,1-3.344,1.305,4.434,4.434,0,0,1-3.261-1.217,4.761,4.761,0,0,1-1.327-3.3Zm2.962.185a3.538,3.538,0,0,0,.413,1.934,1.376,1.376,0,0,0,1.222.615q1.582,0,1.617-2.435v-.3q0-2.558-1.635-2.558-1.485,0-1.608,2.206Zm7.146-.167a5.809,5.809,0,0,1,.976-3.56,3.211,3.211,0,0,1,2.725-1.3,2.731,2.731,0,0,1,2.145,1V5.5h2.971V19H63.951L63.8,17.98a2.8,2.8,0,0,1-2.32,1.2,3.205,3.205,0,0,1-2.689-1.3A5.993,5.993,0,0,1,57.8,14.175Zm2.962.185q0,2.531,1.477,2.531a1.458,1.458,0,0,0,1.406-.826V12.443a1.419,1.419,0,0,0-1.389-.844q-1.371,0-1.485,2.215ZM72.9,19.176a4.889,4.889,0,0,1-3.542-1.305A4.507,4.507,0,0,1,68,14.474v-.246a5.84,5.84,0,0,1,.541-2.575,3.955,3.955,0,0,1,1.578-1.727,4.763,4.763,0,0,1,2.461-.611,4.117,4.117,0,0,1,3.164,1.244,4.887,4.887,0,0,1,1.16,3.467v1.151H71.018a2.135,2.135,0,0,0,.694,1.257,2.066,2.066,0,0,0,1.389.457,2.662,2.662,0,0,0,2.2-.984l1.354,1.6a3.784,3.784,0,0,1-1.569,1.217A5.3,5.3,0,0,1,72.9,19.176ZM72.564,11.6q-1.3,0-1.547,1.723h2.988v-.229a1.467,1.467,0,0,0-.36-1.1A1.434,1.434,0,0,0,72.564,11.6ZM81.222,19H78.251V5.5h2.971Zm1.45-4.843a5.613,5.613,0,0,1,.554-2.536,3.96,3.96,0,0,1,1.591-1.709,4.791,4.791,0,0,1,2.435-.6,4.373,4.373,0,0,1,3.366,1.323,5.076,5.076,0,0,1,1.23,3.6v.105a4.925,4.925,0,0,1-1.235,3.529,4.384,4.384,0,0,1-3.344,1.305,4.434,4.434,0,0,1-3.261-1.217,4.761,4.761,0,0,1-1.327-3.3Zm2.962.185a3.538,3.538,0,0,0,.413,1.934,1.376,1.376,0,0,0,1.222.615q1.582,0,1.617-2.435v-.3q0-2.558-1.635-2.558-1.485,0-1.608,2.206Zm12.5,1.986a.684.684,0,0,0-.4-.606,6.016,6.016,0,0,0-1.5-.475,6.853,6.853,0,0,1-1.828-.646,3.062,3.062,0,0,1-1.1-.971,2.319,2.319,0,0,1-.378-1.31,2.628,2.628,0,0,1,1.081-2.158,4.453,4.453,0,0,1,2.83-.848,4.934,4.934,0,0,1,3.023.853,2.666,2.666,0,0,1,1.143,2.241H98.035q0-1.143-1.2-1.143a1.194,1.194,0,0,0-.782.259.8.8,0,0,0-.316.646.737.737,0,0,0,.387.642,3.654,3.654,0,0,0,1.235.4,10.671,10.671,0,0,1,1.49.378,2.706,2.706,0,0,1,2.145,2.646,2.491,2.491,0,0,1-1.156,2.118,5.068,5.068,0,0,1-2.993.817,5.172,5.172,0,0,1-2.18-.439,3.645,3.645,0,0,1-1.494-1.2,2.707,2.707,0,0,1-.536-1.591H95.4a1.145,1.145,0,0,0,.439.962,1.808,1.808,0,0,0,1.081.3,1.422,1.422,0,0,0,.91-.246A.787.787,0,0,0,98.132,16.328Zm-74,22.987a5.735,5.735,0,0,1-1,3.538,3.2,3.2,0,0,1-2.694,1.323,2.742,2.742,0,0,1-2.153-.958v4.438H15.326V34.49h2.769l.088.879a2.742,2.742,0,0,1,2.241-1.055,3.224,3.224,0,0,1,2.733,1.3,5.805,5.805,0,0,1,.976,3.564Zm-2.962-.185q0-2.531-1.477-2.531a1.394,1.394,0,0,0-1.406.756V41.1a1.439,1.439,0,0,0,1.424.791q1.415,0,1.459-2.443Zm8.868,5.045A4.889,4.889,0,0,1,26.5,42.871a4.507,4.507,0,0,1-1.354-3.4v-.246a5.84,5.84,0,0,1,.541-2.575,3.955,3.955,0,0,1,1.578-1.727,4.763,4.763,0,0,1,2.461-.611,4.117,4.117,0,0,1,3.164,1.244,4.887,4.887,0,0,1,1.16,3.467v1.151H28.158a2.135,2.135,0,0,0,.694,1.257,2.066,2.066,0,0,0,1.389.457,2.662,2.662,0,0,0,2.2-.984l1.354,1.6a3.784,3.784,0,0,1-1.569,1.217A5.3,5.3,0,0,1,30.039,44.176ZM29.7,36.6q-1.3,0-1.547,1.723h2.988v-.229a1.467,1.467,0,0,0-.36-1.1A1.434,1.434,0,0,0,29.7,36.6Zm5.159,2.575a5.809,5.809,0,0,1,.976-3.56,3.211,3.211,0,0,1,2.725-1.3,2.731,2.731,0,0,1,2.145,1V30.5h2.971V44H41.016l-.149-1.02a2.8,2.8,0,0,1-2.32,1.2,3.205,3.205,0,0,1-2.689-1.3A5.993,5.993,0,0,1,34.864,39.175Zm2.962.185q0,2.531,1.477,2.531a1.458,1.458,0,0,0,1.406-.826V37.443A1.419,1.419,0,0,0,39.32,36.6q-1.371,0-1.485,2.215ZM50.719,44a3.344,3.344,0,0,1-.281-.853,2.754,2.754,0,0,1-2.285,1.028,3.374,3.374,0,0,1-2.285-.813,2.588,2.588,0,0,1-.94-2.043,2.66,2.66,0,0,1,1.143-2.338,5.821,5.821,0,0,1,3.322-.791h.914v-.5q0-1.316-1.134-1.316a.927.927,0,0,0-1.055,1.042H45.156a2.655,2.655,0,0,1,1.173-2.239,4.931,4.931,0,0,1,2.993-.86A4.323,4.323,0,0,1,52.2,35.2a3.086,3.086,0,0,1,1.081,2.435v4.21a4.311,4.311,0,0,0,.4,2V44Zm-1.854-1.934a1.652,1.652,0,0,0,.918-.237,1.487,1.487,0,0,0,.523-.536V39.772h-.861q-1.547,0-1.547,1.389a.848.848,0,0,0,.272.655A.986.986,0,0,0,48.865,42.066Zm5.7-2.892a6.421,6.421,0,0,1,.475-2.549,3.821,3.821,0,0,1,1.362-1.709,3.591,3.591,0,0,1,2.065-.6,2.855,2.855,0,0,1,2.32,1l.105-.826h2.689V43.64A4.009,4.009,0,0,1,63,45.824a3.75,3.75,0,0,1-1.692,1.424,6.219,6.219,0,0,1-2.566.5,5.365,5.365,0,0,1-2.026-.4,3.657,3.657,0,0,1-1.5-1.028l1.239-1.74a2.716,2.716,0,0,0,2.18.976,1.764,1.764,0,0,0,1.969-2.021v-.3a2.781,2.781,0,0,1-2.153.94,3.437,3.437,0,0,1-2.812-1.332,5.517,5.517,0,0,1-1.072-3.564Zm2.971.185a3.383,3.383,0,0,0,.439,1.85,1.387,1.387,0,0,0,1.23.681,1.573,1.573,0,0,0,1.4-.642v-4a1.534,1.534,0,0,0-1.38-.65,1.4,1.4,0,0,0-1.239.708A3.858,3.858,0,0,0,57.54,39.359Zm7.356-.2a5.613,5.613,0,0,1,.554-2.536,3.96,3.96,0,0,1,1.591-1.709,4.791,4.791,0,0,1,2.435-.6,4.373,4.373,0,0,1,3.366,1.323,5.076,5.076,0,0,1,1.23,3.6v.105a4.925,4.925,0,0,1-1.235,3.529,4.384,4.384,0,0,1-3.344,1.305,4.434,4.434,0,0,1-3.261-1.217,4.761,4.761,0,0,1-1.327-3.3Zm2.962.185a3.538,3.538,0,0,0,.413,1.934,1.376,1.376,0,0,0,1.222.615q1.582,0,1.617-2.435v-.3q0-2.558-1.635-2.558-1.485,0-1.608,2.206ZM69.879,30.5h3.129l-2.443,2.76-2.417,0Zm5.15,8.675a6.421,6.421,0,0,1,.475-2.549,3.821,3.821,0,0,1,1.362-1.709,3.591,3.591,0,0,1,2.065-.6,2.855,2.855,0,0,1,2.32,1l.105-.826h2.689V43.64a4.009,4.009,0,0,1-.584,2.184,3.75,3.75,0,0,1-1.692,1.424,6.219,6.219,0,0,1-2.566.5,5.365,5.365,0,0,1-2.026-.4,3.657,3.657,0,0,1-1.5-1.028l1.239-1.74a2.716,2.716,0,0,0,2.18.976,1.764,1.764,0,0,0,1.969-2.021v-.3a2.781,2.781,0,0,1-2.153.94A3.437,3.437,0,0,1,76.1,42.844,5.517,5.517,0,0,1,75.03,39.28ZM78,39.359a3.383,3.383,0,0,0,.439,1.85,1.387,1.387,0,0,0,1.23.681,1.573,1.573,0,0,0,1.4-.642v-4a1.534,1.534,0,0,0-1.38-.65,1.4,1.4,0,0,0-1.239.708A3.858,3.858,0,0,0,78,39.359ZM88.855,44H85.884V34.49h2.971ZM85.708,32.038A1.322,1.322,0,0,1,86.166,31a1.943,1.943,0,0,1,2.373,0,1.405,1.405,0,0,1,0,2.074,1.943,1.943,0,0,1-2.373,0A1.322,1.322,0,0,1,85.708,32.038ZM94.7,41.891a1.317,1.317,0,0,0,.967-.338A1.241,1.241,0,0,0,96,40.607h2.777a3.288,3.288,0,0,1-1.121,2.566,4.168,4.168,0,0,1-2.887,1,4.22,4.22,0,0,1-3.27-1.3,5.125,5.125,0,0,1-1.2-3.6v-.123a5.792,5.792,0,0,1,.532-2.544,3.872,3.872,0,0,1,1.534-1.7,4.573,4.573,0,0,1,2.373-.593,4.116,4.116,0,0,1,2.944,1.028,3.647,3.647,0,0,1,1.09,2.786H96A1.626,1.626,0,0,0,95.64,37a1.244,1.244,0,0,0-.967-.4q-1.151,0-1.345,1.468a10.357,10.357,0,0,0-.062,1.283,4.068,4.068,0,0,0,.343,1.986A1.187,1.187,0,0,0,94.7,41.891Zm4.957-2.733a5.613,5.613,0,0,1,.554-2.536,3.96,3.96,0,0,1,1.591-1.709,4.791,4.791,0,0,1,2.435-.6,4.373,4.373,0,0,1,3.366,1.323,5.076,5.076,0,0,1,1.23,3.6v.105a4.925,4.925,0,0,1-1.235,3.529,4.384,4.384,0,0,1-3.344,1.305,4.434,4.434,0,0,1-3.261-1.217,4.761,4.761,0,0,1-1.327-3.3Zm2.962.185a3.538,3.538,0,0,0,.413,1.934,1.376,1.376,0,0,0,1.222.615q1.582,0,1.617-2.435v-.3q0-2.558-1.635-2.558-1.485,0-1.608,2.206Zm12.5,1.986a.684.684,0,0,0-.4-.606,6.016,6.016,0,0,0-1.5-.475,6.853,6.853,0,0,1-1.828-.646,3.062,3.062,0,0,1-1.1-.971,2.319,2.319,0,0,1-.378-1.31,2.628,2.628,0,0,1,1.081-2.158,4.453,4.453,0,0,1,2.83-.848,4.934,4.934,0,0,1,3.023.853,2.666,2.666,0,0,1,1.143,2.241H115.02q0-1.143-1.2-1.143a1.194,1.194,0,0,0-.782.259.8.8,0,0,0-.316.646.737.737,0,0,0,.387.642,3.654,3.654,0,0,0,1.235.4,10.671,10.671,0,0,1,1.49.378,2.706,2.706,0,0,1,2.145,2.646,2.491,2.491,0,0,1-1.156,2.118,5.068,5.068,0,0,1-2.993.817,5.172,5.172,0,0,1-2.18-.439,3.645,3.645,0,0,1-1.494-1.2,2.707,2.707,0,0,1-.536-1.591h2.769a1.145,1.145,0,0,0,.439.962,1.808,1.808,0,0,0,1.081.3,1.422,1.422,0,0,0,.91-.246A.787.787,0,0,0,115.117,41.328Z" transform="translate(733.849 1233.596)" fill="#12263f"/>
    <path id="Trazado_245903" data-name="Trazado 245903" d="M41.086,6.2l2.856,8.9,2.848-8.9h4.061V19H47.757V16.012l.3-6.117L44.962,19H42.923l-3.1-9.114.3,6.126V19H37.035V6.2ZM52.3,14.157a5.613,5.613,0,0,1,.554-2.536,3.96,3.96,0,0,1,1.591-1.709,4.791,4.791,0,0,1,2.435-.6,4.373,4.373,0,0,1,3.366,1.323,5.076,5.076,0,0,1,1.23,3.6v.105a4.925,4.925,0,0,1-1.235,3.529A4.384,4.384,0,0,1,56.9,19.176a4.434,4.434,0,0,1-3.261-1.217,4.761,4.761,0,0,1-1.327-3.3Zm2.962.185a3.538,3.538,0,0,0,.413,1.934,1.376,1.376,0,0,0,1.222.615q1.582,0,1.617-2.435v-.3q0-2.558-1.635-2.558-1.485,0-1.608,2.206Zm7.146-.167a5.809,5.809,0,0,1,.976-3.56,3.211,3.211,0,0,1,2.725-1.3,2.731,2.731,0,0,1,2.145,1V5.5h2.971V19H68.561l-.149-1.02a2.8,2.8,0,0,1-2.32,1.2,3.205,3.205,0,0,1-2.689-1.3A5.993,5.993,0,0,1,62.409,14.175Zm2.962.185q0,2.531,1.477,2.531a1.458,1.458,0,0,0,1.406-.826V12.443a1.419,1.419,0,0,0-1.389-.844q-1.371,0-1.485,2.215Zm12.138,4.816a4.889,4.889,0,0,1-3.542-1.305,4.507,4.507,0,0,1-1.354-3.4v-.246a5.84,5.84,0,0,1,.541-2.575,3.955,3.955,0,0,1,1.578-1.727,4.763,4.763,0,0,1,2.461-.611,4.117,4.117,0,0,1,3.164,1.244,4.887,4.887,0,0,1,1.16,3.467v1.151H75.627a2.135,2.135,0,0,0,.694,1.257,2.066,2.066,0,0,0,1.389.457,2.662,2.662,0,0,0,2.2-.984l1.354,1.6a3.784,3.784,0,0,1-1.569,1.217A5.3,5.3,0,0,1,77.508,19.176ZM77.174,11.6q-1.3,0-1.547,1.723h2.988v-.229a1.467,1.467,0,0,0-.36-1.1A1.434,1.434,0,0,0,77.174,11.6ZM85.832,19H82.861V5.5h2.971Zm1.45-4.843a5.613,5.613,0,0,1,.554-2.536,3.96,3.96,0,0,1,1.591-1.709,4.791,4.791,0,0,1,2.435-.6,4.373,4.373,0,0,1,3.366,1.323,5.076,5.076,0,0,1,1.23,3.6v.105a4.925,4.925,0,0,1-1.235,3.529,4.384,4.384,0,0,1-3.344,1.305,4.434,4.434,0,0,1-3.261-1.217,4.761,4.761,0,0,1-1.327-3.3Zm2.962.185a3.538,3.538,0,0,0,.413,1.934,1.376,1.376,0,0,0,1.222.615q1.582,0,1.617-2.435v-.3q0-2.558-1.635-2.558-1.485,0-1.608,2.206ZM27.569,32.126V34.49h1.564v2.057H27.569V40.9a1.111,1.111,0,0,0,.193.747,1.037,1.037,0,0,0,.765.211,4.345,4.345,0,0,0,.738-.053v2.118a5.466,5.466,0,0,1-1.67.255,3.1,3.1,0,0,1-2.259-.721,2.954,2.954,0,0,1-.729-2.188v-4.72H23.394V34.49h1.213V32.126Zm8.481,5.045-.976-.07a1.752,1.752,0,0,0-1.793.879V44H30.32V34.49H33.1l.1,1.222a2.294,2.294,0,0,1,2.083-1.4,2.888,2.888,0,0,1,.826.105ZM42.211,44a3.344,3.344,0,0,1-.281-.853,2.754,2.754,0,0,1-2.285,1.028,3.374,3.374,0,0,1-2.285-.813,2.588,2.588,0,0,1-.94-2.043,2.66,2.66,0,0,1,1.143-2.338,5.821,5.821,0,0,1,3.322-.791H41.8v-.5q0-1.316-1.134-1.316a.927.927,0,0,0-1.055,1.042H36.648a2.655,2.655,0,0,1,1.173-2.239,4.931,4.931,0,0,1,2.993-.86,4.323,4.323,0,0,1,2.874.888,3.086,3.086,0,0,1,1.081,2.435v4.21a4.311,4.311,0,0,0,.4,2V44Zm-1.854-1.934a1.652,1.652,0,0,0,.918-.237,1.487,1.487,0,0,0,.523-.536V39.772h-.861q-1.547,0-1.547,1.389a.848.848,0,0,0,.272.655A.986.986,0,0,0,40.357,42.066Zm5.678-2.892a5.809,5.809,0,0,1,.976-3.56,3.211,3.211,0,0,1,2.725-1.3,2.731,2.731,0,0,1,2.145,1V30.5H54.85V44H52.187l-.149-1.02a2.8,2.8,0,0,1-2.32,1.2,3.205,3.205,0,0,1-2.689-1.3A5.993,5.993,0,0,1,46.035,39.175ZM49,39.359q0,2.531,1.477,2.531a1.458,1.458,0,0,0,1.406-.826V37.443a1.419,1.419,0,0,0-1.389-.844q-1.371,0-1.485,2.215ZM59.658,44H56.687V34.49h2.971ZM56.511,32.038A1.322,1.322,0,0,1,56.968,31a1.943,1.943,0,0,1,2.373,0,1.405,1.405,0,0,1,0,2.074,1.943,1.943,0,0,1-2.373,0A1.322,1.322,0,0,1,56.511,32.038ZM65.5,41.891a1.317,1.317,0,0,0,.967-.338,1.241,1.241,0,0,0,.334-.945h2.777a3.288,3.288,0,0,1-1.121,2.566,4.168,4.168,0,0,1-2.887,1,4.22,4.22,0,0,1-3.27-1.3,5.125,5.125,0,0,1-1.2-3.6v-.123A5.792,5.792,0,0,1,61.64,36.6a3.872,3.872,0,0,1,1.534-1.7,4.573,4.573,0,0,1,2.373-.593,4.116,4.116,0,0,1,2.944,1.028,3.647,3.647,0,0,1,1.09,2.786H66.8A1.626,1.626,0,0,0,66.443,37a1.244,1.244,0,0,0-.967-.4q-1.151,0-1.345,1.468a10.357,10.357,0,0,0-.062,1.283,4.068,4.068,0,0,0,.343,1.986A1.187,1.187,0,0,0,65.5,41.891ZM73.958,44H70.987V34.49h2.971ZM70.811,32.038A1.322,1.322,0,0,1,71.268,31a1.943,1.943,0,0,1,2.373,0,1.405,1.405,0,0,1,0,2.074,1.943,1.943,0,0,1-2.373,0A1.322,1.322,0,0,1,70.811,32.038Zm4.6,7.119a5.613,5.613,0,0,1,.554-2.536,3.96,3.96,0,0,1,1.591-1.709,4.791,4.791,0,0,1,2.435-.6,4.373,4.373,0,0,1,3.366,1.323,5.076,5.076,0,0,1,1.23,3.6v.105a4.925,4.925,0,0,1-1.235,3.529A4.384,4.384,0,0,1,80,44.176a4.434,4.434,0,0,1-3.261-1.217,4.761,4.761,0,0,1-1.327-3.3Zm2.962.185a3.538,3.538,0,0,0,.413,1.934A1.376,1.376,0,0,0,80,41.891q1.582,0,1.617-2.435v-.3q0-2.558-1.635-2.558-1.485,0-1.608,2.206ZM88.609,34.49l.1,1.116a3.225,3.225,0,0,1,2.716-1.292,2.713,2.713,0,0,1,2.219.888,4.226,4.226,0,0,1,.76,2.672V44H91.43V38a1.6,1.6,0,0,0-.29-1.059,1.342,1.342,0,0,0-1.055-.338,1.413,1.413,0,0,0-1.292.686V44H85.832V34.49ZM101.4,44a3.344,3.344,0,0,1-.281-.853,2.754,2.754,0,0,1-2.285,1.028,3.374,3.374,0,0,1-2.285-.813,2.588,2.588,0,0,1-.94-2.043,2.66,2.66,0,0,1,1.143-2.338,5.821,5.821,0,0,1,3.322-.791h.914v-.5q0-1.316-1.134-1.316A.927.927,0,0,0,98.8,37.413H95.833a2.655,2.655,0,0,1,1.173-2.239,4.931,4.931,0,0,1,2.993-.86,4.323,4.323,0,0,1,2.874.888,3.086,3.086,0,0,1,1.081,2.435v4.21a4.311,4.311,0,0,0,.4,2V44Zm-1.854-1.934a1.652,1.652,0,0,0,.918-.237,1.487,1.487,0,0,0,.523-.536V39.772h-.861q-1.547,0-1.547,1.389a.848.848,0,0,0,.272.655A.986.986,0,0,0,99.542,42.066ZM108.718,44h-2.971V30.5h2.971Z" transform="translate(453.849 888.596)" fill="#12263f"/>
    <path id="Trazado_245904" data-name="Trazado 245904" d="M41.086,6.2l2.856,8.9,2.848-8.9h4.061V19H47.757V16.012l.3-6.117L44.962,19H42.923l-3.1-9.114.3,6.126V19H37.035V6.2ZM52.3,14.157a5.613,5.613,0,0,1,.554-2.536,3.96,3.96,0,0,1,1.591-1.709,4.791,4.791,0,0,1,2.435-.6,4.373,4.373,0,0,1,3.366,1.323,5.076,5.076,0,0,1,1.23,3.6v.105a4.925,4.925,0,0,1-1.235,3.529A4.384,4.384,0,0,1,56.9,19.176a4.434,4.434,0,0,1-3.261-1.217,4.761,4.761,0,0,1-1.327-3.3Zm2.962.185a3.538,3.538,0,0,0,.413,1.934,1.376,1.376,0,0,0,1.222.615q1.582,0,1.617-2.435v-.3q0-2.558-1.635-2.558-1.485,0-1.608,2.206Zm7.146-.167a5.809,5.809,0,0,1,.976-3.56,3.211,3.211,0,0,1,2.725-1.3,2.731,2.731,0,0,1,2.145,1V5.5h2.971V19H68.561l-.149-1.02a2.8,2.8,0,0,1-2.32,1.2,3.205,3.205,0,0,1-2.689-1.3A5.993,5.993,0,0,1,62.409,14.175Zm2.962.185q0,2.531,1.477,2.531a1.458,1.458,0,0,0,1.406-.826V12.443a1.419,1.419,0,0,0-1.389-.844q-1.371,0-1.485,2.215Zm12.138,4.816a4.889,4.889,0,0,1-3.542-1.305,4.507,4.507,0,0,1-1.354-3.4v-.246a5.84,5.84,0,0,1,.541-2.575,3.955,3.955,0,0,1,1.578-1.727,4.763,4.763,0,0,1,2.461-.611,4.117,4.117,0,0,1,3.164,1.244,4.887,4.887,0,0,1,1.16,3.467v1.151H75.627a2.135,2.135,0,0,0,.694,1.257,2.066,2.066,0,0,0,1.389.457,2.662,2.662,0,0,0,2.2-.984l1.354,1.6a3.784,3.784,0,0,1-1.569,1.217A5.3,5.3,0,0,1,77.508,19.176ZM77.174,11.6q-1.3,0-1.547,1.723h2.988v-.229a1.467,1.467,0,0,0-.36-1.1A1.434,1.434,0,0,0,77.174,11.6ZM85.832,19H82.861V5.5h2.971Zm1.45-4.843a5.613,5.613,0,0,1,.554-2.536,3.96,3.96,0,0,1,1.591-1.709,4.791,4.791,0,0,1,2.435-.6,4.373,4.373,0,0,1,3.366,1.323,5.076,5.076,0,0,1,1.23,3.6v.105a4.925,4.925,0,0,1-1.235,3.529,4.384,4.384,0,0,1-3.344,1.305,4.434,4.434,0,0,1-3.261-1.217,4.761,4.761,0,0,1-1.327-3.3Zm2.962.185a3.538,3.538,0,0,0,.413,1.934,1.376,1.376,0,0,0,1.222.615q1.582,0,1.617-2.435v-.3q0-2.558-1.635-2.558-1.485,0-1.608,2.206ZM10.522,41.891a1.317,1.317,0,0,0,.967-.338,1.241,1.241,0,0,0,.334-.945H14.6a3.288,3.288,0,0,1-1.121,2.566,4.168,4.168,0,0,1-2.887,1,4.22,4.22,0,0,1-3.27-1.3,5.125,5.125,0,0,1-1.2-3.6v-.123A5.792,5.792,0,0,1,6.66,36.6a3.872,3.872,0,0,1,1.534-1.7,4.573,4.573,0,0,1,2.373-.593,4.116,4.116,0,0,1,2.944,1.028,3.647,3.647,0,0,1,1.09,2.786H11.823A1.626,1.626,0,0,0,11.463,37a1.244,1.244,0,0,0-.967-.4q-1.151,0-1.345,1.468a10.357,10.357,0,0,0-.062,1.283,4.068,4.068,0,0,0,.343,1.986A1.187,1.187,0,0,0,10.522,41.891Zm4.957-2.733a5.613,5.613,0,0,1,.554-2.536,3.96,3.96,0,0,1,1.591-1.709,4.791,4.791,0,0,1,2.435-.6,4.373,4.373,0,0,1,3.366,1.323,5.076,5.076,0,0,1,1.23,3.6v.105a4.925,4.925,0,0,1-1.235,3.529,4.384,4.384,0,0,1-3.344,1.305,4.434,4.434,0,0,1-3.261-1.217,4.761,4.761,0,0,1-1.327-3.3Zm2.962.185a3.538,3.538,0,0,0,.413,1.934,1.376,1.376,0,0,0,1.222.615q1.582,0,1.617-2.435v-.3q0-2.558-1.635-2.558-1.485,0-1.608,2.206ZM28.681,34.49l.1,1.116a3.225,3.225,0,0,1,2.716-1.292,2.713,2.713,0,0,1,2.219.888,4.226,4.226,0,0,1,.76,2.672V44H31.5V38a1.6,1.6,0,0,0-.29-1.059,1.342,1.342,0,0,0-1.055-.338,1.413,1.413,0,0,0-1.292.686V44H25.9V34.49Zm12.41,6.838a.684.684,0,0,0-.4-.606,6.016,6.016,0,0,0-1.5-.475,6.853,6.853,0,0,1-1.828-.646,3.062,3.062,0,0,1-1.1-.971,2.319,2.319,0,0,1-.378-1.31,2.628,2.628,0,0,1,1.081-2.158,4.453,4.453,0,0,1,2.83-.848,4.934,4.934,0,0,1,3.023.853,2.666,2.666,0,0,1,1.143,2.241H40.994q0-1.143-1.2-1.143a1.194,1.194,0,0,0-.782.259.8.8,0,0,0-.316.646.737.737,0,0,0,.387.642,3.654,3.654,0,0,0,1.235.4,10.671,10.671,0,0,1,1.49.378,2.706,2.706,0,0,1,2.145,2.646,2.491,2.491,0,0,1-1.156,2.118,5.068,5.068,0,0,1-2.993.817,5.172,5.172,0,0,1-2.18-.439,3.645,3.645,0,0,1-1.494-1.2,2.707,2.707,0,0,1-.536-1.591h2.769a1.145,1.145,0,0,0,.439.962,1.808,1.808,0,0,0,1.081.3,1.422,1.422,0,0,0,.91-.246A.787.787,0,0,0,41.091,41.328Zm7.69-9.2V34.49h1.564v2.057H48.781V40.9a1.111,1.111,0,0,0,.193.747,1.037,1.037,0,0,0,.765.211,4.345,4.345,0,0,0,.738-.053v2.118a5.466,5.466,0,0,1-1.67.255,3.1,3.1,0,0,1-2.259-.721,2.954,2.954,0,0,1-.729-2.188v-4.72H44.606V34.49h1.213V32.126Zm8.481,5.045-.976-.07a1.752,1.752,0,0,0-1.793.879V44H51.532V34.49H54.31l.1,1.222a2.294,2.294,0,0,1,2.083-1.4,2.888,2.888,0,0,1,.826.105ZM64,42.972a3.054,3.054,0,0,1-2.54,1.2,3,3,0,0,1-2.369-.91,3.826,3.826,0,0,1-.8-2.615V34.49h2.962v6.179a1.065,1.065,0,0,0,1.187,1.222,1.548,1.548,0,0,0,1.45-.729V34.49H66.86V44H64.083ZM72.5,41.891a1.317,1.317,0,0,0,.967-.338,1.241,1.241,0,0,0,.334-.945h2.777a3.288,3.288,0,0,1-1.121,2.566,4.168,4.168,0,0,1-2.887,1,4.22,4.22,0,0,1-3.27-1.3,5.125,5.125,0,0,1-1.2-3.6v-.123A5.792,5.792,0,0,1,68.64,36.6a3.872,3.872,0,0,1,1.534-1.7,4.573,4.573,0,0,1,2.373-.593,4.116,4.116,0,0,1,2.944,1.028,3.647,3.647,0,0,1,1.09,2.786H73.8A1.626,1.626,0,0,0,73.443,37a1.244,1.244,0,0,0-.967-.4q-1.151,0-1.345,1.468a10.357,10.357,0,0,0-.062,1.283,4.068,4.068,0,0,0,.343,1.986A1.187,1.187,0,0,0,72.5,41.891Zm8.78-9.765V34.49h1.564v2.057H81.283V40.9a1.111,1.111,0,0,0,.193.747,1.037,1.037,0,0,0,.765.211,4.345,4.345,0,0,0,.738-.053v2.118a5.466,5.466,0,0,1-1.67.255,3.1,3.1,0,0,1-2.259-.721,2.954,2.954,0,0,1-.729-2.188v-4.72H77.108V34.49h1.213V32.126ZM87.137,44H84.166V34.49h2.971ZM83.99,32.038A1.322,1.322,0,0,1,84.447,31a1.943,1.943,0,0,1,2.373,0,1.405,1.405,0,0,1,0,2.074,1.943,1.943,0,0,1-2.373,0A1.322,1.322,0,0,1,83.99,32.038Zm8.763,8.438,1.5-5.985h3.12L94.273,44H91.25l-3.1-9.51h3.129ZM101.384,44H98.413V34.49h2.971ZM98.237,32.038A1.322,1.322,0,0,1,98.694,31a1.943,1.943,0,0,1,2.373,0,1.405,1.405,0,0,1,0,2.074,1.943,1.943,0,0,1-2.373,0A1.322,1.322,0,0,1,98.237,32.038Zm9.949,9.29a.684.684,0,0,0-.4-.606,6.016,6.016,0,0,0-1.5-.475,6.853,6.853,0,0,1-1.828-.646,3.062,3.062,0,0,1-1.1-.971,2.319,2.319,0,0,1-.378-1.31,2.628,2.628,0,0,1,1.081-2.158,4.453,4.453,0,0,1,2.83-.848,4.934,4.934,0,0,1,3.023.853,2.666,2.666,0,0,1,1.143,2.241H108.09q0-1.143-1.2-1.143a1.194,1.194,0,0,0-.782.259.8.8,0,0,0-.316.646.737.737,0,0,0,.387.642,3.654,3.654,0,0,0,1.235.4,10.671,10.671,0,0,1,1.49.378,2.706,2.706,0,0,1,2.145,2.646,2.491,2.491,0,0,1-1.156,2.118,5.068,5.068,0,0,1-2.993.817,5.172,5.172,0,0,1-2.18-.439,3.645,3.645,0,0,1-1.494-1.2,2.707,2.707,0,0,1-.536-1.591h2.769a1.145,1.145,0,0,0,.439.962,1.808,1.808,0,0,0,1.081.3,1.422,1.422,0,0,0,.91-.246A.787.787,0,0,0,108.187,41.328Zm7.69-9.2V34.49h1.564v2.057h-1.564V40.9a1.111,1.111,0,0,0,.193.747,1.037,1.037,0,0,0,.765.211,4.345,4.345,0,0,0,.738-.053v2.118a5.466,5.466,0,0,1-1.67.255,3.1,3.1,0,0,1-2.259-.721,2.954,2.954,0,0,1-.729-2.188v-4.72H111.7V34.49h1.213V32.126ZM123.963,44a3.344,3.344,0,0,1-.281-.853,2.754,2.754,0,0,1-2.285,1.028,3.374,3.374,0,0,1-2.285-.813,2.588,2.588,0,0,1-.94-2.043,2.66,2.66,0,0,1,1.143-2.338,5.821,5.821,0,0,1,3.322-.791h.914v-.5q0-1.316-1.134-1.316a.927.927,0,0,0-1.055,1.042H118.4a2.655,2.655,0,0,1,1.173-2.239,4.931,4.931,0,0,1,2.993-.86,4.323,4.323,0,0,1,2.874.888,3.086,3.086,0,0,1,1.081,2.435v4.21a4.311,4.311,0,0,0,.4,2V44Zm-1.854-1.934a1.652,1.652,0,0,0,.918-.237,1.487,1.487,0,0,0,.523-.536V39.772h-.861q-1.547,0-1.547,1.389a.848.848,0,0,0,.272.655A.986.986,0,0,0,122.108,42.066Z" transform="translate(1000 888.596)" fill="#12263f"/>
    <path id="Trazado_245905" data-name="Trazado 245905" d="M59.086,6.2l2.856,8.9,2.848-8.9h4.061V19H65.757V16.012l.3-6.117L62.962,19H60.923l-3.1-9.114.3,6.126V19H55.035V6.2ZM70.3,14.157a5.613,5.613,0,0,1,.554-2.536,3.96,3.96,0,0,1,1.591-1.709,4.791,4.791,0,0,1,2.435-.6,4.373,4.373,0,0,1,3.366,1.323,5.076,5.076,0,0,1,1.23,3.6v.105a4.925,4.925,0,0,1-1.235,3.529A4.384,4.384,0,0,1,74.9,19.176a4.434,4.434,0,0,1-3.261-1.217,4.761,4.761,0,0,1-1.327-3.3Zm2.962.185a3.538,3.538,0,0,0,.413,1.934,1.376,1.376,0,0,0,1.222.615q1.582,0,1.617-2.435v-.3q0-2.558-1.635-2.558-1.485,0-1.608,2.206Zm7.146-.167a5.809,5.809,0,0,1,.976-3.56,3.211,3.211,0,0,1,2.725-1.3,2.731,2.731,0,0,1,2.145,1V5.5h2.971V19H86.561l-.149-1.02a2.8,2.8,0,0,1-2.32,1.2,3.205,3.205,0,0,1-2.689-1.3A5.993,5.993,0,0,1,80.409,14.175Zm2.962.185q0,2.531,1.477,2.531a1.458,1.458,0,0,0,1.406-.826V12.443a1.419,1.419,0,0,0-1.389-.844q-1.371,0-1.485,2.215Zm12.138,4.816a4.889,4.889,0,0,1-3.542-1.305,4.507,4.507,0,0,1-1.354-3.4v-.246a5.84,5.84,0,0,1,.541-2.575,3.955,3.955,0,0,1,1.578-1.727,4.763,4.763,0,0,1,2.461-.611,4.117,4.117,0,0,1,3.164,1.244,4.887,4.887,0,0,1,1.16,3.467v1.151H93.627a2.135,2.135,0,0,0,.694,1.257,2.066,2.066,0,0,0,1.389.457,2.662,2.662,0,0,0,2.2-.984l1.354,1.6a3.784,3.784,0,0,1-1.569,1.217A5.3,5.3,0,0,1,95.508,19.176ZM95.174,11.6q-1.3,0-1.547,1.723h2.988v-.229a1.467,1.467,0,0,0-.36-1.1A1.434,1.434,0,0,0,95.174,11.6Zm8.657,7.4h-2.971V5.5h2.971Zm1.45-4.843a5.613,5.613,0,0,1,.554-2.536,3.96,3.96,0,0,1,1.591-1.709,4.791,4.791,0,0,1,2.435-.6,4.373,4.373,0,0,1,3.366,1.323,5.076,5.076,0,0,1,1.23,3.6v.105a4.925,4.925,0,0,1-1.235,3.529,4.384,4.384,0,0,1-3.344,1.305,4.434,4.434,0,0,1-3.261-1.217,4.761,4.761,0,0,1-1.327-3.3Zm2.962.185a3.538,3.538,0,0,0,.413,1.934,1.376,1.376,0,0,0,1.222.615q1.582,0,1.617-2.435v-.3q0-2.558-1.635-2.558-1.485,0-1.608,2.206ZM19.1,41.891a1.317,1.317,0,0,0,.967-.338,1.241,1.241,0,0,0,.334-.945h2.777a3.288,3.288,0,0,1-1.121,2.566,4.168,4.168,0,0,1-2.887,1,4.22,4.22,0,0,1-3.27-1.3,5.125,5.125,0,0,1-1.2-3.6v-.123a5.792,5.792,0,0,1,.532-2.544,3.872,3.872,0,0,1,1.534-1.7,4.573,4.573,0,0,1,2.373-.593,4.116,4.116,0,0,1,2.944,1.028,3.647,3.647,0,0,1,1.09,2.786H20.4A1.626,1.626,0,0,0,20.041,37a1.244,1.244,0,0,0-.967-.4q-1.151,0-1.345,1.468a10.357,10.357,0,0,0-.062,1.283,4.068,4.068,0,0,0,.343,1.986A1.187,1.187,0,0,0,19.1,41.891Zm4.957-2.733a5.613,5.613,0,0,1,.554-2.536A3.96,3.96,0,0,1,26.2,34.912a4.791,4.791,0,0,1,2.435-.6A4.373,4.373,0,0,1,32,35.637a5.076,5.076,0,0,1,1.23,3.6v.105A4.925,4.925,0,0,1,32,42.871a4.384,4.384,0,0,1-3.344,1.305,4.434,4.434,0,0,1-3.261-1.217,4.761,4.761,0,0,1-1.327-3.3Zm2.962.185a3.538,3.538,0,0,0,.413,1.934,1.376,1.376,0,0,0,1.222.615q1.582,0,1.617-2.435v-.3q0-2.558-1.635-2.558-1.485,0-1.608,2.206Zm7.172-.167a6.421,6.421,0,0,1,.475-2.549,3.821,3.821,0,0,1,1.362-1.709,3.591,3.591,0,0,1,2.065-.6,2.855,2.855,0,0,1,2.32,1l.105-.826h2.689V43.64a4.009,4.009,0,0,1-.584,2.184,3.75,3.75,0,0,1-1.692,1.424,6.219,6.219,0,0,1-2.566.5,5.365,5.365,0,0,1-2.026-.4,3.657,3.657,0,0,1-1.5-1.028l1.239-1.74a2.716,2.716,0,0,0,2.18.976,1.764,1.764,0,0,0,1.969-2.021v-.3a2.781,2.781,0,0,1-2.153.94,3.437,3.437,0,0,1-2.812-1.332,5.517,5.517,0,0,1-1.072-3.564Zm2.971.185a3.383,3.383,0,0,0,.439,1.85,1.387,1.387,0,0,0,1.23.681,1.573,1.573,0,0,0,1.4-.642v-4a1.534,1.534,0,0,0-1.38-.65,1.4,1.4,0,0,0-1.239.708A3.858,3.858,0,0,0,37.162,39.359Zm10.45-4.869.1,1.116a3.225,3.225,0,0,1,2.716-1.292,2.713,2.713,0,0,1,2.219.888,4.226,4.226,0,0,1,.76,2.672V44H50.434V38a1.6,1.6,0,0,0-.29-1.059,1.342,1.342,0,0,0-1.055-.338,1.413,1.413,0,0,0-1.292.686V44H44.835V34.49ZM58.168,44H55.2V34.49h2.971ZM55.021,32.038A1.322,1.322,0,0,1,55.479,31a1.943,1.943,0,0,1,2.373,0,1.405,1.405,0,0,1,0,2.074,1.943,1.943,0,0,1-2.373,0A1.322,1.322,0,0,1,55.021,32.038Zm8.42.088V34.49h1.564v2.057H63.441V40.9a1.111,1.111,0,0,0,.193.747,1.037,1.037,0,0,0,.765.211,4.345,4.345,0,0,0,.738-.053v2.118a5.466,5.466,0,0,1-1.67.255,3.1,3.1,0,0,1-2.259-.721,2.954,2.954,0,0,1-.729-2.188v-4.72H59.267V34.49h1.213V32.126ZM69.295,44H66.324V34.49h2.971ZM66.148,32.038A1.322,1.322,0,0,1,66.605,31a1.943,1.943,0,0,1,2.373,0,1.405,1.405,0,0,1,0,2.074,1.943,1.943,0,0,1-2.373,0A1.322,1.322,0,0,1,66.148,32.038Zm8.763,8.438,1.5-5.985h3.12L76.432,44H73.408l-3.1-9.51h3.129Zm5-1.318a5.613,5.613,0,0,1,.554-2.536,3.96,3.96,0,0,1,1.591-1.709,4.791,4.791,0,0,1,2.435-.6,4.373,4.373,0,0,1,3.366,1.323,5.076,5.076,0,0,1,1.23,3.6v.105a4.925,4.925,0,0,1-1.235,3.529,4.384,4.384,0,0,1-3.344,1.305,4.434,4.434,0,0,1-3.261-1.217,4.761,4.761,0,0,1-1.327-3.3Zm2.962.185a3.538,3.538,0,0,0,.413,1.934,1.376,1.376,0,0,0,1.222.615q1.582,0,1.617-2.435v-.3q0-2.558-1.635-2.558-1.485,0-1.608,2.206Zm17.789.281H95.381V37.338h5.282Zm11.769,1.705a.684.684,0,0,0-.4-.606,6.016,6.016,0,0,0-1.5-.475,6.853,6.853,0,0,1-1.828-.646,3.062,3.062,0,0,1-1.1-.971,2.319,2.319,0,0,1-.378-1.31,2.628,2.628,0,0,1,1.081-2.158,4.453,4.453,0,0,1,2.83-.848,4.934,4.934,0,0,1,3.023.853,2.666,2.666,0,0,1,1.143,2.241h-2.971q0-1.143-1.2-1.143a1.194,1.194,0,0,0-.782.259.8.8,0,0,0-.316.646.737.737,0,0,0,.387.642,3.654,3.654,0,0,0,1.235.4,10.671,10.671,0,0,1,1.49.378,2.706,2.706,0,0,1,2.145,2.646,2.491,2.491,0,0,1-1.156,2.118,5.068,5.068,0,0,1-2.993.817,5.172,5.172,0,0,1-2.18-.439,3.645,3.645,0,0,1-1.494-1.2,2.707,2.707,0,0,1-.536-1.591H109.7a1.145,1.145,0,0,0,.439.962,1.808,1.808,0,0,0,1.081.3,1.422,1.422,0,0,0,.91-.246A.787.787,0,0,0,112.432,41.328Zm3.867-2.171a5.613,5.613,0,0,1,.554-2.536,3.96,3.96,0,0,1,1.591-1.709,4.791,4.791,0,0,1,2.435-.6,4.373,4.373,0,0,1,3.366,1.323,5.076,5.076,0,0,1,1.23,3.6v.105a4.925,4.925,0,0,1-1.235,3.529,4.384,4.384,0,0,1-3.344,1.305,4.434,4.434,0,0,1-3.261-1.217,4.761,4.761,0,0,1-1.327-3.3Zm2.962.185a3.538,3.538,0,0,0,.413,1.934,1.376,1.376,0,0,0,1.222.615q1.582,0,1.617-2.435v-.3q0-2.558-1.635-2.558-1.485,0-1.608,2.206Zm11.54,2.549a1.317,1.317,0,0,0,.967-.338,1.241,1.241,0,0,0,.334-.945h2.777a3.288,3.288,0,0,1-1.121,2.566,4.168,4.168,0,0,1-2.887,1,4.22,4.22,0,0,1-3.27-1.3,5.125,5.125,0,0,1-1.2-3.6v-.123a5.792,5.792,0,0,1,.532-2.544,3.872,3.872,0,0,1,1.534-1.7,4.573,4.573,0,0,1,2.373-.593,4.116,4.116,0,0,1,2.944,1.028,3.647,3.647,0,0,1,1.09,2.786H132.1a1.626,1.626,0,0,0-.36-1.134,1.244,1.244,0,0,0-.967-.4q-1.151,0-1.345,1.468a10.357,10.357,0,0,0-.062,1.283,4.068,4.068,0,0,0,.343,1.986A1.187,1.187,0,0,0,130.8,41.891ZM139.256,44h-2.971V34.49h2.971Zm-3.146-11.962A1.322,1.322,0,0,1,136.566,31a1.943,1.943,0,0,1,2.373,0,1.405,1.405,0,0,1,0,2.074,1.943,1.943,0,0,1-2.373,0A1.322,1.322,0,0,1,136.109,32.038ZM146.437,44a3.344,3.344,0,0,1-.281-.853,2.754,2.754,0,0,1-2.285,1.028,3.374,3.374,0,0,1-2.285-.813,2.588,2.588,0,0,1-.94-2.043,2.66,2.66,0,0,1,1.143-2.338,5.821,5.821,0,0,1,3.322-.791h.914v-.5q0-1.316-1.134-1.316a.927.927,0,0,0-1.055,1.042h-2.962a2.655,2.655,0,0,1,1.173-2.239,4.931,4.931,0,0,1,2.993-.86,4.323,4.323,0,0,1,2.874.888,3.086,3.086,0,0,1,1.081,2.435v4.21a4.311,4.311,0,0,0,.4,2V44Zm-1.854-1.934a1.652,1.652,0,0,0,.918-.237,1.487,1.487,0,0,0,.523-.536V39.772h-.861q-1.547,0-1.547,1.389a.848.848,0,0,0,.272.655A.986.986,0,0,0,144.582,42.066ZM153.758,44h-2.971V30.5h2.971Z" transform="translate(1125 1108.913)" fill="#12263f"/>
    <path id="Trazado_245906" data-name="Trazado 245906" d="M41.086,6.2l2.856,8.9,2.848-8.9h4.061V19H47.757V16.012l.3-6.117L44.962,19H42.923l-3.1-9.114.3,6.126V19H37.035V6.2ZM52.3,14.157a5.613,5.613,0,0,1,.554-2.536,3.96,3.96,0,0,1,1.591-1.709,4.791,4.791,0,0,1,2.435-.6,4.373,4.373,0,0,1,3.366,1.323,5.076,5.076,0,0,1,1.23,3.6v.105a4.925,4.925,0,0,1-1.235,3.529A4.384,4.384,0,0,1,56.9,19.176a4.434,4.434,0,0,1-3.261-1.217,4.761,4.761,0,0,1-1.327-3.3Zm2.962.185a3.538,3.538,0,0,0,.413,1.934,1.376,1.376,0,0,0,1.222.615q1.582,0,1.617-2.435v-.3q0-2.558-1.635-2.558-1.485,0-1.608,2.206Zm7.146-.167a5.809,5.809,0,0,1,.976-3.56,3.211,3.211,0,0,1,2.725-1.3,2.731,2.731,0,0,1,2.145,1V5.5h2.971V19H68.561l-.149-1.02a2.8,2.8,0,0,1-2.32,1.2,3.205,3.205,0,0,1-2.689-1.3A5.993,5.993,0,0,1,62.409,14.175Zm2.962.185q0,2.531,1.477,2.531a1.458,1.458,0,0,0,1.406-.826V12.443a1.419,1.419,0,0,0-1.389-.844q-1.371,0-1.485,2.215Zm12.138,4.816a4.889,4.889,0,0,1-3.542-1.305,4.507,4.507,0,0,1-1.354-3.4v-.246a5.84,5.84,0,0,1,.541-2.575,3.955,3.955,0,0,1,1.578-1.727,4.763,4.763,0,0,1,2.461-.611,4.117,4.117,0,0,1,3.164,1.244,4.887,4.887,0,0,1,1.16,3.467v1.151H75.627a2.135,2.135,0,0,0,.694,1.257,2.066,2.066,0,0,0,1.389.457,2.662,2.662,0,0,0,2.2-.984l1.354,1.6a3.784,3.784,0,0,1-1.569,1.217A5.3,5.3,0,0,1,77.508,19.176ZM77.174,11.6q-1.3,0-1.547,1.723h2.988v-.229a1.467,1.467,0,0,0-.36-1.1A1.434,1.434,0,0,0,77.174,11.6ZM85.832,19H82.861V5.5h2.971Zm1.45-4.843a5.613,5.613,0,0,1,.554-2.536,3.96,3.96,0,0,1,1.591-1.709,4.791,4.791,0,0,1,2.435-.6,4.373,4.373,0,0,1,3.366,1.323,5.076,5.076,0,0,1,1.23,3.6v.105a4.925,4.925,0,0,1-1.235,3.529,4.384,4.384,0,0,1-3.344,1.305,4.434,4.434,0,0,1-3.261-1.217,4.761,4.761,0,0,1-1.327-3.3Zm2.962.185a3.538,3.538,0,0,0,.413,1.934,1.376,1.376,0,0,0,1.222.615q1.582,0,1.617-2.435v-.3q0-2.558-1.635-2.558-1.485,0-1.608,2.206ZM31.88,37.171,30.9,37.1a1.752,1.752,0,0,0-1.793.879V44H26.149V34.49h2.777l.1,1.222a2.294,2.294,0,0,1,2.083-1.4,2.888,2.888,0,0,1,.826.105Zm.378,1.986a5.613,5.613,0,0,1,.554-2.536A3.96,3.96,0,0,1,34.4,34.912a4.791,4.791,0,0,1,2.435-.6A4.373,4.373,0,0,1,40.2,35.637a5.076,5.076,0,0,1,1.23,3.6v.105A4.925,4.925,0,0,1,40.2,42.871a4.384,4.384,0,0,1-3.344,1.305,4.434,4.434,0,0,1-3.261-1.217,4.761,4.761,0,0,1-1.327-3.3Zm2.962.185a3.538,3.538,0,0,0,.413,1.934,1.376,1.376,0,0,0,1.222.615q1.582,0,1.617-2.435v-.3q0-2.558-1.635-2.558-1.485,0-1.608,2.206ZM45.538,34.49l.1,1.116a3.27,3.27,0,0,1,2.716-1.292,2.407,2.407,0,0,1,2.435,1.433,3.165,3.165,0,0,1,2.795-1.433q2.892,0,2.971,3.5V44H53.58V38a1.813,1.813,0,0,0-.246-1.063,1.048,1.048,0,0,0-.9-.334,1.4,1.4,0,0,0-1.31.782l.009.123V44H48.166V38.015a1.906,1.906,0,0,0-.237-1.081,1.045,1.045,0,0,0-.905-.334,1.42,1.42,0,0,0-1.3.782V44H42.761V34.49ZM63.6,44a3.344,3.344,0,0,1-.281-.853,2.754,2.754,0,0,1-2.285,1.028,3.374,3.374,0,0,1-2.285-.813,2.588,2.588,0,0,1-.94-2.043,2.66,2.66,0,0,1,1.143-2.338,5.821,5.821,0,0,1,3.322-.791h.914v-.5q0-1.316-1.134-1.316A.927.927,0,0,0,61,37.413H58.036a2.655,2.655,0,0,1,1.173-2.239,4.931,4.931,0,0,1,2.993-.86,4.323,4.323,0,0,1,2.874.888,3.086,3.086,0,0,1,1.081,2.435v4.21a4.311,4.311,0,0,0,.4,2V44Zm-1.854-1.934a1.652,1.652,0,0,0,.918-.237,1.487,1.487,0,0,0,.523-.536V39.772h-.861q-1.547,0-1.547,1.389a.848.848,0,0,0,.272.655A.986.986,0,0,0,61.745,42.066ZM62.483,30.5h3.129l-2.443,2.76-2.417,0Zm8.033,3.99.1,1.116a3.225,3.225,0,0,1,2.716-1.292,2.713,2.713,0,0,1,2.219.888,4.226,4.226,0,0,1,.76,2.672V44H73.338V38a1.6,1.6,0,0,0-.29-1.059,1.342,1.342,0,0,0-1.055-.338,1.413,1.413,0,0,0-1.292.686V44H67.739V34.49ZM81.4,32.126V34.49h1.564v2.057H81.4V40.9a1.111,1.111,0,0,0,.193.747,1.037,1.037,0,0,0,.765.211,4.345,4.345,0,0,0,.738-.053v2.118a5.466,5.466,0,0,1-1.67.255,3.1,3.1,0,0,1-2.259-.721,2.954,2.954,0,0,1-.729-2.188v-4.72H77.223V34.49h1.213V32.126ZM87.251,44H84.28V34.49h2.971ZM84.1,32.038A1.322,1.322,0,0,1,84.562,31a1.943,1.943,0,0,1,2.373,0,1.405,1.405,0,0,1,0,2.074,1.943,1.943,0,0,1-2.373,0A1.322,1.322,0,0,1,84.1,32.038ZM93.1,41.891a1.317,1.317,0,0,0,.967-.338,1.241,1.241,0,0,0,.334-.945h2.777a3.288,3.288,0,0,1-1.121,2.566,4.168,4.168,0,0,1-2.887,1,4.22,4.22,0,0,1-3.27-1.3,5.125,5.125,0,0,1-1.2-3.6v-.123a5.792,5.792,0,0,1,.532-2.544,3.872,3.872,0,0,1,1.534-1.7,4.573,4.573,0,0,1,2.373-.593,4.116,4.116,0,0,1,2.944,1.028,3.647,3.647,0,0,1,1.09,2.786H94.4A1.626,1.626,0,0,0,94.036,37a1.244,1.244,0,0,0-.967-.4q-1.151,0-1.345,1.468a10.357,10.357,0,0,0-.062,1.283,4.068,4.068,0,0,0,.343,1.986A1.187,1.187,0,0,0,93.1,41.891Zm4.957-2.733a5.613,5.613,0,0,1,.554-2.536,3.96,3.96,0,0,1,1.591-1.709,4.791,4.791,0,0,1,2.435-.6A4.373,4.373,0,0,1,106,35.637a5.076,5.076,0,0,1,1.23,3.6v.105a4.925,4.925,0,0,1-1.235,3.529,4.384,4.384,0,0,1-3.344,1.305,4.434,4.434,0,0,1-3.261-1.217,4.761,4.761,0,0,1-1.327-3.3Zm2.962.185a3.538,3.538,0,0,0,.413,1.934,1.376,1.376,0,0,0,1.222.615q1.582,0,1.617-2.435v-.3q0-2.558-1.635-2.558-1.485,0-1.608,2.206Z" transform="translate(320.849 1108.913)" fill="#12263f"/>
    <path id="Trazado_245907" data-name="Trazado 245907" d="M41.086,6.2l2.856,8.9,2.848-8.9h4.061V19H47.757V16.012l.3-6.117L44.962,19H42.923l-3.1-9.114.3,6.126V19H37.035V6.2ZM52.3,14.157a5.613,5.613,0,0,1,.554-2.536,3.96,3.96,0,0,1,1.591-1.709,4.791,4.791,0,0,1,2.435-.6,4.373,4.373,0,0,1,3.366,1.323,5.076,5.076,0,0,1,1.23,3.6v.105a4.925,4.925,0,0,1-1.235,3.529A4.384,4.384,0,0,1,56.9,19.176a4.434,4.434,0,0,1-3.261-1.217,4.761,4.761,0,0,1-1.327-3.3Zm2.962.185a3.538,3.538,0,0,0,.413,1.934,1.376,1.376,0,0,0,1.222.615q1.582,0,1.617-2.435v-.3q0-2.558-1.635-2.558-1.485,0-1.608,2.206Zm7.146-.167a5.809,5.809,0,0,1,.976-3.56,3.211,3.211,0,0,1,2.725-1.3,2.731,2.731,0,0,1,2.145,1V5.5h2.971V19H68.561l-.149-1.02a2.8,2.8,0,0,1-2.32,1.2,3.205,3.205,0,0,1-2.689-1.3A5.993,5.993,0,0,1,62.409,14.175Zm2.962.185q0,2.531,1.477,2.531a1.458,1.458,0,0,0,1.406-.826V12.443a1.419,1.419,0,0,0-1.389-.844q-1.371,0-1.485,2.215Zm12.138,4.816a4.889,4.889,0,0,1-3.542-1.305,4.507,4.507,0,0,1-1.354-3.4v-.246a5.84,5.84,0,0,1,.541-2.575,3.955,3.955,0,0,1,1.578-1.727,4.763,4.763,0,0,1,2.461-.611,4.117,4.117,0,0,1,3.164,1.244,4.887,4.887,0,0,1,1.16,3.467v1.151H75.627a2.135,2.135,0,0,0,.694,1.257,2.066,2.066,0,0,0,1.389.457,2.662,2.662,0,0,0,2.2-.984l1.354,1.6a3.784,3.784,0,0,1-1.569,1.217A5.3,5.3,0,0,1,77.508,19.176ZM77.174,11.6q-1.3,0-1.547,1.723h2.988v-.229a1.467,1.467,0,0,0-.36-1.1A1.434,1.434,0,0,0,77.174,11.6ZM85.832,19H82.861V5.5h2.971Zm1.45-4.843a5.613,5.613,0,0,1,.554-2.536,3.96,3.96,0,0,1,1.591-1.709,4.791,4.791,0,0,1,2.435-.6,4.373,4.373,0,0,1,3.366,1.323,5.076,5.076,0,0,1,1.23,3.6v.105a4.925,4.925,0,0,1-1.235,3.529,4.384,4.384,0,0,1-3.344,1.305,4.434,4.434,0,0,1-3.261-1.217,4.761,4.761,0,0,1-1.327-3.3Zm2.962.185a3.538,3.538,0,0,0,.413,1.934,1.376,1.376,0,0,0,1.222.615q1.582,0,1.617-2.435v-.3q0-2.558-1.635-2.558-1.485,0-1.608,2.206ZM29.74,39.315a5.735,5.735,0,0,1-1,3.538,3.2,3.2,0,0,1-2.694,1.323,2.742,2.742,0,0,1-2.153-.958v4.438H20.933V34.49H23.7l.088.879a2.742,2.742,0,0,1,2.241-1.055,3.224,3.224,0,0,1,2.733,1.3,5.805,5.805,0,0,1,.976,3.564Zm-2.962-.185q0-2.531-1.477-2.531a1.394,1.394,0,0,0-1.406.756V41.1a1.439,1.439,0,0,0,1.424.791q1.415,0,1.459-2.443Zm10.02-1.96-.976-.07a1.752,1.752,0,0,0-1.793.879V44H31.067V34.49h2.777l.1,1.222a2.294,2.294,0,0,1,2.083-1.4,2.888,2.888,0,0,1,.826.105Zm.378,1.986a5.613,5.613,0,0,1,.554-2.536,3.96,3.96,0,0,1,1.591-1.709,4.791,4.791,0,0,1,2.435-.6,4.373,4.373,0,0,1,3.366,1.323,5.076,5.076,0,0,1,1.23,3.6v.105a4.925,4.925,0,0,1-1.235,3.529,4.384,4.384,0,0,1-3.344,1.305,4.434,4.434,0,0,1-3.261-1.217,4.761,4.761,0,0,1-1.327-3.3Zm2.962.185a3.538,3.538,0,0,0,.413,1.934,1.376,1.376,0,0,0,1.222.615q1.582,0,1.617-2.435v-.3q0-2.558-1.635-2.558-1.485,0-1.608,2.206Zm7.172-.167a6.421,6.421,0,0,1,.475-2.549,3.821,3.821,0,0,1,1.362-1.709,3.591,3.591,0,0,1,2.065-.6,2.855,2.855,0,0,1,2.32,1l.105-.826h2.689V43.64a4.009,4.009,0,0,1-.584,2.184,3.75,3.75,0,0,1-1.692,1.424,6.219,6.219,0,0,1-2.566.5,5.365,5.365,0,0,1-2.026-.4,3.657,3.657,0,0,1-1.5-1.028L49.2,44.58a2.716,2.716,0,0,0,2.18.976,1.764,1.764,0,0,0,1.969-2.021v-.3a2.781,2.781,0,0,1-2.153.94,3.437,3.437,0,0,1-2.812-1.332,5.517,5.517,0,0,1-1.072-3.564Zm2.971.185a3.383,3.383,0,0,0,.439,1.85,1.387,1.387,0,0,0,1.23.681,1.573,1.573,0,0,0,1.4-.642v-4a1.534,1.534,0,0,0-1.38-.65,1.4,1.4,0,0,0-1.239.708A3.858,3.858,0,0,0,50.28,39.359Zm13.482-2.188-.976-.07a1.752,1.752,0,0,0-1.793.879V44H58.032V34.49h2.777l.1,1.222a2.294,2.294,0,0,1,2.083-1.4,2.888,2.888,0,0,1,.826.105Zm5.669,7a4.889,4.889,0,0,1-3.542-1.305,4.507,4.507,0,0,1-1.354-3.4v-.246a5.84,5.84,0,0,1,.541-2.575,3.955,3.955,0,0,1,1.578-1.727,4.763,4.763,0,0,1,2.461-.611,4.117,4.117,0,0,1,3.164,1.244,4.887,4.887,0,0,1,1.16,3.467v1.151H67.55a2.135,2.135,0,0,0,.694,1.257,2.066,2.066,0,0,0,1.389.457,2.662,2.662,0,0,0,2.2-.984l1.354,1.6a3.784,3.784,0,0,1-1.569,1.217A5.3,5.3,0,0,1,69.431,44.176ZM69.1,36.6q-1.3,0-1.547,1.723h2.988v-.229a1.467,1.467,0,0,0-.36-1.1A1.434,1.434,0,0,0,69.1,36.6Zm10.512,4.729a.684.684,0,0,0-.4-.606,6.016,6.016,0,0,0-1.5-.475,6.853,6.853,0,0,1-1.828-.646,3.062,3.062,0,0,1-1.1-.971,2.319,2.319,0,0,1-.378-1.31,2.628,2.628,0,0,1,1.081-2.158,4.453,4.453,0,0,1,2.83-.848,4.934,4.934,0,0,1,3.023.853,2.666,2.666,0,0,1,1.143,2.241H79.512q0-1.143-1.2-1.143a1.194,1.194,0,0,0-.782.259.8.8,0,0,0-.316.646.737.737,0,0,0,.387.642,3.654,3.654,0,0,0,1.235.4,10.671,10.671,0,0,1,1.49.378,2.706,2.706,0,0,1,2.145,2.646,2.491,2.491,0,0,1-1.156,2.118,5.068,5.068,0,0,1-2.993.817,5.172,5.172,0,0,1-2.18-.439,3.645,3.645,0,0,1-1.494-1.2,2.707,2.707,0,0,1-.536-1.591h2.769a1.145,1.145,0,0,0,.439.962,1.808,1.808,0,0,0,1.081.3,1.422,1.422,0,0,0,.91-.246A.787.787,0,0,0,79.609,41.328ZM86.974,44H84V34.49h2.971ZM83.828,32.038A1.322,1.322,0,0,1,84.285,31a1.943,1.943,0,0,1,2.373,0,1.405,1.405,0,0,1,0,2.074,1.943,1.943,0,0,1-2.373,0A1.322,1.322,0,0,1,83.828,32.038Zm9.949,9.29a.684.684,0,0,0-.4-.606,6.016,6.016,0,0,0-1.5-.475A6.853,6.853,0,0,1,90.05,39.6a3.062,3.062,0,0,1-1.1-.971,2.319,2.319,0,0,1-.378-1.31,2.628,2.628,0,0,1,1.081-2.158,4.453,4.453,0,0,1,2.83-.848,4.934,4.934,0,0,1,3.023.853,2.666,2.666,0,0,1,1.143,2.241H93.68q0-1.143-1.2-1.143a1.194,1.194,0,0,0-.782.259.8.8,0,0,0-.316.646.737.737,0,0,0,.387.642,3.654,3.654,0,0,0,1.235.4,10.671,10.671,0,0,1,1.49.378,2.706,2.706,0,0,1,2.145,2.646,2.491,2.491,0,0,1-1.156,2.118,5.068,5.068,0,0,1-2.993.817,5.172,5.172,0,0,1-2.18-.439,3.645,3.645,0,0,1-1.494-1.2,2.707,2.707,0,0,1-.536-1.591h2.769a1.145,1.145,0,0,0,.439.962,1.808,1.808,0,0,0,1.081.3,1.422,1.422,0,0,0,.91-.246A.787.787,0,0,0,93.777,41.328Zm7.69-9.2V34.49h1.564v2.057h-1.564V40.9a1.111,1.111,0,0,0,.193.747,1.037,1.037,0,0,0,.765.211,4.345,4.345,0,0,0,.738-.053v2.118a5.466,5.466,0,0,1-1.67.255,3.1,3.1,0,0,1-2.259-.721,2.954,2.954,0,0,1-.729-2.188v-4.72H97.292V34.49h1.213V32.126ZM109.553,44a3.344,3.344,0,0,1-.281-.853,2.754,2.754,0,0,1-2.285,1.028,3.374,3.374,0,0,1-2.285-.813,2.588,2.588,0,0,1-.94-2.043,2.66,2.66,0,0,1,1.143-2.338,5.821,5.821,0,0,1,3.322-.791h.914v-.5q0-1.316-1.134-1.316a.927.927,0,0,0-1.055,1.042H103.99a2.655,2.655,0,0,1,1.173-2.239,4.931,4.931,0,0,1,2.993-.86,4.323,4.323,0,0,1,2.874.888,3.086,3.086,0,0,1,1.081,2.435v4.21a4.311,4.311,0,0,0,.4,2V44ZM107.7,42.066a1.652,1.652,0,0,0,.918-.237,1.487,1.487,0,0,0,.523-.536V39.772h-.861q-1.547,0-1.547,1.389a.848.848,0,0,0,.272.655A.986.986,0,0,0,107.7,42.066Z" transform="translate(467 1334.913)" fill="#12263f"/>
    <path id="Trazado_245908" data-name="Trazado 245908" d="M41.086,6.2l2.856,8.9,2.848-8.9h4.061V19H47.757V16.012l.3-6.117L44.962,19H42.923l-3.1-9.114.3,6.126V19H37.035V6.2ZM52.3,14.157a5.613,5.613,0,0,1,.554-2.536,3.96,3.96,0,0,1,1.591-1.709,4.791,4.791,0,0,1,2.435-.6,4.373,4.373,0,0,1,3.366,1.323,5.076,5.076,0,0,1,1.23,3.6v.105a4.925,4.925,0,0,1-1.235,3.529A4.384,4.384,0,0,1,56.9,19.176a4.434,4.434,0,0,1-3.261-1.217,4.761,4.761,0,0,1-1.327-3.3Zm2.962.185a3.538,3.538,0,0,0,.413,1.934,1.376,1.376,0,0,0,1.222.615q1.582,0,1.617-2.435v-.3q0-2.558-1.635-2.558-1.485,0-1.608,2.206Zm7.146-.167a5.809,5.809,0,0,1,.976-3.56,3.211,3.211,0,0,1,2.725-1.3,2.731,2.731,0,0,1,2.145,1V5.5h2.971V19H68.561l-.149-1.02a2.8,2.8,0,0,1-2.32,1.2,3.205,3.205,0,0,1-2.689-1.3A5.993,5.993,0,0,1,62.409,14.175Zm2.962.185q0,2.531,1.477,2.531a1.458,1.458,0,0,0,1.406-.826V12.443a1.419,1.419,0,0,0-1.389-.844q-1.371,0-1.485,2.215Zm12.138,4.816a4.889,4.889,0,0,1-3.542-1.305,4.507,4.507,0,0,1-1.354-3.4v-.246a5.84,5.84,0,0,1,.541-2.575,3.955,3.955,0,0,1,1.578-1.727,4.763,4.763,0,0,1,2.461-.611,4.117,4.117,0,0,1,3.164,1.244,4.887,4.887,0,0,1,1.16,3.467v1.151H75.627a2.135,2.135,0,0,0,.694,1.257,2.066,2.066,0,0,0,1.389.457,2.662,2.662,0,0,0,2.2-.984l1.354,1.6a3.784,3.784,0,0,1-1.569,1.217A5.3,5.3,0,0,1,77.508,19.176ZM77.174,11.6q-1.3,0-1.547,1.723h2.988v-.229a1.467,1.467,0,0,0-.36-1.1A1.434,1.434,0,0,0,77.174,11.6ZM85.832,19H82.861V5.5h2.971Zm1.45-4.843a5.613,5.613,0,0,1,.554-2.536,3.96,3.96,0,0,1,1.591-1.709,4.791,4.791,0,0,1,2.435-.6,4.373,4.373,0,0,1,3.366,1.323,5.076,5.076,0,0,1,1.23,3.6v.105a4.925,4.925,0,0,1-1.235,3.529,4.384,4.384,0,0,1-3.344,1.305,4.434,4.434,0,0,1-3.261-1.217,4.761,4.761,0,0,1-1.327-3.3Zm2.962.185a3.538,3.538,0,0,0,.413,1.934,1.376,1.376,0,0,0,1.222.615q1.582,0,1.617-2.435v-.3q0-2.558-1.635-2.558-1.485,0-1.608,2.206ZM28.509,41.891a1.317,1.317,0,0,0,.967-.338,1.241,1.241,0,0,0,.334-.945h2.777a3.288,3.288,0,0,1-1.121,2.566,4.168,4.168,0,0,1-2.887,1,4.22,4.22,0,0,1-3.27-1.3,5.125,5.125,0,0,1-1.2-3.6v-.123a5.792,5.792,0,0,1,.532-2.544,3.872,3.872,0,0,1,1.534-1.7,4.573,4.573,0,0,1,2.373-.593A4.116,4.116,0,0,1,31.5,35.343a3.647,3.647,0,0,1,1.09,2.786H29.81A1.626,1.626,0,0,0,29.45,37a1.244,1.244,0,0,0-.967-.4q-1.151,0-1.345,1.468a10.357,10.357,0,0,0-.062,1.283,4.068,4.068,0,0,0,.343,1.986A1.187,1.187,0,0,0,28.509,41.891Zm4.957-2.733a5.613,5.613,0,0,1,.554-2.536,3.96,3.96,0,0,1,1.591-1.709,4.791,4.791,0,0,1,2.435-.6,4.373,4.373,0,0,1,3.366,1.323,5.076,5.076,0,0,1,1.23,3.6v.105a4.925,4.925,0,0,1-1.235,3.529,4.384,4.384,0,0,1-3.344,1.305A4.434,4.434,0,0,1,34.8,42.958a4.761,4.761,0,0,1-1.327-3.3Zm2.962.185a3.538,3.538,0,0,0,.413,1.934,1.376,1.376,0,0,0,1.222.615q1.582,0,1.617-2.435v-.3q0-2.558-1.635-2.558-1.485,0-1.608,2.206ZM46.667,34.49l.1,1.116a3.225,3.225,0,0,1,2.716-1.292A2.713,2.713,0,0,1,51.7,35.2a4.226,4.226,0,0,1,.76,2.672V44H49.489V38a1.6,1.6,0,0,0-.29-1.059,1.342,1.342,0,0,0-1.055-.338,1.413,1.413,0,0,0-1.292.686V44H43.89V34.49Zm10.881-2.364V34.49h1.564v2.057H57.548V40.9a1.111,1.111,0,0,0,.193.747,1.037,1.037,0,0,0,.765.211,4.345,4.345,0,0,0,.738-.053v2.118a5.466,5.466,0,0,1-1.67.255,3.1,3.1,0,0,1-2.259-.721,2.954,2.954,0,0,1-.729-2.188v-4.72H53.374V34.49h1.213V32.126Zm7.33,12.05a4.889,4.889,0,0,1-3.542-1.305,4.507,4.507,0,0,1-1.354-3.4v-.246a5.84,5.84,0,0,1,.541-2.575A3.955,3.955,0,0,1,62.1,34.925a4.763,4.763,0,0,1,2.461-.611,4.117,4.117,0,0,1,3.164,1.244,4.887,4.887,0,0,1,1.16,3.467v1.151H63a2.135,2.135,0,0,0,.694,1.257,2.066,2.066,0,0,0,1.389.457,2.662,2.662,0,0,0,2.2-.984l1.354,1.6a3.784,3.784,0,0,1-1.569,1.217A5.3,5.3,0,0,1,64.878,44.176ZM64.544,36.6q-1.3,0-1.547,1.723h2.988v-.229a1.467,1.467,0,0,0-.36-1.1A1.434,1.434,0,0,0,64.544,36.6Zm9.387.51,1.38-2.619h3.076l-2.5,4.632L78.51,44H75.417l-1.494-2.812L72.455,44H69.343l2.637-4.878-2.5-4.632H72.6Zm8.859-4.983V34.49h1.564v2.057H82.791V40.9a1.111,1.111,0,0,0,.193.747,1.037,1.037,0,0,0,.765.211,4.345,4.345,0,0,0,.738-.053v2.118a5.466,5.466,0,0,1-1.67.255,3.1,3.1,0,0,1-2.259-.721,2.954,2.954,0,0,1-.729-2.188v-4.72H78.616V34.49h1.213V32.126Zm8.394,10.846a3.054,3.054,0,0,1-2.54,1.2,3,3,0,0,1-2.369-.91,3.826,3.826,0,0,1-.8-2.615V34.49h2.962v6.179a1.065,1.065,0,0,0,1.187,1.222,1.548,1.548,0,0,0,1.45-.729V34.49h2.979V44H91.272ZM101.028,44a3.344,3.344,0,0,1-.281-.853,2.754,2.754,0,0,1-2.285,1.028,3.374,3.374,0,0,1-2.285-.813,2.588,2.588,0,0,1-.94-2.043,2.66,2.66,0,0,1,1.143-2.338A5.821,5.821,0,0,1,99.7,38.19h.914v-.5q0-1.316-1.134-1.316a.927.927,0,0,0-1.055,1.042H95.464a2.655,2.655,0,0,1,1.173-2.239,4.931,4.931,0,0,1,2.993-.86,4.323,4.323,0,0,1,2.874.888,3.086,3.086,0,0,1,1.081,2.435v4.21a4.311,4.311,0,0,0,.4,2V44Zm-1.854-1.934a1.652,1.652,0,0,0,.918-.237,1.487,1.487,0,0,0,.523-.536V39.772h-.861q-1.547,0-1.547,1.389a.848.848,0,0,0,.272.655A.986.986,0,0,0,99.173,42.066ZM108.349,44h-2.971V30.5h2.971Z" transform="translate(1000 1334.913)" fill="#12263f"/>
    <g id="Grupo_948011" data-name="Grupo 948011" transform="translate(564.784 -1654.073)">
      <g id="Grupo_947982" data-name="Grupo 947982" transform="translate(130.216 2765.272)">
        <path id="Trazado_245782" data-name="Trazado 245782" d="M238.726,2852.107H142.32s1.8,10.379,1.6,12.375-18.434,31.531-12.52,30.592c12.29-1.953,14.317-1.849,14.317-1.849s-4.391,23.952,0,26.546,34.331-1.4,34.331-1.4l-3.968,33.992h57.86l-4.76-39.462a59.833,59.833,0,0,1,2.392-25.337C235.161,2876.291,239.719,2859.921,238.726,2852.107Z" transform="translate(-130.216 -2852.107)" fill="#feeed9"/>
        <g id="Grupo_947981" data-name="Grupo 947981" clip-path="url(#clip-path)">
          <path id="Trazado_245783" data-name="Trazado 245783" d="M156.41,2966.323s1.725,3.921,11.959,1.285,38.912-13.179,39.07-10.078-17.787,37.861-17.787,37.861,1.044-21.736-.041-22.2-29.77,6.2-32.561,1.24-.64-8.107-.64-8.107" transform="translate(-142.768 -2903.916)" fill="#fdd8a7" opacity="0.3"/>
          <path id="Trazado_245784" data-name="Trazado 245784" d="M130.972,2933.314s-.1-1.32,2.394-2.731,14.614-.747,14.614.083-3.621,13.973-3.536,13.062.962-10.155.132-10.488-14.231,1.427-13.6.074" transform="translate(-130.579 -2890.475)" fill="#6880e4" opacity="0.3"/>
          <path id="Trazado_245785" data-name="Trazado 245785" d="M329.387,2852.107s-15.287,33.613-15.672,48.042,12.7,38.1,12.7,38.1S321.8,2909,322.95,2901.3s10.389-49.189,10.389-49.189l-3.952-.007" transform="translate(-220.877 -2852.107)" fill="#fdd8a7" opacity="0.3"/>
          <path id="Trazado_245786" data-name="Trazado 245786" d="M167.949,2850s6.55,12.041,14.784,13.593,24.477-12.522,24.477-12.522Z" transform="translate(-148.86 -2851.067)" fill="#fdd8a7" opacity="0.3"/>
        </g>
      </g>
      <g id="Grupo_947984" data-name="Grupo 947984" transform="translate(209.454 2689.023)">
        <path id="Trazado_245788" data-name="Trazado 245788" d="M336.381,2787.048l-49.541-76.086s32.861-28.83,65.757,13.576C383.215,2764.008,336.381,2787.048,336.381,2787.048Z" transform="translate(-286.84 -2701.389)" fill="#feeed9"/>
        <g id="Grupo_947983" data-name="Grupo 947983" transform="translate(0 0)" clip-path="url(#clip-path-2)">
          <path id="Trazado_245789" data-name="Trazado 245789" d="M344.974,2789.3s25.073,1.257,31.929-10.346,2.984-35.37,2.984-35.37,13.233,11.241,16.133,25.876-20.173,40.457-29.27,42.84C366.751,2812.3,350.226,2797.271,344.974,2789.3Z" transform="translate(-315.563 -2722.237)" fill="#fdd8a7" opacity="0.3"/>
        </g>
      </g>
      <path id="Trazado_245791" data-name="Trazado 245791" d="M464.52,3031.092s-.2-1.785-.211-3.408,0-3.968,0-3.968l-7.142.142s.953,5.338.953,5.612-1.579,1.37-1.579,1.37,2.5,2.264,3.722,2.186S464.52,3031.092,464.52,3031.092Z" transform="translate(-161.234 -171.625)" fill="#fe8e9c"/>
      <path id="Trazado_245792" data-name="Trazado 245792" d="M454.134,3038.05l.927,4.724a1.225,1.225,0,0,1-1.22,1.338H435.526a5.078,5.078,0,0,1,.4-2.158c.479-1.118,9.83-3.757,10.229-4.156a22.042,22.042,0,0,0,4.379,1.054A15.574,15.574,0,0,0,454.134,3038.05Z" transform="translate(-150.848 -178.583)" fill="#1c056d"/>
      <path id="Trazado_245793" data-name="Trazado 245793" d="M434.172,3031.289s-.2-1.785-.211-3.408,0-3.967,0-3.967l-7.142.142s.953,5.338.953,5.613-1.579,1.37-1.579,1.37,2.5,2.264,3.722,2.185S434.172,3031.289,434.172,3031.289Z" transform="translate(-146.239 -171.723)" fill="#fe8e9c"/>
      <g id="Grupo_947987" data-name="Grupo 947987" transform="translate(277.665 2781.216)">
        <path id="Trazado_245794" data-name="Trazado 245794" d="M449.656,2920.3s8.128,50.778,7.178,52.109-10.836,1.33-10.836,1.33-8.564-36.5-8.654-43.722S449.656,2920.3,449.656,2920.3Z" transform="translate(-429.415 -2901.744)" fill="#1c056d"/>
        <g id="Grupo_947986" data-name="Grupo 947986" transform="translate(0 0)">
          <path id="Trazado_245795" data-name="Trazado 245795" d="M441.912,2883.622s4.855,5.691,0,18.555-7.553,53.813-9.213,54.19-9.5.453-9.936,0-1.268-37.592-1.061-42.156,2.9-30.589,2.9-30.589Z" transform="translate(-421.67 -2883.622)" fill="#1b3d9e"/>
          <g id="Grupo_947985" data-name="Grupo 947985" clip-path="url(#clip-path-3)">
            <path id="Trazado_245796" data-name="Trazado 245796" d="M432.895,2957h-.009a.265.265,0,0,1-.256-.273c.012-.351,1.148-35.123,2.334-42.8,1.184-7.656,4.481-30.823,4.514-31.056a.265.265,0,0,1,.525.075c-.033.233-3.33,23.4-4.515,31.063-1.182,7.641-2.317,42.382-2.328,42.732A.265.265,0,0,1,432.895,2957Z" transform="translate(-427.085 -2883.138)" fill="#1c056d"/>
          </g>
        </g>
        <path id="Trazado_245798" data-name="Trazado 245798" d="M430.326,2894.271s1.087,6.218,5.42,7.912l.34-.891s-4.365-3.261-4.688-7.549Z" transform="translate(-425.947 -2888.623)" fill="#1c056d"/>
        <path id="Trazado_245799" data-name="Trazado 245799" d="M422.421,3023.029a.392.392,0,0,1,.373-.419c2.048-.095,11.3-.5,11.337.019.041.578-.041,2.359-.454,2.6a37.13,37.13,0,0,1-5.827.536c-1.075,0-4.918-.162-5.124-.536A10.378,10.378,0,0,1,422.421,3023.029Z" transform="translate(-422.041 -2952.177)" fill="#1c056d"/>
        <path id="Trazado_245800" data-name="Trazado 245800" d="M451.435,3020.662a.413.413,0,0,1,.375-.464c2.31-.358,12.749-1.947,12.849-1.441.112.57.22,2.349-.221,2.647a48.141,48.141,0,0,1-6.541,1.282c-1.217.138-5.59.472-5.867.127A9.207,9.207,0,0,1,451.435,3020.662Z" transform="translate(-436.373 -2950.343)" fill="#1c056d"/>
      </g>
      <g id="Grupo_947990" data-name="Grupo 947990" transform="translate(280.204 2716.299)">
        <g id="Grupo_947989" data-name="Grupo 947989" transform="translate(0 3.848)">
          <path id="Trazado_245801" data-name="Trazado 245801" d="M443.6,2767.264c-.856-2.817-9.66-6.464-11.12-2.827,0,0,.34,5.609-1.759,6.1s-4.78.112-3.831.969,3.044,1.1,3.151,1.793-1.372,4.171.279,4.835a7.707,7.707,0,0,0,2.812.177c-.4,2.085-1.22,6.456-1.244,7.2-.032.987,7.18,1.063,8.535.255s-2.02-8.454-2.02-8.454C439.255,2776.367,444.451,2770.08,443.6,2767.264Z" transform="translate(-426.688 -2762.911)" fill="#fe8e9c"/>
          <g id="Grupo_947988" data-name="Grupo 947988" clip-path="url(#clip-path-4)">
            <path id="Trazado_245802" data-name="Trazado 245802" d="M438.8,2792.615a5.656,5.656,0,0,0,2.577-.755s-1.287,2.356-3.209,2.181c0,0,.018-1.171.632-1.426" transform="translate(-432.36 -2777.215)" fill="#e57492"/>
            <path id="Trazado_245803" data-name="Trazado 245803" d="M438.139,2768.273s5.247,2.141,7.914.681-7.527-3.1-7.527-3.1Z" transform="translate(-432.346 -2764.366)" fill="#e57492"/>
            <path id="Trazado_245804" data-name="Trazado 245804" d="M432.341,2785.27a6.946,6.946,0,0,0,2.943-.323s-1.6,2.062-3.237,1.8A3.957,3.957,0,0,1,432.341,2785.27Z" transform="translate(-429.336 -2773.799)" fill="#fff"/>
          </g>
        </g>
        <path id="Trazado_245806" data-name="Trazado 245806" d="M449.915,2763.927c.006-4.484-6.371-5.635-6.371-5.635s-1.963-3.224-7.6-2.974c-2.819.124-1.887.693-.249,1.229a5.979,5.979,0,0,0-4.774,1.142c-2,1.84.947,1.567,2.951,1.226-.022.055-.042.11-.061.166-1.559.532-3.58,1.463-3.029,2.594.46.945,2.071.788,3.487.431,1.148.674,5.2,1.188,5.2,1.188s-1.7,4.165-1.688,4.584,1.048-1.822,2.134-.729c.36.362-.184,2.268-.891,2.49a1.543,1.543,0,0,1-1.373-.339s.427,3.885,2.507,4.257c1.476.265,4.7-2.689,6.411-5.933.58.819,1.17,1.178,1.377-.281a5.514,5.514,0,0,0-.315-2.8c.006-.041.01-.081.015-.121C448.708,2765.622,449.913,2766.435,449.915,2763.927Z" transform="translate(-428.449 -2755.304)" fill="#1b3d9e"/>
      </g>
      <g id="Grupo_947991" data-name="Grupo 947991" transform="translate(269.319 2859.315)">
        <path id="Trazado_245807" data-name="Trazado 245807" d="M423.786,3038.247l.927,4.724a1.226,1.226,0,0,1-1.22,1.339H405.177a5.079,5.079,0,0,1,.4-2.158c.48-1.118,9.83-3.756,10.229-4.155a22.046,22.046,0,0,0,4.379,1.054A15.574,15.574,0,0,0,423.786,3038.247Z" transform="translate(-405.172 -3037.996)" fill="#1b3d9e"/>
        <path id="Trazado_245808" data-name="Trazado 245808" d="M421.879,3039.318s.857.636.907,1.083c.031.28-.2.324-.381.318a.458.458,0,0,1-.3-.122l-1.066-1A.767.767,0,0,1,421.879,3039.318Z" transform="translate(-413.013 -3038.635)" fill="#1c056d"/>
        <path id="Trazado_245809" data-name="Trazado 245809" d="M418.075,3040.521s.857.635.907,1.082c.031.281-.2.324-.381.318a.456.456,0,0,1-.3-.122l-1.066-.995A.766.766,0,0,1,418.075,3040.521Z" transform="translate(-411.133 -3039.229)" fill="#1c056d"/>
        <path id="Trazado_245810" data-name="Trazado 245810" d="M414.62,3041.934s.857.635.907,1.082c.031.281-.2.325-.382.318a.459.459,0,0,1-.3-.122l-1.067-.995A.767.767,0,0,1,414.62,3041.934Z" transform="translate(-409.426 -3039.927)" fill="#1c056d"/>
        <path id="Trazado_245811" data-name="Trazado 245811" d="M410.916,3043.347s.857.635.907,1.082c.031.281-.2.325-.382.319a.459.459,0,0,1-.3-.122l-1.066-1A.766.766,0,0,1,410.916,3043.347Z" transform="translate(-407.596 -3040.625)" fill="#1c056d"/>
      </g>
      <g id="Grupo_947993" data-name="Grupo 947993" transform="translate(244.573 2751.842)">
        <path id="Trazado_245812" data-name="Trazado 245812" d="M364.365,2832.476a19.39,19.39,0,0,1-2.486-1.26c-.129-.215-1.333-5.289-1.978-5.633s.344,3.354,0,3.654-3.642-2.986-3.642-2.986,0,4.356,1.191,5.781c.681.814,4.792,4.163,4.792,4.163Z" transform="translate(-356.259 -2825.56)" fill="#fe8e9c"/>
        <g id="Grupo_947992" data-name="Grupo 947992" clip-path="url(#clip-path-5)">
          <path id="Trazado_245813" data-name="Trazado 245813" d="M356.049,2828.421a14.93,14.93,0,0,1,1.565,2.833c.186.653-1.584-2.105-1.6-2.311A2.517,2.517,0,0,1,356.049,2828.421Z" transform="translate(-356.135 -2826.973)" fill="#e57492"/>
          <path id="Trazado_245814" data-name="Trazado 245814" d="M356.106,2832.939a25.843,25.843,0,0,1,1.43,2.366c-.046.115-1.654-1.4-1.585-1.769A3.946,3.946,0,0,1,356.106,2832.939Z" transform="translate(-356.106 -2829.206)" fill="#e57492"/>
        </g>
      </g>
      <path id="Trazado_245816" data-name="Trazado 245816" d="M417.422,2814.854c-.5-3.788-6.039-8.719-6.039-8.719-1.679,1.785-8.861.823-8.861.823s-8.55,12.17-12.839,23.883c0,0-6.838-5.409-19.726-8.4l-2.68,4.7s19.46,17.555,25.707,15.622a12.726,12.726,0,0,0,4.686-3.311c-.391,3.9-.613,7.084-.337,7.78.708,1.786,8.368-.357,13.371-.786s5.86-.072,4.216-3.534S417.923,2818.642,417.422,2814.854Z" transform="translate(-117.13 -64.12)" fill="#f88f05"/>
      <path id="Trazado_245817" data-name="Trazado 245817" d="M427.027,2856.381s8.962-10.893,10.443-15.973c0,0-4.934,17.792-10.778,19.731Z" transform="translate(-146.487 -81.054)" fill="#c67204"/>
      <path id="Trazado_245818" data-name="Trazado 245818" d="M228.492,2804.879s12.353,9.187,14.412,8.73,12.108-15.064,12.108-15.064l4.646,3.027s-8.025,22.142-12.107,22.878-13.414-1.938-13.414-1.938Z" transform="translate(-48.557 -60.37)" fill="#f88f05"/>
      <path id="Trazado_245819" data-name="Trazado 245819" d="M228.32,2811.065s11.732,12.729,13.191,19.7l-9.556-1.127s-4.775-15.537-3.635-18.572" transform="translate(-48.385 -66.556)" fill="#c67204"/>
      <path id="Trazado_245820" data-name="Trazado 245820" d="M271.808,2801.223s-5.5,5.822-7.112,9.373a4.531,4.531,0,0,1,.679,3.692c-.6,1.959-1.356,1.952-1.356,1.952s1.356,3.033-2.462,3.756c0,0-.05,3.007-4.673,3.121h0l-.426-6.5,11.135-16.843S270.853,2799.666,271.808,2801.223Z" transform="translate(-61.57 -60.977)" fill="#c67204"/>
      <path id="Trazado_245821" data-name="Trazado 245821" d="M287.7,2797.8s1.634-2.518,1.875-2.763,3.324-3.252,3.159-3.464c-.576-.742-3.4,2.106-3.4,2.106l-3.27,3.054Z" transform="translate(-77.001 -56.866)" fill="#fe8e9c"/>
      <path id="Trazado_245822" data-name="Trazado 245822" d="M279.636,2798.545s5.073,2.768,5.073,3.127-.68,2.247-1.041,2.125-5.372-2.9-5.339-3.493S279.636,2798.545,279.636,2798.545Z" transform="translate(-73.181 -60.37)" fill="#fff"/>
      <path id="Trazado_245823" data-name="Trazado 245823" d="M237.816,2844.254l-5.324,4.363,7.058-.132-1.734-4.231" transform="translate(-50.534 -82.955)" fill="#c67204"/>
      <path id="Trazado_245824" data-name="Trazado 245824" d="M180.138,2797.8s-10.666,8.929-11.025,14.052,5.512,13.431,5.512,13.431h33.152s-5.4-17.588-8.632-20.771-10.306-5.585-10.306-5.585Z" transform="translate(-19.21 -60.001)" fill="#f88f05"/>
      <g id="Grupo_948000" data-name="Grupo 948000" transform="translate(159.22 2709.387)">
        <g id="Grupo_947995" data-name="Grupo 947995" transform="translate(9.614 3.951)">
          <path id="Trazado_245825" data-name="Trazado 245825" d="M208.963,2749.511a4.151,4.151,0,0,1,2.543.36,3.431,3.431,0,0,1,1.695,1.9c.459,1.333-.01,2.876.559,4.166.349.792,1.046,1.379,1.463,2.137a3.442,3.442,0,0,1,.417,1.881c-.106,1.582-1.272,2.877-2.469,3.917a8.081,8.081,0,0,0-1.67-2.079c-1.958-1.969-3.877-4.134-4.662-6.8a5.978,5.978,0,0,1-.208-2.761,3.549,3.549,0,0,1,.485-1.279c.1-.151.136-.323.226-.479a1.566,1.566,0,0,1,.372-.432A2.668,2.668,0,0,1,208.963,2749.511Z" transform="translate(-206.549 -2749.451)" fill="#1b3d9e"/>
          <g id="Grupo_947994" data-name="Grupo 947994" clip-path="url(#clip-path-6)">
            <path id="Trazado_245826" data-name="Trazado 245826" d="M220.51,2770.016s-1.787-6.485-3.043-7.317.565,8.213.828,8.134S219.957,2770.7,220.51,2770.016Z" transform="translate(-211.727 -2755.97)" fill="#1c056d"/>
          </g>
        </g>
        <g id="Grupo_947998" data-name="Grupo 947998" transform="translate(1.779 8.192)">
          <g id="Grupo_947997" data-name="Grupo 947997">
            <path id="Trazado_245828" data-name="Trazado 245828" d="M193.759,2759.894c1-1.183,4.673-2.48,7.634-1.927a4.237,4.237,0,0,1,3.334,3.283c.816,3.756,2.438,12.619-.234,13.431a5.86,5.86,0,0,1-3.933-.508c-.272,2.286-1.355,7.491-1.551,8.188-.275.978-6.753-2.367-7.872-3.542-.727-.765,4.205-8.874,4.205-8.874C194.7,2768.4,192.361,2761.54,193.759,2759.894Z" transform="translate(-191.063 -2757.835)" fill="#fe8e9c"/>
            <g id="Grupo_947996" data-name="Grupo 947996" clip-path="url(#clip-path-7)">
              <path id="Trazado_245829" data-name="Trazado 245829" d="M206.693,2787.564a27.241,27.241,0,0,1-3.216-2.624s.044,6.365,2.985,6.882l.231-4.259" transform="translate(-197.197 -2771.228)" fill="#e57492"/>
              <path id="Trazado_245830" data-name="Trazado 245830" d="M210.119,2765.428a2.236,2.236,0,0,1-1.914.471,3.508,3.508,0,0,1-.48-.179.642.642,0,0,1-.233-.143.218.218,0,0,1-.04-.252,2.919,2.919,0,0,1-2.485.6,4.842,4.842,0,0,0-1.907,2.39,3.492,3.492,0,0,1,.139-2.393,6.6,6.6,0,0,1,1.372-2.011,4.759,4.759,0,0,1,.874-.761,4.9,4.9,0,0,1,2.487-.626,5.826,5.826,0,0,1,1.947.193,2.824,2.824,0,0,1,1.324.821.327.327,0,0,1,.095.27.994.994,0,0,1-.135.287,6.145,6.145,0,0,1-.421.682A3.383,3.383,0,0,1,210.119,2765.428Z" transform="translate(-196.916 -2760.147)" fill="#e57492"/>
            </g>
          </g>
          <path id="Trazado_245832" data-name="Trazado 245832" d="M214.347,2771.258s1.9,3.073,1.5,3.57-1.415-.7-1.724-.62-.463.573-.082.63,1.862.787,2.016.086S215.93,2773.693,214.347,2771.258Z" transform="translate(-202.304 -2764.467)" fill="#e57492"/>
          <path id="Trazado_245833" data-name="Trazado 245833" d="M216.952,2781.777a1.826,1.826,0,0,1-2.485-.14,1.3,1.3,0,0,0,1.112,1.124A1.055,1.055,0,0,0,216.952,2781.777Z" transform="translate(-202.627 -2769.595)" fill="#fff"/>
        </g>
        <path id="Trazado_245834" data-name="Trazado 245834" d="M189.253,2749.289a20.75,20.75,0,0,1,5.006-2.606c-.063-.028-.125-.058-.186-.091a2.542,2.542,0,0,1-1.249-1.656,2.45,2.45,0,0,1,.458-2.018,3.266,3.266,0,0,1,1.269-.923,3.877,3.877,0,0,1,1.459-.352,3.039,3.039,0,0,1,2.617,1.39,2.846,2.846,0,0,1,.015,2.943,1.7,1.7,0,0,1-.48.518c-.021.014-.041.024-.061.035a5.527,5.527,0,0,1,2.416,1.5c3.666,3.761,2.382,4.294,2.382,4.294s.432,2-2.026,2.325c-1.537.2-1.087-.382-.534-.846a8.711,8.711,0,0,1-3.02,1.61c-.963,0,.631-1.893.631-1.893s-3.022,2.99-2.69,4.352c0,0-.465-2.023-1.229-1.792s-1.03,1.527-.664,2.357,2.026.7,2.026.7l-2.021,3.155s-2.165.837-4.119-2.251S186.675,2750.965,189.253,2749.289Z" transform="translate(-187.546 -2741.642)" fill="#1b3d9e"/>
        <path id="Trazado_245835" data-name="Trazado 245835" d="M203.732,2750.208s-1.274,1.49-4.383.707l-1.5.58S201.748,2753.816,203.732,2750.208Z" transform="translate(-192.635 -2745.875)" fill="#1c056d"/>
        <g id="Grupo_947999" data-name="Grupo 947999" transform="translate(0.753 28.409)">
          <path id="Trazado_245836" data-name="Trazado 245836" d="M197.267,2802.244s-.147,4.926-2.329,4.07-8.229-5.478-4.949-8.517c0,0,.78.584,1.251.884S197.267,2802.244,197.267,2802.244Z" transform="translate(-189.033 -2797.797)" fill="#fff"/>
          <path id="Trazado_245837" data-name="Trazado 245837" d="M206.769,2803.2s1.63,2.8,2.46,2.358.455-4.321.24-4.462-1.249-1.061-2.017-1.077Z" transform="translate(-197.796 -2798.897)" fill="#fff"/>
        </g>
      </g>
      <g id="Grupo_948007" data-name="Grupo 948007" transform="translate(185.579 2700.651)">
        <g id="Grupo_948005" data-name="Grupo 948005" transform="translate(0 0)">
          <path id="Trazado_245838" data-name="Trazado 245838" d="M245.1,2833.069s-2.46,4.14,4.2,6.3c0,0,5.192,1.459,6.79-3.472Z" transform="translate(-242.12 -2778.079)" fill="#1c056d"/>
          <g id="Grupo_948002" data-name="Grupo 948002">
            <path id="Trazado_245839" data-name="Trazado 245839" d="M267.075,2726.614s-17.2-8.562-24.625,7.8c-7.828,17.241,3.308,24.723,2.571,36.535l10.348,2.724s2.588-5.684,9.826-11.653C274.018,2754.74,281.253,2735.334,267.075,2726.614Z" transform="translate(-239.648 -2724.374)" fill="#f9c438"/>
            <g id="Grupo_948001" data-name="Grupo 948001" clip-path="url(#clip-path-8)">
              <path id="Trazado_245840" data-name="Trazado 245840" d="M241.074,2783.282s7.378,10.885,11.639,11.619,13.113-2.459,13.113-2.459-8.856,11.667-9.627,11.7-10.788-2.606-11.049-2.986S241.227,2784.1,241.074,2783.282Z" transform="translate(-240.352 -2753.48)" fill="#f6ab36"/>
            </g>
          </g>
          <g id="Grupo_948004" data-name="Grupo 948004" transform="translate(1.155 46.446)">
            <path id="Trazado_245842" data-name="Trazado 245842" d="M258.158,2821.992h0a2.441,2.441,0,0,0-1.739-2.983l-10.439-2.748A2.441,2.441,0,0,0,243,2818h0a2.44,2.44,0,0,1-.985,3.74,2.442,2.442,0,0,0,1.74,2.983l10.439,2.748a26.244,26.244,0,0,1,3.967-5.481Z" transform="translate(-241.931 -2816.18)" fill="#d4dfff"/>
            <g id="Grupo_948003" data-name="Grupo 948003" clip-path="url(#clip-path-9)">
              <path id="Trazado_245843" data-name="Trazado 245843" d="M242.267,2820.437a14.671,14.671,0,0,0,3.366,1.646,107.847,107.847,0,0,0,12.144,2.012h0a1.807,1.807,0,0,1-1.413,1.628h0a1.612,1.612,0,0,1,.569,1.581h0s-9.777-2.474-10.093-2.525-5.679-.768-5.679-.768.6-2.131,1.244-1.963C242.4,2822.048,241.918,2820.77,242.267,2820.437Z" transform="translate(-241.551 -2818.283)" fill="#6880e4" opacity="0.3"/>
            </g>
          </g>
        </g>
        <g id="Grupo_948006" data-name="Grupo 948006" transform="translate(7.205 10.824)">
          <path id="Trazado_245845" data-name="Trazado 245845" d="M262.713,2761.552a5.7,5.7,0,1,1,6.96-4.06A5.7,5.7,0,0,1,262.713,2761.552Zm11.46-4.484-1.5-.4a8.441,8.441,0,0,0-.479-3.512l1.341-.781a.354.354,0,0,0,.127-.484l-1.212-2.078a.354.354,0,0,0-.484-.127l-1.341.782a8.436,8.436,0,0,0-2.822-2.146l.4-1.5a.355.355,0,0,0-.252-.433l-2.326-.612a.354.354,0,0,0-.432.252l-.4,1.5a8.428,8.428,0,0,0-3.513.478l-.782-1.341a.354.354,0,0,0-.484-.127l-2.078,1.212a.353.353,0,0,0-.127.484l.782,1.341a8.43,8.43,0,0,0-2.145,2.821l-1.5-.4a.354.354,0,0,0-.433.252l-.612,2.326a.355.355,0,0,0,.252.433l1.5.4a8.43,8.43,0,0,0,.478,3.512l-1.341.782a.353.353,0,0,0-.127.483l1.212,2.078a.354.354,0,0,0,.484.128l1.341-.782a8.426,8.426,0,0,0,2.822,2.146l-.4,1.5a.353.353,0,0,0,.252.432l2.326.612a.353.353,0,0,0,.432-.252l.4-1.5a8.428,8.428,0,0,0,3.512-.478l.782,1.341a.354.354,0,0,0,.484.127l2.078-1.212a.354.354,0,0,0,.127-.484l-.782-1.341a8.426,8.426,0,0,0,2.146-2.822l1.5.4a.354.354,0,0,0,.432-.252l.613-2.326A.353.353,0,0,0,274.173,2757.068Z" transform="translate(-253.89 -2745.769)" fill="#fff"/>
        </g>
      </g>
      <path id="Trazado_245846" data-name="Trazado 245846" d="M179.684,2838.7s4.452,9.74,12.791,8.159,23.5-16.125,23.5-16.125l-1.72-5.775s-19.853,8.779-20.756,7.831-6.12-7.831-6.12-7.831S177.368,2833.7,179.684,2838.7Z" transform="translate(-24.27 -73.421)" fill="#f88f05"/>
      <path id="Trazado_245847" data-name="Trazado 245847" d="M216.906,2828.034s-12.546,5.383-15.4,5.515-5.959-6.585-5.959-6.585,3.905,5.21,5.678,4.944S216.3,2826.5,216.3,2826.5Z" transform="translate(-32.279 -74.181)" fill="#c67204"/>
      <path id="Trazado_245848" data-name="Trazado 245848" d="M248.963,2822.861s1.158-.666,1.411-.821,2.99-3.548,3.459-3.424c1.006.265-1.526,3.177-.405,3.208,0,0,6.475-.935,6.506-.53s-2.521,1.215-4.856,1.775c0,0,5.74-.84,6.637-.467s-5.64,2.054-5.92,2.054,4.762-.374,5.136,0-5.7,1.271-5.7,1.271a16.127,16.127,0,0,1,2.98,1.313c.164.312-4.754-.561-5.564-.561s-2.486.217-2.486.217Z" transform="translate(-58.672 -70.285)" fill="#fe8e9c"/>
      <path id="Trazado_245849" data-name="Trazado 245849" d="M246.314,2824.929s1.989,5.764,1.93,6.078-1.888,1.652-2.007,1.363-2.06-6.115-2.008-6.529S246.094,2824.745,246.314,2824.929Z" transform="translate(-56.332 -73.391)" fill="#fff"/>
      <path id="Trazado_245850" data-name="Trazado 245850" d="M316.773,3050.486H130.538c-.178,0-.321-.2-.321-.454s.144-.454.321-.454H316.773c.178,0,.322.2.322.454S316.951,3050.486,316.773,3050.486Z" transform="translate(0 -184.403)" fill="#1c056d"/>
      <g id="Grupo_948009" data-name="Grupo 948009" transform="translate(303.659 2687.563)">
        <path id="Trazado_245851" data-name="Trazado 245851" d="M508.762,2699.231c-.732-1.464-34.331-.323-34.775,0-2.013,1.464-.183,19.584,0,20.316.043.173,1.922.284,4.786.35-1.356,3.671-3.066,8.366-2.746,8.574.955.621,5.367-4.885,8.86-8.5,9.857.035,22.966-.192,23.875-.419C510.226,2719.181,509.494,2700.7,508.762,2699.231Z" transform="translate(-473.05 -2698.503)" fill="#fff7ec"/>
        <g id="Grupo_948008" data-name="Grupo 948008" transform="translate(5.44 8.166)">
          <path id="Trazado_245852" data-name="Trazado 245852" d="M487.13,2718.188a1.664,1.664,0,1,1-1.7-1.629A1.664,1.664,0,0,1,487.13,2718.188Z" transform="translate(-483.803 -2715.59)" fill="#c67204"/>
          <circle id="Elipse_4908" data-name="Elipse 4908" cx="1.664" cy="1.664" r="1.664" transform="translate(8.044 0.804)" fill="#c67204"/>
          <circle id="Elipse_4909" data-name="Elipse 4909" cx="1.664" cy="1.664" r="1.664" transform="matrix(0.547, -0.837, 0.837, 0.547, 15.449, 2.787)" fill="#c67204"/>
          <circle id="Elipse_4910" data-name="Elipse 4910" cx="1.664" cy="1.664" r="1.664" transform="translate(24.133 0.474)" fill="#c67204"/>
        </g>
      </g>
      <g id="Grupo_948010" data-name="Grupo 948010" transform="translate(172.28 2676.361)">
        <path id="Trazado_245853" data-name="Trazado 245853" d="M266.372,2696.456s-1.608-13.895,0-20.1C266.372,2676.361,267.406,2693.011,266.372,2696.456Z" transform="translate(-239.2 -2676.361)" fill="#f9c438"/>
        <path id="Trazado_245854" data-name="Trazado 245854" d="M240.974,2708.234s-3.86-9.536-10.9-15.212C230.076,2693.022,235.413,2702.458,240.974,2708.234Z" transform="translate(-221.62 -2684.593)" fill="#f9c438"/>
        <path id="Trazado_245855" data-name="Trazado 245855" d="M213.361,2720.578a26.663,26.663,0,0,0,13,6.921A136.242,136.242,0,0,0,213.361,2720.578Z" transform="translate(-213.361 -2698.208)" fill="#f9c438"/>
        <path id="Trazado_245856" data-name="Trazado 245856" d="M256.883,2708.317s-1.741-7.417-2.994-9.507C253.888,2698.81,253.714,2702.316,256.883,2708.317Z" transform="translate(-233.384 -2687.453)" fill="#f9c438"/>
        <path id="Trazado_245857" data-name="Trazado 245857" d="M236.633,2720.559s-4.992-5.756-7.073-7.023C229.56,2713.536,231.036,2716.721,236.633,2720.559Z" transform="translate(-221.365 -2694.729)" fill="#f9c438"/>
        <path id="Trazado_245858" data-name="Trazado 245858" d="M227.807,2741.363s-7.558-.958-9.954-.513C217.853,2740.85,221.078,2742.238,227.807,2741.363Z" transform="translate(-215.58 -2708.166)" fill="#f9c438"/>
      </g>
    </g>
  </g>
</svg>
