<svg xmlns="http://www.w3.org/2000/svg" xmlns:xlink="http://www.w3.org/1999/xlink" width="1600" height="220" viewBox="0 0 1600 220">
  <defs>
    <clipPath id="clip-path">
      <path id="Recurso_1" data-name="Recurso 1" d="M0,0H1600V220H0Z" transform="translate(0 69)" fill="#ffd817"/>
    </clipPath>
    <filter id="Trazado_113912" x="922.5" y="-5.493" width="145.162" height="117.807" filterUnits="userSpaceOnUse">
      <feOffset dy="3" input="SourceAlpha"/>
      <feGaussianBlur stdDeviation="3" result="blur"/>
      <feFlood flood-opacity="0.161"/>
      <feComposite operator="in" in2="blur"/>
      <feComposite in="SourceGraphic"/>
    </filter>
    <filter id="Trazado_113913" x="1507.628" y="72.519" width="277.787" height="277.786" filterUnits="userSpaceOnUse">
      <feOffset dy="3" input="SourceAlpha"/>
      <feGaussianBlur stdDeviation="3" result="blur-2"/>
      <feFlood flood-opacity="0.161"/>
      <feComposite operator="in" in2="blur-2"/>
      <feComposite in="SourceGraphic"/>
    </filter>
    <filter id="Trazado_113914" x="1001.119" y="-5.493" width="253.076" height="174.025" filterUnits="userSpaceOnUse">
      <feOffset dy="3" input="SourceAlpha"/>
      <feGaussianBlur stdDeviation="3" result="blur-3"/>
      <feFlood flood-opacity="0.161"/>
      <feComposite operator="in" in2="blur-3"/>
      <feComposite in="SourceGraphic"/>
    </filter>
  </defs>
  <g id="Grupo_83763" data-name="Grupo 83763" transform="translate(0 -69)">
    <g id="Grupo_80266" data-name="Grupo 80266">
      <g id="Grupo_53028" data-name="Grupo 53028">
        <g id="Grupo_49020" data-name="Grupo 49020" transform="translate(0 69)">
          <g id="Group_1153" data-name="Group 1153">
            <path id="Recurso_1-2" data-name="Recurso 1" d="M0,0H1600V220H0Z" fill="#ffd817"/>
          </g>
        </g>
      </g>
      <g id="Enmascarar_grupo_72" data-name="Enmascarar grupo 72" clip-path="url(#clip-path)">
        <g id="Grupo_80265" data-name="Grupo 80265" transform="translate(153.353 -460.593)">
          <g id="Grupo_80262" data-name="Grupo 80262" transform="translate(-153.353 -1.273)" opacity="0.11">
            <path id="Trazado_113909" data-name="Trazado 113909" d="M1320,658.692v397.026l-1320,.99V720.656H43.387v-70.85h83.967v60.139H153V598.725h5.573v-7.778h1v7.778h20.25v-7.778h1v7.778H209.51v-7.778h1v7.778h18.046v-7.778h1v7.778h7.406V702.543h28.34V685.752l33.43.152V658.692h6.725v-5.385h.89v5.385h25.814v.006h5.163v-5.391h.889V658.7h6.225v54.11h39.8v19.915h22.121V721.161h20.52V675.249h10.225V653.834h1.547v21.416h24.524V635.108h2.406v40.142H481.8v-.555h-.021V669.6h.021v-4.822h-.021v-8.021h.021v-5.125h-.021v-8.021h.021v-5.125h-.021v-8.02h.021V624.93h-.021v-8.023h.021V609.86h-.021v-8.022h.021v-5.315h4.835v-6h.776v6h35.808v-6h.771v6h6.537v41.963l4.6.029v-.029h-.037v-8.02h.037V624.93h-.037v-8.023h.037v-5.516h-.037v-8.023h.037v-.022h43.422v.022h7.466c.383.216.771.424,1.159.638v45.8h31.742v60.139h25.641V598.725h5.58v-7.778h1v7.778h20.25v-7.778h1v7.778h28.677v-7.778h1v7.778H720.11v-7.778h1v7.778h7.413V702.543h28.341V685.752l33.43.152V658.692h6.726v-5.385h.89v5.385h25.812v.006h5.158v-5.391h.89V658.7H836v54.11h39.8v19.915h22.122V721.161h20.514V675.249h10.229V653.834h1.547v21.416H954.73V635.108h2.409v40.142h16.22v-.555h-.026V669.6h.026v-4.822h-.026v-8.021h.026v-5.125h-.026v-8.021h.026v-5.125h-.026v-8.02h.026V624.93h-.026v-8.023h.026V609.86h-.026v-8.022h.026v-5.315h4.833v-6h.776v6h35.8v-6h.776v6h6.534v41.963l4.6.029v-.029h-.038v-8.02h.038V624.93h-.038v-8.023h.038v-5.516h-.038v-8.023h.038v-.022h43.426v.022h7.456c.388.216.772.424,1.159.638v45.8h53.283v60.145h25.643V598.725h5.574v-7.778h1v7.778h20.25v-7.778h1v7.778h28.677v-7.778h1v7.778h26.459V702.549h28.341v-16.8l33.429.152V658.692h6.726v-5.385h.89v5.385Z" fill="#ef685c"/>
          </g>
          <g id="Grupo_80263" data-name="Grupo 80263" transform="translate(907.585 530.098)">
            <g id="g2EdHZ.tif" transform="translate(0)">
              <path id="Trazado_113910" data-name="Trazado 113910" d="M1113.626,496.53H202.246l525.338,525.337h386.042Z" transform="translate(-202.246 -496.53)"/>
            </g>
          </g>
          <g id="Grupo_80264" data-name="Grupo 80264" transform="translate(1070.481 473.586)" style="isolation: isolate">
            <path id="Trazado_113911" data-name="Trazado 113911" d="M524.493,811.292a118.9,118.9,0,0,1-37.518-6c-33.821-11.242-62.634-39.466-77.075-75.5-6.475-16.145-6.042-32.907-5.623-49.119.441-17.069.857-33.193-7.394-45.51-8.005-11.941-19.32-12.564-38.631-12.636a169.559,169.559,0,0,1-21.094-.97c-32.338-4.155-60.811-27.789-70.853-58.8s-.82-66.851,22.946-89.171l16.862,17.956c-16.695,15.678-23.429,41.843-16.375,63.629s27.843,39.04,50.557,41.961a149.295,149.295,0,0,0,18.047.768c19.3.071,43.323.163,59,23.557,12.618,18.828,12.057,40.626,11.559,59.856-.372,14.345-.719,27.892,3.86,39.318,11.781,29.394,34.954,52.306,61.983,61.289,37.4,12.434,82.486-.838,107.188-31.56,14.919-18.559,23.01-42.05,31.582-66.917,11.062-32.114,22.505-65.319,50.047-88.043,28.636-23.618,70.587-30.444,109.494-17.8,41.732,13.567,69.752,44.358,85.91,67.8,8.335,12.094,15.564,25.062,22.557,37.6,14.34,25.707,27.885,49.993,49.617,65.893a90.371,90.371,0,0,0,131.063-26.8l21.177,12.576A115,115,0,0,1,936.6,768.77C910.518,749.693,895.01,721.887,880.013,695c-6.714-12.037-13.655-24.485-21.328-35.616-19.786-28.707-45.8-49.432-73.245-58.353-30.5-9.911-64.338-4.663-86.206,13.377-22.19,18.306-32.025,46.845-42.434,77.063-8.882,25.771-18.062,52.422-35.673,74.326C597.76,794.859,561.247,811.292,524.493,811.292Z" transform="translate(-262.291 -473.586)" fill="#ffd817"/>
          </g>
          <g transform="matrix(1, 0, 0, 1, -153.35, 529.59)" filter="url(#Trazado_113912)">
            <path id="Trazado_113912-2" data-name="Trazado 113912" d="M204.405,496.53H149.7l94.142,94.142a19.344,19.344,0,0,0,27.355-27.357Z" transform="translate(781.8 -496.02)" fill="#535353"/>
          </g>
          <g transform="matrix(1, 0, 0, 1, -153.35, 529.59)" filter="url(#Trazado_113913)">
            <path id="Trazado_113913-2" data-name="Trazado 113913" d="M756.674,687.174,557.438,487.937a30.276,30.276,0,0,0-42.816,0h0a30.279,30.279,0,0,0,0,42.818L713.856,729.989a30.279,30.279,0,0,0,42.818,0h0A30.276,30.276,0,0,0,756.674,687.174Z" transform="translate(1010.87 -400.55)" fill="#fff"/>
          </g>
          <g transform="matrix(1, 0, 0, 1, -153.35, 529.59)" filter="url(#Trazado_113914)">
            <path id="Trazado_113914-2" data-name="Trazado 113914" d="M339.715,496.53h-158.1L321.268,636.182a55.9,55.9,0,0,0,79.05-79.05Z" transform="translate(828.5 -496.02)" fill="#f88f05"/>
          </g>
          <path id="Trazado_113915" data-name="Trazado 113915" d="M1102.252,482.651h-28.979a4.687,4.687,0,0,0-3.313,1.372l-20.491,20.491a4.687,4.687,0,0,0-1.372,3.313v28.979a4.686,4.686,0,0,0,1.372,3.313l20.491,20.491a4.687,4.687,0,0,0,3.313,1.372h28.979a4.685,4.685,0,0,0,3.313-1.372l20.491-20.491a4.686,4.686,0,0,0,1.372-3.313V507.828a4.687,4.687,0,0,0-1.372-3.313l-20.491-20.491A4.685,4.685,0,0,0,1102.252,482.651Z" transform="translate(-292.702 445.47)" fill="none" stroke="#fff" stroke-width="5"/>
          <rect id="Rectángulo_33919" data-name="Rectángulo 33919" width="1377.505" height="459.168" transform="translate(66.642 560.814)" fill="none"/>
        </g>
      </g>
    </g>
  </g>
</svg>
