<svg xmlns="http://www.w3.org/2000/svg" xmlns:xlink="http://www.w3.org/1999/xlink" width="190" height="198.328" viewBox="0 0 190 198.328">
  <defs>
    <clipPath id="clip-path">
      <rect id="Rectángulo_33860" data-name="Rectángulo 33860" width="190" height="190" transform="translate(285 4627)"/>
    </clipPath>
  </defs>
  <g id="Grupo_82786" data-name="Grupo 82786" transform="translate(-354 -739.672)">
    <g id="Enmascarar_grupo_53" data-name="Enmascarar grupo 53" transform="translate(69 -3879)" clip-path="url(#clip-path)">
      <g id="senal-de-stop_1_" data-name="senal-de-stop (1)" transform="translate(285 4627)">
        <path id="Trazado_113716" data-name="Trazado 113716" d="M190,95a95.019,95.019,0,0,1-82.658,94.205,96.3,96.3,0,0,1-24.688,0A95.023,95.023,0,0,1,.148,100.316Q0,97.676,0,95a95,95,0,1,1,190,0Zm0,0" fill="#69b8d4"/>
        <path id="Trazado_113717" data-name="Trazado 113717" d="M120.376,102.1a6.338,6.338,0,0,1,6.338-6.339H180.13a6.339,6.339,0,0,1,0,12.678H162.852a6.338,6.338,0,1,0,0,12.677h1.761a6.339,6.339,0,1,1,0,12.678H113.418a6.338,6.338,0,0,1-6.338-6.339,6.339,6.339,0,0,0-6.339-6.339H98.98a6.338,6.338,0,1,1,0-12.677h15.057a6.339,6.339,0,0,0,6.339-6.339Zm0,0" fill="#8cd2e5"/>
        <path id="Trazado_113718" data-name="Trazado 113718" d="M32.99,68.625a6.34,6.34,0,0,1-6.339,6.336H9.372a6.34,6.34,0,0,0,0,12.679h1.761a6.338,6.338,0,1,1,0,12.675H.148Q0,97.676,0,95A94.809,94.809,0,0,1,5.785,62.286H26.651a6.339,6.339,0,0,1,6.339,6.339Zm0,0" fill="#8cd2e5"/>
        <path id="Trazado_113719" data-name="Trazado 113719" d="M49.1,125.595a6.339,6.339,0,0,1,6.339-6.339h53.416a6.338,6.338,0,0,1,0,12.677H91.577a6.339,6.339,0,0,0,0,12.678H93.34a6.338,6.338,0,0,1,0,12.677H42.145a6.339,6.339,0,0,1-6.339-6.339,6.338,6.338,0,0,0-6.339-6.338H27.706a6.339,6.339,0,0,1,0-12.678H42.762a6.339,6.339,0,0,0,6.339-6.338Zm0,0" fill="#8cd2e5"/>
      </g>
    </g>
    <g id="guardian" transform="translate(383.063 735.672)">
      <path id="Trazado_120036" data-name="Trazado 120036" d="M44.1,48.59s4.444,12.026-4.594,12.7c-9,.672-4.706-10.345-4.706-10.345Z" transform="translate(51.276 121.94)" fill="#212121"/>
      <path id="Trazado_120037" data-name="Trazado 120037" d="M50.971,105.81,49.627,28.8H32.41l1.232,12.362c.187,1.942.56,3.884.934,5.826A106.054,106.054,0,0,1,36.07,76.231,126.94,126.94,0,0,0,37,105.81a21.81,21.81,0,0,0,13.968,0Z" transform="translate(47.541 67.821)" fill="#1a2e6b"/>
      <path id="Trazado_120038" data-name="Trazado 120038" d="M41.794,106.791a10.292,10.292,0,0,1-2.353-.373,19.385,19.385,0,0,1-2.428-.635A126.94,126.94,0,0,1,36.08,76.2a104.616,104.616,0,0,0-1.494-29.243,50.491,50.491,0,0,1-.934-5.789L32.42,28.81h8.067Z" transform="translate(47.568 67.848)" opacity="0.1"/>
      <path id="Trazado_120039" data-name="Trazado 120039" d="M43.819,13.22l1.867,2.838L37.918,30.922,30.71,16.058l1.867-2.838Z" transform="translate(42.892 25.214)" fill="#1a2e6b"/>
      <path id="Trazado_120040" data-name="Trazado 120040" d="M49.078,26.269c-4-3.585-4.444-9.15-4.78-14.789H34.96c-.336,5.639-.784,11.2-4.78,14.789Z" transform="translate(41.442 20.456)" fill="#ddb69b"/>
      <path id="Trazado_120041" data-name="Trazado 120041" d="M45.814,19.87s3.436,10.308,3.959,13.594c.9,5.378.672,22.856.672,22.856l-5.154.486c-.9-8.926-3.473-14.229-3.511-20.2A42.354,42.354,0,0,1,37,22.671Z" transform="translate(60.093 43.4)" fill="#ebc6ab"/>
      <path id="Trazado_120042" data-name="Trazado 120042" d="M17.7,14.963S30.137,28.11,35.4,30.948c2.95,1.569,12.922,3.361,12.922,3.361l.523-10.158c-2.316-1.158-5.826-1.606-9.785-1.755-6.5-5.154-9.822-4.818-19.084-11.466Z" transform="translate(7.313 18.951)" fill="#ebc6ab"/>
      <path id="Trazado_120043" data-name="Trazado 120043" d="M25.842,14.272a54.467,54.467,0,0,1,14.6.187L42.5,28.726a89.752,89.752,0,0,1-18.6-3.287,37.78,37.78,0,0,0,1.942-11.167Z" transform="translate(24.268 27)" fill="#1a2e6b"/>
      <path id="Trazado_120044" data-name="Trazado 120044" d="M39.4,48.4s2.876,11.764-5.714,11.428S30.324,49.6,30.324,49.6Z" transform="translate(37.526 121.421)" fill="#212121"/>
      <path id="Trazado_120045" data-name="Trazado 120045" d="M47.328,30.475l-16.657-1.9S28.506,55.2,28.394,64.087c-.112,10.084,1.755,40.26,1.755,40.26l11.727.075L42.548,56.8a49.058,49.058,0,0,1,1.158-9.9Z" transform="translate(36.544 67.192)" fill="#1a2e6b"/>
      <path id="Trazado_120046" data-name="Trazado 120046" d="M47.289,30.475v.037l-9.15-1.046S35.973,56.057,35.9,64.946c-.149,9.113,1.382,34.7,1.681,39.513l-7.432-.075s-1.83-30.214-1.755-40.3C28.5,55.2,30.67,28.57,30.67,28.57Z" transform="translate(36.546 67.192)" opacity="0.1"/>
      <path id="Trazado_120047" data-name="Trazado 120047" d="M41.491,14.83c4.78,2.5,7.357,12.735,9.411,24.873-2.764,2.278-6.461,3.436-10.532,4.071L36.15,28.462Z" transform="translate(57.769 29.617)" fill="#1a2e6b"/>
      <g id="Grupo_82781" data-name="Grupo 82781" transform="translate(64.116 41.272)">
        <path id="Trazado_120048" data-name="Trazado 120048" d="M41.393,13.98l-9.113,17.4V75.715a73.967,73.967,0,0,0,21.4-1.569S48.787,47.7,48.825,38.778c.037-5.49,3.249-21.661,3.249-21.661Z" transform="translate(-16.93 -13.98)" fill="#62bf2c"/>
        <g id="Grupo_82777" data-name="Grupo 82777" transform="translate(17.03 46.198)">
          <path id="Trazado_120049" data-name="Trazado 120049" d="M50.657,30.234l-17.1,3.772-.822-3.847L50.059,26.35c.224,1.344.411,2.614.6,3.884Z" transform="translate(-32.73 -26.35)" fill="#d5d6d4"/>
        </g>
        <g id="Grupo_82778" data-name="Grupo 82778" transform="translate(22.744 1.83)">
          <path id="Trazado_120050" data-name="Trazado 120050" d="M35.082,63.731h2.166l3.1-29.541,4.519-18.86-2.8-.859L37.509,33.442,34.26,63.955a1.6,1.6,0,0,1,.822-.224Z" transform="translate(-34.26 -14.47)" fill="#d5d6d4"/>
        </g>
        <path id="Trazado_120051" data-name="Trazado 120051" d="M37.656,13.98,45.8,30.786,49.57,75.752a73.967,73.967,0,0,1-21.4-1.569s2.2-25.433,2.166-34.359c-.037-5.49-1.606-25.657-1.606-25.657Z" transform="translate(-28.17 -13.98)" fill="#6c3"/>
        <g id="Grupo_82779" data-name="Grupo 82779" transform="translate(0.71 48.028)">
          <path id="Trazado_120052" data-name="Trazado 120052" d="M48.415,32.629,28.36,30.761c.075-1.27.187-2.54.261-3.921l19.458,1.793Z" transform="translate(-28.36 -26.84)" fill="#e6e6e6"/>
        </g>
        <g id="Grupo_82780" data-name="Grupo 82780" transform="translate(2.091 0.075)">
          <path id="Trazado_120053" data-name="Trazado 120053" d="M39.561,65.614H36.573L33.361,35.437l-4.631-21.4L31.643,14l4.519,20.5Z" transform="translate(-28.73 -14)" fill="#e6e6e6"/>
        </g>
      </g>
      <g id="Grupo_82782" data-name="Grupo 82782" transform="translate(15.026 18.887)">
        <path id="Trazado_120054" data-name="Trazado 120054" d="M42.265,15.02,36.551,25.963,31.21,15.02A12.379,12.379,0,0,0,42.265,15.02Z" transform="translate(29.233 11.25)" fill="#e6e6e6"/>
        <path id="Trazado_120055" data-name="Trazado 120055" d="M25.013,23.014S13.361,18.869,15.228,9.532c1.232-5.3,4.892,4.668,7.656,5.565,0,0-1.979-3.436-.486-3.735,1.531-.261,2.577,2.39,3.735,4.108a9.816,9.816,0,0,1,1.158,3.436A7.859,7.859,0,0,1,25.013,23.014Z" transform="translate(-15.026 -7.986)" fill="#e6e6e6"/>
        <path id="Trazado_120056" data-name="Trazado 120056" d="M46.124,29.374s4.668,10.495-3.287,15.8c-4.631,2.876-.149-6.76-1.457-9.337,0,0-1.008,3.847-2.278,2.988s.187-3.212.6-5.266a25.676,25.676,0,0,1,1.083-3.548C42.016,29,44.481,28.888,46.124,29.374Z" transform="translate(49.426 49.742)" fill="#e6e6e6"/>
      </g>
      <g id="Grupo_82785" data-name="Grupo 82785" transform="translate(66.282 4)">
        <g id="Grupo_82783" data-name="Grupo 82783">
          <path id="Trazado_120057" data-name="Trazado 120057" d="M28.75,14.846,43.577,24.37,31.476,5.36Z" transform="translate(-28.75 -0.281)" fill="#1f396d"/>
          <path id="Trazado_120058" data-name="Trazado 120058" d="M35.771,17.423h7.806L28.75,7.9Z" transform="translate(-28.75 6.665)" fill="#18325b"/>
          <path id="Trazado_120059" data-name="Trazado 120059" d="M29.48,9.079l12.1,19.01V4Z" transform="translate(-26.754 -4)" fill="#243e7f"/>
          <path id="Trazado_120060" data-name="Trazado 120060" d="M32.72,17.423h7.806L47.509,7.9Z" transform="translate(-17.893 6.665)" fill="#18325b"/>
          <path id="Trazado_120061" data-name="Trazado 120061" d="M44.783,5.36,32.72,24.37l14.789-9.523Z" transform="translate(-17.893 -0.281)" fill="#1f396d"/>
          <path id="Trazado_120062" data-name="Trazado 120062" d="M32.72,4V28.089L44.783,9.079Z" transform="translate(-17.893 -4)" fill="#2e4c89"/>
        </g>
        <g id="Grupo_82784" data-name="Grupo 82784" transform="translate(3.921 9.951)">
          <path id="Trazado_120063" data-name="Trazado 120063" d="M38.3,12.727c0,1.83-.822,3.287-1.83,3.287s-1.83-1.457-1.83-3.287.822-3.287,1.83-3.287S38.3,10.934,38.3,12.727Z" transform="translate(-16.564 0.926)" fill="#e0b9a0"/>
          <path id="Trazado_120064" data-name="Trazado 120064" d="M33.46,12.857c0,1.83-.822,3.287-1.83,3.287s-1.83-1.457-1.83-3.287.822-3.287,1.83-3.287S33.46,11.027,33.46,12.857Z" transform="translate(-29.8 1.281)" fill="#e0b9a0"/>
          <path id="Trazado_120065" data-name="Trazado 120065" d="M48.766,18.944c-.075,4.071-2.652,7.656-4.482,10.084a5.842,5.842,0,0,1-4.78,2.2,6.033,6.033,0,0,1-4.818-2.2c-1.793-2.428-4.407-6.013-4.444-10.084a58.642,58.642,0,0,1,1.2-10.2L39.5,7.74l8.03,1.008a61.193,61.193,0,0,1,1.232,10.2Z" transform="translate(-28.599 -3.723)" fill="#ebc6ab"/>
          <path id="Trazado_120066" data-name="Trazado 120066" d="M40.49,12.7c7.432-2.428,6.125,2.428,8.739,6.834,0,0,2.278-9.262-1.793-11.54a9.236,9.236,0,0,0-7.469-.934,9.245,9.245,0,0,0-7.469.934c-4.071,2.278-1.793,11.54-1.793,11.54,2.614-4.407,1.307-9.262,8.739-6.834Z" transform="translate(-29.062 -6.664)" fill="#8e4131"/>
        </g>
        <path id="Trazado_120067" data-name="Trazado 120067" d="M29.7,10.366c0,3.361,5.117,6.088,11.391,6.088s11.391-2.726,11.391-6.088v-2.5A1.5,1.5,0,0,0,50.985,6.37H31.154A1.5,1.5,0,0,0,29.66,7.864v2.5Z" transform="translate(-26.261 2.481)" fill="#353535"/>
        <path id="Trazado_120068" data-name="Trazado 120068" d="M52.452,7.837v2.5a1.819,1.819,0,0,1-.037.448,1.483,1.483,0,0,0-1.457-1.158H31.127a1.413,1.413,0,0,0-1.419,1.158c0-.149-.037-.3-.037-.448v-2.5A1.458,1.458,0,0,1,31.127,6.38H50.958a1.491,1.491,0,0,1,1.494,1.457Z" transform="translate(-26.234 2.509)" fill="#82a2df"/>
      </g>
    </g>
  </g>
</svg>
