<svg xmlns="http://www.w3.org/2000/svg" xmlns:xlink="http://www.w3.org/1999/xlink" width="190" height="190" viewBox="0 0 190 190">
  <defs>
    <clipPath id="clip-path">
      <rect id="Rectángulo_33865" data-name="Rectángulo 33865" width="190" height="190" transform="translate(285 4627)"/>
    </clipPath>
  </defs>
  <g id="Enmascarar_grupo_55" data-name="Enmascarar grupo 55" transform="translate(-285 -4627)" clip-path="url(#clip-path)">
    <g id="senal-de-stop_1_" data-name="senal-de-stop (1)" transform="translate(285 4627)">
      <path id="Trazado_113742" data-name="Trazado 113742" d="M190,95a95.019,95.019,0,0,1-82.658,94.205,96.3,96.3,0,0,1-24.688,0A95.023,95.023,0,0,1,.148,100.316Q0,97.676,0,95a95,95,0,1,1,190,0Zm0,0" fill="#69b8d4"/>
      <path id="Trazado_113743" data-name="Trazado 113743" d="M120.376,102.1a6.338,6.338,0,0,1,6.338-6.339H180.13a6.339,6.339,0,0,1,0,12.678H162.852a6.338,6.338,0,1,0,0,12.677h1.761a6.339,6.339,0,1,1,0,12.678H113.418a6.338,6.338,0,0,1-6.338-6.339,6.339,6.339,0,0,0-6.339-6.339H98.98a6.338,6.338,0,1,1,0-12.677h15.057a6.339,6.339,0,0,0,6.339-6.339Zm0,0" fill="#8cd2e5"/>
      <path id="Trazado_113744" data-name="Trazado 113744" d="M32.99,68.625a6.34,6.34,0,0,1-6.339,6.336H9.372a6.34,6.34,0,0,0,0,12.679h1.761a6.338,6.338,0,1,1,0,12.675H.148Q0,97.676,0,95A94.809,94.809,0,0,1,5.785,62.286H26.651a6.339,6.339,0,0,1,6.339,6.339Zm0,0" fill="#8cd2e5"/>
      <path id="Trazado_113745" data-name="Trazado 113745" d="M49.1,125.595a6.339,6.339,0,0,1,6.339-6.339h53.416a6.338,6.338,0,0,1,0,12.677H91.577a6.339,6.339,0,0,0,0,12.678H93.34a6.338,6.338,0,0,1,0,12.677H42.145a6.339,6.339,0,0,1-6.339-6.339,6.338,6.338,0,0,0-6.339-6.338H27.706a6.339,6.339,0,0,1,0-12.678H42.762a6.339,6.339,0,0,0,6.339-6.338Zm0,0" fill="#8cd2e5"/>
      <path id="Trazado_113746" data-name="Trazado 113746" d="M107.342,128.475v60.73a96.3,96.3,0,0,1-24.688,0v-60.73Zm0,0" fill="#ccc"/>
      <path id="Trazado_113747" data-name="Trazado 113747" d="M107.342,150.077v39.128A96.03,96.03,0,0,1,95,190V150.077Zm0,0" fill="#e6e6e6"/>
      <g id="Icon" transform="translate(22.748 -2)">
        <path id="Trazado_113763" data-name="Trazado 113763" d="M72.75,2A70.75,70.75,0,1,0,143.5,72.75,70.75,70.75,0,0,0,72.75,2Zm56.6,70.75a56.3,56.3,0,0,1-11.187,33.742L39.008,27.337A56.57,56.57,0,0,1,129.35,72.75Zm-113.2,0A56.3,56.3,0,0,1,27.337,39.008l79.155,79.155A56.57,56.57,0,0,1,16.15,72.75Z" transform="translate(-9 1)" fill="#d82525"/>
        <circle id="Elipse_4714" data-name="Elipse 4714" cx="56.702" cy="56.702" r="56.702" transform="translate(16.303 16.303)" fill="#f5f5f5"/>
        <path id="Trazado_113758" data-name="Trazado 113758" d="M79.242,19H32.075A7.075,7.075,0,0,0,25,26.075V73.242H79.242a7.075,7.075,0,0,0,7.075-7.075V26.075A7.075,7.075,0,0,0,79.242,19Z" transform="translate(31.242 23.092)" fill="#616161"/>
        <path id="Trazado_113759" data-name="Trazado 113759" d="M47.375,23V67.808h-28.3A7.066,7.066,0,0,1,12,60.733V44.98a7.305,7.305,0,0,1,.731-3.16l7.405-14.9A7.082,7.082,0,0,1,26.48,23Z" transform="translate(13.583 28.525)" fill="#212121"/>
        <g id="Grupo_80180" data-name="Grupo 80180" transform="translate(25.583 51.525)">
          <path id="Trazado_113760" data-name="Trazado 113760" d="M37.942,23V44.225a2.365,2.365,0,0,1-2.358,2.358H12v-1.6a7.305,7.305,0,0,1,.731-3.16l7.405-14.9A7.082,7.082,0,0,1,26.48,23Z" transform="translate(-12 -23)" fill="#424242"/>
          <path id="Trazado_113761" data-name="Trazado 113761" d="M21.433,38.358a2.365,2.365,0,0,1-2.358,2.358H12V36h7.075a2.365,2.365,0,0,1,2.358,2.358Z" transform="translate(-12 -5.342)" fill="#424242"/>
          <circle id="Elipse_4715" data-name="Elipse 4715" cx="8.254" cy="8.254" r="8.254" transform="translate(53.063 34.981)" fill="#424242"/>
          <circle id="Elipse_4716" data-name="Elipse 4716" cx="8.254" cy="8.254" r="8.254" transform="translate(9.042 34.981)" fill="#424242"/>
        </g>
        <path id="Trazado_113762" data-name="Trazado 113762" d="M72.75,2A70.75,70.75,0,1,0,143.5,72.75,70.75,70.75,0,0,0,72.75,2Zm56.6,70.75a56.3,56.3,0,0,1-11.187,33.742L39.008,27.337A56.57,56.57,0,0,1,129.35,72.75Zm-113.2,0A56.3,56.3,0,0,1,27.337,39.008l79.155,79.155A56.57,56.57,0,0,1,16.15,72.75Z" transform="translate(0)" fill="#f73e3e"/>
      </g>
    </g>
  </g>
</svg>
