<svg xmlns="http://www.w3.org/2000/svg" width="67.729" height="80.5" viewBox="0 0 67.729 80.5">
  <g id="conductor" transform="translate(-40.613)">
    <path id="Trazado_121951" data-name="Trazado 121951" d="M170.88,10.383h-.043a5.233,5.233,0,0,1-2.589-.674c-6.17-3.509-15.279-3.1-19.412,3.112-1.714,2.576-1.884,6.507.1,8.812a2.34,2.34,0,0,1,.545,1.476l.2,8.788h29.755l.278-12.491A8.827,8.827,0,0,0,170.88,10.383Z" transform="translate(-90.081 -6.32)" fill="#8c818f"/>
    <path id="Trazado_121952" data-name="Trazado 121952" d="M212.177,10.387h-.043a5.233,5.233,0,0,1-2.589-.674A17,17,0,0,0,196.5,8.175a17.765,17.765,0,0,1,9.389,2.125,5.344,5.344,0,0,0,2.589.656h.043a8.706,8.706,0,0,1,8.824,8.784L217.068,31.9h3.656L221,19.41A8.827,8.827,0,0,0,212.177,10.387Z" transform="translate(-131.377 -6.323)" fill="#766d78"/>
    <path id="Trazado_121953" data-name="Trazado 121953" d="M163.678,160.125a6.27,6.27,0,0,0-6.2-5.311h-3.244a6.27,6.27,0,0,0-6.2,5.311,9.99,9.99,0,0,1-4.747,7.02,12.606,12.606,0,0,0-6.117,10.813v29.251h37.364V177.959a12.606,12.606,0,0,0-6.117-10.813,9.99,9.99,0,0,1-4.747-7.02Z" transform="translate(-81.382 -130.473)" fill="#c5bec6"/>
    <path id="Trazado_121954" data-name="Trazado 121954" d="M254.4,167.145a9.989,9.989,0,0,1-4.747-7.02,6.27,6.27,0,0,0-6.2-5.311H240.21a6.278,6.278,0,0,0-1.021.085,6.27,6.27,0,0,1,5.175,5.226,9.99,9.99,0,0,0,4.747,7.02,12.606,12.606,0,0,1,6.117,10.813v29.251h5.286V177.959A12.606,12.606,0,0,0,254.4,167.145Z" transform="translate(-167.355 -130.473)" fill="#a59da7"/>
    <path id="Trazado_121955" data-name="Trazado 121955" d="M152.45,290.3l-7.2-17.723a7.928,7.928,0,0,0-7.345-4.944H119.5a7.928,7.928,0,0,0-7.345,4.944l-7.2,17.723,5.317,2.16,5.678-7.41v15.764h25.507V285.054l5.678,7.41Z" transform="translate(-54.224 -225.557)" fill="#80b6fc"/>
    <g id="Grupo_88026" data-name="Grupo 88026" transform="translate(50.562 42.079)">
      <path id="Trazado_121956" data-name="Trazado 121956" d="M301.034,272.579a7.928,7.928,0,0,0-7.345-4.944H289.8a7.928,7.928,0,0,1,7.345,4.944l7.2,17.723-2.351.955.923,1.2,5.317-2.16Z" transform="translate(-260.569 -267.635)" fill="#62a4fb"/>
      <path id="Trazado_121957" data-name="Trazado 121957" d="M315.995,370.268l10.331,5.152a2.87,2.87,0,0,0,2.562-5.137l-10.331-5.152Z" transform="translate(-282.647 -349.802)" fill="#62a4fb"/>
      <path id="Trazado_121958" data-name="Trazado 121958" d="M118.374,370.268l-10.331,5.152a2.87,2.87,0,0,1-2.562-5.137l10.331-5.152Z" transform="translate(-103.892 -349.802)" fill="#62a4fb"/>
    </g>
    <path id="Trazado_121959" data-name="Trazado 121959" d="M182.322,330.631a13.749,13.749,0,0,0-11.393,21.44h6.6a9.068,9.068,0,1,1,9.589,0h6.6a13.749,13.749,0,0,0-11.393-21.44Z" transform="translate(-107.845 -278.647)" fill="#c77e67"/>
    <path id="Trazado_121960" data-name="Trazado 121960" d="M225.358,171.7v14.472a3.443,3.443,0,0,0,1.207,2.618l.906.774a4.165,4.165,0,0,0,5.41,0l.906-.774a3.443,3.443,0,0,0,1.207-2.618V171.7Z" transform="translate(-155.698 -144.705)" fill="#ffcdbe"/>
    <path id="Trazado_121961" data-name="Trazado 121961" d="M234.993,184.226V171.7h-9.635v12.526A15.656,15.656,0,0,0,234.993,184.226Z" transform="translate(-155.698 -144.704)" fill="#ebae9d"/>
    <path id="Trazado_121962" data-name="Trazado 121962" d="M180.16,151.093H152.876a3.041,3.041,0,0,1,0-6.082H180.16a3.041,3.041,0,0,1,0,6.082Z" transform="translate(-92.049 -122.211)" fill="#ebae9d"/>
    <path id="Trazado_121963" data-name="Trazado 121963" d="M206.945,88.462c-3.208,6.836-17.065,6.836-20.274,0-1.2-2.55-1.151-8.453-.122-13.381a2.468,2.468,0,0,1,2.132-1.963,27,27,0,0,0,13.284-5.3,1.5,1.5,0,0,1,1.858.022l.09.075C207.517,70.972,208.915,84.264,206.945,88.462Z" transform="translate(-122.339 -56.889)" fill="#ffcdbe"/>
    <path id="Trazado_121964" data-name="Trazado 121964" d="M97.973,433.679a6.08,6.08,0,0,1-3.539-1.119,16.492,16.492,0,0,0-9.591-3.076h-8.09a16.492,16.492,0,0,0-9.591,3.076,6.081,6.081,0,0,1-3.539,1.119H53.512a5.4,5.4,0,0,0-5.4,5.4v1.366a.835.835,0,0,0,.835.835h63.7a.835.835,0,0,0,.835-.835v-1.366a5.4,5.4,0,0,0-5.4-5.4Z" transform="translate(-6.321 -361.959)" fill="#8c818f"/>
    <path id="Trazado_121965" data-name="Trazado 121965" d="M112.649,479.53h-63.7a.828.828,0,0,1-.541-.2,5.385,5.385,0,0,0-.294,1.757v1.366a.835.835,0,0,0,.835.835h63.7a.835.835,0,0,0,.835-.835v-1.366a5.39,5.39,0,0,0-.294-1.757A.828.828,0,0,1,112.649,479.53Z" transform="translate(-6.322 -403.963)" fill="#766d78"/>
    <path id="Trazado_121966" data-name="Trazado 121966" d="M300.4,349.979l-4.322-4.886a1.425,1.425,0,0,0-2.012-.123l-.737.652A3.738,3.738,0,0,0,293,350.9l1.257,1.421a3.738,3.738,0,0,0,5.277.323l.737-.652A1.425,1.425,0,0,0,300.4,349.979Z" transform="translate(-211.917 -290.43)" fill="#ffcdbe"/>
    <path id="Trazado_121967" data-name="Trazado 121967" d="M165.019,349.979l4.322-4.886a1.425,1.425,0,0,1,2.012-.123l.737.652a3.738,3.738,0,0,1,.323,5.277l-1.257,1.421a3.738,3.738,0,0,1-5.277.323l-.737-.652A1.425,1.425,0,0,1,165.019,349.979Z" transform="translate(-104.545 -290.43)" fill="#ffcdbe"/>
    <g id="Grupo_88027" data-name="Grupo 88027" transform="translate(40.613 0)">
      <path id="Trazado_121968" data-name="Trazado 121968" d="M220.388,147.284a1.179,1.179,0,0,0,1.179-1.179v-.319a1.179,1.179,0,1,0-2.358,0v.319A1.179,1.179,0,0,0,220.388,147.284Z" transform="translate(-191.129 -121.871)"/>
      <path id="Trazado_121969" data-name="Trazado 121969" d="M278.858,147.284a1.179,1.179,0,0,0,1.179-1.179v-.319a1.179,1.179,0,0,0-2.358,0v.319A1.179,1.179,0,0,0,278.858,147.284Z" transform="translate(-240.406 -121.871)"/>
      <path id="Trazado_121970" data-name="Trazado 121970" d="M235.924,185.354a6.01,6.01,0,0,0,5.221,0,1.179,1.179,0,1,0-1.084-2.095,3.618,3.618,0,0,1-3.053,0,1.179,1.179,0,0,0-1.084,2.095Z" transform="translate(-204.678 -154.335)"/>
      <path id="Trazado_121971" data-name="Trazado 121971" d="M101.764,70.542H94.338V69a4.049,4.049,0,0,0,4.235-6.534l-1.307-3.218a1.179,1.179,0,1,0-2.185.888l.126.31-7.8-3.888-2.368-2.677a2.6,2.6,0,0,0-2.624-.789,14.92,14.92,0,0,0-15.879,0,2.6,2.6,0,0,0-2.625.789l-2.368,2.677-7.8,3.888L59.02,47.467a6.725,6.725,0,0,1,6.253-4.21h3.569A4.617,4.617,0,0,0,70.1,44.983a6.408,6.408,0,0,0,4.377,2.062,5.328,5.328,0,0,0,3.469-1.288,6.618,6.618,0,0,0,2.166-2.5h3.569a6.725,6.725,0,0,1,6.253,4.209l3.045,7.5a1.179,1.179,0,1,0,2.185-.888l-.827-2.036V47.485a13.7,13.7,0,0,0-6.687-11.825,8.959,8.959,0,0,1-2.644-2.437A7.839,7.839,0,0,0,86.3,30.06h1.81A4.218,4.218,0,0,0,90.6,22.432l.207-9.32a10.006,10.006,0,0,0-10-10.229h-.042a4.062,4.062,0,0,1-2.007-.519A18.523,18.523,0,0,0,67.525.133a1.179,1.179,0,0,0,.292,2.34,16.116,16.116,0,0,1,9.767,1.941,6.423,6.423,0,0,0,3.173.827H80.8a7.648,7.648,0,0,1,7.645,7.818l-.19,8.564c-.048,0-.1,0-.144,0H86.457c-.479-4.439-1.771-9.5-4.121-11.5-.031-.026-.062-.051-.093-.076l-.015-.012a2.677,2.677,0,0,0-3.316-.046,25.648,25.648,0,0,1-12.7,5.071,3.619,3.619,0,0,0-3.148,2.857c-.247,1.176-.444,2.44-.581,3.706,0,0-1.751,0-1.8,0l-.108-4.863a3.529,3.529,0,0,0-.83-2.215c-1.53-1.782-1.534-5.1-.009-7.391a10.064,10.064,0,0,1,3.323-3.122A1.179,1.179,0,0,0,61.868,2a12.4,12.4,0,0,0-4.1,3.85c-2.1,3.166-2.025,7.661.183,10.233a1.166,1.166,0,0,1,.262.733l.125,5.617a4.218,4.218,0,0,0,2.485,7.628h1.81a7.966,7.966,0,0,0,1.3,3.18A8.975,8.975,0,0,1,61.3,35.661a13.7,13.7,0,0,0-6.687,11.824v4.556L50.381,62.466A4.049,4.049,0,0,0,54.616,69v1.541H47.191a6.585,6.585,0,0,0-6.578,6.578v1.366A2.017,2.017,0,0,0,42.628,80.5H89.68a1.179,1.179,0,1,0,0-2.358H42.971V77.119A4.224,4.224,0,0,1,47.191,72.9H57.3a7.216,7.216,0,0,0,4.224-1.338,15.265,15.265,0,0,1,8.905-2.856h8.09a15.269,15.269,0,0,1,8.905,2.856A7.217,7.217,0,0,0,91.652,72.9h10.112a4.224,4.224,0,0,1,4.219,4.219v1.023h-10.8a1.179,1.179,0,0,0,0,2.358h11.145a2.017,2.017,0,0,0,2.015-2.015V77.119A6.586,6.586,0,0,0,101.764,70.542Zm-4.728-4.659a1.7,1.7,0,0,1-2.269.759L88.12,63.326c.267-.2.328-.274,1.019-.882a2.59,2.59,0,0,0,.875-1.952l6.264,3.123a1.691,1.691,0,0,1,.759,2.267Zm-9.993-.154a12.612,12.612,0,0,1-.282,2.658,17.55,17.55,0,0,0-2.177-.972,10.27,10.27,0,0,0,.041-3.112c.067.007.134.013.2.017l2.21,1.1c0,.1.006.205.006.306Zm-1.278-7.47c.015.018.031.036.047.053L87.6,60.33a.246.246,0,0,1-.021.347l-.737.652a2.562,2.562,0,0,1-3.612-.221L81.97,59.687a2.559,2.559,0,0,1,.221-3.612l.737-.652a.245.245,0,0,1,.178-.061.242.242,0,0,1,.169.083ZM80.323,54.6a4.868,4.868,0,0,0-1.159,2.016,10.212,10.212,0,0,0-9.372,0A4.869,4.869,0,0,0,68.632,54.6a12.571,12.571,0,0,1,11.69,0Zm-14.643.84a.246.246,0,0,1,.347-.021l.737.652a2.559,2.559,0,0,1,.221,3.612l-1.257,1.421a2.562,2.562,0,0,1-3.612.221l-.737-.652a.247.247,0,0,1-.021-.347ZM62.194,68.386a12.466,12.466,0,0,1-.276-2.964l2.21-1.1q.1-.007.2-.017a10.279,10.279,0,0,0,.041,3.112A17.575,17.575,0,0,0,62.194,68.386Zm15.13-25.2-.908.774a2.97,2.97,0,0,1-3.878,0l-.906-.773a2.26,2.26,0,0,1-.793-1.721V37.483a16.555,16.555,0,0,0,3.629.4h.014a16.545,16.545,0,0,0,3.633-.4v3.989a2.26,2.26,0,0,1-.792,1.721Zm9.111-5.507a11.346,11.346,0,0,1,5.459,8.39A9.069,9.069,0,0,0,83.682,40.9H80.474V36.731A11.425,11.425,0,0,0,83.386,35a11.33,11.33,0,0,0,3.048,2.686ZM89.972,25.84A1.864,1.864,0,0,1,88.111,27.7h-1.5a31.445,31.445,0,0,0,.03-3.723h1.47A1.864,1.864,0,0,1,89.972,25.84ZM66.471,17.4a28.007,28.007,0,0,0,13.867-5.537.339.339,0,0,1,.205-.07.318.318,0,0,1,.2.072l.066.053c1.591,1.352,2.988,5.865,3.4,10.975a28.475,28.475,0,0,1-.072,5.828,6.414,6.414,0,0,1-1.467,3.687c-1.939,2.253-5.284,3.11-8.19,3.112h-.012c-2.93,0-6.3-.917-8.19-3.1a6.386,6.386,0,0,1-1.478-3.7,28.359,28.359,0,0,1-.07-5.829,36.28,36.28,0,0,1,.64-4.494,1.264,1.264,0,0,1,1.1-1ZM58.966,25.84a1.864,1.864,0,0,1,1.862-1.862H62.3a31.353,31.353,0,0,0,.029,3.723h-1.5A1.864,1.864,0,0,1,58.966,25.84ZM62.52,37.681A11.359,11.359,0,0,0,65.562,35a11.418,11.418,0,0,0,2.919,1.735V40.9H65.273a9.069,9.069,0,0,0-8.212,5.173,11.347,11.347,0,0,1,5.459-8.391Zm-10.6,28.2a1.691,1.691,0,0,1,.759-2.267l6.264-3.123a2.59,2.59,0,0,0,.875,1.952c.708.623.755.681,1.019.882l-6.647,3.315a1.694,1.694,0,0,1-2.269-.758Zm5.056,4.659V67.887l2.606-1.3a14.848,14.848,0,0,0,.507,3.1,4.875,4.875,0,0,1-2.785.854Zm13.458-4.194a17.737,17.737,0,0,0-3.776.407,7.861,7.861,0,0,1,.374-3.625,4.977,4.977,0,0,0,.464-.459l1.257-1.421A4.9,4.9,0,0,0,69.784,59.4a7.863,7.863,0,0,1,9.388,0A4.9,4.9,0,0,0,80.2,61.25l1.257,1.422a4.992,4.992,0,0,0,.464.459,7.834,7.834,0,0,1,.441,2.6,7.933,7.933,0,0,1-.067,1.026,17.736,17.736,0,0,0-3.776-.407h-8.09Zm18.435,3.34a14.848,14.848,0,0,0,.507-3.1l2.606,1.3v2.654h-.328A4.874,4.874,0,0,1,88.867,69.688Z" transform="translate(-40.613 0)"/>
    </g>
  </g>
</svg>
