<svg xmlns="http://www.w3.org/2000/svg" width="75.726" height="85" viewBox="0 0 75.726 85">
  <g id="leer" transform="translate(-27.933)">
    <g id="Grupo_84819" data-name="Grupo 84819" transform="translate(37.605)">
      <path id="Trazado_120914" data-name="Trazado 120914" d="M142.574,28.571a28.193,28.193,0,1,0-56.382,0c0,15.78,12.622,16.97,28.191,16.97s28.191-1.191,28.191-16.97Z" transform="translate(-86.192)" fill="#665e66"/>
      <path id="Trazado_120915" data-name="Trazado 120915" d="M114.013,45.543c-15.4-.019-27.821-1.314-27.821-16.969A28.383,28.383,0,0,1,114.383,0c-7.924,0-14.347,12.792-14.347,28.571C100.036,44.108,106.26,45.5,114.013,45.543Z" transform="translate(-86.192 -0.003)" fill="#454045"/>
      <path id="Trazado_120916" data-name="Trazado 120916" d="M174.089,75.5A11.333,11.333,0,0,1,163.3,86.247q-7.5.355-15,.143h-.009q-1.9-.053-3.8-.143A11.332,11.332,0,0,1,133.689,75.5q-.33-6.417-.053-12.837h0q.083-2,.229-4c.924-4.391,4.543-10.635,9.6-12.835.149-.065.3-.129.452-.191a25.548,25.548,0,0,1,6.725-1.707,27.772,27.772,0,0,1,10.241.707h0c6.821,1.814,11.919,8.7,13.033,14.04a0,0,0,0,0,0,0,136.678,136.678,0,0,1,.174,16.818Z" transform="translate(-125.654 -36.482)" fill="#f1d0a5"/>
      <path id="Trazado_120917" data-name="Trazado 120917" d="M148.3,108.431h-.009q-1.9-.053-3.8-.143A11.332,11.332,0,0,1,133.69,97.545a136.5,136.5,0,0,1,.176-16.837c.924-4.391,4.543-8.144,9.6-10.345.149-.065.3-.129.451-.191-.346,8.45-.429,20.692-.252,27.612.137,5.319,2.08,9.657,4.633,10.647Z" transform="translate(-125.655 -58.522)" fill="#f1b986"/>
      <path id="Trazado_120918" data-name="Trazado 120918" d="M161.516,59.642h0C158.157,65.4,150.1,72.976,146.9,71.168c-1.172-.663-1.019-2.027-.358-3.5a26.019,26.019,0,0,1-5,6.145c-2.155,1.816-4.753,2.944-7.267,1.361h0q.083-2,.229-4c.924-4.391,4.543-8.144,9.6-10.345.149-.065.3-.129.452-.191a25.548,25.548,0,0,1,6.725-1.707,27.772,27.772,0,0,1,10.241.707Z" transform="translate(-126.29 -48.992)" fill="#665e66"/>
      <path id="Trazado_120919" data-name="Trazado 120919" d="M141.539,73.816c-2.155,1.816-4.753,2.944-7.267,1.361h0q.083-2,.229-4c.924-4.391,4.543-8.144,9.6-10.345.149-.065.3-.129.452-.191a25.548,25.548,0,0,1,6.725-1.707,27.359,27.359,0,0,1,3.25-.19c-7.039,2.456-21.572,15.072-12.987,15.072Z" transform="translate(-126.29 -48.992)" fill="#454045"/>
      <path id="Trazado_120920" data-name="Trazado 120920" d="M229.012,235.1a5.9,5.9,0,0,1-5.3-3.352,1.283,1.283,0,0,1,2.318-1.1,3.3,3.3,0,0,0,5.966,0,1.283,1.283,0,1,1,2.318,1.1A5.894,5.894,0,0,1,229.012,235.1Z" transform="translate(-200.777 -191.745)" fill="#da4a54"/>
      <g id="Grupo_84817" data-name="Grupo 84817" transform="translate(16.966 29.257)">
        <ellipse id="Elipse_4872" data-name="Elipse 4872" cx="1.843" cy="2.744" rx="1.843" ry="2.744" fill="#454045"/>
        <ellipse id="Elipse_4873" data-name="Elipse 4873" cx="1.843" cy="2.744" rx="1.843" ry="2.744" transform="translate(18.852)" fill="#454045"/>
      </g>
      <g id="Grupo_84818" data-name="Grupo 84818" transform="translate(12.17 36.43)">
        <ellipse id="Elipse_4874" data-name="Elipse 4874" cx="3.448" cy="2.187" rx="3.448" ry="2.187" fill="#df9380"/>
        <ellipse id="Elipse_4875" data-name="Elipse 4875" cx="3.448" cy="2.187" rx="3.448" ry="2.187" transform="translate(25.233)" fill="#f9a58e"/>
      </g>
      <path id="Trazado_120921" data-name="Trazado 120921" d="M174.779,48.795a10.816,10.816,0,0,1-.195,2.049c-1.368-7.13-9.826-12.619-20.058-12.619a27.344,27.344,0,0,0-3.25.19,25.559,25.559,0,0,0-6.331,1.55q-.429.165-.846.348c-5.123,2.231-8.773,6.056-9.634,10.524a10.847,10.847,0,0,1-.192-2.042c0-5.334,3.938-10,9.826-12.565q.914-.4,1.889-.726a25.831,25.831,0,0,1,5.287-1.175,27.346,27.346,0,0,1,3.25-.188C165.712,34.14,174.779,40.7,174.779,48.795Z" transform="translate(-126.291 -28.472)" fill="#da4a54"/>
      <path id="Trazado_120922" data-name="Trazado 120922" d="M145.988,42.353l-1.043,4.462q-.429.165-.846.348c-5.123,2.231-8.773,6.056-9.634,10.524a10.848,10.848,0,0,1-.192-2.042c0-5.334,3.938-10,9.826-12.565Q145.013,42.68,145.988,42.353Z" transform="translate(-126.291 -35.322)" fill="#c32430"/>
    </g>
    <path id="Trazado_120923" data-name="Trazado 120923" d="M131.6,243.348l-22.23,4.818H103l-22.23-4.818a3.64,3.64,0,0,0-4.411,3.556v26.762a3.641,3.641,0,0,0,2.869,3.557L103,282.375h6.365l23.772-5.152a3.641,3.641,0,0,0,2.869-3.557V246.9a3.64,3.64,0,0,0-4.411-3.556Z" transform="translate(-40.39 -202.878)" fill="#dfeaef"/>
    <path id="Trazado_120924" data-name="Trazado 120924" d="M288.835,261.434v28.91a3.933,3.933,0,0,1-3.1,3.843l-25.68,5.565-3.315-.83v-35.3l3.315-.83,24.014-5.2A3.932,3.932,0,0,1,288.835,261.434Z" transform="translate(-190.823 -214.752)" fill="#80b4fb"/>
    <path id="Trazado_120925" data-name="Trazado 120925" d="M94.284,263.627v35.3l-3.561.83-25.68-5.565a3.933,3.933,0,0,1-3.1-3.843v-28.91a3.932,3.932,0,0,1,4.765-3.841l24.014,5.2Z" transform="translate(-28.365 -214.752)" fill="#5490f9"/>
    <path id="Trazado_120926" data-name="Trazado 120926" d="M235.295,326.353V289.4h6.875v36.956" transform="translate(-172.936 -241.352)" fill="#bed8fb"/>
    <path id="Trazado_120927" data-name="Trazado 120927" d="M322.492,319.931a1.283,1.283,0,0,1-.27-2.537l14.2-3.078a1.283,1.283,0,1,1,.544,2.507l-14.2,3.078A1.285,1.285,0,0,1,322.492,319.931Z" transform="translate(-244.588 -262.11)" fill="#454045"/>
    <path id="Trazado_120928" data-name="Trazado 120928" d="M322.492,348.642a1.283,1.283,0,0,1-.27-2.537l14.2-3.078a1.283,1.283,0,1,1,.544,2.507l-14.2,3.078A1.287,1.287,0,0,1,322.492,348.642Z" transform="translate(-244.588 -286.054)" fill="#454045"/>
    <g id="Grupo_84822" data-name="Grupo 84822" transform="translate(27.933 50.23)">
      <g id="Grupo_84820" data-name="Grupo 84820">
        <path id="Trazado_120929" data-name="Trazado 120929" d="M32.875,312.986H31.53a3.6,3.6,0,0,1-3.6-3.6v-3.228a3.6,3.6,0,0,1,3.6-3.6h1.345a3.6,3.6,0,0,1,3.6,3.6v3.228A3.6,3.6,0,0,1,32.875,312.986Z" transform="translate(-27.934 -302.565)" fill="#f1d0a5"/>
        <path id="Trazado_120930" data-name="Trazado 120930" d="M33.565,312.915a3.408,3.408,0,0,1-.691.068H31.528a3.6,3.6,0,0,1-3.595-3.6V306.16a3.6,3.6,0,0,1,3.595-3.6h1.346a3.408,3.408,0,0,1,.691.068,3.594,3.594,0,0,0-2.9,3.528v3.227a3.594,3.594,0,0,0,2.9,3.528Z" transform="translate(-27.933 -302.563)" fill="#f1b986"/>
      </g>
      <g id="Grupo_84821" data-name="Grupo 84821" transform="translate(67.189)">
        <path id="Trazado_120931" data-name="Trazado 120931" d="M437.587,312.986h-1.345a3.6,3.6,0,0,1-3.6-3.6v-3.228a3.6,3.6,0,0,1,3.6-3.6h1.345a3.6,3.6,0,0,1,3.6,3.6v3.228A3.6,3.6,0,0,1,437.587,312.986Z" transform="translate(-432.646 -302.565)" fill="#f1d0a5"/>
        <path id="Trazado_120932" data-name="Trazado 120932" d="M438.277,312.915a3.408,3.408,0,0,1-.691.068H436.24a3.6,3.6,0,0,1-3.595-3.6V306.16a3.6,3.6,0,0,1,3.595-3.6h1.346a3.408,3.408,0,0,1,.691.068,3.594,3.594,0,0,0-2.9,3.528v3.227a3.594,3.594,0,0,0,2.9,3.528Z" transform="translate(-432.645 -302.563)" fill="#f1b986"/>
      </g>
    </g>
  </g>
</svg>
