<svg id="cruce-peatonal" xmlns="http://www.w3.org/2000/svg" width="86.36" height="86.36" viewBox="0 0 86.36 86.36">
  <circle id="Elipse_4867" data-name="Elipse 4867" cx="43.18" cy="43.18" r="43.18" transform="translate(0 0)" fill="#dc2524"/>
  <path id="Trazado_120725" data-name="Trazado 120725" d="M112.834,77.751A35.084,35.084,0,1,1,77.751,42.667,35.014,35.014,0,0,1,112.834,77.751Z" transform="translate(-34.571 -34.571)" fill="#fff"/>
  <g id="Grupo_84487" data-name="Grupo 84487" transform="translate(13.494 47.768)">
    <path id="Trazado_120726" data-name="Trazado 120726" d="M73.81,269.545l12.144-17.812H82.986l-11.875,14.3C72.191,267.386,73,268.465,73.81,269.545Z" transform="translate(-71.111 -251.733)" fill="#dfe4e9"/>
    <path id="Trazado_120727" data-name="Trazado 120727" d="M108.089,273.864a17.73,17.73,0,0,0,4.588,3.239l9.715-25.368h-2.969Z" transform="translate(-101.072 -251.734)" fill="#dfe4e9"/>
    <path id="Trazado_120728" data-name="Trazado 120728" d="M169.244,281.492a27.4,27.4,0,0,0,6.747,1.619l2.429-29.956h-2.969Z" transform="translate(-150.623 -252.885)" fill="#dfe4e9"/>
    <path id="Trazado_120729" data-name="Trazado 120729" d="M239.058,253.156h-2.969l2.429,29.956a27.411,27.411,0,0,0,6.747-1.619Z" transform="translate(-204.783 -252.886)" fill="#dfe4e9"/>
    <path id="Trazado_120730" data-name="Trazado 120730" d="M273.191,253.156h-2.969l9.716,25.368c1.619-1.079,3.239-2.159,4.588-3.239Z" transform="translate(-232.44 -252.886)" fill="#dfe4e9"/>
    <path id="Trazado_120731" data-name="Trazado 120731" d="M319.2,267.459l-11.875-14.3h-2.969L316.5,270.968C317.58,269.618,318.389,268.539,319.2,267.459Z" transform="translate(-260.096 -252.886)" fill="#dfe4e9"/>
  </g>
  <g id="Grupo_84488" data-name="Grupo 84488" transform="translate(29.469 14.573)">
    <path id="Trazado_120732" data-name="Trazado 120732" d="M184.29,149.808a1.647,1.647,0,0,1-2.429.81l-6.747-2.969-2.969-5.128v10.795l4.318,3.778c.27.27.54.54.54.81l3.508,11.065a1.706,1.706,0,0,1-1.08,2.159,1.836,1.836,0,0,1-2.159-1.079l-3.239-10.525c-2.969-2.7-1.349-1.08-8.366-7.287-.27-.27-.54-.54-.54-.81v-11.6l-2.159,2.159-1.889,9.446a1.858,1.858,0,0,1-2.159,1.349,1.668,1.668,0,0,1-1.349-2.159l2.159-10.525c.27-.27,6.747-7.017,7.017-7.287a5.084,5.084,0,0,1,2.159-.54,3.843,3.843,0,0,1,3.508,2.429h0l5.667,9.715,5.667,2.7A2.95,2.95,0,0,1,184.29,149.808Z" transform="translate(-157.085 -121.741)"/>
    <path id="Trazado_120733" data-name="Trazado 120733" d="M162.263,244.622l2.7,2.429-6.207,14.034a1.81,1.81,0,0,1-3.239-1.619l6.747-14.843Z" transform="translate(-155.299 -212.777)"/>
    <circle id="Elipse_4868" data-name="Elipse 4868" cx="4.588" cy="4.588" r="4.588" transform="translate(9.123)"/>
  </g>
</svg>
