<svg id="Grupo_83048" data-name="Grupo 83048" xmlns="http://www.w3.org/2000/svg" width="761.189" height="261.245" viewBox="0 0 761.189 261.245">
  <g id="Grupo_82998" data-name="Grupo 82998" transform="translate(1.271)">
    <g id="Grupo_82996" data-name="Grupo 82996" transform="translate(0 0.339)">
      <rect id="Rectángulo_34398" data-name="Rectángulo 34398" width="276.164" height="20.344" fill="none"/>
    </g>
    <g id="Grupo_82997" data-name="Grupo 82997" transform="translate(1.102)" style="isolation: isolate">
      <path id="Trazado_120449" data-name="Trazado 120449" d="M413.509,1247.011a4.655,4.655,0,0,1-4.069-1.78,8.776,8.776,0,0,1-1.272-5.171v-6.441a14.863,14.863,0,0,1,.254-2.967,6.41,6.41,0,0,1,.933-2.2,3.754,3.754,0,0,1,1.779-1.441,6.732,6.732,0,0,1,2.713-.508,5.553,5.553,0,0,1,4.238,1.441,6.517,6.517,0,0,1,1.271,4.408v.932h-3.391v-2.12a3.013,3.013,0,0,0-.17-.847,1.714,1.714,0,0,0-.338-.678,1.374,1.374,0,0,0-.594-.338,3.051,3.051,0,0,0-.932-.17,2.345,2.345,0,0,0-.763.085,2.808,2.808,0,0,0-.509.254,1.817,1.817,0,0,0-.338.423l-.254.509a1.65,1.65,0,0,0-.085.677c0,.254-.085.509-.085.678v8.815a6.437,6.437,0,0,0,.424,2.628,1.775,1.775,0,0,0,1.694.848,2.348,2.348,0,0,0,1.1-.254,2,2,0,0,0,.678-.763,4.179,4.179,0,0,0,.339-1.1,8.233,8.233,0,0,0,.085-1.526v-1.611H414.1v-2.373h5.426V1246.5h-2.374l-.254-2.035A3.261,3.261,0,0,1,413.509,1247.011Z" transform="translate(-408.168 -1226.498)" fill="#1a1a1a"/>
      <path id="Trazado_120450" data-name="Trazado 120450" d="M422.933,1246.773v-19.92h4.577a12.834,12.834,0,0,1,2.712.254,4.56,4.56,0,0,1,1.95.848,4,4,0,0,1,1.271,1.61,7.233,7.233,0,0,1,.423,2.544,6.31,6.31,0,0,1-.593,3.051,3.352,3.352,0,0,1-1.865,1.7l2.8,9.832h-3.644l-2.374-9.07h-1.611v9.07l-3.644.085Zm3.644-11.443h.848a3.2,3.2,0,0,0,2.288-.679,3.445,3.445,0,0,0,.679-2.373,3.227,3.227,0,0,0-.594-2.289,2.873,2.873,0,0,0-2.119-.678h-1.1Z" transform="translate(-408.862 -1226.515)" fill="#1a1a1a"/>
      <path id="Trazado_120451" data-name="Trazado 120451" d="M436.185,1246.773l4.069-19.92h3.814l4.069,19.92h-3.39l-.763-4.662h-3.476l-.847,4.662Zm4.662-7.035h2.628l-1.356-8.138Z" transform="translate(-409.484 -1226.515)" fill="#1a1a1a"/>
      <path id="Trazado_120452" data-name="Trazado 120452" d="M450.683,1246.773v-19.92h2.458l4.832,11.274v-11.274h2.967v19.92h-2.288l-4.917-11.867v11.867Z" transform="translate(-410.165 -1226.515)" fill="#1a1a1a"/>
      <path id="Trazado_120453" data-name="Trazado 120453" d="M464.647,1246.773v-19.92h4.662a10.822,10.822,0,0,1,3.052.339,4.37,4.37,0,0,1,1.949,1.1,3.934,3.934,0,0,1,1.018,1.95,12.606,12.606,0,0,1,.338,2.8v7.2a9.594,9.594,0,0,1-.338,2.882,5.742,5.742,0,0,1-1.018,2.035,3.928,3.928,0,0,1-1.864,1.187,9.4,9.4,0,0,1-2.882.424Zm3.644-2.543h1.018a3.173,3.173,0,0,0,.932-.085,5.82,5.82,0,0,0,.679-.255,1.019,1.019,0,0,0,.423-.424,1.8,1.8,0,0,0,.254-.594,5.365,5.365,0,0,0,.17-.762,3.18,3.18,0,0,0,.085-.847v-9.494c0-.254-.085-.594-.085-.847a5.827,5.827,0,0,0-.254-.679,1.025,1.025,0,0,0-.423-.424.963.963,0,0,0-.679-.255c-.254,0-.679-.084-1.017-.084h-1.018l-.085,14.749Z" transform="translate(-410.821 -1226.515)" fill="#1a1a1a"/>
      <path id="Trazado_120454" data-name="Trazado 120454" d="M478.967,1246.773v-19.92h8.307v2.543h-4.747v5.679h3.73v2.543h-3.73v6.527h4.747v2.543h-8.307Z" transform="translate(-411.493 -1226.515)" fill="#1a1a1a"/>
      <path id="Trazado_120455" data-name="Trazado 120455" d="M494.971,1247.019c-3.475,0-5.34-2.035-5.509-6.1l3.136-.679c.085,2.627.847,3.985,2.288,3.985a1.6,1.6,0,0,0,1.271-.509,2.158,2.158,0,0,0,.424-1.356,3.1,3.1,0,0,0-.339-1.526,4.125,4.125,0,0,0-.678-1.1l-1.1-1.1-2.628-2.288a6.027,6.027,0,0,1-2.288-4.832,4.542,4.542,0,0,1,1.356-3.56,5.234,5.234,0,0,1,3.729-1.272,6.791,6.791,0,0,1,1.95.255,3,3,0,0,1,1.356.763,4.451,4.451,0,0,1,.933,1.186,4.919,4.919,0,0,1,.508,1.441c.085.509.17,1.1.254,1.7l-3.136.593a3.491,3.491,0,0,0-.085-1.017,4.369,4.369,0,0,0-.17-.932,2.109,2.109,0,0,0-.338-.763,1.509,1.509,0,0,0-.594-.423,2.508,2.508,0,0,0-.847-.17,1.729,1.729,0,0,0-1.272.508,2.088,2.088,0,0,0-.423,1.271,3.036,3.036,0,0,0,.338,1.611,7.9,7.9,0,0,0,1.187,1.356l2.628,2.289a13.417,13.417,0,0,1,1.1,1.1c.254.339.594.763.933,1.271a12.188,12.188,0,0,1,.678,1.526,6.45,6.45,0,0,1,.254,1.78,4.8,4.8,0,0,1-1.356,3.561A4.859,4.859,0,0,1,494.971,1247.019Z" transform="translate(-411.986 -1226.506)" fill="#1a1a1a"/>
      <path id="Trazado_120456" data-name="Trazado 120456" d="M513.925,1247.011a4.655,4.655,0,0,1-4.069-1.78,8.776,8.776,0,0,1-1.271-5.171v-6.441a14.941,14.941,0,0,1,.254-2.967,6.409,6.409,0,0,1,.933-2.2,3.752,3.752,0,0,1,1.78-1.441,6.724,6.724,0,0,1,2.712-.508,5.553,5.553,0,0,1,4.238,1.441,6.517,6.517,0,0,1,1.271,4.408v.932H516.3v-2.12a3.013,3.013,0,0,0-.17-.847,1.69,1.69,0,0,0-.338-.678,1.374,1.374,0,0,0-.594-.338,3.051,3.051,0,0,0-.932-.17,2.345,2.345,0,0,0-.763.085,2.794,2.794,0,0,0-.508.254,1.817,1.817,0,0,0-.339.423l-.255.509a1.651,1.651,0,0,0-.085.677c0,.254-.085.509-.085.678v8.815a6.437,6.437,0,0,0,.424,2.628,1.777,1.777,0,0,0,1.7.848,2.346,2.346,0,0,0,1.1-.254,1.992,1.992,0,0,0,.678-.763,4.182,4.182,0,0,0,.339-1.1,8.236,8.236,0,0,0,.085-1.526v-1.611h-2.119v-2.373h5.425V1246.5h-2.373l-.255-2.035A3.116,3.116,0,0,1,513.925,1247.011Z" transform="translate(-412.885 -1226.498)" fill="#1a1a1a"/>
      <path id="Trazado_120457" data-name="Trazado 120457" d="M523.349,1246.773v-19.92h4.577a12.827,12.827,0,0,1,2.712.254,4.556,4.556,0,0,1,1.95.848,4,4,0,0,1,1.271,1.61,7.231,7.231,0,0,1,.424,2.544,6.309,6.309,0,0,1-.594,3.051,3.352,3.352,0,0,1-1.865,1.7l2.8,9.832h-3.644l-2.374-9.07h-1.61v9.07l-3.645.085Zm3.645-11.443h.847a3.2,3.2,0,0,0,2.288-.679,3.446,3.446,0,0,0,.679-2.373,3.227,3.227,0,0,0-.594-2.289,2.873,2.873,0,0,0-2.119-.678h-1.1Z" transform="translate(-413.578 -1226.515)" fill="#1a1a1a"/>
      <path id="Trazado_120458" data-name="Trazado 120458" d="M543.085,1247.028a6.2,6.2,0,0,1-2.288-.339,4.141,4.141,0,0,1-1.611-.848,3.674,3.674,0,0,1-1.018-1.441,6.586,6.586,0,0,1-.508-1.949,18.283,18.283,0,0,1-.17-2.374v-13.223h3.476V1241.6a4.3,4.3,0,0,0,.169,1.018,1.969,1.969,0,0,0,.339.847,1.14,1.14,0,0,0,.594.509,1.836,1.836,0,0,0,1.865,0,3.712,3.712,0,0,0,.593-.509,2.542,2.542,0,0,0,.339-.847,4.259,4.259,0,0,0,.17-1.018v-14.749h3.475v13.223a18.485,18.485,0,0,1-.169,2.374,7.319,7.319,0,0,1-.509,1.949,3.682,3.682,0,0,1-1.017,1.441,4.155,4.155,0,0,1-1.611.848A6.079,6.079,0,0,1,543.085,1247.028Z" transform="translate(-414.242 -1226.515)" fill="#1a1a1a"/>
      <path id="Trazado_120459" data-name="Trazado 120459" d="M552.166,1246.773v-19.92h5.765c3.39,0,5.085,1.865,5.085,5.679a5.248,5.248,0,0,1-1.356,4.069,5.54,5.54,0,0,1-3.9,1.271h-1.95v8.9Zm3.645-11.443H557a2.54,2.54,0,0,0,2.035-.594,3.666,3.666,0,0,0,.508-2.2,6.877,6.877,0,0,0-.085-1.441,3.019,3.019,0,0,0-.338-.932,1.848,1.848,0,0,0-.763-.594,6.14,6.14,0,0,0-1.441-.169h-1.1Z" transform="translate(-414.932 -1226.515)" fill="#1a1a1a"/>
      <path id="Trazado_120460" data-name="Trazado 120460" d="M571,1247.019a5.44,5.44,0,0,1-4.408-1.7,7.908,7.908,0,0,1-1.356-4.917v-7.29a8.789,8.789,0,0,1,.339-2.712,5.585,5.585,0,0,1,.932-2.035,3.463,3.463,0,0,1,1.78-1.271,8.274,8.274,0,0,1,2.712-.424c2.035,0,3.476.509,4.408,1.611a7.3,7.3,0,0,1,1.356,4.832v7.375a8.79,8.79,0,0,1-.339,2.712,5.569,5.569,0,0,1-.932,2.035,4.17,4.17,0,0,1-1.78,1.356A9.092,9.092,0,0,1,571,1247.019Zm-.932-2.882a2.659,2.659,0,0,0,1.864,0,1.523,1.523,0,0,0,.594-.424,1.706,1.706,0,0,0,.339-.679,2.5,2.5,0,0,0,.17-.847v-9.917a4.855,4.855,0,0,0-.085-1.187c-.085-.339-.17-.593-.255-.932a2.272,2.272,0,0,0-.594-.678,2.159,2.159,0,0,0-1.1-.17,4.289,4.289,0,0,0-1.1.17,1.172,1.172,0,0,0-.594.678,3.826,3.826,0,0,0-.255.932c0,.339-.085.678-.085,1.188v10a3.72,3.72,0,0,0,.17.847,1.707,1.707,0,0,0,.339.678A3.692,3.692,0,0,0,570.073,1244.137Z" transform="translate(-415.546 -1226.506)" fill="#1a1a1a"/>
      <path id="Trazado_120461" data-name="Trazado 120461" d="M585.07,1247.019c-3.476,0-5.34-2.035-5.51-6.1l3.136-.679c.085,2.627.847,3.985,2.288,3.985a1.6,1.6,0,0,0,1.271-.509,2.158,2.158,0,0,0,.424-1.356,3.1,3.1,0,0,0-.339-1.526,4.151,4.151,0,0,0-.678-1.1l-1.1-1.1-2.628-2.288a6.027,6.027,0,0,1-2.288-4.832,4.539,4.539,0,0,1,1.356-3.56,5.233,5.233,0,0,1,3.729-1.272,6.8,6.8,0,0,1,1.95.255,3,3,0,0,1,1.356.763,4.428,4.428,0,0,1,.932,1.186,4.894,4.894,0,0,1,.509,1.441c.085.509.17,1.1.254,1.7l-3.136.593a3.491,3.491,0,0,0-.085-1.017,4.372,4.372,0,0,0-.17-.932,2.1,2.1,0,0,0-.339-.763,1.507,1.507,0,0,0-.593-.423,2.509,2.509,0,0,0-.848-.17,1.729,1.729,0,0,0-1.271.508,2.083,2.083,0,0,0-.424,1.271,3.027,3.027,0,0,0,.339,1.611,7.94,7.94,0,0,0,1.187,1.356l2.628,2.289a13.584,13.584,0,0,1,1.1,1.1c.255.339.594.763.932,1.271a12.038,12.038,0,0,1,.679,1.526,6.447,6.447,0,0,1,.255,1.78,4.8,4.8,0,0,1-1.356,3.561A4.859,4.859,0,0,1,585.07,1247.019Z" transform="translate(-416.218 -1226.506)" fill="#1a1a1a"/>
      <path id="Trazado_120462" data-name="Trazado 120462" d="M599.039,1246.773v-19.92H603.7a10.823,10.823,0,0,1,3.052.339,4.379,4.379,0,0,1,1.95,1.1,3.941,3.941,0,0,1,1.017,1.95,12.6,12.6,0,0,1,.339,2.8v7.2a9.591,9.591,0,0,1-.339,2.882,5.757,5.757,0,0,1-1.017,2.035,3.936,3.936,0,0,1-1.865,1.187,9.4,9.4,0,0,1-2.882.424Zm3.645-2.543H603.7a3.169,3.169,0,0,0,.932-.085,5.82,5.82,0,0,0,.679-.255,1.021,1.021,0,0,0,.424-.424,1.789,1.789,0,0,0,.254-.594,5.358,5.358,0,0,0,.17-.762,3.181,3.181,0,0,0,.085-.847v-9.494c0-.254-.085-.594-.085-.847a5.793,5.793,0,0,0-.255-.679,1.013,1.013,0,0,0-.423-.424.963.963,0,0,0-.679-.255c-.254,0-.677-.084-1.017-.084h-1.017v14.749Z" transform="translate(-417.133 -1226.515)" fill="#1a1a1a"/>
      <path id="Trazado_120463" data-name="Trazado 120463" d="M613.359,1246.773v-19.92h8.307v2.543h-4.747v5.679h3.73v2.543h-3.73v6.527h4.747v2.543h-8.307Z" transform="translate(-417.806 -1226.515)" fill="#1a1a1a"/>
      <path id="Trazado_120464" data-name="Trazado 120464" d="M630.614,1246.773v-19.92h8.307v2.543h-4.747v5.679h3.73v2.543h-3.73v6.527h4.747v2.543h-8.307v.085Z" transform="translate(-418.616 -1226.515)" fill="#1a1a1a"/>
      <path id="Trazado_120465" data-name="Trazado 120465" d="M641.643,1246.773v-19.92H646.3a10.814,10.814,0,0,1,3.052.339,4.373,4.373,0,0,1,1.95,1.1,3.932,3.932,0,0,1,1.017,1.95,12.6,12.6,0,0,1,.339,2.8v7.2a9.591,9.591,0,0,1-.339,2.882,5.724,5.724,0,0,1-1.017,2.035,3.931,3.931,0,0,1-1.865,1.187,9.392,9.392,0,0,1-2.882.424Zm3.644-2.543H646.3a3.179,3.179,0,0,0,.933-.085,5.8,5.8,0,0,0,.678-.255,1.021,1.021,0,0,0,.424-.424,1.8,1.8,0,0,0,.254-.594,5.348,5.348,0,0,0,.17-.762,3.178,3.178,0,0,0,.085-.847v-9.494c0-.254-.085-.594-.085-.847a5.815,5.815,0,0,0-.254-.679,1.022,1.022,0,0,0-.424-.424.96.96,0,0,0-.678-.255c-.254,0-.679-.084-1.018-.084h-1.017v14.749Z" transform="translate(-419.134 -1226.515)" fill="#1a1a1a"/>
      <path id="Trazado_120466" data-name="Trazado 120466" d="M654.539,1246.773l4.069-19.92h3.815l4.069,19.92H663.1l-.762-4.662h-3.476l-.847,4.662Zm4.577-7.035h2.628l-1.356-8.138Z" transform="translate(-419.74 -1226.515)" fill="#1a1a1a"/>
      <path id="Trazado_120467" data-name="Trazado 120467" d="M669.037,1246.773v-19.92H673.7a10.821,10.821,0,0,1,3.052.339,4.369,4.369,0,0,1,1.949,1.1,3.934,3.934,0,0,1,1.018,1.95,12.6,12.6,0,0,1,.338,2.8v7.2a9.625,9.625,0,0,1-.338,2.882,5.74,5.74,0,0,1-1.018,2.035,3.928,3.928,0,0,1-1.864,1.187,9.4,9.4,0,0,1-2.882.424Zm3.644-2.543H673.7a3.173,3.173,0,0,0,.932-.085,5.825,5.825,0,0,0,.679-.255,1.019,1.019,0,0,0,.423-.424,1.8,1.8,0,0,0,.255-.594,5.358,5.358,0,0,0,.17-.762,3.176,3.176,0,0,0,.085-.847v-9.494c0-.254-.085-.594-.085-.847a5.828,5.828,0,0,0-.254-.679,1.026,1.026,0,0,0-.423-.424.963.963,0,0,0-.679-.255c-.254,0-.679-.084-1.017-.084h-1.018v14.749Z" transform="translate(-420.421 -1226.515)" fill="#1a1a1a"/>
    </g>
  </g>
  <g id="Grupo_83002" data-name="Grupo 83002" transform="translate(38.229 217.761)">
    <g id="Grupo_82999" data-name="Grupo 82999">
      <rect id="Rectángulo_34399" data-name="Rectángulo 34399" width="92.902" height="43.484" fill="none"/>
    </g>
    <g id="Grupo_83000" data-name="Grupo 83000" transform="translate(26.362 0.679)" style="isolation: isolate">
      <path id="Trazado_120468" data-name="Trazado 120468" d="M480.911,1463.077a4.915,4.915,0,0,1-1.017,3.391,3.693,3.693,0,0,1-5.425,0,5.058,5.058,0,0,1-1.018-3.391v-2.8a4.908,4.908,0,0,1,1.018-3.39,3.521,3.521,0,0,1,2.712-1.187,3.4,3.4,0,0,1,2.712,1.187,5.062,5.062,0,0,1,1.017,3.39Zm-1.611-3.051a4.17,4.17,0,0,0-.508-2.289,1.861,1.861,0,0,0-1.611-.762,1.967,1.967,0,0,0-1.611.762,3.539,3.539,0,0,0-.509,2.289v3.39a3.516,3.516,0,0,0,.594,2.289,1.863,1.863,0,0,0,1.611.762,1.971,1.971,0,0,0,1.611-.762,4.17,4.17,0,0,0,.508-2.289l-.085-3.39Z" transform="translate(-473.452 -1455.703)" fill="#1a1a1a"/>
      <path id="Trazado_120469" data-name="Trazado 120469" d="M490.693,1463.555h-3.9v-1.271h3.9Z" transform="translate(-474.079 -1456.012)" fill="#1a1a1a"/>
      <path id="Trazado_120470" data-name="Trazado 120470" d="M501.006,1467.578H499.4v-10.172h-2.373v-1.1l3.984-.424Z" transform="translate(-474.559 -1455.711)" fill="#1a1a1a"/>
      <path id="Trazado_120471" data-name="Trazado 120471" d="M512.516,1463.594h1.611v1.271h-1.611v2.712H510.9v-2.712h-5.256v-.847l5.171-8.138h1.7Zm-5.171,0H510.9v-5.509h-.085l-.17.424Z" transform="translate(-474.964 -1455.711)" fill="#1a1a1a"/>
    </g>
    <g id="Grupo_83001" data-name="Grupo 83001" transform="translate(28.736 19.242)" style="isolation: isolate">
      <path id="Trazado_120472" data-name="Trazado 120472" d="M481.537,1487.825a2.1,2.1,0,0,1-.085-.678c0-.17-.085-.424-.085-.594a2.824,2.824,0,0,1-1.186,1.018,3.468,3.468,0,0,1-1.526.423,2.79,2.79,0,0,1-2.035-.677,2.4,2.4,0,0,1-.678-1.95,2.268,2.268,0,0,1,1.017-1.95,4.463,4.463,0,0,1,2.712-.678h1.7v-.847a1.678,1.678,0,0,0-.424-1.187,1.752,1.752,0,0,0-1.356-.423,2.087,2.087,0,0,0-1.271.423,1.172,1.172,0,0,0-.509.933h-1.526v-.085a2.067,2.067,0,0,1,.933-1.7,3.705,3.705,0,0,1,2.458-.763,3.473,3.473,0,0,1,2.374.763,2.633,2.633,0,0,1,.932,2.119v4.154a3.474,3.474,0,0,0,.085.932,3,3,0,0,0,.17.847h-1.7v-.085Zm-2.627-1.187a2.936,2.936,0,0,0,1.526-.423,2.161,2.161,0,0,0,.932-1.018v-1.441h-1.78a2.072,2.072,0,0,0-1.526.509,1.6,1.6,0,0,0-.593,1.1,1.158,1.158,0,0,0,.338.932A1.44,1.44,0,0,0,478.91,1486.638Z" transform="translate(-475.943 -1475.365)" fill="#1a1a1a"/>
      <path id="Trazado_120473" data-name="Trazado 120473" d="M487.082,1478.91l.085,1.272a3.426,3.426,0,0,1,1.1-1.1,2.9,2.9,0,0,1,1.526-.338,2.755,2.755,0,0,1,2.2.847,3.507,3.507,0,0,1,.763,2.543v5.509h-1.611v-5.425a2.619,2.619,0,0,0-.424-1.611,1.789,1.789,0,0,0-1.356-.508,1.947,1.947,0,0,0-1.187.338,3.025,3.025,0,0,0-.848.933v6.357h-1.611v-8.646h1.356Zm4.832-3.475a1.726,1.726,0,0,1-.509,1.271,1.537,1.537,0,0,1-1.187.509,2.318,2.318,0,0,1-1.186-.339,2.02,2.02,0,0,0-1.017-.339.77.77,0,0,0-.594.254.917.917,0,0,0-.254.593l-.847-.169a1.727,1.727,0,0,1,.509-1.272,1.539,1.539,0,0,1,1.187-.508,2.057,2.057,0,0,1,1.1.338,2.276,2.276,0,0,0,1.1.339.77.77,0,0,0,.594-.254.96.96,0,0,0,.254-.678Z" transform="translate(-476.402 -1475.181)" fill="#1a1a1a"/>
      <path id="Trazado_120474" data-name="Trazado 120474" d="M495.065,1483.413a4.648,4.648,0,0,1,1.018-3.136,3.8,3.8,0,0,1,5.679,0,4.808,4.808,0,0,1,1.017,3.136v.17a4.655,4.655,0,0,1-1.017,3.136,3.385,3.385,0,0,1-2.8,1.271,3.667,3.667,0,0,1-2.882-1.271,4.805,4.805,0,0,1-1.018-3.136Zm1.611.17a3.837,3.837,0,0,0,.594,2.289,1.955,1.955,0,0,0,1.7.932,1.859,1.859,0,0,0,1.7-.932,3.843,3.843,0,0,0,.593-2.289v-.17a3.841,3.841,0,0,0-.593-2.288,1.954,1.954,0,0,0-1.7-.932,1.856,1.856,0,0,0-1.7.932,3.835,3.835,0,0,0-.594,2.288Z" transform="translate(-476.841 -1475.361)" fill="#1a1a1a"/>
      <path id="Trazado_120475" data-name="Trazado 120475" d="M510.269,1485.532a1.176,1.176,0,0,0-.423-.847,3.306,3.306,0,0,0-1.526-.594,6.3,6.3,0,0,1-2.374-.932,1.971,1.971,0,0,1-.762-1.611,2.338,2.338,0,0,1,.932-1.78,4.072,4.072,0,0,1,4.747,0,2.406,2.406,0,0,1,.847,1.865v.085h-1.526a1.468,1.468,0,0,0-.508-1.018,1.664,1.664,0,0,0-1.271-.423,1.761,1.761,0,0,0-1.272.338,1.181,1.181,0,0,0-.423.848,1.091,1.091,0,0,0,.338.847,5.337,5.337,0,0,0,1.442.509,7.84,7.84,0,0,1,2.458.932,1.971,1.971,0,0,1,.762,1.611,2.368,2.368,0,0,1-.932,1.865,3.684,3.684,0,0,1-2.458.677,3.775,3.775,0,0,1-2.628-.847,2.4,2.4,0,0,1-.932-1.95v-.085h1.526a1.368,1.368,0,0,0,.594,1.188,2.564,2.564,0,0,0,1.356.423,2.151,2.151,0,0,0,1.356-.339C509.931,1486.041,510.269,1485.872,510.269,1485.532Z" transform="translate(-477.297 -1475.361)" fill="#1a1a1a"/>
    </g>
  </g>
  <g id="Grupo_83006" data-name="Grupo 83006" transform="translate(382.459 217.761)">
    <g id="Grupo_83003" data-name="Grupo 83003">
      <rect id="Rectángulo_34400" data-name="Rectángulo 34400" width="92.902" height="43.484" fill="none"/>
    </g>
    <g id="Grupo_83004" data-name="Grupo 83004" transform="translate(22.124 0.678)" style="isolation: isolate">
      <path id="Trazado_120476" data-name="Trazado 120476" d="M834.185,1467.578h-1.611v-10.172H830.2v-1.1l3.984-.424v11.7Z" transform="translate(-830.201 -1455.71)" fill="#1a1a1a"/>
      <path id="Trazado_120477" data-name="Trazado 120477" d="M839.892,1462.323l.678-6.443h5.849v1.441h-4.493l-.424,3.306a2.654,2.654,0,0,1,.848-.424,4.29,4.29,0,0,1,1.017-.169,3.2,3.2,0,0,1,2.543,1.017,4.352,4.352,0,0,1,.933,2.882,4.118,4.118,0,0,1-.933,2.8,3.935,3.935,0,0,1-5.17.254,2.9,2.9,0,0,1-.932-2.374v-.085h1.441a1.769,1.769,0,0,0,1.949,1.95,1.863,1.863,0,0,0,1.526-.678,3.331,3.331,0,0,0,.594-1.95,2.74,2.74,0,0,0-.594-1.865,1.742,1.742,0,0,0-1.526-.678,2.74,2.74,0,0,0-1.356.255,1.548,1.548,0,0,0-.593.847Z" transform="translate(-830.652 -1455.71)" fill="#1a1a1a"/>
      <path id="Trazado_120478" data-name="Trazado 120478" d="M856.6,1463.555h-3.9v-1.271h3.9Z" transform="translate(-831.258 -1456.011)" fill="#1a1a1a"/>
      <path id="Trazado_120479" data-name="Trazado 120479" d="M866.806,1455.7a5.708,5.708,0,0,1,1.187.17,2.388,2.388,0,0,1,.933.339l-.339,1.187a2.539,2.539,0,0,0-.848-.338,3.8,3.8,0,0,0-1.017-.085,2.417,2.417,0,0,0-2.035,1.017,4.209,4.209,0,0,0-.762,2.627v.17a3.308,3.308,0,0,1,1.187-.678,3.958,3.958,0,0,1,1.441-.254,2.942,2.942,0,0,1,2.458,1.1,4.2,4.2,0,0,1,.933,2.712,4.351,4.351,0,0,1-1.017,2.967,3.281,3.281,0,0,1-2.628,1.1,3.5,3.5,0,0,1-2.8-1.271,5.036,5.036,0,0,1-1.1-3.475v-2.2a5.161,5.161,0,0,1,1.271-3.644A4.2,4.2,0,0,1,866.806,1455.7Zm-.509,5.256a2.311,2.311,0,0,0-1.356.339,2.689,2.689,0,0,0-.847.847v.932a4.047,4.047,0,0,0,.678,2.459,1.981,1.981,0,0,0,1.7.847,1.615,1.615,0,0,0,1.526-.847,3.614,3.614,0,0,0,.509-2.035,2.6,2.6,0,0,0-.594-1.865A2.172,2.172,0,0,0,866.3,1460.958Z" transform="translate(-831.713 -1455.702)" fill="#1a1a1a"/>
      <path id="Trazado_120480" data-name="Trazado 120480" d="M872.533,1462.323l.679-6.443h5.849v1.441h-4.493l-.424,3.306a2.654,2.654,0,0,1,.848-.424,4.29,4.29,0,0,1,1.017-.169,3.2,3.2,0,0,1,2.543,1.017,4.352,4.352,0,0,1,.933,2.882,4.118,4.118,0,0,1-.933,2.8,3.935,3.935,0,0,1-5.17.254,2.9,2.9,0,0,1-.932-2.374v-.085h1.441a1.769,1.769,0,0,0,1.949,1.95,1.864,1.864,0,0,0,1.526-.678,3.331,3.331,0,0,0,.594-1.95,2.74,2.74,0,0,0-.594-1.865,1.743,1.743,0,0,0-1.526-.678,2.74,2.74,0,0,0-1.356.255,1.548,1.548,0,0,0-.593.847Z" transform="translate(-832.185 -1455.71)" fill="#1a1a1a"/>
    </g>
    <g id="Grupo_83005" data-name="Grupo 83005" transform="translate(28.735 19.242)" style="isolation: isolate">
      <path id="Trazado_120481" data-name="Trazado 120481" d="M842.733,1487.825a2.1,2.1,0,0,1-.085-.678c0-.17-.085-.424-.085-.594a2.821,2.821,0,0,1-1.187,1.018,3.461,3.461,0,0,1-1.526.423,2.79,2.79,0,0,1-2.034-.677,2.393,2.393,0,0,1-.679-1.95,2.269,2.269,0,0,1,1.018-1.95,4.461,4.461,0,0,1,2.712-.678h1.7v-.847a1.678,1.678,0,0,0-.424-1.187,1.754,1.754,0,0,0-1.356-.423,2.085,2.085,0,0,0-1.271.423,1.172,1.172,0,0,0-.509.933h-1.526v-.085a2.067,2.067,0,0,1,.933-1.7,3.7,3.7,0,0,1,2.458-.763,3.469,3.469,0,0,1,2.373.763,2.631,2.631,0,0,1,.933,2.119v4.154a3.477,3.477,0,0,0,.085.932,3,3,0,0,0,.169.847h-1.695v-.085Zm-2.628-1.187a2.931,2.931,0,0,0,1.526-.423,2.158,2.158,0,0,0,.933-1.018v-1.441h-1.78a2.071,2.071,0,0,0-1.526.509,1.334,1.334,0,0,0-.594,1.1,1.156,1.156,0,0,0,.339.932A1.7,1.7,0,0,0,840.1,1486.638Z" transform="translate(-837.138 -1475.365)" fill="#1a1a1a"/>
      <path id="Trazado_120482" data-name="Trazado 120482" d="M848.367,1478.91l.085,1.272a3.423,3.423,0,0,1,1.1-1.1,2.9,2.9,0,0,1,1.526-.338,2.756,2.756,0,0,1,2.2.847,3.512,3.512,0,0,1,.762,2.543v5.509h-1.611v-5.425a2.626,2.626,0,0,0-.423-1.611,1.79,1.79,0,0,0-1.357-.508,1.951,1.951,0,0,0-1.187.338,3.023,3.023,0,0,0-.847.933v6.357h-1.611v-8.646h1.356Zm4.832-3.475a1.726,1.726,0,0,1-.509,1.271,1.538,1.538,0,0,1-1.186.509,2.313,2.313,0,0,1-1.187-.339,2.022,2.022,0,0,0-1.018-.339.77.77,0,0,0-.593.254.917.917,0,0,0-.254.593l-.847-.169a1.726,1.726,0,0,1,.508-1.272,1.542,1.542,0,0,1,1.187-.508,2.06,2.06,0,0,1,1.1.338,2.274,2.274,0,0,0,1.1.339.767.767,0,0,0,.593-.254.959.959,0,0,0,.254-.678Z" transform="translate(-837.602 -1475.181)" fill="#1a1a1a"/>
      <path id="Trazado_120483" data-name="Trazado 120483" d="M856.35,1483.413a4.653,4.653,0,0,1,1.017-3.136,3.8,3.8,0,0,1,5.679,0,4.8,4.8,0,0,1,1.018,3.136v.17a4.65,4.65,0,0,1-1.018,3.136,3.806,3.806,0,0,1-5.679,0,4.81,4.81,0,0,1-1.017-3.136v-.17Zm1.526.17a3.843,3.843,0,0,0,.593,2.289,1.956,1.956,0,0,0,1.7.932,1.858,1.858,0,0,0,1.7-.932,3.836,3.836,0,0,0,.594-2.289v-.17a3.835,3.835,0,0,0-.594-2.288,1.953,1.953,0,0,0-1.7-.932,1.857,1.857,0,0,0-1.7.932,3.842,3.842,0,0,0-.593,2.288Z" transform="translate(-838.04 -1475.361)" fill="#1a1a1a"/>
      <path id="Trazado_120484" data-name="Trazado 120484" d="M871.554,1485.532a1.174,1.174,0,0,0-.424-.847,3.3,3.3,0,0,0-1.526-.594,6.294,6.294,0,0,1-2.373-.932,1.97,1.97,0,0,1-.763-1.611,2.336,2.336,0,0,1,.933-1.78,4.07,4.07,0,0,1,4.746,0,2.4,2.4,0,0,1,.848,1.865v.085H871.47a1.466,1.466,0,0,0-.509-1.018,1.661,1.661,0,0,0-1.271-.423,1.76,1.76,0,0,0-1.271.338,1.178,1.178,0,0,0-.424.848,1.088,1.088,0,0,0,.339.847,5.34,5.34,0,0,0,1.441.509,7.848,7.848,0,0,1,2.459.932,1.972,1.972,0,0,1,.762,1.611,2.371,2.371,0,0,1-.932,1.865,3.685,3.685,0,0,1-2.459.677,3.774,3.774,0,0,1-2.628-.847,2.4,2.4,0,0,1-.932-1.95v-.085h1.526a1.37,1.37,0,0,0,.593,1.188,2.57,2.57,0,0,0,1.356.423,2.148,2.148,0,0,0,1.356-.339C871.215,1486.041,871.554,1485.872,871.554,1485.532Z" transform="translate(-838.496 -1475.361)" fill="#1a1a1a"/>
    </g>
  </g>
  <g id="Grupo_83010" data-name="Grupo 83010" transform="translate(688.969 217.761)">
    <g id="Grupo_83007" data-name="Grupo 83007">
      <rect id="Rectángulo_34401" data-name="Rectángulo 34401" width="71.711" height="43.484" fill="none"/>
    </g>
    <g id="Grupo_83008" data-name="Grupo 83008" transform="translate(6.527 0.085)" style="isolation: isolate">
      <path id="Trazado_120485" data-name="Trazado 120485" d="M1139.86,1455.7a5.726,5.726,0,0,1,1.187.17,2.383,2.383,0,0,1,.932.339l-.339,1.187a2.525,2.525,0,0,0-.847-.338,3.8,3.8,0,0,0-1.017-.085,2.415,2.415,0,0,0-2.035,1.017,4.2,4.2,0,0,0-.763,2.627v.17a3.312,3.312,0,0,1,1.188-.678,3.954,3.954,0,0,1,1.441-.254,2.943,2.943,0,0,1,2.458,1.1,4.2,4.2,0,0,1,.932,2.712,4.346,4.346,0,0,1-1.017,2.967,3.278,3.278,0,0,1-2.627,1.1,3.5,3.5,0,0,1-2.8-1.271,5.031,5.031,0,0,1-1.1-3.475v-2.2a5.157,5.157,0,0,1,1.271-3.644A4.066,4.066,0,0,1,1139.86,1455.7Zm-.594,5.256a2.31,2.31,0,0,0-1.356.339,2.679,2.679,0,0,0-.847.847v.932a4.04,4.04,0,0,0,.678,2.459,1.98,1.98,0,0,0,1.7.847,1.616,1.616,0,0,0,1.526-.847,3.615,3.615,0,0,0,.508-2.035,2.6,2.6,0,0,0-.593-1.865A2.043,2.043,0,0,0,1139.266,1460.958Z" transform="translate(-1135.452 -1455.109)" fill="#1a1a1a"/>
      <path id="Trazado_120486" data-name="Trazado 120486" d="M1145.587,1462.323l.679-6.443h5.849v1.441h-4.493l-.424,3.306a2.66,2.66,0,0,1,.847-.424,4.3,4.3,0,0,1,1.018-.169,3.2,3.2,0,0,1,2.543,1.017,4.351,4.351,0,0,1,.932,2.882,4.117,4.117,0,0,1-.932,2.8,3.936,3.936,0,0,1-5.171.254,2.9,2.9,0,0,1-.932-2.374v-.085h1.441a1.771,1.771,0,0,0,1.95,1.95,1.865,1.865,0,0,0,1.526-.678,3.331,3.331,0,0,0,.593-1.95,2.744,2.744,0,0,0-.593-1.865,1.744,1.744,0,0,0-1.526-.678,2.738,2.738,0,0,0-1.356.255,1.549,1.549,0,0,0-.594.847Z" transform="translate(-1135.924 -1455.118)" fill="#1a1a1a"/>
      <path id="Trazado_120487" data-name="Trazado 120487" d="M1164.616,1467.724a2.1,2.1,0,0,1-.085-.678c0-.17-.085-.424-.085-.594a2.82,2.82,0,0,1-1.187,1.018,3.459,3.459,0,0,1-1.525.423,2.79,2.79,0,0,1-2.035-.678,2.393,2.393,0,0,1-.679-1.95,2.269,2.269,0,0,1,1.018-1.95,4.461,4.461,0,0,1,2.713-.678h1.7v-.847a1.678,1.678,0,0,0-.424-1.187,2.163,2.163,0,0,0-1.356-.423,2.086,2.086,0,0,0-1.271.423,1.172,1.172,0,0,0-.509.933h-1.526v-.085a2.068,2.068,0,0,1,.933-1.7,3.706,3.706,0,0,1,2.458-.763,3.47,3.47,0,0,1,2.373.763,2.631,2.631,0,0,1,.933,2.119v4.154a3.476,3.476,0,0,0,.085.932,3,3,0,0,0,.169.847h-1.695v-.085Zm-2.628-1.186a2.931,2.931,0,0,0,1.526-.423,2.157,2.157,0,0,0,.933-1.018v-1.441h-1.78a2.071,2.071,0,0,0-1.526.509,1.334,1.334,0,0,0-.594,1.1,1.155,1.155,0,0,0,.339.932A1.438,1.438,0,0,0,1161.988,1466.537Z" transform="translate(-1136.559 -1455.264)" fill="#1a1a1a"/>
      <path id="Trazado_120488" data-name="Trazado 120488" d="M1170.161,1458.809l.085,1.272a3.43,3.43,0,0,1,1.1-1.1,2.9,2.9,0,0,1,1.526-.339,2.757,2.757,0,0,1,2.2.848,3.652,3.652,0,0,1,.762,2.543v5.509h-1.611v-5.425a2.627,2.627,0,0,0-.423-1.611,1.79,1.79,0,0,0-1.357-.508,1.952,1.952,0,0,0-1.187.338,3.023,3.023,0,0,0-.847.933v6.357h-1.61v-8.646h1.356Zm4.832-3.475a1.725,1.725,0,0,1-.509,1.271,1.538,1.538,0,0,1-1.187.509,2.314,2.314,0,0,1-1.186-.339,2.022,2.022,0,0,0-1.018-.339.769.769,0,0,0-.593.254.916.916,0,0,0-.254.593l-.847-.169a1.725,1.725,0,0,1,.508-1.272,1.541,1.541,0,0,1,1.187-.508,2.059,2.059,0,0,1,1.1.338,2.273,2.273,0,0,0,1.1.339.77.77,0,0,0,.594-.254.963.963,0,0,0,.254-.678Z" transform="translate(-1137.019 -1455.08)" fill="#1a1a1a"/>
      <path id="Trazado_120489" data-name="Trazado 120489" d="M1178.144,1463.312a4.651,4.651,0,0,1,1.017-3.135,3.8,3.8,0,0,1,5.679,0,4.8,4.8,0,0,1,1.018,3.135v.17a4.65,4.65,0,0,1-1.018,3.136,3.806,3.806,0,0,1-5.679,0,4.81,4.81,0,0,1-1.017-3.136Zm1.611.17a3.836,3.836,0,0,0,.594,2.289,1.953,1.953,0,0,0,1.694.932,1.858,1.858,0,0,0,1.7-.932,4.561,4.561,0,0,0,.594-2.289v-.17a3.836,3.836,0,0,0-.594-2.288,1.952,1.952,0,0,0-1.7-.932,1.855,1.855,0,0,0-1.694.932,3.834,3.834,0,0,0-.594,2.288Z" transform="translate(-1137.457 -1455.26)" fill="#1a1a1a"/>
      <path id="Trazado_120490" data-name="Trazado 120490" d="M1193.348,1465.431a1.174,1.174,0,0,0-.424-.847,3.3,3.3,0,0,0-1.526-.594,6.3,6.3,0,0,1-2.373-.932,1.969,1.969,0,0,1-.763-1.611,2.337,2.337,0,0,1,.933-1.78,4.072,4.072,0,0,1,4.747,0,2.406,2.406,0,0,1,.847,1.865v.085h-1.526a1.466,1.466,0,0,0-.509-1.018,1.665,1.665,0,0,0-1.271-.423,1.764,1.764,0,0,0-1.271.338,1.215,1.215,0,0,0-.424.933,1.088,1.088,0,0,0,.339.847,5.341,5.341,0,0,0,1.441.509,7.845,7.845,0,0,1,2.459.932,1.971,1.971,0,0,1,.762,1.611,2.371,2.371,0,0,1-.932,1.865,3.69,3.69,0,0,1-2.459.678,3.774,3.774,0,0,1-2.628-.847,2.4,2.4,0,0,1-.932-1.95v-.085h1.526a1.367,1.367,0,0,0,.593,1.187,2.347,2.347,0,0,0,1.356.424,2.152,2.152,0,0,0,1.357-.339C1193.009,1466.025,1193.348,1465.771,1193.348,1465.431Z" transform="translate(-1137.913 -1455.26)" fill="#1a1a1a"/>
    </g>
    <g id="Grupo_83009" data-name="Grupo 83009" transform="translate(13.308 19.666)" style="isolation: isolate">
      <path id="Trazado_120491" data-name="Trazado 120491" d="M1146.211,1484.6l.254,1.1h.085l2.12-6.527h1.78l-3.645,10a4.628,4.628,0,0,1-.932,1.525,2.229,2.229,0,0,1-1.7.678,1.262,1.262,0,0,1-.509-.085,3.6,3.6,0,0,1-.423-.085l.169-1.271h.678a1.174,1.174,0,0,0,.847-.424,2.311,2.311,0,0,0,.509-1.017l.339-.932-3.221-8.477h1.78Z" transform="translate(-1142.567 -1475.789)" fill="#1a1a1a"/>
      <path id="Trazado_120492" data-name="Trazado 120492" d="M1157.98,1479.086l.085,1.1a2.344,2.344,0,0,1,1.1-.933,3.245,3.245,0,0,1,3.052.085,2.189,2.189,0,0,1,.932,1.187,2.958,2.958,0,0,1,1.1-1.187,3.011,3.011,0,0,1,1.61-.424,2.752,2.752,0,0,1,2.119.933,4.138,4.138,0,0,1,.763,2.712v5.171h-1.61v-5.171a3.034,3.034,0,0,0-.424-1.78,1.667,1.667,0,0,0-1.356-.508,1.425,1.425,0,0,0-1.271.593,2.493,2.493,0,0,0-.594,1.441v5.594h-1.61v-5.17a3.04,3.04,0,0,0-.423-1.78,1.656,1.656,0,0,0-1.272-.593,2.463,2.463,0,0,0-1.187.254,1.693,1.693,0,0,0-.678.848v6.442h-1.611v-8.646h1.271v-.17Z" transform="translate(-1143.231 -1475.781)" fill="#1a1a1a"/>
      <path id="Trazado_120493" data-name="Trazado 120493" d="M1176.89,1487.662a2.1,2.1,0,0,1-.085-.678c0-.17-.085-.424-.085-.594a2.824,2.824,0,0,1-1.186,1.018,3.469,3.469,0,0,1-1.526.423,2.79,2.79,0,0,1-2.035-.677,2.393,2.393,0,0,1-.678-1.95,2.269,2.269,0,0,1,1.018-1.95,4.461,4.461,0,0,1,2.712-.678h1.7v-.847a1.677,1.677,0,0,0-.424-1.187,1.752,1.752,0,0,0-1.356-.423,2.085,2.085,0,0,0-1.271.423,1.172,1.172,0,0,0-.509.933h-1.526v-.085a2.067,2.067,0,0,1,.933-1.7,3.7,3.7,0,0,1,2.458-.763,3.469,3.469,0,0,1,2.373.763,2.631,2.631,0,0,1,.933,2.119v4.154a3.474,3.474,0,0,0,.085.932,3,3,0,0,0,.17.847h-1.7v-.085Zm-2.629-1.187a2.931,2.931,0,0,0,1.526-.423,2.158,2.158,0,0,0,.933-1.018v-1.441h-1.78a2.071,2.071,0,0,0-1.526.509,1.334,1.334,0,0,0-.594,1.1,1.155,1.155,0,0,0,.339.932A1.7,1.7,0,0,0,1174.262,1486.475Zm1.357-10.849h1.864v.085l-2.2,2.119h-1.187Z" transform="translate(-1143.916 -1475.626)" fill="#1a1a1a"/>
      <path id="Trazado_120494" data-name="Trazado 120494" d="M1186.055,1485.532a1.174,1.174,0,0,0-.424-.847,3.3,3.3,0,0,0-1.526-.594,6.292,6.292,0,0,1-2.373-.932,1.969,1.969,0,0,1-.763-1.611,2.336,2.336,0,0,1,.933-1.78,4.07,4.07,0,0,1,4.746,0,2.4,2.4,0,0,1,.848,1.865v.085h-1.526a1.466,1.466,0,0,0-.509-1.018,1.662,1.662,0,0,0-1.271-.423,1.757,1.757,0,0,0-1.271.338,1.178,1.178,0,0,0-.424.848,1.088,1.088,0,0,0,.339.847,5.326,5.326,0,0,0,1.441.509,7.831,7.831,0,0,1,2.458.932,1.97,1.97,0,0,1,.763,1.611,2.369,2.369,0,0,1-.933,1.865,3.683,3.683,0,0,1-2.458.677,3.772,3.772,0,0,1-2.627-.847,2.4,2.4,0,0,1-.932-1.95v-.085h1.526a1.367,1.367,0,0,0,.593,1.188,2.57,2.57,0,0,0,1.356.423,2.148,2.148,0,0,0,1.356-.339C1185.716,1486.041,1186.055,1485.872,1186.055,1485.532Z" transform="translate(-1144.351 -1475.785)" fill="#1a1a1a"/>
    </g>
  </g>
  <g id="Grupo_83017" data-name="Grupo 83017" transform="translate(410.987 153.848)">
    <g id="Grupo_83013" data-name="Grupo 83013" transform="translate(21.173 0.085)">
      <g id="Grupo_83011" data-name="Grupo 83011" transform="translate(0 8.223)">
        <path id="Trazado_120495" data-name="Trazado 120495" d="M873.773,1406.986c-.085-1.187-.678-7.544-.762-8.307a1.743,1.743,0,0,0-1.7-1.526,33.368,33.368,0,0,0-4.832-.508h0a31.94,31.94,0,0,0-4.832.508c-1.1.17-1.7.763-1.7,1.526-.084.763-.678,7.2-.762,8.307-.424,4.323,1.7,3.39,1.95,5.764,0,.085.085.255.085.338,0,0,.847,18.734,1.1,21.531a1.773,1.773,0,0,0,1.78,1.7,1.67,1.67,0,0,0,1.779-1.7l.17-15.851h.933l.17,15.851a1.827,1.827,0,0,0,3.644,0c.255-2.712,1.1-21.531,1.1-21.531.085-.084.085-.169.085-.338C872.077,1410.292,874.2,1411.309,873.773,1406.986Z" transform="translate(-859.137 -1396.645)" fill="#f42f63"/>
      </g>
      <g id="Grupo_83012" data-name="Grupo 83012" transform="translate(4.464)">
        <path id="Trazado_120496" data-name="Trazado 120496" d="M866.618,1394.884c1.78,0,2.8-1.865,2.8-3.561s-.932-3.306-2.8-3.306c-1.78,0-2.8,1.611-2.8,3.306C863.906,1393.1,864.838,1394.884,866.618,1394.884Z" transform="translate(-863.821 -1388.017)" fill="#f42f63"/>
      </g>
    </g>
    <g id="Grupo_83016" data-name="Grupo 83016">
      <g id="Grupo_83014" data-name="Grupo 83014" transform="translate(6.649)">
        <path id="Trazado_120497" data-name="Trazado 120497" d="M846.7,1394.964c1.865,0,2.8-1.865,2.8-3.645s-.932-3.391-2.8-3.391-2.8,1.611-2.8,3.391S844.83,1394.964,846.7,1394.964Z" transform="translate(-843.898 -1387.928)" fill="#f42f63"/>
      </g>
      <g id="Grupo_83015" data-name="Grupo 83015" transform="translate(0 8.561)">
        <path id="Trazado_120498" data-name="Trazado 120498" d="M855.777,1412.593s-2.12-10.341-3.136-12.376h0c-1.018-2.034-2.035-3.306-5.849-3.306h-.848c-3.814,0-4.831,1.272-5.849,3.306h0c-1.017,2.035-3.136,12.376-3.136,12.376a1.264,1.264,0,0,0,.933,1.526h.254a1.351,1.351,0,0,0,1.271-1.018l2.882-10.257-2.8,17.123h2.712l.847,15.257a.941.941,0,0,0,.933.933,1.018,1.018,0,0,0,1.017-.933l.847-15.257h1.018l.847,15.257a.962.962,0,0,0,1.017.933.941.941,0,0,0,.933-.933l.847-15.257h2.712l-2.8-17.123,2.882,10.257a1.351,1.351,0,0,0,1.272,1.018h.253A1.264,1.264,0,0,0,855.777,1412.593Z" transform="translate(-836.921 -1396.911)" fill="#f42f63"/>
      </g>
    </g>
  </g>
  <g id="Grupo_83018" data-name="Grupo 83018" transform="translate(688.969 47.722)">
    <rect id="Rectángulo_34402" data-name="Rectángulo 34402" width="71.796" height="69.761" fill="#ffab00"/>
  </g>
  <g id="Grupo_83019" data-name="Grupo 83019" transform="translate(168.682 47.722)">
    <rect id="Rectángulo_34403" data-name="Rectángulo 34403" width="520.456" height="69.761" fill="#f42f63"/>
  </g>
  <g id="Grupo_83020" data-name="Grupo 83020" transform="translate(0.424 47.722)">
    <rect id="Rectángulo_34404" data-name="Rectángulo 34404" width="168.597" height="69.761" fill="#be0c4d"/>
  </g>
  <g id="Grupo_83021" data-name="Grupo 83021" transform="translate(0.763 145.795)">
    <rect id="Rectángulo_34405" data-name="Rectángulo 34405" width="760.002" height="0.848" fill="#444"/>
  </g>
  <g id="Grupo_83022" data-name="Grupo 83022" transform="translate(0 138.336)">
    <rect id="Rectángulo_34406" data-name="Rectángulo 34406" width="0.848" height="15.766" fill="#444"/>
  </g>
  <g id="Grupo_83023" data-name="Grupo 83023" transform="translate(168.597 138.336)">
    <rect id="Rectángulo_34407" data-name="Rectángulo 34407" width="0.848" height="15.766" fill="#444"/>
  </g>
  <g id="Grupo_83024" data-name="Grupo 83024" transform="translate(760.341 138.336)">
    <rect id="Rectángulo_34408" data-name="Rectángulo 34408" width="0.848" height="15.766" fill="#444"/>
  </g>
  <g id="Grupo_83025" data-name="Grupo 83025" transform="translate(688.715 138.336)">
    <rect id="Rectángulo_34409" data-name="Rectángulo 34409" width="0.848" height="15.766" fill="#444"/>
  </g>
  <g id="Grupo_83027" data-name="Grupo 83027" transform="translate(699.225 72.388)">
    <g id="Grupo_83026" data-name="Grupo 83026" style="isolation: isolate">
      <path id="Trazado_120499" data-name="Trazado 120499" d="M1144.367,1323.053c-3.306,0-5-1.7-5-5.086v-.254h3.306a3.621,3.621,0,0,0,.339,1.95,1.442,1.442,0,0,0,1.356.677,1.375,1.375,0,0,0,1.356-.932,9.441,9.441,0,0,0,.423-3.221v-2.373a2.784,2.784,0,0,1-2.627,1.271,5.465,5.465,0,0,1-1.7-.255,2.534,2.534,0,0,1-1.187-.847,4.609,4.609,0,0,1-.762-1.271,8.962,8.962,0,0,1-.424-1.611,13.12,13.12,0,0,1-.085-1.865,9.142,9.142,0,0,1,.339-2.712,5.988,5.988,0,0,1,.932-2.12,4.416,4.416,0,0,1,1.611-1.441,5.789,5.789,0,0,1,4.747,0,4.2,4.2,0,0,1,1.611,1.356,7.493,7.493,0,0,1,.932,2.035,11.739,11.739,0,0,1,.255,2.543v6.782a18.065,18.065,0,0,1-.17,2.288,7.326,7.326,0,0,1-.509,1.95,6.631,6.631,0,0,1-.932,1.526,3.453,3.453,0,0,1-1.526,1.017A4.61,4.61,0,0,1,1144.367,1323.053Zm.085-10.511a1.918,1.918,0,0,0,1.779-1.1v-2.967c0-2.034-.593-3.136-1.694-3.136a1.266,1.266,0,0,0-.848.254,1.235,1.235,0,0,0-.509.763,4.246,4.246,0,0,0-.254,1.1,6.85,6.85,0,0,0-.085,1.356v1.271a1.258,1.258,0,0,0,.085.594,1.076,1.076,0,0,1,.085.509,1.221,1.221,0,0,0,.169.508,1.17,1.17,0,0,0,.255.339c.085.085.17.254.339.339.085.085.254.085.424.17Z" transform="translate(-1139.365 -1302.454)" fill="#1a1a1a"/>
      <path id="Trazado_120500" data-name="Trazado 120500" d="M1152.77,1327.036l-.338-1.271a2.1,2.1,0,0,0,1.187-.678,1.867,1.867,0,0,0,.424-1.356h-1.78v-3.221h3.306v3.052A3.156,3.156,0,0,1,1152.77,1327.036Z" transform="translate(-1139.971 -1303.302)" fill="#1a1a1a"/>
      <path id="Trazado_120501" data-name="Trazado 120501" d="M1162.068,1322.908l.085-16.105-3.221.847v-2.543a9.78,9.78,0,0,0,4.069-2.12h2.627l-.085,19.92Z" transform="translate(-1140.284 -1302.479)" fill="#1a1a1a"/>
      <path id="Trazado_120502" data-name="Trazado 120502" d="M1175,1314.008a3.989,3.989,0,0,1-3.306-1.271,6.032,6.032,0,0,1-1.017-3.815V1307.9a5.61,5.61,0,0,1,1.017-3.73,5.2,5.2,0,0,1,6.612,0,5.61,5.61,0,0,1,1.017,3.73v1.187a5.762,5.762,0,0,1-1.017,3.729A3.956,3.956,0,0,1,1175,1314.008Zm0-2.289a1.983,1.983,0,0,0,.678-.17,1.851,1.851,0,0,0,.424-.338,4.175,4.175,0,0,0,.254-.594,2.349,2.349,0,0,0,.085-.763v-2.8c0-.169-.085-.423-.085-.678a1.387,1.387,0,0,0-.254-.509.848.848,0,0,0-.424-.339,2.756,2.756,0,0,0-1.356,0,.844.844,0,0,0-.423.339,4.114,4.114,0,0,0-.254.594,2.1,2.1,0,0,0-.085.678v3.052a3.017,3.017,0,0,0,.17.848,1.079,1.079,0,0,0,.424.593C1174.487,1311.634,1174.741,1311.719,1175,1311.719Zm2.543,11.274,5.764-19.92h2.374l-5.764,19.92Zm10.6.169a3.986,3.986,0,0,1-3.306-1.271,6.026,6.026,0,0,1-1.017-3.814v-1.017a5.609,5.609,0,0,1,1.017-3.73,5.2,5.2,0,0,1,6.612,0,5.61,5.61,0,0,1,1.017,3.73v1.187a5.761,5.761,0,0,1-1.017,3.729A4.233,4.233,0,0,1,1188.135,1323.162Zm0-2.373a1.6,1.6,0,0,0,.678-.17,1.866,1.866,0,0,0,.423-.339,2.015,2.015,0,0,0,.254-.593,2.351,2.351,0,0,0,.085-.763v-2.8c0-.255-.085-.423-.085-.678-.085-.255-.085-.424-.254-.509a.849.849,0,0,0-.423-.339,1.6,1.6,0,0,0-.678-.17,1.656,1.656,0,0,0-.679.085.849.849,0,0,0-.423.339,4.161,4.161,0,0,0-.255.594,2.1,2.1,0,0,0-.085.678v3.052a3.008,3.008,0,0,0,.17.848,1.527,1.527,0,0,0,.424.593A2.5,2.5,0,0,0,1188.135,1320.789Z" transform="translate(-1140.836 -1302.479)" fill="#1a1a1a"/>
    </g>
  </g>
  <g id="Grupo_83029" data-name="Grupo 83029" transform="translate(397.293 72.473)">
    <g id="Grupo_83028" data-name="Grupo 83028" style="isolation: isolate">
      <path id="Trazado_120503" data-name="Trazado 120503" d="M827.722,1322.972a4.7,4.7,0,0,1-1.949-.339,3.539,3.539,0,0,1-1.441-.933,4.421,4.421,0,0,1-1.018-1.441,14.413,14.413,0,0,1-.593-1.779,16.5,16.5,0,0,1-.17-2.12v-6.7a18.047,18.047,0,0,1,.17-2.289,7.336,7.336,0,0,1,.508-1.95,6.636,6.636,0,0,1,.933-1.525,4.8,4.8,0,0,1,1.526-1.018,5.558,5.558,0,0,1,2.118-.339c3.306,0,5,1.7,5,5v.254H829.5a4.189,4.189,0,0,0-.339-2.035,1.4,1.4,0,0,0-1.356-.593,1.375,1.375,0,0,0-1.356.932,8.869,8.869,0,0,0-.424,3.136v2.373a2.7,2.7,0,0,1,1.018-.932,3.221,3.221,0,0,1,1.611-.339c2.882,0,4.238,1.865,4.238,5.764a13.393,13.393,0,0,1-.255,2.712,7.911,7.911,0,0,1-.848,2.119,3.815,3.815,0,0,1-1.61,1.441A4.6,4.6,0,0,1,827.722,1322.972Zm.085-2.629a1.272,1.272,0,0,0,.848-.253,1.853,1.853,0,0,0,.593-.763,4.2,4.2,0,0,0,.254-1.1,6.851,6.851,0,0,0,.085-1.356v-1.61c0-.339-.085-.594-.085-.764a2.155,2.155,0,0,0-.17-.593,1.081,1.081,0,0,0-.339-.509,1.845,1.845,0,0,0-.423-.254,1.656,1.656,0,0,0-.679-.085,1.87,1.87,0,0,0-1.78,1.186v2.967C826.027,1319.327,826.62,1320.344,827.807,1320.344Z" transform="translate(-822.552 -1302.543)" fill="#fff"/>
      <path id="Trazado_120504" data-name="Trazado 120504" d="M840.619,1323.061c-3.476,0-5.171-2.035-5.171-6.1,0-2.289.848-3.815,2.374-4.662a5.14,5.14,0,0,1-2.035-4.408,5.543,5.543,0,0,1,1.271-3.9,5.45,5.45,0,0,1,7.29.085,5.514,5.514,0,0,1,1.188,3.9,5.933,5.933,0,0,0,.253,9.155C845.789,1321.111,844.095,1323.145,840.619,1323.061Zm-.848-2.8a1.394,1.394,0,0,0,.848.17,2.506,2.506,0,0,0,.847-.17,1.43,1.43,0,0,0,.509-.508,1.6,1.6,0,0,0,.339-.763,3.716,3.716,0,0,0,.17-.847v-.933c0-2.2-.594-3.305-1.865-3.305s-1.865,1.1-1.95,3.305v.933a3.007,3.007,0,0,0,.17.847,1.6,1.6,0,0,0,.339.763A1.14,1.14,0,0,0,839.771,1320.263Zm.933-9.323c1.017,0,1.611-1.018,1.611-3.136a4.077,4.077,0,0,0-.339-1.865,1.352,1.352,0,0,0-1.187-.678,1.392,1.392,0,0,0-1.271.678,3.678,3.678,0,0,0-.424,1.78C839.009,1309.922,839.6,1310.939,840.7,1310.939Z" transform="translate(-823.158 -1302.547)" fill="#fff"/>
      <path id="Trazado_120505" data-name="Trazado 120505" d="M848.854,1327.125l-.339-1.271a2.1,2.1,0,0,0,1.187-.678,1.867,1.867,0,0,0,.424-1.356h-1.78V1320.6h3.306v3.052A3.205,3.205,0,0,1,848.854,1327.125Z" transform="translate(-823.763 -1303.391)" fill="#fff"/>
      <path id="Trazado_120506" data-name="Trazado 120506" d="M853.948,1322.9v-2.374l4.917-7.629c.085-.085.255-.423.594-.932a9.873,9.873,0,0,1,.678-1.017l.424-.848a9.437,9.437,0,0,0,.424-1.1,4.474,4.474,0,0,0,.085-1.1,3.443,3.443,0,0,0-.424-1.78,1.338,1.338,0,0,0-1.271-.594c-1.187.085-1.865,1.1-1.865,3.221v.848h-3.391v-.848a7.5,7.5,0,0,1,.339-2.458,4.843,4.843,0,0,1,.932-1.865,4.9,4.9,0,0,1,1.611-1.271,6.593,6.593,0,0,1,2.374-.424,5.207,5.207,0,0,1,3.814,1.356,5.538,5.538,0,0,1,1.271,3.9,9.4,9.4,0,0,1-.17,1.611,4.174,4.174,0,0,1-.508,1.441,7.4,7.4,0,0,1-.679,1.186c-.254.339-.508.763-.847,1.271,0,.085-.085.085-.085.17l-.085.085a.083.083,0,0,1-.085.085l-4.153,6.188h5.934v2.712Z" transform="translate(-824.027 -1302.551)" fill="#fff"/>
      <path id="Trazado_120507" data-name="Trazado 120507" d="M871.079,1314.1a3.986,3.986,0,0,1-3.306-1.272,6.026,6.026,0,0,1-1.017-3.814v-1.017a5.609,5.609,0,0,1,1.017-3.73,5.2,5.2,0,0,1,6.612,0,5.6,5.6,0,0,1,1.017,3.73v1.187a5.756,5.756,0,0,1-1.017,3.729A4.233,4.233,0,0,1,871.079,1314.1Zm0-2.374a2,2,0,0,0,.679-.17.909.909,0,0,0,.423-.338,2.03,2.03,0,0,0,.255-.594,2.348,2.348,0,0,0,.085-.763v-2.8c0-.254-.085-.423-.085-.678a1.383,1.383,0,0,0-.255-.509.84.84,0,0,0-.423-.339,2.753,2.753,0,0,0-1.356,0,.847.847,0,0,0-.424.339,4.154,4.154,0,0,0-.254.594,2.1,2.1,0,0,0-.085.678v3.052a3.011,3.011,0,0,0,.17.848,1.078,1.078,0,0,0,.424.593A3.17,3.17,0,0,0,871.079,1311.723Zm2.544,11.359,5.764-19.92h2.373L876,1323.082Zm10.595.084a3.982,3.982,0,0,1-3.305-1.271,6.021,6.021,0,0,1-1.018-3.814v-1.017a5.6,5.6,0,0,1,1.018-3.73,5.2,5.2,0,0,1,6.611,0,5.6,5.6,0,0,1,1.017,3.73v1.187a5.755,5.755,0,0,1-1.017,3.729A3.953,3.953,0,0,1,884.217,1323.166Zm0-2.288a1.6,1.6,0,0,0,.679-.17,1.842,1.842,0,0,0,.424-.339,2.046,2.046,0,0,0,.254-.593,2.348,2.348,0,0,0,.085-.763v-2.8c0-.254-.085-.424-.085-.678-.085-.254-.085-.424-.254-.509s-.254-.255-.424-.339a1.6,1.6,0,0,0-.679-.17,1.65,1.65,0,0,0-.678.085.847.847,0,0,0-.424.339,4.133,4.133,0,0,0-.254.594,2.1,2.1,0,0,0-.085.678v3.052a2.509,2.509,0,0,0,.17.848,1.526,1.526,0,0,0,.424.593A2.508,2.508,0,0,0,884.217,1320.878Z" transform="translate(-824.628 -1302.568)" fill="#fff"/>
    </g>
  </g>
  <g id="Grupo_83031" data-name="Grupo 83031" transform="translate(52.978 72.473)">
    <g id="Grupo_83030" data-name="Grupo 83030" style="isolation: isolate">
      <path id="Trazado_120508" data-name="Trazado 120508" d="M461.267,1322.718v-2.374l4.917-7.628c.085-.085.254-.424.593-.933a10.108,10.108,0,0,1,.679-1.017l.424-.848a9.413,9.413,0,0,0,.423-1.1,4.472,4.472,0,0,0,.085-1.1,3.453,3.453,0,0,0-.423-1.78,1.338,1.338,0,0,0-1.272-.593c-1.187.084-1.864,1.1-1.864,3.22v.848h-3.391v-.848a7.493,7.493,0,0,1,.339-2.458,4.832,4.832,0,0,1,.932-1.865,4.895,4.895,0,0,1,1.611-1.271,6.592,6.592,0,0,1,2.373-.424,5.207,5.207,0,0,1,3.815,1.357,5.4,5.4,0,0,1,1.271,3.9,9.4,9.4,0,0,1-.17,1.611,4.179,4.179,0,0,1-.509,1.441,7.337,7.337,0,0,1-.678,1.187c-.17.339-.509.762-.847,1.271,0,.085-.085.085-.085.17l-.085.085a.856.856,0,0,0-.085.255l-4.153,6.188H471.1v2.712Z" transform="translate(-461.267 -1302.543)" fill="#fff"/>
      <path id="Trazado_120509" data-name="Trazado 120509" d="M474.164,1322.807v-2.374l4.916-7.629c.085-.084.254-.423.594-.932a9.984,9.984,0,0,1,.679-1.017l.423-.848a9.456,9.456,0,0,0,.424-1.1,4.473,4.473,0,0,0,.085-1.1,3.443,3.443,0,0,0-.424-1.78,1.337,1.337,0,0,0-1.271-.594c-1.187.085-1.865,1.1-1.865,3.221v.848h-3.39v-.848a7.52,7.52,0,0,1,.338-2.458,4.833,4.833,0,0,1,.933-1.865,4.885,4.885,0,0,1,1.611-1.271,6.588,6.588,0,0,1,2.373-.424,5.21,5.21,0,0,1,3.815,1.356,5.4,5.4,0,0,1,1.271,3.9,9.4,9.4,0,0,1-.17,1.611,4.176,4.176,0,0,1-.509,1.441,7.474,7.474,0,0,1-.678,1.187c-.17.339-.509.763-.848,1.271,0,.085-.085.085-.085.17l-.085.085a.083.083,0,0,1-.085.085l-4.153,6.188H484v2.712Z" transform="translate(-461.873 -1302.547)" fill="#fff"/>
      <path id="Trazado_120510" data-name="Trazado 120510" d="M487.48,1327.125l-.339-1.271a2.1,2.1,0,0,0,1.187-.678,1.871,1.871,0,0,0,.423-1.356h-1.779V1320.6h3.305v3.052A3.257,3.257,0,0,1,487.48,1327.125Z" transform="translate(-462.474 -1303.391)" fill="#fff"/>
      <path id="Trazado_120511" data-name="Trazado 120511" d="M497.834,1323.149a4.706,4.706,0,0,1-1.949-.338,3.537,3.537,0,0,1-1.441-.933,4.421,4.421,0,0,1-1.018-1.441,14.772,14.772,0,0,1-.593-1.78,16.519,16.519,0,0,1-.17-2.119v-6.7a18.044,18.044,0,0,1,.17-2.288,7.375,7.375,0,0,1,.508-1.95,6.67,6.67,0,0,1,.933-1.526,4.812,4.812,0,0,1,1.526-1.017,5.559,5.559,0,0,1,2.119-.339c3.306,0,5,1.7,5,5.086v.254h-3.306a4.186,4.186,0,0,0-.339-2.035,1.4,1.4,0,0,0-1.356-.594,1.376,1.376,0,0,0-1.356.933,9.435,9.435,0,0,0-.423,3.221v2.373a2.682,2.682,0,0,1,1.017-.932,3.226,3.226,0,0,1,1.611-.339c2.882,0,4.323,1.865,4.238,5.764a13.4,13.4,0,0,1-.254,2.712,6.941,6.941,0,0,1-.847,2.12,4.418,4.418,0,0,1-1.611,1.441A5.55,5.55,0,0,1,497.834,1323.149Zm.085-2.627a1.265,1.265,0,0,0,.848-.255,1.836,1.836,0,0,0,.593-.762,4.214,4.214,0,0,0,.254-1.1,6.852,6.852,0,0,0,.085-1.356v-1.611c0-.339-.085-.594-.085-.763a5.453,5.453,0,0,1-.17-.593,1.081,1.081,0,0,0-.339-.509,1.819,1.819,0,0,0-.423-.255,1.653,1.653,0,0,0-.679-.085,2.006,2.006,0,0,0-1.78,1.187v2.967C496.14,1319.5,496.733,1320.522,497.919,1320.522Z" transform="translate(-462.742 -1302.551)" fill="#fff"/>
      <path id="Trazado_120512" data-name="Trazado 120512" d="M509.884,1314.1a3.985,3.985,0,0,1-3.306-1.272,6.021,6.021,0,0,1-1.017-3.814v-1.017a5.6,5.6,0,0,1,1.017-3.73,5.2,5.2,0,0,1,6.611,0,5.6,5.6,0,0,1,1.018,3.73v1.187a5.756,5.756,0,0,1-1.018,3.729A4.108,4.108,0,0,1,509.884,1314.1Zm.085-2.374a2,2,0,0,0,.678-.17,1.849,1.849,0,0,0,.424-.338,2.028,2.028,0,0,0,.254-.594,2.347,2.347,0,0,0,.085-.763v-2.8c0-.254-.085-.423-.085-.678a1.382,1.382,0,0,0-.254-.509.847.847,0,0,0-.424-.339,2.752,2.752,0,0,0-1.356,0,.847.847,0,0,0-.424.339,4.144,4.144,0,0,0-.254.594,2.126,2.126,0,0,0-.084.678v3.052a3.01,3.01,0,0,0,.169.848,1.079,1.079,0,0,0,.424.593A2.611,2.611,0,0,0,509.969,1311.723Zm2.458,11.359,5.764-19.92h2.373l-5.764,19.92Zm10.6.084a3.984,3.984,0,0,1-3.306-1.271,6.021,6.021,0,0,1-1.017-3.814v-1.017a5.605,5.605,0,0,1,1.017-3.73,5.2,5.2,0,0,1,6.611,0,5.6,5.6,0,0,1,1.018,3.73v1.187a5.755,5.755,0,0,1-1.018,3.729A3.951,3.951,0,0,1,523.022,1323.166Zm0-2.288a1.592,1.592,0,0,0,.678-.17,1.844,1.844,0,0,0,.424-.339,4.129,4.129,0,0,0,.255-.593,2.35,2.35,0,0,0,.085-.763v-2.8c0-.17-.085-.424-.085-.678-.085-.254-.085-.424-.255-.509s-.255-.255-.424-.339a1.592,1.592,0,0,0-.678-.17,1.653,1.653,0,0,0-.679.085.847.847,0,0,0-.424.339,4.14,4.14,0,0,0-.254.594,2.1,2.1,0,0,0-.085.678v3.052a3.012,3.012,0,0,0,.17.848,1.513,1.513,0,0,0,.423.593A3.731,3.731,0,0,0,523.022,1320.878Z" transform="translate(-463.348 -1302.568)" fill="#fff"/>
    </g>
  </g>
  <g id="Grupo_83043" data-name="Grupo 83043" transform="translate(60.175 153.848)">
    <g id="Grupo_83042" data-name="Grupo 83042">
      <g id="Grupo_83041" data-name="Grupo 83041">
        <g id="Grupo_83040" data-name="Grupo 83040">
          <g id="Grupo_83033" data-name="Grupo 83033" transform="translate(28.659 13.053)">
            <g id="Grupo_83032" data-name="Grupo 83032">
              <path id="Trazado_120513" data-name="Trazado 120513" d="M509.316,1401.625a10.419,10.419,0,0,0-10.426,10.426v5.849a1.865,1.865,0,1,0,3.729,0v-5.849a7.015,7.015,0,0,1,1.186-3.814v30.769a2.289,2.289,0,1,0,4.577,0v-17.716h1.356v17.716a2.289,2.289,0,1,0,4.577,0v-30.769a6.762,6.762,0,0,1,1.187,3.814v5.849a1.865,1.865,0,1,0,3.729,0v-5.849A9.747,9.747,0,0,0,509.316,1401.625Z" transform="translate(-498.89 -1401.625)" fill="#be0c4d"/>
            </g>
          </g>
          <g id="Grupo_83035" data-name="Grupo 83035" transform="translate(33.236)">
            <g id="Grupo_83034" data-name="Grupo 83034">
              <circle id="Elipse_4824" data-name="Elipse 4824" cx="5.849" cy="5.849" r="5.849" fill="#be0c4d"/>
            </g>
          </g>
          <g id="Grupo_83037" data-name="Grupo 83037" transform="translate(5.603)">
            <g id="Grupo_83036" data-name="Grupo 83036">
              <circle id="Elipse_4825" data-name="Elipse 4825" cx="5.849" cy="5.849" r="5.849" fill="#be0c4d"/>
            </g>
          </g>
          <g id="Grupo_83039" data-name="Grupo 83039" transform="translate(0 12.885)">
            <g id="Grupo_83038" data-name="Grupo 83038">
              <path id="Trazado_120514" data-name="Trazado 120514" d="M490.188,1409.924a10.14,10.14,0,0,0-20.005,0l-1.356,7.629a1.93,1.93,0,0,0,3.815.593l1.356-7.629a6.723,6.723,0,0,1,.847-2.288v6.1l-3.052,12.206a1.789,1.789,0,0,0,1.7,2.288h1.356v9.917a2.289,2.289,0,1,0,4.577,0v-9.832h1.356v9.832a2.289,2.289,0,1,0,4.577,0v-9.832h1.356a1.727,1.727,0,0,0,1.7-2.289l-3.052-12.205v-6.188a4.714,4.714,0,0,1,.847,2.288l1.357,7.629a1.987,1.987,0,0,0,1.864,1.611h.339a1.944,1.944,0,0,0,1.611-2.2Z" transform="translate(-468.819 -1401.448)" fill="#be0c4d"/>
            </g>
          </g>
        </g>
      </g>
    </g>
  </g>
  <g id="Grupo_83047" data-name="Grupo 83047" transform="translate(706.902 153.508)">
    <g id="Grupo_83044" data-name="Grupo 83044" transform="translate(24.704 0.339)">
      <path id="Trazado_120515" data-name="Trazado 120515" d="M1176.986,1396.913c2.288,0,3.644-2.458,3.644-4.662s-1.186-4.323-3.644-4.323c-2.289,0-3.645,2.12-3.645,4.323C1173.511,1394.625,1174.7,1396.913,1176.986,1396.913Z" transform="translate(-1173.341 -1387.928)" fill="#ffab00"/>
    </g>
    <g id="Grupo_83045" data-name="Grupo 83045" transform="translate(6.31 2.459)">
      <path id="Trazado_120516" data-name="Trazado 120516" d="M1157.261,1398.289c2.2,0,3.221-2.2,3.221-4.238s-1.1-3.9-3.221-3.9-3.22,1.865-3.22,3.9S1155.143,1398.289,1157.261,1398.289Z" transform="translate(-1154.041 -1390.152)" fill="#ffab00"/>
    </g>
    <path id="Trazado_120517" data-name="Trazado 120517" d="M1157.312,1389.183a2.624,2.624,0,0,1,2.2,1.018,2.238,2.238,0,1,0-4.408,0A2.623,2.623,0,0,1,1157.312,1389.183Z" transform="translate(-1147.781 -1387.572)" fill="#ffab00"/>
    <path id="Trazado_120518" data-name="Trazado 120518" d="M1150.862,1417.279s-1.7,7.036-1.272,8.053c.509,1.1,7.459,1.1,7.459,1.1v-9.155Z" transform="translate(-1147.518 -1388.967)" fill="#ffab00"/>
    <path id="Trazado_120519" data-name="Trazado 120519" d="M1163.7,1417.279s1.7,7.036,1.271,8.053-7.459,1.1-7.459,1.1v-9.155Z" transform="translate(-1147.894 -1388.967)" fill="#ffab00"/>
    <g id="Grupo_83046" data-name="Grupo 83046" transform="translate(24.704 0.339)">
      <path id="Trazado_120520" data-name="Trazado 120520" d="M1176.986,1396.913c2.288,0,3.644-2.458,3.644-4.662s-1.186-4.323-3.644-4.323c-2.289,0-3.645,2.12-3.645,4.323C1173.511,1394.625,1174.7,1396.913,1176.986,1396.913Z" transform="translate(-1173.341 -1387.928)" fill="#ffab00"/>
    </g>
    <path id="Trazado_120521" data-name="Trazado 120521" d="M1184.187,1408.964c-.085-1.187-.679-9.154-.763-9.917a1.742,1.742,0,0,0-1.7-1.526c-.339,0-1.017-.17-1.864-.255a3.65,3.65,0,0,1-2.967,1.611,3.531,3.531,0,0,1-2.967-1.611c-.763.085-1.357.255-1.78.255-1.1.17-1.7.763-1.7,1.526-.085.763-.679,8.816-.763,9.917-.423,4.323,1.7,3.391,1.95,5.679,0,.085.085.254.085.339,0,0,.847,16.869,1.1,19.666a1.774,1.774,0,0,0,1.78,1.7,1.671,1.671,0,0,0,1.78-1.7l.17-15.766h.932l.17,15.766a1.827,1.827,0,0,0,3.644,0c.255-2.712,1.1-19.666,1.1-19.666.085-.085.085-.17.085-.339C1182.491,1412.186,1184.61,1413.2,1184.187,1408.964Z" transform="translate(-1148.463 -1388.027)" fill="#ffab00"/>
    <path id="Trazado_120522" data-name="Trazado 120522" d="M1172.985,1412.121a17.077,17.077,0,0,0,8.393,0v.508a18.018,18.018,0,0,1-8.393,0Z" transform="translate(-1148.62 -1388.725)" fill="#fff"/>
    <path id="Trazado_120523" data-name="Trazado 120523" d="M1166.275,1412.792s-2.119-10.256-3.136-12.291a5.035,5.035,0,0,0-3.052-2.967,3.51,3.51,0,0,1-3.221,1.865,3.6,3.6,0,0,1-3.22-1.865c-1.611.509-2.289,1.526-3.052,2.967-1.018,2.035-3.136,12.291-3.136,12.291a1.264,1.264,0,0,0,.932,1.526h.255a1.35,1.35,0,0,0,1.271-1.018l2.882-10.172-2.8,16.953h2.713l.848,15.172a.94.94,0,0,0,.932.933,1.017,1.017,0,0,0,1.017-.933l.848-15.172h1.017l.848,15.172a.962.962,0,0,0,1.017.933.941.941,0,0,0,.932-.933l.848-15.172h2.713l-2.8-16.953,2.882,10.172a1.35,1.35,0,0,0,1.271,1.018h.254A1.264,1.264,0,0,0,1166.275,1412.792Z" transform="translate(-1147.42 -1388.04)" fill="#ffab00"/>
  </g>
</svg>
