<svg xmlns="http://www.w3.org/2000/svg" width="70" height="70" viewBox="0 0 70 70">
  <g id="Grupo_86166" data-name="Grupo 86166" transform="translate(-0.068 0.214)">
    <circle id="Elipse_4816" data-name="Elipse 4816" cx="35" cy="35" r="35" transform="translate(0.068 -0.214)" fill="#fff"/>
    <g id="OUTLINE" transform="translate(-1.263 -1.395)">
      <path id="Trazado_121185" data-name="Trazado 121185" d="M146.091,36.181A10.091,10.091,0,1,0,136,26.091,10.091,10.091,0,0,0,146.091,36.181Zm0-18.836a8.745,8.745,0,1,1-8.745,8.745A8.745,8.745,0,0,1,146.091,17.345Z" transform="translate(-109.909)" fill="#f88f05"/>
      <path id="Trazado_121186" data-name="Trazado 121186" d="M201.345,144H200a4.709,4.709,0,1,0,9.418,0h-1.345a3.364,3.364,0,1,1-6.727,0Z" transform="translate(-168.528 -117.237)" fill="#f88f05"/>
      <path id="Trazado_121187" data-name="Trazado 121187" d="M43.194,98.922a16.779,16.779,0,0,1,4.117-5.338l-.88-1.018a18.122,18.122,0,0,0-6.274,13.045l1.344.051a16.658,16.658,0,0,1,1.693-6.74Z" transform="translate(-22.125 -70.128)" fill="#f88f05"/>
      <path id="Trazado_121188" data-name="Trazado 121188" d="M197.07,447.056a17.081,17.081,0,0,1-1.941.111,16.807,16.807,0,0,1-5.175-.811l-.414,1.28a18.152,18.152,0,0,0,5.588.876,18.415,18.415,0,0,0,2.094-.12Z" transform="translate(-158.948 -394.168)" fill="#f88f05"/>
      <path id="Trazado_121189" data-name="Trazado 121189" d="M388.3,96.706l1.219-.57a18.329,18.329,0,0,0-4.855-6.287l-.86,1.034a16.975,16.975,0,0,1,4.5,5.822Z" transform="translate(-336.871 -67.64)" fill="#f88f05"/>
      <path id="Trazado_121190" data-name="Trazado 121190" d="M16.673,252.109h1.345V254.8a2.02,2.02,0,0,0,2.018,2.018h.673v4.709h1.345v-5.382a.673.673,0,0,0-.673-.673H20.036a.673.673,0,0,1-.673-.673v-3.364a.673.673,0,0,0-.673-.673h-.93l1.531-3.063a.672.672,0,0,0,.071-.3,6.061,6.061,0,0,1,6.054-6.054h.673a6.061,6.061,0,0,1,6.054,6.054,10.626,10.626,0,0,1-3.133,7.563l-.706.706a.673.673,0,0,0-.2.476v5.382h1.345v-5.1l.509-.509A11.962,11.962,0,0,0,33.49,247.4a7.408,7.408,0,0,0-7.4-7.4h-.673a7.409,7.409,0,0,0-7.4,7.237l-1.949,3.9a.673.673,0,0,0,.6.974Z" transform="translate(0 -205.164)" fill="#f88f05"/>
      <path id="Trazado_121191" data-name="Trazado 121191" d="M72,336a4.7,4.7,0,0,0,.268,1.57l1.268-.448A3.355,3.355,0,0,1,73.345,336Z" transform="translate(-51.291 -293.092)" fill="#f88f05"/>
      <path id="Trazado_121192" data-name="Trazado 121192" d="M85.262,360.962a4.716,4.716,0,0,0,3.51-1.569l-1-.9a3.364,3.364,0,0,1-5.311-.383l-1.12.745A4.7,4.7,0,0,0,85.262,360.962Z" transform="translate(-59.844 -313.345)" fill="#f88f05"/>
      <path id="Trazado_121193" data-name="Trazado 121193" d="M167.263,318.9a4.7,4.7,0,0,0-.268-1.57l-1.268.448a3.355,3.355,0,0,1,.191,1.121Z" transform="translate(-137.136 -275.995)" fill="#f88f05"/>
      <path id="Trazado_121194" data-name="Trazado 121194" d="M93.8,280a4.7,4.7,0,0,0-3.139,1.2l.9,1a3.364,3.364,0,0,1,5.046.648l1.12-.745A4.7,4.7,0,0,0,93.8,280Z" transform="translate(-68.386 -241.801)" fill="#f88f05"/>
      <path id="Trazado_121195" data-name="Trazado 121195" d="M320.528,151.969l-1.176-2.941-1.249.5,1.345,3.364a.673.673,0,0,0,.625.423h3.364a.673.673,0,0,1,.673.673v6.727a.673.673,0,0,1-.673.673h-9.418a.673.673,0,0,1-.673-.673v-2.691H312v2.691a2.02,2.02,0,0,0,2.018,2.018h9.418a2.02,2.02,0,0,0,2.018-2.018v-6.727a2.02,2.02,0,0,0-2.018-2.018Z" transform="translate(-271.11 -121.843)" fill="#f88f05"/>
      <path id="Trazado_121196" data-name="Trazado 121196" d="M352.673,216v1.345H352v1.345h.673v2.691h1.345v-2.691h.673v-1.345h-.673V216Z" transform="translate(-307.746 -183.182)" fill="#f88f05"/>
      <path id="Trazado_121197" data-name="Trazado 121197" d="M400.673,216v2.691H400v1.345h.673v1.345h1.345v-1.345h.673v-1.345h-.673V216Z" transform="translate(-351.71 -183.182)" fill="#f88f05"/>
      <path id="Trazado_121198" data-name="Trazado 121198" d="M235.222,309.784l.186.372h-1.444a2.007,2.007,0,0,0-1.805,1.116l-1.487-.744.372-.744a.673.673,0,0,0-.3-.9l-8.073-4.036-.6,1.2,7.471,3.735-2.775,5.55L221.3,312.9l-.546,1.229,6.054,2.691a.672.672,0,0,0,.762-.153l.856.571v.985a.673.673,0,0,0,.327.577l2.607,1.564a2.018,2.018,0,0,0,2.211-.088l3.983-2.845,1.147-.765a.672.672,0,0,0,.754.157l4.709-2.018-.53-1.237-4.126,1.768-2.779-5.558,7.471-3.735-.6-1.2-8.072,4.036a.673.673,0,0,0-.3.9Zm-2.435,9.4a.672.672,0,0,1-.737.029l-2.28-1.368v-.965a.673.673,0,0,0-.3-.56l-1.272-.848,1.872-3.744,1.487.744-1.045,2.089a.673.673,0,0,0,.228.861l.9.6a2.018,2.018,0,0,0,2.8-.56l.144-.216,1.549,1.549Zm5.281-3.711-.813.542-2.3-2.3a.673.673,0,0,0-1.035.1l-.6.9a.673.673,0,0,1-.933.187l-.4-.27,1.381-2.761a.669.669,0,0,1,.6-.372h2.116Z" transform="translate(-187.534 -264.557)" fill="#f88f05"/>
      <path id="Trazado_121199" data-name="Trazado 121199" d="M194.018,81.345a.673.673,0,0,1,.673.673h1.345a2.018,2.018,0,0,0-4.036,0h1.345A.673.673,0,0,1,194.018,81.345Z" transform="translate(-161.201 -58.618)" fill="#f88f05"/>
      <path id="Trazado_121200" data-name="Trazado 121200" d="M274.018,81.345a.673.673,0,0,1,.673.673h1.345a2.018,2.018,0,0,0-4.036,0h1.345A.674.674,0,0,1,274.018,81.345Z" transform="translate(-234.473 -58.618)" fill="#f88f05"/>
    </g>
  </g>
</svg>
