<svg xmlns="http://www.w3.org/2000/svg" width="86.111" height="86.111" viewBox="0 0 86.111 86.111">
  <g id="humano_1_" data-name="humano(1)" transform="translate(-1 -1)">
    <g id="Grupo_947484" data-name="Grupo 947484" transform="translate(2.389 2.389)">
      <g id="Grupo_947440" data-name="Grupo 947440" transform="translate(11.25 8.333)">
        <path id="Trazado_245646" data-name="Trazado 245646" d="M23.711,13.556H10.1a6.946,6.946,0,0,1,13.611,0Z" transform="translate(-10.1 -8)" fill="#656d78"/>
      </g>
      <g id="Grupo_947441" data-name="Grupo 947441" transform="translate(34.861)">
        <path id="Trazado_245647" data-name="Trazado 245647" d="M40.711,7.556H27.1a6.946,6.946,0,0,1,13.611,0Z" transform="translate(-27.1 -2)" fill="#b27946"/>
      </g>
      <g id="Grupo_947442" data-name="Grupo 947442" transform="translate(58.472 8.333)">
        <path id="Trazado_245648" data-name="Trazado 245648" d="M52.878,8.278a6.954,6.954,0,0,1,4.833,5.278H44.1A6.945,6.945,0,0,1,50.906,8,7.123,7.123,0,0,1,52.878,8.278Z" transform="translate(-44.1 -8)" fill="#e6e9ed"/>
      </g>
      <g id="Grupo_947443" data-name="Grupo 947443" transform="translate(67.25 5.556)">
        <path id="Trazado_245649" data-name="Trazado 245649" d="M60.948,11.556a5.554,5.554,0,0,1-5.556,5.556h-.139a7.014,7.014,0,0,0,0-2.778A6.955,6.955,0,0,0,50.42,9.056a5.562,5.562,0,0,1,10.528,2.5Z" transform="translate(-50.42 -6)" fill="#e6e9ed"/>
      </g>
      <g id="Grupo_947444" data-name="Grupo 947444" transform="translate(8.472 22.361)">
        <path id="Trazado_245650" data-name="Trazado 245650" d="M13.517,19.35a4.161,4.161,0,0,0,4.167,4.167H8.1A6.94,6.94,0,0,1,13.517,18.1Z" transform="translate(-8.1 -18.1)" fill="#b4dd7f"/>
      </g>
      <g id="Grupo_947445" data-name="Grupo 947445" transform="translate(18.056 22.361)">
        <path id="Trazado_245651" data-name="Trazado 245651" d="M24.681,24.169A14.748,14.748,0,0,0,23.6,27.656a8.368,8.368,0,0,0-7.208-4.139H15a4.173,4.173,0,0,0,4.167-4.167V18.1a6.952,6.952,0,0,1,5.514,6.069Z" transform="translate(-15 -18.1)" fill="#b4dd7f"/>
      </g>
      <g id="Grupo_947446" data-name="Grupo 947446" transform="translate(65.278 22.361)">
        <path id="Trazado_245652" data-name="Trazado 245652" d="M58.722,24.906v1.333a9.323,9.323,0,0,0-6.6-2.722H49a4.173,4.173,0,0,0,4.167-4.167V18.1A6.945,6.945,0,0,1,58.722,24.906Z" transform="translate(-49 -18.1)" fill="#b4dd7f"/>
      </g>
      <g id="Grupo_947447" data-name="Grupo 947447" transform="translate(55.597 22.361)">
        <path id="Trazado_245653" data-name="Trazado 245653" d="M51.711,23.517h-.347a9.348,9.348,0,0,0-8.139,4.736h-.014a15.031,15.031,0,0,0-1.181-4.083A6.952,6.952,0,0,1,47.544,18.1v1.25a4.161,4.161,0,0,0,4.167,4.167Z" transform="translate(-42.03 -18.1)" fill="#b4dd7f"/>
      </g>
      <g id="Grupo_947448" data-name="Grupo 947448" transform="translate(31.945 14.028)">
        <path id="Trazado_245654" data-name="Trazado 245654" d="M30.556,13.35a4.161,4.161,0,0,0,4.167,4.167A15.208,15.208,0,0,0,25,21v-2.1A6.945,6.945,0,0,1,30.556,12.1Z" transform="translate(-25 -12.1)" fill="#ff826e"/>
      </g>
      <g id="Grupo_947449" data-name="Grupo 947449" transform="translate(41.667 14.028)">
        <path id="Trazado_245655" data-name="Trazado 245655" d="M41.722,18.906V21A15.208,15.208,0,0,0,32,17.517a4.173,4.173,0,0,0,4.167-4.167V12.1a6.917,6.917,0,0,1,5.556,6.806Z" transform="translate(-32 -12.1)" fill="#ff826e"/>
      </g>
      <g id="Grupo_947450" data-name="Grupo 947450" transform="translate(0 55.181)">
        <path id="Trazado_245656" data-name="Trazado 245656" d="M12.181,46.73l3.25,6.028,3.236,6.014V69.883H2V51.049a9.545,9.545,0,0,1,3.819-7.639A9.4,9.4,0,0,1,9.486,41.73Z" transform="translate(-2 -41.73)" fill="#ff826e"/>
      </g>
      <g id="Grupo_947451" data-name="Grupo 947451" transform="translate(16.667 67.07)">
        <path id="Trazado_245657" data-name="Trazado 245657" d="M19.556,55.443V66.554H14V55.443l2.778-5.153v3.764a1.393,1.393,0,0,0,1.389,1.389Z" transform="translate(-14 -50.29)" fill="#ff826e"/>
      </g>
      <g id="Grupo_947452" data-name="Grupo 947452" transform="translate(13.431 62.5)">
        <path id="Trazado_245658" data-name="Trazado 245658" d="M13.517,47h4.625a14.476,14.476,0,0,0-.458,3.583v.986l-2.778,5.153L11.67,50.708Z" transform="translate(-11.67 -47)" fill="#e6e9ed"/>
      </g>
      <g id="Grupo_947453" data-name="Grupo 947453" transform="translate(13.889 56.945)">
        <path id="Trazado_245659" data-name="Trazado 245659" d="M14.778,43l4.583,2.292a13.438,13.438,0,0,0-1.333,3.264H13.389L12,44.389Z" transform="translate(-12 -43)" fill="#ccd1d9"/>
      </g>
      <g id="Grupo_947454" data-name="Grupo 947454" transform="translate(10.181 58.333)">
        <path id="Trazado_245660" data-name="Trazado 245660" d="M14.427,48.167,12.58,51.875,9.33,45.847,13.038,44Z" transform="translate(-9.33 -44)" fill="#fcd770"/>
      </g>
      <g id="Grupo_947455" data-name="Grupo 947455" transform="translate(16.667 54.167)">
        <path id="Trazado_245661" data-name="Trazado 245661" d="M18.167,41l4.139.833a13.6,13.6,0,0,0-3.722,4.236L14,43.778Z" transform="translate(-14 -41)" fill="#ffc729"/>
      </g>
      <g id="Grupo_947456" data-name="Grupo 947456" transform="translate(7.486 54.167)">
        <path id="Trazado_245662" data-name="Trazado 245662" d="M16.571,43.778l-2.778,1.389-3.708,1.847-2.694-5a1.023,1.023,0,0,1,.194-.056L12.4,41Z" transform="translate(-7.39 -41)" fill="#ffc729"/>
      </g>
      <g id="Grupo_947457" data-name="Grupo 947457" transform="translate(5.556 27.778)">
        <path id="Trazado_245663" data-name="Trazado 245663" d="M26.833,36.639A10.415,10.415,0,0,1,24.9,39.111l-.986.944a6.545,6.545,0,0,0,.139-1.389V36.056a5.568,5.568,0,0,0-4.208-5.389l-.917-.222-.014-.014a4.744,4.744,0,0,1-3.153,1.875l-3.208.458a2.791,2.791,0,0,0-2.389,2.75v3.153a6.545,6.545,0,0,0,.139,1.389l-.986-.944A10.608,10.608,0,0,1,6,31.375v-6.6A2.786,2.786,0,0,1,8.778,22H19.889A8.368,8.368,0,0,1,27.1,26.139a14.446,14.446,0,0,0-.264,2.806Z" transform="translate(-6 -22)" fill="#b27946"/>
      </g>
      <g id="Grupo_947458" data-name="Grupo 947458" transform="translate(56.778 27.778)">
        <path id="Trazado_245664" data-name="Trazado 245664" d="M59.713,35.514a2.791,2.791,0,0,0-2.389-2.75l-3.208-.458a4.744,4.744,0,0,1-3.153-1.875l-.014.014-.917.222a5.568,5.568,0,0,0-4.208,5.389v2.611a6.545,6.545,0,0,0,.139,1.389l-.986-.944a10.414,10.414,0,0,1-1.931-2.472V28.944a14.5,14.5,0,0,0-.167-2.208h.014A9.348,9.348,0,0,1,51.033,22h3.472a9.389,9.389,0,0,1,9.375,9.375,10.608,10.608,0,0,1-3.319,7.736l-.986.944a6.545,6.545,0,0,0,.139-1.389Z" transform="translate(-42.88 -22)" fill="#b27946"/>
      </g>
      <g id="Grupo_947459" data-name="Grupo 947459" transform="translate(66.667 55.181)">
        <path id="Trazado_245665" data-name="Trazado 245665" d="M61.111,69.883H50V58.772l3.236-6.014,3.25-6.028,2.694-5a9.52,9.52,0,0,1,6.472,5.042,9.6,9.6,0,0,1,1.014,4.278V69.883Z" transform="translate(-50 -41.73)" fill="#e6e9ed"/>
      </g>
      <g id="Grupo_947460" data-name="Grupo 947460" transform="translate(61.111 67.07)">
        <path id="Trazado_245666" data-name="Trazado 245666" d="M51.556,55.443V66.554H46V55.443h1.389a1.393,1.393,0,0,0,1.389-1.389V50.29Z" transform="translate(-46 -50.29)" fill="#e6e9ed"/>
      </g>
      <g id="Grupo_947461" data-name="Grupo 947461" transform="translate(63.431 62.5)">
        <path id="Trazado_245667" data-name="Trazado 245667" d="M52.3,47l1.847,3.708-3.236,6.014-2.778-5.153v-.986A14.476,14.476,0,0,0,47.67,47Z" transform="translate(-47.67 -47)" fill="#fcd770"/>
      </g>
      <g id="Grupo_947462" data-name="Grupo 947462" transform="translate(62.083 56.945)">
        <path id="Trazado_245668" data-name="Trazado 245668" d="M54.061,44.389l-1.389,4.167H48.033A13.438,13.438,0,0,0,46.7,45.292L51.283,43Z" transform="translate(-46.7 -43)" fill="#ffc729"/>
      </g>
      <g id="Grupo_947463" data-name="Grupo 947463" transform="translate(68.056 58.333)">
        <path id="Trazado_245669" data-name="Trazado 245669" d="M56.1,45.847l-3.25,6.028L51,48.167,52.389,44Z" transform="translate(-51 -44)" fill="#ff826e"/>
      </g>
      <g id="Grupo_947464" data-name="Grupo 947464" transform="translate(66.667 54.167)">
        <path id="Trazado_245670" data-name="Trazado 245670" d="M59.181,42.014l-2.694,5-3.708-1.847L50,43.778,54.167,41l4.819.958a1.023,1.023,0,0,1,.194.056Z" transform="translate(-50 -41)" fill="#fc6e51"/>
      </g>
      <g id="Grupo_947465" data-name="Grupo 947465" transform="translate(58.361 54.167)">
        <path id="Trazado_245671" data-name="Trazado 245671" d="M52.326,43.778l-4.583,2.292a13.6,13.6,0,0,0-3.722-4.236L48.159,41Z" transform="translate(-44.02 -41)" fill="#fc6e51"/>
      </g>
      <g id="Grupo_947466" data-name="Grupo 947466" transform="translate(22.222 72.222)">
        <path id="Trazado_245672" data-name="Trazado 245672" d="M26.333,60.944v4.167H18V54h5.847a16.668,16.668,0,0,0,.833,2.806Z" transform="translate(-18 -54)" fill="#f0d0b4"/>
      </g>
      <g id="Grupo_947467" data-name="Grupo 947467" transform="translate(52.778 72.222)">
        <path id="Trazado_245673" data-name="Trazado 245673" d="M48.333,54V65.111H40V60.944l1.653-4.139A16.668,16.668,0,0,0,42.486,54Z" transform="translate(-40 -54)" fill="#f0d0b4"/>
      </g>
      <g id="Grupo_947468" data-name="Grupo 947468" transform="translate(19.444 52.181)">
        <path id="Trazado_245674" data-name="Trazado 245674" d="M24.625,59.612H17.389A1.393,1.393,0,0,1,16,58.223v-4.75a14.476,14.476,0,0,1,.458-3.583h.014a13.438,13.438,0,0,1,1.333-3.264,13.6,13.6,0,0,1,3.722-4.236,9.712,9.712,0,0,1,1.431-.931,13.96,13.96,0,0,1,4.819-1.708l1.153-.181,4.056,7.542,5.236,9.722V70.723H27.111V66.556l-1.653-4.139a16.668,16.668,0,0,1-.833-2.806Z" transform="translate(-16 -39.57)" fill="#b4dd7f"/>
      </g>
      <g id="Grupo_947469" data-name="Grupo 947469" transform="translate(41.667 52.181)">
        <path id="Trazado_245675" data-name="Trazado 245675" d="M45.6,59.612a16.668,16.668,0,0,1-.833,2.806l-1.653,4.139v4.167H32V56.834l5.236-9.722,4.056-7.542,1.153.181a13.961,13.961,0,0,1,4.819,1.708,9.713,9.713,0,0,1,1.431.931,13.6,13.6,0,0,1,3.722,4.236,13.439,13.439,0,0,1,1.333,3.264h.014a14.476,14.476,0,0,1,.458,3.583v4.75a1.393,1.393,0,0,1-1.389,1.389H45.6Z" transform="translate(-32 -39.57)" fill="#b4dd7f"/>
      </g>
      <g id="Grupo_947470" data-name="Grupo 947470" transform="translate(36.431 59.722)">
        <path id="Trazado_245676" data-name="Trazado 245676" d="M38.7,45l-5.236,9.722L28.23,45Z" transform="translate(-28.23 -45)" fill="#ffeaa7"/>
      </g>
      <g id="Grupo_947471" data-name="Grupo 947471" transform="translate(26.389 19.444)">
        <path id="Trazado_245677" data-name="Trazado 245677" d="M36.278,24.333a12.127,12.127,0,0,1-7.694,5.153l-2.028.4v5.556a9.727,9.727,0,0,0,5.556,8.778v.153a4.154,4.154,0,0,1-3.528,4.111l-1.6.25-1.153.181a13.96,13.96,0,0,0-4.819,1.708L21,50.611V31.278a14.446,14.446,0,0,1,.264-2.806,14.748,14.748,0,0,1,1.083-3.486A15.294,15.294,0,0,1,46,19.486a14.457,14.457,0,0,1,1.083.986,15.273,15.273,0,0,1,3.125,4.514,15.031,15.031,0,0,1,1.181,4.083,14.5,14.5,0,0,1,.167,2.208V50.611l-.014.014a13.961,13.961,0,0,0-4.819-1.708l-1.153-.181-1.6-.25a4.154,4.154,0,0,1-3.528-4.111v-.042A9.442,9.442,0,0,0,46,35.736V29.889l-2.028-.4a12.174,12.174,0,0,1-7.694-5.153Z" transform="translate(-21 -16)" fill="#656d78"/>
      </g>
      <g id="Grupo_947472" data-name="Grupo 947472" transform="translate(13.889 22.222)">
        <path id="Trazado_245678" data-name="Trazado 245678" d="M20.333,18.139v1.25a4.167,4.167,0,0,1-8.333,0v-1.25A6.545,6.545,0,0,1,13.389,18h5.556a6.545,6.545,0,0,1,1.389.139Z" transform="translate(-12 -18)" fill="#f0d0b4"/>
      </g>
      <g id="Grupo_947473" data-name="Grupo 947473" transform="translate(11.111 13.889)">
        <path id="Trazado_245679" data-name="Trazado 245679" d="M23.75,12a6.545,6.545,0,0,1,.139,1.389,6.944,6.944,0,1,1-13.889,0A6.545,6.545,0,0,1,10.139,12Z" transform="translate(-10 -12)" fill="#f0d0b4"/>
      </g>
      <g id="Grupo_947474" data-name="Grupo 947474" transform="translate(37.5 13.889)">
        <path id="Trazado_245680" data-name="Trazado 245680" d="M37.333,12.139v1.25a4.167,4.167,0,1,1-8.333,0v-1.25A6.545,6.545,0,0,1,30.389,12h5.556A6.545,6.545,0,0,1,37.333,12.139Z" transform="translate(-29 -12)" fill="#f0d0b4"/>
      </g>
      <g id="Grupo_947475" data-name="Grupo 947475" transform="translate(34.722 5.556)">
        <path id="Trazado_245681" data-name="Trazado 245681" d="M40.75,6a6.545,6.545,0,0,1,.139,1.389A6.944,6.944,0,1,1,27,7.389,6.545,6.545,0,0,1,27.139,6Z" transform="translate(-27 -6)" fill="#f0d0b4"/>
      </g>
      <g id="Grupo_947476" data-name="Grupo 947476" transform="translate(61.111 22.222)">
        <path id="Trazado_245682" data-name="Trazado 245682" d="M54.333,18.139v1.25a4.167,4.167,0,0,1-8.333,0v-1.25A6.545,6.545,0,0,1,47.389,18h5.556a6.545,6.545,0,0,1,1.389.139Z" transform="translate(-46 -18)" fill="#f0d0b4"/>
      </g>
      <g id="Grupo_947477" data-name="Grupo 947477" transform="translate(58.333 13.889)">
        <path id="Trazado_245683" data-name="Trazado 245683" d="M57.75,14.778A6.945,6.945,0,0,1,44,13.389,6.545,6.545,0,0,1,44.139,12H57.75a7.014,7.014,0,0,1,0,2.778Z" transform="translate(-44 -12)" fill="#f0d0b4"/>
      </g>
      <g id="Grupo_947478" data-name="Grupo 947478" transform="translate(62.5 50.57)">
        <path id="Trazado_245684" data-name="Trazado 245684" d="M51.167,39.229a6.813,6.813,0,0,0,3.264-.819l.9,3.6-4.167,2.778L47,42.007l.9-3.6Z" transform="translate(-47 -38.41)" fill="#f0d0b4"/>
      </g>
      <g id="Grupo_947479" data-name="Grupo 947479" transform="translate(59.722 36.208)">
        <path id="Trazado_245685" data-name="Trazado 245685" d="M50.139,28.07a4.744,4.744,0,0,0,3.153,1.875L56.5,30.4a2.791,2.791,0,0,1,2.389,2.75v3.153A6.545,6.545,0,0,1,58.75,37.7a6.92,6.92,0,0,1-3.542,4.736,6.813,6.813,0,0,1-3.264.819l-3.264-.819a6.747,6.747,0,0,1-1.653-1.208A7.008,7.008,0,0,1,45.139,37.7,6.545,6.545,0,0,1,45,36.306V33.7a5.568,5.568,0,0,1,4.208-5.389l.917-.222Z" transform="translate(-45 -28.07)" fill="#f0d0b4"/>
      </g>
      <g id="Grupo_947480" data-name="Grupo 947480" transform="translate(12.5 50.57)">
        <path id="Trazado_245686" data-name="Trazado 245686" d="M19.333,42.007l-4.167,2.778L11,42.007l.9-3.6a6.813,6.813,0,0,0,3.264.819l3.264-.819Z" transform="translate(-11 -38.41)" fill="#f0d0b4"/>
      </g>
      <g id="Grupo_947481" data-name="Grupo 947481" transform="translate(9.722 36.208)">
        <path id="Trazado_245687" data-name="Trazado 245687" d="M18.681,28.306A5.568,5.568,0,0,1,22.889,33.7v2.611A6.545,6.545,0,0,1,22.75,37.7a7.008,7.008,0,0,1-1.889,3.528,6.746,6.746,0,0,1-1.653,1.208l-3.264.819a6.813,6.813,0,0,1-3.264-.819A6.92,6.92,0,0,1,9.139,37.7,6.545,6.545,0,0,1,9,36.306V33.153a2.791,2.791,0,0,1,2.389-2.75l3.208-.458A4.744,4.744,0,0,0,17.75,28.07l.014.014Z" transform="translate(-9 -28.07)" fill="#f0d0b4"/>
      </g>
      <g id="Grupo_947482" data-name="Grupo 947482" transform="translate(32.375 47.667)">
        <path id="Trazado_245688" data-name="Trazado 245688" d="M43.893,40.834l-4.056,7.542H29.366L25.31,40.834l1.6-.25a4.154,4.154,0,0,0,3.528-4.111V36.32a9.688,9.688,0,0,0,4.208.944h.25a9.285,9.285,0,0,0,3.875-.833v.042A4.154,4.154,0,0,0,42.3,40.584Z" transform="translate(-25.31 -36.32)" fill="#f0d0b4"/>
      </g>
      <g id="Grupo_947483" data-name="Grupo 947483" transform="translate(31.945 27.778)">
        <path id="Trazado_245689" data-name="Trazado 245689" d="M44.444,27.556V33.4A9.442,9.442,0,0,1,38.889,42a9.285,9.285,0,0,1-3.875.833h-.25A9.74,9.74,0,0,1,25,33.111V27.556l2.028-.4A12.127,12.127,0,0,0,34.722,22a12.174,12.174,0,0,0,7.694,5.153Z" transform="translate(-25 -22)" fill="#f0d0b4"/>
      </g>
    </g>
    <g id="Grupo_947485" data-name="Grupo 947485" transform="translate(1 1)">
      <path id="Trazado_245690" data-name="Trazado 245690" d="M82.735,58.133a11.031,11.031,0,0,0-4.421-1.976l-3.958-.792-.443-1.775A8.348,8.348,0,0,0,77.1,48.956l.706-.672a12.066,12.066,0,0,0,3.746-8.739,10.711,10.711,0,0,0-2.778-7.193v-.8a8.338,8.338,0,0,0-5.436-7.8,8.347,8.347,0,0,0,2.207-3.4,6.929,6.929,0,1,0-6.571-10.9,8.317,8.317,0,0,0-6.989,14.3,8.283,8.283,0,0,0-4.354,3.732,16.819,16.819,0,0,0-2.468-2.758v-1.5a8.338,8.338,0,0,0-5.436-7.8,8.333,8.333,0,1,0-11.35,0,8.338,8.338,0,0,0-5.436,7.8v1.5a16.81,16.81,0,0,0-2.468,2.757,8.292,8.292,0,0,0-4.356-3.732,8.333,8.333,0,1,0-11.351,0A8.351,8.351,0,0,0,9.8,28.889a4.169,4.169,0,0,0-3.242,4.056v6.6A12.071,12.071,0,0,0,10.3,48.282l.707.674A8.353,8.353,0,0,0,14.2,53.59l-.443,1.775L9.8,56.157A10.945,10.945,0,0,0,1,66.888V87.111H87.111V66.888a11,11,0,0,0-4.376-8.754ZM27.1,48.957l.285-.272v6.972c-.125.081-.254.156-.376.24l-2.657-.531-.443-1.775A8.353,8.353,0,0,0,27.1,48.957Zm-3.59,9.074.875.175a14.915,14.915,0,0,0-1.271,1.607l-1.3-.65ZM18.668,63.5l-.692-2.074,1.079-.54,2.71,1.354q-.273.617-.492,1.258H18.668Zm-3.2-.819.7,2.1-.4.794-1.293-2.4Zm3.058,3.6h2.088a15.642,15.642,0,0,0-.168,2.193V69.1l-1.389,2.579-1.675-3.113Zm1.919,8.683.288-.533A2.772,2.772,0,0,0,23.222,76v8.333H20.444ZM26,76h3.371A17.209,17.209,0,0,0,30,77.927l1.558,3.9v2.511H26Zm6.576.894a14.276,14.276,0,0,1-.29-9.81l.586-1.757-2.633-.879-.588,1.757a17.061,17.061,0,0,0-.874,5.39q0,.819.078,1.626H23.222V68.471a12.435,12.435,0,0,1,10.6-12.356L34,56.088l8.667,16.1v12.15H34.333V81.289ZM44.056,32.436a13.378,13.378,0,0,0,7.415,4.242l.918.183v4.707a8.052,8.052,0,0,1-8.042,8.043H44.1a8.368,8.368,0,0,1-8.381-8.336V36.861l.918-.183a13.378,13.378,0,0,0,7.415-4.242Zm-3.068,19.5a11.2,11.2,0,0,0,3.115.449h.244a10.8,10.8,0,0,0,2.8-.379,5.5,5.5,0,0,0,4.069,3.6l-2.751,5.11H39.65L36.9,55.613a5.491,5.491,0,0,0,4.089-3.672ZM44.056,68.9l-2.91-5.4h5.819Zm1.389,3.281,8.668-16.1.178.028a12.432,12.432,0,0,1,10.6,12.354v4.751H59.257q.075-.808.076-1.626a17.023,17.023,0,0,0-.875-5.39l-.586-1.757-2.633.879.585,1.756a14.268,14.268,0,0,1-.289,9.811l-1.757,4.394v3.044H45.445Zm15.278-23.5.285.271A8.353,8.353,0,0,0,64.2,53.59l-.443,1.775L61.1,55.9c-.122-.085-.251-.16-.376-.24ZM69.443,63.5H66.838q-.219-.644-.492-1.258l2.71-1.356,1.079.54Zm-4.45-3.689A15.267,15.267,0,0,0,63.722,58.2l.875-.175,1.7,1.131ZM56.556,81.822l1.558-3.9A16.839,16.839,0,0,0,58.74,76h3.371v8.333H56.556ZM64.889,76a2.772,2.772,0,0,0,2.49-1.572l.287.533v9.372H64.889Zm4.167-4.319L67.667,69.1v-.631a15.435,15.435,0,0,0-.169-2.193h2.088l1.146,2.292Zm3.286-6.1-.4-.794.7-2.1.99.5Zm3.783-7.025-1.172,2.176-3.135-1.568,1.7-1.131Zm-4.488-2.61-2.582,1.721-2.582-1.722.276-1.107a8.173,8.173,0,0,0,4.611,0Zm2.974-9.11a5.556,5.556,0,1,1-11.111,0V44.227a4.16,4.16,0,0,1,3.157-4.042l.114-.029a6.158,6.158,0,0,0,3.435,1.7l3.213.46a1.394,1.394,0,0,1,1.193,1.374Zm3.69-4.35a9.285,9.285,0,0,1-.913,1.933v-.731a4.185,4.185,0,0,0-3.576-4.124L70.6,39.1a3.431,3.431,0,0,1-2.933-3.381H64.889a6.134,6.134,0,0,0,.336,2,6.934,6.934,0,0,0-4.5,6.5V37.111a16.638,16.638,0,0,0-.113-1.869,8,8,0,0,1,6.713-3.686h3.467a8,8,0,0,1,7.989,7.989,9.258,9.258,0,0,1-.476,2.939ZM70.445,26a2.778,2.778,0,1,1-5.556,0Zm5.306,4a10.675,10.675,0,0,0-3.372-1.09,5.493,5.493,0,0,0,.769-2.176A5.542,5.542,0,0,1,75.75,30Zm-8.083-6.776a5.561,5.561,0,0,1-5.556-5.556H73.222A5.561,5.561,0,0,1,67.667,23.222ZM74.611,9.333A4.146,4.146,0,0,1,75.986,17.4a8.331,8.331,0,0,0-4.192-6.961A4.144,4.144,0,0,1,74.611,9.333Zm-6.944,2.778a5.537,5.537,0,0,1,4.783,2.778H62.885A5.533,5.533,0,0,1,67.667,12.111ZM62.183,26.717a5.5,5.5,0,0,0,1.229,2.814,10.843,10.843,0,0,0-3.568,2.285c-.131-.389-.264-.775-.422-1.15a5.516,5.516,0,0,1,2.761-3.949Zm-9.851-4.051a16.565,16.565,0,0,0-3.9-1.618,5.49,5.49,0,0,0,1.1-2.649A5.529,5.529,0,0,1,52.332,22.665Zm-11.054-5h5.556a2.778,2.778,0,1,1-5.556,0Zm2.778-2.778A5.561,5.561,0,0,1,38.5,9.333H49.611A5.561,5.561,0,0,1,44.056,14.889Zm0-11.111a5.537,5.537,0,0,1,4.783,2.778H39.274A5.533,5.533,0,0,1,44.056,3.778ZM38.574,18.4a5.49,5.49,0,0,0,1.1,2.649,16.565,16.565,0,0,0-3.9,1.618,5.532,5.532,0,0,1,2.8-4.267Zm5.482,4.824A13.9,13.9,0,0,1,57.945,37.111V54.246a15.481,15.481,0,0,0-3.232-.875l-2.746-.422a2.756,2.756,0,0,1-2.246-2,10.819,10.819,0,0,0,5.444-9.378V34.583l-3.151-.631a10.607,10.607,0,0,1-6.571-4.242V26H42.665v3.711a10.615,10.615,0,0,1-6.571,4.242l-3.15.631v6.692a11.1,11.1,0,0,0,5.479,9.549,2.756,2.756,0,0,1-2.279,2.125l-2.746.422a15.481,15.481,0,0,0-3.232.875V37.111A13.9,13.9,0,0,1,44.056,23.222ZM28.688,30.665c-.1.233-.174.476-.262.714A9.771,9.771,0,0,0,24.89,29.3a5.493,5.493,0,0,0,1.036-2.581,5.507,5.507,0,0,1,2.761,3.95ZM17.667,26h5.556a2.778,2.778,0,0,1-5.556,0Zm2.778-2.778a5.561,5.561,0,0,1-5.556-5.556H26A5.561,5.561,0,0,1,20.445,23.222Zm0-11.111a5.537,5.537,0,0,1,4.783,2.778H15.663A5.533,5.533,0,0,1,20.445,12.111Zm-5.483,14.6a5.487,5.487,0,0,0,.7,2.067h-2.8A5.574,5.574,0,0,1,14.961,26.711ZM9.81,42.482a9.243,9.243,0,0,1-.476-2.938v-6.6a1.39,1.39,0,0,1,1.389-1.389H21.833a6.968,6.968,0,0,1,5.758,3.089,16.789,16.789,0,0,0-.2,2.467v7.115a6.933,6.933,0,0,0-4.5-6.5,6.135,6.135,0,0,0,.336-2H20.445A3.433,3.433,0,0,1,17.513,39.1l-3.213.46a4.184,4.184,0,0,0-3.578,4.122v.731a9.3,9.3,0,0,1-.913-1.935Zm3.69,1.2a1.4,1.4,0,0,1,1.192-1.375l3.213-.46a6.171,6.171,0,0,0,3.435-1.7l.115.029a4.163,4.163,0,0,1,3.157,4.043v2.607a5.556,5.556,0,1,1-11.111,0Zm5.556,11.481a8.267,8.267,0,0,0,2.306-.332l.276,1.107-2.582,1.722-2.582-1.722.276-1.107A8.267,8.267,0,0,0,19.056,55.167ZM14.6,58.031l1.7,1.131L13.16,60.729l-1.174-2.176ZM3.778,66.888a8.105,8.105,0,0,1,5.41-7.674l8.479,15.749v9.371H9.333V69.056H6.556V84.334H3.778ZM84.334,84.334H81.556V69.056H78.778V84.334H70.445V74.963l8.479-15.747a8.1,8.1,0,0,1,5.41,7.672Z" transform="translate(-1 -1)"/>
      <path id="Trazado_245691" data-name="Trazado 245691" d="M33.514,35.341a5.85,5.85,0,0,0,5.263-3.253l.146-.293-2.485-1.243-.146.294a3.106,3.106,0,0,1-5.556,0l-.146-.293L28.106,31.8l.146.292A5.85,5.85,0,0,0,33.514,35.341Z" transform="translate(9.541 10.493)"/>
    </g>
  </g>
</svg>
