<svg xmlns="http://www.w3.org/2000/svg" width="69.662" height="85.845" viewBox="0 0 69.662 85.845">
  <g id="vision" transform="translate(-48.26 0)">
    <path id="Trazado_120933" data-name="Trazado 120933" d="M156.251,136.944l-5.615-9.995a1.7,1.7,0,0,1-.214-.8,26.259,26.259,0,0,0-1.333-7.869H134.644a.839.839,0,0,1-.839-.839V108.82a.839.839,0,0,1,.839-.839h8.083a26.238,26.238,0,0,0-15.347-7.517,13.356,13.356,0,0,1-4.951,8.309,5.843,5.843,0,0,0-1.995,2.828l-.79,2.5a2.386,2.386,0,0,1-.559,4.706,2.387,2.387,0,1,1,0,4.774h-.824l-.747,3.594a2.039,2.039,0,0,1-2,1.625h-2.589a2.039,2.039,0,0,1-1.993-1.609l-.779-3.609h-.844a2.387,2.387,0,1,1,0-4.774,2.386,2.386,0,0,1-.559-4.706l-.78-2.469a5.688,5.688,0,0,0-1.929-2.8q-.385-.3-.745-.621a26.27,26.27,0,0,0-5.811,27.652H114a.839.839,0,0,1,.839.839v8.617a.839.839,0,0,1-.839.839H106.54q.893.8,1.856,1.522a6.761,6.761,0,0,1,2.744,5.413v13.435a1.678,1.678,0,0,0,1.678,1.678h19.374a1.678,1.678,0,0,0,1.678-1.678v-9.491a1.678,1.678,0,0,1,1.678-1.678h5.115a7.291,7.291,0,0,0,7.29-7.29v-5.362a1.678,1.678,0,0,1,1.678-1.678h4.228a2.741,2.741,0,0,0,2.39-4.084Z" transform="translate(-41.232 -83.62)" fill="#fddeb0"/>
    <g id="Grupo_84823" data-name="Grupo 84823" transform="translate(56.566 24.592)">
      <path id="Trazado_120934" data-name="Trazado 120934" d="M103.417,164.524a26.117,26.117,0,0,1,4.593-14.314l-.036-.115a5.688,5.688,0,0,0-1.929-2.8q-.385-.3-.745-.621a26.27,26.27,0,0,0-5.811,27.652H105.1A26.266,26.266,0,0,1,103.417,164.524Z" transform="translate(-97.799 -146.674)" fill="#fdd79b"/>
      <path id="Trazado_120935" data-name="Trazado 120935" d="M160.153,393.369V379.934a6.761,6.761,0,0,0-2.744-5.413q-.963-.718-1.856-1.522H149.94q.893.8,1.856,1.522a6.761,6.761,0,0,1,2.744,5.413v13.435a1.678,1.678,0,0,0,1.678,1.678h5.614A1.678,1.678,0,0,1,160.153,393.369Z" transform="translate(-141.198 -335.052)" fill="#fdd79b"/>
    </g>
    <path id="Trazado_120936" data-name="Trazado 120936" d="M180.721,158.341h-5.186a.839.839,0,0,1-.839-.839v-5.909A17.774,17.774,0,0,0,164.8,148.6c-.417,0-.831.016-1.242.044-.08.066-.16.131-.242.194a5.843,5.843,0,0,0-1.995,2.828l-.79,2.5a2.386,2.386,0,0,1-.559,4.706,2.387,2.387,0,1,1,0,4.774h-.824l-.747,3.594a2.039,2.039,0,0,1-2,1.625H153.82a2.039,2.039,0,0,1-1.993-1.609l-.779-3.609H150.2a2.379,2.379,0,0,1-2.317-2.952,17.859,17.859,0,0,0,1.749,15.234h5.258a.839.839,0,0,1,.839.839v5.109a17.873,17.873,0,0,0,24.989-23.536Z" transform="translate(-82.123 -123.685)" fill="#c8effe"/>
    <path id="Trazado_120937" data-name="Trazado 120937" d="M211.479,202.7a8.758,8.758,0,0,0-3.289.639,2.379,2.379,0,0,1-1.064.516l-.131.075a2.386,2.386,0,0,1-.344,4.747h-.824l-.747,3.594a2.039,2.039,0,0,1-2,1.625H203a8.807,8.807,0,1,0,8.476-11.2Z" transform="translate(-128.798 -168.711)" fill="#01d0fb"/>
    <path id="Trazado_120938" data-name="Trazado 120938" d="M214.327,203.171a8.775,8.775,0,0,0-6.137.164,2.379,2.379,0,0,1-1.064.516l-.131.075a2.386,2.386,0,0,1-.344,4.747h-.824l-.747,3.594a2.039,2.039,0,0,1-2,1.625H203a8.8,8.8,0,0,0,11.325,5.945,8.8,8.8,0,0,1,0-16.665Z" transform="translate(-128.798 -168.711)" fill="#01c0fa"/>
    <g id="Grupo_84835" data-name="Grupo 84835" transform="translate(59.6 1.257)">
      <g id="Grupo_84825" data-name="Grupo 84825" transform="translate(0)">
        <g id="Grupo_84824" data-name="Grupo 84824">
          <path id="Trazado_120939" data-name="Trazado 120939" d="M129.063,7.5a13.365,13.365,0,0,0-7.955,23.954,5.688,5.688,0,0,1,1.929,2.8l.831,2.629a2.212,2.212,0,0,1,.509-.061h9.773a2.2,2.2,0,0,1,.509.061l.841-2.661a5.842,5.842,0,0,1,1.995-2.828A13.365,13.365,0,0,0,129.063,7.5Z" transform="translate(-115.897 -7.499)" fill="#fed402"/>
        </g>
      </g>
      <g id="Grupo_84827" data-name="Grupo 84827" transform="translate(0 0.166)">
        <g id="Grupo_84826" data-name="Grupo 84826">
          <path id="Trazado_120940" data-name="Trazado 120940" d="M123.866,37.707a2.212,2.212,0,0,1,.509-.061h4.131l-1.262-3.993a5.688,5.688,0,0,0-1.929-2.8,13.35,13.35,0,0,1,1.86-22.365,13.364,13.364,0,0,0-6.069,23.79,5.688,5.688,0,0,1,1.929,2.8Z" transform="translate(-115.895 -8.487)" fill="#fac600"/>
        </g>
      </g>
      <g id="Grupo_84828" data-name="Grupo 84828" transform="translate(5.617 5.617)">
        <circle id="Elipse_4876" data-name="Elipse 4876" cx="7.75" cy="7.75" r="7.75" fill="#fee97d"/>
      </g>
      <g id="Grupo_84834" data-name="Grupo 84834" transform="translate(6.093 29.157)">
        <g id="Grupo_84829" data-name="Grupo 84829" transform="translate(3.202 9.381)">
          <path id="Trazado_120941" data-name="Trazado 120941" d="M171.331,237.347c.006.035.009.071.017.106l.792,3.671a2.039,2.039,0,0,0,1.993,1.609h2.589a2.039,2.039,0,0,0,2-1.625l.763-3.671c.006-.03.009-.06.013-.091Z" transform="translate(-171.331 -237.347)" fill="#3e5959"/>
        </g>
        <path id="Trazado_120942" data-name="Trazado 120942" d="M171.51,238.347l.779,3.609a2.039,2.039,0,0,0,1.993,1.609h2.589a2.039,2.039,0,0,0,2-1.625l.747-3.594Z" transform="translate(-168.278 -228.798)" fill="#3e5959"/>
        <path id="Trazado_120943" data-name="Trazado 120943" d="M175.922,241.956l-.779-3.609H171.51l.779,3.609a2.039,2.039,0,0,0,1.993,1.609h2.589a2.037,2.037,0,0,0,.522-.068A2.04,2.04,0,0,1,175.922,241.956Z" transform="translate(-168.278 -228.798)" fill="#384949"/>
        <g id="Grupo_84830" data-name="Grupo 84830" transform="translate(0 0)">
          <path id="Trazado_120944" data-name="Trazado 120944" d="M164.4,186.172h-9.773a2.387,2.387,0,1,1,0-4.774H164.4a2.387,2.387,0,1,1,0,4.774Z" transform="translate(-152.237 -181.398)" fill="#a8d3d8"/>
        </g>
        <g id="Grupo_84831" data-name="Grupo 84831">
          <path id="Trazado_120945" data-name="Trazado 120945" d="M157.9,183.784a2.387,2.387,0,0,1,2.387-2.387h-5.661a2.387,2.387,0,1,0,0,4.774h5.661A2.387,2.387,0,0,1,157.9,183.784Z" transform="translate(-152.236 -181.397)" fill="#8ebac5"/>
        </g>
        <g id="Grupo_84832" data-name="Grupo 84832" transform="translate(0 4.774)">
          <path id="Trazado_120946" data-name="Trazado 120946" d="M164.4,214.647h-9.773a2.387,2.387,0,0,1,0-4.774H164.4a2.387,2.387,0,1,1,0,4.774Z" transform="translate(-152.237 -209.873)" fill="#c8effe"/>
        </g>
        <g id="Grupo_84833" data-name="Grupo 84833" transform="translate(0 4.774)">
          <path id="Trazado_120947" data-name="Trazado 120947" d="M157.9,212.259a2.387,2.387,0,0,1,2.387-2.387h-5.661a2.387,2.387,0,1,0,0,4.774h5.661A2.387,2.387,0,0,1,157.9,212.259Z" transform="translate(-152.236 -209.872)" fill="#a8d3d8"/>
        </g>
      </g>
    </g>
    <g id="Grupo_84838" data-name="Grupo 84838" transform="translate(49.518 52.244)">
      <g id="Grupo_84836" data-name="Grupo 84836" transform="translate(0)">
        <path id="Trazado_120948" data-name="Trazado 120948" d="M79.013,321.891H56.6a.839.839,0,0,1-.839-.839v-8.617a.839.839,0,0,1,.839-.839H79.013a.839.839,0,0,1,.839.839v8.617A.839.839,0,0,1,79.013,321.891Z" transform="translate(-55.761 -311.595)" fill="#05e39c"/>
      </g>
      <g id="Grupo_84837" data-name="Grupo 84837">
        <path id="Trazado_120949" data-name="Trazado 120949" d="M61.387,321.051v-8.617a.839.839,0,0,1,.839-.839H56.6a.839.839,0,0,0-.839.839v8.617a.839.839,0,0,0,.839.839h5.626A.839.839,0,0,1,61.387,321.051Z" transform="translate(-55.761 -311.595)" fill="#0ed290"/>
      </g>
    </g>
    <g id="Grupo_84841" data-name="Grupo 84841" transform="translate(92.573 24.361)">
      <g id="Grupo_84839" data-name="Grupo 84839" transform="translate(0)">
        <path id="Trazado_120950" data-name="Trazado 120950" d="M335.8,155.591H313.391a.839.839,0,0,1-.839-.839v-8.617a.839.839,0,0,1,.839-.839H335.8a.839.839,0,0,1,.839.839v8.617A.839.839,0,0,1,335.8,155.591Z" transform="translate(-312.552 -145.296)" fill="#fd5426"/>
      </g>
      <g id="Grupo_84840" data-name="Grupo 84840" transform="translate(0 0)">
        <path id="Trazado_120951" data-name="Trazado 120951" d="M318.213,154.752v-8.617a.839.839,0,0,1,.839-.839h-5.661a.839.839,0,0,0-.839.839v8.617a.839.839,0,0,0,.839.839h5.661A.839.839,0,0,1,318.213,154.752Z" transform="translate(-312.552 -145.296)" fill="#ef4424"/>
      </g>
    </g>
    <g id="Grupo_84842" data-name="Grupo 84842" transform="translate(69.589 11.246)">
      <circle id="Elipse_4877" data-name="Elipse 4877" cx="3.377" cy="3.377" r="3.377" transform="translate(0)" fill="#fe9901"/>
    </g>
    <g id="Grupo_84843" data-name="Grupo 84843" transform="translate(69.59 11.247)">
      <path id="Trazado_120952" data-name="Trazado 120952" d="M178.245,70.455a3.376,3.376,0,0,1,1.992-3.078,3.377,3.377,0,1,0,0,6.156,3.376,3.376,0,0,1-1.992-3.078Z" transform="translate(-175.474 -67.078)" fill="#fb8801"/>
    </g>
    <g id="Grupo_84844" data-name="Grupo 84844" transform="translate(48.26 0)">
      <path id="Trazado_120953" data-name="Trazado 120953" d="M76.59,337.312h3.142a1.258,1.258,0,0,0,0-2.515H76.59a1.258,1.258,0,0,0,0,2.515Z" transform="translate(-70.794 -278.663)"/>
      <path id="Trazado_120954" data-name="Trazado 120954" d="M119.656,337.312h7.793a1.258,1.258,0,0,0,0-2.515h-7.793a1.258,1.258,0,0,0,0,2.515Z" transform="translate(-106.638 -278.663)"/>
      <path id="Trazado_120955" data-name="Trazado 120955" d="M115.825,23.1H102.011a27.37,27.37,0,0,0-14.466-7.326c.03-.382.046-.766.046-1.153a14.624,14.624,0,0,0-29.243-.4,14.69,14.69,0,0,0,3.963,10.408,27.433,27.433,0,0,0-5.8,26.355H50.357a2.1,2.1,0,0,0-2.1,2.1V61.7a2.1,2.1,0,0,0,2.1,2.1H64.836q.762.662,1.576,1.272a5.535,5.535,0,0,1,2.238,4.405V82.909a2.939,2.939,0,0,0,2.936,2.936H90.961A2.939,2.939,0,0,0,93.9,82.909V80.983a1.258,1.258,0,0,0-2.515,0v1.926a.421.421,0,0,1-.421.421H71.587a.421.421,0,0,1-.421-.421V69.474A8.037,8.037,0,0,0,68.775,63.8h4a2.1,2.1,0,0,0,2.1-2.1V60.256a19.13,19.13,0,0,0,25.669-24.343h6.4a25.129,25.129,0,0,1,1,6.632,2.968,2.968,0,0,0,.375,1.4l5.615,9.995a1.484,1.484,0,0,1-1.294,2.211H108.4a2.939,2.939,0,0,0-2.936,2.936v5.362a6.04,6.04,0,0,1-6.033,6.033H94.317a2.939,2.939,0,0,0-2.936,2.936v1.7a1.257,1.257,0,1,0,2.515,0v-1.7A.421.421,0,0,1,94.317,73h5.115a8.558,8.558,0,0,0,8.548-8.548V59.088a.421.421,0,0,1,.421-.421h4.228a4,4,0,0,0,3.487-5.958L110.5,42.715a.444.444,0,0,1-.053-.21,27.681,27.681,0,0,0-.9-6.591h6.282a2.1,2.1,0,0,0,2.1-2.1V25.2a2.1,2.1,0,0,0-2.1-2.1Zm-17.656,0H93.412a2.1,2.1,0,0,0-2.1,2.1v.523a18.991,18.991,0,0,0-6.909-1.985,14.469,14.469,0,0,0,2.729-5.474A24.837,24.837,0,0,1,98.169,23.1ZM60.862,14.291A12.162,12.162,0,0,1,72.785,2.516h.183a12.108,12.108,0,0,1,7.455,21.648A7.079,7.079,0,0,0,78,27.6l-.491,1.554H74.224V23.541a9.01,9.01,0,0,0,7.2-12.03,1.257,1.257,0,1,0-2.36.869,6.5,6.5,0,0,1-4.837,8.612V19.084a4.635,4.635,0,1,0-2.515,0v1.909A6.492,6.492,0,0,1,72.967,8.131a6.434,6.434,0,0,1,2.77.62,1.257,1.257,0,1,0,1.074-2.274,8.927,8.927,0,0,0-3.844-.861,9.007,9.007,0,0,0-1.257,17.925v5.615H68.421l-.481-1.522a6.909,6.909,0,0,0-2.36-3.418A12.162,12.162,0,0,1,60.862,14.291ZM75.052,43.3a.785.785,0,0,1-.765.623H71.7a.786.786,0,0,1-.764-.617l-.45-2.086h5Zm-6.971-4.6a1.13,1.13,0,0,1,0-2.259h9.773a1.13,1.13,0,0,1,0,2.259Zm9.773-4.774H68.08a1.13,1.13,0,0,1,0-2.259h9.773a1.13,1.13,0,1,1,0,2.259ZM72.967,16.744a2.12,2.12,0,1,1,2.12-2.12A2.122,2.122,0,0,1,72.967,16.744ZM57.828,42.466a24.855,24.855,0,0,1,6.348-16.147,4.426,4.426,0,0,1,1.366,2.074l.45,1.424a3.631,3.631,0,0,0-.794,5.205q-.224.5-.419,1.017a3.593,3.593,0,0,0-.225.628,19.106,19.106,0,0,0,.84,14.32H59.158a25,25,0,0,1-1.33-8.52ZM72.352,61.282H50.775V53.5H72.352ZM99.3,42.793A16.61,16.61,0,0,1,74.867,57.455V53.083a2.1,2.1,0,0,0-2.1-2.1H68.229a16.563,16.563,0,0,1-2.034-10.3,3.616,3.616,0,0,0,1.714.525l.566,2.621a3.314,3.314,0,0,0,3.223,2.6H73.3a10.057,10.057,0,0,0,12.936,5.769,1.257,1.257,0,1,0-.891-2.352,7.541,7.541,0,0,1-9.483-3.825,3.3,3.3,0,0,0,1.65-2.219l.54-2.6a3.639,3.639,0,0,0,2.774-5.738A7.543,7.543,0,0,1,89.2,46.592a1.257,1.257,0,1,0,2.171,1.27A10.059,10.059,0,0,0,81.5,32.8a3.642,3.642,0,0,0-1.556-2.981l.46-1.457a4.564,4.564,0,0,1,1.513-2.168c.254-.012.509-.02.766-.02A16.515,16.515,0,0,1,91.316,28.6v5.217a2.1,2.1,0,0,0,2.1,2.1h4.4A16.514,16.514,0,0,1,99.3,42.793ZM115.407,33.4H93.831v-7.78h21.577Z" transform="translate(-48.26 0)"/>
      <path id="Trazado_120956" data-name="Trazado 120956" d="M333.382,171.013h3.142a1.257,1.257,0,1,0,0-2.515h-3.142a1.257,1.257,0,1,0,0,2.515Z" transform="translate(-284.529 -140.246)"/>
      <path id="Trazado_120957" data-name="Trazado 120957" d="M376.446,171.013h7.793a1.257,1.257,0,1,0,0-2.515h-7.793a1.257,1.257,0,0,0,0,2.515Z" transform="translate(-320.374 -140.246)"/>
    </g>
  </g>
</svg>
