<svg xmlns="http://www.w3.org/2000/svg" width="70" height="70" viewBox="0 0 70 70">
  <g id="Grupo_86167" data-name="Grupo 86167" transform="translate(-0.068 0.214)">
    <circle id="Elipse_4816" data-name="Elipse 4816" cx="35" cy="35" r="35" transform="translate(0.068 -0.214)" fill="#fff"/>
    <g id="dislexia" transform="translate(-5.773 15.137)">
      <path id="Trazado_121201" data-name="Trazado 121201" d="M59.373,14.528A12.824,12.824,0,0,0,53.147,3.285,23.426,23.426,0,0,0,40.834,0a17.19,17.19,0,0,0-10,2.935,11.43,11.43,0,0,0-4.845,8.8,4.716,4.716,0,0,1-.538,1.871,3.927,3.927,0,0,0-.3.773,2.586,2.586,0,0,0,.593,1.945,4.923,4.923,0,0,1,.358.629.474.474,0,0,1-.025.417,7.86,7.86,0,0,1-2.25,2.476A2.468,2.468,0,0,0,22.611,21.8c0,1.048.662,1.782,1.961,2.181a.963.963,0,0,1,.379.182,2.587,2.587,0,0,1-.948.958.592.592,0,0,0-.164.159,1.259,1.259,0,0,0,.331,1.725c.2.157.358.3.484.42a1.587,1.587,0,0,0-.113,1.864.6.6,0,0,0,.363.244,2.352,2.352,0,0,1,.688.284,3.009,3.009,0,0,0-.4,2.377c.367,1.492,1.5,2.4,3.378,2.711a16.332,16.332,0,0,0,3.91-.294l.866-.12c2.867-.388,4.223,1.921,5.259,4.475a2.186,2.186,0,0,0,2.021,1.357,2.162,2.162,0,0,0,.54-.069l3.381-.872a.591.591,0,0,0-.295-1.144l-3.381.872a1,1,0,0,1-1.171-.589c-.7-1.726-2.341-5.767-6.513-5.2l-.872.121a17,17,0,0,1-3.555.3c-1.4-.23-2.171-.81-2.422-1.827a1.9,1.9,0,0,1,.312-1.562,1.168,1.168,0,0,0-.364-1.492,3.234,3.234,0,0,0-.811-.391c-.009-.14.061-.329.358-.543a.591.591,0,0,0,.123-.839,9.881,9.881,0,0,0-1.131-1.093c.489-.348,1.423-1.135,1.3-2.006-.051-.364-.3-.857-1.2-1.135-.989-.3-1.126-.687-1.127-1.055s.222-.608.756-1.018a9.2,9.2,0,0,0,2.56-2.834,1.663,1.663,0,0,0,.08-1.462,5.821,5.821,0,0,0-.445-.793c-.246-.389-.5-.792-.441-1.046a3.151,3.151,0,0,1,.22-.535,5.876,5.876,0,0,0,.649-2.3C27.65,4.468,34.378,1.181,40.834,1.181a22.221,22.221,0,0,1,11.677,3.1,11.692,11.692,0,0,1,5.681,10.248c0,5.363-.705,7.561-5.372,11.785-1.342,1.214-1.187,3.981.474,8.457a1,1,0,0,1-.684,1.314l-5.7,1.469A.591.591,0,1,0,47.2,38.7l5.7-1.469a2.179,2.179,0,0,0,1.5-2.869c-1.392-3.751-1.679-6.365-.789-7.171,4.928-4.46,5.761-7.073,5.761-12.661Z" fill="#f88f05"/>
      <path id="Trazado_121202" data-name="Trazado 121202" d="M159.523,44.428a4.395,4.395,0,0,0-2.839-5.245,4.395,4.395,0,0,0-6.3-2.833,5.083,5.083,0,0,0-7.58-1.042,4.011,4.011,0,0,0-5.55,2.114,4.633,4.633,0,0,0-1.953.831.591.591,0,1,0,.7.952,3.449,3.449,0,0,1,1.746-.657.591.591,0,0,0,.518-.429,2.83,2.83,0,0,1,4.3-1.588.591.591,0,0,0,.755-.083,3.9,3.9,0,0,1,6.328.983.591.591,0,0,0,.879.218,3.213,3.213,0,0,1,5.068,2.093.591.591,0,0,0,.445.481l.025.006a3.212,3.212,0,0,1,1.049,5.74.591.591,0,0,0-.178.769,3.927,3.927,0,0,1-.072,3.915.591.591,0,1,0,1.012.61,5.11,5.11,0,0,0,.316-4.643,4.391,4.391,0,0,0,1.333-2.192Z" transform="translate(-103.595 -31.379)" fill="#f88f05"/>
      <path id="Trazado_121203" data-name="Trazado 121203" d="M107.992,122.075a4.1,4.1,0,0,0,5.808,1.233,1.053,1.053,0,0,1,1.33.092,7.146,7.146,0,0,0,3.244,1.827c.08.02.162.04.245.058a4.393,4.393,0,0,0,5.849,1.093,5.091,5.091,0,0,0,5.6.951.591.591,0,1,0-.484-1.078,3.918,3.918,0,0,1-4.589-1.035.591.591,0,0,0-.823-.075,3.213,3.213,0,0,1-4.711-.716.59.59,0,0,0-.386-.255c-.139-.025-.276-.055-.407-.089a5.963,5.963,0,0,1-2.707-1.524,2.237,2.237,0,0,0-2.824-.226,2.925,2.925,0,0,1-2.473.392,2.931,2.931,0,0,1-1.392-4.735.591.591,0,0,0,.1-.62,3.409,3.409,0,0,1-.172-2.2.591.591,0,0,0-1.145-.292,4.575,4.575,0,0,0,.1,2.627,4.1,4.1,0,0,0-.16,4.576Z" transform="translate(-78.084 -105.414)" fill="#f88f05"/>
      <path id="Trazado_121204" data-name="Trazado 121204" d="M150.519,120.46a.591.591,0,0,0-.786.283l-2.22,4.726-.007.016a.7.7,0,0,0,.908.932l.013-.005,4.8-2.068a.591.591,0,0,0-.467-1.085l-.822.354-1.514-1.559.379-.807A.591.591,0,0,0,150.519,120.46Zm.258,3.653-1.656.714.766-1.63Z" transform="translate(-115.005 -110.921)" fill="#f88f05"/>
      <path id="Trazado_121205" data-name="Trazado 121205" d="M335.442,163.988a1.812,1.812,0,0,0-.947-2.381L333.08,161a.59.59,0,0,0-.776.309l-.967,2.243h0l-1.133,2.629a.591.591,0,0,0,.311.777s1.3.555,1.663.709a2.018,2.018,0,0,0,2.551-2.855A1.8,1.8,0,0,0,335.442,163.988Zm-2.287-1.672.873.376a.63.63,0,1,1-.5,1.158l-.519-.222-.355-.153Zm.591,3.827a.839.839,0,0,1-1.1.438l-1.122-.479.664-1.54.352.15.768.331A.838.838,0,0,1,333.746,166.143Z" transform="translate(-283.323 -148.273)" fill="#f88f05"/>
      <path id="Trazado_121206" data-name="Trazado 121206" d="M215.913,76.236a3.1,3.1,0,0,0,1.911-1.431,2.941,2.941,0,0,0-1.064-4.116.591.591,0,1,0-.511,1.065,1.773,1.773,0,0,1,.558,2.448,1.938,1.938,0,0,1-3.492-1.64.591.591,0,0,0-1.112-.4,3.12,3.12,0,0,0,3.71,4.072Z" transform="translate(-174.493 -65.067)" fill="#f88f05"/>
      <path id="Trazado_121207" data-name="Trazado 121207" d="M236.5,150.617a2.46,2.46,0,0,0,2.188,1.208,3.6,3.6,0,0,0,1.757-.491c1.613-.909,2.181-2.435,1.414-3.8l-.7-1.236a.591.591,0,0,0-.806-.224s-1.677.949-2.175,1.23c-.607.342-2.186,1.239-2.186,1.239a.591.591,0,0,0-.222.805C235.792,149.39,236.292,150.269,236.5,150.617Zm2.262-2.281,1.662-.939.406.721c.518.92-.158,1.733-.965,2.188s-1.856.549-2.346-.286c-.1-.168-.273-.472-.425-.738C237.605,148.989,238.376,148.552,238.758,148.337Z" transform="translate(-196.301 -134.503)" fill="#f88f05"/>
      <path id="Trazado_121208" data-name="Trazado 121208" d="M316.662,91.259l1.354,1.117a.591.591,0,1,0,.752-.911l-.9-.742.574-.7.8.659a.591.591,0,1,0,.752-.911l-.8-.659.574-.7.9.742a.591.591,0,0,0,.752-.911l-1.354-1.118a.591.591,0,0,0-.832.08l-2.652,3.214A.591.591,0,0,0,316.662,91.259Z" transform="translate(-270.694 -80.147)" fill="#f88f05"/>
    </g>
  </g>
</svg>
