<svg xmlns="http://www.w3.org/2000/svg" xmlns:xlink="http://www.w3.org/1999/xlink" width="190" height="190" viewBox="0 0 190 190">
  <defs>
    <clipPath id="clip-path">
      <rect id="Rectángulo_33915" data-name="Rectángulo 33915" width="190" height="190" transform="translate(285 4627)"/>
    </clipPath>
    <linearGradient id="linear-gradient" y1="0.5" x2="1" y2="0.5" gradientUnits="objectBoundingBox">
      <stop offset="0" stop-color="#d4751c"/>
      <stop offset="1" stop-color="#b65d00"/>
    </linearGradient>
    <linearGradient id="linear-gradient-2" y1="0.5" x2="1" y2="0.5" gradientUnits="objectBoundingBox">
      <stop offset="0" stop-color="#ea8a39"/>
      <stop offset="1" stop-color="#d4751c"/>
    </linearGradient>
    <linearGradient id="linear-gradient-4" x1="2.413" y1="103.632" x2="3.413" y2="103.632" xlink:href="#linear-gradient"/>
    <linearGradient id="linear-gradient-5" x1="1" y1="0.5" x2="0" y2="0.5" gradientUnits="objectBoundingBox">
      <stop offset="0.002" stop-color="#ea8a39"/>
      <stop offset="1" stop-color="#fc9850"/>
    </linearGradient>
    <linearGradient id="linear-gradient-9" x1="0.996" y1="0.5" x2="-0.001" y2="0.5" xlink:href="#linear-gradient-5"/>
    <linearGradient id="linear-gradient-11" x1="0.999" y1="0.5" x2="0" y2="0.5" xlink:href="#linear-gradient-5"/>
    <linearGradient id="linear-gradient-13" x1="568.899" y1="0.341" x2="569.061" y2="0.397" gradientUnits="objectBoundingBox">
      <stop offset="0" stop-color="#fe958f"/>
      <stop offset="1" stop-color="#f77c77"/>
    </linearGradient>
    <linearGradient id="linear-gradient-14" x1="612.436" y1="0.155" x2="612.775" y2="0.45" gradientUnits="objectBoundingBox">
      <stop offset="0" stop-color="#ffc1c2"/>
      <stop offset="1" stop-color="#fe958f"/>
    </linearGradient>
    <linearGradient id="linear-gradient-15" x1="1129.452" y1="65.848" x2="1129.677" y2="66.067" gradientUnits="objectBoundingBox">
      <stop offset="0" stop-color="#7a8fd8"/>
      <stop offset="1" stop-color="#435ac2"/>
    </linearGradient>
    <linearGradient id="linear-gradient-16" x1="1186.768" y1="0.5" x2="1187.768" y2="0.5" xlink:href="#linear-gradient-14"/>
    <linearGradient id="linear-gradient-17" x1="1136.458" y1="0.5" x2="1137.458" y2="0.5" gradientUnits="objectBoundingBox">
      <stop offset="0" stop-color="#435ac2"/>
      <stop offset="1" stop-color="#0f24a4"/>
    </linearGradient>
    <linearGradient id="linear-gradient-18" x1="1481.716" y1="0.5" x2="1482.716" y2="0.5" xlink:href="#linear-gradient-15"/>
    <linearGradient id="linear-gradient-19" x1="1975.225" y1="0.5" x2="1976.225" y2="0.5" xlink:href="#linear-gradient-15"/>
    <linearGradient id="linear-gradient-20" x1="13751.382" y1="0.5" x2="13752.382" y2="0.5" gradientUnits="objectBoundingBox">
      <stop offset="0" stop-color="#8095da"/>
      <stop offset="1" stop-color="#a1b5e9"/>
    </linearGradient>
    <linearGradient id="linear-gradient-21" x1="1305.77" y1="63.526" x2="1306.193" y2="63.713" xlink:href="#linear-gradient-15"/>
    <linearGradient id="linear-gradient-22" x1="0.349" y1="-0.131" x2="0.439" y2="0.074" xlink:href="#linear-gradient-15"/>
    <linearGradient id="linear-gradient-23" x1="0.044" y1="0.271" x2="0.741" y2="0.618" xlink:href="#linear-gradient-15"/>
    <linearGradient id="linear-gradient-24" x1="0.096" y1="0.441" x2="0.654" y2="0.524" xlink:href="#linear-gradient-17"/>
    <linearGradient id="linear-gradient-25" x1="0.091" y1="0.615" x2="0.91" y2="0.454" xlink:href="#linear-gradient-17"/>
    <linearGradient id="linear-gradient-26" x1="0.277" y1="0.565" x2="0.908" y2="0.438" xlink:href="#linear-gradient-17"/>
    <linearGradient id="linear-gradient-27" x1="1646.209" y1="0.5" x2="1647.209" y2="0.5" xlink:href="#linear-gradient-17"/>
  </defs>
  <g id="Enmascarar_grupo_68" data-name="Enmascarar grupo 68" transform="translate(-285 -4627)" clip-path="url(#clip-path)">
    <g id="senal-de-stop_1_" data-name="senal-de-stop (1)" transform="translate(285 4627)">
      <path id="Trazado_113875" data-name="Trazado 113875" d="M190,95a95.019,95.019,0,0,1-82.658,94.205,96.3,96.3,0,0,1-24.688,0A95.023,95.023,0,0,1,.148,100.316Q0,97.676,0,95a95,95,0,1,1,190,0Zm0,0" fill="#69b8d4"/>
      <path id="Trazado_113876" data-name="Trazado 113876" d="M120.376,102.1a6.338,6.338,0,0,1,6.338-6.339H180.13a6.339,6.339,0,0,1,0,12.678H162.852a6.338,6.338,0,1,0,0,12.677h1.761a6.339,6.339,0,1,1,0,12.678H113.418a6.338,6.338,0,0,1-6.338-6.339,6.339,6.339,0,0,0-6.339-6.339H98.98a6.338,6.338,0,1,1,0-12.677h15.057a6.339,6.339,0,0,0,6.339-6.339Zm0,0" fill="#8cd2e5"/>
      <path id="Trazado_113877" data-name="Trazado 113877" d="M32.99,68.625a6.34,6.34,0,0,1-6.339,6.336H9.372a6.34,6.34,0,0,0,0,12.679h1.761a6.338,6.338,0,1,1,0,12.675H.148Q0,97.676,0,95A94.809,94.809,0,0,1,5.785,62.286H26.651a6.339,6.339,0,0,1,6.339,6.339Zm0,0" fill="#8cd2e5"/>
      <path id="Trazado_113878" data-name="Trazado 113878" d="M49.1,125.595a6.339,6.339,0,0,1,6.339-6.339h53.416a6.338,6.338,0,0,1,0,12.677H91.577a6.339,6.339,0,0,0,0,12.678H93.34a6.338,6.338,0,0,1,0,12.677H42.145a6.339,6.339,0,0,1-6.339-6.339,6.338,6.338,0,0,0-6.339-6.338H27.706a6.339,6.339,0,0,1,0-12.678H42.762a6.339,6.339,0,0,0,6.339-6.338Zm0,0" fill="#8cd2e5"/>
      <g id="Grupo_86208" data-name="Grupo 86208" transform="translate(-91.736 -3414.303)">
        <g id="Grupo_86202" data-name="Grupo 86202" transform="translate(95.736 3419.105)">
          <path id="Trazado_121482" data-name="Trazado 121482" d="M233.161,3616.907H183.005a5.373,5.373,0,0,0-5.373,5.373v1.71h60.9v-1.71A5.373,5.373,0,0,0,233.161,3616.907Z" transform="translate(-117.296 -3471.179)" fill="url(#linear-gradient)"/>
          <path id="Trazado_121483" data-name="Trazado 121483" d="M220.584,3423.071a4.022,4.022,0,0,0-4-3.966h0a4.021,4.021,0,0,0-4,3.966l-2.66,141.762h13.322Z" transform="translate(-125.797 -3419.105)" fill="url(#linear-gradient-2)"/>
          <path id="Trazado_121484" data-name="Trazado 121484" d="M240.774,3622.951h-79.2a10.18,10.18,0,0,0-10.18,10.181h0a1.4,1.4,0,0,0,1.4,1.4h96.761a1.4,1.4,0,0,0,1.4-1.4h0A10.181,10.181,0,0,0,240.774,3622.951Z" transform="translate(-110.39 -3472.77)" fill="url(#linear-gradient-2)"/>
          <rect id="Rectángulo_34887" data-name="Rectángulo 34887" width="117.118" height="6.382" transform="matrix(0.995, 0.105, -0.105, 0.995, 32.89, 8.453)" fill="url(#linear-gradient-4)"/>
          <path id="Trazado_121485" data-name="Trazado 121485" d="M159.671,3511.752l-28.241-79.462a2.473,2.473,0,0,0-4.661,0l-28.241,79.462a2.473,2.473,0,1,0,4.661,1.656l25.91-72.9,25.91,72.9a2.473,2.473,0,1,0,4.661-1.656Z" transform="translate(-96.433 -3422.143)" fill="url(#linear-gradient-5)"/>
          <path id="Trazado_121486" data-name="Trazado 121486" d="M318.06,3528.181l-28.241-79.462a2.474,2.474,0,0,0-4.661,0l-28.241,79.462a2.473,2.473,0,0,0,4.661,1.656l25.911-72.905,25.91,72.905a2.473,2.473,0,0,0,4.661-1.656Z" transform="translate(-138.131 -3426.468)" fill="url(#linear-gradient-5)"/>
          <circle id="Elipse_4886" data-name="Elipse 4886" cx="11.137" cy="11.137" r="11.137" transform="translate(79.65 6.609)" fill="url(#linear-gradient-5)"/>
          <circle id="Elipse_4887" data-name="Elipse 4887" cx="3.458" cy="3.458" r="3.458" transform="translate(87.329 14.288)" fill="url(#linear-gradient)"/>
          <path id="Trazado_121487" data-name="Trazado 121487" d="M99.886,3543.953h0a22.8,22.8,0,0,0,21.694,15.8h16.741a22.8,22.8,0,0,0,21.695-15.8H99.886Z" transform="translate(-96.828 -3451.973)" fill="url(#linear-gradient-9)"/>
          <rect id="Rectángulo_34888" data-name="Rectángulo 34888" width="65.309" height="7.134" rx="3.567" transform="translate(0 87.793)" fill="url(#linear-gradient)"/>
          <path id="Trazado_121488" data-name="Trazado 121488" d="M258.275,3560.381h0a22.8,22.8,0,0,0,21.694,15.8H296.71a22.8,22.8,0,0,0,21.695-15.8H258.275Z" transform="translate(-138.526 -3456.298)" fill="url(#linear-gradient-11)"/>
          <rect id="Rectángulo_34889" data-name="Rectángulo 34889" width="65.309" height="7.134" rx="3.567" transform="translate(116.691 99.896)" fill="url(#linear-gradient)"/>
        </g>
        <g id="Grupo_86204" data-name="Grupo 86204" transform="translate(115.652 3475.59)">
          <path id="Trazado_121489" data-name="Trazado 121489" d="M132.919,3508.6l-2.574-.263.5-4.925,1.573.16Z" transform="translate(-124.764 -3497.785)" fill="#efbc90"/>
          <path id="Trazado_121490" data-name="Trazado 121490" d="M135.432,3499.6c.229,2.066-.3,4.071-1.566,4.389-1.187.3-3.062-1-3.766-3.093-.743-2.2-.115-3.726,1.64-4.139C133.6,3496.317,135.181,3497.333,135.432,3499.6Z" transform="translate(-124.618 -3496.006)" fill="#f4caab"/>
          <path id="Trazado_121491" data-name="Trazado 121491" d="M130.472,3502.044l.283-.083s-.008-.967.192-1.195c.256-.292,1.378-.145,1.378-.145s.152-1.064.607-1.307a3.876,3.876,0,0,1,2.565.149,3.092,3.092,0,0,0,.008-1.964,2.709,2.709,0,0,0-2.426-1.656c-1.138-.173-2.379-.1-2.764,1.155,0,0-1,.114-1.139,1.464S130.472,3502.044,130.472,3502.044Z" transform="translate(-124.454 -3495.774)" fill="#03053e"/>
          <path id="Trazado_121492" data-name="Trazado 121492" d="M132.437,3501.915a.572.572,0,1,1-.746-.464A.626.626,0,0,1,132.437,3501.915Z" transform="translate(-125.022 -3497.262)" fill="#f4caab"/>
          <path id="Trazado_121493" data-name="Trazado 121493" d="M150.52,3548.363l-2.925-12.845a1.254,1.254,0,0,0-.874-.926l-.17-.049-13.873-4.009-2.209-.639-1.064,4.757,2.271.362,13.532,2.164,4.24,11.5.194.525,1-.3Z" transform="translate(-124.516 -3504.757)" fill="#efbc90"/>
          <path id="Trazado_121494" data-name="Trazado 121494" d="M146.318,3535.689l-.178-.049-13.487-3.694-2.218-.608-.989,4.782,2.278.322,8.585,1.215-6.648,2.569-.522.2.309.995.544-.13,12.281-2.927a1.382,1.382,0,0,0,.045-2.677Z" transform="translate(-124.527 -3505.137)" fill="#f4caab"/>
          <path id="Trazado_121495" data-name="Trazado 121495" d="M134.532,3529.585c2.335,2.2,11.1,2.828,12.8,4.725,1.75,1.957,2.5,11.78,2.5,11.78l-2.079.616s-2.912-9.292-3.444-9.691-12.441.2-15.37-1.773c-2.426-1.634-1.131-5.657-1.131-5.657Z" transform="translate(-124.005 -3504.676)" fill="url(#linear-gradient-13)"/>
          <path id="Trazado_121496" data-name="Trazado 121496" d="M133.113,3529.585c1.63,2.629,13.165,3.371,13.773,6.167.663,3.052-12.1,5.078-12.1,5.078l-.552-2.067s4.773-1.273,4.7-1.531c-.069-.239-8.531.44-11.41-1.989-2.235-1.887-1.132-5.657-1.132-5.657Z" transform="translate(-123.651 -3504.676)" fill="url(#linear-gradient-14)"/>
          <path id="Trazado_121497" data-name="Trazado 121497" d="M132.239,3512.959l2.064,9.676-.852-.678,7.15.271.661.025-.009,1.28-.661.016-7.153.172a.847.847,0,0,1-.841-.631l-.012-.046-2.5-9.572-.281-1.073,2.207-.523Z" transform="translate(-124.62 -3500.013)" fill="#efbc90"/>
          <path id="Trazado_121498" data-name="Trazado 121498" d="M128.528,3513.345c-.083,2.337,1.8,8.326,4.249,10.32,1.457,1.185,5.979.192,5.979.192l.161-1.843s-3.607.387-4.485-1.627-1.482-7.3-2.7-8.109C130.656,3511.567,128.566,3512.3,128.528,3513.345Z" transform="translate(-124.285 -3500.045)" fill="url(#linear-gradient-15)"/>
          <path id="Trazado_121499" data-name="Trazado 121499" d="M129.125,3509.369a2.5,2.5,0,0,0,2.715.4,54.05,54.05,0,0,0,1.072,6.983c.607,2.023,2.394,7.339,2.394,7.339h-9.869C125.173,3519.561,126.883,3514.418,129.125,3509.369Z" transform="translate(-123.464 -3499.353)" fill="#76d3f4"/>
          <path id="Trazado_121500" data-name="Trazado 121500" d="M128.574,3508.753s-4.717,7.054-3.757,14.579c0,0-.405,1.478,4.947,1.277s5.659-.941,5.659-.941a51.582,51.582,0,0,1-3.665-14.112A5.917,5.917,0,0,1,128.574,3508.753Z" transform="translate(-123.274 -3499.191)" fill="url(#linear-gradient-16)"/>
          <path id="Trazado_121501" data-name="Trazado 121501" d="M148.029,3526.236c.008.455-.662,1.021-1.62,1.155-.884.124-1.5-.342-1.539-.8C144.791,3525.57,148.017,3525.533,148.029,3526.236Z" transform="translate(-128.587 -3503.668)" fill="#efbc90"/>
          <path id="Trazado_121502" data-name="Trazado 121502" d="M147.4,3525.209c-.079-.183-.624-.226-1.28-.016-.6.194-.927.55-.866.743C145.388,3526.365,147.517,3525.493,147.4,3525.209Z" transform="translate(-128.686 -3503.482)" fill="#efbc90"/>
          <path id="Trazado_121503" data-name="Trazado 121503" d="M130.632,3509.352a61.868,61.868,0,0,0,1.031,9.083,39.247,39.247,0,0,0,2.319,7.833s-9.284.567-10.9-1.726c-1.455-2.066,2.5-13.574,4.648-16.1Z" transform="translate(-122.769 -3499.109)" fill="url(#linear-gradient-17)"/>
          <path id="Trazado_121504" data-name="Trazado 121504" d="M134.777,3549.431l-.073-.99h0l.46-3.8-.028.007a.849.849,0,0,1-.9-.582,1.631,1.631,0,0,1-.12-1.053.164.164,0,0,0,.029-.091c-.059-.231-.485-.323-.951-.2a1.578,1.578,0,0,0-.406.163l-.648.165,1.755,6.9.656-.167A.3.3,0,0,0,134.777,3549.431Z" transform="translate(-125.236 -3508.118)" fill="#03053e"/>
          <path id="Trazado_121505" data-name="Trazado 121505" d="M162.189,3556.131l-.978-.169h0l-3.579-1.367v.029a.848.848,0,0,1-.782.731,1.632,1.632,0,0,1-1.051-.139.164.164,0,0,0-.081-.05c-.239,0-.43.392-.429.873a1.608,1.608,0,0,0,.06.434l0,.668,7.118-.031,0-.677A.3.3,0,0,0,162.189,3556.131Z" transform="translate(-131.33 -3511.26)" fill="#03053e"/>
          <g id="Grupo_86203" data-name="Grupo 86203" transform="translate(14.996 19.622)">
            <rect id="Rectángulo_34890" data-name="Rectángulo 34890" width="8.581" height="0.786" transform="translate(8.581 5.533) rotate(180)" fill="url(#linear-gradient-18)"/>
            <path id="Trazado_121506" data-name="Trazado 121506" d="M147.187,3527.94h5.595l.84-5.533h-5.595Z" transform="translate(-144.194 -3522.407)" fill="url(#linear-gradient-19)"/>
            <ellipse id="Elipse_4888" data-name="Elipse 4888" cx="0.462" cy="0.382" rx="0.462" ry="0.382" transform="translate(6.127 1.601)" fill="url(#linear-gradient-20)"/>
          </g>
          <path id="Trazado_121507" data-name="Trazado 121507" d="M131.821,3512.984l.155,10.057-.7-.83,7.079,1.675.643.152-.257,1.255-.651-.113-7.168-1.241a.848.848,0,0,1-.7-.784l0-.047-.607-10.041-.067-1.107,2.265-.085Z" transform="translate(-124.551 -3500.013)" fill="#f4caab"/>
          <path id="Trazado_121508" data-name="Trazado 121508" d="M144.806,3529.435c-.091.445-.869.852-1.834.774-.89-.072-1.393-.661-1.328-1.116C141.791,3528.079,144.947,3528.747,144.806,3529.435Z" transform="translate(-127.737 -3504.409)" fill="#f4caab"/>
          <path id="Trazado_121509" data-name="Trazado 121509" d="M144.412,3528.3c-.037-.2-.56-.356-1.246-.295-.632.058-1.024.335-1.006.536C142.2,3528.992,144.469,3528.605,144.412,3528.3Z" transform="translate(-127.874 -3504.256)" fill="#f4caab"/>
          <path id="Trazado_121510" data-name="Trazado 121510" d="M127.9,3512.5c-.695,2.274-.018,8.6,2.037,11.075,1.22,1.468,6.094,1.426,6.094,1.426l.524-1.807s-3.618-.032-4.1-2.214-.1-8.232-1.156-9.278A2.249,2.249,0,0,0,127.9,3512.5Z" transform="translate(-124.051 -3499.842)" fill="url(#linear-gradient-21)"/>
        </g>
        <g id="Grupo_86207" data-name="Grupo 86207" transform="translate(233.411 3486.142)">
          <g id="Grupo_86205" data-name="Grupo 86205">
            <path id="Trazado_121511" data-name="Trazado 121511" d="M306.991,3525.671l2.413-.663-1.269-4.615-1.474.406Z" transform="translate(-288.939 -3512.807)" fill="#efbc90"/>
            <path id="Trazado_121512" data-name="Trazado 121512" d="M302.092,3517.6c.113,2.006.94,3.834,2.2,3.933,1.18.094,2.758-1.446,3.1-3.553.354-2.218-.488-3.572-2.228-3.684C303.31,3514.181,301.968,3515.4,302.092,3517.6Z" transform="translate(-287.735 -3511.201)" fill="#f4caab"/>
            <path id="Trazado_121513" data-name="Trazado 121513" d="M305.291,3517.379a2.094,2.094,0,0,0-1.739-.989c-.582-.065-1.526.194-1.641-.225s.123-1.975,2.5-2.381a3.427,3.427,0,0,1,4.041,2.386c.471,1.351-.322,2.9-1.4,2.7S305.76,3518.265,305.291,3517.379Z" transform="translate(-287.683 -3511.05)" fill="#03053e"/>
            <path id="Trazado_121514" data-name="Trazado 121514" d="M306.656,3519.359a.553.553,0,1,0,.632-.568A.6.6,0,0,0,306.656,3519.359Z" transform="translate(-288.936 -3512.384)" fill="#f4caab"/>
            <path id="Trazado_121515" data-name="Trazado 121515" d="M305.407,3510.778a2.217,2.217,0,0,0,4.131,1.606c.357-.918-.482-1.5-1.622-1.941S305.765,3509.859,305.407,3510.778Z" transform="translate(-288.579 -3510.097)" fill="#03053e"/>
            <path id="Trazado_121516" data-name="Trazado 121516" d="M291.413,3542.427c.021.438.7.942,1.637,1.011.861.063,1.43-.427,1.434-.87C294.494,3541.577,291.38,3541.748,291.413,3542.427Z" transform="translate(-284.925 -3518.461)" fill="#efbc90"/>
            <path id="Trazado_121517" data-name="Trazado 121517" d="M289.669,3548.228l.174-.032,12.435-2.3,2.188-.4.544,4.71-2.223.105-10.787.51,4.366,10.489.208.5-.91.446-.268-.471-6.62-11.631a1.321,1.321,0,0,1-.148-.407A1.3,1.3,0,0,1,289.669,3548.228Z" transform="translate(-284.186 -3519.415)" fill="#efbc90"/>
            <path id="Trazado_121518" data-name="Trazado 121518" d="M288.041,3549.027l.158-.03,13.8-2.54,2.187-.4.569,4.678-2.22.133-12.873.771-.706,13.287-.029.54-1.019,0-.032-.54L287,3550.355A1.274,1.274,0,0,1,288.041,3549.027Z" transform="translate(-283.763 -3519.563)" fill="#efbc90"/>
            <path id="Trazado_121519" data-name="Trazado 121519" d="M300.448,3544.55c-1.577,2.542-10.949,1.662-12.3,3.528-1.8,2.489,5.6,12.109,5.6,12.109l2.464-1.375s-3.774-6.8-3.622-7.293c.193-.62,10.479.849,13.261-1.5,2.162-1.824,1.094-5.469,1.094-5.469Z" transform="translate(-283.992 -3519.167)" fill="url(#linear-gradient-22)"/>
            <path id="Trazado_121520" data-name="Trazado 121520" d="M300.687,3544.55c-1.375,3.122-12.555,1.969-14.14,4.691-1.279,2.2.035,13.344.035,13.344l2.957-.08s-.016-9.491.564-10.136c.425-.473,12.294.62,15.256-1.5,2.536-1.814,1.094-6.32,1.094-6.32Z" transform="translate(-283.497 -3519.167)" fill="url(#linear-gradient-23)"/>
            <path id="Trazado_121521" data-name="Trazado 121521" d="M303.608,3528.553l-1.68,9.581.8-.686-7.015.521-.637.047.055,1.237.639-.008,7.034-.093a.82.82,0,0,0,.79-.642l.01-.044,2.11-9.495.233-1.046-2.151-.427Z" transform="translate(-285.889 -3514.677)" fill="#efbc90"/>
            <path id="Trazado_121522" data-name="Trazado 121522" d="M307.616,3528.786c.167,2.293-1.317,8.25-3.655,10.3-1.389,1.217-6.013.4-6.013.4l-.225-1.805s3.46.521,4.249-1.49,1.289-7.5,2.458-8.336C305.461,3527.115,307.541,3527.756,307.616,3528.786Z" transform="translate(-286.586 -3514.687)" fill="url(#linear-gradient-24)"/>
            <path id="Trazado_121523" data-name="Trazado 121523" d="M307.666,3526.354a2.414,2.414,0,0,1-2.611.469,52.236,52.236,0,0,1-.816,6.782c-.523,1.974-2.082,7.168-2.082,7.168l9.538-.311C311.808,3536.079,309.992,3531.163,307.666,3526.354Z" transform="translate(-287.754 -3514.376)" fill="#dbc6af"/>
            <path id="Trazado_121524" data-name="Trazado 121524" d="M308.037,3525.8s4.781,6.669,4.09,13.972c0,0,.438,1.416-4.741,1.389s-5.5-.73-5.5-.73a49.9,49.9,0,0,0,3.1-13.753A5.727,5.727,0,0,0,308.037,3525.8Z" transform="translate(-287.683 -3514.23)" fill="url(#linear-gradient-25)"/>
            <path id="Trazado_121525" data-name="Trazado 121525" d="M307.94,3530.224c.7,1.092,1.379,2.234,2.008,3.376.315.573.617,1.15.9,1.731a15.467,15.467,0,0,1,.726,1.738c.046.144.086.28.122.42l.109.463c.066.314.131.631.189.953.116.643.219,1.294.314,1.947.186,1.307.345,2.629.48,3.943l.065.636,1.238-.086-.029-.638c-.06-1.347-.145-2.682-.259-4.025-.058-.672-.125-1.345-.208-2.021-.041-.337-.091-.678-.142-1.02l-.091-.517c-.037-.185-.081-.372-.13-.548a16.815,16.815,0,0,0-.71-1.994c-.266-.637-.552-1.257-.848-1.871-.6-1.228-1.222-2.413-1.9-3.606l-.53-.933-1.876,1.147Z" transform="translate(-289.124 -3514.855)" fill="#efbc90"/>
            <path id="Trazado_121526" data-name="Trazado 121526" d="M310.013,3527.784c1.714,1.532,2.82,5.133,3.653,8.128a27.44,27.44,0,0,1,.467,7.616l-1.881.166s-.314-4.672-1.144-6.666-4.29-6.285-4.032-7.7C307.3,3528.083,309.244,3527.1,310.013,3527.784Z" transform="translate(-289.045 -3514.693)" fill="url(#linear-gradient-26)"/>
            <path id="Trazado_121527" data-name="Trazado 121527" d="M316.14,3555.087c.426-.105.739-1.128.554-2.419-.17-1.191-.805-1.885-1.244-1.814C314.472,3551.013,315.48,3555.25,316.14,3555.087Z" transform="translate(-291.146 -3520.825)" fill="#efbc90"/>
            <path id="Trazado_121528" data-name="Trazado 121528" d="M314.7,3553.59c-.191-.029-.362-.53-.324-1.194.035-.613.292-1,.487-.99C315.3,3551.431,315,3553.635,314.7,3553.59Z" transform="translate(-290.97 -3520.972)" fill="#efbc90"/>
            <path id="Trazado_121529" data-name="Trazado 121529" d="M282.826,3572.718l.774-.138h0l2.83-1.1v.023a.673.673,0,0,0,.623.577,1.293,1.293,0,0,0,.832-.114.133.133,0,0,1,.064-.04c.189,0,.343.309.343.691a1.268,1.268,0,0,1-.046.343v.53h-5.638v-.536A.241.241,0,0,1,282.826,3572.718Z" transform="translate(-282.607 -3526.258)" fill="#03053e"/>
            <path id="Trazado_121530" data-name="Trazado 121530" d="M294.686,3570.773l.525-.585h0l1.557-2.606.014.019a.672.672,0,0,0,.845.072,1.3,1.3,0,0,0,.586-.6.139.139,0,0,1,.025-.072c.15-.116.46.033.695.334a1.254,1.254,0,0,1,.176.3l.326.417-4.443,3.471-.331-.423A.241.241,0,0,1,294.686,3570.773Z" transform="translate(-285.767 -3525.066)" fill="#03053e"/>
            <path id="Trazado_121531" data-name="Trazado 121531" d="M292.473,3541.482c.055-.185.574-.287,1.227-.158.6.118.951.425.914.617C294.53,3542.368,292.388,3541.769,292.473,3541.482Z" transform="translate(-285.204 -3518.302)" fill="#efbc90"/>
          </g>
          <g id="Grupo_86206" data-name="Grupo 86206" transform="translate(1.765 17.674)">
            <path id="Trazado_121532" data-name="Trazado 121532" d="M285.3,3534.106h0a.433.433,0,0,1,.543.281l1.692,5.352h5.072a.432.432,0,1,1,0,.864h-5.4a.432.432,0,0,1-.428-.373l-1.764-5.583A.432.432,0,0,1,285.3,3534.106Z" transform="translate(-285.002 -3534.085)" fill="url(#linear-gradient-27)"/>
            <path id="Trazado_121533" data-name="Trazado 121533" d="M287.762,3539.88h-.269l-1.644-5.263h.249Z" transform="translate(-285.225 -3534.225)" fill="#fff"/>
          </g>
        </g>
      </g>
    </g>
  </g>
</svg>
