<svg xmlns="http://www.w3.org/2000/svg" xmlns:xlink="http://www.w3.org/1999/xlink" width="190" height="190" viewBox="0 0 190 190">
  <defs>
    <clipPath id="clip-path">
      <rect id="Rectángulo_34881" data-name="Rectángulo 34881" width="190" height="190" transform="translate(285 4627)"/>
    </clipPath>
  </defs>
  <g id="Enmascarar_grupo_150" data-name="Enmascarar grupo 150" transform="translate(-285 -4627)" clip-path="url(#clip-path)">
    <g id="senal-de-stop_1_" data-name="senal-de-stop (1)" transform="translate(285 4627)">
      <path id="Trazado_121440" data-name="Trazado 121440" d="M190,95a95.019,95.019,0,0,1-82.658,94.205,96.3,96.3,0,0,1-24.688,0A95.023,95.023,0,0,1,.148,100.316Q0,97.676,0,95a95,95,0,1,1,190,0Zm0,0" fill="#69b8d4"/>
      <path id="Trazado_121441" data-name="Trazado 121441" d="M120.376,102.1a6.338,6.338,0,0,1,6.338-6.339H180.13a6.339,6.339,0,0,1,0,12.678H162.852a6.338,6.338,0,1,0,0,12.677h1.761a6.339,6.339,0,1,1,0,12.678H113.418a6.338,6.338,0,0,1-6.338-6.339,6.339,6.339,0,0,0-6.339-6.339H98.98a6.338,6.338,0,1,1,0-12.677h15.057a6.339,6.339,0,0,0,6.339-6.339Zm0,0" fill="#8cd2e5"/>
      <path id="Trazado_121442" data-name="Trazado 121442" d="M32.99,68.625a6.34,6.34,0,0,1-6.339,6.336H9.372a6.34,6.34,0,0,0,0,12.679h1.761a6.338,6.338,0,1,1,0,12.675H.148Q0,97.676,0,95A94.809,94.809,0,0,1,5.785,62.286H26.651a6.339,6.339,0,0,1,6.339,6.339Zm0,0" fill="#8cd2e5"/>
      <path id="Trazado_121443" data-name="Trazado 121443" d="M49.1,125.595a6.339,6.339,0,0,1,6.339-6.339h53.416a6.338,6.338,0,0,1,0,12.677H91.577a6.339,6.339,0,0,0,0,12.678H93.34a6.338,6.338,0,0,1,0,12.677H42.145a6.339,6.339,0,0,1-6.339-6.339,6.338,6.338,0,0,0-6.339-6.338H27.706a6.339,6.339,0,0,1,0-12.678H42.762a6.339,6.339,0,0,0,6.339-6.338Zm0,0" fill="#8cd2e5"/>
      <g id="Grupo_87241" data-name="Grupo 87241" transform="translate(-647.271 -3396.408)">
        <g id="Grupo_87209" data-name="Grupo 87209" transform="translate(715.251 3419.773)">
          <rect id="Rectángulo_34891" data-name="Rectángulo 34891" width="0.411" height="54.235" rx="0.206" transform="translate(29.925 54.881)" fill="#1b1b43"/>
          <path id="Trazado_121658" data-name="Trazado 121658" d="M828.945,3631.9a.2.2,0,0,1-.1-.026l-15-8.3-15,8.3a.205.205,0,0,1-.2-.36l15.2-8.409,15.2,8.409a.205.205,0,0,1-.1.385Z" transform="translate(-783.715 -3514.443)" fill="#1b1b43"/>
          <g id="Grupo_87204" data-name="Grupo 87204" transform="translate(0)">
            <rect id="Rectángulo_34892" data-name="Rectángulo 34892" width="59.96" height="60.141" transform="translate(0.154 0.154)" fill="#fff"/>
            <path id="Trazado_121659" data-name="Trazado 121659" d="M831.062,3480.222H770.793v-60.449h60.269Zm-59.961-.308h59.652v-59.832H771.1Z" transform="translate(-770.793 -3419.773)" fill="#1b1b43"/>
          </g>
          <g id="Grupo_87205" data-name="Grupo 87205" transform="translate(7.164 44.66)">
            <rect id="Rectángulo_34893" data-name="Rectángulo 34893" width="4.596" height="2.093" fill="#cbcbff"/>
            <rect id="Rectángulo_34894" data-name="Rectángulo 34894" width="20.121" height="0.309" transform="translate(6.086 0.892)" fill="#1b1b43"/>
            <rect id="Rectángulo_34895" data-name="Rectángulo 34895" width="4.596" height="2.093" transform="translate(0 4.076)" fill="#5254cf"/>
            <rect id="Rectángulo_34896" data-name="Rectángulo 34896" width="20.121" height="0.309" transform="translate(6.086 4.968)" fill="#1b1b43"/>
          </g>
          <g id="Grupo_87207" data-name="Grupo 87207" transform="translate(6.349 5.474)">
            <g id="Grupo_87206" data-name="Grupo 87206" transform="translate(2.954 1.129)">
              <rect id="Rectángulo_34897" data-name="Rectángulo 34897" width="2.071" height="6.919" transform="translate(0 18.76)" fill="#fff1ae"/>
              <rect id="Rectángulo_34898" data-name="Rectángulo 34898" width="2.071" height="9.014" transform="translate(4.281 16.665)" fill="#fff1ae"/>
              <rect id="Rectángulo_34899" data-name="Rectángulo 34899" width="2.071" height="12.709" transform="translate(8.561 12.97)" fill="#fff1ae"/>
              <rect id="Rectángulo_34900" data-name="Rectángulo 34900" width="2.071" height="16.08" transform="translate(12.842 9.599)" fill="#fff1ae"/>
              <rect id="Rectángulo_34901" data-name="Rectángulo 34901" width="2.071" height="19.534" transform="translate(17.123 6.145)" fill="#fff1ae"/>
              <rect id="Rectángulo_34902" data-name="Rectángulo 34902" width="2.071" height="21.048" transform="translate(21.404 4.631)" fill="#fff1ae"/>
              <rect id="Rectángulo_34903" data-name="Rectángulo 34903" width="2.071" height="19.413" transform="translate(25.684 6.266)" fill="#fff1ae"/>
              <rect id="Rectángulo_34904" data-name="Rectángulo 34904" width="2.071" height="17.521" transform="translate(29.965 8.158)" fill="#fff1ae"/>
              <rect id="Rectángulo_34905" data-name="Rectángulo 34905" width="2.071" height="21.048" transform="translate(34.246 4.631)" fill="#fff1ae"/>
              <rect id="Rectángulo_34906" data-name="Rectángulo 34906" width="2.071" height="23.036" transform="translate(38.527 2.643)" fill="#fff1ae"/>
              <rect id="Rectángulo_34907" data-name="Rectángulo 34907" width="2.071" height="25.679" transform="translate(42.807)" fill="#fff1ae"/>
            </g>
            <path id="Trazado_121660" data-name="Trazado 121660" d="M831.846,3456.985H782.672v-26.97h.411v26.559h48.762Z" transform="translate(-782.672 -3430.015)" fill="#fff1ae"/>
            <path id="Trazado_121661" data-name="Trazado 121661" d="M790.142,3460.034l-.073-.4,4.228-.76,4.026-3.335.017-.009,4.39-2.42,4.32-3.5,4.551-1,3.92,3.21,4.235,2.49,4.555-5.978,4.345-1.392,4.614-2.18.176.372-4.652,2.2-4.234,1.356-4.7,6.165-4.59-2.7-3.778-3.094-4.261.939-4.273,3.462-.016.009-4.389,2.419-4.079,3.38Z" transform="translate(-786.116 -3436.876)" fill="#fff1ae"/>
          </g>
          <rect id="Rectángulo_34908" data-name="Rectángulo 34908" width="29.878" height="1.508" transform="translate(15.196 35.077)" fill="#fdd8a7"/>
          <g id="Grupo_87208" data-name="Grupo 87208" transform="translate(39.798 40.472)">
            <path id="Trazado_121662" data-name="Trazado 121662" d="M852.57,3502.812l3.925-6.157a7.3,7.3,0,1,0,3.382,6.157c0-.134-.013-.265-.02-.4Z" transform="translate(-845.263 -3495.505)" fill="#cbcbff"/>
            <path id="Trazado_121663" data-name="Trazado 121663" d="M866.223,3503.416a7.293,7.293,0,0,0-3.362-5.76l-3.925,6.157Z" transform="translate(-851.629 -3496.507)" fill="#5254cf"/>
          </g>
        </g>
        <g id="Grupo_87219" data-name="Grupo 87219" transform="translate(669.428 3428.299)">
          <g id="Grupo_87210" data-name="Grupo 87210" transform="translate(25.375 100.536)">
            <path id="Trazado_121664" data-name="Trazado 121664" d="M733.33,3623.849l-.8,8.267h11.993l-5.351-4.96.062-3.241Z" transform="translate(-732.531 -3623.849)" fill="#cbcbff"/>
            <path id="Trazado_121665" data-name="Trazado 121665" d="M742.524,3631.864a.206.206,0,0,1-.081-.394l1.723-.744a.206.206,0,0,1,.163.377l-1.724.744A.2.2,0,0,1,742.524,3631.864Z" transform="translate(-737.088 -3627.043)" fill="#1b1b43"/>
            <path id="Trazado_121666" data-name="Trazado 121666" d="M744.448,3634.044a.206.206,0,0,1-.082-.394l1.723-.744a.206.206,0,1,1,.163.378l-1.723.743A.2.2,0,0,1,744.448,3634.044Z" transform="translate(-737.983 -3628.058)" fill="#1b1b43"/>
            <path id="Trazado_121667" data-name="Trazado 121667" d="M732.982,3632.444a3.76,3.76,0,0,1,2.333,1.1,4.048,4.048,0,0,1,.857,2.3c.027.26.438.263.411,0a4.562,4.562,0,0,0-.944-2.549,4.064,4.064,0,0,0-2.548-1.247c-.259-.039-.37.357-.109.4Z" transform="translate(-732.672 -3627.665)" fill="#1b1b43"/>
          </g>
          <g id="Grupo_87211" data-name="Grupo 87211" transform="translate(0 100.602)">
            <path id="Trazado_121668" data-name="Trazado 121668" d="M697.153,3623.99l-.926,8.185H685.049l4.428-4.464,1.855-3.737Z" transform="translate(-685.049 -3623.973)" fill="#cbcbff"/>
            <path id="Trazado_121669" data-name="Trazado 121669" d="M694.88,3631.735a.2.2,0,0,1-.081-.017l-1.724-.743a.206.206,0,0,1,.163-.378l1.723.744a.205.205,0,0,1-.081.394Z" transform="translate(-688.728 -3627.049)" fill="#1b1b43"/>
            <path id="Trazado_121670" data-name="Trazado 121670" d="M692.956,3633.916a.208.208,0,0,1-.081-.017l-1.723-.743a.206.206,0,0,1,.163-.378l1.723.744a.206.206,0,0,1-.082.395Z" transform="translate(-687.833 -3628.064)" fill="#1b1b43"/>
            <path id="Trazado_121671" data-name="Trazado 121671" d="M703.352,3632.112a4.066,4.066,0,0,0-2.548,1.247,4.561,4.561,0,0,0-.944,2.549c-.027.263.384.261.411,0a4.048,4.048,0,0,1,.857-2.3,3.76,3.76,0,0,1,2.333-1.1c.261-.039.15-.435-.11-.4Z" transform="translate(-691.945 -3627.761)" fill="#1b1b43"/>
          </g>
          <path id="Trazado_121672" data-name="Trazado 121672" d="M702.27,3516.022l-11.378,57.607h10.7l13.285-61.906Z" transform="translate(-687.77 -3471.11)" fill="#955603"/>
          <path id="Trazado_121673" data-name="Trazado 121673" d="M727.979,3515.689l1.845,58.07h9.41l-.369-61.046Z" transform="translate(-705.037 -3471.57)" fill="#955603"/>
          <path id="Trazado_121674" data-name="Trazado 121674" d="M731.394,3493.873l-16.27,2.116.4-28.175,13.228-.4Z" transform="translate(-699.052 -3450.482)" fill="#fff"/>
          <g id="Grupo_87213" data-name="Grupo 87213" transform="translate(15.156 0)">
            <path id="Trazado_121675" data-name="Trazado 121675" d="M725.815,3452.563v7.261c0,2.015-.221,3.526-2.277,3.629a4.311,4.311,0,0,1-3.7-1.857,4,4,0,0,1-.4-1.772v-7.261Z" transform="translate(-716.216 -3443.565)" fill="#d28572"/>
            <path id="Trazado_121676" data-name="Trazado 121676" d="M726.954,3458.076v3.413a9.66,9.66,0,0,1-5.067-3.413Z" transform="translate(-717.356 -3446.132)" fill="#925d4f"/>
            <path id="Trazado_121677" data-name="Trazado 121677" d="M723.924,3450.632a2.382,2.382,0,0,1-.415.09,6.46,6.46,0,0,1-3.882-.735,6.167,6.167,0,0,1-2.035-1.748c-.016-.017-.029-.037-.045-.058a5.859,5.859,0,0,1-.427-.666l-.263-.933-.395-1.386-1.085-3.832,5.329-2.627a44.054,44.054,0,0,1,4.457,1.106,16.233,16.233,0,0,0-.05,2.183c.037,1.028.152,2.023.255,2.957.095.813.181,1.579.21,2.265C725.651,3448.975,725.371,3450.233,723.924,3450.632Z" transform="translate(-714.325 -3437.128)" fill="#d28572"/>
            <path id="Trazado_121678" data-name="Trazado 121678" d="M715.379,3445.4s1.49-.5,1.294-.8a3.161,3.161,0,0,1-.25-3.44c.185-.316,1.174-.572,1.507-.694a6.813,6.813,0,0,1,1.285-.344,4.6,4.6,0,0,1,1.9.091c.864.23,1.7.823,2.621.591a2.192,2.192,0,0,0,1.591-1.431,1.916,1.916,0,0,0-.172-1.249c-1.123-2.38-3.847-2.533-6.038-2.324a4.986,4.986,0,0,0-4.173,2.569,2.96,2.96,0,0,1-.267.509C712.34,3439.17,713.626,3444.428,715.379,3445.4Z" transform="translate(-713.409 -3435.727)" fill="#1b1b43"/>
            <ellipse id="Elipse_4889" data-name="Elipse 4889" cx="1.55" cy="1.644" rx="1.55" ry="1.644" transform="translate(1 8.007)" fill="#d28572"/>
            <path id="Trazado_121679" data-name="Trazado 121679" d="M718.415,3444.924c.055,1.378.148,2.835.076,4.215-.022.421-.154.376-.313.2a1.858,1.858,0,0,1-.374-1.026l-.213-2.2Z" transform="translate(-715.356 -3440.009)" fill="#1b1b43"/>
            <g id="Grupo_87212" data-name="Grupo 87212" transform="translate(4.127 6.171)">
              <path id="Trazado_121680" data-name="Trazado 121680" d="M726.052,3449.564c0,.3-.176.548-.392.548s-.392-.246-.392-.548.175-.548.392-.548S726.052,3449.261,726.052,3449.564Z" transform="translate(-723.057 -3448.085)" fill="#1b1b43"/>
              <path id="Trazado_121681" data-name="Trazado 121681" d="M730.449,3449.37c0,.3-.175.548-.392.548s-.392-.245-.392-.548.176-.549.392-.549S730.449,3449.067,730.449,3449.37Z" transform="translate(-725.104 -3447.995)" fill="#1b1b43"/>
              <path id="Trazado_121682" data-name="Trazado 121682" d="M728.589,3452.925a.1.1,0,0,1-.033-.2l.024-.008a1.052,1.052,0,0,0,.575-.338c.068-.116.01-.273-.182-.495a2.04,2.04,0,0,1-.584-1.236.1.1,0,1,1,.205-.007,1.859,1.859,0,0,0,.534,1.108c.1.119.378.436.2.733a1.215,1.215,0,0,1-.686.428l-.024.008A.109.109,0,0,1,728.589,3452.925Z" transform="translate(-724.51 -3448.796)" fill="#925d4f"/>
              <path id="Trazado_121683" data-name="Trazado 121683" d="M726.4,3455.5l2.125.547S726.72,3457.482,726.4,3455.5Z" transform="translate(-723.583 -3451.104)" fill="#fff"/>
              <path id="Trazado_121684" data-name="Trazado 121684" d="M723.616,3448.2a1.12,1.12,0,0,1,.363-.344,1.279,1.279,0,0,1,.486-.171,1.133,1.133,0,0,1,.951.294l-.073.143c-.154-.018-.293-.036-.429-.043a2.46,2.46,0,0,0-.4.012,2.236,2.236,0,0,0-.391.084c-.133.039-.263.092-.408.147Z" transform="translate(-722.288 -3447.462)" fill="#1b1b43"/>
              <path id="Trazado_121685" data-name="Trazado 121685" d="M730.285,3447.837c-.139-.026-.263-.067-.383-.094a1.839,1.839,0,0,0-.337-.056,1.245,1.245,0,0,0-.319.022c-.11.021-.224.059-.359.1l-.1-.125a.816.816,0,0,1,.335-.311.875.875,0,0,1,.474-.093,1.077,1.077,0,0,1,.444.14,1.178,1.178,0,0,1,.331.283Z" transform="translate(-724.695 -3447.274)" fill="#1b1b43"/>
              <circle id="Elipse_4890" data-name="Elipse 4890" cx="1.194" cy="1.194" r="1.194" transform="translate(0 2.255)" fill="#be443d" opacity="0.2"/>
              <path id="Trazado_121686" data-name="Trazado 121686" d="M733.017,3452.665a1.182,1.182,0,0,1-.465.094,1.2,1.2,0,0,1-1.188-1.044c0-.05-.008-.1-.008-.148v-.025a1.2,1.2,0,0,1,1.2-1.172,1.043,1.043,0,0,1,.255.029C732.9,3451.213,732.988,3451.978,733.017,3452.665Z" transform="translate(-725.892 -3448.716)" fill="#be443d" opacity="0.2"/>
            </g>
          </g>
          <path id="Trazado_121687" data-name="Trazado 121687" d="M710.2,3466.148c6.853,9.21,3.182,32.227,1.595,36.493l-10.219-.793,3.175-16.866-5.159-5.754Z" transform="translate(-691.82 -3449.89)" fill="#ffb147"/>
          <path id="Trazado_121688" data-name="Trazado 121688" d="M720,3495.869c.56-1.725-.684-3.7-2.819-5.8l-1.327,2.857Z" transform="translate(-699.393 -3461.026)" fill="#1b1b43"/>
          <path id="Trazado_121689" data-name="Trazado 121689" d="M718.269,3510.534a.106.106,0,0,1-.03,0,.1.1,0,0,1-.069-.128c1.923-6.421,2.258-15.341,2.343-21.493a.1.1,0,0,1,.1-.1h0a.1.1,0,0,1,.1.1c-.177,12.87-1.426,18.463-2.351,21.549A.1.1,0,0,1,718.269,3510.534Z" transform="translate(-700.468 -3460.44)" fill="#1b1b43"/>
          <g id="Grupo_87215" data-name="Grupo 87215" transform="translate(17.413 23.676)">
            <path id="Trazado_121690" data-name="Trazado 121690" d="M724.154,3485.331a3.131,3.131,0,0,0-.571-2.109c-.272-.316-1.254,0-1.791.257-.026.012.651-3.085.368-3.312a.547.547,0,0,0-.87.228,17.7,17.7,0,0,0-.664,1.741,5.009,5.009,0,0,1-1.4,2.186c-.553.478-1.186.767-1.458,1.5a3.535,3.535,0,0,0-.073,1.668,6.432,6.432,0,0,0,.44,1.818,1.2,1.2,0,0,0,.566.684,1.532,1.532,0,0,0,1.077-.177q1.1-.425,2.218-.779a3.547,3.547,0,0,0,1.659-1,2.621,2.621,0,0,0,.457-1.733C724.13,3485.991,724.151,3485.664,724.154,3485.331Zm-5.6,2.824.009,0C718.524,3488.2,718.52,3488.207,718.557,3488.154Z" transform="translate(-717.632 -3480.03)" fill="#d28572"/>
            <g id="Grupo_87214" data-name="Grupo 87214" transform="translate(4.586 4.125)">
              <path id="Trazado_121691" data-name="Trazado 121691" d="M726.367,3488.435a.155.155,0,0,1-.037-.3l1.542-.377a.154.154,0,0,1,.073.3l-1.542.377A.136.136,0,0,1,726.367,3488.435Z" transform="translate(-726.213 -3487.749)" fill="#925d4f"/>
              <path id="Trazado_121692" data-name="Trazado 121692" d="M726.559,3490.743a.154.154,0,0,1-.036-.3l1.542-.377a.154.154,0,1,1,.073.3l-1.542.377A.145.145,0,0,1,726.559,3490.743Z" transform="translate(-726.302 -3488.824)" fill="#925d4f"/>
              <path id="Trazado_121693" data-name="Trazado 121693" d="M726.495,3493.179a.154.154,0,0,1-.036-.3L728,3492.5a.154.154,0,0,1,.073.3l-1.542.377A.16.16,0,0,1,726.495,3493.179Z" transform="translate(-726.272 -3489.958)" fill="#925d4f"/>
            </g>
          </g>
          <path id="Trazado_121694" data-name="Trazado 121694" d="M708.218,3484.57a35.2,35.2,0,0,1-5.768,4.547c-1.982,1.254-4.272,2.541-6.673,2.66-3.708.185-5.3-3.75-5.152-6.9.165-3.581,2.056-6.861,3.767-9.917a16.307,16.307,0,0,1,7.4-7.232c.025-.008.049-.021.074-.029l4.149-1.8v.132a4.006,4.006,0,0,0,.4,1.772l-6.546,13.852,5.555-2.841A17.347,17.347,0,0,0,708.218,3484.57Z" transform="translate(-687.641 -3449.776)" fill="#ffb147"/>
          <path id="Trazado_121695" data-name="Trazado 121695" d="M700.926,3494.433a.1.1,0,0,1-.091-.056.1.1,0,0,1,.044-.138l9.173-4.707a.1.1,0,0,1,.094.183l-9.173,4.707A.1.1,0,0,1,700.926,3494.433Z" transform="translate(-692.394 -3460.772)" fill="#1b1b43"/>
          <path id="Trazado_121696" data-name="Trazado 121696" d="M706.985,3507.062a.1.1,0,0,1-.059-.187l8.807-6.217a.1.1,0,1,1,.119.168l-8.807,6.217A.1.1,0,0,1,706.985,3507.062Z" transform="translate(-695.214 -3465.949)" fill="#1b1b43"/>
          <path id="Trazado_121697" data-name="Trazado 121697" d="M705.639,3490.519a.1.1,0,0,1-.04-.008.1.1,0,0,1-.055-.135l2.621-6.219a.1.1,0,0,1,.19.08l-2.621,6.219A.1.1,0,0,1,705.639,3490.519Z" transform="translate(-694.588 -3458.246)" fill="#1b1b43"/>
          <path id="Trazado_121698" data-name="Trazado 121698" d="M717.967,3478.758a.1.1,0,0,1-.085-.045l-3.454-5.113,1.591-4.981a.1.1,0,1,1,.2.063l-1.561,4.886,3.4,5.03a.1.1,0,0,1-.028.143A.107.107,0,0,1,717.967,3478.758Z" transform="translate(-698.728 -3451.008)" fill="#1b1b43"/>
          <g id="Grupo_87218" data-name="Grupo 87218" transform="translate(24.671 3.943)">
            <g id="Grupo_87217" data-name="Grupo 87217" transform="translate(31.156 0)">
              <path id="Trazado_121699" data-name="Trazado 121699" d="M796.04,3466.569c-.111,1.1-1.125.9-1.607,1.791-.582,1.081-2.171,2.224-3.428,1.448a3.463,3.463,0,0,1-1.416-1.832c-.366-1.073.68-2.585,1.24-3.4a3.6,3.6,0,0,1,2.78-1.038,2.15,2.15,0,0,1,1.634,1.051A3.529,3.529,0,0,1,796.04,3466.569Z" transform="translate(-789.513 -3452.621)" fill="#d28572"/>
              <path id="Trazado_121700" data-name="Trazado 121700" d="M800.4,3468.683c.18.425-.305.784-.972,1.066s-1.261.379-1.441-.047c-.193-.458.305-.784.971-1.066S800.16,3468.125,800.4,3468.683Z" transform="translate(-793.436 -3454.855)" fill="#d28572"/>
              <ellipse id="Elipse_4891" data-name="Elipse 4891" cx="1.608" cy="0.592" rx="1.608" ry="0.592" transform="matrix(0.921, -0.389, 0.389, 0.921, 3.735, 13.529)" fill="#d28572"/>
              <rect id="Rectángulo_34909" data-name="Rectángulo 34909" width="0.822" height="14.635" transform="matrix(0.852, 0.523, -0.523, 0.852, 11.162, 0)" fill="#1b1b43"/>
              <path id="Trazado_121701" data-name="Trazado 121701" d="M791.982,3464.031c.51.094,1-.491,1.511-.385a3.239,3.239,0,0,0,2.063-.219c.437-.168,1.054-.629,1.068-1.153a.435.435,0,0,0-.173-.4c-.189-.1-.408.049-.586.169-1.152.778-2.72.052-3.946,1.967Z" transform="translate(-790.634 -3451.826)" fill="#d28572"/>
              <path id="Trazado_121702" data-name="Trazado 121702" d="M799.166,3465.1c.261.369-.1.805-.888,1.363s-1.229.705-1.361.273c-.084-.275-.1-.682.678-1.239S798.824,3464.614,799.166,3465.1Z" transform="translate(-792.942 -3453.235)" fill="#d28572"/>
              <g id="Grupo_87216" data-name="Grupo 87216" transform="translate(2.392 12.358)">
                <path id="Trazado_121703" data-name="Trazado 121703" d="M794.091,3468.351a.1.1,0,0,1-.064-.183,1.676,1.676,0,0,0,.657-1.812.1.1,0,0,1,.2-.045,1.864,1.864,0,0,1-.73,2.017A.1.1,0,0,1,794.091,3468.351Z" transform="translate(-793.988 -3466.231)" fill="#925d4f"/>
                <path id="Trazado_121704" data-name="Trazado 121704" d="M797.26,3467.658a.472.472,0,0,1-.385-.181.381.381,0,0,1-.065-.284.325.325,0,0,1,.133-.216.1.1,0,0,1,.117.17.125.125,0,0,0-.047.08.176.176,0,0,0,.028.129.284.284,0,0,0,.261.095,3.2,3.2,0,0,0,.71-.224.1.1,0,0,1,.143.026.1.1,0,0,1-.026.143,3.207,3.207,0,0,1-.8.259A.471.471,0,0,1,797.26,3467.658Z" transform="translate(-795.299 -3466.57)" fill="#925d4f"/>
                <path id="Trazado_121705" data-name="Trazado 121705" d="M798.234,3468.692a.39.39,0,0,1-.3-.116.339.339,0,0,1-.063-.312,2.98,2.98,0,0,1,.351-.623.1.1,0,0,1,.144.013.1.1,0,0,1-.011.144,3.639,3.639,0,0,0-.286.522.137.137,0,0,0,.02.121c.036.041.113.054.228.04a3.881,3.881,0,0,0,.844-.238.1.1,0,0,1,.071.194,4.077,4.077,0,0,1-.89.248A.927.927,0,0,1,798.234,3468.692Z" transform="translate(-795.789 -3466.876)" fill="#925d4f"/>
                <path id="Trazado_121706" data-name="Trazado 121706" d="M799.019,3470.292a1.416,1.416,0,0,1-.274-.027.307.307,0,0,1-.243-.18c-.119-.308.312-.782.5-.91a.1.1,0,1,1,.118.169c-.172.119-.481.512-.421.667a.122.122,0,0,0,.09.052,1.129,1.129,0,0,0,.593-.037.1.1,0,0,1,.069.194A1.279,1.279,0,0,1,799.019,3470.292Z" transform="translate(-796.081 -3467.593)" fill="#925d4f"/>
              </g>
            </g>
            <path id="Trazado_121707" data-name="Trazado 121707" d="M740.108,3475.979l4.927,2.91c4.792,2.8,9.524,2.447,13.889-1.654l6.779-6.416-4.167-4.464c-2.945,2.805-8.631,8.367-13.389,5.125l-5.226-3.827a18.17,18.17,0,0,0-6.8-2.78l-4.831-.8c-.577,7.565,2.03,25.232,5.144,35.42l8.83-3.373C743.878,3491.555,741.464,3481.5,740.108,3475.979Z" transform="translate(-731.213 -3452.867)" fill="#ffb147"/>
            <path id="Trazado_121708" data-name="Trazado 121708" d="M748.278,3488.186a.1.1,0,0,1-.1-.081l-2.056-9.559a.1.1,0,1,1,.2-.043l2.056,9.559a.1.1,0,0,1-.079.123Z" transform="translate(-738.153 -3459.548)" fill="#1b1b43"/>
            <path id="Trazado_121709" data-name="Trazado 121709" d="M738.619,3497.416a.1.1,0,0,1-.1-.084l-3.955-21.429,1.5-4.162-3.267-5.99a.1.1,0,0,1,.181-.1l3.311,6.071-1.513,4.2,3.945,21.374a.1.1,0,0,1-.082.12Z" transform="translate(-731.944 -3453.578)" fill="#1b1b43"/>
            <path id="Trazado_121710" data-name="Trazado 121710" d="M789.432,3474.529a.1.1,0,0,1-.074-.032l-2.947-3.083a.1.1,0,1,1,.149-.142l2.947,3.084a.1.1,0,0,1,0,.145A.1.1,0,0,1,789.432,3474.529Z" transform="translate(-756.899 -3456.205)" fill="#1b1b43"/>
          </g>
          <path id="Trazado_121711" data-name="Trazado 121711" d="M717.888,3496.766a.1.1,0,0,1-.064-.022,6.355,6.355,0,0,1-2.093-3.967.1.1,0,0,1,.2-.04,6.159,6.159,0,0,0,2.018,3.845.1.1,0,0,1-.064.184Z" transform="translate(-699.333 -3462.231)" fill="#1b1b43"/>
          <path id="Trazado_121712" data-name="Trazado 121712" d="M728.335,3540.559h-.019a.1.1,0,0,1-.082-.12l1.131-5.962a.1.1,0,0,1,.2.038l-1.131,5.962A.1.1,0,0,1,728.335,3540.559Z" transform="translate(-705.154 -3481.664)" fill="#1b1b43"/>
        </g>
        <g id="Grupo_87221" data-name="Grupo 87221" transform="translate(785.505 3437.129)">
          <path id="Trazado_121713" data-name="Trazado 121713" d="M916.6,3459.422a7.173,7.173,0,1,0-8.974,6.936l-.767,2.742,2.572-2.5A7.173,7.173,0,0,0,916.6,3459.422Z" transform="translate(-902.253 -3452.249)" fill="#cbcbff"/>
          <g id="Grupo_87220" data-name="Grupo 87220" transform="translate(3.653 6.277)">
            <circle id="Elipse_4892" data-name="Elipse 4892" cx="0.745" cy="0.745" r="0.745" fill="#fff"/>
            <circle id="Elipse_4893" data-name="Elipse 4893" cx="0.745" cy="0.745" r="0.745" transform="translate(2.775)" fill="#fff"/>
            <circle id="Elipse_4894" data-name="Elipse 4894" cx="0.745" cy="0.745" r="0.745" transform="translate(5.551)" fill="#fff"/>
          </g>
        </g>
        <path id="Trazado_121714" data-name="Trazado 121714" d="M803.223,3639.279H652.6a.143.143,0,0,1,0-.286H803.223a.143.143,0,0,1,0,.286Z" transform="translate(11.305 -102.054)" fill="#1b1b43"/>
        <g id="Grupo_87223" data-name="Grupo 87223" transform="translate(782.087 3502.369)">
          <path id="Trazado_121715" data-name="Trazado 121715" d="M912.825,3610.8a.2.2,0,0,1-.205-.205v-32.713a.205.205,0,1,1,.411,0V3610.6A.205.205,0,0,1,912.825,3610.8Z" transform="translate(-903.661 -3575.887)" fill="#1b1b43"/>
          <g id="Grupo_87222" data-name="Grupo 87222" transform="translate(2.204 31.637)">
            <path id="Rectángulo_34910" data-name="Rectángulo 34910" d="M2.919,0h7.773a2.919,2.919,0,0,1,2.919,2.919v0a0,0,0,0,1,0,0H0a0,0,0,0,1,0,0v0A2.919,2.919,0,0,1,2.919,0Z" transform="translate(0.154 0.154)" fill="#fff"/>
            <path id="Trazado_121716" data-name="Trazado 121716" d="M913.9,3636.753H899.98v-.221a3.01,3.01,0,0,1,3.007-3.006h7.908a3.01,3.01,0,0,1,3.007,3.006Zm-13.611-.308h13.3a2.7,2.7,0,0,0-2.7-2.611h-7.908A2.7,2.7,0,0,0,900.29,3636.445Z" transform="translate(-899.98 -3633.525)" fill="#1b1b43"/>
          </g>
          <path id="Rectángulo_34911" data-name="Rectángulo 34911" d="M0,0H14.946a3.382,3.382,0,0,1,3.382,3.382v0a0,0,0,0,1,0,0H0a0,0,0,0,1,0,0V0A0,0,0,0,1,0,0Z" transform="translate(0)" fill="#cbcbff"/>
        </g>
        <g id="Grupo_87238" data-name="Grupo 87238" transform="translate(754.636 3448.288)">
          <g id="Grupo_87227" data-name="Grupo 87227" transform="translate(0 45.76)">
            <g id="Grupo_87226" data-name="Grupo 87226" transform="translate(0 35.198)">
              <path id="Trazado_121717" data-name="Trazado 121717" d="M854.5,3624.618l.715,7.834H844.491l4.787-4.7-.055-3.071Z" transform="translate(-844.491 -3624.618)" fill="#cbcbff"/>
              <g id="Grupo_87224" data-name="Grupo 87224" transform="translate(3.7 3.691)">
                <line id="Línea_170" data-name="Línea 170" x2="1.593" y2="0.771" transform="translate(0.206 0.205)" fill="#fff"/>
                <path id="Trazado_121718" data-name="Trazado 121718" d="M853.214,3632.706a.2.2,0,0,1-.089-.021l-1.593-.771a.205.205,0,1,1,.179-.37l1.593.771a.205.205,0,0,1-.09.39Z" transform="translate(-851.415 -3631.524)" fill="#1b1b43"/>
              </g>
              <g id="Grupo_87225" data-name="Grupo 87225" transform="translate(2.673 4.821)">
                <line id="Línea_171" data-name="Línea 171" x2="1.593" y2="0.771" transform="translate(0.206 0.206)" fill="#fff"/>
                <path id="Trazado_121719" data-name="Trazado 121719" d="M851.291,3634.821a.212.212,0,0,1-.09-.021l-1.593-.771a.205.205,0,1,1,.18-.37l1.593.771a.206.206,0,0,1-.09.391Z" transform="translate(-849.492 -3633.639)" fill="#1b1b43"/>
              </g>
              <path id="Trazado_121720" data-name="Trazado 121720" d="M858.244,3636.666a.205.205,0,0,1-.2-.185,2.59,2.59,0,0,1,.982-2.381,2.544,2.544,0,0,1,2.31-.473.206.206,0,0,1-.139.387,2.152,2.152,0,0,0-1.919.411,2.19,2.19,0,0,0-.825,2.016.206.206,0,0,1-.185.225Z" transform="translate(-850.792 -3628.761)" fill="#1b1b43"/>
            </g>
            <path id="Trazado_121721" data-name="Trazado 121721" d="M872.086,3558.755l-13.15,3.119a11.043,11.043,0,0,0-7.974,10.413l-.3,23.218,8.253.114,4.18-24.069Z" transform="translate(-847.365 -3558.755)" fill="#be443d"/>
          </g>
          <g id="Grupo_87231" data-name="Grupo 87231" transform="translate(10.189 45.691)">
            <g id="Grupo_87230" data-name="Grupo 87230" transform="translate(14.445 33.56)">
              <path id="Trazado_121722" data-name="Trazado 121722" d="M894.807,3621.425l5.934,7.182-8.648,6.583,1.229-6.7-2.737-3.771Z" transform="translate(-890.585 -3621.425)" fill="#cbcbff"/>
              <g id="Grupo_87228" data-name="Grupo 87228" transform="translate(2.459 7.157)">
                <line id="Línea_172" data-name="Línea 172" y1="0.351" x2="1.735" transform="translate(0.206 0.206)" fill="#fff"/>
                <path id="Trazado_121723" data-name="Trazado 121723" d="M895.392,3635.581a.206.206,0,0,1-.041-.407l1.735-.351a.206.206,0,0,1,.082.4l-1.735.352A.2.2,0,0,1,895.392,3635.581Z" transform="translate(-895.186 -3634.818)" fill="#1b1b43"/>
              </g>
              <g id="Grupo_87229" data-name="Grupo 87229" transform="translate(2.325 8.68)">
                <line id="Línea_173" data-name="Línea 173" y1="0.351" x2="1.735" transform="translate(0.206 0.206)" fill="#fff"/>
                <path id="Trazado_121724" data-name="Trazado 121724" d="M895.142,3638.429a.205.205,0,0,1-.041-.407l1.735-.352a.206.206,0,1,1,.082.4l-1.735.351A.217.217,0,0,1,895.142,3638.429Z" transform="translate(-894.936 -3637.666)" fill="#1b1b43"/>
              </g>
              <path id="Trazado_121725" data-name="Trazado 121725" d="M905.127,3634.323a.206.206,0,0,1-.114-.035,2.637,2.637,0,0,1-.913-2.391,1.73,1.73,0,0,1,.957-1.531.205.205,0,1,1,.153.381,1.36,1.36,0,0,0-.7,1.192,2.241,2.241,0,0,0,.732,2.006.206.206,0,0,1-.114.377Z" transform="translate(-896.87 -3625.581)" fill="#1b1b43"/>
            </g>
            <path id="Trazado_121726" data-name="Trazado 121726" d="M894.015,3560.854l-1.035,4.221a4.649,4.649,0,0,1-.377,1.039,5.993,5.993,0,0,1-4.577,3.365l-13.5,3.743,11.41,20.147-7.2,4.934-13.4-19.016a10.144,10.144,0,0,1,2.066-13.728,13.948,13.948,0,0,1,2.681-1.747l9.439-5.186Z" transform="translate(-863.556 -3558.627)" fill="#fe5b52"/>
          </g>
          <g id="Grupo_87236" data-name="Grupo 87236" transform="translate(4.91 0)">
            <path id="Trazado_121727" data-name="Trazado 121727" d="M872.676,3545.7l-.286,8.384c8.063-1.381,17.181-2.013,25.725-.225,1.715-3.743,1.143-6.775-.358-10.255Z" transform="translate(-862.391 -3505.942)" fill="#ffd817"/>
            <path id="Trazado_121728" data-name="Trazado 121728" d="M861.982,3529.376s-7.015.613-8.161-4.364c-.852-3.7,2.3-9.49,5.114-13.721a20.323,20.323,0,0,1,8.739-7.445l3.953-1.725,5.641,2.033,8.995,5.47,2.26,19.37S861.846,3529.376,861.982,3529.376Z" transform="translate(-853.679 -3486.627)" fill="#ffd817"/>
            <g id="Grupo_87233" data-name="Grupo 87233" transform="translate(19.22 35.754)">
              <path id="Trazado_121729" data-name="Trazado 121729" d="M898.68,3540.033l-1.3.208a38.5,38.5,0,0,0-4.111.9c-2.544.749-3.623,3.752-3.623,3.752l2.339.141,4.06-1.747,3.246.151Z" transform="translate(-889.643 -3540.033)" fill="#ffbc96"/>
              <g id="Grupo_87232" data-name="Grupo 87232" transform="translate(0.874 2.999)">
                <path id="Trazado_121730" data-name="Trazado 121730" d="M893.015,3547.692a.1.1,0,0,1-.057-.188l2.03-1.362a.1.1,0,0,1,.114.171l-2.03,1.361A.1.1,0,0,1,893.015,3547.692Z" transform="translate(-892.039 -3545.867)" fill="#d28572"/>
                <path id="Trazado_121731" data-name="Trazado 121731" d="M891.38,3547.417a.1.1,0,0,1-.073-.03.1.1,0,0,1,0-.146l1.568-1.567a.1.1,0,0,1,.145.146l-1.568,1.567A.1.1,0,0,1,891.38,3547.417Z" transform="translate(-891.278 -3545.644)" fill="#d28572"/>
              </g>
            </g>
            <path id="Trazado_121732" data-name="Trazado 121732" d="M892.848,3501.722l6.331,1.629a12.976,12.976,0,0,1,4.951,2.672c2.934,2.882,8.292,10.417,8.634,15.351.179,2.576-1.487,4.691-4.7,5.155l-7.068,1.019-2.144-5.166,6.5-1.646-5.931-9.507Z" transform="translate(-871.915 -3486.442)" fill="#ffd817"/>
            <path id="Trazado_121733" data-name="Trazado 121733" d="M906.053,3535.35l-2.2-5.328,6.462-1.662-6.254-9.967a.1.1,0,0,1,.174-.11l6.4,10.206-6.5,1.673,2.048,4.961,6.989-1.008a.1.1,0,1,1,.029.2Z" transform="translate(-877.039 -3494.13)" fill="#1b1b43"/>
            <path id="Trazado_121734" data-name="Trazado 121734" d="M886.114,3510.979a5.493,5.493,0,0,1-3.731-1.544.1.1,0,1,1,.141-.15,5.206,5.206,0,0,0,4.054,1.465,5.32,5.32,0,0,0,3.81-2.409.1.1,0,0,1,.168.119,5.519,5.519,0,0,1-3.957,2.495A4.643,4.643,0,0,1,886.114,3510.979Z" transform="translate(-867.028 -3489.503)" fill="#1b1b43"/>
            <path id="Trazado_121735" data-name="Trazado 121735" d="M871.3,3525.081a.1.1,0,0,1-.044-.01.1.1,0,0,1-.049-.137l2.6-5.551a.1.1,0,0,1,.186.087l-2.6,5.551A.1.1,0,0,1,871.3,3525.081Z" transform="translate(-861.834 -3494.637)" fill="#1b1b43"/>
            <g id="Grupo_87235" data-name="Grupo 87235" transform="translate(11.352)">
              <path id="Trazado_121736" data-name="Trazado 121736" d="M875.887,3477.379a2.565,2.565,0,0,1,1.008-3.678,1.317,1.317,0,0,1,1.581.145,2.647,2.647,0,0,1,3.284-.269c.3.209,1.1-.25,1.4-.323a1.734,1.734,0,0,1,1.651.364,1.281,1.281,0,0,1,.33,1.466c.283-.555,2.3.175,2.613.419,1.566,1.224,1.478,3.9.168,5.284-.257.271-.652.462-.753.822-.128.451-.224.236-.068.678a2.233,2.233,0,0,1-2.243,2.94Z" transform="translate(-875.183 -3473.129)" fill="#1b1b43"/>
              <path id="Trazado_121737" data-name="Trazado 121737" d="M886.714,3502.824a3.119,3.119,0,0,1-3.7-2.564l-.1-.555-.689-3.7-.053-.29,6.206-1.34.846,4.543A3.353,3.353,0,0,1,886.714,3502.824Z" transform="translate(-878.295 -3483.02)" fill="#ffbc96"/>
              <path id="Trazado_121738" data-name="Trazado 121738" d="M887.344,3497.491a7.128,7.128,0,0,1-4.386,3.635l-.689-3.7Z" transform="translate(-878.342 -3484.44)" fill="#d28572"/>
              <path id="Trazado_121739" data-name="Trazado 121739" d="M884.06,3489.668c-2.574,1.168-4.959.646-5.612-2.886a12.11,12.11,0,0,1-.177-2.314c0-.247.012-.506.025-.773.128-2.41-.555-3.473.091-4.287,1.143-1.447,2.927-.837,4.453-.837,2.438,0,4.066,1.23,4.222,4.461C887.189,3485.627,886.741,3488.455,884.06,3489.668Z" transform="translate(-876.403 -3475.604)" fill="#ffbc96"/>
              <path id="Trazado_121740" data-name="Trazado 121740" d="M876.013,3477.57c-1.869.465-1.117,3.353.583,3.495.751.063,2.193-.725,2.209-1.663a1.706,1.706,0,0,0,1.263,1.667,1.611,1.611,0,0,0,1.776-1.014,1.338,1.338,0,0,0,.818.887,1.236,1.236,0,0,0,1.155-.2,2.05,2.05,0,0,0,.765,2.086,5.255,5.255,0,0,0,2.08.871l-1.02-5.64s-5.4-1.47-5.551-1.47S876.015,3477.57,876.013,3477.57Z" transform="translate(-874.921 -3474.742)" fill="#1b1b43"/>
              <ellipse id="Elipse_4895" data-name="Elipse 4895" cx="1.48" cy="1.551" rx="1.48" ry="1.551" transform="translate(9.334 7.603)" fill="#ffbc96"/>
              <g id="Grupo_87234" data-name="Grupo 87234" transform="translate(1.867 6.681)">
                <path id="Trazado_121741" data-name="Trazado 121741" d="M885.51,3488.069c0,.3.172.535.383.535s.383-.239.383-.535-.172-.535-.383-.535S885.51,3487.774,885.51,3488.069Z" transform="translate(-881.718 -3486.518)" fill="#1b1b43"/>
                <path id="Trazado_121742" data-name="Trazado 121742" d="M881.223,3487.88c0,.3.171.535.382.535s.383-.239.383-.535-.172-.535-.383-.535S881.223,3487.584,881.223,3487.88Z" transform="translate(-879.722 -3486.429)" fill="#1b1b43"/>
                <path id="Trazado_121743" data-name="Trazado 121743" d="M882.851,3491.346a.116.116,0,0,1-.033-.006l-.023-.008a1.184,1.184,0,0,1-.67-.418c-.17-.292.1-.6.2-.719a1.808,1.808,0,0,0,.52-1.078.105.105,0,0,1,.106-.1.1.1,0,0,1,.1.107,1.994,1.994,0,0,1-.57,1.206c-.186.215-.243.367-.177.479a1.032,1.032,0,0,0,.56.328l.023.008a.1.1,0,0,1-.034.2Z" transform="translate(-880.116 -3487.208)" fill="#d28572"/>
                <path id="Trazado_121744" data-name="Trazado 121744" d="M884.036,3493.858l-2.072.534S883.147,3496.041,884.036,3493.858Z" transform="translate(-880.067 -3489.461)" fill="#fff"/>
                <path id="Trazado_121745" data-name="Trazado 121745" d="M886.657,3486.633a1.329,1.329,0,0,0-.352-.362,1.122,1.122,0,0,0-.431-.175,1.019,1.019,0,0,0-.452.022.879.879,0,0,0-.4.257l-.141-.068a.763.763,0,0,1,.4-.513,1.024,1.024,0,0,1,.664-.092,1.109,1.109,0,0,1,.584.308.962.962,0,0,1,.276.572Z" transform="translate(-881.424 -3485.656)" fill="#1b1b43"/>
                <path id="Trazado_121746" data-name="Trazado 121746" d="M880.352,3486.292a.682.682,0,0,1,.263-.465.9.9,0,0,1,.514-.194.858.858,0,0,1,.531.145.832.832,0,0,1,.319.407l-.126.094a1.99,1.99,0,0,0-.36-.189.907.907,0,0,0-.346-.057.889.889,0,0,0-.343.083.847.847,0,0,0-.3.228Z" transform="translate(-879.317 -3485.631)" fill="#1b1b43"/>
                <circle id="Elipse_4896" data-name="Elipse 4896" cx="1.165" cy="1.165" r="1.165" transform="translate(4.314 2.32) rotate(-9.182)" fill="#ff9289" opacity="0.5"/>
                <path id="Trazado_121747" data-name="Trazado 121747" d="M879.752,3490.826a1.159,1.159,0,0,1-1.16,1.192,12.1,12.1,0,0,1-.177-2.314,1.164,1.164,0,0,1,1.32.954l0,.024C879.748,3490.731,879.748,3490.777,879.752,3490.826Z" transform="translate(-878.415 -3487.521)" fill="#ff9289" opacity="0.5"/>
              </g>
              <path id="Trazado_121748" data-name="Trazado 121748" d="M894.211,3490.141a.1.1,0,0,1-.1-.094,1.437,1.437,0,0,1,.8-1.566.1.1,0,1,1,.088.186,1.235,1.235,0,0,0-.687,1.363.1.1,0,0,1-.094.11Z" transform="translate(-883.85 -3480.272)" fill="#d28572"/>
            </g>
          </g>
          <g id="Grupo_87237" data-name="Grupo 87237" transform="translate(3.165 27.136)">
            <rect id="Rectángulo_34912" data-name="Rectángulo 34912" width="9.932" height="2.321" transform="translate(19.034 13.4)" fill="#1b1b43"/>
            <path id="Trazado_121749" data-name="Trazado 121749" d="M872.673,3539.626H856.255l-5.842-15.72h16.418Z" transform="translate(-850.413 -3523.906)" fill="#f88f05"/>
          </g>
        </g>
        <g id="Grupo_87240" data-name="Grupo 87240" transform="translate(725.393 3490.705)">
          <rect id="Rectángulo_34913" data-name="Rectángulo 34913" width="1.398" height="46.05" transform="translate(19.974 0.309)" fill="#1b1b43"/>
          <rect id="Rectángulo_34914" data-name="Rectángulo 34914" width="1.398" height="46.05" transform="translate(75.892 0.309)" fill="#1b1b43"/>
          <g id="Grupo_87239" data-name="Grupo 87239" transform="translate(0 0)">
            <rect id="Rectángulo_34915" data-name="Rectángulo 34915" width="101.214" height="2.572" transform="translate(0.154 0.154)" fill="#fff"/>
            <path id="Trazado_121750" data-name="Trazado 121750" d="M891.294,3555.381H789.772V3552.5H891.294Zm-101.214-.308H890.986v-2.264H790.08Z" transform="translate(-789.772 -3552.5)" fill="#1b1b43"/>
          </g>
        </g>
      </g>
    </g>
  </g>
</svg>
