<svg xmlns="http://www.w3.org/2000/svg" xmlns:xlink="http://www.w3.org/1999/xlink" width="499.174" height="344.98" viewBox="0 0 499.174 344.98">
  <defs>
    <clipPath id="clip-path">
      <path id="Trazado_245645" data-name="Trazado 245645" d="M1093.5,4018.169H595.015v-344.98h499.174Z" transform="translate(-595.015 -3673.189)" fill="none"/>
    </clipPath>
  </defs>
  <g id="Grupo_947437" data-name="Grupo 947437" transform="translate(-595.015 -3673.189)">
    <g id="Grupo_947436" data-name="Grupo 947436" transform="translate(595.015 3673.189)" clip-path="url(#clip-path)">
      <g id="Grupo_947347" data-name="Grupo 947347" transform="translate(10.24 135.023)">
        <g id="Grupo_947346" data-name="Grupo 947346">
          <path id="Trazado_245440" data-name="Trazado 245440" d="M681,4018.1a6.823,6.823,0,0,0-.662-2.22c-.731-1.631-6.745-12.272-7.588-13.139-.06-.062-.126-.119-.189-.179l.021-.077-14.461-13.575c-2.918-8.417-14.828-41.96-25-58.779,9.561-21.4,35.064-80.809,28.844-92.434-1.5-6.727-6.3-12.1-12.825-13.388-9.186-1.809-18.292,5.146-20.339,15.536a21.446,21.446,0,0,0-.364,5.389c-3.933,10.257-8.7,26.347-13.005,50.95l-7.384,28.527a12,12,0,0,0-1.42,5.485l-.176.682.185.056a13.21,13.21,0,0,0,3.663,8.6l34.439,57.208a7.861,7.861,0,0,0,1.559,2.686c1.085,8.618,6.453,20.633,9.21,26.367a67.643,67.643,0,0,0,1.08,9.57,2.118,2.118,0,0,0,.094.19,43.408,43.408,0,0,0,.807,4.679c.005.011.012.02.017.031l-.013.006c.307,5.413,2.526,5.157,3.63,4.681,1.832,4.276,4.9,1.289,4.9,1.289l-.34-.9c2.366,5.274,4.539,4.965,5.76,4.114a1.724,1.724,0,0,0,.538-2.127l-4.847-10.654a2.946,2.946,0,0,0-.235-.247l-.108-.441c.031.032.061.057.091.086a54.246,54.246,0,0,0,2.986,5.1c.011.011.022.018.033.03l-.013.013c2.764,6.269,5.274,4.868,6.326,3.823a1.147,1.147,0,0,0,.223-1.289l-5.036-11.068a2.968,2.968,0,0,0-.233-.242l-3.254-13.209,1.637-5.881c1.254,1.513,2.591,3.075,2.833,3.46q1.093,1.727,2.32,3.365a5.563,5.563,0,0,0,1.226,1.3,3.212,3.212,0,0,0,3.566-.068A3.728,3.728,0,0,0,681,4018.1Zm-15.371,27.084.009.007,0,0Z" transform="translate(-606.454 -3824.021)" fill="#f9815d"/>
          <path id="Trazado_245441" data-name="Trazado 245441" d="M667.416,4045.694c1.121,4.682,3.419,8.983,5.694,13.226l2.557,4.768a27.4,27.4,0,0,0,2.207,3.45,4.01,4.01,0,0,0,2.84,2,2.537,2.537,0,0,0,2.514-1.726" transform="translate(-612.843 -3847.254)" fill="none" stroke="#9b5548" stroke-linecap="round" stroke-linejoin="round" stroke-width="1.115"/>
          <path id="Trazado_245442" data-name="Trazado 245442" d="M663.353,4049.646c2.5,8.25,5.689,16.446,10.995,23.238" transform="translate(-612.418 -3847.668)" fill="none" stroke="#9b5548" stroke-linecap="round" stroke-linejoin="round" stroke-width="1.115"/>
          <path id="Trazado_245443" data-name="Trazado 245443" d="M661.242,4048.946c.033,2.8,4.651,17.219,5.734,19.8.457,1.088.869,2.154,2.171,2.285a2.9,2.9,0,0,0,2.165-.578,1.653,1.653,0,0,0,.567-.908" transform="translate(-612.196 -3847.595)" fill="none" stroke="#9b5548" stroke-linecap="round" stroke-linejoin="round" stroke-width="1.115"/>
          <path id="Trazado_245444" data-name="Trazado 245444" d="M674.014,4039.556a15.612,15.612,0,0,1,1.526,4.23" transform="translate(-613.535 -3846.61)" fill="none" stroke="#9b5548" stroke-linecap="round" stroke-linejoin="round" stroke-width="1.115"/>
          <path id="Trazado_245445" data-name="Trazado 245445" d="M672.927,4030.8a61.859,61.859,0,0,0,4.485,4.849" transform="translate(-613.421 -3845.692)" fill="none" stroke="#9b5548" stroke-linecap="round" stroke-linejoin="round" stroke-width="1.115"/>
          <path id="Trazado_245446" data-name="Trazado 245446" d="M664.73,4012.253a2.072,2.072,0,0,1,1.227-.266,5.375,5.375,0,0,1,4.112,2.194" transform="translate(-612.562 -3843.72)" fill="none" stroke="#9b5548" stroke-linecap="round" stroke-linejoin="round" stroke-width="1.115"/>
        </g>
        <path id="Trazado_245447" data-name="Trazado 245447" d="M629.385,3933.649q3.452,4.52,6.674,9.212a14.209,14.209,0,0,1,2.155,4.04" transform="translate(-608.857 -3835.51)" fill="none" stroke="#9b5548" stroke-linecap="round" stroke-linejoin="round" stroke-width="1.115"/>
      </g>
      <g id="Grupo_947348" data-name="Grupo 947348" transform="translate(14.746 130.323)">
        <path id="Trazado_245448" data-name="Trazado 245448" d="M614.474,3894.408c5.054-25.927,14.864-57.407,15.283-59.338,2.584-11.918,15.93-21.366,27.049-13.288a27.424,27.424,0,0,1,4.651,4.689c2.111,2.5,4.524,5.3,4.606,8.713a57.548,57.548,0,0,1-.4,6.269,82.33,82.33,0,0,1-3.211,15.081c-3.806,13.241-8.927,26.118-14.228,38.821q-3.636,8.71-7.484,17.332a161.059,161.059,0,0,0-29.25-7.581Z" transform="translate(-611.487 -3818.77)" fill="#ffd817"/>
      </g>
      <path id="Trazado_245449" data-name="Trazado 245449" d="M616,3910.213a62.6,62.6,0,0,1,22.613,5.345" transform="translate(-597.214 -3698.031)" fill="none" stroke="#99810d" stroke-linecap="round" stroke-linejoin="round" stroke-width="1.115"/>
      <g id="Grupo_947351" data-name="Grupo 947351" transform="translate(42.14 275.103)">
        <g id="Grupo_947349" data-name="Grupo 947349">
          <path id="Trazado_245450" data-name="Trazado 245450" d="M752.158,3994.76l.607-14.26H646.027l-.379,16.991s-11.371,139.193,6.53,201.393H699.6l6.416-146.963,9.8,146.963h38.6S777.037,4117.034,752.158,3994.76Z" transform="translate(-642.088 -3980.501)" fill="#09101e"/>
        </g>
        <g id="Grupo_947350" data-name="Grupo 947350" transform="translate(6.836 10.914)">
          <path id="Trazado_245451" data-name="Trazado 245451" d="M745.641,3996.1a52.65,52.65,0,0,0,2.5,29.516c3.075,7.887,8.5,15.328,16.338,18.52" transform="translate(-659.666 -3993.05)" fill="none" stroke="#fff" stroke-linecap="round" stroke-linejoin="round" stroke-width="1.115"/>
          <path id="Trazado_245452" data-name="Trazado 245452" d="M665.853,3996.743a55.321,55.321,0,0,1-16.032,46" transform="translate(-649.734 -3993.118)" fill="none" stroke="#fff" stroke-linecap="round" stroke-linejoin="round" stroke-width="1.115"/>
          <path id="Trazado_245453" data-name="Trazado 245453" d="M717.208,3998.337c.346,9.083.662,18.171.58,27.261-.049,5.355-.242,11.045-.37,16.527-.082,3.48,1.423,12-3.681,12.639a25.332,25.332,0,0,1-8.342-.349" transform="translate(-655.559 -3993.284)" fill="none" stroke="#fff" stroke-linecap="round" stroke-linejoin="round" stroke-width="1.115"/>
          <line id="Línea_175" data-name="Línea 175" y2="30.532" transform="translate(55.044 11.081)" fill="none" stroke="#fff" stroke-linecap="round" stroke-linejoin="round" stroke-width="1.115"/>
          <path id="Trazado_245454" data-name="Trazado 245454" d="M727.6,4120.336q4.831,39.109,6.338,78.533" transform="translate(-657.886 -4006.071)" fill="none" stroke="#fff" stroke-linecap="round" stroke-linejoin="round" stroke-width="1.115"/>
          <line id="Línea_176" data-name="Línea 176" x2="100.151" fill="none" stroke="#fff" stroke-linecap="round" stroke-linejoin="round" stroke-width="1.115"/>
        </g>
      </g>
      <g id="Grupo_947360" data-name="Grupo 947360" transform="translate(41.437 10.988)">
        <g id="Grupo_947353" data-name="Grupo 947353" transform="translate(0 90.025)">
          <path id="Trazado_245455" data-name="Trazado 245455" d="M761.169,3818.562c-.079-.355-.041-.419-.1-.491s-.163-.124-.465-.365c-1.371-1.087-3.7-1.591-5.358-2.065-3.616-1.038-7.352-1.614-10.934-2.776a63.613,63.613,0,0,1-8.725-4.117l-8.733-4.387-9.954-5v-13.333l-35.953.257v13.693l-11.5,5.775-11.67,5.862c-4.749,2.385-9.079,4.541-11.659,9.494-1.975,3.792-2.762,8.079-3.36,12.312-2.838,20.1-.625,40.24-.841,60.428l4.277,72.83H751.983l5.172-72.83s3.369-59.459,3.712-67.9q.094-2.294.187-4.588A12.228,12.228,0,0,0,761.169,3818.562Z" transform="translate(-641.303 -3786.028)" fill="#f9815d"/>
          <g id="Grupo_947352" data-name="Grupo 947352" transform="translate(39.581)" opacity="0.3" style="mix-blend-mode: multiply;isolation: isolate">
            <path id="Trazado_245456" data-name="Trazado 245456" d="M721.472,3796.21v-10.182l-35.954.257v14.834a7.333,7.333,0,0,0,8.574,7.226c6.542-1.126,12.323-2.212,18.789-6.2C715.053,3800.807,719.5,3797.825,721.472,3796.21Z" transform="translate(-685.518 -3786.028)" fill="#f9815d"/>
          </g>
        </g>
        <g id="Grupo_947356" data-name="Grupo 947356" transform="translate(21.731 59.657)">
          <g id="Grupo_947354" data-name="Grupo 947354">
            <path id="Trazado_245457" data-name="Trazado 245457" d="M665.951,3754.572a8.246,8.246,0,0,0-.354,3.208,23.179,23.179,0,0,0,12.677,19.337q-2.1-6.784-4.2-13.568-1.061-3.425-2.122-6.85c-.362-1.17-.5-3.315-1.536-4.119C668.7,3751.261,666.548,3752.935,665.951,3754.572Z" transform="translate(-665.579 -3752.105)" fill="#f9815d"/>
            <path id="Trazado_245458" data-name="Trazado 245458" d="M665.951,3754.572a8.246,8.246,0,0,0-.354,3.208,23.179,23.179,0,0,0,12.677,19.337q-2.1-6.784-4.2-13.568-1.061-3.425-2.122-6.85c-.362-1.17-.5-3.315-1.536-4.119C668.7,3751.261,666.548,3752.935,665.951,3754.572Z" transform="translate(-665.579 -3752.105)" fill="#f9815d" opacity="0.3" style="mix-blend-mode: multiply;isolation: isolate"/>
            <path id="Trazado_245459" data-name="Trazado 245459" d="M668.35,3761.894a5.414,5.414,0,0,1-.226-1.875,1.634,1.634,0,0,1,2.878-1.071,4.805,4.805,0,0,1,1.064,1.731c2.073,4.932,2.878,10.418,5.691,14.97" transform="translate(-665.844 -3752.764)" fill="none" stroke="#9b5548" stroke-linecap="round" stroke-linejoin="round" stroke-width="1.115"/>
            <path id="Trazado_245460" data-name="Trazado 245460" d="M672.5,3761.531a2.512,2.512,0,0,1-.281.781,8.407,8.407,0,0,0-.722,4.694,6.479,6.479,0,0,0,.433,1.646,9.491,9.491,0,0,0,1.084,1.807,13.6,13.6,0,0,0,2.224,2.557,15.513,15.513,0,0,1,2.386,2.018" transform="translate(-666.192 -3753.093)" fill="none" stroke="#9b5548" stroke-linecap="round" stroke-linejoin="round" stroke-width="1.115"/>
          </g>
          <g id="Grupo_947355" data-name="Grupo 947355" transform="translate(58.553)">
            <path id="Trazado_245461" data-name="Trazado 245461" d="M743.309,3754.572a8.246,8.246,0,0,1,.354,3.208,23.181,23.181,0,0,1-12.677,19.337q2.1-6.784,4.2-13.568,1.061-3.425,2.122-6.85c.362-1.17.495-3.315,1.536-4.119C740.56,3751.261,742.712,3752.935,743.309,3754.572Z" transform="translate(-730.987 -3752.105)" fill="#f9815d"/>
            <path id="Trazado_245462" data-name="Trazado 245462" d="M743.309,3754.572a8.246,8.246,0,0,1,.354,3.208,23.181,23.181,0,0,1-12.677,19.337q2.1-6.784,4.2-13.568,1.061-3.425,2.122-6.85c.362-1.17.495-3.315,1.536-4.119C740.56,3751.261,742.712,3752.935,743.309,3754.572Z" transform="translate(-730.987 -3752.105)" fill="#f9815d" opacity="0.3" style="mix-blend-mode: multiply;isolation: isolate"/>
            <path id="Trazado_245463" data-name="Trazado 245463" d="M741.267,3761.894a5.415,5.415,0,0,0,.226-1.875,1.634,1.634,0,0,0-2.878-1.071,4.806,4.806,0,0,0-1.064,1.731c-2.073,4.932-2.878,10.418-5.691,14.97" transform="translate(-731.078 -3752.764)" fill="none" stroke="#9b5548" stroke-linecap="round" stroke-linejoin="round" stroke-width="1.115"/>
            <path id="Trazado_245464" data-name="Trazado 245464" d="M737.518,3761.531a2.513,2.513,0,0,0,.281.781,8.407,8.407,0,0,1,.722,4.694,6.477,6.477,0,0,1-.433,1.646,9.494,9.494,0,0,1-1.084,1.807,13.6,13.6,0,0,1-2.224,2.557,15.51,15.51,0,0,0-2.386,2.018" transform="translate(-731.135 -3753.093)" fill="none" stroke="#9b5548" stroke-linecap="round" stroke-linejoin="round" stroke-width="1.115"/>
          </g>
        </g>
        <path id="Trazado_245465" data-name="Trazado 245465" d="M703.4,3708.539v-.083c-.173-.013-.34-.031-.516-.044l-.259-.017v-.111l-.833.055-.138-.009v-.046l-.348.023-.347-.023v.046l-.138.009-.833-.055v.111l-.259.017c-.175.012-.343.031-.517.044v.083c-34.166,3.368-28.3,39.936-28.3,39.936q1.536,5.974,3.071,11.947c1.3,5.041,2.913,10.128,3.766,15.25.418,2.507,2.858,5.033,4.649,6.7a43.941,43.941,0,0,0,13.648,8.033,13.595,13.595,0,0,0,10.525,0,43.928,43.928,0,0,0,13.647-8.033c1.791-1.666,4.232-4.192,4.649-6.7.854-5.122,2.47-10.21,3.766-15.25l3.072-11.947S737.569,3711.907,703.4,3708.539Z" transform="translate(-644.366 -3687.855)" fill="#f9815d"/>
        <g id="Grupo_947359" data-name="Grupo 947359" transform="translate(33.163 51.5)">
          <path id="Trazado_245466" data-name="Trazado 245466" d="M704.066,3755.039l-2.2,17.771a2.126,2.126,0,0,0,2.2,2.385h0Z" transform="translate(-680.812 -3744.255)" fill="#f9815d" opacity="0.3" style="mix-blend-mode: multiply;isolation: isolate"/>
          <g id="Grupo_947357" data-name="Grupo 947357" transform="translate(8.729 8.748)">
            <path id="Trazado_245467" data-name="Trazado 245467" d="M694.517,3757.325c0,2.343-1.436,4.242-3.208,4.242s-3.208-1.9-3.208-4.242,1.437-4.242,3.208-4.242S694.517,3754.983,694.517,3757.325Z" transform="translate(-688.1 -3752.798)" fill="#09101e"/>
            <path id="Trazado_245468" data-name="Trazado 245468" d="M694.41,3754.048a1.284,1.284,0,1,1-1.284-1.283A1.284,1.284,0,0,1,694.41,3754.048Z" transform="translate(-688.492 -3752.764)" fill="#fff"/>
          </g>
          <g id="Grupo_947358" data-name="Grupo 947358" transform="translate(34.541 8.748)">
            <path id="Trazado_245469" data-name="Trazado 245469" d="M723.352,3757.325c0,2.343-1.437,4.242-3.209,4.242s-3.208-1.9-3.208-4.242,1.437-4.242,3.208-4.242S723.352,3754.983,723.352,3757.325Z" transform="translate(-716.934 -3752.798)" fill="#09101e"/>
            <path id="Trazado_245470" data-name="Trazado 245470" d="M723.245,3754.048a1.283,1.283,0,1,1-1.284-1.283A1.284,1.284,0,0,1,723.245,3754.048Z" transform="translate(-717.326 -3752.764)" fill="#fff"/>
          </g>
          <path id="Trazado_245471" data-name="Trazado 245471" d="M709.174,3773.8a2.355,2.355,0,0,1-1.989,1.429,4.894,4.894,0,0,1-2.136-.132c-1.06-.306-.8-.935-.782-1.873l.056-2.934c.05-2.686.1-17.314.151-20" transform="translate(-681.061 -3743.757)" fill="none" stroke="#9b5548" stroke-linecap="round" stroke-linejoin="round" stroke-width="1.115"/>
          <path id="Trazado_245472" data-name="Trazado 245472" d="M702.076,3783.371a8.046,8.046,0,0,0,6.347.345l.747,1.3s.042,2.247-3.66,2.5c0,0-3.078.166-4.285-2.329Z" transform="translate(-680.746 -3747.224)" fill="#9b5548" stroke="#9b5548" stroke-linecap="round" stroke-linejoin="round" stroke-width="1.115"/>
          <path id="Trazado_245473" data-name="Trazado 245473" d="M712.37,3746.781h9.3c2.721,0,5.811.5,8.477-.063-1.572-.918-3.524-2.426-5.337-2.726a46.224,46.224,0,0,0-6.587-.982c-1.873-.006-3.074-.224-4.516,1.026C713.629,3744.107,711.725,3746.781,712.37,3746.781Z" transform="translate(-681.901 -3742.992)" fill="#09101e"/>
          <path id="Trazado_245474" data-name="Trazado 245474" d="M696.131,3746.781h-9.3c-2.72,0-5.811.5-8.477-.063,1.572-.918,3.525-2.426,5.337-2.726a46.217,46.217,0,0,1,6.588-.982c1.873-.006,3.073-.224,4.516,1.026C694.872,3744.107,696.775,3746.781,696.131,3746.781Z" transform="translate(-678.349 -3742.992)" fill="#09101e"/>
        </g>
        <path id="Trazado_245475" data-name="Trazado 245475" d="M733.753,3728.282a14.43,14.43,0,0,1-.587-5.23c.131-.987.46-1.944.541-2.938a6.148,6.148,0,0,0-5.317-6.369,3.685,3.685,0,0,1-2.035-.482,2.965,2.965,0,0,1-.794-1.763c-1.785-8.343-7.459-15.609-14.722-20.084a43.256,43.256,0,0,0-24.512-5.906c-6.082.267-12.377,1.735-16.983,5.715s-7,10.933-4.357,16.417c-2.506-1.95-6.589-.481-7.956,2.386s-.44,6.419,1.541,8.9,4.843,4.084,7.7,5.458c-2.036,3.316-2.338,7.467-1.642,11.295a28.5,28.5,0,0,0,2.237,7.417,107.417,107.417,0,0,1,6.162,17.65c.871-.969.323-3.081-.09-4.318-1.6-4.786-2.142-9.792-2.969-14.751a12.945,12.945,0,0,1,.409-5.717c.915-3.3,3.061-6.42,6.705-6.835a28.8,28.8,0,0,1,5.48.285A24.686,24.686,0,0,0,695,3727.127c2.547-1.206,4.892-2.852,7.558-3.762a20.454,20.454,0,0,1,6.043-.973c4.558-.129,8.613.214,12.11,3.369,7.323,6.6,8.3,17.54,7.077,26.744a46.47,46.47,0,0,1-1.212,6.034l.635.025c.5.019,1.262-4.938,1.358-5.384.439-2.039.924-3.211,1.363-5.25a13.363,13.363,0,0,1,.838-2.172c.7-.8,1.539-1.479,2.2-2.318a7.84,7.84,0,0,0,1.428-3.367,17.515,17.515,0,0,0,.681-3.139A32.1,32.1,0,0,0,733.753,3728.282Z" transform="translate(-642.884 -3685.463)" fill="#09101e"/>
      </g>
      <g id="Grupo_947361" data-name="Grupo 947361" transform="translate(147.548 135.768)">
        <path id="Trazado_245476" data-name="Trazado 245476" d="M966.277,3946.134l.832.485s3.454-2.534-.46-5.049c.653-1.01,1.273-3.156-4.014-4.355l-.009.011c-.011-.006-.017-.014-.029-.021a43.524,43.524,0,0,0-4.48-1.571c-.058-.041-.1-.084-.171-.124a67.535,67.535,0,0,0-9.262-2.65c-5.535-3.9-17.608-11.916-26.068-13.873l-56.51-39.811a13.3,13.3,0,0,0-6.606-3.968l-25.588-16.08c-44.429-33.144-61.718-34.278-61.718-34.278l-12.357,23.354c3.078,15.411,92.332,50.954,92.332,50.954l.031-.055c15.236,12.106,54.113,28.919,60.675,31.717l10,15.014.08-.008c.048.072.095.146.146.216.715.974,10.213,8.668,11.7,9.658a6.807,6.807,0,0,0,2.08,1.021,3.727,3.727,0,0,0,3.5-.93,3.209,3.209,0,0,0,.657-3.5,5.551,5.551,0,0,0-1.077-1.425q-1.41-1.479-2.934-2.845c-.338-.3-1.658-1.88-2.943-3.367l6.072-.642,12.488,5.4a2.8,2.8,0,0,0,.2.27l10.082,6.8a1.147,1.147,0,0,0,1.308-.006c1.2-.865,3-3.107-2.723-6.873l-.015.011c-.01-.013-.013-.025-.023-.038a54.145,54.145,0,0,0-4.538-3.79c-.024-.035-.043-.069-.07-.1l.417.18a3.063,3.063,0,0,0,.205.272l9.7,6.546a1.723,1.723,0,0,0,2.186-.179C970.423,3951.433,971.087,3949.342,966.277,3946.134Zm-.136-.073-.006-.01.011.006Z" transform="translate(-759.837 -3824.852)" fill="#f9815d"/>
        <path id="Trazado_245477" data-name="Trazado 245477" d="M966.107,3950.969c4.432,1.881,8.293,4.859,12.1,7.806l4.278,3.311a27.364,27.364,0,0,1,3.037,2.748,4.013,4.013,0,0,1,1.5,3.132,2.537,2.537,0,0,1-2.119,2.192" transform="translate(-781.456 -3838.07)" fill="none" stroke="#9b5548" stroke-linecap="round" stroke-linejoin="round" stroke-width="1.115"/>
        <path id="Trazado_245478" data-name="Trazado 245478" d="M970.678,3947.617c7.722,3.829,15.276,8.334,21.1,14.691" transform="translate(-781.935 -3837.719)" fill="none" stroke="#9b5548" stroke-linecap="round" stroke-linejoin="round" stroke-width="1.115"/>
        <path id="Trazado_245479" data-name="Trazado 245479" d="M970.337,3945.419c2.758.5,16.211,7.438,18.581,8.935,1,.629,1.98,1.213,1.893,2.519a2.892,2.892,0,0,1-.928,2.038,1.651,1.651,0,0,1-.988.408" transform="translate(-781.899 -3837.489)" fill="none" stroke="#9b5548" stroke-linecap="round" stroke-linejoin="round" stroke-width="1.115"/>
        <path id="Trazado_245480" data-name="Trazado 245480" d="M950.5,3953.937a61.687,61.687,0,0,1,4.039,5.226" transform="translate(-779.82 -3838.381)" fill="none" stroke="#9b5548" stroke-linecap="round" stroke-linejoin="round" stroke-width="1.115"/>
        <path id="Trazado_245481" data-name="Trazado 245481" d="M933.543,3942.787a2.077,2.077,0,0,0-.465,1.167,5.369,5.369,0,0,0,1.482,4.418" transform="translate(-777.99 -3837.213)" fill="none" stroke="#9b5548" stroke-linecap="round" stroke-linejoin="round" stroke-width="1.115"/>
      </g>
      <g id="Grupo_947362" data-name="Grupo 947362" transform="translate(140.732 131.666)">
        <path id="Trazado_245482" data-name="Trazado 245482" d="M832.742,3857.94c-21.173-15.795-49.6-32.5-51.208-33.65-9.927-7.084-26.158-5.105-28.957,8.35a27.415,27.415,0,0,0-.291,6.6c.12,3.272.215,6.966,2.449,9.547a57.427,57.427,0,0,0,4.513,4.368,82.36,82.36,0,0,0,12.516,9c11.721,7.243,24.169,13.331,36.634,19.17q8.548,4,17.193,7.8a161.045,161.045,0,0,1,16.555-25.278Z" transform="translate(-752.224 -3820.271)" fill="#ffd817"/>
      </g>
      <path id="Trazado_245483" data-name="Trazado 245483" d="M844.434,3868.282a62.587,62.587,0,0,0-13.145,19.16" transform="translate(-619.778 -3693.636)" fill="none" stroke="#f73333" stroke-linecap="round" stroke-linejoin="round" stroke-width="1.115"/>
      <g id="Grupo_947363" data-name="Grupo 947363" transform="translate(34.65 117.561)">
        <path id="Trazado_245484" data-name="Trazado 245484" d="M760.375,3820.5c-.079-.355-.042-.419-.1-.491s-.163-.124-.465-.365c-1.371-1.087-3.7-1.591-5.358-2.065-3.616-1.038-7.352-1.614-10.934-2.776a63.61,63.61,0,0,1-8.725-4.117l-8.734-4.387-3.455-1.736c-4.1,7.541-13.208,12.791-23.8,12.791-10.614,0-19.743-5.272-23.826-12.84l-6.323,3.177c-4.276,2.148-8.507,4.526-12.921,6.376-3.207,1.344-6.931,2.2-9.785,4.239-2.928,2.088-3.38,5.377-4.52,8.509-.988,2.717-2.9,4.441-4.023,7.178a50.156,50.156,0,0,0-2.959,27.394c1.45,8.386,4.906,15.553,5.22,24.28q1.495,41.476,2.991,82.952H753.994l4.595-104.3q.227-5.555.453-11.11l1.031-25.316q.094-2.294.187-4.588A12.228,12.228,0,0,0,760.375,3820.5Z" transform="translate(-633.722 -3804.514)" fill="#ffd817"/>
      </g>
      <g id="Grupo_947364" data-name="Grupo 947364" transform="translate(40.029 131.029)" style="mix-blend-mode: multiply;isolation: isolate">
        <path id="Trazado_245485" data-name="Trazado 245485" d="M695.144,3917.274a182.109,182.109,0,0,1-47.58-88.9c-.6-2.805-.772-6.286-1.815-8.817-3.6,4.418-4.666,12.08-5.343,17.565a136.423,136.423,0,0,0-.546,20.439c.8,29.193,1.473,58.385,2.529,87.65q.45,12.49.9,24.98H754.623l.627-13.351C733.644,3947.546,711.6,3934.085,695.144,3917.274Z" transform="translate(-639.73 -3819.559)" fill="#ccc"/>
      </g>
      <path id="Trazado_245486" data-name="Trazado 245486" d="M772.806,3879.161a163.62,163.62,0,0,0,.738-21.027c-.249-6.467,1.447-13.441,2.942-19.727" transform="translate(-613.649 -3690.505)" fill="none" stroke="#99810d" stroke-linecap="round" stroke-linejoin="round" stroke-width="1.115"/>
      <path id="Trazado_245487" data-name="Trazado 245487" d="M657.888,3720.842a15.283,15.283,0,0,0,4.684,4.968,47.5,47.5,0,0,0,9.22,4.685,35.108,35.108,0,0,0,10.108,2.565,24.008,24.008,0,0,0,6.176-.109c6.415-1.039,11.781-5.391,17.945-7.449a26.281,26.281,0,0,1,18.933.968" transform="translate(-601.604 -3678.183)" fill="none" stroke="#fff" stroke-linecap="round" stroke-linejoin="round" stroke-width="1.115"/>
      <path id="Trazado_245488" data-name="Trazado 245488" d="M701.661,3690.4a29.208,29.208,0,0,1,19.391,12.241" transform="translate(-606.192 -3674.992)" fill="none" stroke="#fff" stroke-linecap="round" stroke-linejoin="round" stroke-width="1.115"/>
      <g id="Grupo_947393" data-name="Grupo 947393" transform="translate(158.47 20.457)">
        <g id="Grupo_947392" data-name="Grupo 947392">
          <g id="Grupo_947367" data-name="Grupo 947367" transform="translate(271.811 107.097)">
            <g id="Grupo_947365" data-name="Grupo 947365" transform="translate(0 4.869)">
              <path id="Trazado_245489" data-name="Trazado 245489" d="M1136.3,3936.865a12.836,12.836,0,0,0,.692-14.455l-7.758-29.3c-4.446-24.577-9.3-40.642-13.286-50.876a21.477,21.477,0,0,0-.394-5.388c-2.1-10.378-11.249-17.283-20.425-15.422-6.521,1.322-11.286,6.723-12.751,13.458-6.411,12.142,21.871,75.929,30.47,94.725-8.431,18.471-16.507,56.594-17.9,63.324l-12.432,14.2.029.075c-.057.064-.116.129-.17.2-.754.945-5.7,12.123-6.269,13.817a6.825,6.825,0,0,0-.442,2.274,3.726,3.726,0,0,0,1.813,3.14,3.208,3.208,0,0,0,3.555-.28,5.571,5.571,0,0,0,1.094-1.412q1.061-1.747,1.98-3.574c.2-.406,1.382-2.092,2.482-3.72l2.2,5.694-1.949,13.464a3.151,3.151,0,0,0-.209.263l-3.932,11.508a1.148,1.148,0,0,0,.348,1.261c1.149.937,3.783,2.086,5.922-4.423l-.014-.013c.01-.012.021-.02.031-.032a53.949,53.949,0,0,0,2.473-5.37c.028-.032.056-.059.083-.094l-.065.449a3.028,3.028,0,0,0-.209.27l-3.785,11.076a1.725,1.725,0,0,0,.744,2.064c1.3.729,3.49.824,5.331-4.656l-.251.929s3.348,2.672,4.753-1.762c1.145.366,3.378.4,3.156-5.013l-.014-.005c0-.012.01-.021.013-.032a43.349,43.349,0,0,0,.346-4.736,2.1,2.1,0,0,0,.075-.2,67.6,67.6,0,0,0,.14-9.631c2.26-6.188,6.656-19.355,6.607-28.053a7.845,7.845,0,0,0,1.033-2.606Zm-42.7,112.083.008-.008,0,.012Z" transform="translate(-1075.673 -3821.116)" fill="#ffc4bc"/>
              <path id="Trazado_245490" data-name="Trazado 245490" d="M1096.759,4049.85c-.658,4.769-2.525,9.274-4.376,13.718q-1.041,2.5-2.079,5a27.29,27.29,0,0,1-1.86,3.649,4.007,4.007,0,0,1-2.63,2.268,2.537,2.537,0,0,1-2.67-1.473" transform="translate(-1076.456 -3845.089)" fill="none" stroke="#9b5548" stroke-linecap="round" stroke-linejoin="round" stroke-width="1.115"/>
              <path id="Trazado_245491" data-name="Trazado 245491" d="M1101.766,4053.387c-1.679,8.454-4.056,16.922-8.673,24.2" transform="translate(-1077.499 -3845.46)" fill="none" stroke="#9b5548" stroke-linecap="round" stroke-linejoin="round" stroke-width="1.115"/>
              <path id="Trazado_245492" data-name="Trazado 245492" d="M1103.811,4052.484c.241,2.792-2.948,17.591-3.774,20.269-.347,1.127-.654,2.228-1.937,2.485a2.893,2.893,0,0,1-2.209-.364,1.645,1.645,0,0,1-.652-.848" transform="translate(-1077.724 -3845.365)" fill="none" stroke="#9b5548" stroke-linecap="round" stroke-linejoin="round" stroke-width="1.115"/>
              <path id="Trazado_245493" data-name="Trazado 245493" d="M1091.058,4044.386a15.6,15.6,0,0,0-1.107,4.358" transform="translate(-1077.17 -3844.516)" fill="none" stroke="#9b5548" stroke-linecap="round" stroke-linejoin="round" stroke-width="1.115"/>
              <path id="Trazado_245494" data-name="Trazado 245494" d="M1081,4032.306a39.749,39.749,0,0,0-4.437,8.831c-.715,2.019-1.251,4.322-.3,6.24a2.707,2.707,0,0,0,2.383,1.64,4.62,4.62,0,0,0,3.977-1.686" transform="translate(-1075.681 -3843.25)" fill="none" stroke="#9b5548" stroke-linecap="round" stroke-linejoin="round" stroke-width="1.115"/>
            </g>
            <g id="Grupo_947366" data-name="Grupo 947366" transform="translate(2.983)">
              <path id="Trazado_245495" data-name="Trazado 245495" d="M1129.8,3891.763c-4.7-25.993-14.083-57.6-14.476-59.541-2.423-11.952-15.639-21.58-26.866-13.653a27.464,27.464,0,0,0-4.715,4.625c-2.145,2.473-4.595,5.238-4.723,8.65a57.4,57.4,0,0,0,.318,6.272,82.3,82.3,0,0,0,3.006,15.124c3.626,13.292,8.571,26.237,13.7,39.01q3.517,8.76,7.248,17.432a161.078,161.078,0,0,1,29.351-7.184Z" transform="translate(-1079.005 -3815.677)" fill="#09101e"/>
            </g>
            <path id="Trazado_245496" data-name="Trazado 245496" d="M1131.824,3907.6a62.563,62.563,0,0,0-22.682,5.038" transform="translate(-1079.181 -3825.311)" fill="none" stroke="#dbdbdb" stroke-miterlimit="10" stroke-width="1.115" style="mix-blend-mode: multiply;isolation: isolate"/>
          </g>
          <g id="Grupo_947370" data-name="Grupo 947370" transform="translate(179.179 251.042)">
            <g id="Grupo_947368" data-name="Grupo 947368">
              <path id="Trazado_245497" data-name="Trazado 245497" d="M1082.265,3990.735l.607-14.26H976.135l-.38,16.991s-11.371,139.193,6.53,201.392h47.424l6.416-146.962,9.8,146.962h38.6S1107.145,4113.008,1082.265,3990.735Z" transform="translate(-972.195 -3976.474)" fill="#ff4e4b"/>
            </g>
            <g id="Grupo_947369" data-name="Grupo 947369" transform="translate(6.836 10.915)">
              <path id="Trazado_245498" data-name="Trazado 245498" d="M1075.748,3992.074a52.643,52.643,0,0,0,2.5,29.516c3.075,7.887,8.5,15.328,16.337,18.52" transform="translate(-989.774 -3989.024)" fill="none" stroke="#fff" stroke-linecap="round" stroke-linejoin="round" stroke-width="1.115"/>
              <path id="Trazado_245499" data-name="Trazado 245499" d="M995.961,3992.716a55.324,55.324,0,0,1-16.032,46" transform="translate(-979.842 -3989.092)" fill="none" stroke="#fff" stroke-linecap="round" stroke-linejoin="round" stroke-width="1.115"/>
              <path id="Trazado_245500" data-name="Trazado 245500" d="M1047.315,3994.311c.346,9.083.662,18.171.58,27.26-.048,5.355-.242,11.045-.37,16.528-.081,3.479,1.423,12-3.681,12.637a25.307,25.307,0,0,1-8.342-.347" transform="translate(-985.666 -3989.259)" fill="none" stroke="#fff" stroke-linecap="round" stroke-linejoin="round" stroke-width="1.115"/>
              <path id="Trazado_245501" data-name="Trazado 245501" d="M1057.7,4116.31q4.831,39.108,6.338,78.533" transform="translate(-987.993 -4002.045)" fill="none" stroke="#fff" stroke-linecap="round" stroke-linejoin="round" stroke-width="1.115"/>
              <line id="Línea_177" data-name="Línea 177" x2="100.15" fill="none" stroke="#fff" stroke-linecap="round" stroke-linejoin="round" stroke-width="1.115"/>
              <line id="Línea_178" data-name="Línea 178" y2="30.532" transform="translate(55.044 11.081)" fill="none" stroke="#fff" stroke-linecap="round" stroke-linejoin="round" stroke-width="1.115"/>
            </g>
          </g>
          <g id="Grupo_947373" data-name="Grupo 947373" transform="translate(0 108.532)">
            <g id="Grupo_947371" data-name="Grupo 947371" transform="translate(0 4.937)">
              <path id="Trazado_245502" data-name="Trazado 245502" d="M975.1,3828.36a19.54,19.54,0,0,0-8.52-4.813c-10.548-2.847-20.517,3.019-30.026,7a338.275,338.275,0,0,0-34.653,17.2l-27.5,12.638a13.639,13.639,0,0,0-7.026,3.058c-.119.1-.224.211-.338.315l-57.891,33c-.124.037-.243.086-.362.133-.047.016-.094.035-.141.052l-.1.04a7.894,7.894,0,0,0-3.871,3.234,21.739,21.739,0,0,1-1.759,1.845c-1.137,1.021-2.251,2.037-3.292,3.161a75.4,75.4,0,0,0-6.384,8.083c-2.718,3.887-5.26,7.931-7.586,12.081a67.886,67.886,0,0,0-7.227,6.327c-.045.065-.067.123-.1.185a43.333,43.333,0,0,0-3.385,3.33c-.007.011-.01.021-.03.024-4.273,3.337-2.8,5.015-1.777,5.65-2.47,3.942,1.734,4.763,1.734,4.763l.546-.793c-2.985,4.951-1.493,6.56-.1,7.078a1.724,1.724,0,0,0,2.054-.77l5.992-10.056a2.815,2.815,0,0,0,.07-.334l.3-.34c-.009.043-.011.083-.018.124a54.031,54.031,0,0,0-2.491,5.362c0,.016,0,.029-.023.041-3.575,5.845-.995,7.109.464,7.377a1.147,1.147,0,0,0,1.186-.551l6.224-10.447a2.853,2.853,0,0,0,.066-.329l9-10.2,5.767-2.006c-.529,1.892-1.052,3.882-1.229,4.3q-.8,1.883-1.442,3.824a5.547,5.547,0,0,0-.368,1.747,3.212,3.212,0,0,0,2.088,2.892,3.729,3.729,0,0,0,3.567-.651,6.817,6.817,0,0,0,1.447-1.811c.925-1.53,6.24-12.536,6.472-13.722.017-.085.027-.172.039-.258l.076-.026q.756-5.1,1.514-10.2.42-2.833.841-5.667c9.578-3.076,46.385-15.232,61.946-25.257q2.162-.554,4.319-1.129c17.854-4.734,35.623-9.924,53.067-16.006a222.1,222.1,0,0,0,27.632-11.232c8.257-4.2,18.838-11.553,15.043-22.373A15.47,15.47,0,0,0,975.1,3828.36ZM775.5,3944.749l.007-.011,0,.012Z" transform="translate(-772.038 -3822.794)" fill="#ffc4bc"/>
              <path id="Trazado_245503" data-name="Trazado 245503" d="M792.43,3940.326c-3.208,3.589-5.433,7.929-7.623,12.216l-2.46,4.818a27.276,27.276,0,0,0-1.577,3.779,4.008,4.008,0,0,0-.025,3.473,2.536,2.536,0,0,0,2.85,1.083" transform="translate(-772.91 -3835.113)" fill="none" stroke="#9b5548" stroke-linecap="round" stroke-linejoin="round" stroke-width="1.115"/>
              <path id="Trazado_245504" data-name="Trazado 245504" d="M786.779,3939.24c-5.356,6.753-10.271,14.047-12.828,22.279" transform="translate(-772.239 -3834.999)" fill="none" stroke="#9b5548" stroke-linecap="round" stroke-linejoin="round" stroke-width="1.115"/>
              <path id="Trazado_245505" data-name="Trazado 245505" d="M786.025,3937.106c-2.284,1.625-11.5,13.635-13,16-.634.995-1.275,1.941-.64,3.085a2.892,2.892,0,0,0,1.708,1.449,1.653,1.653,0,0,0,1.069-.052" transform="translate(-772.047 -3834.775)" fill="none" stroke="#9b5548" stroke-linecap="round" stroke-linejoin="round" stroke-width="1.115"/>
              <path id="Trazado_245506" data-name="Trazado 245506" d="M802.343,3942.25a15.628,15.628,0,0,1-2.605,3.665" transform="translate(-774.942 -3835.315)" fill="none" stroke="#9b5548" stroke-linecap="round" stroke-linejoin="round" stroke-width="1.115"/>
              <path id="Trazado_245507" data-name="Trazado 245507" d="M816.581,3941.728a39.724,39.724,0,0,1-3.857,9.1c-1.075,1.852-2.484,3.751-4.563,4.266a2.708,2.708,0,0,1-2.792-.755,4.618,4.618,0,0,1-1.289-4.122" transform="translate(-775.388 -3835.26)" fill="none" stroke="#9b5548" stroke-linecap="round" stroke-linejoin="round" stroke-width="1.115"/>
              <path id="Trazado_245508" data-name="Trazado 245508" d="M809.059,3936.364a61.676,61.676,0,0,0-1.428,6.449" transform="translate(-775.769 -3834.698)" fill="none" stroke="#9b5548" stroke-linecap="round" stroke-linejoin="round" stroke-width="1.115"/>
              <path id="Trazado_245509" data-name="Trazado 245509" d="M819.766,3919.078a2.077,2.077,0,0,1,.918.858,5.372,5.372,0,0,1,.54,4.629" transform="translate(-777.041 -3832.886)" fill="none" stroke="#9b5548" stroke-linecap="round" stroke-linejoin="round" stroke-width="1.115"/>
            </g>
            <g id="Grupo_947372" data-name="Grupo 947372" transform="translate(120.234)">
              <path id="Trazado_245510" data-name="Trazado 245510" d="M916.44,3846.511c23.046-12.911,53.4-25.782,55.147-26.712,10.762-5.734,26.6-1.664,27.626,12.042a27.382,27.382,0,0,1-.569,6.58c-.543,3.229-1.117,6.879-3.668,9.148a57.7,57.7,0,0,1-5.043,3.746,82.276,82.276,0,0,1-13.58,7.3c-12.562,5.659-25.7,10.079-38.814,14.249q-9,2.859-18.06,5.5a161.1,161.1,0,0,0-13.131-27.214Z" transform="translate(-906.349 -3817.279)" fill="#09101e"/>
            </g>
            <path id="Trazado_245511" data-name="Trazado 245511" d="M913.078,3855.321a62.571,62.571,0,0,1,10.545,20.7" transform="translate(-786.821 -3821.267)" fill="none" stroke="#dbdbdb" stroke-miterlimit="10" stroke-width="1.115" style="mix-blend-mode: multiply;isolation: isolate"/>
          </g>
          <g id="Grupo_947391" data-name="Grupo 947391" transform="translate(174.929)">
            <g id="Grupo_947387" data-name="Grupo 947387">
              <g id="Grupo_947376" data-name="Grupo 947376" transform="translate(0 76.951)">
                <path id="Trazado_245512" data-name="Trazado 245512" d="M1090.861,3814.535c-.079-.354-.041-.419-.1-.49s-.162-.125-.466-.365c-1.371-1.088-3.7-1.591-5.358-2.065-3.615-1.039-7.351-1.614-10.934-2.778a63.576,63.576,0,0,1-8.724-4.116l-8.734-4.387-9.953-5V3782l-35.954.257v13.694l-11.5,5.776-11.67,5.862c-1.251.628-2.519,1.231-3.756,1.887-2.615,1.387-5.727,2-8.59,2.753-1.293.342-2.59.663-3.895.953-.692.154-3.249.268-3.628.814-.4.576.094,2.919.121,3.584q.5,12.182.993,24.363l.669,16.407,2.228,31.471,13.229,72.83h88.774l15.457-104.3q.227-5.555.453-11.11.515-12.658,1.032-25.316.093-2.294.187-4.588A12.3,12.3,0,0,0,1090.861,3814.535Z" transform="translate(-967.448 -3782.001)" fill="#ffc4bc"/>
                <g id="Grupo_947375" data-name="Grupo 947375" transform="translate(43.128)" style="mix-blend-mode: multiply;isolation: isolate">
                  <g id="Grupo_947374" data-name="Grupo 947374">
                    <path id="Trazado_245513" data-name="Trazado 245513" d="M1051.579,3792.184V3782l-35.954.257v14.834a7.332,7.332,0,0,0,8.575,7.226c6.541-1.125,12.323-2.211,18.788-6.2C1045.16,3796.781,1049.6,3793.8,1051.579,3792.184Z" transform="translate(-1015.625 -3782.001)" fill="#ffc4bc"/>
                  </g>
                </g>
              </g>
              <g id="Grupo_947379" data-name="Grupo 947379" transform="translate(25.279 46.584)">
                <g id="Grupo_947377" data-name="Grupo 947377">
                  <path id="Trazado_245514" data-name="Trazado 245514" d="M996.058,3750.545a8.233,8.233,0,0,0-.354,3.209,23.182,23.182,0,0,0,12.676,19.337q-2.1-6.785-4.2-13.568-1.061-3.426-2.122-6.85c-.362-1.171-.5-3.315-1.536-4.118C998.808,3747.234,996.656,3748.909,996.058,3750.545Z" transform="translate(-995.686 -3748.078)" fill="#ffc4bc"/>
                  <path id="Trazado_245515" data-name="Trazado 245515" d="M996.058,3750.545a8.233,8.233,0,0,0-.354,3.209,23.182,23.182,0,0,0,12.676,19.337q-2.1-6.785-4.2-13.568-1.061-3.426-2.122-6.85c-.362-1.171-.5-3.315-1.536-4.118C998.808,3747.234,996.656,3748.909,996.058,3750.545Z" transform="translate(-995.686 -3748.078)" fill="#ffc4bc" style="mix-blend-mode: multiply;isolation: isolate"/>
                  <path id="Trazado_245516" data-name="Trazado 245516" d="M998.457,3757.868a5.421,5.421,0,0,1-.226-1.875,1.844,1.844,0,0,1,.993-1.515,1.821,1.821,0,0,1,1.885.444,4.8,4.8,0,0,1,1.064,1.731c2.073,4.932,2.878,10.418,5.691,14.97" transform="translate(-995.951 -3748.737)" fill="none" stroke="#9b5548" stroke-linecap="round" stroke-linejoin="round" stroke-width="1.115"/>
                  <path id="Trazado_245517" data-name="Trazado 245517" d="M1002.61,3757.5a2.5,2.5,0,0,1-.281.78,8.42,8.42,0,0,0-.722,4.7,6.5,6.5,0,0,0,.433,1.645,9.557,9.557,0,0,0,1.084,1.807,13.623,13.623,0,0,0,2.224,2.557,15.446,15.446,0,0,1,2.386,2.018" transform="translate(-996.299 -3749.066)" fill="none" stroke="#9b5548" stroke-linecap="round" stroke-linejoin="round" stroke-width="1.115"/>
                </g>
                <g id="Grupo_947378" data-name="Grupo 947378" transform="translate(58.552)">
                  <path id="Trazado_245518" data-name="Trazado 245518" d="M1073.417,3750.545a8.252,8.252,0,0,1,.354,3.209,23.181,23.181,0,0,1-12.677,19.337q2.1-6.785,4.2-13.568,1.061-3.426,2.122-6.85c.362-1.171.5-3.315,1.536-4.118C1070.668,3747.234,1072.819,3748.909,1073.417,3750.545Z" transform="translate(-1061.094 -3748.078)" fill="#ffc4bc"/>
                  <path id="Trazado_245519" data-name="Trazado 245519" d="M1073.417,3750.545a8.252,8.252,0,0,1,.354,3.209,23.181,23.181,0,0,1-12.677,19.337q2.1-6.785,4.2-13.568,1.061-3.426,2.122-6.85c.362-1.171.5-3.315,1.536-4.118C1070.668,3747.234,1072.819,3748.909,1073.417,3750.545Z" transform="translate(-1061.094 -3748.078)" fill="#ffc4bc" style="mix-blend-mode: multiply;isolation: isolate"/>
                  <path id="Trazado_245520" data-name="Trazado 245520" d="M1071.375,3757.868a5.467,5.467,0,0,0,.226-1.875,1.846,1.846,0,0,0-.994-1.515,1.822,1.822,0,0,0-1.885.444,4.823,4.823,0,0,0-1.064,1.731c-2.073,4.932-2.878,10.418-5.69,14.97" transform="translate(-1061.186 -3748.737)" fill="none" stroke="#9b5548" stroke-linecap="round" stroke-linejoin="round" stroke-width="1.115"/>
                  <path id="Trazado_245521" data-name="Trazado 245521" d="M1067.625,3757.5a2.486,2.486,0,0,0,.282.78,8.409,8.409,0,0,1,.721,4.7,6.488,6.488,0,0,1-.433,1.645,9.6,9.6,0,0,1-1.083,1.807,13.682,13.682,0,0,1-2.224,2.557,15.41,15.41,0,0,0-2.386,2.018" transform="translate(-1061.242 -3749.066)" fill="none" stroke="#9b5548" stroke-linecap="round" stroke-linejoin="round" stroke-width="1.115"/>
                </g>
              </g>
              <path id="Trazado_245522" data-name="Trazado 245522" d="M1033.51,3704.512v-.083c-.174-.013-.341-.032-.517-.044l-.259-.017v-.111l-.833.056-.137-.01v-.046l-.348.022-.348-.022v.046l-.138.01-.833-.056v.111l-.259.017c-.175.012-.343.031-.516.044v.083c-34.167,3.368-28.3,39.936-28.3,39.936l3.072,11.947c1.3,5.041,2.912,10.128,3.766,15.249.417,2.508,2.857,5.034,4.649,6.7a43.879,43.879,0,0,0,13.647,8.031,13.595,13.595,0,0,0,10.525,0,43.893,43.893,0,0,0,13.648-8.031c1.79-1.666,4.231-4.192,4.649-6.7.853-5.121,2.47-10.208,3.766-15.249q1.536-5.974,3.071-11.947S1067.677,3707.881,1033.51,3704.512Z" transform="translate(-970.926 -3696.902)" fill="#ffc4bc"/>
              <g id="Grupo_947386" data-name="Grupo 947386" transform="translate(23.424)">
                <path id="Trazado_245523" data-name="Trazado 245523" d="M1064.606,3725.787c-.572-2.363-.363-4.391-.49-6.755-.12-2.231.279-4.854-1.269-6.7-1.081-1.292-2.843-1.788-4.134-2.873-2.431-2.042-3.49-5.541-5.472-8-2.968-3.676-7.929-5.171-12.648-5.385s-9.42.65-14.143.745c-2.372.048-4.752-.1-7.114.128a22.816,22.816,0,0,0-11.224,4.265c-2.872,2.1-5.195,4.823-7.9,7.12-2.424,2.059-4.86,3.8-6.006,6.954a12.509,12.509,0,0,0-.352,6.353c.218,1.283.559,2.545.722,3.836.472,3.724-.525,7.633.664,11.194.632,1.893,1.908,3.238,2.891,4.914a34.529,34.529,0,0,1,2.14,5.2,100.155,100.155,0,0,1,3.612,11.472c.872-.97.324-3.082-.09-4.319-1.6-4.787-2.141-9.792-2.969-14.752-.589-3.528.123-7.686.464-11.233a1.309,1.309,0,0,1,1.506-1.513q2.472-.1,4.948-.071a1.966,1.966,0,0,1,1.218.29c1.713,1.353-.882,3.385-.087,4.7a1.8,1.8,0,0,0,1.286.681,13.166,13.166,0,0,0,6.848-.823,48.914,48.914,0,0,0,6.258-3.079c6.586-3.562,13.622-6.6,21.076-7.32a9.373,9.373,0,0,1,2.361,0c2.685.422,5.528,2.842,7.156,4.918a23.007,23.007,0,0,1,3.816,7.5,39.789,39.789,0,0,1,.959,16.77c-.271,2.035-1.466,6.183-2,8.165.211.009,1.214-2.114,1.425-2.1.5.019,1.262-4.939,1.358-5.384.44-2.039.925-3.211,1.364-5.25a13.245,13.245,0,0,1,.839-2.172c.7-.8,1.539-1.481,2.2-2.319a7.848,7.848,0,0,0,1.429-3.368,17.585,17.585,0,0,0,.681-3.137A32.1,32.1,0,0,0,1064.606,3725.787Z" transform="translate(-993.614 -3696.041)" fill="#09101e"/>
                <path id="Trazado_245524" data-name="Trazado 245524" d="M1057.652,3769.46c.045-.649,2.1-6.807,1.758-6.878-.644-.132-5.669,9.845-8.178,10.8-2.528.964-4.361.009-6.8-.5-3.877-.8-6.147.076-9.8,1.147-3.156.926-4.423.05-7.545-.842-3.4-.971-5.52-.5-8.877.048-6.649,1.075-11.171-5.106-12.859-11-1.319-.2.506,6.927.556,7.567a127.793,127.793,0,0,0,1.776,15.5c2.059,10.194,8.142,15.425,17.965,17.938,8.977,2.3,20.662-.448,26.4-8.036C1057.405,3788.121,1057.075,3777.9,1057.652,3769.46Z" transform="translate(-994.794 -3702.979)" fill="#09101e"/>
                <g id="Grupo_947382" data-name="Grupo 947382" transform="translate(13.287 32.74)">
                  <path id="Trazado_245525" data-name="Trazado 245525" d="M1034.173,3751.012l-2.2,17.772a2.126,2.126,0,0,0,2.2,2.385h0Z" transform="translate(-1010.919 -3734.542)" fill="#ffc4bc" style="mix-blend-mode: multiply;isolation: isolate"/>
                  <g id="Grupo_947380" data-name="Grupo 947380" transform="translate(8.729 14.434)">
                    <path id="Trazado_245526" data-name="Trazado 245526" d="M1024.625,3753.3c0,2.343-1.437,4.242-3.209,4.242s-3.208-1.9-3.208-4.242,1.437-4.243,3.208-4.243S1024.625,3750.956,1024.625,3753.3Z" transform="translate(-1018.207 -3748.771)" fill="#09101e"/>
                    <path id="Trazado_245527" data-name="Trazado 245527" d="M1024.518,3750.021a1.283,1.283,0,1,1-1.284-1.283A1.284,1.284,0,0,1,1024.518,3750.021Z" transform="translate(-1018.599 -3748.738)" fill="#fff"/>
                  </g>
                  <g id="Grupo_947381" data-name="Grupo 947381" transform="translate(34.541 14.434)">
                    <path id="Trazado_245528" data-name="Trazado 245528" d="M1053.459,3753.3c0,2.343-1.437,4.242-3.208,4.242s-3.209-1.9-3.209-4.242,1.437-4.243,3.209-4.243S1053.459,3750.956,1053.459,3753.3Z" transform="translate(-1047.041 -3748.771)" fill="#09101e"/>
                    <path id="Trazado_245529" data-name="Trazado 245529" d="M1053.352,3750.021a1.284,1.284,0,1,1-1.284-1.283A1.284,1.284,0,0,1,1053.352,3750.021Z" transform="translate(-1047.433 -3748.738)" fill="#fff"/>
                  </g>
                  <path id="Trazado_245530" data-name="Trazado 245530" d="M1039.282,3769.777a2.358,2.358,0,0,1-1.99,1.43,4.9,4.9,0,0,1-2.135-.132c-1.061-.307-.8-.935-.782-1.874l.056-2.933c.051-2.687.1-17.314.152-20" transform="translate(-1011.168 -3734.045)" fill="none" stroke="#9b5548" stroke-linecap="round" stroke-linejoin="round" stroke-width="1.115"/>
                  <path id="Trazado_245531" data-name="Trazado 245531" d="M1042.476,3736.4h9.3c2.721,0,5.81.5,8.478-.062-1.573-.918-3.525-2.426-5.337-2.726a46.235,46.235,0,0,0-6.588-.982c-1.873-.005-3.073-.224-4.516,1.026C1043.736,3733.729,1041.832,3736.4,1042.476,3736.4Z" transform="translate(-1012.008 -3732.614)" fill="#09101e"/>
                  <path id="Trazado_245532" data-name="Trazado 245532" d="M1026.238,3743.869h-9.3c-2.72,0-5.81.5-8.477-.062,1.573-.918,3.525-2.426,5.337-2.726a46.235,46.235,0,0,1,6.588-.982c1.873-.006,3.073-.224,4.516,1.026C1024.979,3741.2,1026.883,3743.869,1026.238,3743.869Z" transform="translate(-1008.456 -3733.396)" fill="#09101e"/>
                </g>
                <path id="Trazado_245533" data-name="Trazado 245533" d="M1051.921,3779.98a7.886,7.886,0,0,1-5.313,3.938" transform="translate(-999.168 -3704.838)" fill="none" stroke="#fff" stroke-linecap="round" stroke-linejoin="round" stroke-width="1.115"/>
                <g id="Grupo_947384" data-name="Grupo 947384" transform="translate(6.348 35.602)">
                  <g id="Grupo_947383" data-name="Grupo 947383" transform="translate(0 0)">
                    <circle id="Elipse_4897" data-name="Elipse 4897" cx="11.121" cy="11.121" r="11.121" transform="matrix(0.63, -0.776, 0.776, 0.63, 0, 17.348)" fill="none" stroke="#fff" stroke-linecap="round" stroke-linejoin="round" stroke-width="1.115"/>
                    <circle id="Elipse_4898" data-name="Elipse 4898" cx="11.121" cy="11.121" r="11.121" transform="translate(31.149 15.727) rotate(-45)" fill="none" stroke="#fff" stroke-linecap="round" stroke-linejoin="round" stroke-width="1.115"/>
                    <line id="Línea_179" data-name="Línea 179" x2="8.991" transform="translate(26.823 15.609)" fill="none" stroke="#fff" stroke-linecap="round" stroke-linejoin="round" stroke-width="1.115"/>
                  </g>
                  <path id="Trazado_245534" data-name="Trazado 245534" d="M1065.343,3751.288q1.665-2.025,3.368-4.018" transform="translate(-1007.48 -3737.011)" fill="none" stroke="#fff" stroke-linecap="round" stroke-linejoin="round" stroke-width="1.115"/>
                  <path id="Trazado_245535" data-name="Trazado 245535" d="M1005.444,3751.456q-2.1-1.5-4.039-3.21" transform="translate(-1000.779 -3737.114)" fill="none" stroke="#fff" stroke-linecap="round" stroke-linejoin="round" stroke-width="1.115"/>
                </g>
                <g id="Grupo_947385" data-name="Grupo 947385" transform="translate(15.181 7.328)">
                  <path id="Trazado_245536" data-name="Trazado 245536" d="M1054.477,3704.226c4,.359,7.538,2.862,10.185,5.887" transform="translate(-1015.173 -3704.226)" fill="none" stroke="#fff" stroke-linecap="round" stroke-linejoin="round" stroke-width="1.115"/>
                  <path id="Trazado_245537" data-name="Trazado 245537" d="M1010.841,3732.543a1.152,1.152,0,0,0,.2,1.649,3.023,3.023,0,0,0,1.773.524,18.233,18.233,0,0,0,7.323-1.011c2.137-.773,3.8-2.258,5.822-3.154,5.006-2.218,9.626-5.136,14.923-6.691a46.7,46.7,0,0,1,14.785-1.562" transform="translate(-1010.572 -3706.116)" fill="none" stroke="#fff" stroke-linecap="round" stroke-linejoin="round" stroke-width="1.115"/>
                </g>
              </g>
            </g>
            <g id="Grupo_947390" data-name="Grupo 947390" transform="translate(0 93.501)">
              <g id="Grupo_947388" data-name="Grupo 947388">
                <path id="Trazado_245538" data-name="Trazado 245538" d="M1091.528,3816.6c-.079-.354-.708-.549-.766-.619s-.162-.125-.466-.365c-1.371-1.088-3.7-1.591-5.358-2.065-3.615-1.039-7.351-1.614-10.934-2.778a63.576,63.576,0,0,1-8.724-4.116l-8.734-4.387-3.455-1.736c-4.1,7.54-13.208,12.791-23.8,12.791-10.614,0-19.743-5.273-23.825-12.839l-6.324,3.177-11.67,5.862c-1.251.628-2.519,1.231-3.756,1.887-2.615,1.387-5.727,2-8.59,2.752-1.293.342-2.59.664-3.895.954-.692.154-3.249.268-3.628.814-.4.576.094,2.919.121,3.584q.5,12.182.993,24.363l.669,16.407,3.76,104.3H1084.48L1090.3,3860.8c.151-3.7-.263-6.927-.112-10.63.344-8.438.663-17.41,1.007-25.849.063-1.529.385-3.394.448-4.924A12.128,12.128,0,0,0,1091.528,3816.6Z" transform="translate(-967.448 -3800.488)" fill="#09101e"/>
              </g>
              <g id="Grupo_947389" data-name="Grupo 947389" transform="translate(0 13.51)" style="mix-blend-mode: multiply;isolation: isolate">
                <path id="Trazado_245539" data-name="Trazado 245539" d="M1025,3913.252a182,182,0,0,1-49.219-97.672c-.218.056-.439.111-.654.168-1.293.342-2.59.663-3.895.953-.692.154-3.249.268-3.628.815-.4.576.094,2.919.121,3.583q.5,12.182.993,24.363l.669,16.407,3.76,104.3H1084.48l.627-13.351C1063.5,3943.525,1041.455,3930.064,1025,3913.252Z" transform="translate(-967.448 -3815.58)" fill="#ccc"/>
              </g>
            </g>
          </g>
        </g>
        <path id="Trazado_245540" data-name="Trazado 245540" d="M1102.914,3875.134a163.457,163.457,0,0,0,.738-21.027c-.248-6.467,1.447-13.439,2.942-19.725" transform="translate(-806.717 -3710.54)" fill="none" stroke="#dbdbdb" stroke-miterlimit="10" stroke-width="1.115" style="mix-blend-mode: multiply;isolation: isolate"/>
        <path id="Trazado_245541" data-name="Trazado 245541" d="M1113.391,3948.839a58.69,58.69,0,0,1,9.6-17.562" transform="translate(-807.815 -3720.695)" fill="none" stroke="#9b5548" stroke-linecap="round" stroke-linejoin="round" stroke-width="1.115"/>
      </g>
      <g id="Grupo_947435" data-name="Grupo 947435" transform="translate(92.52 49.193)">
        <g id="Grupo_947396" data-name="Grupo 947396" transform="translate(62.249 125.765)">
          <g id="Grupo_947394" data-name="Grupo 947394" transform="translate(101.114 69.212)">
            <path id="Trazado_245542" data-name="Trazado 245542" d="M890.171,3952.235l-9.314,1.866,5.013-8.156Z" transform="translate(-880.857 -3945.946)" fill="#eee"/>
            <path id="Trazado_245543" data-name="Trazado 245543" d="M890.171,3952.235l-9.314,1.866,5.013-8.156Z" transform="translate(-880.857 -3945.946)" fill="#eee" style="mix-blend-mode: multiply;isolation: isolate"/>
          </g>
          <g id="Grupo_947395" data-name="Grupo 947395" transform="translate(0 6.607)">
            <path id="Trazado_245544" data-name="Trazado 245544" d="M899,3887.433l-20.656-11.421s-12.372,9.3-29.392,55.8L835.588,3960.9l.169.087c-.006.024-.015.046-.022.071l-27.243,53.065a7.038,7.038,0,0,0-1.388,2.705c-7.5,2.772-17.729,11.983-22.127,16.162-2.64.656-8.311,3.668-8.311,3.668-.059.046-.1.093-.153.139a39.6,39.6,0,0,0-3.8,1.982c-.009.008-.014.016-.023.023l-.009-.01c-4.518,1.733-3.493,3.809-2.786,4.648-2.713,2.5.3,4.03.3,4.03l1.311-1.033c-.348.39-.552.621-.552.621s-.01.025-.016.037l-.016-.007c-6.129,5.43-.865,6.794-.865,6.794l8.648-7.844c.008-.014.286-.195.747-.488a50.189,50.189,0,0,0-3.42,3.828c-.007.013-.009.024-.031.03-1.262,1.118-3.557,3.2-2.851,5.165.736,2.052,2.964,1.318,4.348.351a24.132,24.132,0,0,0,4.933-4.91,7.212,7.212,0,0,1,1.974-2.106c.549-.3,1.075-.641,1.606-.977q3.73-2.356,7.472-4.694c.113-.071.653-.335,1.081-.587l5.273-.2c-.961,1.5-1.94,3.085-2.2,3.4q-1.19,1.421-2.264,2.932a5.013,5.013,0,0,0-.781,1.417,2.907,2.907,0,0,0,1.043,3.058,3.379,3.379,0,0,0,3.264.382,6.2,6.2,0,0,0,1.733-1.185c1.207-1.08,6.28-6.723,7.18-7.636a11.415,11.415,0,0,0,2.065-2.54c.037-.07.068-.142.1-.213l.073,0,8.68-18.236a6.987,6.987,0,0,0,.6-.89l.232.1s29.359-35.536,36.052-52.426C861.72,3960.817,903.856,3899.521,899,3887.433Z" transform="translate(-767.909 -3876.011)" fill="#f9815d"/>
            <path id="Trazado_245545" data-name="Trazado 245545" d="M775.765,4075.062s-4.526-1.989.866-6.792l11.882-12.282" transform="translate(-768.542 -3894.874)" fill="none" stroke="#9b5548" stroke-linecap="round" stroke-linejoin="round" stroke-width="1.115"/>
            <path id="Trazado_245546" data-name="Trazado 245546" d="M770.049,4072.456s-3.916-1.293-1.165-4.754,14-14.387,14.174-14.455" transform="translate(-767.905 -3894.587)" fill="none" stroke="#9b5548" stroke-linecap="round" stroke-linejoin="round" stroke-width="1.115"/>
            <path id="Trazado_245547" data-name="Trazado 245547" d="M770.3,4065.943s-3.978-1.66,1.963-6.211a118.52,118.52,0,0,1,10.909-7.456" transform="translate(-768.019 -3894.485)" fill="none" stroke="#9b5548" stroke-linecap="round" stroke-linejoin="round" stroke-width="1.115"/>
            <path id="Trazado_245548" data-name="Trazado 245548" d="M769.856,4061.686c-.668-.68-1.65-2.314,1.787-4.089,4.519-2.334,13.465-6.365,13.465-6.365" transform="translate(-768.04 -3894.375)" fill="none" stroke="#9b5548" stroke-linecap="round" stroke-linejoin="round" stroke-width="1.115"/>
            <path id="Trazado_245549" data-name="Trazado 245549" d="M798.412,4070.582s3.449,2.955,8.1-3.506c0,0,5.849-5.9,6.849-7.705s3.236-6.9,3.236-6.9" transform="translate(-771.102 -3894.506)" fill="none" stroke="#9b5548" stroke-linecap="round" stroke-linejoin="round" stroke-width="1.115"/>
            <line id="Línea_180" data-name="Línea 180" y1="3.407" x2="2.437" transform="translate(31.732 162.064)" fill="none" stroke="#9b5548" stroke-linecap="round" stroke-linejoin="round" stroke-width="1.115"/>
          </g>
          <path id="Trazado_245550" data-name="Trazado 245550" d="M878.211,3885.716c.239-1.014,1.819-4.027,2.211-5.031,2.455-6.292,8.315-10.193,15.045-11.552,2.29-.463,6.1-.982,8.17.332a32.137,32.137,0,0,1,8.957,8.758,17.791,17.791,0,0,1,2.831,10.244c-.109,3.789-1.8,6.5-3.048,9.891a162.247,162.247,0,0,1-10.054,21.2c-4.536,8.345-9.41,16.506-14.424,24.57-2.693-2.12-5.453-4.151-8.326-6.024a71.687,71.687,0,0,0-20.4-9.415C867.412,3907.349,872.831,3894.317,878.211,3885.716Z" transform="translate(-777.47 -3868.63)" fill="#fff"/>
          <path id="Trazado_245551" data-name="Trazado 245551" d="M884.21,3943.134a37.992,37.992,0,0,0-20.033-9.979" transform="translate(-777.995 -3875.393)" fill="none" stroke="#eee" stroke-linecap="round" stroke-linejoin="round" stroke-width="1.115" style="mix-blend-mode: multiply;isolation: isolate"/>
        </g>
        <g id="Grupo_947415" data-name="Grupo 947415" transform="translate(0 0)">
          <g id="Grupo_947397" data-name="Grupo 947397" transform="translate(46.035 234.163)">
            <path id="Trazado_245552" data-name="Trazado 245552" d="M776.71,3990.791c1.229-1.74,72.69-.836,72.69-.836s51.385,48.461,21.724,141.2H758.747S729.5,4057.633,776.71,3990.791Z" transform="translate(-749.792 -3989.72)" fill="#ff4e4b"/>
            <path id="Trazado_245553" data-name="Trazado 245553" d="M856.683,4009.5c.667,16.635,11.263,31.9,25.342,40.784" transform="translate(-760.995 -3991.793)" fill="none" stroke="#f73333" stroke-linecap="round" stroke-linejoin="round" stroke-width="1.115" style="mix-blend-mode: multiply;isolation: isolate"/>
            <path id="Trazado_245554" data-name="Trazado 245554" d="M788.223,4009.5c-.666,16.635-11.262,31.9-25.341,40.784" transform="translate(-751.164 -3991.793)" fill="none" stroke="#f73333" stroke-linecap="round" stroke-linejoin="round" stroke-width="1.115" style="mix-blend-mode: multiply;isolation: isolate"/>
            <path id="Trazado_245555" data-name="Trazado 245555" d="M820.7,4134.083v-63.458h4.018v-56.589" transform="translate(-757.224 -3992.268)" fill="none" stroke="#f73333" stroke-linecap="round" stroke-linejoin="round" stroke-width="1.115" style="mix-blend-mode: multiply;isolation: isolate"/>
            <line id="Línea_181" data-name="Línea 181" x2="74.692" transform="translate(26.222 10.331)" fill="none" stroke="#f73333" stroke-linecap="round" stroke-linejoin="round" stroke-width="1.115" style="mix-blend-mode: multiply;isolation: isolate"/>
          </g>
          <g id="Grupo_947408" data-name="Grupo 947408" transform="translate(44.886)">
            <g id="Grupo_947407" data-name="Grupo 947407">
              <path id="Trazado_245556" data-name="Trazado 245556" d="M852.9,3821.448c-.406-3.111-.911-6.212-1.452-9.3-1.693-9.656-3.947-26.749-13.886-31.481a22.489,22.489,0,0,0-9.081-1.713,29.772,29.772,0,0,0-16.5,4.922c-.207-.257-.415-.513-.647-.751-3.619-3.729-9.351-4.319-14.546-4.171a22.486,22.486,0,0,0-9.081,1.713c-9.165,4.363-11.116,17.182-10.065,26.245.616,5.311,3.351,9.945,4.113,15.379q.087.615.138,1.245a37.907,37.907,0,0,1-3.46,19.18c-5.991,12.6-18.54,21.06-24.883,33.489a47.869,47.869,0,0,0-4.668,15.928,36.886,36.886,0,0,0,.907,15.241c2.26,7.411,7.655,13.46,13.511,18.535,8.345,7.23,18.535,13.185,29.576,13.328a36.368,36.368,0,0,0,16.56-4,46.781,46.781,0,0,0,22.678-26.082,53.4,53.4,0,0,0,2.732-22.8c10.124-13.819,17.709-29.719,18.85-46.711A92.513,92.513,0,0,0,852.9,3821.448Z" transform="translate(-748.508 -3733.465)" fill="#09101e"/>
              <g id="Grupo_947406" data-name="Grupo 947406" transform="translate(27.791)">
                <path id="Trazado_245557" data-name="Trazado 245557" d="M831.524,3855.124s.749-11.988,1.03-12.082l-12.364-1.873v-.469l-1.545.234-1.545-.234v.469l-12.363,1.873c.28.094,1.029,12.082,1.029,12.082s.281,9.741-5.057,12.551h35.87C831.243,3864.864,831.524,3855.124,831.524,3855.124Z" transform="translate(-781.771 -3739.938)" fill="#ffc4bc"/>
                <g id="Grupo_947398" data-name="Grupo 947398" transform="translate(22.936 100.762)" style="mix-blend-mode: multiply;isolation: isolate">
                  <path id="Trazado_245558" data-name="Trazado 245558" d="M832.777,3844.326a4.75,4.75,0,0,1,.214-1.284l-12.363-1.873v-.469l-1.545.234-1.545-.234v.469l-12.363,1.873c.28.093,1.027,12.028,1.029,12.08a52.477,52.477,0,0,0,17.677-5.012A34.868,34.868,0,0,0,832.777,3844.326Z" transform="translate(-805.175 -3840.7)" fill="#ffc4bc"/>
                </g>
                <g id="Grupo_947401" data-name="Grupo 947401" transform="translate(0.302 66.671)">
                  <g id="Grupo_947399" data-name="Grupo 947399">
                    <path id="Trazado_245559" data-name="Trazado 245559" d="M780.252,3805.017a8.026,8.026,0,0,0-.344,3.121,22.545,22.545,0,0,0,12.328,18.806q-2.044-6.6-4.088-13.2-1.033-3.33-2.064-6.661c-.352-1.139-.482-3.224-1.494-4.006C782.926,3801.8,780.834,3803.426,780.252,3805.017Z" transform="translate(-779.89 -3802.618)" fill="#ffc4bc"/>
                    <path id="Trazado_245560" data-name="Trazado 245560" d="M780.252,3805.017a8.026,8.026,0,0,0-.344,3.121,22.545,22.545,0,0,0,12.328,18.806q-2.044-6.6-4.088-13.2-1.033-3.33-2.064-6.661c-.352-1.139-.482-3.224-1.494-4.006C782.926,3801.8,780.834,3803.426,780.252,3805.017Z" transform="translate(-779.89 -3802.618)" fill="#ffc4bc" style="mix-blend-mode: multiply;isolation: isolate"/>
                    <path id="Trazado_245561" data-name="Trazado 245561" d="M782.585,3812.138a5.271,5.271,0,0,1-.219-1.823,1.589,1.589,0,0,1,2.8-1.042,4.679,4.679,0,0,1,1.035,1.684c2.016,4.8,2.8,10.132,5.534,14.559" transform="translate(-780.148 -3803.259)" fill="none" stroke="#9b5548" stroke-linecap="round" stroke-linejoin="round" stroke-width="1.115"/>
                    <path id="Trazado_245562" data-name="Trazado 245562" d="M786.623,3811.786a2.429,2.429,0,0,1-.274.758,8.181,8.181,0,0,0-.7,4.566,6.328,6.328,0,0,0,.422,1.6,9.239,9.239,0,0,0,1.054,1.757,13.247,13.247,0,0,0,2.163,2.487,15.055,15.055,0,0,1,2.32,1.962" transform="translate(-780.486 -3803.579)" fill="none" stroke="#9b5548" stroke-linecap="round" stroke-linejoin="round" stroke-width="1.115"/>
                  </g>
                  <g id="Grupo_947400" data-name="Grupo 947400" transform="translate(60.409)">
                    <path id="Trazado_245563" data-name="Trazado 245563" d="M859.356,3805.017a8.022,8.022,0,0,1,.344,3.121,22.545,22.545,0,0,1-12.328,18.806q2.044-6.6,4.088-13.2,1.033-3.33,2.064-6.661c.352-1.139.482-3.224,1.494-4.006C856.682,3801.8,858.774,3803.426,859.356,3805.017Z" transform="translate(-847.372 -3802.618)" fill="#ffc4bc"/>
                    <path id="Trazado_245564" data-name="Trazado 245564" d="M859.356,3805.017a8.022,8.022,0,0,1,.344,3.121,22.545,22.545,0,0,1-12.328,18.806q2.044-6.6,4.088-13.2,1.033-3.33,2.064-6.661c.352-1.139.482-3.224,1.494-4.006C856.682,3801.8,858.774,3803.426,859.356,3805.017Z" transform="translate(-847.372 -3802.618)" fill="#ffc4bc" style="mix-blend-mode: multiply;isolation: isolate"/>
                    <path id="Trazado_245565" data-name="Trazado 245565" d="M857.369,3812.138a5.269,5.269,0,0,0,.219-1.823,1.589,1.589,0,0,0-2.8-1.042,4.678,4.678,0,0,0-1.035,1.684c-2.016,4.8-2.8,10.132-5.534,14.559" transform="translate(-847.461 -3803.259)" fill="none" stroke="#9b5548" stroke-linecap="round" stroke-linejoin="round" stroke-width="1.115"/>
                    <path id="Trazado_245566" data-name="Trazado 245566" d="M853.724,3811.786a2.429,2.429,0,0,0,.274.758,8.181,8.181,0,0,1,.7,4.566,6.328,6.328,0,0,1-.422,1.6,9.236,9.236,0,0,1-1.054,1.757,13.242,13.242,0,0,1-2.163,2.487,15.055,15.055,0,0,0-2.32,1.962" transform="translate(-847.516 -3803.579)" fill="none" stroke="#9b5548" stroke-linecap="round" stroke-linejoin="round" stroke-width="1.115"/>
                  </g>
                </g>
                <path id="Trazado_245567" data-name="Trazado 245567" d="M817.214,3762.129h-.668s-40.085.75-30.157,41.959l6.181,19.48a31.113,31.113,0,0,0,23.522,17.023,2.787,2.787,0,0,0,1.575,0,31.114,31.114,0,0,0,23.523-17.023l6.181-19.48C857.3,3762.878,817.214,3762.129,817.214,3762.129Z" transform="translate(-780.104 -3731.703)" fill="#ffc4bc"/>
                <g id="Grupo_947404" data-name="Grupo 947404" transform="translate(15.4 65.671)">
                  <g id="Grupo_947402" data-name="Grupo 947402" transform="translate(8.036 5.277)">
                    <path id="Trazado_245568" data-name="Trazado 245568" d="M811.352,3811.39c0,2.052-1.258,3.715-2.81,3.715s-2.809-1.664-2.809-3.715,1.258-3.715,2.809-3.715S811.352,3809.338,811.352,3811.39Z" transform="translate(-805.733 -3807.425)" fill="#09101e"/>
                    <circle id="Elipse_4899" data-name="Elipse 4899" cx="1.124" cy="1.124" r="1.124" transform="translate(2.934)" fill="#fff"/>
                  </g>
                  <g id="Grupo_947403" data-name="Grupo 947403" transform="translate(30.638 5.277)">
                    <path id="Trazado_245569" data-name="Trazado 245569" d="M836.6,3811.39c0,2.052-1.258,3.715-2.81,3.715s-2.809-1.664-2.809-3.715,1.258-3.715,2.809-3.715S836.6,3809.338,836.6,3811.39Z" transform="translate(-830.982 -3807.425)" fill="#09101e"/>
                    <path id="Trazado_245570" data-name="Trazado 245570" d="M836.508,3808.519a1.124,1.124,0,1,1-1.124-1.123A1.125,1.125,0,0,1,836.508,3808.519Z" transform="translate(-831.326 -3807.396)" fill="#fff"/>
                  </g>
                  <path id="Trazado_245571" data-name="Trazado 245571" d="M819.914,3808.913q-.074,3.92-.148,7.837l-.054,2.853c-.018.912-.27,1.522.76,1.822a4.766,4.766,0,0,0,2.077.128,2.3,2.3,0,0,0,1.935-1.39" transform="translate(-799.158 -3802.278)" fill="none" stroke="#9b5548" stroke-linecap="round" stroke-linejoin="round" stroke-width="1.115"/>
                  <circle id="Elipse_4900" data-name="Elipse 4900" cx="2.31" cy="2.31" r="2.31" transform="translate(33.885 18.889)" fill="#ff958a"/>
                  <circle id="Elipse_4901" data-name="Elipse 4901" cx="2.31" cy="2.31" r="2.31" transform="translate(7.005 18.889)" fill="#ff958a"/>
                  <path id="Trazado_245572" data-name="Trazado 245572" d="M817.679,3834.28a7.82,7.82,0,0,0,6.171.337" transform="translate(-798.949 -3804.936)" fill="none" stroke="#9b5548" stroke-linecap="round" stroke-linejoin="round" stroke-width="1.115"/>
                  <path id="Trazado_245573" data-name="Trazado 245573" d="M827.581,3803.813h15.792a.223.223,0,0,0,.047-.441l-7.916-1.682s-3.183-1.023-8.031,1.7A.225.225,0,0,0,827.581,3803.813Z" transform="translate(-799.964 -3801.501)" fill="#09101e"/>
                  <path id="Trazado_245574" data-name="Trazado 245574" d="M812.772,3803.813H796.979a.223.223,0,0,1-.046-.441l7.916-1.682s3.182-1.023,8.03,1.7A.225.225,0,0,1,812.772,3803.813Z" transform="translate(-796.756 -3801.501)" fill="#09101e"/>
                </g>
                <g id="Grupo_947405" data-name="Grupo 947405">
                  <path id="Trazado_245575" data-name="Trazado 245575" d="M804.837,3776.32a48.833,48.833,0,0,0,9.466,7.8,78.189,78.189,0,0,0,36.135,12.914,1.879,1.879,0,0,0,1.057-.108,1.832,1.832,0,0,0,.745-1.182c6.824-22.919-20.5-38.8-40.258-36.167-3.319.441-8.04,1.628-9.74,4.913C800.026,3768.765,801.818,3772.852,804.837,3776.32Z" transform="translate(-781.828 -3731.406)" fill="#09101e"/>
                  <path id="Trazado_245576" data-name="Trazado 245576" d="M794.461,3794.431c.337-.528.661-1.065.989-1.6a90.383,90.383,0,0,1,7.842-10.56c1.764-2.092,6.325-5.466,6.747-8.179.5-3.192.744-6.651-.844-9.464-2.018-3.573-6.665-5.09-10.69-4.288s-7.439,3.518-10.043,6.69c-5.495,6.692-8.966,14.21-8.908,23.068a11.1,11.1,0,0,0,1.442,6.132c2.41,3.619,8.274,3.781,11.426.786A13.632,13.632,0,0,0,794.461,3794.431Z" transform="translate(-779.553 -3731.494)" fill="#09101e"/>
                  <circle id="Elipse_4902" data-name="Elipse 4902" cx="18.671" cy="18.671" r="18.671" transform="matrix(0.769, -0.639, 0.639, 0.769, 7.38, 23.869)" fill="#09101e"/>
                  <path id="Trazado_245577" data-name="Trazado 245577" d="M801.16,3772.268a31.183,31.183,0,0,0,5.788,7.412c.509.48,1.035.944,1.565,1.4,4.52,3.9,11.408,8.7,17.1,10.52" transform="translate(-781.818 -3732.766)" fill="none" stroke="#fff" stroke-linecap="round" stroke-linejoin="round" stroke-width="1.115"/>
                  <path id="Trazado_245578" data-name="Trazado 245578" d="M816.194,3760.385a26.934,26.934,0,0,1,14.331.939" transform="translate(-783.393 -3731.462)" fill="none" stroke="#fff" stroke-linecap="round" stroke-linejoin="round" stroke-width="1.115"/>
                </g>
              </g>
            </g>
            <path id="Trazado_245579" data-name="Trazado 245579" d="M846.747,3977.005c1.288-1.462,21.09-24.686,16.643-65.513-.009-.086-.027-.171-.041-.256a115.575,115.575,0,0,0-3.406-14.474,106.281,106.281,0,0,0-3.651-10.466c-1.3-3.108-2.6-6.857-4.786-9.458-2.695-3.2-6.968-4.48-10.6-6.562-2.879-1.651-4.836-4.2-7.484-6.046-2.024-1.409-4.354-3.063-5.422-5.376H802.136c-1.253,2.715-5.565,5.848-5.565,5.848a31.482,31.482,0,0,1-9.441,6.71,21.66,21.66,0,0,0-9.365,8.541c-7.556,12.81-10.438,31.538-10.438,31.538-4.446,40.827,15.355,64.051,16.643,65.513Z" transform="translate(-750.412 -3741.841)" fill="#ffc4bc"/>
          </g>
          <g id="Grupo_947410" data-name="Grupo 947410" transform="translate(0 125.524)">
            <g id="Grupo_947409" data-name="Grupo 947409" transform="translate(72.877 71.431)">
              <path id="Trazado_245580" data-name="Trazado 245580" d="M788.293,3953.12l-8.516,4.21,2.735-9.174Z" transform="translate(-779.777 -3948.156)" fill="#ff981f"/>
              <path id="Trazado_245581" data-name="Trazado 245581" d="M788.293,3953.12l-8.516,4.21,2.735-9.174Z" transform="translate(-779.777 -3948.156)" fill="#ffd7b5" style="mix-blend-mode: multiply;isolation: isolate"/>
            </g>
            <path id="Trazado_245582" data-name="Trazado 245582" d="M786.475,3892.871c1.044-9.4-4.848-17.772-13.161-18.7s-15.9,5.95-16.941,15.352a19.337,19.337,0,0,0-.093,2.713c-2.859,9.323-6.156,24.424-8.277,48.059l-5.4,31.556.187.039c0,.025,0,.049,0,.074-.12-.01-1.283,5.934-1.356,6.272l-4.1,18.971-4.531,20.953q-.837,3.872-1.674,7.743c-.541,2.5-.8,5.531-2.278,7.624a15.538,15.538,0,0,1-1.58,1.8c-1.938,2-4.181,3.81-5.909,5.955-1.878,2.33-3.625,4.762-5.306,7.238-.985,1.449-1.856,3.008-2.889,4.419-1.166,1.6-3.015,2.518-4.668,3.513a34.956,34.956,0,0,0-4.728,3.411c-1.079.925-2,2.01-3.052,2.969a5.661,5.661,0,0,0-2.079,3.079,4.032,4.032,0,0,0-.159,1.157,1.569,1.569,0,0,0,.431,1.061.989.989,0,0,0,1.081.218,1.4,1.4,0,0,1,.3-.143c.434-.093.079.926.058,1.172a11.892,11.892,0,0,0,.029,1.812,1.423,1.423,0,0,0,.327.894.7.7,0,0,0,.877.141c.217-.156.287-.445.461-.647.052-.061.133-.118.207-.088.216.086-.63,1.276-.731,1.452a9.675,9.675,0,0,0-.859,1.89,2.815,2.815,0,0,0,.92,3.448,1.957,1.957,0,0,0,2.425-.323,3.51,3.51,0,0,0,.447-.668c.611-1.1.99-2.368,1.66-3.418.4-.629,3.933-5.91,4.082-6.076a21.2,21.2,0,0,1-1.981,3.859,13.222,13.222,0,0,0-1.6,4.774,3.631,3.631,0,0,0,.284,2.094c.36.67,1.281,1.266,1.928.735a7.184,7.184,0,0,0,1-1.48c.583-.863,7.893-11.18,9.237-12.6,1.813-1.914,3.583-4.353,5.984-5.542a7.338,7.338,0,0,1,2.71-.744,1.755,1.755,0,0,1,1.516.436,1.322,1.322,0,0,1,.192,1.17,3.894,3.894,0,0,1-.553,1.094l-2.541,3.934a4.542,4.542,0,0,0-.747,2.219,2.908,2.908,0,0,0,1.8,2.686c2.908,1.191,4.982-2.391,6.21-4.451a51.92,51.92,0,0,0,3.227-6.375,27.626,27.626,0,0,0,1.9-5.33c.473-2.471.916-4.95,1.373-7.425.111-.6,1.078-6.867,1.686-9.866a6.975,6.975,0,0,0,.855-1.97l.25.033s19.179-41.915,21.28-59.961c3.041-8.431,20.968-58.957,22.129-81.287C786.38,3893.492,786.44,3893.187,786.475,3892.871Z" transform="translate(-698.379 -3868.962)" fill="#ffc4bc"/>
            <path id="Trazado_245583" data-name="Trazado 245583" d="M762.631,3889.728a22.584,22.584,0,0,1,.108-3.166c.745-6.713,4.616-13.16,10.766-16.214,2.092-1.039,5.638-2.524,7.977-1.79A32.131,32.131,0,0,1,792.4,3874.7a17.786,17.786,0,0,1,5.381,9.164c.874,3.688-.058,6.744-.388,10.342a162.417,162.417,0,0,1-4.233,23.083c-2.225,9.234-4.825,18.376-7.585,27.463-3.149-1.352-6.34-2.6-9.6-3.668a71.718,71.718,0,0,0-22.142-3.824C756.278,3914.517,759.656,3899.428,762.631,3889.728Z" transform="translate(-704.18 -3868.362)" fill="#ff981f"/>
            <path id="Trazado_245584" data-name="Trazado 245584" d="M779.935,3946A37.983,37.983,0,0,0,758,3941.537" transform="translate(-704.618 -3876.012)" fill="none" stroke="#ffd7b5" stroke-linecap="round" stroke-linejoin="round" stroke-width="1.115" style="mix-blend-mode: multiply;isolation: isolate"/>
            <path id="Trazado_245585" data-name="Trazado 245585" d="M728.762,4079.516c-6.6,4-11.426,10.3-16.087,16.454a10.136,10.136,0,0,0-1.565,3.362c-.252.84-1.293,1.975-2.43,1.695a1.526,1.526,0,0,1-.83-.626c-.934-1.3-.516-3.1.07-4.594,1.362-3.468,3.678-6.28,5.374-9.557l3.181-6.151" transform="translate(-699.304 -3890.492)" fill="none" stroke="#9b5548" stroke-linecap="round" stroke-linejoin="round" stroke-width="1.115"/>
            <path id="Trazado_245586" data-name="Trazado 245586" d="M711.612,4077.037a6.318,6.318,0,0,0-2.778,1.82,40.248,40.248,0,0,0-4.247,4.853c-.534.717-1.042,1.452-1.548,2.19-1.27,1.85-2.573,3.876-2.508,6.118.017.612.526,1.558,1.125,1.68" transform="translate(-698.594 -3890.233)" fill="none" stroke="#9b5548" stroke-linecap="round" stroke-linejoin="round" stroke-width="1.115"/>
            <path id="Trazado_245587" data-name="Trazado 245587" d="M704.653,4098.833a1.577,1.577,0,0,1-.9,1.06,2.125,2.125,0,0,1-1.408.087c-1.534-.406-1.856-2.013-1.59-3.42a9.943,9.943,0,0,1,1.337-3.052l2.457-4.24,5.043-8.7a18.1,18.1,0,0,1,1.32-2.058" transform="translate(-698.609 -3890.387)" fill="none" stroke="#9b5548" stroke-linecap="round" stroke-linejoin="round" stroke-width="1.115"/>
            <path id="Trazado_245588" data-name="Trazado 245588" d="M700.614,4090.023a1.048,1.048,0,0,1-1.239.474,1.5,1.5,0,0,1-.928-1.032,2.709,2.709,0,0,1,.039-1.429,6.379,6.379,0,0,1,1.8-2.858,13.663,13.663,0,0,0,1.621-1.646" transform="translate(-698.367 -3890.914)" fill="none" stroke="#9b5548" stroke-linecap="round" stroke-linejoin="round" stroke-width="1.115"/>
            <path id="Trazado_245589" data-name="Trazado 245589" d="M729.785,4086.928a18.493,18.493,0,0,0,3.243-6.988" transform="translate(-701.66 -3890.537)" fill="none" stroke="#9b5548" stroke-linecap="round" stroke-linejoin="round" stroke-width="1.115"/>
          </g>
          <g id="Grupo_947412" data-name="Grupo 947412" transform="translate(57.078 124.098)">
            <path id="Trazado_245590" data-name="Trazado 245590" d="M866.569,3986.051l-3.014-62.246a108.485,108.485,0,0,0-.642-11.483c-.009-.086-.027-.171-.041-.256a115.564,115.564,0,0,0-3.406-14.474,106.3,106.3,0,0,0-3.651-10.466c-1.3-3.108-2.6-6.857-4.786-9.458-2.695-3.2-6.968-4.479-10.6-6.562a33.05,33.05,0,0,1-5.359-4.338c-5.418,6.639-12.471,10.664-20.191,10.664-7.687,0-14.714-3.99-20.122-10.579a32.8,32.8,0,0,1-8.107,5.39,21.66,21.66,0,0,0-9.365,8.541c-7.556,12.81-10.438,31.539-10.438,31.539-.209,1.918-.348,3.786-.455,5.626l-4.267,68.1h21.245l.121.138H846.27c.029-.031.076-.087.121-.138Z" transform="translate(-762.128 -3866.768)" fill="#ff981f"/>
            <g id="Grupo_947411" data-name="Grupo 947411" transform="translate(0 14.447)" style="mix-blend-mode: multiply;isolation: isolate">
              <path id="Trazado_245591" data-name="Trazado 245591" d="M809.827,3946.307c-15.813-18.109-27.591-39.968-32.785-63.4-7.371,12.795-10.192,31.107-10.192,31.107-.209,1.918-.348,3.786-.455,5.626l-4.267,68.1h21.245l.121.138H846.27c.029-.031.076-.087.121-.138h2.289C834.278,3978.534,821.06,3959.171,809.827,3946.307Z" transform="translate(-762.128 -3882.906)" fill="#ffd7b5"/>
            </g>
            <path id="Trazado_245592" data-name="Trazado 245592" d="M866.529,3894.618c5.647,7.611,6.965,17.5,8.015,26.915" transform="translate(-773.07 -3869.687)" fill="none" stroke="#ffd7b5" stroke-linecap="round" stroke-linejoin="round" stroke-width="1.115" style="mix-blend-mode: multiply;isolation: isolate"/>
          </g>
          <g id="Grupo_947414" data-name="Grupo 947414" transform="translate(123.713 102.428)">
            <path id="Trazado_245593" data-name="Trazado 245593" d="M1000.412,3887.222a7.041,7.041,0,0,0-1.4-2.687l.036-.04-.193-.145a6.882,6.882,0,0,0-2.122-1.6L949,3846.735a11.451,11.451,0,0,0-12.626-3.5l-28.848,5.981c-23.545,2.95-38.52,6.775-47.738,9.959a19.38,19.38,0,0,0-2.708.188c-9.359,1.374-15.962,9.2-14.748,17.471s9.786,13.87,19.146,12.5c.315-.047.618-.118.927-.179,19.655-1.715,60.788-17.246,75.913-23.169,15.982,12.2,51.771,28.619,51.771,28.619l.044-.049a6.594,6.594,0,0,0,5.617,1.068A6.791,6.791,0,0,0,1000.412,3887.222Z" transform="translate(-837.155 -3842.562)" fill="#ffc4bc"/>
            <g id="Grupo_947413" data-name="Grupo 947413" transform="translate(71.382 29.566)">
              <path id="Trazado_245594" data-name="Trazado 245594" d="M921.468,3884.248l3.908-8.658-9.072,3.055Z" transform="translate(-916.304 -3875.59)" fill="#ff981f"/>
              <path id="Trazado_245595" data-name="Trazado 245595" d="M921.468,3884.248l3.908-8.658-9.072,3.055Z" transform="translate(-916.304 -3875.59)" fill="#ffd7b5" style="mix-blend-mode: multiply;isolation: isolate"/>
            </g>
            <path id="Trazado_245596" data-name="Trazado 245596" d="M857.311,3860.581a22.507,22.507,0,0,0-3.161.218c-6.683.981-12.99,5.075-15.825,11.328-.965,2.128-2.326,5.724-1.51,8.036a32.136,32.136,0,0,0,6.526,10.694,17.794,17.794,0,0,0,9.347,5.056c3.717.744,6.739-.294,10.323-.75a162.428,162.428,0,0,0,22.92-5.041c9.15-2.547,18.2-5.467,27.18-8.544-1.461-3.1-2.822-6.244-4-9.465a71.716,71.716,0,0,1-4.6-21.995C881.862,3853.362,866.9,3857.267,857.311,3860.581Z" transform="translate(-836.565 -3843.354)" fill="#ff981f"/>
            <path id="Trazado_245597" data-name="Trazado 245597" d="M914.058,3876.182a38,38,0,0,1-5.23-21.763" transform="translate(-844.131 -3843.805)" fill="none" stroke="#ffd7b5" stroke-linecap="round" stroke-linejoin="round" stroke-width="1.115" style="mix-blend-mode: multiply;isolation: isolate"/>
          </g>
        </g>
        <g id="Grupo_947433" data-name="Grupo 947433" transform="translate(139.987 23.326)">
          <g id="Grupo_947416" data-name="Grupo 947416" transform="translate(0 210.837)">
            <path id="Trazado_245598" data-name="Trazado 245598" d="M881.662,3990.791c1.229-1.74,72.69-.836,72.69-.836s51.386,48.461,21.724,141.2H863.7S834.455,4057.633,881.662,3990.791Z" transform="translate(-854.744 -3989.72)" fill="#09101e"/>
            <path id="Trazado_245599" data-name="Trazado 245599" d="M961.636,4009.5c.666,16.635,11.262,31.9,25.341,40.784" transform="translate(-865.947 -3991.793)" fill="none" stroke="#fff" stroke-linecap="round" stroke-linejoin="round" stroke-width="1.115"/>
            <path id="Trazado_245600" data-name="Trazado 245600" d="M893.175,4009.5c-.666,16.635-11.262,31.9-25.341,40.784" transform="translate(-856.116 -3991.793)" fill="none" stroke="#fff" stroke-linecap="round" stroke-linejoin="round" stroke-width="1.115"/>
            <path id="Trazado_245601" data-name="Trazado 245601" d="M925.648,4134.083v-63.458h4.018v-56.589" transform="translate(-862.176 -3992.268)" fill="none" stroke="#fff" stroke-linecap="round" stroke-linejoin="round" stroke-width="1.115"/>
            <line id="Línea_182" data-name="Línea 182" x2="74.692" transform="translate(26.222 10.331)" fill="none" stroke="#fff" stroke-linecap="round" stroke-linejoin="round" stroke-width="1.115"/>
          </g>
          <g id="Grupo_947425" data-name="Grupo 947425" transform="translate(15.116)">
            <path id="Trazado_245602" data-name="Trazado 245602" d="M906.425,3771.616l25.246-2.365c6.379-.6,11.914,1.976,16.255,6.433,1.977,2.03,4.554,3.188,6.377,5.514a18.117,18.117,0,0,1,3.629,8.106,26.724,26.724,0,0,0,.573,3.191c1.22,4.117,5.723,6.833,6.3,11.089.155,1.157,0,2.344.193,3.494.294,1.73,1.352,3.217,2.082,4.813a25.2,25.2,0,0,1,1.743,8.991c.307,4.9.342,10-2.138,14.4-2.3,4.076-5.193,7.545-9.506,9.591l-.191.09a83.07,83.07,0,0,1-69.665.5c-3.166-1.41-5.678-3.83-8.291-6.017a16.773,16.773,0,0,1-5.464-8.217,13.617,13.617,0,0,1,2.331-12.146,3.824,3.824,0,0,0,.81-1.246,3.642,3.642,0,0,0,.051-1.312,16.335,16.335,0,0,1,3.4-11.059,12.073,12.073,0,0,0,1.584-2.236,11.072,11.072,0,0,0,.568-4.439,16.633,16.633,0,0,1,1.938-7.666c1.336-2.4,4.119-3.514,5.309-5.787s1.829-4.534,3.514-6.6A19.726,19.726,0,0,1,906.425,3771.616Z" transform="translate(-871.778 -3755.767)" fill="#09101e"/>
            <path id="Trazado_245603" data-name="Trazado 245603" d="M968.342,3909.59c-.009-.086-.027-.171-.041-.256a115.586,115.586,0,0,0-3.406-14.474,106.049,106.049,0,0,0-3.651-10.466c-2.758-6.579-5.173-11.75-11.807-15.087-2.269-1.141-5.089-1.932-7.133-3.448-1.407-1.043-2.438-2.5-3.927-3.531-2.017-1.4-4.335-3.053-5.409-5.352-.079-1.119-.058-1.852-.058-1.852s.749-11.988,1.03-12.082l-12.363-1.873v-.469l-1.546.234-1.545-.234v.469l-12.363,1.873c.281.094,1.03,12.082,1.03,12.082s.02.723-.065,1.828c-1.254,2.715-5.565,5.848-5.565,5.848a31.485,31.485,0,0,1-9.442,6.71,21.659,21.659,0,0,0-9.365,8.541c-7.556,12.81-10.438,31.539-10.438,31.539-4.446,40.827,15.355,64.051,16.643,65.513H951.7C952.987,3973.641,972.788,3950.417,968.342,3909.59Z" transform="translate(-871.63 -3763.264)" fill="#f9815d"/>
            <g id="Grupo_947417" data-name="Grupo 947417" transform="translate(34.462 77.436)" opacity="0.3" style="mix-blend-mode: multiply;isolation: isolate">
              <path id="Trazado_245604" data-name="Trazado 245604" d="M937.729,3844.326a4.748,4.748,0,0,1,.214-1.284l-12.363-1.873v-.469l-1.546.234-1.545-.234v.469l-12.363,1.873c.28.093,1.027,12.028,1.03,12.08a52.476,52.476,0,0,0,17.676-5.012A34.865,34.865,0,0,0,937.729,3844.326Z" transform="translate(-910.127 -3840.7)" fill="#f9815d"/>
            </g>
            <g id="Grupo_947420" data-name="Grupo 947420" transform="translate(11.828 43.345)">
              <g id="Grupo_947418" data-name="Grupo 947418">
                <path id="Trazado_245605" data-name="Trazado 245605" d="M885.2,3805.017a8.006,8.006,0,0,0-.345,3.121,22.546,22.546,0,0,0,12.329,18.806q-2.045-6.6-4.089-13.2-1.033-3.33-2.064-6.661c-.352-1.139-.482-3.224-1.494-4.006C887.878,3801.8,885.786,3803.426,885.2,3805.017Z" transform="translate(-884.842 -3802.618)" fill="#f9815d"/>
                <path id="Trazado_245606" data-name="Trazado 245606" d="M885.2,3805.017a8.006,8.006,0,0,0-.345,3.121,22.546,22.546,0,0,0,12.329,18.806q-2.045-6.6-4.089-13.2-1.033-3.33-2.064-6.661c-.352-1.139-.482-3.224-1.494-4.006C887.878,3801.8,885.786,3803.426,885.2,3805.017Z" transform="translate(-884.842 -3802.618)" fill="#f9815d" opacity="0.3" style="mix-blend-mode: multiply;isolation: isolate"/>
                <path id="Trazado_245607" data-name="Trazado 245607" d="M887.537,3812.138a5.289,5.289,0,0,1-.219-1.823,1.793,1.793,0,0,1,.966-1.474,1.774,1.774,0,0,1,1.833.432,4.679,4.679,0,0,1,1.035,1.684c2.017,4.8,2.8,10.132,5.534,14.559" transform="translate(-885.1 -3803.259)" fill="none" stroke="#9b5548" stroke-linecap="round" stroke-linejoin="round" stroke-width="1.115"/>
                <path id="Trazado_245608" data-name="Trazado 245608" d="M891.575,3811.786a2.45,2.45,0,0,1-.273.758,8.19,8.19,0,0,0-.7,4.566,6.331,6.331,0,0,0,.422,1.6,9.244,9.244,0,0,0,1.055,1.757,13.244,13.244,0,0,0,2.162,2.487,15.012,15.012,0,0,1,2.32,1.962" transform="translate(-885.438 -3803.579)" fill="none" stroke="#9b5548" stroke-linecap="round" stroke-linejoin="round" stroke-width="1.115"/>
                <path id="Trazado_245609" data-name="Trazado 245609" d="M894.274,3826.413c-3.807,0-6.893,4.255-6.893,9.5s3.086,9.5,6.893,9.5,6.893-4.255,6.893-9.5a11.275,11.275,0,0,0-2.374-7.177" transform="translate(-885.108 -3805.112)" fill="none" stroke="#fff" stroke-linecap="round" stroke-linejoin="round" stroke-width="1.115"/>
              </g>
              <g id="Grupo_947419" data-name="Grupo 947419" transform="translate(56.582)">
                <path id="Trazado_245610" data-name="Trazado 245610" d="M964.308,3805.017a8,8,0,0,1,.344,3.121,22.543,22.543,0,0,1-12.328,18.806q2.044-6.6,4.089-13.2,1.031-3.33,2.063-6.661c.352-1.139.482-3.224,1.495-4.006C961.634,3801.8,963.727,3803.426,964.308,3805.017Z" transform="translate(-948.497 -3802.618)" fill="#f9815d"/>
                <path id="Trazado_245611" data-name="Trazado 245611" d="M964.308,3805.017a8,8,0,0,1,.344,3.121,22.543,22.543,0,0,1-12.328,18.806q2.044-6.6,4.089-13.2,1.031-3.33,2.063-6.661c.352-1.139.482-3.224,1.495-4.006C961.634,3801.8,963.727,3803.426,964.308,3805.017Z" transform="translate(-948.497 -3802.618)" fill="#f9815d" opacity="0.3" style="mix-blend-mode: multiply;isolation: isolate"/>
                <path id="Trazado_245612" data-name="Trazado 245612" d="M962.322,3812.138a5.286,5.286,0,0,0,.219-1.823,1.8,1.8,0,0,0-.966-1.474,1.774,1.774,0,0,0-1.833.432,4.68,4.68,0,0,0-1.036,1.684c-2.016,4.8-2.8,10.132-5.534,14.559" transform="translate(-948.586 -3803.259)" fill="none" stroke="#9b5548" stroke-linecap="round" stroke-linejoin="round" stroke-width="1.115"/>
                <path id="Trazado_245613" data-name="Trazado 245613" d="M958.676,3811.786a2.427,2.427,0,0,0,.274.758,8.181,8.181,0,0,1,.7,4.566,6.255,6.255,0,0,1-.422,1.6,9.239,9.239,0,0,1-1.054,1.757,13.247,13.247,0,0,1-2.163,2.487,15.014,15.014,0,0,0-2.319,1.962" transform="translate(-948.641 -3803.579)" fill="none" stroke="#9b5548" stroke-linecap="round" stroke-linejoin="round" stroke-width="1.115"/>
                <path id="Trazado_245614" data-name="Trazado 245614" d="M954.942,3826.413c3.806,0,6.893,4.255,6.893,9.5s-3.087,9.5-6.893,9.5-6.893-4.255-6.893-9.5a11.275,11.275,0,0,1,2.374-7.177" transform="translate(-948.049 -3805.112)" fill="none" stroke="#fff" stroke-linecap="round" stroke-linejoin="round" stroke-width="1.115"/>
              </g>
            </g>
            <path id="Trazado_245615" data-name="Trazado 245615" d="M922.166,3762.129H921.5s-40.085.75-30.157,41.959l6.181,19.48a31.113,31.113,0,0,0,23.523,17.023,2.787,2.787,0,0,0,1.575,0,31.113,31.113,0,0,0,23.522-17.023l6.181-19.48C962.251,3762.878,922.166,3762.129,922.166,3762.129Z" transform="translate(-873.53 -3755.029)" fill="#f9815d"/>
            <g id="Grupo_947421" data-name="Grupo 947421" transform="translate(7.789)">
              <path id="Trazado_245616" data-name="Trazado 245616" d="M932.539,3775.787a48.79,48.79,0,0,1-9.466,7.8,78.149,78.149,0,0,1-24.505,10.909q-3.231.814-6.523,1.35c-1.725.28-4.564,1.173-6.273.656-3.2-.968-5.153-7.641-5.4-10.531-.329-3.875,1.249-8.052,4.544-10.118a3.6,3.6,0,0,0,1.1-.858,3.332,3.332,0,0,0,.4-1.814,15.119,15.119,0,0,1,19.981-13.587,11.657,11.657,0,0,1,5.63-3.673,24.365,24.365,0,0,1,9.123-1.709,13.911,13.911,0,0,1,8.619,3.105,5.852,5.852,0,0,0,1.718,1.224,9.048,9.048,0,0,0,1.678.27c2.693.426,4.556,3.228,4.613,5.954a10.728,10.728,0,0,1-2.009,5.983A39.581,39.581,0,0,1,932.539,3775.787Z" transform="translate(-880.33 -3754.198)" fill="#09101e"/>
              <path id="Trazado_245617" data-name="Trazado 245617" d="M945.834,3794.35c-.337-.527-.661-1.065-.989-1.6a90.352,90.352,0,0,0-7.841-10.56c-1.764-2.092-6.325-5.466-6.748-8.179-.5-3.191-.744-6.651.844-9.464,1.5-2.653,6.1-4.548,8.981-5.037a9.394,9.394,0,0,1,8.171,2.264c.92.921,1.594,2.08,2.6,2.909a34.727,34.727,0,0,0,3.02,1.84,8.06,8.06,0,0,1,3.428,5.24,23.388,23.388,0,0,0,.434,2.756,20.1,20.1,0,0,0,1.833,3.387c1.731,3.254.936,6.433.946,9.89.009,2.9.537,5.721-1.214,8.352-2.41,3.619-8.273,3.781-11.426.786A13.648,13.648,0,0,1,945.834,3794.35Z" transform="translate(-885.523 -3754.739)" fill="#09101e"/>
              <path id="Trazado_245618" data-name="Trazado 245618" d="M939.886,3772.268a31.16,31.16,0,0,1-5.788,7.412c-.508.48-1.034.944-1.564,1.4-4.521,3.9-11.408,8.7-17.1,10.52" transform="translate(-884.01 -3756.092)" fill="none" stroke="#fff" stroke-linecap="round" stroke-linejoin="round" stroke-width="1.115"/>
            </g>
            <g id="Grupo_947424" data-name="Grupo 947424" transform="translate(26.927 39.838)">
              <g id="Grupo_947422" data-name="Grupo 947422" transform="translate(8.035 7.784)">
                <path id="Trazado_245619" data-name="Trazado 245619" d="M916.3,3811.39c0,2.052-1.258,3.715-2.809,3.715s-2.81-1.664-2.81-3.715,1.258-3.715,2.81-3.715S916.3,3809.338,916.3,3811.39Z" transform="translate(-910.685 -3807.425)" fill="#09101e"/>
                <circle id="Elipse_4903" data-name="Elipse 4903" cx="1.124" cy="1.124" r="1.124" transform="translate(2.935)" fill="#fff"/>
              </g>
              <g id="Grupo_947423" data-name="Grupo 947423" transform="translate(30.638 7.784)">
                <path id="Trazado_245620" data-name="Trazado 245620" d="M941.553,3811.39c0,2.052-1.258,3.715-2.809,3.715s-2.81-1.664-2.81-3.715,1.258-3.715,2.81-3.715S941.553,3809.338,941.553,3811.39Z" transform="translate(-935.934 -3807.425)" fill="#09101e"/>
                <path id="Trazado_245621" data-name="Trazado 245621" d="M941.46,3808.519a1.124,1.124,0,1,1-1.124-1.123A1.125,1.125,0,0,1,941.46,3808.519Z" transform="translate(-936.278 -3807.396)" fill="#fff"/>
              </g>
              <path id="Trazado_245622" data-name="Trazado 245622" d="M924.866,3808.913q-.074,3.92-.148,7.837-.027,1.426-.054,2.853c-.017.912-.27,1.522.76,1.822a4.768,4.768,0,0,0,2.077.128,2.294,2.294,0,0,0,1.935-1.39" transform="translate(-904.111 -3799.771)" fill="none" stroke="#9b5548" stroke-linecap="round" stroke-linejoin="round" stroke-width="1.115"/>
              <circle id="Elipse_4904" data-name="Elipse 4904" cx="2.31" cy="2.31" r="2.31" transform="translate(33.885 21.395)" fill="#ff7045"/>
              <circle id="Elipse_4905" data-name="Elipse 4905" cx="2.31" cy="2.31" r="2.31" transform="translate(7.005 21.395)" fill="#ff7045"/>
              <path id="Trazado_245623" data-name="Trazado 245623" d="M932.533,3806.846h15.793a.223.223,0,0,0,.046-.44l-7.916-1.683s-3.182-1.022-8.03,1.7A.224.224,0,0,0,932.533,3806.846Z" transform="translate(-904.916 -3799.313)" fill="#09101e"/>
              <path id="Trazado_245624" data-name="Trazado 245624" d="M917.724,3801.011H901.932a.223.223,0,0,1-.047-.44l7.916-1.682s3.183-1.023,8.031,1.7A.224.224,0,0,1,917.724,3801.011Z" transform="translate(-901.709 -3798.701)" fill="#09101e"/>
              <path id="Trazado_245625" data-name="Trazado 245625" d="M934.068,3836.288a14.1,14.1,0,0,0,5.9-3.848" transform="translate(-905.1 -3802.237)" fill="none" stroke="#9b5548" stroke-linecap="round" stroke-linejoin="round" stroke-width="1.115"/>
            </g>
          </g>
          <g id="Grupo_947428" data-name="Grupo 947428" transform="translate(11.043 100.772)">
            <path id="Trazado_245626" data-name="Trazado 245626" d="M971.521,3986.051l-3.013-62.246a108.739,108.739,0,0,0-.643-11.483c-.009-.086-.027-.171-.041-.256a115.586,115.586,0,0,0-3.406-14.474,106.06,106.06,0,0,0-3.652-10.466c-1.3-3.108-2.6-6.857-4.786-9.458a29.421,29.421,0,0,0-8.579-7.345c-2.061-1.182-5.668-2.04-7.376-3.555-5.417,6.639-12.471,10.664-20.191,10.664-7.687,0-14.713-3.99-20.122-10.579a32.783,32.783,0,0,1-8.107,5.39,21.658,21.658,0,0,0-9.365,8.541c-7.556,12.81-10.438,31.539-10.438,31.539-.208,1.918-.348,3.786-.454,5.626l-4.268,68.1h21.245l.121.138h62.777l.12-.138Z" transform="translate(-867.08 -3866.768)" fill="#fff"/>
            <g id="Grupo_947427" data-name="Grupo 947427" transform="translate(0 14.447)">
              <g id="Grupo_947426" data-name="Grupo 947426">
                <path id="Trazado_245627" data-name="Trazado 245627" d="M914.779,3946.307c-15.813-18.109-27.59-39.968-32.784-63.4-7.372,12.795-10.193,31.107-10.193,31.107-.208,1.918-.348,3.786-.454,5.626l-4.268,68.1h21.245l.121.138h62.777l.12-.138h2.29C939.23,3978.534,926.012,3959.171,914.779,3946.307Z" transform="translate(-867.08 -3882.906)" fill="#eee"/>
              </g>
            </g>
          </g>
          <path id="Trazado_245628" data-name="Trazado 245628" d="M971.481,3894.618c5.648,7.611,6.965,17.5,8.016,26.915" transform="translate(-866.979 -3768.916)" fill="none" stroke="#eee" stroke-linecap="round" stroke-linejoin="round" stroke-width="1.115" style="mix-blend-mode: multiply;isolation: isolate"/>
          <g id="Grupo_947432" data-name="Grupo 947432" transform="translate(74.236 101.086)">
            <g id="Grupo_947429" data-name="Grupo 947429" transform="translate(8.403 7.155)">
              <path id="Trazado_245629" data-name="Trazado 245629" d="M1037.348,3931.152c-.069-.1-.148-.194-.221-.294l.04-.056-.2-.153a10.381,10.381,0,0,0-4.18-3.257l-20.879-16.266c-36.508-33.452-51.772-36.014-51.772-36.014l-13.083,19.646c.974,10.073,40.8,33.465,62.961,45.743-9.068,11.118-19.147,26.507-24.551,35.022l-.138-.09-10.994,17.7.037.062c-.042.067-.085.134-.124.2a11.393,11.393,0,0,0-1.021,3.11c-.282,1.251-2.288,8.569-2.546,10.168a6.171,6.171,0,0,0-.06,2.1,3.377,3.377,0,0,0,2.084,2.541,2.909,2.909,0,0,0,3.137-.775,5.018,5.018,0,0,0,.77-1.423c.46-1.146,2.593-6.549,2.921-7.168l2.759,4.678q.005.263.011.528.078,3.941.155,7.882a11.935,11.935,0,0,1-.143,3.7,51.473,51.473,0,0,0-1.632,6.976c-.211,1.31-.842,4.279.22,5.314a2.5,2.5,0,0,0,1.5.509c2.4.034,3.026-3.512,3.292-5.247.007-.013.015-.021.022-.034a49.092,49.092,0,0,0,1.419-5.165c.025-.041.051-.075.075-.12l-2.055,12.748s4.126,3.566,5.519-3.54c.544.279,3.639,1.658,3.854-3l-.095,1.568s4.516,1.829,3.167-4.615c0-.011.005-.02.007-.031a39.525,39.525,0,0,0-.388-4.285c.012-.063.03-.116.038-.187q-.2-2.429-.551-4.844a21.547,21.547,0,0,0-.641-3.419,8.894,8.894,0,0,1-.521-1.526q-.043-.314-.071-.631c-.061-.675-.078-1.361-.116-2.031-.119-2.065.448-3.911.715-5.938.285-2.163.518-4.333.675-6.508a52.566,52.566,0,0,0,.023-9.362l37.071-38.791C1039.114,3943.04,1040.684,3936.137,1037.348,3931.152Zm-46.581,97.685a4.256,4.256,0,0,1,.172-1.234Z" transform="translate(-947.058 -3875.112)" fill="#f9815d"/>
              <path id="Trazado_245630" data-name="Trazado 245630" d="M997.728,4026.385c1.153,6.927-.289,14.168-2.864,20.7a5.848,5.848,0,0,1-2.05,3.123,3.109,3.109,0,0,1-2.681-.5" transform="translate(-951.573 -3890.967)" fill="none" stroke="#9b5548" stroke-linecap="round" stroke-linejoin="round" stroke-width="1.115"/>
              <path id="Trazado_245631" data-name="Trazado 245631" d="M999.86,4027.334c1.556,5.8.639,11.945-.528,17.831a1.29,1.29,0,0,1-.648.782,2.533,2.533,0,0,1-.474.256,3.249,3.249,0,0,1-1.248.321,1.114,1.114,0,0,1-1.011-.365" transform="translate(-952.182 -3891.066)" fill="none" stroke="#9b5548" stroke-linecap="round" stroke-linejoin="round" stroke-width="1.115"/>
              <path id="Trazado_245632" data-name="Trazado 245632" d="M1000.95,4025.538a67.277,67.277,0,0,1,2.266,12.377,30.507,30.507,0,0,1,.281,3.578c0,.994.139,2.516-.9,3.028a4.406,4.406,0,0,1-.427.19,2.363,2.363,0,0,1-1.605,0c-.236-.087-.4-.04-.587-.2" transform="translate(-952.605 -3890.878)" fill="none" stroke="#9b5548" stroke-linecap="round" stroke-linejoin="round" stroke-width="1.115"/>
              <path id="Trazado_245633" data-name="Trazado 245633" d="M977.963,4005.359q-1.936,5.42-3.754,10.88a17.464,17.464,0,0,0-1.073,4.6,5.417,5.417,0,0,0,.474,2.7,3.073,3.073,0,0,0,2.08,1.686" transform="translate(-949.79 -3888.763)" fill="none" stroke="#9b5548" stroke-linecap="round" stroke-linejoin="round" stroke-width="1.115"/>
              <path id="Trazado_245634" data-name="Trazado 245634" d="M992.689,4024.086l.68,3.77-5.121,18.386s-1.153,2.024-3.458.308" transform="translate(-951.013 -3890.726)" fill="none" stroke="#9b5548" stroke-linecap="round" stroke-linejoin="round" stroke-width="1.115"/>
              <line id="Línea_183" data-name="Línea 183" x1="0.671" y1="1.441" transform="translate(45.404 133.84)" fill="none" stroke="#9b5548" stroke-linecap="round" stroke-linejoin="round" stroke-width="1.115"/>
            </g>
            <path id="Trazado_245635" data-name="Trazado 245635" d="M1009.337,3956.254s9.734-11.107,12.73-13.6" transform="translate(-945.183 -3875.035)" fill="none" stroke="#9b5548" stroke-linecap="round" stroke-linejoin="round" stroke-width="1.115"/>
            <g id="Grupo_947430" data-name="Grupo 947430" transform="translate(53.197 60.754)">
              <path id="Trazado_245636" data-name="Trazado 245636" d="M997.1,3942.55l9.128-2.629-8.2-4.934Z" transform="translate(-997.096 -3934.986)" fill="#eee"/>
              <path id="Trazado_245637" data-name="Trazado 245637" d="M997.1,3942.55l9.128-2.629-8.2-4.934Z" transform="translate(-997.096 -3934.986)" fill="#eee" style="mix-blend-mode: multiply;isolation: isolate"/>
            </g>
            <g id="Grupo_947431" data-name="Grupo 947431" transform="translate(0 0)">
              <ellipse id="Elipse_4906" data-name="Elipse 4906" cx="15.144" cy="17.128" rx="15.144" ry="17.128" transform="matrix(0.66, -0.751, 0.751, 0.66, 0, 22.758)" fill="#f9815d"/>
            </g>
            <path id="Trazado_245638" data-name="Trazado 245638" d="M971.479,3879.241a38.41,38.41,0,0,0-3.078-2.7c-5.076-4.457-12.064-5.588-18.665-3.7-2.246.643-5.867,1.935-7.1,4.053a32.156,32.156,0,0,0-3.923,11.9,17.8,17.8,0,0,0,2.2,10.4c1.841,3.314,4.589,4.944,7.257,7.38a162.408,162.408,0,0,0,18.684,14.2c7.868,5.323,15.95,10.324,24.113,15.177,1.416-3.121,2.931-6.194,4.62-9.18a71.717,71.717,0,0,1,13.781-17.748C992.231,3893.86,980.213,3884.4,971.479,3879.241Z" transform="translate(-937.772 -3867.627)" fill="#fff"/>
            <path id="Trazado_245639" data-name="Trazado 245639" d="M997.286,3931.456a37.988,37.988,0,0,1,13.2-18.077" transform="translate(-943.92 -3871.968)" fill="none" stroke="#eee" stroke-linecap="round" stroke-linejoin="round" stroke-width="1.115" style="mix-blend-mode: multiply;isolation: isolate"/>
          </g>
        </g>
        <g id="Grupo_947434" data-name="Grupo 947434" transform="translate(269.979 142.116)">
          <path id="Trazado_245640" data-name="Trazado 245640" d="M1045.026,3920.526l.624.61s3.594-1.468.708-4.539c.8-.744,1.814-2.494-2.569-4.713l-.01.009c-.008-.009-.013-.017-.021-.025a39.226,39.226,0,0,0-3.592-2.368c-.042-.049-.072-.1-.123-.148a61.348,61.348,0,0,0-7.554-4.366c-4.061-4.717-13.1-14.629-20.146-18.09l-12.389,4.173,6.985,19.633.073.01c.026.074.05.15.08.222.414,1.013,7.068,9.869,8.157,11.067a6.179,6.179,0,0,0,1.6,1.356,3.378,3.378,0,0,0,3.285-.046,2.907,2.907,0,0,0,1.35-2.935,5.011,5.011,0,0,0-.633-1.49q-.913-1.611-1.951-3.147c-.231-.341-1.044-2.018-1.845-3.609l5.478.774,9.788,7.5a2.981,2.981,0,0,0,.116.281l7.364,8.2a1.04,1.04,0,0,0,1.151.282c1.249-.5,3.323-2.07-.879-6.641l-.016.006c-.005-.013-.007-.025-.012-.038a48.982,48.982,0,0,0-3.154-4.331c-.013-.036-.022-.07-.038-.107l.355.271a2.244,2.244,0,0,0,.093.263l7.087,7.891a1.561,1.561,0,0,0,1.961.325C1047.5,3926.1,1048.547,3924.4,1045.026,3920.526Zm-.108-.1.009.008-.005,0Z" transform="translate(-999.955 -3886.896)" fill="#ffc4bc"/>
          <path id="Trazado_245641" data-name="Trazado 245641" d="M1030.972,3910.869c3.481,2.629,6.219,6.1,8.916,9.527l3.031,3.854a24.782,24.782,0,0,1,2.063,3.084,3.632,3.632,0,0,1,.631,3.084,2.3,2.3,0,0,1-2.344,1.461" transform="translate(-1003.206 -3889.408)" fill="none" stroke="#9b5548" stroke-linecap="round" stroke-linejoin="round" stroke-width="1.115"/>
          <path id="Trazado_245642" data-name="Trazado 245642" d="M1035.728,3908.929c5.944,5.067,11.591,10.691,15.306,17.562" transform="translate(-1003.704 -3889.205)" fill="none" stroke="#9b5548" stroke-linecap="round" stroke-linejoin="round" stroke-width="1.115"/>
          <path id="Trazado_245643" data-name="Trazado 245643" d="M1036.3,3907.1c2.315,1.045,12.265,9.948,14.018,11.784.738.773,1.473,1.5,1.109,2.631a2.622,2.622,0,0,1-1.265,1.588,1.5,1.5,0,0,1-.959.141" transform="translate(-1003.764 -3889.014)" fill="none" stroke="#9b5548" stroke-linecap="round" stroke-linejoin="round" stroke-width="1.115"/>
          <path id="Trazado_245644" data-name="Trazado 245644" d="M1009.693,3916.354a35.945,35.945,0,0,0,5.023,7.414c1.28,1.459,2.866,2.9,4.8,2.994a2.447,2.447,0,0,0,2.35-1.159,4.182,4.182,0,0,0,.424-3.89" transform="translate(-1000.976 -3889.983)" fill="none" stroke="#9b5548" stroke-linecap="round" stroke-linejoin="round" stroke-width="1.115"/>
        </g>
      </g>
    </g>
  </g>
</svg>
