<svg xmlns="http://www.w3.org/2000/svg" width="70" height="70" viewBox="0 0 70 70">
  <g id="Grupo_82286" data-name="Grupo 82286" transform="translate(-0.068 0.214)">
    <circle id="Elipse_4816" data-name="Elipse 4816" cx="35" cy="35" r="35" transform="translate(0.068 -0.214)" fill="#fff"/>
    <g id="educacion" transform="translate(14.799 15.062)">
      <g id="Grupo_84514" data-name="Grupo 84514" transform="translate(0 0)">
        <g id="Grupo_84513" data-name="Grupo 84513" transform="translate(0 0)">
          <path id="Trazado_120755" data-name="Trazado 120755" d="M39.923,0H.677A.676.676,0,0,0,0,.676H0V14.21H1.353V1.353H39.246V16.24H15.563v1.353H39.922a.677.677,0,0,0,.677-.676h0V.677A.677.677,0,0,0,39.923,0Z" transform="translate(0 0)" fill="#f88f05"/>
        </g>
      </g>
      <g id="Grupo_84516" data-name="Grupo 84516" transform="translate(22.846 2.976)">
        <g id="Grupo_84515" data-name="Grupo 84515" transform="translate(0 0)">
          <rect id="Rectángulo_34822" data-name="Rectángulo 34822" width="14" height="2" transform="translate(0.423 -0.251)" fill="#f88f05"/>
        </g>
      </g>
      <g id="Grupo_84518" data-name="Grupo 84518" transform="translate(24.134 8.129)">
        <g id="Grupo_84517" data-name="Grupo 84517" transform="translate(0 0)">
          <rect id="Rectángulo_34823" data-name="Rectángulo 34823" width="14" height="2" transform="translate(0.135 -0.405)" fill="#f88f05"/>
        </g>
      </g>
      <g id="Grupo_84520" data-name="Grupo 84520" transform="translate(21.558 11.994)">
        <g id="Grupo_84519" data-name="Grupo 84519" transform="translate(0 0)">
          <rect id="Rectángulo_34824" data-name="Rectángulo 34824" width="14" height="2" transform="translate(-0.288 -0.27)" fill="#f88f05"/>
        </g>
      </g>
      <g id="Grupo_84522" data-name="Grupo 84522" transform="translate(0 2.707)">
        <g id="Grupo_84521" data-name="Grupo 84521" transform="translate(0)">
          <path id="Trazado_120756" data-name="Trazado 120756" d="M21.6,35.127a2.184,2.184,0,0,0-2.855-1.177l-.057.025L13.2,36.821a3.346,3.346,0,0,0,.332-1.437,3.383,3.383,0,1,0-6.072,2.03H7.432a4.643,4.643,0,0,0-4.313,3L1.313,46.643a2.167,2.167,0,1,0,4.07,1.491l.708-2.252v9.793A3.373,3.373,0,0,0,1.7,60.78,3.117,3.117,0,0,0,0,63.545v5.67a.677.677,0,0,0,.676.677H7.443a.677.677,0,0,0,.677-.676h0v-5.67A3.11,3.11,0,0,0,6.912,61.1h5.122a3.11,3.11,0,0,0-1.207,2.45v5.67a.677.677,0,0,0,.676.677H18.27a.677.677,0,0,0,.677-.676h0v-5.67a3.117,3.117,0,0,0-1.7-2.765,3.38,3.38,0,0,0-3.038-5.731V41.207l6.212-3.225A2.184,2.184,0,0,0,21.6,35.127ZM10.15,33.353a2.03,2.03,0,1,1-2.03,2.03A2.03,2.03,0,0,1,10.15,33.353ZM4.06,56.334a2.03,2.03,0,1,1-2.03,2.03A2.03,2.03,0,0,1,4.06,56.334Zm2.707,12.2H1.353V63.545a1.775,1.775,0,0,1,1.773-1.773H4.993a1.775,1.775,0,0,1,1.773,1.773Zm10.826-4.994v4.994H12.18V63.545a1.775,1.775,0,0,1,1.773-1.773H15.82A1.775,1.775,0,0,1,17.593,63.545Zm-2.707-7.211a2.03,2.03,0,1,1-2.03,2.03A2.032,2.032,0,0,1,14.886,56.334Zm5.474-20.078a.87.87,0,0,1-.511.5L13.221,40.2a.677.677,0,0,0-.365.6V55.675A3.338,3.338,0,0,0,11.8,59.743h-.977V48.24H9.473v11.5H7.143a3.352,3.352,0,0,0,.3-1.353h0V41.473a.677.677,0,0,0-1.322-.2L4.1,47.7a.814.814,0,0,1-1.129.45.831.831,0,0,1-.378-1.074L4.4,40.849a3.269,3.269,0,0,1,3.032-2.083h4.791a.674.674,0,0,0,.312-.076L19.26,35.2a.833.833,0,0,1,1.065.394A.823.823,0,0,1,20.361,36.256Z" transform="translate(0 -32)" fill="#f88f05"/>
        </g>
      </g>
      <g id="Grupo_84524" data-name="Grupo 84524" transform="translate(21.653 25.68)">
        <g id="Grupo_84523" data-name="Grupo 84523">
          <path id="Trazado_120757" data-name="Trazado 120757" d="M262.421,309.425a3.383,3.383,0,1,0-4.784-.062l.062.062a3.118,3.118,0,0,0-1.7,2.765v5.67a.677.677,0,0,0,.676.677h6.767a.677.677,0,0,0,.677-.676h0v-5.67A3.117,3.117,0,0,0,262.421,309.425Zm-2.361-4.446a2.03,2.03,0,1,1-2.03,2.03A2.03,2.03,0,0,1,260.06,304.979Zm2.707,12.2h-5.413V312.19a1.775,1.775,0,0,1,1.773-1.773h1.867a1.775,1.775,0,0,1,1.773,1.773Z" transform="translate(-256 -303.618)" fill="#f88f05"/>
        </g>
      </g>
      <g id="Grupo_84526" data-name="Grupo 84526" transform="translate(32.479 25.68)">
        <g id="Grupo_84525" data-name="Grupo 84525">
          <path id="Trazado_120758" data-name="Trazado 120758" d="M390.421,309.425a3.383,3.383,0,1,0-4.784-.062l.062.062a3.118,3.118,0,0,0-1.7,2.765v5.67a.677.677,0,0,0,.676.677h6.767a.677.677,0,0,0,.677-.676h0v-5.67A3.118,3.118,0,0,0,390.421,309.425Zm-2.361-4.446a2.03,2.03,0,1,1-2.03,2.03A2.03,2.03,0,0,1,388.06,304.979Zm2.707,12.2h-5.413V312.19a1.775,1.775,0,0,1,1.773-1.773h1.867a1.776,1.776,0,0,1,1.773,1.773Z" transform="translate(-384 -303.618)" fill="#f88f05"/>
        </g>
      </g>
    </g>
  </g>
</svg>
