<svg xmlns="http://www.w3.org/2000/svg" width="1030" height="390.388" viewBox="0 0 1030 390.388">
  <g id="Grupo_948058" data-name="Grupo 948058" transform="translate(-285 -1671)">
    <path id="Trazado_628310" data-name="Trazado 628310" d="M1051.12,2220.646a112.775,112.775,0,0,0-28.386-18.941c-.11-.05-.217-.1-.328-.156-1.156-.536-2.328-1.042-3.5-1.539-.446-.19-.884-.379-1.336-.566-.919-.378-1.85-.726-2.78-1.076-.725-.275-1.448-.548-2.179-.807s-1.451-.493-2.18-.734c-.957-.316-1.915-.631-2.883-.916-.562-.168-1.13-.328-1.7-.488-1.137-.322-2.283-.631-3.437-.918-.451-.112-.9-.219-1.358-.324q-1.9-.446-3.8-.828c-.4-.079-.808-.155-1.214-.231q-1.955-.364-3.93-.662-.648-.1-1.294-.185-1.887-.26-3.791-.454c-.547-.057-1.095-.112-1.643-.159-.518-.046-1.032-.113-1.552-.15s-1.066-.044-1.6-.076q-1.42-.088-2.846-.136-1.335-.046-2.663-.063c-.45,0-.9-.032-1.346-.032-.6,0-1.2.032-1.8.042-.775.013-1.549.024-2.317.054-1.137.041-2.275.109-3.412.184-.673.044-1.348.084-2.022.14-1.276.107-2.544.253-3.807.4-.522.062-1.047.113-1.565.183-1.556.207-3.1.452-4.632.722-.222.04-.45.069-.671.11a111.321,111.321,0,0,0-15.989,4.17l-.056.022q-2.527.864-4.991,1.844c-.126.053-.26.109-.391.162q-2.3.922-4.557,1.944c-.171.077-.338.156-.506.235q-2.212,1.009-4.369,2.121l-.461.239q-2.2,1.137-4.339,2.373l-.318.185q-2.25,1.3-4.431,2.708l-.068.043a113.007,113.007,0,0,0-13.3,10c-.57.506-1.165.959-1.754,1.429a49.683,49.683,0,0,1-50.669,5.83h0a50.563,50.563,0,0,1-29.589-45.382q-.071-3.127-.311-6.288a111.862,111.862,0,0,0-32.347-70.164l-.053-.054q-1.573-1.584-3.212-3.1c-.138-.126-.274-.261-.411-.389q-1.472-1.356-3-2.653c-.26-.225-.515-.453-.778-.675-.907-.766-1.835-1.516-2.766-2.249-.379-.3-.758-.611-1.15-.911-.835-.644-1.688-1.263-2.541-1.9-.506-.365-1-.734-1.506-1.091-.769-.539-1.551-1.06-2.333-1.582-.61-.407-1.217-.817-1.837-1.214-.711-.454-1.433-.885-2.154-1.328s-1.411-.86-2.128-1.275c-.665-.38-1.34-.752-2.012-1.124-.789-.434-1.574-.868-2.373-1.284-.632-.33-1.275-.643-1.916-.961-.853-.423-1.707-.847-2.572-1.248-.612-.284-1.229-.553-1.847-.827-.906-.4-1.813-.8-2.733-1.18-.607-.253-1.219-.484-1.83-.722-.939-.369-1.878-.73-2.826-1.073-.622-.224-1.252-.434-1.88-.647-.949-.322-1.9-.64-2.858-.939-.651-.2-1.306-.387-1.963-.577-.947-.275-1.9-.546-2.85-.794-.7-.182-1.4-.346-2.1-.515-.923-.222-1.847-.44-2.78-.639-.758-.16-1.516-.3-2.274-.448-.884-.169-1.781-.338-2.679-.487-.819-.136-1.642-.253-2.468-.37s-1.686-.239-2.528-.341c-.894-.106-1.794-.191-2.694-.276-.532-.051-1.057-.127-1.591-.164-.229-.017-.456-.017-.686-.036-.356-.025-.708-.069-1.064-.092-.916-.058-1.819-.065-2.73-.1-.875-.036-1.752-.084-2.623-.1-1.179-.02-2.348,0-3.518.017-.911.012-1.826.009-2.731.042-1.087.041-2.162.126-3.241.2-.975.065-1.957.112-2.925.2-.927.087-1.841.214-2.762.321-1.1.127-2.207.241-3.3.4-.446.065-.884.158-1.326.229A111.36,111.36,0,0,0,674,2076.065c-.183.056-.373.1-.555.16-1.517.472-3,1-4.479,1.529-.341.126-.69.234-1.031.36-1.426.53-2.829,1.1-4.229,1.69-.378.159-.758.3-1.137.467-1.381.6-2.741,1.234-4.1,1.885-.372.178-.746.347-1.116.531-1.347.664-2.671,1.366-3.986,2.083-.359.195-.72.379-1.076.582-1.317.738-2.61,1.505-3.893,2.292-.332.2-.668.405-1,.612q-1.937,1.217-3.817,2.512c-.3.2-.6.409-.9.616q-1.906,1.334-3.751,2.746c-.261.2-.52.4-.778.6q-1.876,1.46-3.695,3c-.211.179-.422.361-.631.542q-1.86,1.6-3.651,3.273l-.463.442q-1.85,1.754-3.622,3.584c-.09.092-.176.187-.265.279q-1.849,1.932-3.609,3.947l-.033.038a111.868,111.868,0,0,0-27.585,74.017,45.158,45.158,0,0,1-26.716,41.227l-5.971,2.671c-15.893,7.11-34.748,4.65-47.6-7.1a112.155,112.155,0,0,0-149.757-1.561,48.206,48.206,0,0,1-51.476,7.708l-.83-.37a50.619,50.619,0,0,1-29.751-45.451q-.064-2.792-.262-5.611c-3.891-54.863-48.159-99.538-102.989-103.88A112.506,112.506,0,0,0,58.136,2192.666c4.358,54.7,48.866,98.9,103.594,102.913a111.973,111.973,0,0,0,82.088-27.274,49.625,49.625,0,0,1,52.817-7.561,50.56,50.56,0,0,1,29.588,45.38,116.234,116.234,0,0,0,.869,11.808,112.4,112.4,0,0,0,223.873-14.346v-.29a45.159,45.159,0,0,1,26.718-41.281l5.971-2.671c15.893-7.11,34.748-4.649,47.6,7.1a112.768,112.768,0,0,0,28.359,18.933c.112.052.223.108.336.16,1.162.539,2.338,1.049,3.521,1.548.436.186.871.378,1.31.554.928.379,1.866.734,2.806,1.088.718.271,1.438.544,2.163.8s1.46.5,2.192.738c.951.315,1.9.623,2.866.912.571.171,1.145.333,1.72.494q1.7.482,3.411.914c.458.114.916.219,1.376.328,1.255.294,2.515.571,3.785.822.408.082.819.158,1.229.235q1.952.368,3.925.661.642.1,1.288.186,1.884.252,3.791.454.823.084,1.651.16c.514.044,1.022.11,1.539.148s1.065.045,1.6.077q1.426.087,2.862.136,1.327.044,2.653.063c.456.006.9.032,1.36.032.613,0,1.219-.031,1.83-.042.746-.013,1.493-.025,2.236-.052,1.169-.042,2.331-.111,3.491-.188.641-.042,1.287-.078,1.926-.126q2-.169,3.973-.416c.459-.056.921-.1,1.379-.158a111.6,111.6,0,0,0,16.077-3.349l.253-.078q2.462-.71,4.876-1.532c.208-.071.416-.149.624-.222q2.237-.775,4.431-1.642c.235-.093.467-.19.7-.284q2.169-.872,4.29-1.83l.631-.288q2.188-1.011,4.325-2.1l.424-.215q2.315-1.2,4.569-2.5l.027-.015a112.946,112.946,0,0,0,17.121-12.13,49.976,49.976,0,0,1,82.833,37.4,115.986,115.986,0,0,0,.868,11.808c.12.965.337,1.9.481,2.854q.252,1.641.551,3.265.722,3.955,1.727,7.807c.07.263.134.528.206.789a112.9,112.9,0,0,0,65.074,74.533c.152.065.3.135.457.2q2.544,1.058,5.143,1.992c1.468.53,2.948,1.036,4.441,1.5,1.218.379,2.44.74,3.675,1.079q3.055.845,6.172,1.516c.884.189,1.769.358,2.663.525,2.444.463,4.91.857,7.4,1.157.195.022.38.068.576.09.578.064,1.149.091,1.725.146.7.07,1.4.161,2.109.216.378.03.758.033,1.137.06,1.166.081,2.328.134,3.487.179.981.038,1.961.075,2.938.088,1.093.014,2.179,0,3.265-.014,1.026-.015,2.052-.03,3.071-.074s2.022-.114,3.033-.183c1.078-.074,2.155-.147,3.224-.252.921-.091,1.835-.208,2.749-.32,1.137-.14,2.275-.28,3.4-.453.825-.126,1.642-.28,2.46-.425,1.2-.211,2.392-.424,3.574-.674.719-.151,1.428-.327,2.148-.492,1.264-.293,2.528-.589,3.778-.925.6-.161,1.187-.343,1.781-.513,1.343-.386,2.685-.777,4.008-1.21.46-.152.911-.321,1.369-.477,1.439-.493,2.872-1,4.285-1.545.292-.114.578-.241.871-.358,1.56-.621,3.109-1.263,4.635-1.952.086-.037.168-.081.253-.119a112.5,112.5,0,0,0,66.014-102.71C1088.086,2252.71,1051.12,2220.646,1051.12,2220.646Z" transform="translate(227.229 -400.111)" fill="#f88f05"/>
    <path id="Elipse_7698" data-name="Elipse 7698" d="M83.05,0A83.05,83.05,0,1,1,0,83.05,83.05,83.05,0,0,1,83.05,0Z" transform="translate(314.333 1700.343)" fill="#fff"/>
    <path id="Elipse_7699" data-name="Elipse 7699" d="M83.05,0A83.05,83.05,0,1,1,0,83.05,83.05,83.05,0,0,1,83.05,0Z" transform="translate(582.755 1820.422)" fill="#fff"/>
    <path id="Elipse_7700" data-name="Elipse 7700" d="M83.05,0A83.05,83.05,0,1,1,0,83.05,83.05,83.05,0,0,1,83.05,0Z" transform="translate(851.177 1700.343)" fill="#fff"/>
    <path id="Elipse_7702" data-name="Elipse 7702" d="M83.05,0A83.05,83.05,0,1,1,0,83.05,83.05,83.05,0,0,1,83.05,0Z" transform="translate(1119.599 1820.422)" fill="#fff"/>
    <g id="Trazado_245948" data-name="Trazado 245948" transform="translate(309 1880.408)">
      <path d="M 161 60.5 L 5 60.5 C 2.51868748664856 60.5 0.5 58.4813117980957 0.5 56 L 0.5 5 C 0.5 2.51868748664856 2.51868748664856 0.5 5 0.5 L 161 0.5 C 163.4813079833984 0.5 165.5 2.51868748664856 165.5 5 L 165.5 56 C 165.5 58.4813117980957 163.4813079833984 60.5 161 60.5 Z" stroke="none"/>
      <path d="M 5 1 C 2.794387817382812 1 1 2.794391632080078 1 5 L 1 56 C 1 58.20560836791992 2.794387817382812 60 5 60 L 161 60 C 163.2056121826172 60 165 58.20560836791992 165 56 L 165 5 C 165 2.794391632080078 163.2056121826172 1 161 1 L 5 1 M 5 0 L 161 0 C 163.7614288330078 0 166 2.238563537597656 166 5 L 166 56 C 166 58.76141357421875 163.7614288330078 61 161 61 L 5 61 C 2.238571166992188 61 0 58.76141357421875 0 56 L 0 5 C 0 2.238563537597656 2.238571166992188 0 5 0 Z" stroke="none" fill="#000"/>
    </g>
    <path id="Trazado_245949" data-name="Trazado 245949" d="M-36.88-4.814a5.193,5.193,0,0,1-.8,2.622A4.833,4.833,0,0,1-39.736-.43,7,7,0,0,1-42.759.2a5.584,5.584,0,0,1-4.414-1.826,7.54,7.54,0,0,1-1.611-5.156v-.7a8.607,8.607,0,0,1,.728-3.657,5.513,5.513,0,0,1,2.095-2.422,5.844,5.844,0,0,1,3.164-.854,6.129,6.129,0,0,1,4.16,1.362,5.383,5.383,0,0,1,1.787,3.755h-3.418a2.547,2.547,0,0,0-.654-1.865,2.691,2.691,0,0,0-1.875-.566,2.048,2.048,0,0,0-1.875.957A6.151,6.151,0,0,0-45.3-7.725v1.006a6.806,6.806,0,0,0,.571,3.252,2.091,2.091,0,0,0,1.968.977,2.632,2.632,0,0,0,1.807-.557,2.363,2.363,0,0,0,.664-1.768Zm1.055-.566A6.236,6.236,0,0,1-35.21-8.2a4.4,4.4,0,0,1,1.768-1.9,5.323,5.323,0,0,1,2.705-.664A4.858,4.858,0,0,1-27-9.292a5.64,5.64,0,0,1,1.367,4v.117A5.472,5.472,0,0,1-27-1.255,4.871,4.871,0,0,1-30.718.2a4.927,4.927,0,0,1-3.623-1.353,5.29,5.29,0,0,1-1.475-3.667Zm3.291.205a3.932,3.932,0,0,0,.459,2.148,1.529,1.529,0,0,0,1.357.684q1.758,0,1.8-2.705v-.332q0-2.842-1.816-2.842-1.65,0-1.787,2.451Zm11.377-5.391.107,1.24a3.583,3.583,0,0,1,3.018-1.436,3.015,3.015,0,0,1,2.466.986,4.7,4.7,0,0,1,.845,2.969V0h-3.3V-6.67a1.783,1.783,0,0,0-.322-1.177,1.491,1.491,0,0,0-1.172-.376,1.569,1.569,0,0,0-1.436.762V0h-3.291V-10.566Zm7.842,5.205a6.455,6.455,0,0,1,1.084-3.955A3.568,3.568,0,0,1-9.2-10.762,3.035,3.035,0,0,1-6.821-9.648V-15h3.3V0H-6.479l-.166-1.133A3.116,3.116,0,0,1-9.224.2,3.562,3.562,0,0,1-12.212-1.25,6.659,6.659,0,0,1-13.315-5.361Zm3.291.205q0,2.813,1.641,2.813a1.62,1.62,0,0,0,1.563-.918V-7.285a1.576,1.576,0,0,0-1.543-.937q-1.523,0-1.65,2.461ZM4.644-1.143A3.393,3.393,0,0,1,1.821.2,3.328,3.328,0,0,1-.811-.815,4.251,4.251,0,0,1-1.7-3.721v-6.846H1.587V-3.7A1.183,1.183,0,0,0,2.905-2.344a1.72,1.72,0,0,0,1.611-.811v-7.412H7.827V0H4.741Zm9.453-1.2a1.464,1.464,0,0,0,1.074-.376,1.379,1.379,0,0,0,.371-1.05h3.086A3.653,3.653,0,0,1,17.383-.918,4.631,4.631,0,0,1,14.175.2,4.689,4.689,0,0,1,10.542-1.25a5.7,5.7,0,0,1-1.328-4v-.137A6.436,6.436,0,0,1,9.8-8.218a4.3,4.3,0,0,1,1.7-1.885,5.081,5.081,0,0,1,2.637-.659,4.573,4.573,0,0,1,3.271,1.143,4.053,4.053,0,0,1,1.211,3.1H15.542a1.807,1.807,0,0,0-.4-1.26,1.382,1.382,0,0,0-1.074-.439q-1.279,0-1.494,1.631A11.508,11.508,0,0,0,12.5-5.166a4.52,4.52,0,0,0,.381,2.207A1.319,1.319,0,0,0,14.1-2.344Zm9.756-10.85v2.627h1.738v2.285H23.853v4.834a1.234,1.234,0,0,0,.215.83,1.152,1.152,0,0,0,.85.234,4.828,4.828,0,0,0,.82-.059V-.088A6.074,6.074,0,0,1,23.882.2a3.448,3.448,0,0,1-2.51-.8,3.282,3.282,0,0,1-.811-2.432V-8.281H19.214v-2.285h1.348v-2.627Zm2.324,7.813A6.236,6.236,0,0,1,26.792-8.2a4.4,4.4,0,0,1,1.768-1.9,5.323,5.323,0,0,1,2.705-.664A4.858,4.858,0,0,1,35-9.292a5.64,5.64,0,0,1,1.367,4v.117A5.472,5.472,0,0,1,35-1.255,4.871,4.871,0,0,1,31.284.2a4.927,4.927,0,0,1-3.623-1.353,5.29,5.29,0,0,1-1.475-3.667Zm3.291.205a3.932,3.932,0,0,0,.459,2.148,1.529,1.529,0,0,0,1.357.684q1.758,0,1.8-2.705v-.332q0-2.842-1.816-2.842-1.65,0-1.787,2.451ZM44.214-7.588,43.13-7.666a1.947,1.947,0,0,0-1.992.977V0H37.847V-10.566h3.086l.107,1.357a2.548,2.548,0,0,1,2.314-1.553,3.209,3.209,0,0,1,.918.117ZM-23.423,16.434l.107,1.24A3.583,3.583,0,0,1-20.3,16.238a3.015,3.015,0,0,1,2.466.986,4.7,4.7,0,0,1,.845,2.969V27h-3.3V20.33a1.783,1.783,0,0,0-.322-1.177,1.491,1.491,0,0,0-1.172-.376,1.569,1.569,0,0,0-1.436.762V27h-3.291V16.434Zm14.551,9.424A3.393,3.393,0,0,1-11.694,27.2a3.328,3.328,0,0,1-2.632-1.011,4.251,4.251,0,0,1-.894-2.905V16.434h3.291V23.3a1.183,1.183,0,0,0,1.318,1.357A1.72,1.72,0,0,0-9,23.846V16.434h3.311V27H-8.774ZM1.226,27.2a5.432,5.432,0,0,1-3.936-1.45,5.008,5.008,0,0,1-1.5-3.774V21.7a6.489,6.489,0,0,1,.6-2.861A4.395,4.395,0,0,1-1.86,16.917a5.292,5.292,0,0,1,2.734-.679A4.574,4.574,0,0,1,4.39,17.62a5.43,5.43,0,0,1,1.289,3.853v1.279H-.864a2.372,2.372,0,0,0,.771,1.4,2.3,2.3,0,0,0,1.543.508,2.958,2.958,0,0,0,2.441-1.094L5.4,25.34a4.2,4.2,0,0,1-1.743,1.353A5.891,5.891,0,0,1,1.226,27.2ZM.854,18.777q-1.445,0-1.719,1.914h3.32v-.254a1.63,1.63,0,0,0-.4-1.226A1.593,1.593,0,0,0,.854,18.777Zm10.234,4.307,1.67-6.65h3.467L12.778,27H9.419L5.972,16.434H9.448Zm5.557-1.465a6.236,6.236,0,0,1,.615-2.817,4.4,4.4,0,0,1,1.768-1.9,5.323,5.323,0,0,1,2.705-.664,4.858,4.858,0,0,1,3.74,1.47,5.64,5.64,0,0,1,1.367,4v.117a5.472,5.472,0,0,1-1.372,3.921,4.871,4.871,0,0,1-3.716,1.45,4.927,4.927,0,0,1-3.623-1.353,5.29,5.29,0,0,1-1.475-3.667Zm3.291.205a3.932,3.932,0,0,0,.459,2.148,1.529,1.529,0,0,0,1.357.684q1.758,0,1.8-2.705v-.332q0-2.842-1.816-2.842-1.65,0-1.787,2.451Z" transform="translate(395.5 1902.408)" fill="#fff"/>
    <g id="Trazado_245950" data-name="Trazado 245950" transform="translate(846.12 1885.408)">
      <path d="M 176 58.5 L 5 58.5 C 2.518681764602661 58.5 0.5 56.48131942749023 0.5 54 L 0.5 5 C 0.5 2.518681764602661 2.518681764602661 0.5 5 0.5 L 176 0.5 C 178.4813232421875 0.5 180.5 2.518681764602661 180.5 5 L 180.5 54 C 180.5 56.48131942749023 178.4813232421875 58.5 176 58.5 Z" stroke="none"/>
      <path d="M 5 1 C 2.794387817382812 1 1 2.794380187988281 1 5 L 1 54 C 1 56.20561981201172 2.794387817382812 58 5 58 L 176 58 C 178.2056121826172 58 180 56.20561981201172 180 54 L 180 5 C 180 2.794380187988281 178.2056121826172 1 176 1 L 5 1 M 5 0 L 176 0 C 178.7614288330078 0 181 2.238571166992188 181 5 L 181 54 C 181 56.76142883300781 178.7614288330078 59 176 59 L 5 59 C 2.238571166992188 59 0 56.76142883300781 0 54 L 0 5 C 0 2.238571166992188 2.238571166992188 0 5 0 Z" stroke="none" fill="#000"/>
    </g>
    <path id="Trazado_245951" data-name="Trazado 245951" d="M-36.88-4.814a5.193,5.193,0,0,1-.8,2.622A4.833,4.833,0,0,1-39.736-.43,7,7,0,0,1-42.759.2a5.584,5.584,0,0,1-4.414-1.826,7.54,7.54,0,0,1-1.611-5.156v-.7a8.607,8.607,0,0,1,.728-3.657,5.513,5.513,0,0,1,2.095-2.422,5.844,5.844,0,0,1,3.164-.854,6.129,6.129,0,0,1,4.16,1.362,5.383,5.383,0,0,1,1.787,3.755h-3.418a2.547,2.547,0,0,0-.654-1.865,2.691,2.691,0,0,0-1.875-.566,2.048,2.048,0,0,0-1.875.957A6.151,6.151,0,0,0-45.3-7.725v1.006a6.806,6.806,0,0,0,.571,3.252,2.091,2.091,0,0,0,1.968.977,2.632,2.632,0,0,0,1.807-.557,2.363,2.363,0,0,0,.664-1.768Zm1.055-.566A6.236,6.236,0,0,1-35.21-8.2a4.4,4.4,0,0,1,1.768-1.9,5.323,5.323,0,0,1,2.705-.664A4.858,4.858,0,0,1-27-9.292a5.64,5.64,0,0,1,1.367,4v.117A5.472,5.472,0,0,1-27-1.255,4.871,4.871,0,0,1-30.718.2a4.927,4.927,0,0,1-3.623-1.353,5.29,5.29,0,0,1-1.475-3.667Zm3.291.205a3.932,3.932,0,0,0,.459,2.148,1.529,1.529,0,0,0,1.357.684q1.758,0,1.8-2.705v-.332q0-2.842-1.816-2.842-1.65,0-1.787,2.451Zm11.377-5.391.107,1.24a3.583,3.583,0,0,1,3.018-1.436,3.015,3.015,0,0,1,2.466.986,4.7,4.7,0,0,1,.845,2.969V0h-3.3V-6.67a1.783,1.783,0,0,0-.322-1.177,1.491,1.491,0,0,0-1.172-.376,1.569,1.569,0,0,0-1.436.762V0h-3.291V-10.566Zm7.842,5.205a6.455,6.455,0,0,1,1.084-3.955A3.568,3.568,0,0,1-9.2-10.762,3.035,3.035,0,0,1-6.821-9.648V-15h3.3V0H-6.479l-.166-1.133A3.116,3.116,0,0,1-9.224.2,3.562,3.562,0,0,1-12.212-1.25,6.659,6.659,0,0,1-13.315-5.361Zm3.291.205q0,2.813,1.641,2.813a1.62,1.62,0,0,0,1.563-.918V-7.285a1.576,1.576,0,0,0-1.543-.937q-1.523,0-1.65,2.461ZM4.644-1.143A3.393,3.393,0,0,1,1.821.2,3.328,3.328,0,0,1-.811-.815,4.251,4.251,0,0,1-1.7-3.721v-6.846H1.587V-3.7A1.183,1.183,0,0,0,2.905-2.344a1.72,1.72,0,0,0,1.611-.811v-7.412H7.827V0H4.741Zm9.453-1.2a1.464,1.464,0,0,0,1.074-.376,1.379,1.379,0,0,0,.371-1.05h3.086A3.653,3.653,0,0,1,17.383-.918,4.631,4.631,0,0,1,14.175.2,4.689,4.689,0,0,1,10.542-1.25a5.7,5.7,0,0,1-1.328-4v-.137A6.436,6.436,0,0,1,9.8-8.218a4.3,4.3,0,0,1,1.7-1.885,5.081,5.081,0,0,1,2.637-.659,4.573,4.573,0,0,1,3.271,1.143,4.053,4.053,0,0,1,1.211,3.1H15.542a1.807,1.807,0,0,0-.4-1.26,1.382,1.382,0,0,0-1.074-.439q-1.279,0-1.494,1.631A11.508,11.508,0,0,0,12.5-5.166a4.52,4.52,0,0,0,.381,2.207A1.319,1.319,0,0,0,14.1-2.344Zm9.756-10.85v2.627h1.738v2.285H23.853v4.834a1.234,1.234,0,0,0,.215.83,1.152,1.152,0,0,0,.85.234,4.828,4.828,0,0,0,.82-.059V-.088A6.074,6.074,0,0,1,23.882.2a3.448,3.448,0,0,1-2.51-.8,3.282,3.282,0,0,1-.811-2.432V-8.281H19.214v-2.285h1.348v-2.627Zm2.324,7.813A6.236,6.236,0,0,1,26.792-8.2a4.4,4.4,0,0,1,1.768-1.9,5.323,5.323,0,0,1,2.705-.664A4.858,4.858,0,0,1,35-9.292a5.64,5.64,0,0,1,1.367,4v.117A5.472,5.472,0,0,1,35-1.255,4.871,4.871,0,0,1,31.284.2a4.927,4.927,0,0,1-3.623-1.353,5.29,5.29,0,0,1-1.475-3.667Zm3.291.205a3.932,3.932,0,0,0,.459,2.148,1.529,1.529,0,0,0,1.357.684q1.758,0,1.8-2.705v-.332q0-2.842-1.816-2.842-1.65,0-1.787,2.451ZM44.214-7.588,43.13-7.666a1.947,1.947,0,0,0-1.992.977V0H37.847V-10.566h3.086l.107,1.357a2.548,2.548,0,0,1,2.314-1.553,3.209,3.209,0,0,1,.918.117ZM-61.846,27.2a5.432,5.432,0,0,1-3.936-1.45,5.008,5.008,0,0,1-1.5-3.774V21.7a6.489,6.489,0,0,1,.6-2.861,4.395,4.395,0,0,1,1.753-1.919,5.292,5.292,0,0,1,2.734-.679,4.574,4.574,0,0,1,3.516,1.382,5.43,5.43,0,0,1,1.289,3.853v1.279h-6.543a2.372,2.372,0,0,0,.771,1.4,2.3,2.3,0,0,0,1.543.508,2.958,2.958,0,0,0,2.441-1.094l1.5,1.777a4.2,4.2,0,0,1-1.743,1.353A5.891,5.891,0,0,1-61.846,27.2Zm-.371-8.418q-1.445,0-1.719,1.914h3.32v-.254a1.63,1.63,0,0,0-.4-1.226A1.593,1.593,0,0,0-62.217,18.777Zm10.43.566,1.533-2.91h3.418l-2.783,5.146L-46.7,27h-3.437l-1.66-3.125L-53.428,27h-3.457l2.93-5.42-2.773-5.146h3.457Zm15.82,2.451a6.372,6.372,0,0,1-1.108,3.931,3.554,3.554,0,0,1-2.993,1.47,3.046,3.046,0,0,1-2.393-1.064v4.932h-3.291V16.434h3.076l.1.977a3.046,3.046,0,0,1,2.49-1.172,3.582,3.582,0,0,1,3.037,1.44,6.45,6.45,0,0,1,1.084,3.96Zm-3.291-.205q0-2.812-1.641-2.812a1.549,1.549,0,0,0-1.562.84v4.16a1.6,1.6,0,0,0,1.582.879q1.572,0,1.621-2.715ZM-29.4,27.2a5.432,5.432,0,0,1-3.936-1.45,5.008,5.008,0,0,1-1.5-3.774V21.7a6.489,6.489,0,0,1,.6-2.861,4.395,4.395,0,0,1,1.753-1.919,5.292,5.292,0,0,1,2.734-.679A4.574,4.574,0,0,1-26.24,17.62a5.43,5.43,0,0,1,1.289,3.853v1.279h-6.543a2.372,2.372,0,0,0,.771,1.4,2.3,2.3,0,0,0,1.543.508,2.958,2.958,0,0,0,2.441-1.094l1.5,1.777a4.2,4.2,0,0,1-1.743,1.353A5.891,5.891,0,0,1-29.4,27.2Zm-.371-8.418q-1.445,0-1.719,1.914h3.32v-.254a1.63,1.63,0,0,0-.4-1.226A1.593,1.593,0,0,0-29.775,18.777Zm12.539.635-1.084-.078a1.947,1.947,0,0,0-1.992.977V27H-23.6V16.434h3.086l.107,1.357A2.548,2.548,0,0,1-18.1,16.238a3.209,3.209,0,0,1,.918.117ZM-12.578,27h-3.3V16.434h3.3Zm-3.5-13.291a1.469,1.469,0,0,1,.508-1.152,1.916,1.916,0,0,1,1.318-.449,1.916,1.916,0,0,1,1.318.449,1.469,1.469,0,0,1,.508,1.152,1.469,1.469,0,0,1-.508,1.152,1.916,1.916,0,0,1-1.318.449,1.916,1.916,0,0,1-1.318-.449A1.469,1.469,0,0,1-16.074,13.709Zm8.633,2.725.107,1.24a3.633,3.633,0,0,1,3.018-1.436A2.675,2.675,0,0,1-1.611,17.83a3.517,3.517,0,0,1,3.105-1.592q3.213,0,3.3,3.887V27h-3.3V20.33a2.014,2.014,0,0,0-.273-1.182,1.164,1.164,0,0,0-1-.371,1.559,1.559,0,0,0-1.455.869l.01.137V27h-3.3V20.35a2.117,2.117,0,0,0-.264-1.2,1.161,1.161,0,0,0-1.006-.371,1.578,1.578,0,0,0-1.445.869V27h-3.291V16.434ZM11.787,27.2a5.432,5.432,0,0,1-3.936-1.45,5.008,5.008,0,0,1-1.5-3.774V21.7a6.489,6.489,0,0,1,.6-2.861A4.395,4.395,0,0,1,8.7,16.917a5.292,5.292,0,0,1,2.734-.679,4.574,4.574,0,0,1,3.516,1.382,5.43,5.43,0,0,1,1.289,3.853v1.279H9.7a2.372,2.372,0,0,0,.771,1.4,2.3,2.3,0,0,0,1.543.508,2.958,2.958,0,0,0,2.441-1.094l1.5,1.777a4.2,4.2,0,0,1-1.743,1.353A5.891,5.891,0,0,1,11.787,27.2Zm-.371-8.418q-1.445,0-1.719,1.914h3.32v-.254a1.63,1.63,0,0,0-.4-1.226A1.593,1.593,0,0,0,11.416,18.777Zm9.17-2.344.107,1.24a3.583,3.583,0,0,1,3.018-1.436,3.015,3.015,0,0,1,2.466.986,4.7,4.7,0,0,1,.845,2.969V27h-3.3V20.33a1.783,1.783,0,0,0-.322-1.177,1.491,1.491,0,0,0-1.172-.376,1.569,1.569,0,0,0-1.436.762V27H17.5V16.434Zm12.09-2.627v2.627h1.738v2.285H32.676v4.834a1.234,1.234,0,0,0,.215.83,1.152,1.152,0,0,0,.85.234,4.828,4.828,0,0,0,.82-.059v2.354a6.074,6.074,0,0,1-1.855.283,3.448,3.448,0,0,1-2.51-.8,3.282,3.282,0,0,1-.811-2.432V18.719H28.037V16.434h1.348V13.807ZM41.66,27a3.716,3.716,0,0,1-.312-.947A3.06,3.06,0,0,1,38.809,27.2a3.749,3.749,0,0,1-2.539-.9,2.875,2.875,0,0,1-1.045-2.271,2.955,2.955,0,0,1,1.27-2.6,6.468,6.468,0,0,1,3.691-.879H41.2v-.559q0-1.462-1.26-1.462a1.03,1.03,0,0,0-1.172,1.158H35.479a2.95,2.95,0,0,1,1.3-2.487,5.479,5.479,0,0,1,3.325-.956,4.8,4.8,0,0,1,3.193.986,3.429,3.429,0,0,1,1.2,2.705v4.678a4.79,4.79,0,0,0,.449,2.227V27ZM39.6,24.852a1.836,1.836,0,0,0,1.021-.264,1.653,1.653,0,0,0,.581-.6V22.3h-.957q-1.719,0-1.719,1.543a.942.942,0,0,0,.3.728A1.1,1.1,0,0,0,39.6,24.852Zm6.309-3.213a6.455,6.455,0,0,1,1.084-3.955,3.568,3.568,0,0,1,3.027-1.445A3.035,3.035,0,0,1,52.4,17.352V12h3.3V27H52.744l-.166-1.133A3.116,3.116,0,0,1,50,27.2a3.562,3.562,0,0,1-2.988-1.445A6.659,6.659,0,0,1,45.908,21.639Zm3.291.205q0,2.813,1.641,2.813a1.62,1.62,0,0,0,1.563-.918V19.715a1.576,1.576,0,0,0-1.543-.937q-1.523,0-1.65,2.461Zm7.959-.225a6.236,6.236,0,0,1,.615-2.817,4.4,4.4,0,0,1,1.768-1.9,5.323,5.323,0,0,1,2.705-.664,4.858,4.858,0,0,1,3.74,1.47,5.64,5.64,0,0,1,1.367,4v.117a5.472,5.472,0,0,1-1.372,3.921,4.871,4.871,0,0,1-3.716,1.45,4.927,4.927,0,0,1-3.623-1.353,5.29,5.29,0,0,1-1.475-3.667Zm3.291.205a3.932,3.932,0,0,0,.459,2.148,1.529,1.529,0,0,0,1.357.684q1.758,0,1.8-2.705v-.332q0-2.842-1.816-2.842-1.65,0-1.787,2.451Z" transform="translate(936.62 1907.408)" fill="#fff"/>
    <g id="Trazado_245952" data-name="Trazado 245952" transform="translate(600 2001.389)">
      <path d="M 128 59.5 L 5 59.5 C 2.518683433532715 59.5 0.5 57.48131561279297 0.5 55 L 0.5 5 C 0.5 2.518683433532715 2.518683433532715 0.5 5 0.5 L 128 0.5 C 130.4813232421875 0.5 132.5 2.518683433532715 132.5 5 L 132.5 55 C 132.5 57.48131561279297 130.4813232421875 59.5 128 59.5 Z" stroke="none"/>
      <path d="M 5 1 C 2.794403076171875 1 1 2.794399261474609 1 5 L 1 55 C 1 57.20560073852539 2.794403076171875 59 5 59 L 128 59 C 130.2055969238281 59 132 57.20560073852539 132 55 L 132 5 C 132 2.794399261474609 130.2055969238281 1 128 1 L 5 1 M 5 0 L 128 0 C 130.7614135742188 0 133 2.238582611083984 133 5 L 133 55 C 133 57.76141738891602 130.7614135742188 60 128 60 L 5 60 C 2.238571166992188 60 0 57.76141738891602 0 55 L 0 5 C 0 2.238582611083984 2.238571166992188 0 5 0 Z" stroke="none" fill="#000"/>
    </g>
    <path id="Trazado_245953" data-name="Trazado 245953" d="M-36.88-4.814a5.193,5.193,0,0,1-.8,2.622A4.833,4.833,0,0,1-39.736-.43,7,7,0,0,1-42.759.2a5.584,5.584,0,0,1-4.414-1.826,7.54,7.54,0,0,1-1.611-5.156v-.7a8.607,8.607,0,0,1,.728-3.657,5.513,5.513,0,0,1,2.095-2.422,5.844,5.844,0,0,1,3.164-.854,6.129,6.129,0,0,1,4.16,1.362,5.383,5.383,0,0,1,1.787,3.755h-3.418a2.547,2.547,0,0,0-.654-1.865,2.691,2.691,0,0,0-1.875-.566,2.048,2.048,0,0,0-1.875.957A6.151,6.151,0,0,0-45.3-7.725v1.006a6.806,6.806,0,0,0,.571,3.252,2.091,2.091,0,0,0,1.968.977,2.632,2.632,0,0,0,1.807-.557,2.363,2.363,0,0,0,.664-1.768Zm1.055-.566A6.236,6.236,0,0,1-35.21-8.2a4.4,4.4,0,0,1,1.768-1.9,5.323,5.323,0,0,1,2.705-.664A4.858,4.858,0,0,1-27-9.292a5.64,5.64,0,0,1,1.367,4v.117A5.472,5.472,0,0,1-27-1.255,4.871,4.871,0,0,1-30.718.2a4.927,4.927,0,0,1-3.623-1.353,5.29,5.29,0,0,1-1.475-3.667Zm3.291.205a3.932,3.932,0,0,0,.459,2.148,1.529,1.529,0,0,0,1.357.684q1.758,0,1.8-2.705v-.332q0-2.842-1.816-2.842-1.65,0-1.787,2.451Zm11.377-5.391.107,1.24a3.583,3.583,0,0,1,3.018-1.436,3.015,3.015,0,0,1,2.466.986,4.7,4.7,0,0,1,.845,2.969V0h-3.3V-6.67a1.783,1.783,0,0,0-.322-1.177,1.491,1.491,0,0,0-1.172-.376,1.569,1.569,0,0,0-1.436.762V0h-3.291V-10.566Zm7.842,5.205a6.455,6.455,0,0,1,1.084-3.955A3.568,3.568,0,0,1-9.2-10.762,3.035,3.035,0,0,1-6.821-9.648V-15h3.3V0H-6.479l-.166-1.133A3.116,3.116,0,0,1-9.224.2,3.562,3.562,0,0,1-12.212-1.25,6.659,6.659,0,0,1-13.315-5.361Zm3.291.205q0,2.813,1.641,2.813a1.62,1.62,0,0,0,1.563-.918V-7.285a1.576,1.576,0,0,0-1.543-.937q-1.523,0-1.65,2.461ZM4.644-1.143A3.393,3.393,0,0,1,1.821.2,3.328,3.328,0,0,1-.811-.815,4.251,4.251,0,0,1-1.7-3.721v-6.846H1.587V-3.7A1.183,1.183,0,0,0,2.905-2.344a1.72,1.72,0,0,0,1.611-.811v-7.412H7.827V0H4.741Zm9.453-1.2a1.464,1.464,0,0,0,1.074-.376,1.379,1.379,0,0,0,.371-1.05h3.086A3.653,3.653,0,0,1,17.383-.918,4.631,4.631,0,0,1,14.175.2,4.689,4.689,0,0,1,10.542-1.25a5.7,5.7,0,0,1-1.328-4v-.137A6.436,6.436,0,0,1,9.8-8.218a4.3,4.3,0,0,1,1.7-1.885,5.081,5.081,0,0,1,2.637-.659,4.573,4.573,0,0,1,3.271,1.143,4.053,4.053,0,0,1,1.211,3.1H15.542a1.807,1.807,0,0,0-.4-1.26,1.382,1.382,0,0,0-1.074-.439q-1.279,0-1.494,1.631A11.508,11.508,0,0,0,12.5-5.166a4.52,4.52,0,0,0,.381,2.207A1.319,1.319,0,0,0,14.1-2.344Zm9.756-10.85v2.627h1.738v2.285H23.853v4.834a1.234,1.234,0,0,0,.215.83,1.152,1.152,0,0,0,.85.234,4.828,4.828,0,0,0,.82-.059V-.088A6.074,6.074,0,0,1,23.882.2a3.448,3.448,0,0,1-2.51-.8,3.282,3.282,0,0,1-.811-2.432V-8.281H19.214v-2.285h1.348v-2.627Zm2.324,7.813A6.236,6.236,0,0,1,26.792-8.2a4.4,4.4,0,0,1,1.768-1.9,5.323,5.323,0,0,1,2.705-.664A4.858,4.858,0,0,1,35-9.292a5.64,5.64,0,0,1,1.367,4v.117A5.472,5.472,0,0,1,35-1.255,4.871,4.871,0,0,1,31.284.2a4.927,4.927,0,0,1-3.623-1.353,5.29,5.29,0,0,1-1.475-3.667Zm3.291.205a3.932,3.932,0,0,0,.459,2.148,1.529,1.529,0,0,0,1.357.684q1.758,0,1.8-2.705v-.332q0-2.842-1.816-2.842-1.65,0-1.787,2.451ZM44.214-7.588,43.13-7.666a1.947,1.947,0,0,0-1.992.977V0H37.847V-10.566h3.086l.107,1.357a2.548,2.548,0,0,1,2.314-1.553,3.209,3.209,0,0,1,.918.117ZM-34.976,27a3.716,3.716,0,0,1-.312-.947A3.06,3.06,0,0,1-37.827,27.2a3.749,3.749,0,0,1-2.539-.9,2.875,2.875,0,0,1-1.045-2.271,2.955,2.955,0,0,1,1.27-2.6,6.468,6.468,0,0,1,3.691-.879h1.016v-.559q0-1.462-1.26-1.462a1.03,1.03,0,0,0-1.172,1.158h-3.291a2.95,2.95,0,0,1,1.3-2.487,5.479,5.479,0,0,1,3.325-.956,4.8,4.8,0,0,1,3.193.986,3.429,3.429,0,0,1,1.2,2.705v4.678a4.79,4.79,0,0,0,.449,2.227V27Zm-2.061-2.148a1.836,1.836,0,0,0,1.021-.264,1.653,1.653,0,0,0,.581-.6V22.3h-.957q-1.719,0-1.719,1.543a.942.942,0,0,0,.3.728A1.1,1.1,0,0,0-37.036,24.852Zm6.309-3.213a6.455,6.455,0,0,1,1.084-3.955,3.568,3.568,0,0,1,3.027-1.445,3.035,3.035,0,0,1,2.383,1.113V12h3.3V27h-2.959l-.166-1.133A3.116,3.116,0,0,1-26.636,27.2a3.562,3.562,0,0,1-2.988-1.445A6.659,6.659,0,0,1-30.728,21.639Zm3.291.205q0,2.813,1.641,2.813a1.62,1.62,0,0,0,1.563-.918V19.715a1.576,1.576,0,0,0-1.543-.937q-1.523,0-1.65,2.461ZM-13.11,27a3.716,3.716,0,0,1-.312-.947A3.06,3.06,0,0,1-15.962,27.2a3.749,3.749,0,0,1-2.539-.9,2.875,2.875,0,0,1-1.045-2.271,2.955,2.955,0,0,1,1.27-2.6,6.468,6.468,0,0,1,3.691-.879h1.016v-.559q0-1.462-1.26-1.462A1.03,1.03,0,0,0-16,19.681h-3.291a2.95,2.95,0,0,1,1.3-2.487,5.479,5.479,0,0,1,3.325-.956,4.8,4.8,0,0,1,3.193.986,3.429,3.429,0,0,1,1.2,2.705v4.678a4.79,4.79,0,0,0,.449,2.227V27Zm-2.061-2.148a1.836,1.836,0,0,0,1.021-.264,1.653,1.653,0,0,0,.581-.6V22.3h-.957q-1.719,0-1.719,1.543a.942.942,0,0,0,.3.728A1.1,1.1,0,0,0-15.171,24.852ZM1.362,21.795A6.372,6.372,0,0,1,.254,25.726,3.554,3.554,0,0,1-2.739,27.2a3.046,3.046,0,0,1-2.393-1.064v4.932H-8.423V16.434h3.076l.1.977a3.046,3.046,0,0,1,2.49-1.172,3.582,3.582,0,0,1,3.037,1.44,6.45,6.45,0,0,1,1.084,3.96Zm-3.291-.205q0-2.812-1.641-2.812a1.549,1.549,0,0,0-1.562.84v4.16a1.6,1.6,0,0,0,1.582.879q1.572,0,1.621-2.715Zm8.574-7.783v2.627H8.384v2.285H6.646v4.834a1.234,1.234,0,0,0,.215.83,1.152,1.152,0,0,0,.85.234,4.828,4.828,0,0,0,.82-.059v2.354a6.074,6.074,0,0,1-1.855.283,3.448,3.448,0,0,1-2.51-.8,3.282,3.282,0,0,1-.811-2.432V18.719H2.007V16.434H3.354V13.807ZM15.63,27a3.716,3.716,0,0,1-.312-.947A3.06,3.06,0,0,1,12.778,27.2a3.749,3.749,0,0,1-2.539-.9,2.875,2.875,0,0,1-1.045-2.271,2.955,2.955,0,0,1,1.27-2.6,6.468,6.468,0,0,1,3.691-.879h1.016v-.559q0-1.462-1.26-1.462a1.03,1.03,0,0,0-1.172,1.158H9.448a2.95,2.95,0,0,1,1.3-2.487,5.479,5.479,0,0,1,3.325-.956,4.8,4.8,0,0,1,3.193.986,3.429,3.429,0,0,1,1.2,2.705v4.678a4.79,4.79,0,0,0,.449,2.227V27Zm-2.061-2.148a1.836,1.836,0,0,0,1.021-.264,1.653,1.653,0,0,0,.581-.6V22.3h-.957q-1.719,0-1.719,1.543a.942.942,0,0,0,.3.728A1.1,1.1,0,0,0,13.569,24.852Zm6.309-3.213a6.455,6.455,0,0,1,1.084-3.955,3.568,3.568,0,0,1,3.027-1.445,3.035,3.035,0,0,1,2.383,1.113V12h3.3V27H26.714l-.166-1.133A3.116,3.116,0,0,1,23.97,27.2a3.562,3.562,0,0,1-2.988-1.445A6.659,6.659,0,0,1,19.878,21.639Zm3.291.205q0,2.813,1.641,2.813a1.62,1.62,0,0,0,1.563-.918V19.715a1.576,1.576,0,0,0-1.543-.937q-1.523,0-1.65,2.461Zm7.959-.225a6.236,6.236,0,0,1,.615-2.817,4.4,4.4,0,0,1,1.768-1.9,5.323,5.323,0,0,1,2.705-.664,4.858,4.858,0,0,1,3.74,1.47,5.64,5.64,0,0,1,1.367,4v.117a5.472,5.472,0,0,1-1.372,3.921,4.871,4.871,0,0,1-3.716,1.45,4.927,4.927,0,0,1-3.623-1.353,5.29,5.29,0,0,1-1.475-3.667Zm3.291.205a3.932,3.932,0,0,0,.459,2.148,1.529,1.529,0,0,0,1.357.684q1.758,0,1.8-2.705v-.332q0-2.842-1.816-2.842-1.65,0-1.787,2.451Z" transform="translate(666.5 2025.889)" fill="#fff"/>
    <g id="Trazado_245954" data-name="Trazado 245954" transform="translate(1140 2001.389)">
      <path d="M 128 59.5 L 5 59.5 C 2.518683433532715 59.5 0.5 57.48131561279297 0.5 55 L 0.5 5 C 0.5 2.518683433532715 2.518683433532715 0.5 5 0.5 L 128 0.5 C 130.4813232421875 0.5 132.5 2.518683433532715 132.5 5 L 132.5 55 C 132.5 57.48131561279297 130.4813232421875 59.5 128 59.5 Z" stroke="none"/>
      <path d="M 5 1 C 2.794403076171875 1 1 2.794399261474609 1 5 L 1 55 C 1 57.20560073852539 2.794403076171875 59 5 59 L 128 59 C 130.2055969238281 59 132 57.20560073852539 132 55 L 132 5 C 132 2.794399261474609 130.2055969238281 1 128 1 L 5 1 M 5 0 L 128 0 C 130.7614135742188 0 133 2.238582611083984 133 5 L 133 55 C 133 57.76141738891602 130.7614135742188 60 128 60 L 5 60 C 2.238571166992188 60 0 57.76141738891602 0 55 L 0 5 C 0 2.238582611083984 2.238571166992188 0 5 0 Z" stroke="none" fill="#000"/>
    </g>
    <path id="Trazado_245955" data-name="Trazado 245955" d="M-36.88-4.814a5.193,5.193,0,0,1-.8,2.622A4.833,4.833,0,0,1-39.736-.43,7,7,0,0,1-42.759.2a5.584,5.584,0,0,1-4.414-1.826,7.54,7.54,0,0,1-1.611-5.156v-.7a8.607,8.607,0,0,1,.728-3.657,5.513,5.513,0,0,1,2.095-2.422,5.844,5.844,0,0,1,3.164-.854,6.129,6.129,0,0,1,4.16,1.362,5.383,5.383,0,0,1,1.787,3.755h-3.418a2.547,2.547,0,0,0-.654-1.865,2.691,2.691,0,0,0-1.875-.566,2.048,2.048,0,0,0-1.875.957A6.151,6.151,0,0,0-45.3-7.725v1.006a6.806,6.806,0,0,0,.571,3.252,2.091,2.091,0,0,0,1.968.977,2.632,2.632,0,0,0,1.807-.557,2.363,2.363,0,0,0,.664-1.768Zm1.055-.566A6.236,6.236,0,0,1-35.21-8.2a4.4,4.4,0,0,1,1.768-1.9,5.323,5.323,0,0,1,2.705-.664A4.858,4.858,0,0,1-27-9.292a5.64,5.64,0,0,1,1.367,4v.117A5.472,5.472,0,0,1-27-1.255,4.871,4.871,0,0,1-30.718.2a4.927,4.927,0,0,1-3.623-1.353,5.29,5.29,0,0,1-1.475-3.667Zm3.291.205a3.932,3.932,0,0,0,.459,2.148,1.529,1.529,0,0,0,1.357.684q1.758,0,1.8-2.705v-.332q0-2.842-1.816-2.842-1.65,0-1.787,2.451Zm11.377-5.391.107,1.24a3.583,3.583,0,0,1,3.018-1.436,3.015,3.015,0,0,1,2.466.986,4.7,4.7,0,0,1,.845,2.969V0h-3.3V-6.67a1.783,1.783,0,0,0-.322-1.177,1.491,1.491,0,0,0-1.172-.376,1.569,1.569,0,0,0-1.436.762V0h-3.291V-10.566Zm7.842,5.205a6.455,6.455,0,0,1,1.084-3.955A3.568,3.568,0,0,1-9.2-10.762,3.035,3.035,0,0,1-6.821-9.648V-15h3.3V0H-6.479l-.166-1.133A3.116,3.116,0,0,1-9.224.2,3.562,3.562,0,0,1-12.212-1.25,6.659,6.659,0,0,1-13.315-5.361Zm3.291.205q0,2.813,1.641,2.813a1.62,1.62,0,0,0,1.563-.918V-7.285a1.576,1.576,0,0,0-1.543-.937q-1.523,0-1.65,2.461ZM4.644-1.143A3.393,3.393,0,0,1,1.821.2,3.328,3.328,0,0,1-.811-.815,4.251,4.251,0,0,1-1.7-3.721v-6.846H1.587V-3.7A1.183,1.183,0,0,0,2.905-2.344a1.72,1.72,0,0,0,1.611-.811v-7.412H7.827V0H4.741Zm9.453-1.2a1.464,1.464,0,0,0,1.074-.376,1.379,1.379,0,0,0,.371-1.05h3.086A3.653,3.653,0,0,1,17.383-.918,4.631,4.631,0,0,1,14.175.2,4.689,4.689,0,0,1,10.542-1.25a5.7,5.7,0,0,1-1.328-4v-.137A6.436,6.436,0,0,1,9.8-8.218a4.3,4.3,0,0,1,1.7-1.885,5.081,5.081,0,0,1,2.637-.659,4.573,4.573,0,0,1,3.271,1.143,4.053,4.053,0,0,1,1.211,3.1H15.542a1.807,1.807,0,0,0-.4-1.26,1.382,1.382,0,0,0-1.074-.439q-1.279,0-1.494,1.631A11.508,11.508,0,0,0,12.5-5.166a4.52,4.52,0,0,0,.381,2.207A1.319,1.319,0,0,0,14.1-2.344Zm9.756-10.85v2.627h1.738v2.285H23.853v4.834a1.234,1.234,0,0,0,.215.83,1.152,1.152,0,0,0,.85.234,4.828,4.828,0,0,0,.82-.059V-.088A6.074,6.074,0,0,1,23.882.2a3.448,3.448,0,0,1-2.51-.8,3.282,3.282,0,0,1-.811-2.432V-8.281H19.214v-2.285h1.348v-2.627Zm2.324,7.813A6.236,6.236,0,0,1,26.792-8.2a4.4,4.4,0,0,1,1.768-1.9,5.323,5.323,0,0,1,2.705-.664A4.858,4.858,0,0,1,35-9.292a5.64,5.64,0,0,1,1.367,4v.117A5.472,5.472,0,0,1,35-1.255,4.871,4.871,0,0,1,31.284.2a4.927,4.927,0,0,1-3.623-1.353,5.29,5.29,0,0,1-1.475-3.667Zm3.291.205a3.932,3.932,0,0,0,.459,2.148,1.529,1.529,0,0,0,1.357.684q1.758,0,1.8-2.705v-.332q0-2.842-1.816-2.842-1.65,0-1.787,2.451ZM44.214-7.588,43.13-7.666a1.947,1.947,0,0,0-1.992.977V0H37.847V-10.566h3.086l.107,1.357a2.548,2.548,0,0,1,2.314-1.553,3.209,3.209,0,0,1,.918.117ZM-31.558,21.795a6.372,6.372,0,0,1-1.108,3.931,3.554,3.554,0,0,1-2.993,1.47,3.046,3.046,0,0,1-2.393-1.064v4.932h-3.291V16.434h3.076l.1.977a3.046,3.046,0,0,1,2.49-1.172,3.582,3.582,0,0,1,3.037,1.44,6.45,6.45,0,0,1,1.084,3.96Zm-3.291-.205q0-2.812-1.641-2.812a1.549,1.549,0,0,0-1.562.84v4.16a1.6,1.6,0,0,0,1.582.879q1.572,0,1.621-2.715ZM-25,27.2a5.432,5.432,0,0,1-3.936-1.45,5.008,5.008,0,0,1-1.5-3.774V21.7a6.489,6.489,0,0,1,.6-2.861,4.395,4.395,0,0,1,1.753-1.919,5.292,5.292,0,0,1,2.734-.679,4.574,4.574,0,0,1,3.516,1.382,5.43,5.43,0,0,1,1.289,3.853v1.279h-6.543a2.372,2.372,0,0,0,.771,1.4,2.3,2.3,0,0,0,1.543.508,2.958,2.958,0,0,0,2.441-1.094l1.5,1.777a4.2,4.2,0,0,1-1.743,1.353A5.891,5.891,0,0,1-25,27.2Zm-.371-8.418q-1.445,0-1.719,1.914h3.32v-.254a1.63,1.63,0,0,0-.4-1.226A1.593,1.593,0,0,0-25.366,18.777ZM-15.747,27h-3.3V12h3.3Zm5.5,0h-3.3V16.434h3.3Zm-3.5-13.291a1.469,1.469,0,0,1,.508-1.152,1.916,1.916,0,0,1,1.318-.449,1.916,1.916,0,0,1,1.318.449,1.469,1.469,0,0,1,.508,1.152,1.469,1.469,0,0,1-.508,1.152,1.916,1.916,0,0,1-1.318.449,1.916,1.916,0,0,1-1.318-.449A1.469,1.469,0,0,1-13.745,13.709Zm5.137,7.93a7.134,7.134,0,0,1,.527-2.832,4.245,4.245,0,0,1,1.514-1.9,3.99,3.99,0,0,1,2.295-.669,3.173,3.173,0,0,1,2.578,1.113l.117-.918H1.411V26.6a4.455,4.455,0,0,1-.649,2.427,4.167,4.167,0,0,1-1.88,1.582,6.91,6.91,0,0,1-2.852.552,5.961,5.961,0,0,1-2.251-.439,4.063,4.063,0,0,1-1.665-1.143l1.377-1.934a3.018,3.018,0,0,0,2.422,1.084A1.96,1.96,0,0,0-1.9,26.482V26.15A3.09,3.09,0,0,1-4.292,27.2a3.819,3.819,0,0,1-3.125-1.479,6.13,6.13,0,0,1-1.191-3.96Zm3.3.205A3.759,3.759,0,0,0-4.819,23.9a1.541,1.541,0,0,0,1.367.757A1.748,1.748,0,0,0-1.9,23.943V19.5a1.7,1.7,0,0,0-1.533-.723,1.551,1.551,0,0,0-1.377.786A4.287,4.287,0,0,0-5.308,21.844Zm14.98-2.432-1.084-.078a1.947,1.947,0,0,0-1.992.977V27H3.306V16.434H6.392L6.5,17.791a2.548,2.548,0,0,1,2.314-1.553,3.209,3.209,0,0,1,.918.117Zm.42,2.207a6.236,6.236,0,0,1,.615-2.817,4.4,4.4,0,0,1,1.768-1.9,5.323,5.323,0,0,1,2.705-.664,4.858,4.858,0,0,1,3.74,1.47,5.64,5.64,0,0,1,1.367,4v.117a5.472,5.472,0,0,1-1.372,3.921A4.871,4.871,0,0,1,15.2,27.2a4.927,4.927,0,0,1-3.623-1.353A5.29,5.29,0,0,1,10.1,22.176Zm3.291.205a3.932,3.932,0,0,0,.459,2.148,1.529,1.529,0,0,0,1.357.684q1.758,0,1.8-2.705v-.332q0-2.842-1.816-2.842-1.65,0-1.787,2.451Zm13.887,2.207a.76.76,0,0,0-.439-.674,6.684,6.684,0,0,0-1.67-.527,7.615,7.615,0,0,1-2.031-.718,3.4,3.4,0,0,1-1.221-1.079,2.577,2.577,0,0,1-.42-1.455,2.92,2.92,0,0,1,1.2-2.4,4.948,4.948,0,0,1,3.145-.942,5.482,5.482,0,0,1,3.359.947,2.962,2.962,0,0,1,1.27,2.49h-3.3q0-1.27-1.338-1.27a1.326,1.326,0,0,0-.869.288.892.892,0,0,0-.352.718.819.819,0,0,0,.43.713,4.06,4.06,0,0,0,1.372.449,11.857,11.857,0,0,1,1.655.42,3.007,3.007,0,0,1,2.383,2.939,2.767,2.767,0,0,1-1.284,2.354,5.631,5.631,0,0,1-3.325.908,5.747,5.747,0,0,1-2.422-.488,4.05,4.05,0,0,1-1.66-1.328,3.007,3.007,0,0,1-.6-1.768h3.076a1.272,1.272,0,0,0,.488,1.069,2.009,2.009,0,0,0,1.2.337,1.58,1.58,0,0,0,1.011-.273A.875.875,0,0,0,27.271,24.031Zm4.3-2.412a6.236,6.236,0,0,1,.615-2.817,4.4,4.4,0,0,1,1.768-1.9,5.323,5.323,0,0,1,2.705-.664,4.858,4.858,0,0,1,3.74,1.47,5.64,5.64,0,0,1,1.367,4v.117a5.472,5.472,0,0,1-1.372,3.921,4.871,4.871,0,0,1-3.716,1.45,4.927,4.927,0,0,1-3.623-1.353,5.29,5.29,0,0,1-1.475-3.667Zm3.291.205a3.932,3.932,0,0,0,.459,2.148,1.529,1.529,0,0,0,1.357.684q1.758,0,1.8-2.705v-.332q0-2.842-1.816-2.842-1.65,0-1.787,2.451Z" transform="translate(1206.5 2025.889)" fill="#fff"/>
    <path id="Trazado_245692" data-name="Trazado 245692" d="M239.306,265.978a1.488,1.488,0,0,0-1.488-1.488h-5.951a1.488,1.488,0,1,0,0,2.976h5.951A1.488,1.488,0,0,0,239.306,265.978Z" transform="translate(161.131 1514.563)" fill="#f88f05"/>
    <path id="Trazado_245693" data-name="Trazado 245693" d="M200.709,187.69h-2.976a2.352,2.352,0,1,0,2.976,2.976,1.488,1.488,0,0,0,0-2.976Z" transform="translate(189.313 1577.973)" fill="#f88f05"/>
    <path id="Trazado_245694" data-name="Trazado 245694" d="M286.042,187.69h-2.976a2.352,2.352,0,1,0,2.976,2.976,1.488,1.488,0,0,0,0-2.976Z" transform="translate(118.859 1577.973)" fill="#f88f05"/>
    <path id="Trazado_245695" data-name="Trazado 245695" d="M240.4,233.333h2.976a1.488,1.488,0,0,0,0-2.976H240.4a1.488,1.488,0,0,0,0,2.976Z" transform="translate(154.086 1542.745)" fill="#f88f05"/>
    <path id="Trazado_245696" data-name="Trazado 245696" d="M195.151,165.067a1.488,1.488,0,0,0,0-2.976H189.2a1.488,1.488,0,1,0,0,2.976Z" transform="translate(196.359 1599.108)" fill="#f88f05"/>
    <path id="Trazado_245697" data-name="Trazado 245697" d="M274.533,165.067h5.951a1.488,1.488,0,1,0,0-2.976h-5.951a1.488,1.488,0,0,0,0,2.976Z" transform="translate(125.904 1599.108)" fill="#f88f05"/>
    <path id="Trazado_245698" data-name="Trazado 245698" d="M65.662,89.263H122.2a5.951,5.951,0,0,0,5.951-5.951V78.848a4.472,4.472,0,0,0-2.976-4.209V69.56a5.773,5.773,0,0,0-1.54-3.958,8.307,8.307,0,0,0-6.355-7.375l-7.268-1.817a25.667,25.667,0,0,0-4.257-2.855l3.482-3.04a7.451,7.451,0,0,0,2.547-5.62v-1.9A7.42,7.42,0,0,0,113.012,28.8a20.209,20.209,0,0,0,1.748-9.427c0-7.546-7.341-11.257-10.9-12.611a3.9,3.9,0,0,1,.683-.406,2.224,2.224,0,0,0-.055-4.077C88.775-4.451,80.978,5.636,79.5,7.854a11.761,11.761,0,0,0-6.121,7.212c-1.488,5.106.573,10.713,1.918,13.577a7.421,7.421,0,0,0,.781,14.349v1.9a7.451,7.451,0,0,0,2.547,5.614l3.48,3.046a25.665,25.665,0,0,0-4.257,2.861L70.58,58.227a8.307,8.307,0,0,0-6.355,7.38,5.772,5.772,0,0,0-1.54,3.953v5.08a4.473,4.473,0,0,0-2.976,4.209v4.464a5.952,5.952,0,0,0,5.952,5.951ZM89.467,65.111A16.45,16.45,0,0,1,83.7,63.132,16.135,16.135,0,0,1,88.909,60.3a.375.375,0,0,1,.345.065.5.5,0,0,1,.213.394Zm-7.96.149a19.2,19.2,0,0,0,7.96,2.849v1.812a7.459,7.459,0,0,0-2.922,5.059l-7.493,4.339v-.47a4.435,4.435,0,0,0-1.473-3.291A16.405,16.405,0,0,1,81.507,65.26ZM79.052,84.8V82.52a3.412,3.412,0,0,0,1.058-.375l8.615-4.984a1.488,1.488,0,0,0,.742-1.289A4.463,4.463,0,0,1,91.7,72.015a1.488,1.488,0,0,0,.744-1.29V60.756a3.472,3.472,0,0,0-1.434-2.8A3.324,3.324,0,0,0,88,57.465a19.461,19.461,0,0,0-13.349,16.92H71.667a21.859,21.859,0,0,1,.881-4.91,22.318,22.318,0,0,1,42.768.009,21.72,21.72,0,0,1,.879,4.9h-2.982A19.269,19.269,0,0,0,100,57.51a3.5,3.5,0,0,0-3.154.469,3.4,3.4,0,0,0-1.428,2.793v9.954a1.487,1.487,0,0,0,.744,1.29,4.463,4.463,0,0,1,2.232,3.858,1.487,1.487,0,0,0,.744,1.288l8.629,4.984a3.372,3.372,0,0,0,1.041.369V84.8a4.409,4.409,0,0,0,.274,1.488h-1.419a3.4,3.4,0,0,0-1.4-1.571l-8.629-4.984a1.488,1.488,0,0,0-1.5.009,4.438,4.438,0,0,1-4.4,0,1.488,1.488,0,0,0-1.5-.009L81.57,84.724A3.456,3.456,0,0,0,80.2,86.288H78.779a4.417,4.417,0,0,0,.274-1.488ZM98.394,68.109a19.172,19.172,0,0,0,7.987-2.867,16.323,16.323,0,0,1,3.9,10.314,4.436,4.436,0,0,0-1.476,3.293v.463l-7.493-4.331a7.452,7.452,0,0,0-2.922-5.059Zm0-3v-4.34a.437.437,0,0,1,.189-.369.528.528,0,0,1,.478-.062,16.316,16.316,0,0,1,5.117,2.782A16.409,16.409,0,0,1,98.394,65.111Zm4.641,21.177H84.813l6.2-3.571a7.462,7.462,0,0,0,5.828,0Zm22.141-7.439v4.464a2.976,2.976,0,0,1-2.976,2.976h-8.927a1.488,1.488,0,0,1-1.488-1.488V78.848a1.488,1.488,0,0,1,1.488-1.488h4.464a1.488,1.488,0,0,0,1.488-1.488,24.931,24.931,0,0,0-1.058-7.237c-.049-.167-.115-.326-.168-.491a2.286,2.286,0,0,1,1.293-1.088,2.064,2.064,0,0,1,1.934.323,2.688,2.688,0,0,1,.974,2.18v6.313a1.488,1.488,0,0,0,1.488,1.488A1.488,1.488,0,0,1,125.176,78.848Zm-4.99-14.837a5.029,5.029,0,0,0-1.827.219,5.3,5.3,0,0,0-1.556.863,25.1,25.1,0,0,0-2.858-4.633l2.616.653A5.492,5.492,0,0,1,120.185,64.011ZM76.239,15.89A8.907,8.907,0,0,1,81.2,10.324a1.509,1.509,0,0,0,.637-.607c.247-.446,6.047-10.5,20.119-5.243a6.42,6.42,0,0,0-1.213,1.239,2.232,2.232,0,0,0-.372,2A2.263,2.263,0,0,0,101.818,9.2c2.339.762,9.967,3.738,9.967,10.178A22.219,22.219,0,0,1,111,25.866a7.245,7.245,0,0,0-3.011-3.4,1.458,1.458,0,0,0-.85-.149c-7.962.994-10.2-.062-13.906-1.814a51.977,51.977,0,0,0-6.27-2.586,7.033,7.033,0,0,0-6.649.68,10.265,10.265,0,0,0-3.5,5.768,14.8,14.8,0,0,1-.572-8.476Zm4.343,32.377A4.474,4.474,0,0,1,79.052,44.9V41.652a1.488,1.488,0,0,0-1.488-1.488,4.437,4.437,0,0,1-1.488-8.629v2.678a1.488,1.488,0,0,0,2.976,0V29.749c0-1.828.539-6.959,3-8.732a4.187,4.187,0,0,1,3.97-.271A49.525,49.525,0,0,1,91.959,23.2c3.824,1.806,6.606,3.124,15,2.143a5.339,5.339,0,0,1,1.848,4.4v4.464a1.488,1.488,0,1,0,2.976,0V31.535a4.437,4.437,0,0,1-1.488,8.63,1.488,1.488,0,0,0-1.488,1.488V44.9a4.474,4.474,0,0,1-1.529,3.372l-4.516,3.949a24.718,24.718,0,0,0-17.667,0ZM71.3,61.113l2.614-.653a24.946,24.946,0,0,0-2.857,4.633A5.264,5.264,0,0,0,69.5,64.23a5.022,5.022,0,0,0-1.827-.219A5.49,5.49,0,0,1,71.3,61.113ZM62.686,78.848a1.488,1.488,0,0,1,1.488-1.488,1.488,1.488,0,0,0,1.488-1.488V69.56a2.692,2.692,0,0,1,.972-2.18,2.067,2.067,0,0,1,1.934-.323,2.285,2.285,0,0,1,1.293,1.088c-.052.162-.118.317-.165.481a24.954,24.954,0,0,0-1.058,7.247,1.488,1.488,0,0,0,1.488,1.488h4.464a1.488,1.488,0,0,1,1.488,1.488V84.8a1.488,1.488,0,0,1-1.488,1.488H65.661a2.976,2.976,0,0,1-2.976-2.976V78.848Z" transform="translate(302.043 1732.938)" fill="#f88f05"/>
    <path id="Trazado_245956" data-name="Trazado 245956" d="M1.488,0A1.488,1.488,0,1,1,0,1.488,1.488,1.488,0,0,1,1.488,0Z" transform="translate(394.486 1807.322)" fill="#f88f05"/>
    <g id="Grupo_948041" data-name="Grupo 948041" transform="translate(624.376 1861.709)">
      <path id="Trazado_245876" data-name="Trazado 245876" d="M348.287,310.869a6.5,6.5,0,0,0,13,0v-1.3h-13v1.3Zm10.181,1.3a3.9,3.9,0,0,1-7.358,0Z" transform="translate(-301.473 -267.959)" fill="#f88f05"/>
      <path id="Trazado_245877" data-name="Trazado 245877" d="M418.611,236.083a1.3,1.3,0,0,1,2.6,0v1.3h2.6v-1.3a3.9,3.9,0,1,0-7.8,0v1.3h2.6Z" transform="translate(-360.093 -200.974)" fill="#f88f05"/>
      <path id="Trazado_245878" data-name="Trazado 245878" d="M321.865,236.083a1.3,1.3,0,0,1,2.6,0v1.3h2.6v-1.3a3.9,3.9,0,1,0-7.8,0v1.3h2.6Z" transform="translate(-276.351 -200.974)" fill="#f88f05"/>
      <path id="Trazado_245879" data-name="Trazado 245879" d="M80.624,27.308a3.906,3.906,0,0,0-3.9-3.9H74.867a17.312,17.312,0,0,0-7.247-10.16V6.5a6.509,6.509,0,0,0-6.5-6.5H14.3A6.535,6.535,0,0,0,8.062,4.681L.234,31.521a5.852,5.852,0,0,0,5.618,7.49H33.009a5.154,5.154,0,0,0,3.4,1.3A14.212,14.212,0,0,0,40.6,50.425c.033.033.068.06.1.091a46.617,46.617,0,0,0,3.069,11,8.562,8.562,0,0,1-3.809.9H28.609a5.139,5.139,0,0,0-2.45.641L24.6,57.622a3.9,3.9,0,1,0-7.579,1.849l1.213,4.248H10.4v-9.1H0V80.624H80.624V53.316a3.876,3.876,0,0,0-1.014-2.6,3.87,3.87,0,0,0,1.014-2.6Zm-3.9-1.3a1.3,1.3,0,0,1,1.3,1.3V48.114a1.3,1.3,0,0,1-1.3,1.3h-5.2a1.3,1.3,0,0,1-1.3-1.3v-7.8a5.207,5.207,0,0,0,5.2-5.2,5.129,5.129,0,0,0-.611-2.393,17.239,17.239,0,0,0,.611-4.507v-.534c0-.562-.031-1.117-.085-1.666h1.385ZM55.383,54.616a4.434,4.434,0,0,1,4.278,5.6,17.07,17.07,0,0,1-3.9,7.056,45.814,45.814,0,0,1-6.2-12.714c.381.03.763.056,1.149.056h3.739v0Zm4.434,11.615v6.256c-.775-.878-1.625-1.9-2.51-3.062a19.766,19.766,0,0,0,2.51-3.194Zm2.6-7.714h-.027c-.016-.206-.042-.407-.074-.607l5.265-4.387c.012-.01.026-.017.038-.026V78.023h-5.2V58.517Zm3.5-6.993-4.572,3.81a7.105,7.105,0,0,0-1.13-1.384,14.359,14.359,0,0,0,7.44-5.49,3.858,3.858,0,0,0,.559,1.7A9.1,9.1,0,0,0,65.918,51.524Zm6.9-16.415a2.6,2.6,0,0,1-2.6,2.6v-5.2A2.6,2.6,0,0,1,72.822,35.109ZM2.6,33.16a3.279,3.279,0,0,1,.13-.91L10.559,5.41A3.921,3.921,0,0,1,14.3,2.6H61.118a3.906,3.906,0,0,1,3.9,3.9v5.334a17.116,17.116,0,0,0-2.6-.878V7.8a2.6,2.6,0,0,0-2.6-2.6H15.28a2.615,2.615,0,0,0-2.5,1.872L5.471,32.146A1.3,1.3,0,0,0,6.719,33.81H31.394a4.656,4.656,0,0,0,0,2.6H5.852A3.255,3.255,0,0,1,2.6,33.16ZM59.818,10.488c-.549-.053-1.1-.085-1.666-.085H48.48A17.211,17.211,0,0,0,31.589,31.209H8.453L15.28,7.8H59.818ZM33.81,35.109a2.6,2.6,0,0,1,2.6-2.6v5.2a2.6,2.6,0,0,1-2.6-2.6Zm2.6-5.2a5.13,5.13,0,0,0-2.32.571A14.622,14.622,0,0,1,48.48,13h9.672a14.687,14.687,0,0,1,14.67,14.67v.534a14.553,14.553,0,0,1-.19,2.32,5.129,5.129,0,0,0-2.411-.62H70.14A11.889,11.889,0,0,0,60.006,19.52l-.189,1.286-.092,1.3a9.253,9.253,0,0,1,7.637,6.952,38.482,38.482,0,0,0-14.967-3.051H49.284a5.2,5.2,0,0,1-5.046-3.935l-.724-2.883-2.521.633.724,2.883a7.575,7.575,0,0,0,.272.792,6.493,6.493,0,0,0-5.578,6.41Zm2.6,10.4v-10.4a3.906,3.906,0,0,1,3.9-3.9h.562a7.786,7.786,0,0,0,5.81,2.6H52.4a35.838,35.838,0,0,1,15.225,3.43v8.27a11.717,11.717,0,0,1-11.7,11.7h-5.2a11.7,11.7,0,0,1-11.7-11.7Zm7.72,13.737c2.864,10.86,9.8,18.921,13.086,22.259v1.718H57.845C54.107,74.226,46.4,65.16,43.753,52.8a14.2,14.2,0,0,0,2.979,1.246ZM29.791,75.77l-.843-2.948h2.5a3.9,3.9,0,0,0,3.662,2.6h3.9v2.6H29.668A3.989,3.989,0,0,0,29.791,75.77Zm11.822-.347h1.546A19.8,19.8,0,0,0,50.84,73.83c1.222,1.629,2.4,3.034,3.439,4.194H41.612v-2.6Zm-6.5-10.4h4.85A11.132,11.132,0,0,0,44.823,63.9a56.971,56.971,0,0,0,4.467,7.77,16.927,16.927,0,0,1-6.131,1.155H35.111a1.3,1.3,0,0,1-1.3-1.3v-6.5Zm-6.5,0h2.6v5.2h-2.6a2.6,2.6,0,0,1,0-5.2ZM20.5,57.254a1.309,1.309,0,0,1,1.59,1.023l1.966,6.882a5.108,5.108,0,0,0,1.987,6.958l1.231,4.306a1.3,1.3,0,0,1-.953,1.563,1.287,1.287,0,0,1-1.594-1.023L19.54,58.817a1.3,1.3,0,0,1,.958-1.563ZM18.982,66.32l.744,2.6H10.4v-2.6ZM7.8,78.023H2.6V57.217H7.8Zm2.6-6.5H20.468l1.743,6.1a4.246,4.246,0,0,0,.133.406H10.4Zm67.62,6.5h-7.8v-25.8a6.458,6.458,0,0,1,1.524-.206h4.978a1.3,1.3,0,0,1,1.3,1.3V78.023Z" transform="translate(0)" fill="#f88f05"/>
    </g>
    <g id="Grupo_948056" data-name="Grupo 948056" transform="translate(891.191 1742.188)">
      <path id="Trazado_245893" data-name="Trazado 245893" d="M17.752,40.428l-.732-.482-.732.481A22.147,22.147,0,0,1,6.214,43.942L5,44.054V46A21.926,21.926,0,0,0,16.378,65.229l.642.354.642-.353A21.936,21.936,0,0,0,29.041,46V44.054l-1.213-.112a22.161,22.161,0,0,1-10.076-3.514Zm.6,21.2V50.7H15.685V61.631a19.255,19.255,0,0,1-8.008-15.17,24.85,24.85,0,0,0,8.008-2.618v4.188h2.671v-4.19a24.828,24.828,0,0,0,8.008,2.618A19.257,19.257,0,0,1,18.356,61.63Z" transform="translate(0.342 12.071)" fill="#f88f05"/>
      <path id="Trazado_245894" data-name="Trazado 245894" d="M83.808,9.678A4.012,4.012,0,0,0,79.8,5.671H77.13a4,4,0,0,0-3.765,2.683A12.813,12.813,0,0,0,56.348,4.83l-1.656.994a8.318,8.318,0,0,1-4.274,1.183,4.007,4.007,0,1,0,0,8.014h.556c-2.064,2.089-4.562,5.2-4.562,8.014V24l4.007,1.336v.883a4.805,4.805,0,0,0,2.671,4.322,4.855,4.855,0,0,0,2.161.51H57.1v3.267l-5.037,3.147a12.024,12.024,0,0,0-4.533,5.163L35.547,35.968l-1.2-9.59A5.345,5.345,0,0,0,29.055,21.7a5.108,5.108,0,0,0-.669.043,5.356,5.356,0,0,0-1.122.272L14.9,16.472,13.81,18.91l10.976,4.919a5.3,5.3,0,0,0-1.04,3.873l.723,5.782a5.342,5.342,0,0,0,.648,8.911l.5.278.8,6.4a5.275,5.275,0,0,0,.406,1.421,16.791,16.791,0,0,1-7.516-4.349l-.943-.942-.944.944A16.788,16.788,0,0,1,5.465,51.1H5.007A4.012,4.012,0,0,0,1,55.1v3.3A27.265,27.265,0,0,0,15.216,82.35a6.572,6.572,0,0,0,6.295,0A27.253,27.253,0,0,0,33.226,69.782h43.9A6.686,6.686,0,0,0,83.808,63.1V28.377a3.981,3.981,0,0,0-1.042-2.671,3.975,3.975,0,0,0,1.042-2.671Zm-8.014,0A1.338,1.338,0,0,1,77.13,8.342H79.8a1.338,1.338,0,0,1,1.336,1.336V23.034A1.338,1.338,0,0,1,79.8,24.37H77.13a1.338,1.338,0,0,1-1.336-1.336V9.678ZM49.082,59.1V55.618a10.693,10.693,0,0,0,8.87-.326l2.906-1.453,1.126,1.576,1-.442c.366-.163,6.5-2.94,10.143-7.15V59.1ZM34.891,52.682a5.095,5.095,0,0,0,2.124-3.677l9.4,5.221V59.1H35.7c.007-.231.024-.461.024-.695V55.1A3.972,3.972,0,0,0,34.891,52.682Zm32.89-22.476L72.7,24.463c.176-.206.338-.423.5-.638a3.989,3.989,0,0,0,.962,1.881,3.975,3.975,0,0,0-1.042,2.671v7.2a8.792,8.792,0,0,0-4.767-1.838l-.576-.576Zm-18.7-19.193a1.338,1.338,0,0,1,1.336-1.336,10.978,10.978,0,0,0,5.648-1.564l1.655-.994a10.17,10.17,0,0,1,15.4,8.72v.266a10.171,10.171,0,0,1-2.448,6.618L66.74,27.315,65.56,24.952A4.638,4.638,0,0,0,63.4,16.363l-1.338-4.014H50.418a1.338,1.338,0,0,1-1.336-1.336Zm4.394,28.713,6.291-3.932V31.048h2.671V28.377H55.25a2.172,2.172,0,0,1-.967-.228,2.15,2.15,0,0,1-1.194-1.933V23.407l-3.86-1.286c.68-2.293,3.575-5.345,5.672-7.1H60.14l1.336,4.007h1.668a1.966,1.966,0,0,1,.879,3.725l-2.039,1.02,3.127,6.255v4.245l2.118,2.118h.553c.218,0,5.342.06,5.342,5.342,0,4.317-6.679,8.549-10.247,10.335L57.649,44.75l6.866-4.577L63.034,37.95l-9.161,6.108.693.97-1.438.708-3.235-1.8a9.3,9.3,0,0,1,3.583-4.211ZM26.4,27.372a2.67,2.67,0,0,1,2.34-2.984,2.35,2.35,0,0,1,.319-.02A2.673,2.673,0,0,1,31.7,26.71l.956,7.65-2.343-1.3a5.377,5.377,0,0,0-2.6-.674,5.3,5.3,0,0,0-.685.047Zm-1.018,9.055a2.734,2.734,0,0,1,3.634-1.034L51.831,48.072a2.847,2.847,0,0,0,2.538.053l1.774-.887,3.144,4.4L56.757,52.9a8.206,8.206,0,0,1-7.522-.164L26.415,40.063a2.676,2.676,0,0,1-1.036-3.636ZM34.3,47.5l.072.584a2.673,2.673,0,0,1-2.317,2.982,2.976,2.976,0,0,1-.334.02,2.675,2.675,0,0,1-2.649-2.341l-.557-4.46ZM20.233,80a3.968,3.968,0,0,1-3.738,0A24.594,24.594,0,0,1,3.671,58.4V55.1a1.337,1.337,0,0,1,1.336-1.336h.458a19.428,19.428,0,0,0,12.9-4.848,19.428,19.428,0,0,0,12.9,4.848h.458A1.337,1.337,0,0,1,33.055,55.1v3.3A24.6,24.6,0,0,1,20.233,80Zm60.9-16.9A4.012,4.012,0,0,1,77.13,67.11H34.292a27.254,27.254,0,0,0,1.217-5.342H81.137ZM75.794,59.1V28.377a1.338,1.338,0,0,1,1.336-1.336H79.8a1.338,1.338,0,0,1,1.336,1.336V59.1Z" transform="translate(-1 -0.329)" fill="#f88f05"/>
      <path id="Trazado_245895" data-name="Trazado 245895" d="M4.348,24.059l7.337,1.223V13.021A4.012,4.012,0,0,0,7.678,9.014V3.671h4.007V1H1V3.671H5.007V9.014A4.012,4.012,0,0,0,1,13.021v7.087A3.994,3.994,0,0,0,4.348,24.059ZM3.671,13.021a1.338,1.338,0,0,1,1.336-1.336H7.678a1.338,1.338,0,0,1,1.336,1.336v9.108l-4.226-.7a1.333,1.333,0,0,1-1.117-1.317Z" transform="translate(-1 -1)" fill="#f88f05"/>
      <path id="Trazado_245896" data-name="Trazado 245896" d="M0,0H15.633V2.671H0Z" transform="translate(12.906 12.1) rotate(-19.993)" fill="#f88f05"/>
    </g>
    <path id="Trazado_245897" data-name="Trazado 245897" d="M57.387,25.07h.229a7.2,7.2,0,0,0,5.126-2.123,4.57,4.57,0,0,0,0-6.463l-1.021-1.021a3.733,3.733,0,0,0-2.66-1.1h-.177a3.74,3.74,0,0,0-3.363,2.079,1.078,1.078,0,0,1-.969.6h-.177a1.075,1.075,0,0,1-.766-.317l-1.258-1.258a1.072,1.072,0,0,1-.319-.767v-.177a1.077,1.077,0,0,1,.6-.969,3.74,3.74,0,0,0,2.079-3.363v-.177a3.732,3.732,0,0,0-1.1-2.659L52.587,6.328a4.679,4.679,0,0,0-6.463,0A7.2,7.2,0,0,0,44,11.454v.229A13.4,13.4,0,0,0,57.387,25.07ZM46.677,11.454a4.543,4.543,0,0,1,1.339-3.233,1.894,1.894,0,0,1,2.677,0l1.021,1.021a1.076,1.076,0,0,1,.317.767v.177a1.077,1.077,0,0,1-.6.969,3.74,3.74,0,0,0-2.079,3.363v.177a3.732,3.732,0,0,0,1.1,2.659l1.258,1.258a3.729,3.729,0,0,0,2.66,1.1h.177a3.74,3.74,0,0,0,3.363-2.079,1.078,1.078,0,0,1,.969-.6h.177a1.075,1.075,0,0,1,.766.317l1.023,1.021a1.894,1.894,0,0,1,0,2.677,4.54,4.54,0,0,1-3.233,1.339h-.229a10.722,10.722,0,0,1-10.71-10.71Z" transform="translate(1175.564 1862.365)" fill="#f88f05"/>
    <path id="Trazado_245898" data-name="Trazado 245898" d="M15.032,57.016a4.016,4.016,0,1,0-4.016,4.016A4.021,4.021,0,0,0,15.032,57.016Zm-4.016,1.339a1.339,1.339,0,1,1,1.339-1.339A1.34,1.34,0,0,1,11.016,58.355Z" transform="translate(1163.031 1878.613)" fill="#f88f05"/>
    <path id="Trazado_245899" data-name="Trazado 245899" d="M62.464,75.25A17.425,17.425,0,0,0,45.377,61.243H39.51a16.609,16.609,0,0,0,6.589-8.19l5.486-14.891a4.64,4.64,0,0,0,.286-1.606V35.1a4.654,4.654,0,0,0-4.648-4.648,4.53,4.53,0,0,0-.574.04,3.691,3.691,0,0,0-2.81-5.328V18.4h8.1a16.065,16.065,0,1,0,0-2.677H41.162v9.716a3.718,3.718,0,0,0-1.868,1.732l-4.941,9.882A3.763,3.763,0,0,0,36.036,42.1a3.8,3.8,0,0,0,1.681.4h.609a3.737,3.737,0,0,0,.461-.064l-2.731,7.508A4.966,4.966,0,0,1,33.1,52.893a17.675,17.675,0,0,0-5.325-12.107V34.415a5.857,5.857,0,0,0,5.356-5.856v-2.5l4.016-1.339v-.965c0-3.086-2.038-7.4-3.279-9.735A6.674,6.674,0,0,0,31.791,1H23.758A14.743,14.743,0,0,0,9.032,15.726v2.712a6.624,6.624,0,0,0-4.016-1.374H1V45.178h.031a3.69,3.69,0,0,0,.063.56L6.209,68.246A9.356,9.356,0,0,0,13.049,84H84V81.324H63.679ZM67.936,3.677A13.387,13.387,0,1,1,54.549,17.065,13.4,13.4,0,0,1,67.936,3.677ZM45.377,63.92A14.747,14.747,0,0,1,59.838,75.776l1.11,5.548h-6.4V79.985a6.7,6.7,0,0,0-6.694-6.694H43.839V69.453l-26.579-3.8L14.6,54.5l3.62,3.987a16.642,16.642,0,0,0,12.228,5.433v0ZM43.839,77.026V75.969h4.016a4.021,4.021,0,0,1,4.016,4.016v1.339H25.789ZM17.065,36.18l-2.157.719a8.552,8.552,0,0,0-3.2,1.944V29.908a13.058,13.058,0,0,0,5.355,4.145Zm20.653,3.643a1.082,1.082,0,0,1-.969-1.566l4.94-9.882a1.08,1.08,0,0,1,.971-.6h.609a1.082,1.082,0,0,1,.969,1.566L42.27,33.274a4.491,4.491,0,0,0-3.118,2.989,4.37,4.37,0,0,0,.1,3.027,1.074,1.074,0,0,1-.924.533Zm.855,11.036,4.138-11.381-.6-.6a1.777,1.777,0,0,1-.375-1.89,1.723,1.723,0,0,1,1.636-1.179h1.3l.8-1.589a1.971,1.971,0,0,1,3.734.882v1.455a1.977,1.977,0,0,1-.122.681L43.586,52.126a13.926,13.926,0,0,1-21.255,6.457L25.887,53.6l.616.514a7.64,7.64,0,0,0,12.07-3.258Zm-8.141,2.248a4.959,4.959,0,0,1-2.214-1.048L23.69,48.286a7.656,7.656,0,0,0-4.89-1.77H17.065v2.677H18.8a4.97,4.97,0,0,1,3.177,1.15l1.849,1.541-3.506,4.909c-.036-.039-.078-.072-.112-.112L13.323,49.11l-1.209-5.07a3.728,3.728,0,0,0-.181-.55,5.917,5.917,0,0,1,3.822-4.051l2.679-.893.885.253A15.291,15.291,0,0,1,30.432,53.107Zm.02-28.974V28.56a3.229,3.229,0,0,1-3.23,3.23h-4.8v2.677H25.1V38.6a17.914,17.914,0,0,0-5.043-2.371l-.312-.09V28.559l-1.651-1.651a3.53,3.53,0,0,1-1.027-2.479v-.356A3.485,3.485,0,0,1,19,20.939l.74-.369V18.4a4.021,4.021,0,0,1,4.016-4.016H31.02c1.091,1.941,2.975,5.73,3.374,8.431ZM11.71,15.726A12.063,12.063,0,0,1,23.758,3.677h8.032a4.016,4.016,0,1,1-4.016,4.016V6.355H25.1V7.694a6.624,6.624,0,0,0,1.374,4.016H23.758A6.7,6.7,0,0,0,17.065,18.4v.577a6.141,6.141,0,0,0-2.677,5.094v.356A6.137,6.137,0,0,0,16.2,28.8l.866.866v1.4a10.38,10.38,0,0,1-5.355-9.079ZM5.016,19.742a4.021,4.021,0,0,1,4.016,4.016V41.21a3.719,3.719,0,0,0-.562-.048H4.746a3.718,3.718,0,0,0-1.068.174V19.742ZM3.677,44.908a1.07,1.07,0,0,1,1.068-1.068H8.47a1.066,1.066,0,0,1,1.04.821L14.425,65.3c-.2-.013-.407-.043-.608-.043h-.768A9.314,9.314,0,0,0,8.54,66.42L3.7,45.142a1.057,1.057,0,0,1-.027-.234Zm9.371,36.416a6.694,6.694,0,1,1,0-13.387h.768a6.777,6.777,0,0,1,.946.068l26.4,3.77v3.137l-26.168,6.23a6.7,6.7,0,0,1-1.55.182Z" transform="translate(1160.999 1860.999)" fill="#f88f05"/>
    <path id="Trazado_245900" data-name="Trazado 245900" d="M65.805,50.768l-8.773-4.386v3.5H49v8.032h8.032v3.5l8.773-4.386a3.506,3.506,0,0,0,0-6.271Zm-1.2,3.876-4.9,2.449v-1.85H51.677V52.564H59.71v-1.85l4.9,2.449a.827.827,0,0,1,0,1.481Z" transform="translate(1177.258 1876.371)" fill="#f88f05"/>
    <path id="Trazado_245901" data-name="Trazado 245901" d="M58.742,34.032H53.387V30.016a4.016,4.016,0,0,0-8.032,0v4.151a6.694,6.694,0,0,0,0,13.117v4.151a4.016,4.016,0,0,0,8.032,0V47.42h5.355V44.742H70.791V42.065H58.742V39.387H70.791V36.71H58.742ZM42.677,40.726a4.011,4.011,0,0,1,2.677-3.77v7.538A4.008,4.008,0,0,1,42.677,40.726Zm8.032,10.71a1.339,1.339,0,0,1-2.677,0V30.016a1.339,1.339,0,0,1,2.677,0Zm5.355-6.694H53.387V36.71h2.677Z" transform="translate(1174.209 1869.467)" fill="#f88f05"/>
  </g>
</svg>
