<svg xmlns="http://www.w3.org/2000/svg" xmlns:xlink="http://www.w3.org/1999/xlink" width="190" height="190" viewBox="0 0 190 190">
  <defs>
    <clipPath id="clip-path">
      <rect id="Rectángulo_34327" data-name="Rectángulo 34327" width="190" height="190" transform="translate(285 4627)"/>
    </clipPath>
  </defs>
  <g id="Grupo_948059" data-name="Grupo 948059" transform="translate(-705 -748)">
    <g id="Grupo_82790" data-name="Grupo 82790" transform="translate(53)">
      <g id="Enmascarar_grupo_123" data-name="Enmascarar grupo 123" transform="translate(367 -3879)" clip-path="url(#clip-path)">
        <g id="senal-de-stop_1_" data-name="senal-de-stop (1)" transform="translate(285 4627)">
          <path id="Trazado_116905" data-name="Trazado 116905" d="M190,95a95.019,95.019,0,0,1-82.658,94.205,96.3,96.3,0,0,1-24.688,0A95.023,95.023,0,0,1,.148,100.316Q0,97.676,0,95a95,95,0,1,1,190,0Zm0,0" fill="#69b8d4"/>
          <path id="Trazado_116906" data-name="Trazado 116906" d="M120.376,102.1a6.338,6.338,0,0,1,6.338-6.339H180.13a6.339,6.339,0,0,1,0,12.678H162.852a6.338,6.338,0,1,0,0,12.677h1.761a6.339,6.339,0,1,1,0,12.678H113.418a6.338,6.338,0,0,1-6.338-6.339,6.339,6.339,0,0,0-6.339-6.339H98.98a6.338,6.338,0,1,1,0-12.677h15.057a6.339,6.339,0,0,0,6.339-6.339Zm0,0" fill="#8cd2e5"/>
          <path id="Trazado_116907" data-name="Trazado 116907" d="M32.99,68.625a6.34,6.34,0,0,1-6.339,6.336H9.372a6.34,6.34,0,0,0,0,12.679h1.761a6.338,6.338,0,1,1,0,12.675H.148Q0,97.676,0,95A94.809,94.809,0,0,1,5.785,62.286H26.651a6.339,6.339,0,0,1,6.339,6.339Zm0,0" fill="#8cd2e5"/>
          <path id="Trazado_116908" data-name="Trazado 116908" d="M49.1,125.595a6.339,6.339,0,0,1,6.339-6.339h53.416a6.338,6.338,0,0,1,0,12.677H91.577a6.339,6.339,0,0,0,0,12.678H93.34a6.338,6.338,0,0,1,0,12.677H42.145a6.339,6.339,0,0,1-6.339-6.339,6.338,6.338,0,0,0-6.339-6.338H27.706a6.339,6.339,0,0,1,0-12.678H42.762a6.339,6.339,0,0,0,6.339-6.338Zm0,0" fill="#8cd2e5"/>
        </g>
      </g>
      <g id="Grupo_948058" data-name="Grupo 948058">
        <g id="Grupo_948057" data-name="Grupo 948057">
          <g id="Grupo_82787" data-name="Grupo 82787" transform="translate(126 -363)">
            <g id="carretera" transform="translate(526 1111.001)">
              <path id="Trazado_120070" data-name="Trazado 120070" d="M190,167.5q0,4.112-.345,8.135a95,95,0,0,1-189.309,0Q0,171.62,0,167.5A94.94,94.94,0,0,1,5.15,136.572c.129-.368.257-.736.388-1.1A94.577,94.577,0,0,1,14.394,117.2a16.089,16.089,0,0,1,7.093,7.712,16.04,16.04,0,0,1,29.408,0,16.039,16.039,0,0,1,29.406,0,16.034,16.034,0,0,1,29.4,0,16.039,16.039,0,0,1,29.406,0,16.04,16.04,0,0,1,29.408,0,16.089,16.089,0,0,1,7.093-7.712A94.552,94.552,0,0,1,190,167.5Zm0,0" transform="translate(0 -72.504)" fill="#0a9327"/>
              <path id="Trazado_120071" data-name="Trazado 120071" d="M396.672,109.094h9.143v89.432h-9.143Zm0,0" transform="translate(-249.47 -68.61)" fill="#ccc"/>
              <path id="Trazado_120072" data-name="Trazado 120072" d="M408.992,109.094h4.57v89.432h-4.57Zm0,0" transform="translate(-257.218 -68.61)" fill="#e6e6e6"/>
              <path id="Trazado_120073" data-name="Trazado 120073" d="M192.371,324.223a94.645,94.645,0,0,1-15.692,31.834,95.737,95.737,0,0,1-13.114,14.149,95.009,95.009,0,0,1-120.452,4.2q-2.629-2.011-5.107-4.2a94.913,94.913,0,0,1-13.114-14.149q-1.855-2.455-3.547-5.029A94.5,94.5,0,0,1,9.2,324.223Zm0,0" transform="translate(-5.783 -203.906)" fill="#564d47"/>
              <path id="Trazado_120074" data-name="Trazado 120074" d="M190,201.708q0,4.112-.345,8.135H.345Q0,205.824,0,201.708q0-3.031.19-6.014a94.583,94.583,0,0,1,5.348-26.021H184.462a94.585,94.585,0,0,1,5.348,26.021q.191,2.983.19,6.014Zm0,0" transform="translate(0 -106.708)" fill="#e6e6e6"/>
              <path id="Trazado_120075" data-name="Trazado 120075" d="M190,245.807q0,4.112-.345,8.135H.345Q0,249.924,0,245.807q0-3.031.19-6.014h189.62q.191,2.983.19,6.014Zm0,0" transform="translate(0 -150.808)" fill="#ccc"/>
              <path id="Trazado_120076" data-name="Trazado 120076" d="M178.1,195.159l-.536.535-14.145,14.149H123.246l14.145-14.149.535-.535a7.633,7.633,0,0,0,0-10.8l-14.68-14.684h40.171L178.1,184.357a7.635,7.635,0,0,1,0,10.8Zm0,0" transform="translate(-77.51 -106.708)" fill="#f73e3e"/>
              <path id="Trazado_120077" data-name="Trazado 120077" d="M398.691,195.159l-14.684,14.684H343.836l14.684-14.684a7.64,7.64,0,0,0,0-10.8l-14.684-14.684h40.171l14.684,14.684A7.64,7.64,0,0,1,398.691,195.159Zm0,0" transform="translate(-216.241 -106.708)" fill="#f73e3e"/>
              <path id="Trazado_120078" data-name="Trazado 120078" d="M18.729,197.031,4.044,211.715H.345Q0,207.7,0,203.58q0-3.031.19-6.014a94.526,94.526,0,0,1,4.959-24.917l13.58,13.58a7.641,7.641,0,0,1,0,10.8Zm0,0" transform="translate(0 -108.58)" fill="#f73e3e"/>
              <path id="Trazado_120079" data-name="Trazado 120079" d="M.19,239.793h18L4.044,253.942H.345Q0,249.924,0,245.807q0-3.031.19-6.014Zm0,0" transform="translate(0 -150.808)" fill="#d82525"/>
              <path id="Trazado_120080" data-name="Trazado 120080" d="M137.391,239.793h40.171l-14.145,14.149H123.246Zm0,0" transform="translate(-77.51 -150.808)" fill="#d82525"/>
              <path id="Trazado_120081" data-name="Trazado 120081" d="M398.156,239.793l-14.149,14.149H343.836l14.148-14.149Zm0,0" transform="translate(-216.241 -150.808)" fill="#d82525"/>
              <g id="Grupo_82787-2" data-name="Grupo 82787" transform="translate(19.109 1.264)">
                <path id="Trazado_120082" data-name="Trazado 120082" d="M123.994,410.008v14.149H64.607a94.913,94.913,0,0,1-13.114-14.149Zm0,0" transform="translate(-51.492 -259.121)" fill="#e6e6e6"/>
                <path id="Trazado_120083" data-name="Trazado 120083" d="M406.645,410.008a95.734,95.734,0,0,1-13.114,14.149H374.856V410.008Zm0,0" transform="translate(-254.858 -259.121)" fill="#e6e6e6"/>
                <path id="Trazado_120084" data-name="Trazado 120084" d="M390.343,26.466a171.8,171.8,0,0,0-22.161-22.16,3.873,3.873,0,0,0-4.965,0,171.8,171.8,0,0,0-22.161,22.16,3.875,3.875,0,0,0,0,4.966,171.72,171.72,0,0,0,22.161,22.161,3.876,3.876,0,0,0,4.965,0,171.722,171.722,0,0,0,22.161-22.161,3.875,3.875,0,0,0,0-4.966Zm0,0" transform="translate(-233.035 -3.406)" fill="#e6e6e6"/>
              </g>
              <path id="Trazado_120085" data-name="Trazado 120085" d="M363.56,53.615a5.143,5.143,0,0,1-3.293-1.19A173.977,173.977,0,0,1,337.943,30.1a5.147,5.147,0,0,1,0-6.584A173.872,173.872,0,0,1,360.267,1.192a5.145,5.145,0,0,1,6.585,0,173.777,173.777,0,0,1,22.324,22.324,5.143,5.143,0,0,1,0,6.584,173.788,173.788,0,0,1-22.324,22.325A5.142,5.142,0,0,1,363.56,53.615Zm0-51.083a2.616,2.616,0,0,0-1.674.6,171.4,171.4,0,0,0-22,22,2.615,2.615,0,0,0,0,3.347,171.3,171.3,0,0,0,22,22,2.615,2.615,0,0,0,3.347,0,171.306,171.306,0,0,0,22-22,2.615,2.615,0,0,0,0-3.347,171.211,171.211,0,0,0-22-22,2.606,2.606,0,0,0-1.673-.606Zm0,0" transform="translate(-211.786 0)" fill="#564d47"/>
              <path id="Trazado_120086" data-name="Trazado 120086" d="M379.586,60.184a165.6,165.6,0,0,1-17.352-17.35,165.6,165.6,0,0,1,17.352-17.35,165.59,165.59,0,0,1,17.35,17.35A165.59,165.59,0,0,1,379.586,60.184Zm0,0" transform="translate(-227.812 -16.027)" fill="#ffbb16"/>
            </g>
            <g id="profesor" transform="translate(538.367 1167.394)">
              <path id="Trazado_120087" data-name="Trazado 120087" d="M312.509,28.226a1.9,1.9,0,0,0-1.9,1.87l-.685,40.393H315.1L314.412,30.1a1.9,1.9,0,0,0-1.9-1.87Z" transform="translate(-218.51 -22.781)" fill="#d3dbea"/>
              <path id="Trazado_120088" data-name="Trazado 120088" d="M287.523,170.721a61.016,61.016,0,0,1,4.622-7.216,4.984,4.984,0,0,1,7.466-.543c.379.373.762.772,1.137,1.2a5.013,5.013,0,0,1,.437,6.1l-5.4,8.109S290,175.53,287.523,170.721Z" transform="translate(-202.803 -116.259)" fill="#ffcac0"/>
              <path id="Trazado_120089" data-name="Trazado 120089" d="M126.894,310.709h6.551a19.157,19.157,0,0,1,9.486,0h6.551l1.7-8.219H125.288Z" transform="translate(-89.039 -215.104)" fill="#3e3e59"/>
              <path id="Trazado_120090" data-name="Trazado 120090" d="M152.588,306.97h9.486v6.881h-9.486Z" transform="translate(-108.183 -218.245)" fill="#ffb655"/>
              <path id="Trazado_120091" data-name="Trazado 120091" d="M127.742,145.677h19.366S150.1,165.4,150,194.077a75.158,75.158,0,0,1-25.345,0S122.457,172.869,127.742,145.677Z" transform="translate(-88.277 -105.141)" fill="#fff"/>
              <path id="Trazado_120092" data-name="Trazado 120092" d="M150,194.078c0-.665,0-1.324,0-1.979a46.918,46.918,0,0,1-11.894-.847,4.478,4.478,0,0,1-3.488-4.77l3.077-34.643-3.706-6.163h-6.246c-5.285,27.192-3.088,48.4-3.088,48.4A75.142,75.142,0,0,0,150,194.078Z" transform="translate(-88.277 -105.141)" fill="#d3dbea"/>
              <path id="Trazado_120093" data-name="Trazado 120093" d="M153.548,145.677H134.182q-.432,2.221-.8,4.384a21.98,21.98,0,0,0,5.458,6.573l4.966-3.69,4.691,3.69a16.34,16.34,0,0,0,5.722-5.643C153.832,147.555,153.548,145.677,153.548,145.677Z" transform="translate(-94.717 -105.141)" fill="#d3dbea"/>
              <path id="Trazado_120094" data-name="Trazado 120094" d="M153.487,207.959l-.9,10.895,4.743,4.659,4.743-4.659-1.812-21.937A33.831,33.831,0,0,0,153.487,207.959Z" transform="translate(-108.182 -141.072)" fill="#719de2"/>
              <path id="Trazado_120095" data-name="Trazado 120095" d="M162.374,165.255l-1.115-13.49h-3.632L155.6,176.3Z" transform="translate(-110.295 -109.41)" fill="#6279cc"/>
              <path id="Trazado_120096" data-name="Trazado 120096" d="M151.035,135.319h-10.6l-4.385,3.095a28.368,28.368,0,0,0,4.833,7.218l4.85-4.543,4.851,4.543a28.36,28.36,0,0,0,4.833-7.218Z" transform="translate(-96.588 -97.878)" fill="#fff"/>
              <path id="Trazado_120097" data-name="Trazado 120097" d="M150.73,125.2v3.023l5.3,5.769,5.3-5.769V125.4Z" transform="translate(-106.88 -90.782)" fill="#ffcac0"/>
              <path id="Trazado_120098" data-name="Trazado 120098" d="M150.73,116.493c3.647,1.679,8.334,1.708,10.6.2v-3.914h-10.6Z" transform="translate(-106.88 -82.076)" fill="#ef9292"/>
              <path id="Trazado_120099" data-name="Trazado 120099" d="M102.8,145.677s-.282,7.8-.62,18.332a44.829,44.829,0,0,0-.493,16.274c-.2,7.045-.381,14.208-.5,20.463l-11.629-.005s-2.061-17.211-.044-33.2c.329-2.613.631-5.194.886-7.661a13.453,13.453,0,0,1,5.655-9.637C98.252,148.7,100.784,146.959,102.8,145.677Z" transform="translate(-63.331 -105.141)" fill="#d37577"/>
              <path id="Trazado_120100" data-name="Trazado 120100" d="M91.8,236.354c.09-3.2.185-6.37.278-9.423l-11.483-1.294-1.264.283c-2.009,15.294-4.8,30.89-4.8,30.89l5.365,0a3.824,3.824,0,0,0,3.826-3.824v-12.4a6.739,6.739,0,0,0,2.08-4.822A16.616,16.616,0,0,1,91.8,236.354Z" transform="translate(-53.444 -161.212)" fill="#9b454d"/>
              <path id="Trazado_120101" data-name="Trazado 120101" d="M226.76,159.6l-5.977,8.936-10.276-14.663a22.146,22.146,0,0,0-5.745-5.651c-1.085-.732-2.395-1.6-3.89-2.55,0,0,1.2,33.119,1.611,55.07h8.66s-.355-11.939-1.063-25.274l9.167,7.383a4.1,4.1,0,0,0,5.983-.918l9.794-14.685Z" transform="translate(-142.041 -105.138)" fill="#d37577"/>
              <path id="Trazado_120102" data-name="Trazado 120102" d="M3.959,204.012s15-6.069,21.083,7.571l-16.575-1.85S7.2,205.688,3.959,204.012Z" transform="translate(-3.959 -145.104)" fill="#ffe7c7"/>
              <path id="Trazado_120103" data-name="Trazado 120103" d="M95.615,204.012s-15-6.069-21.083,7.571l17.693-1.223S92.377,205.688,95.615,204.012Z" transform="translate(-53.447 -145.104)" fill="#ffe7c7"/>
              <path id="Trazado_120104" data-name="Trazado 120104" d="M25.721,224.029s-7.678-6.884-19.849-1.65a1.569,1.569,0,0,0-.945,1.441v4.888a.844.844,0,0,0,1.225.754,23.073,23.073,0,0,1,19.569-.636,23.072,23.072,0,0,1,19.569.636.844.844,0,0,0,1.225-.754V223.82a1.569,1.569,0,0,0-.946-1.441c-12.168-5.235-19.849,1.65-19.849,1.65Z" transform="translate(-4.638 -157.55)" fill="#ffb655"/>
              <path id="Trazado_120105" data-name="Trazado 120105" d="M57.4,259.915v14.251a5.4,5.4,0,1,0,10.806,0V258.083Z" transform="translate(-41.434 -183.964)" fill="#d37577"/>
              <path id="Trazado_120106" data-name="Trazado 120106" d="M51.928,241.868h7.226a4.476,4.476,0,0,1,4.476,4.476A5.627,5.627,0,0,1,58,251.971H53.079a5.627,5.627,0,0,1-5.627-5.627,4.476,4.476,0,0,1,4.476-4.476Z" transform="translate(-34.458 -172.594)" fill="#ffcac0"/>
              <path id="Trazado_120107" data-name="Trazado 120107" d="M118.3,71.629h3.058v8.164H118.3a3.419,3.419,0,0,1-3.419-3.419V75.048A3.419,3.419,0,0,1,118.3,71.629Z" transform="translate(-81.738 -53.216)" fill="#ef9292"/>
              <path id="Trazado_120108" data-name="Trazado 120108" d="M3.419,0H6.477V8.164H3.419A3.419,3.419,0,0,1,0,4.745V3.419A3.419,3.419,0,0,1,3.419,0Z" transform="translate(64.1 26.577) rotate(180)" fill="#ef9292"/>
              <path id="Trazado_120109" data-name="Trazado 120109" d="M120.906,14.617a6.982,6.982,0,0,0-6.536,2.672c-2.555,3.2-3.488,10.476,5.416,14.251l19.346-2.908a19.3,19.3,0,0,0,3.357.209,4.034,4.034,0,0,0,3.493-3.827,7.416,7.416,0,0,0-.825-3.169,14.413,14.413,0,0,1-1.236-3.956C143.455,14.983,141.365,10,132.515,10,123.423,10,120.906,14.617,120.906,14.617Z" transform="translate(-80.147 -10)" fill="#3e3e59"/>
              <path id="Trazado_120110" data-name="Trazado 120110" d="M135.33,57.6a11.328,11.328,0,0,0,6.322,4.275,9.284,9.284,0,0,0,7.838-1.135,11.544,11.544,0,0,0,4.225-5.3,9.091,9.091,0,0,0,.661-3.451V48.314a2.018,2.018,0,0,0-1.1-1.8,15.462,15.462,0,0,1-6.321-6.446,4.246,4.246,0,0,0-1.866-1.8q-.128-.062-.269-.122a7.986,7.986,0,0,0-11.073,7.4V52.4a9.046,9.046,0,0,0,1.585,5.2Z" transform="translate(-94.969 -29.28)" fill="#ffcac0"/>
              <g id="Grupo_82788" data-name="Grupo 82788" transform="translate(44.983 17.621)">
                <path id="Trazado_120111" data-name="Trazado 120111" d="M155.567,72.039a1.046,1.046,0,0,1-1.046-1.046v-.97a1.046,1.046,0,1,1,2.091,0v.97A1.046,1.046,0,0,1,155.567,72.039Z" transform="translate(-154.521 -68.978)" fill="#ef9292"/>
                <path id="Trazado_120112" data-name="Trazado 120112" d="M178.357,72.039a1.046,1.046,0,0,1-1.046-1.046v-.97a1.046,1.046,0,1,1,2.091,0v.97A1.046,1.046,0,0,1,178.357,72.039Z" transform="translate(-170.502 -68.978)" fill="#ef9292"/>
                <path id="Trazado_120113" data-name="Trazado 120113" d="M159.123,93.8A5.136,5.136,0,0,1,155,92.186a1.046,1.046,0,0,1,1.61-1.335,4.117,4.117,0,0,0,5.029,0,1.046,1.046,0,1,1,1.609,1.335A5.134,5.134,0,0,1,159.123,93.8Z" transform="translate(-154.687 -84.051)" fill="#ef9292"/>
              </g>
            </g>
          </g>
        </g>
      </g>
    </g>
  </g>
</svg>
