<svg xmlns="http://www.w3.org/2000/svg" width="98.001" height="97.999" viewBox="0 0 98.001 97.999">
  <g id="Page-1" transform="translate(0.001 0)">
    <g id="_020---Teamwork" data-name="020---Teamwork" transform="translate(-0.001 -0.001)">
      <path id="Shape" d="M77.094,12.847V37.036a3.276,3.276,0,0,1-.474,1.682l-3.953,6.6A3.276,3.276,0,0,0,72.195,47V64.2a4.469,4.469,0,0,0-1.045-.131H52.6l4.492-5.488a3.655,3.655,0,0,0-5.439-4.867l-.686.686V45.807a3.254,3.254,0,0,0-.947-2.287L34.759,28.135l-.686-.686a3.655,3.655,0,0,1,4.867-5.439L44.429,26.5V7.947A4.469,4.469,0,0,1,44.559,6.9a4.131,4.131,0,0,1,3.528-3.25A4.083,4.083,0,0,1,52.6,7.719v-1.4a4.247,4.247,0,0,1,3.659-4.3,4.083,4.083,0,0,1,4.508,4.067V9.352a4.083,4.083,0,0,1,4.508-4.067,4.247,4.247,0,0,1,3.659,4.3v3.038a4.083,4.083,0,0,1,4.508-4.067,4.247,4.247,0,0,1,3.659,4.3Z" transform="translate(19.272 -0.368)" fill="#ffdfb1"/>
      <path id="Shape-2" data-name="Shape" d="M60.141,6.018a4.059,4.059,0,0,0-2.891.833,4.446,4.446,0,0,1,1.65,3.463V34.5a3.276,3.276,0,0,1-.474,1.682l-3.953,6.6A3.276,3.276,0,0,0,54,44.466V61.533h3.855a4.469,4.469,0,0,1,1.045.131v-17.2a3.276,3.276,0,0,1,.474-1.682l3.953-6.6A3.276,3.276,0,0,0,63.8,34.5V10.313a4.247,4.247,0,0,0-3.659-4.3Z" transform="translate(32.567 2.166)" fill="#dec39b"/>
      <path id="Shape-3" data-name="Shape" d="M64.2,6.9a4.469,4.469,0,0,0-.131,1.045V26.5L58.58,22.008a3.655,3.655,0,0,0-4.867,5.439l.686.686H45.807a3.254,3.254,0,0,0-2.287.947L28.135,44.335l-.686.686a3.655,3.655,0,0,1-5.439-4.867L26.5,34.666H7.947A4.469,4.469,0,0,1,6.9,34.536a4.131,4.131,0,0,1-3.25-3.528A4.083,4.083,0,0,1,7.719,26.5h-1.4a4.247,4.247,0,0,1-4.3-3.659,4.083,4.083,0,0,1,4.067-4.508H9.352a4.083,4.083,0,0,1-4.067-4.508,4.247,4.247,0,0,1,4.3-3.659h3.038A4.083,4.083,0,0,1,8.552,5.659,4.247,4.247,0,0,1,12.847,2H37.036a3.276,3.276,0,0,1,1.682.474l6.6,3.953A3.276,3.276,0,0,0,47,6.9Z" transform="translate(-0.367 -0.366)" fill="#ffdfb1"/>
      <g id="Grupo_86190" data-name="Grupo 86190" transform="translate(22.051 1.634)">
        <path id="Shape-4" data-name="Shape" d="M28.731,6.426a3.276,3.276,0,0,0,1.682.474h4.9a3.276,3.276,0,0,1-1.682-.474l-6.6-3.953A3.276,3.276,0,0,0,25.35,2h-4.9a3.276,3.276,0,0,1,1.682.474Z" transform="translate(-10.732 -2)" fill="#dec39b"/>
        <path id="Shape-5" data-name="Shape" d="M30.7,18.947,15.317,34.2l-.686.686c-.041.041-.088.069-.131.108a3.619,3.619,0,0,0,5.031-.108l.686-.686L35.6,18.947A3.254,3.254,0,0,1,37.889,18h-4.9A3.254,3.254,0,0,0,30.7,18.947Z" transform="translate(-14.5 8.133)" fill="#dec39b"/>
        <path id="Shape-6" data-name="Shape" d="M37.131,5A4.469,4.469,0,0,0,37,6.045V20.59l4.9,4.01V6.045A4.469,4.469,0,0,1,42.031,5Z" transform="translate(-0.251 -0.1)" fill="#dec39b"/>
        <path id="Shape-7" data-name="Shape" d="M35.973,14.837c.047-.047.1-.082.152-.126l-.185-.152A3.655,3.655,0,0,0,31.073,20l.686.686h4.9L35.973,20a3.628,3.628,0,0,1,0-5.161Z" transform="translate(-4.679 5.449)" fill="#dec39b"/>
      </g>
      <path id="Shape-8" data-name="Shape" d="M45.021,63.83a3.647,3.647,0,0,1-2.6,1.078,3.6,3.6,0,0,1-2.27-.8l-5.488-4.492V78.171a4.469,4.469,0,0,1-.131,1.045,4.132,4.132,0,0,1-3.544,3.25A4.083,4.083,0,0,1,26.5,78.4v1.4a4.247,4.247,0,0,1-3.675,4.3,4.083,4.083,0,0,1-4.492-4.067V76.766a4.083,4.083,0,0,1-4.508,4.067,4.247,4.247,0,0,1-3.659-4.3V73.5a4.083,4.083,0,0,1-4.508,4.067A4.247,4.247,0,0,1,2,73.271V49.082A3.43,3.43,0,0,1,2.458,47.4l3.969-6.6A3.276,3.276,0,0,0,6.9,39.119V21.92a4.469,4.469,0,0,0,1.045.131H26.5l-4.492,5.488a3.655,3.655,0,0,0,5.439,4.867l.686-.686v8.591A3.254,3.254,0,0,0,29.08,42.6L44.335,57.983l.686.686a3.628,3.628,0,0,1,0,5.161Z" transform="translate(-0.365 12.249)" fill="#ffdfb1"/>
      <path id="Shape-9" data-name="Shape" d="M36.788,54.869l-.686-.686L20.847,38.8a3.254,3.254,0,0,1-.947-2.287V27.92l-.686.686A3.616,3.616,0,0,1,15,29.277v7.234a3.254,3.254,0,0,0,.947,2.287L31.2,54.183l.686.686a3.628,3.628,0,0,1,0,5.161c-.047.047-.1.082-.154.126l.186.152a3.6,3.6,0,0,0,2.27.8,3.659,3.659,0,0,0,2.6-6.239Z" transform="translate(7.868 16.049)" fill="#dec39b"/>
      <path id="Shape-10" data-name="Shape" d="M10.76,29.774a3.65,3.65,0,0,0,6.109,2.688c-.042-.039-.09-.067-.131-.108a3.646,3.646,0,0,1-.278-4.867L20.952,22h-4.9L11.56,27.488a3.614,3.614,0,0,0-.8,2.287Z" transform="translate(5.183 12.3)" fill="#dec39b"/>
      <path id="Shape-11" data-name="Shape" d="M19.642,45V63.554a4.469,4.469,0,0,1-.131,1.045,4.328,4.328,0,0,1-1.526,2.416,4.041,4.041,0,0,0,2.881.835,4.132,4.132,0,0,0,3.544-3.25,4.469,4.469,0,0,0,.131-1.045V49.01Z" transform="translate(9.759 26.866)" fill="#dec39b"/>
      <path id="Shape-12" data-name="Shape" d="M80.033,60.761H76.766a4.083,4.083,0,0,1,4.067,4.508,4.247,4.247,0,0,1-4.3,3.659H73.5a4.083,4.083,0,0,1,4.067,4.508,4.247,4.247,0,0,1-4.3,3.659H49.082a3.276,3.276,0,0,1-1.682-.474l-6.6-3.953a3.276,3.276,0,0,0-1.682-.474H21.92a4.469,4.469,0,0,0,.131-1.045V52.6l5.488,4.492a3.6,3.6,0,0,0,2.27.8,3.659,3.659,0,0,0,2.6-6.239l-.686-.686h8.591a3.254,3.254,0,0,0,2.287-.947L57.983,34.759l.686-.686a3.655,3.655,0,0,1,5.439,4.867l-4.492,5.488H78.171a4.468,4.468,0,0,1,1.045.131,4.131,4.131,0,0,1,3.25,3.528A4.083,4.083,0,0,1,78.4,52.6h1.4a4.247,4.247,0,0,1,4.3,3.659,4.083,4.083,0,0,1-4.067,4.508Z" transform="translate(12.25 19.271)" fill="#ffdfb1"/>
      <path id="Shape-13" data-name="Shape" d="M22.588,49.492A3.616,3.616,0,0,0,27.3,49.34L22,45v4.01Z" transform="translate(12.301 26.866)" fill="#dec39b"/>
      <path id="Shape-14" data-name="Shape" d="M66.089,51.825a4.247,4.247,0,0,0-4.3-3.659h-1.4a4.083,4.083,0,0,0,4.067-4.508,4.131,4.131,0,0,0-3.25-3.528A4.469,4.469,0,0,0,60.16,40h-4.9a4.468,4.468,0,0,1,1.045.131,4.131,4.131,0,0,1,3.25,3.528,4.083,4.083,0,0,1-4.067,4.508h1.4a4.247,4.247,0,0,1,4.3,3.659,4.083,4.083,0,0,1-4.067,4.508H53.855a4.083,4.083,0,0,1,4.067,4.508,4.247,4.247,0,0,1-4.3,3.659H50.589a4.083,4.083,0,0,1,4.067,4.508,4.247,4.247,0,0,1-4.3,3.659h4.9a4.247,4.247,0,0,0,4.3-3.659A4.083,4.083,0,0,0,55.489,64.5h3.038a4.247,4.247,0,0,0,4.3-3.659,4.083,4.083,0,0,0-4.067-4.508h3.267a4.083,4.083,0,0,0,4.067-4.508Z" transform="translate(30.261 23.699)" fill="#dec39b"/>
      <path id="Shape-15" data-name="Shape" d="M93.868,7.563a5.748,5.748,0,0,0-3.363.689,5.653,5.653,0,0,0-8.117-3.293A5.651,5.651,0,0,0,72.152,3.731,5.607,5.607,0,0,0,63.719,5.9H47.635a1.648,1.648,0,0,1-.844-.24l-6.6-3.951A4.918,4.918,0,0,0,37.671,1H13.484A5.891,5.891,0,0,0,7.563,6.129a5.756,5.756,0,0,0,.689,3.365,5.65,5.65,0,0,0-3.291,8.117A5.653,5.653,0,0,0,3.732,27.85a5.761,5.761,0,0,0-1.068,3.956A5.7,5.7,0,0,0,5.9,36.289V52.368a1.633,1.633,0,0,1-.242.84L1.674,59.845A5.083,5.083,0,0,0,1,62.329V86.517a5.9,5.9,0,0,0,5.13,5.919,5.8,5.8,0,0,0,3.363-.689,5.651,5.651,0,0,0,8.119,3.291A5.7,5.7,0,0,0,23.05,99a5.581,5.581,0,0,0,4.8-2.729A5.614,5.614,0,0,0,36.288,94.1H52.365a1.648,1.648,0,0,1,.844.24l6.6,3.954a4.918,4.918,0,0,0,2.515.7H86.515a5.891,5.891,0,0,0,5.921-5.129,5.756,5.756,0,0,0-.689-3.363,5.65,5.65,0,0,0,3.291-8.117,5.651,5.651,0,0,0,1.23-10.236A5.761,5.761,0,0,0,97.336,68.2,5.7,5.7,0,0,0,94.1,63.719V47.631a1.668,1.668,0,0,1,.24-.843l3.956-6.6a4.924,4.924,0,0,0,.7-2.517V13.482a5.9,5.9,0,0,0-5.13-5.919ZM4.28,23.316A2.45,2.45,0,0,1,6.717,20.6H17.334a1.633,1.633,0,0,0,0-3.267H9.984a2.45,2.45,0,0,1-2.442-2.711,2.6,2.6,0,0,1,2.675-2.189H20.6a1.633,1.633,0,1,0,0-3.267H13.25a2.45,2.45,0,0,1-2.442-2.711,2.6,2.6,0,0,1,2.675-2.189H37.671a1.633,1.633,0,0,1,.843.242l6.605,3.956a4.934,4.934,0,0,0,2.515.7H63.066V23.685l-2.829-2.316a5.429,5.429,0,0,0-7.041.387,5.143,5.143,0,0,0-1.279,5.377H46.441a4.9,4.9,0,0,0-3.43,1.421L27.64,43.8l-.033.033-.679.673a2.025,2.025,0,0,1-3.022-2.684L28.4,36.333a1.633,1.633,0,0,0-1.264-2.667H8.584a2.6,2.6,0,0,1-2.67-2.187,2.45,2.45,0,0,1,2.437-2.713h8.983a1.633,1.633,0,1,0,0-3.267H6.951a2.6,2.6,0,0,1-2.67-2.184ZM69.6,54.339,54.687,69.127a1.607,1.607,0,0,1-1.13.47h-7.9L30.872,54.692A1.609,1.609,0,0,1,30.4,53.56V45.655L45.307,30.872a1.607,1.607,0,0,1,1.134-.472h7.905L69.132,45.305a1.619,1.619,0,0,1,.467,1.134ZM31.465,94.085a2.421,2.421,0,0,1-1.886-.614,2.473,2.473,0,0,1-.812-1.823V82.665a1.633,1.633,0,1,0-3.267,0V93.051a2.613,2.613,0,0,1-2.207,2.67,2.406,2.406,0,0,1-1.882-.614,2.47,2.47,0,0,1-.812-1.826V82.665a1.633,1.633,0,1,0-3.267,0v7.369a2.45,2.45,0,0,1-2.711,2.421,2.6,2.6,0,0,1-2.189-2.674V79.4a1.633,1.633,0,0,0-3.267,0v7.365a2.45,2.45,0,0,1-2.71,2.425,2.6,2.6,0,0,1-2.19-2.672V62.329a1.743,1.743,0,0,1,.224-.84l3.974-6.608a4.949,4.949,0,0,0,.7-2.514V36.933H23.684l-2.318,2.831a5.262,5.262,0,0,0,5.767,8.322V53.56a4.9,4.9,0,0,0,1.421,3.43L43.787,72.343c.018.02.036.038.056.056l.665.67a2.025,2.025,0,0,1-1.449,3.445,1.96,1.96,0,0,1-1.225-.423L36.347,71.6a1.633,1.633,0,0,0-2.68,1.266V91.415a2.613,2.613,0,0,1-2.2,2.67Zm64.254-17.4A2.45,2.45,0,0,1,93.282,79.4H82.666a1.633,1.633,0,0,0,0,3.267h7.35a2.45,2.45,0,0,1,2.442,2.711,2.6,2.6,0,0,1-2.675,2.189H79.4a1.633,1.633,0,1,0,0,3.267h7.35a2.45,2.45,0,0,1,2.442,2.711,2.6,2.6,0,0,1-2.675,2.189H62.328a1.633,1.633,0,0,1-.843-.242L54.88,91.534a4.934,4.934,0,0,0-2.515-.7H36.933V76.31l2.829,2.316a5.414,5.414,0,0,0,7.041-.387,5.143,5.143,0,0,0,1.284-5.374h5.472a4.9,4.9,0,0,0,3.43-1.421L72.355,56.206l.057-.056.665-.653A2.025,2.025,0,0,1,76.1,58.18l-4.492,5.488a1.633,1.633,0,0,0,1.259,2.664H91.415a2.6,2.6,0,0,1,2.67,2.187,2.45,2.45,0,0,1-2.437,2.713H82.666a1.633,1.633,0,0,0,0,3.267H93.053a2.6,2.6,0,0,1,2.666,2.184Zm.013-39.013a1.648,1.648,0,0,1-.24.843l-3.957,6.605a4.933,4.933,0,0,0-.7,2.514V63.066H76.31l2.318-2.831a5.284,5.284,0,0,0-.39-7.038,5.377,5.377,0,0,0-5.372-1.238V46.439a4.9,4.9,0,0,0-1.421-3.43L56.206,27.633l-.031-.031-.675-.679a1.994,1.994,0,0,1,.02-2.857,2.071,2.071,0,0,1,2.666-.163l5.486,4.49a1.633,1.633,0,0,0,2.661-1.259V8.584a2.6,2.6,0,0,1,2.189-2.67A2.45,2.45,0,0,1,71.232,8.35v8.983a1.633,1.633,0,1,0,3.267,0V6.95a2.6,2.6,0,0,1,2.189-2.67A2.45,2.45,0,0,1,79.4,6.717V17.333a1.633,1.633,0,1,0,3.267,0V9.983a2.45,2.45,0,0,1,2.711-2.44,2.6,2.6,0,0,1,2.189,2.674V20.6a1.633,1.633,0,1,0,3.267,0V13.25a2.45,2.45,0,0,1,2.711-2.44,2.6,2.6,0,0,1,2.189,2.672Z" transform="translate(-0.999 -0.999)"/>
    </g>
  </g>
</svg>
