<svg xmlns="http://www.w3.org/2000/svg" width="101.69" height="101.695" viewBox="0 0 101.69 101.695">
  <g id="lupa_2_" data-name="lupa(2)" transform="translate(-0.999 -0.997)">
    <path id="Trazado_121341" data-name="Trazado 121341" d="M0,0H14.908V7.212H0Z" transform="translate(27.701 70.872) rotate(-45)" fill="#f4a01e"/>
    <g id="Grupo_86183" data-name="Grupo 86183" transform="translate(2.536 69.207)">
      <path id="Trazado_121342" data-name="Trazado 121342" d="M33.618,53.384l-7.792-7.792a1.1,1.1,0,0,0-1.558,0L3.933,65.925a6.612,6.612,0,0,0,0,9.351h0a6.612,6.612,0,0,0,9.351,0L33.618,54.943a1.1,1.1,0,0,0,0-1.558Z" transform="translate(-1.996 -45.269)" fill="#c7cad0"/>
    </g>
    <g id="Grupo_86184" data-name="Grupo 86184" transform="translate(2.536 73.585)">
      <path id="Trazado_121343" data-name="Trazado 121343" d="M33.606,53.41,13.278,73.737A6.609,6.609,0,0,1,2.571,66.365C16.7,64.574,25.86,53.55,29.865,48.111l3.74,3.74a1.091,1.091,0,0,1,0,1.559Z" transform="translate(-1.997 -48.111)" fill="#a3a6a8"/>
    </g>
    <circle id="Elipse_4884" data-name="Elipse 4884" cx="36.311" cy="36.311" r="36.311" transform="translate(28.518 2.545)" fill="#fac41d"/>
    <g id="Grupo_86185" data-name="Grupo 86185" transform="translate(37.868 11.896)">
      <circle id="Elipse_4885" data-name="Elipse 4885" cx="26.961" cy="26.961" r="26.961" fill="#fff"/>
    </g>
    <g id="Grupo_86186" data-name="Grupo 86186" transform="translate(38.539 18.409)">
      <path id="Trazado_121344" data-name="Trazado 121344" d="M70.713,51.812A26.962,26.962,0,0,1,25.365,38.735,26.969,26.969,0,0,0,69.232,12.3c.5.444,1.007.9,1.481,1.377a26.968,26.968,0,0,1,0,38.136Z" transform="translate(-25.365 -12.299)" fill="#dfe1e6"/>
    </g>
    <g id="Grupo_86187" data-name="Grupo 86187" transform="translate(0.999 0.997)">
      <path id="Trazado_121345" data-name="Trazado 121345" d="M91.594,12.092a37.851,37.851,0,0,0-56.92,49.641L27.711,68.7l-.257-.257a2.7,2.7,0,0,0-3.737,0L3.383,88.774a8.153,8.153,0,1,0,11.53,11.53L35.247,79.969a2.642,2.642,0,0,0,0-3.737l-.257-.257,6.964-6.964A37.851,37.851,0,0,0,91.594,12.092ZM12.734,98.125a5.193,5.193,0,0,1-7.172,0,5.068,5.068,0,0,1,0-7.172L25.585,70.929,32.757,78.1ZM32.811,73.8l-2.921-2.921,6.756-6.756c.459.511.93,1.013,1.419,1.5s.992.96,1.5,1.419Zm56.6-10.354a34.77,34.77,0,1,1,0-49.172,34.762,34.762,0,0,1,0,49.172Z" transform="translate(-0.999 -0.997)" fill="#231f20"/>
      <path id="Trazado_121346" data-name="Trazado 121346" d="M72.579,15.421a28.5,28.5,0,1,0,0,40.307,28.485,28.485,0,0,0,0-40.307ZM70.4,53.55a25.42,25.42,0,1,1,0-35.95,25.416,25.416,0,0,1,0,35.95Z" transform="translate(11.404 2.285)" fill="#231f20"/>
      <path id="Trazado_121347" data-name="Trazado 121347" d="M42.969,13.516a1.541,1.541,0,0,0,0,3.081A15.509,15.509,0,0,1,58.459,32.088a1.541,1.541,0,1,0,3.081,0A18.594,18.594,0,0,0,42.969,13.516Z" transform="translate(20.861 5.772)" fill="#231f20"/>
    </g>
  </g>
</svg>
