<svg xmlns="http://www.w3.org/2000/svg" xmlns:xlink="http://www.w3.org/1999/xlink" width="105" height="91.737" viewBox="0 0 105 91.737">
  <defs>
    <clipPath id="clip-path">
      <rect id="Imagen_18" data-name="Imagen 18" width="105" height="91.737" rx="19" transform="translate(915 3648.333)"/>
    </clipPath>
  </defs>
  <g id="Enmascarar_grupo_121" data-name="Enmascarar grupo 121" transform="translate(-915 -3648.333)" clip-path="url(#clip-path)">
    <g id="lapiz" transform="translate(902.559 3648.333)">
      <g id="Grupo_86181" data-name="Grupo 86181" transform="translate(17.901 1.344)">
        <path id="Trazado_121300" data-name="Trazado 121300" d="M106.907,104.334V170.1a5.937,5.937,0,0,0,5.937,5.937h56.4a5.937,5.937,0,0,0,5.937-5.937V104.334Z" transform="translate(-92.061 -86.984)" fill="#f9f5f3"/>
        <path id="Trazado_121301" data-name="Trazado 121301" d="M437.745,104.334V170.1a5.937,5.937,0,0,1-5.937,5.937h4.121a5.937,5.937,0,0,0,5.937-5.937V104.334Z" transform="translate(-358.748 -86.984)" fill="#f9eae0"/>
        <g id="Grupo_86179" data-name="Grupo 86179" transform="translate(0 41.552)">
          <path id="Trazado_121302" data-name="Trazado 121302" d="M80.812,287.776,57.645,264.609l-8.4,8.4,23.167,23.168a1.434,1.434,0,0,0,1.014.42H74.71l6.522-6.522v-1.28a1.434,1.434,0,0,0-.42-1.013Z" transform="translate(-44.734 -260.094)" fill="#a0c8ff"/>
          <path id="Trazado_121303" data-name="Trazado 121303" d="M109.854,287.776,86.686,264.609l-2.056,2.056L108.6,290.64a1.432,1.432,0,0,1,.387.712l1.282-1.282v-1.28a1.433,1.433,0,0,0-.42-1.014Z" transform="translate(-73.775 -260.094)" fill="#91b2fa"/>
          <path id="Trazado_121304" data-name="Trazado 121304" d="M189.712,403.639V397.27a1.432,1.432,0,0,0-.092-.5l-8.211,8.211a1.432,1.432,0,0,0,.5.092h6.369A1.433,1.433,0,0,0,189.712,403.639Z" transform="translate(-153.214 -368.574)" fill="#f9eae0"/>
          <path id="Trazado_121305" data-name="Trazado 121305" d="M29.115,240.278l-4.2,4.2a2.968,2.968,0,0,0,0,4.2l4.2,4.2,8.4-8.4-4.2-4.2a2.969,2.969,0,0,0-4.2,0Z" transform="translate(-24.047 -239.408)" fill="#fa8ebb"/>
          <path id="Trazado_121306" data-name="Trazado 121306" d="M52.567,240.244c.014.013.029.025.043.039l6.254,6.254,2.056-2.056-4.2-4.2A2.967,2.967,0,0,0,52.567,240.244Z" transform="translate(-47.457 -239.413)" fill="#f57fb0"/>
        </g>
        <path id="Trazado_121307" data-name="Trazado 121307" d="M169.241,40.634h-56.4a5.937,5.937,0,0,0-5.937,5.937v8.905h68.271V46.57A5.936,5.936,0,0,0,169.241,40.634Z" transform="translate(-92.06 -34.697)" fill="#ffce69"/>
        <path id="Trazado_121308" data-name="Trazado 121308" d="M435.929,40.634h-4.121a5.937,5.937,0,0,1,5.937,5.937v8.905h4.121V46.57A5.936,5.936,0,0,0,435.929,40.634Z" transform="translate(-358.748 -34.697)" fill="#ffbd61"/>
        <g id="Grupo_86180" data-name="Grupo 86180" transform="translate(23.751)">
          <path id="Trazado_121309" data-name="Trazado 121309" d="M156.607,16.4a2.968,2.968,0,1,0,5.937,0V10.468a2.968,2.968,0,1,0-5.937,0Z" transform="translate(-156.607 -7.5)" fill="#bdd3dd"/>
          <path id="Trazado_121310" data-name="Trazado 121310" d="M405.107,16.4a2.968,2.968,0,1,0,5.937,0V10.468a2.968,2.968,0,1,0-5.937,0Z" transform="translate(-360.582 -7.5)" fill="#bdd3dd"/>
          <path id="Trazado_121311" data-name="Trazado 121311" d="M239.44,16.4a2.968,2.968,0,0,0,5.937,0V10.468a2.968,2.968,0,0,0-5.937,0Z" transform="translate(-224.598 -7.5)" fill="#bdd3dd"/>
          <path id="Trazado_121312" data-name="Trazado 121312" d="M322.274,16.4a2.968,2.968,0,0,0,5.937,0V10.468a2.968,2.968,0,0,0-5.937,0Z" transform="translate(-292.591 -7.5)" fill="#bdd3dd"/>
        </g>
        <path id="Trazado_121313" data-name="Trazado 121313" d="M412.234,7.5a2.957,2.957,0,0,0-2.06.834,2.958,2.958,0,0,1,.908,2.134V16.4a2.958,2.958,0,0,1-.908,2.134A2.966,2.966,0,0,0,415.2,16.4V10.468A2.968,2.968,0,0,0,412.234,7.5Z" transform="translate(-340.99 -7.5)" fill="#abc4d6"/>
        <path id="Trazado_121314" data-name="Trazado 121314" d="M329.4,7.5a2.956,2.956,0,0,0-2.06.834,2.958,2.958,0,0,1,.908,2.134V16.4a2.958,2.958,0,0,1-.908,2.134A2.966,2.966,0,0,0,332.37,16.4V10.468A2.968,2.968,0,0,0,329.4,7.5Z" transform="translate(-272.999 -7.5)" fill="#abc4d6"/>
        <path id="Trazado_121315" data-name="Trazado 121315" d="M246.568,7.5a2.957,2.957,0,0,0-2.061.834,2.958,2.958,0,0,1,.908,2.134V16.4a2.957,2.957,0,0,1-.908,2.134,2.966,2.966,0,0,0,5.029-2.134V10.468A2.968,2.968,0,0,0,246.568,7.5Z" transform="translate(-205.007 -7.5)" fill="#abc4d6"/>
        <path id="Trazado_121316" data-name="Trazado 121316" d="M163.734,7.5a2.956,2.956,0,0,0-2.061.834,2.958,2.958,0,0,1,.908,2.134V16.4a2.957,2.957,0,0,1-.908,2.134A2.966,2.966,0,0,0,166.7,16.4V10.468A2.968,2.968,0,0,0,163.734,7.5Z" transform="translate(-137.015 -7.5)" fill="#abc4d6"/>
      </g>
      <g id="Grupo_86182" data-name="Grupo 86182" transform="translate(16.559 0)">
        <path id="Trazado_121317" data-name="Trazado 121317" d="M95.082,5.937H93.457V4.312a4.312,4.312,0,1,0-8.624,0V5.937H78.615V4.312a4.312,4.312,0,1,0-8.624,0V5.937H63.774V4.312a4.312,4.312,0,0,0-8.624,0V5.937H48.932V4.312a4.312,4.312,0,1,0-8.624,0V5.937H38.683a7.288,7.288,0,0,0-7.28,7.28V46.1l-3.287-3.287a4.317,4.317,0,0,0-6.1,0l-4.2,4.2a4.317,4.317,0,0,0,0,6.1L31.4,66.694V84.456a7.289,7.289,0,0,0,7.28,7.28H84.4a1.344,1.344,0,0,0,0-2.688H38.683a4.6,4.6,0,0,1-4.593-4.593V69.382L45.053,80.344a1.312,1.312,0,0,0,.1.09c.023.019.048.036.072.054l.034.025c.031.021.063.039.095.057l.018.011c.034.018.068.034.1.049l.015.007c.034.014.068.026.1.037l.021.007c.033.01.066.018.1.025l.029.007c.032.006.064.01.1.014l.034,0c.044,0,.087.006.131.006h7.839l1.705,1.705a1.344,1.344,0,0,0,1.9-1.9l-1.705-1.705V71q0-.066-.006-.132c0-.01,0-.019,0-.029,0-.034-.009-.068-.015-.1,0-.009,0-.017-.006-.026-.008-.034-.016-.068-.026-.1l-.006-.018c-.011-.036-.024-.071-.038-.106l-.005-.011c-.015-.036-.032-.072-.051-.108l-.008-.013c-.018-.034-.038-.067-.059-.1-.007-.01-.015-.019-.021-.029-.018-.026-.037-.052-.057-.077s-.058-.068-.09-.1L44.387,59.085H90.629a1.344,1.344,0,1,0,0-2.688H43.136a1.339,1.339,0,0,0-.995.442l-8.051-8.051V23.466H99.674v9.165a1.344,1.344,0,1,0,2.688,0V13.217a7.288,7.288,0,0,0-7.28-7.28ZM53.055,78.05H49.248l3.808-3.808ZM24.868,56.358l2.3-2.3L48.3,75.2l-2.3,2.3ZM50.2,73.3,29.066,52.161l2.3-2.3L52.5,71ZM19.72,48.913l4.2-4.2a1.626,1.626,0,0,1,2.3,0l3.248,3.248L26.216,51.21h0l-3.247,3.247L19.721,51.21A1.626,1.626,0,0,1,19.72,48.913ZM89.145,2.688a1.626,1.626,0,0,1,1.625,1.625v5.937a1.625,1.625,0,0,1-3.249,0V4.312a1.627,1.627,0,0,1,1.625-1.625Zm-14.841,0a1.626,1.626,0,0,1,1.625,1.625v5.937a1.625,1.625,0,1,1-3.249,0V4.312A1.626,1.626,0,0,1,74.3,2.688ZM57.837,4.312a1.625,1.625,0,1,1,3.249,0v5.937a1.625,1.625,0,1,1-3.249,0ZM44.62,2.688a1.626,1.626,0,0,1,1.625,1.625v5.937a1.625,1.625,0,1,1-3.249,0V4.312A1.626,1.626,0,0,1,44.62,2.688ZM34.091,20.778V13.217a4.6,4.6,0,0,1,4.593-4.593h1.625v1.624a4.312,4.312,0,1,0,8.624,0V8.624H55.15v1.624a4.312,4.312,0,1,0,8.624,0V8.624h6.217v1.624a4.312,4.312,0,1,0,8.624,0V8.624h6.217v1.624a4.312,4.312,0,1,0,8.624,0V8.624h1.625a4.6,4.6,0,0,1,4.593,4.593v7.561Z" transform="translate(-16.559 0)"/>
        <path id="Trazado_121318" data-name="Trazado 121318" d="M430.264,204.619a1.344,1.344,0,0,0-1.344,1.344v46.45a4.6,4.6,0,0,1-4.593,4.593h-5.31a1.344,1.344,0,1,0,0,2.688h5.31a7.289,7.289,0,0,0,7.28-7.28v-46.45A1.344,1.344,0,0,0,430.264,204.619Z" transform="translate(-345.805 -167.957)"/>
        <path id="Trazado_121319" data-name="Trazado 121319" d="M158.734,168.355h47.493a1.344,1.344,0,0,0,0-2.688H158.734a1.344,1.344,0,1,0,0,2.688Z" transform="translate(-132.157 -135.984)"/>
        <path id="Trazado_121320" data-name="Trazado 121320" d="M158.734,218.055h47.493a1.344,1.344,0,0,0,0-2.688H158.734a1.344,1.344,0,1,0,0,2.688Z" transform="translate(-132.157 -176.779)"/>
        <path id="Trazado_121321" data-name="Trazado 121321" d="M158.734,267.755h47.493a1.344,1.344,0,1,0,0-2.688H158.734a1.344,1.344,0,1,0,0,2.688Z" transform="translate(-132.157 -217.574)"/>
        <path id="Trazado_121322" data-name="Trazado 121322" d="M282.363,365.811a1.344,1.344,0,0,0-1.344-1.344H249.852a1.344,1.344,0,0,0,0,2.688h31.167A1.344,1.344,0,0,0,282.363,365.811Z" transform="translate(-206.949 -299.164)"/>
      </g>
    </g>
  </g>
</svg>
