<svg xmlns="http://www.w3.org/2000/svg" xmlns:xlink="http://www.w3.org/1999/xlink" width="105" height="88.974" viewBox="0 0 105 88.974">
  <defs>
    <clipPath id="clip-path">
      <rect id="Imagen_19" data-name="Imagen 19" width="105" height="88.974" rx="19" transform="translate(495 3913)"/>
    </clipPath>
  </defs>
  <g id="Grupo_122" data-name="Grupo 122" transform="translate(-495 -3913.001)" clip-path="url(#clip-path)">
    <g id="proyector_1_" data-name="proyector(1)" transform="translate(498.366 3848.974)">
      <g id="Grupo_948012" data-name="Grupo 948012" transform="translate(1.439 100.161)">
        <path id="Trazado_245859" data-name="Trazado 245859" d="M99.012,233.351H11.378A3.878,3.878,0,0,1,7.5,229.473V206.208a3.878,3.878,0,0,1,3.878-3.878H99.012a3.878,3.878,0,0,1,3.878,3.878v23.266A3.878,3.878,0,0,1,99.012,233.351Z" transform="translate(-7.5 -202.33)" fill="#707dd3"/>
      </g>
      <g id="Grupo_948013" data-name="Grupo 948013" transform="translate(88.686 100.161)">
        <path id="Trazado_245860" data-name="Trazado 245860" d="M466.338,202.33h-4.265a3.878,3.878,0,0,1,3.878,3.878v23.266a3.878,3.878,0,0,1-3.878,3.878h4.265a3.878,3.878,0,0,0,3.878-3.878V206.208A3.878,3.878,0,0,0,466.338,202.33Z" transform="translate(-462.073 -202.33)" fill="#5766cb"/>
      </g>
      <g id="Grupo_948014" data-name="Grupo 948014" transform="translate(25.093 100.161)">
        <path id="Trazado_245861" data-name="Trazado 245861" d="M130.74,213.963a24.022,24.022,0,0,0,9.843,19.388h28.4a24.01,24.01,0,0,0,6.835-31.021H133.748A23.893,23.893,0,0,0,130.74,213.963Z" transform="translate(-130.74 -202.33)" fill="#5766cb"/>
      </g>
      <g id="Grupo_948015" data-name="Grupo 948015" transform="translate(75.696 137.387)">
        <path id="Trazado_245862" data-name="Trazado 245862" d="M404.862,402.485h-8.531a1.939,1.939,0,0,1-1.939-1.939v-4.265H406.8v4.265A1.939,1.939,0,0,1,404.862,402.485Z" transform="translate(-394.392 -396.281)" fill="#5766cb"/>
      </g>
      <g id="Grupo_948016" data-name="Grupo 948016" transform="translate(5.317 131.182)">
        <path id="Trazado_245863" data-name="Trazado 245863" d="M112.235,370.159H30.805a3.1,3.1,0,0,1-3.1-3.1v-3.1h87.634v3.1A3.1,3.1,0,0,1,112.235,370.159Z" transform="translate(-27.703 -363.955)" fill="#407093"/>
      </g>
      <g id="Grupo_948017" data-name="Grupo 948017" transform="translate(10.164 137.387)">
        <path id="Trazado_245864" data-name="Trazado 245864" d="M54.9,402.485h8.531a1.939,1.939,0,0,0,1.939-1.939v-4.265H52.958v4.265A1.939,1.939,0,0,0,54.9,402.485Z" transform="translate(-52.958 -396.281)" fill="#5766cb"/>
      </g>
      <g id="Grupo_948018" data-name="Grupo 948018" transform="translate(29.746 92.406)">
        <circle id="Elipse_4911" data-name="Elipse 4911" cx="19.388" cy="19.388" r="19.388" fill="#3d4fc3"/>
      </g>
      <g id="Grupo_948019" data-name="Grupo 948019" transform="translate(35.95 98.61)">
        <circle id="Elipse_4912" data-name="Elipse 4912" cx="13.184" cy="13.184" r="13.184" transform="translate(0 0)" fill="#90d8f9"/>
      </g>
      <g id="Grupo_948020" data-name="Grupo 948020" transform="translate(37.968 100.628)">
        <path id="Trazado_245865" data-name="Trazado 245865" d="M215.986,204.763a13.174,13.174,0,0,1-18.163,18.163,13.179,13.179,0,1,0,18.163-18.163Z" transform="translate(-197.823 -204.763)" fill="#75cef9"/>
      </g>
      <g id="Grupo_948021" data-name="Grupo 948021" transform="translate(7.644 106.366)">
        <circle id="Elipse_4913" data-name="Elipse 4913" cx="4.653" cy="4.653" r="4.653" fill="#df75a5"/>
      </g>
      <g id="Grupo_948022" data-name="Grupo 948022" transform="translate(0 75.895)">
        <path id="Trazado_245866" data-name="Trazado 245866" d="M435.229,317.407v-1.939a1.439,1.439,0,0,0-2.879,0v1.939a1.439,1.439,0,0,0,2.879,0Z" transform="translate(-349.369 -268.324)"/>
        <path id="Trazado_245867" data-name="Trazado 245867" d="M467.554,317.407v-1.939a1.439,1.439,0,0,0-2.879,0v1.939a1.439,1.439,0,0,0,2.879,0Z" transform="translate(-375.49 -268.324)"/>
        <path id="Trazado_245868" data-name="Trazado 245868" d="M400.024,315.468v1.939a1.439,1.439,0,0,0,2.879,0v-1.939a1.439,1.439,0,0,0-2.879,0Z" transform="translate(-323.247 -268.324)"/>
        <path id="Trazado_245869" data-name="Trazado 245869" d="M367.7,315.468v1.939a1.439,1.439,0,0,0,2.879,0v-1.939a1.439,1.439,0,0,0-2.879,0Z" transform="translate(-297.126 -268.324)"/>
        <path id="Trazado_245870" data-name="Trazado 245870" d="M92.952,162.179H83.638a1.439,1.439,0,1,0,0,2.879h9.314A2.44,2.44,0,0,1,95.39,167.5v23.266a2.441,2.441,0,0,1-2.438,2.439H59.684a20.8,20.8,0,0,0,7.607-28.143H76.92a1.439,1.439,0,0,0,0-2.879H65.336a20.8,20.8,0,0,0-32.4,0H5.316A5.322,5.322,0,0,0,0,167.5v23.266a5.326,5.326,0,0,0,3.878,5.119v1.861a4.547,4.547,0,0,0,4.542,4.541h.305v2.826a3.382,3.382,0,0,0,3.378,3.378h8.531a3.382,3.382,0,0,0,3.378-3.378v-2.826H74.257v2.826a3.382,3.382,0,0,0,3.378,3.378h8.531a3.382,3.382,0,0,0,3.378-3.378v-2.826h.305a4.547,4.547,0,0,0,4.542-4.541v-1.861a5.327,5.327,0,0,0,3.878-5.119V167.5A5.323,5.323,0,0,0,92.952,162.179ZM49.134,157.3a17.949,17.949,0,1,1-17.949,17.949A17.969,17.969,0,0,1,49.134,157.3Zm-28,47.806a.5.5,0,0,1-.5.5H12.1a.5.5,0,0,1-.5-.5v-2.826h9.529Zm65.532,0a.5.5,0,0,1-.5.5H77.635a.5.5,0,0,1-.5-.5v-2.826h9.529v2.826Zm3.184-5.7H8.419a1.665,1.665,0,0,1-1.663-1.662V196.08h6.835a1.439,1.439,0,0,0,0-2.879H5.316a2.441,2.441,0,0,1-2.438-2.439V167.5a2.44,2.44,0,0,1,2.438-2.437H30.977a20.808,20.808,0,0,0,7.6,28.143H20.309a1.439,1.439,0,0,0,0,2.879h71.2v1.662A1.664,1.664,0,0,1,89.849,199.4Z" transform="translate(0 -139.352)"/>
        <path id="Trazado_245871" data-name="Trazado 245871" d="M183.115,199.437a1.439,1.439,0,0,0,1.756-1.03,11.744,11.744,0,1,1,0,5.934,1.439,1.439,0,1,0-2.786.726,14.623,14.623,0,1,0,0-7.386A1.44,1.44,0,0,0,183.115,199.437Z" transform="translate(-147.099 -165.474)"/>
        <path id="Trazado_245872" data-name="Trazado 245872" d="M38.418,227.155a6.093,6.093,0,1,0,6.093,6.093,6.1,6.1,0,0,0-6.093-6.093Zm0,9.306a3.214,3.214,0,1,1,3.214-3.214A3.217,3.217,0,0,1,38.418,236.461Z" transform="translate(-26.121 -198.123)"/>
        <path id="Trazado_245873" data-name="Trazado 245873" d="M213.209,80.681a11.733,11.733,0,0,1,12.828,0,1.439,1.439,0,1,0,1.574-2.41,14.612,14.612,0,0,0-15.976,0,1.439,1.439,0,1,0,1.574,2.41Z" transform="translate(-170.488 -75.895)"/>
        <path id="Trazado_245874" data-name="Trazado 245874" d="M225.24,110.327a1.439,1.439,0,1,0,1.881,2.18,5.574,5.574,0,0,1,7.239,0,1.44,1.44,0,0,0,1.881-2.18A8.471,8.471,0,0,0,225.24,110.327Z" transform="translate(-181.607 -102.079)"/>
      </g>
    </g>
  </g>
</svg>
