<svg xmlns="http://www.w3.org/2000/svg" xmlns:xlink="http://www.w3.org/1999/xlink" width="105" height="91.737" viewBox="0 0 105 91.737">
  <defs>
    <clipPath id="clip-path">
      <rect id="Imagen_20" data-name="Imagen 20" width="105" height="91.737" rx="19" transform="translate(915 3648.333)"/>
    </clipPath>
  </defs>
  <g id="Enmascarar_grupo_144" data-name="Enmascarar grupo 144" transform="translate(-915 -3648.333)" clip-path="url(#clip-path)">
    <g id="hablando" transform="translate(924.445 3651.146)">
      <g id="Grupo_86192" data-name="Grupo 86192" transform="translate(1.343 47.532)">
        <path id="Trazado_121405" data-name="Trazado 121405" d="M39.834,410.98H8v-11.2c0-3.545,3.163-5.524,6.745-6.445a36.865,36.865,0,0,1,18.347,0c3.59.891,6.745,2.9,6.745,6.445v11.2Z" transform="translate(-7.997 -373.745)" fill="#76e2f8" fill-rule="evenodd"/>
        <path id="Trazado_121406" data-name="Trazado 121406" d="M118.561,410.981H102.642V392.172a38.349,38.349,0,0,1,9.174,1.16c3.59.891,6.745,2.9,6.745,6.445Z" transform="translate(-86.723 -373.746)" fill="#3aaaff" fill-rule="evenodd"/>
        <path id="Trazado_121407" data-name="Trazado 121407" d="M67.215,282.616c3.956,0,7.163,2.255,7.163,7.454s-3.207,9.415-7.163,9.415-7.163-4.215-7.163-9.415S63.259,282.616,67.215,282.616Z" transform="translate(-51.297 -282.616)" fill="#f6dccd" fill-rule="evenodd"/>
        <path id="Trazado_121408" data-name="Trazado 121408" d="M102.643,282.616c3.956,0,7.163,2.255,7.163,7.454s-3.207,9.415-7.163,9.415Z" transform="translate(-86.724 -282.616)" fill="#f1cbbc" fill-rule="evenodd"/>
      </g>
      <g id="Grupo_86193" data-name="Grupo 86193" transform="translate(52.93 47.532)">
        <path id="Trazado_121409" data-name="Trazado 121409" d="M346.547,410.98v-11.2c0-3.543-3.155-5.554-6.745-6.445a36.866,36.866,0,0,0-18.347,0c-3.582.921-6.745,2.9-6.745,6.445v11.2Z" transform="translate(-314.71 -373.745)" fill="#73cbb1" fill-rule="evenodd"/>
        <path id="Trazado_121410" data-name="Trazado 121410" d="M425.275,410.982v-11.2c0-3.543-3.155-5.554-6.745-6.445a38.341,38.341,0,0,0-9.174-1.159v18.809Z" transform="translate(-393.437 -373.746)" fill="#539499" fill-rule="evenodd"/>
        <path id="Trazado_121411" data-name="Trazado 121411" d="M373.927,282.616c3.956,0,7.163,2.255,7.163,7.454s-3.207,9.415-7.163,9.415-7.163-4.215-7.163-9.415S369.971,282.616,373.927,282.616Z" transform="translate(-358.009 -282.616)" fill="#f6dccd" fill-rule="evenodd"/>
        <path id="Trazado_121412" data-name="Trazado 121412" d="M409.355,282.616c3.956,0,7.163,2.255,7.163,7.454s-3.207,9.415-7.163,9.415Z" transform="translate(-393.436 -282.616)" fill="#f1cbbc" fill-rule="evenodd"/>
      </g>
      <g id="Grupo_86194" data-name="Grupo 86194" transform="translate(17.067 1.343)">
        <path id="Trazado_121413" data-name="Trazado 121413" d="M132.1,44.777c.338.221,18.668-5.024,16.913-20.959C147.215,14.853,137.327,8,125.4,8c-13.206,0-23.912,8.4-23.912,18.765,0,6.032,3.628,11.4,9.264,14.832q-.594,3.12-4.282,7.327a14.013,14.013,0,0,0,11.054-4.437,29.837,29.837,0,0,0,7.877,1.043,30.067,30.067,0,0,0,6.705-.749Z" transform="translate(-101.485 -7.997)" fill="#f9e997" fill-rule="evenodd"/>
        <path id="Trazado_121414" data-name="Trazado 121414" d="M132.1,137.579c.317.207,16.382-4.372,17.011-18.015H101.485c0,6.032,3.628,11.4,9.264,14.832q-.594,3.12-4.282,7.327a14.013,14.013,0,0,0,11.054-4.437,30.313,30.313,0,0,0,14.582.294Z" transform="translate(-101.485 -100.799)" fill="#f5d844" fill-rule="evenodd"/>
        <path id="Trazado_121415" data-name="Trazado 121415" d="M250.455,80.088c8.117,0,14.7,5.836,14.7,13.034a12.379,12.379,0,0,1-4.72,9.57,11.557,11.557,0,0,0,2.894,4.916,9.476,9.476,0,0,1-7.014-2.529,16.255,16.255,0,0,1-5.855,1.076c-8.116,0-14.7-5.836-14.7-13.034S242.339,80.088,250.455,80.088Z" transform="translate(-213.175 -67.963)" fill="#eceff1" fill-rule="evenodd"/>
        <path id="Trazado_121416" data-name="Trazado 121416" d="M265.15,157.582a12.38,12.38,0,0,1-4.72,9.57,11.559,11.559,0,0,0,2.894,4.916,9.477,9.477,0,0,1-7.014-2.529,16.256,16.256,0,0,1-5.855,1.076c-8.116,0-14.7-5.836-14.7-13.034Z" transform="translate(-213.174 -132.423)" fill="#c4cccf" fill-rule="evenodd"/>
      </g>
      <path id="Trazado_121417" data-name="Trazado 121417" d="M54.4,40.685a17.488,17.488,0,0,0,5.637-.919,10.806,10.806,0,0,0,6.616,2.407q.392,0,.777-.035a1.164,1.164,0,0,0,.77-1.926,12.513,12.513,0,0,1-2.464-3.771A13.569,13.569,0,0,0,70.32,26.43a13.486,13.486,0,0,0-4.573-9.98C63.6,6.9,53.26,0,40.971,0,27.086,0,15.79,8.974,15.79,20.008c0,6.033,3.318,11.616,9.136,15.43A18.075,18.075,0,0,1,21.083,41.5a1.164,1.164,0,0,0,.77,1.926q.543.049,1.1.049A15.484,15.484,0,0,0,33.418,39.1a31.813,31.813,0,0,0,14.192.2A17.355,17.355,0,0,0,54.4,40.685Zm13.6-14.255a11.2,11.2,0,0,1-4.315,8.713,1.163,1.163,0,0,0-.4,1.13,9.458,9.458,0,0,0,1.5,3.319,8.554,8.554,0,0,1-3.7-2,1.163,1.163,0,0,0-1.21-.232,15.11,15.11,0,0,1-5.462,1c-7.5,0-13.6-5.351-13.6-11.927S46.9,14.5,54.4,14.5s13.6,5.35,13.6,11.927ZM33.367,36.684a1.166,1.166,0,0,0-1.159.329,13.078,13.078,0,0,1-7.744,4.017A14.777,14.777,0,0,0,27.4,35.122a1.163,1.163,0,0,0-.538-1.212c-5.559-3.385-8.747-8.453-8.747-13.9,0-9.75,10.251-17.683,22.853-17.683,9.777,0,18.437,4.933,21.586,11.887a17.216,17.216,0,0,0-8.16-2.037c-8.78,0-15.924,6.394-15.924,14.254A13.721,13.721,0,0,0,44.36,37.484a29.373,29.373,0,0,1-10.993-.8Zm30.821-9.509a1.164,1.164,0,0,1-1.164,1.164H60.044a1.164,1.164,0,0,1,0-2.327h2.981A1.164,1.164,0,0,1,64.188,27.175Zm-7.138,0a1.164,1.164,0,0,1-1.164,1.164H52.906a1.164,1.164,0,0,1,0-2.327h2.981A1.164,1.164,0,0,1,57.05,27.175Zm-7.137,0a1.164,1.164,0,0,1-1.164,1.164H45.769a1.164,1.164,0,0,1,0-2.327H48.75A1.164,1.164,0,0,1,49.914,27.175ZM40.971,8.238c-6.815,0-14.7,3.24-16.589,9.433a8.017,8.017,0,0,0-.351,2.337,1.164,1.164,0,0,1-2.327,0,10.335,10.335,0,0,1,.452-3.016C24.372,9.717,33.3,5.911,40.97,5.911a1.164,1.164,0,0,1,0,2.327ZM26.644,66.094a40.357,40.357,0,0,0-6.677-1.069c3.225-1.473,5.542-5.387,5.542-9.986,0-5.335-3.2-8.65-8.358-8.65S8.791,49.7,8.791,55.038c0,4.586,2.3,8.492,5.517,9.974A37.791,37.791,0,0,0,7.647,66.1C2.714,67.364,0,70.064,0,73.7V84.95a1.164,1.164,0,0,0,2.327,0V73.7c0-3.164,3.209-4.654,5.9-5.345a36.076,36.076,0,0,1,17.857,0c2.2.545,5.891,1.966,5.891,5.343V84.95a1.164,1.164,0,0,0,2.327,0V73.7c0-3.624-2.791-6.395-7.658-7.6ZM11.118,55.038c0-5.5,3.779-6.323,6.031-6.323s6.031.821,6.031,6.323c0,4.572-2.706,8.292-6.031,8.292s-6.031-3.72-6.031-8.292ZM9.59,76.425v8.524a1.164,1.164,0,1,1-2.327,0V76.425a1.164,1.164,0,1,1,2.327,0Zm17.446,0v8.524a1.164,1.164,0,1,1-2.327,0V76.425a1.164,1.164,0,1,1,2.327,0ZM78.455,66.094a40.356,40.356,0,0,0-6.677-1.069C75,63.551,77.32,59.637,77.32,55.038c0-5.335-3.2-8.65-8.359-8.65S60.6,49.7,60.6,55.038c0,4.586,2.3,8.492,5.516,9.974A37.809,37.809,0,0,0,59.457,66.1c-4.931,1.268-7.648,3.968-7.648,7.6V84.95a1.164,1.164,0,0,0,2.327,0V73.7c0-3.164,3.209-4.654,5.9-5.345a36.069,36.069,0,0,1,17.857,0c2.2.545,5.891,1.966,5.891,5.343V84.95a1.164,1.164,0,1,0,2.327,0V73.7c0-3.624-2.791-6.395-7.658-7.6ZM62.93,55.038c0-5.5,3.778-6.323,6.031-6.323s6.031.821,6.031,6.323c0,4.572-2.706,8.292-6.031,8.292s-6.031-3.72-6.031-8.292ZM61.4,76.425v8.524a1.164,1.164,0,0,1-2.327,0V76.425a1.164,1.164,0,1,1,2.327,0Zm17.445,0v8.524a1.164,1.164,0,1,1-2.327,0V76.425a1.164,1.164,0,1,1,2.327,0Z" fill-rule="evenodd"/>
    </g>
  </g>
</svg>
