<svg xmlns="http://www.w3.org/2000/svg" xmlns:xlink="http://www.w3.org/1999/xlink" width="105" height="91.737" viewBox="0 0 105 91.737">
  <defs>
    <clipPath id="clip-path">
      <rect id="Imagen_23" data-name="Imagen 23" width="105" height="91.737" rx="19" transform="translate(915 3648.333)"/>
    </clipPath>
  </defs>
  <g id="Enmascarar_grupo_147" data-name="Enmascarar grupo 147" transform="translate(-915 -3648.333)" clip-path="url(#clip-path)">
    <g id="megafono_1_" data-name="megafono(1)" transform="translate(921.979 3650.746)">
      <g id="Icons" transform="translate(1.518 5.509)">
        <path id="Trazado_121348" data-name="Trazado 121348" d="M37.417,18V51.382H17.691a16.691,16.691,0,0,1,0-33.382Z" transform="translate(-1 1.726)" fill="#f44335"/>
        <path id="Trazado_121349" data-name="Trazado 121349" d="M22,18h4.552V51.382H22Z" transform="translate(9.865 1.726)" fill="#c81e1e"/>
        <path id="Trazado_121350" data-name="Trazado 121350" d="M32.587,14.56V58.382l-4.552-3.126L25,53.162V19.78Z" transform="translate(11.417 -0.054)" fill="#9e9e9e"/>
        <path id="Trazado_121351" data-name="Trazado 121351" d="M46.691,7V73.764L30,62.293V18.471Z" transform="translate(14.004 -3.965)" fill="#f5f5f5"/>
        <path id="Trazado_121352" data-name="Trazado 121352" d="M38,10.129V70.636l4.552,3.129V7Z" transform="translate(18.143 -3.965)" fill="#cfd8dc"/>
        <rect id="Rectángulo_34871" data-name="Rectángulo 34871" width="6.069" height="72.834" rx="2" transform="translate(60.695)" fill="#f44335"/>
        <path id="Trazado_121353" data-name="Trazado 121353" d="M26.506,62.761H22.773a7.573,7.573,0,0,1-7.435-6.1L12,40H25.656l1.517,7.587L29.48,59.134a3.035,3.035,0,0,1-2.974,3.627Z" transform="translate(4.691 13.108)" fill="#f5f5f5"/>
        <path id="Trazado_121354" data-name="Trazado 121354" d="M26.376,59.134,24.07,47.587,22.552,40H18l1.517,7.587,2.306,11.547a3.015,3.015,0,0,1-2.61,3.586c.152.011.3.041.455.041H23.4a3.035,3.035,0,0,0,2.974-3.627Z" transform="translate(7.795 13.108)" fill="#cfd8dc"/>
        <path id="Trazado_121355" data-name="Trazado 121355" d="M30.1,42.094v2.458a3.044,3.044,0,0,1-3.035,3.035H22.517L21,40h6.069Z" transform="translate(9.347 13.108)" fill="#7f8e94"/>
        <path id="Trazado_121356" data-name="Trazado 121356" d="M45,23.341a9.1,9.1,0,0,1,0,17.174Z" transform="translate(21.764 4.489)" fill="#c81e1e"/>
      </g>
      <g id="Icons_copy" data-name="Icons copy" transform="translate(-0.002 4.017)">
        <path id="Trazado_121357" data-name="Trazado 121357" d="M16.953,60.071l3.1,15.5a9.125,9.125,0,0,0,8.928,7.32h3.736a4.552,4.552,0,0,0,4.458-5.444l-1.942-9.729h2.7a4.543,4.543,0,0,0,4.513-4.161l18.334,12.6a4.552,4.552,0,0,0,9.018-.857V51.493a10.575,10.575,0,0,0,0-19.127V8.544a4.552,4.552,0,0,0-9.018-.857L37.464,23.717H18.21a18.2,18.2,0,0,0-1.256,36.353ZM33.89,79.3a1.517,1.517,0,0,1-1.173.555H28.983a6.083,6.083,0,0,1-5.951-4.88L20.061,60.134H30.623L34.2,78.047A1.517,1.517,0,0,1,33.89,79.3Zm5.563-16.136a1.517,1.517,0,0,1-1.517,1.517H34.628l-.91-4.552h3.746L39.453,61.5Zm0-37.136L44,22.9V60.949l-4.552-3.13ZM72.835,41.926A7.6,7.6,0,0,1,69.8,48V35.856A7.6,7.6,0,0,1,72.835,41.926Zm-7.587-34.9a1.517,1.517,0,0,1,1.517,1.517V75.308a1.517,1.517,0,0,1-3.035,0V8.544A1.517,1.517,0,0,1,65.248,7.026ZM60.7,72.425,47.04,63.037V20.816L60.7,11.427ZM18.21,26.752H36.418V57.1H18.21a15.174,15.174,0,1,1,0-30.347Z" transform="translate(0.002 -4.017)"/>
        <path id="Trazado_121358" data-name="Trazado 121358" d="M6.517,31.035h4.552a1.517,1.517,0,0,0,0-3.035H6.517a1.517,1.517,0,0,0,0,3.035Z" transform="translate(2.59 8.392)"/>
        <path id="Trazado_121359" data-name="Trazado 121359" d="M6.517,27.035h4.552a1.517,1.517,0,1,0,0-3.035H6.517a1.517,1.517,0,0,0,0,3.035Z" transform="translate(2.59 6.322)"/>
        <path id="Trazado_121360" data-name="Trazado 121360" d="M6.517,35.035h4.552a1.517,1.517,0,0,0,0-3.035H6.517a1.517,1.517,0,0,0,0,3.035Z" transform="translate(2.59 10.461)"/>
        <path id="Trazado_121361" data-name="Trazado 121361" d="M49.518,25.1a1.517,1.517,0,0,0,.841-.255l9.1-6.069a1.518,1.518,0,1,0-1.684-2.525l-9.1,6.069a1.517,1.517,0,0,0,.844,2.78Z" transform="translate(24.837 2.183)"/>
        <path id="Trazado_121362" data-name="Trazado 121362" d="M51.079,27.033a1.517,1.517,0,0,0,1.918.96l9.1-3.035a1.519,1.519,0,0,0-.959-2.883l-9.1,3.035a1.517,1.517,0,0,0-.959,1.923Z" transform="translate(26.389 5.286)"/>
        <path id="Trazado_121363" data-name="Trazado 121363" d="M48.255,36.675a1.517,1.517,0,0,0,.42,2.1l9.1,6.069a1.518,1.518,0,1,0,1.684-2.525l-9.1-6.069A1.517,1.517,0,0,0,48.255,36.675Z" transform="translate(24.837 12.531)"/>
        <path id="Trazado_121364" data-name="Trazado 121364" d="M61.622,38.07a1.517,1.517,0,0,0,.479-2.957L53,32.078a1.519,1.519,0,1,0-.959,2.883L61.143,38a1.517,1.517,0,0,0,.479.074Z" transform="translate(26.389 10.461)"/>
        <path id="Trazado_121365" data-name="Trazado 121365" d="M52,29.517a1.517,1.517,0,0,0,1.517,1.517h9.1a1.517,1.517,0,0,0,0-3.035h-9.1A1.517,1.517,0,0,0,52,29.517Z" transform="translate(26.907 8.392)"/>
      </g>
    </g>
  </g>
</svg>
